<svg xmlns="http://www.w3.org/2000/svg" width="362" height="168" fill="none" viewBox="0 0 362 168">
  <g clip-path="url(#a)" opacity=".5" style="mix-blend-mode:luminosity">
    <rect width="594" height="249.87" x="-173.88" y="17.69" fill="#1A1B1E" rx="3.93" transform="rotate(-15 -173.88 17.69)"/>
    <g clip-path="url(#b)">
      <rect width="577.8" height="249.38" x="-166" y="15.83" stroke="#222326" stroke-width=".49" rx="3.68" transform="rotate(-15 -166 15.83)"/>
      <path stroke="#27282E" stroke-width=".53" d="m24.41-44.59 75.66 282.38m-251.11-2.09L469.19 69.5M-62.84-21.21l75.66 282.37m-140.49 61.79 620.24-166.2M-41.03-27.06l75.66 282.38m-168.13 45.81 620.22-166.19M-19.22-32.9l75.67 282.37m-195.8 29.85 620.23-166.19M2.6-38.75l75.66 282.38m-223.46 13.88L475.03 91.32m-407-147.6L143.7 226.1m-306.43-34.03L457.5 25.88M46.22-50.43l75.66 282.37m-278.77-18.05 620.23-166.2M89.85-62.12l75.66 282.37m-334.09-49.99L451.65 4.07M177.1-85.5l75.66 282.37M-191.96 83.01 428.27-83.18m-294.8 9.37 75.66 282.37m-389.4-81.92 620.23-166.2M198.9-91.35l75.67 282.38M-197.8 61.2 422.43-105M155.28-79.66l75.67 282.38m-417.06-97.9L434.12-61.37m-191.59-41.67 75.66 282.38M-209.49 17.57l620.23-166.19m-146.39 39.74L340 173.49m-53.84-288.22 75.66 282.38m-53.85-288.22 75.66 282.38M220.72-97.2l75.66 282.38M-203.65 39.39l620.24-166.2M111.66-67.97l75.66 282.38m-361.74-65.96L445.8-17.75M329.78-126.42l75.67 282.38M351.6-132.26l75.66 282.38"/>
      <g clip-path="url(#c)">
        <rect width="54.04" height="54.04" x="23.77" y="-26.12" fill="#4C4E59" rx="27.02" transform="rotate(-15 23.77 -26.12)"/>
        <g filter="url(#d)">
          <ellipse cx="52.01" cy="14.34" fill="#E73235" rx="27.72" ry="27.89" transform="rotate(-15 52.01 14.34)"/>
        </g>
        <path fill="#fff" d="m48.51-6.85-1.25-4.68.68-.18 2.65 3.47.05-.01.55-4.33.68-.18 1.25 4.67-.54.15-.96-3.57h-.03l-.52 3.98-.5.13-2.43-3.18-.04.01.96 3.57-.55.15Zm6.71-1.73c-.66.18-1.27-.1-1.44-.73-.17-.62.2-1.1 1-1.37l.98-.33-.09-.32c-.11-.43-.44-.6-.96-.46-.42.12-.65.34-.67.64v.01l-.56.15V-11c-.06-.57.37-1.08 1.12-1.28.85-.23 1.44.08 1.64.8l.64 2.4-.57.15-.13-.52-.06.02a1.2 1.2 0 0 1-.9.86Zm-.87-.9c.1.36.45.49.86.38.57-.16.89-.64.75-1.14l-.08-.32-.92.3c-.52.18-.7.43-.61.78Zm2.74-4.14a.4.4 0 0 1-.5-.28.4.4 0 0 1 .3-.5.4.4 0 0 1 .48.3.4.4 0 0 1-.28.48Zm.83 4.25-.93-3.5.56-.15.94 3.5-.57.15Zm1.63-.44-.94-3.5.57-.14.14.52.05-.01c.08-.42.34-.72.86-.86.78-.21 1.35.14 1.57.97l.6 2.26-.56.15-.57-2.13c-.17-.63-.5-.86-1.07-.7-.55.14-.8.61-.64 1.22l.55 2.07-.56.15ZM48.9 1.45c-1.03.27-1.83-.1-2.1-.83l-.02-.04.59-.16v.04c.18.45.74.62 1.41.44.64-.17 1.02-.62.89-1.1-.1-.4-.45-.59-1.13-.56L48-.73c-.99.04-1.5-.28-1.7-.96-.2-.78.33-1.5 1.3-1.76.93-.25 1.73.12 1.97.8l.01.05-.58.16-.02-.04c-.17-.4-.64-.6-1.25-.43-.58.16-.96.55-.83 1.04.1.38.43.56 1.1.53l.55-.02c1.03-.04 1.52.24 1.7.92.24.88-.3 1.6-1.34 1.89ZM52.95.3c-1 .27-1.79-.27-2.08-1.37-.3-1.08.12-1.98 1.07-2.24.95-.25 1.72.3 2 1.34l.06.22-2.52.68c.21.72.72 1.03 1.35.86.47-.12.7-.42.74-.66V-.9l.57-.15v.02c0 .5-.37 1.1-1.2 1.33Zm-.88-3.1c-.51.13-.81.6-.7 1.27l1.93-.51c-.24-.68-.71-.9-1.22-.76ZM55.3-.4l-.94-3.49.57-.15.13.52.06-.02c.03-.4.3-.7.78-.83.1-.03.23-.04.28-.05l.15.55a2.1 2.1 0 0 0-.36.06c-.53.14-.83.59-.69 1.1l.58 2.16-.56.15Zm3.55-.95-2.23-3.14.6-.16 1.72 2.62.05-.02.19-3.13.6-.16-.36 3.84-.57.15Zm1.79-4.94a.4.4 0 0 1-.5-.29.4.4 0 0 1 .29-.5.4.4 0 0 1 .5.3.4.4 0 0 1-.3.49Zm.83 4.24-.94-3.5.57-.14.93 3.49-.56.15Zm3.07-.76c-.98.27-1.8-.28-2.09-1.39-.3-1.09.14-1.96 1.12-2.22.85-.23 1.49.12 1.76.72v.02l-.55.15v-.01c-.19-.32-.57-.52-1.08-.38-.62.16-.88.78-.67 1.56v.01c.21.8.75 1.21 1.38 1.04.47-.12.7-.4.73-.83v-.02l.56-.16v.04c.03.67-.32 1.25-1.16 1.47Zm3.71-1c-1 .28-1.78-.26-2.08-1.36-.29-1.08.13-1.98 1.08-2.24.95-.25 1.72.3 2 1.34l.05.22-2.51.68c.2.71.72 1.03 1.34.86.48-.12.7-.43.75-.66V-5l.56-.16v.03c.01.5-.36 1.1-1.19 1.33Zm-.87-3.1c-.52.14-.82.6-.7 1.28l1.93-.51c-.24-.68-.71-.9-1.23-.77Z"/>
      </g>
      <rect width="68.73" height="68.73" x="-19.83" y="76.71" fill="#E73235" rx="34.36" transform="rotate(-15 -19.83 76.71)"/>
      <path fill="#fff" d="m1.08 105.76-1.41-5.28-1.92.51-.18-.66 4.58-1.23.18.67-1.92.51 1.42 5.28-.75.2Zm3.1-.83-1.2-4.44.73-.2.17.66.07-.01c.04-.52.39-.9.99-1.06.13-.04.3-.06.36-.07l.2.7c-.16.02-.3.03-.46.08-.69.18-1.06.74-.88 1.4l.74 2.75-.72.2Zm4.46-1.11c-.85.23-1.62-.11-1.84-.92-.22-.8.25-1.42 1.27-1.75l1.25-.42-.11-.4c-.15-.56-.56-.76-1.22-.59-.54.15-.83.44-.86.82l-.71.2v-.02c-.08-.73.47-1.38 1.42-1.64 1.08-.29 1.84.1 2.09 1.03l.81 3.04-.71.2-.18-.66-.07.02c-.15.55-.55.93-1.14 1.09Zm-1.11-1.13c.12.45.57.6 1.09.47.73-.2 1.13-.82.96-1.45l-.1-.4-1.17.38c-.67.23-.9.55-.78.99Zm4.52.13-1.19-4.44.72-.2.18.67.06-.02c.1-.52.44-.91 1.1-1.09 1-.27 1.71.18 2 1.23l.77 2.88-.72.19-.73-2.7c-.21-.8-.64-1.1-1.35-.9-.71.18-1.03.78-.82 1.56l.7 2.63-.72.2Zm6.48-1.65c-.99.27-1.8-.03-2.08-.74l.74-.2c.22.34.64.49 1.2.33.6-.16.95-.55.84-.96-.08-.3-.36-.46-.95-.44l-.73.02c-.89.02-1.36-.24-1.53-.88-.2-.74.36-1.49 1.3-1.74.94-.25 1.71.04 2 .74l-.7.2c-.2-.33-.6-.48-1.14-.34-.53.14-.84.52-.74.9v.02c.09.3.36.43.92.42l.73-.02c.89-.03 1.39.23 1.56.86v.01c.21.8-.41 1.55-1.42 1.82Zm4.11-1.1c-.84.22-1.62-.12-1.83-.92v-.01c-.22-.8.25-1.4 1.26-1.75l1.26-.42-.11-.4c-.15-.55-.56-.76-1.23-.58-.53.14-.83.44-.85.81v.02l-.72.19v-.03c-.07-.73.48-1.38 1.43-1.63 1.08-.3 1.84.1 2.09 1.03l.81 3.04-.72.2-.17-.66-.07.01c-.15.55-.55.94-1.15 1.1Zm-1.1-1.14c.12.45.57.61 1.09.47.73-.2 1.13-.81.96-1.45l-.1-.4-1.18.4c-.66.21-.9.53-.78.97v.01Zm6.36-.27c-1.24.33-2.28-.36-2.66-1.77-.37-1.39.18-2.5 1.42-2.83 1.08-.29 1.9.16 2.24.91l.01.03-.71.19v-.01c-.24-.4-.73-.66-1.37-.49-.8.22-1.13 1-.86 2 .28 1.03.96 1.55 1.76 1.33.6-.16.9-.52.93-1.06v-.03l.71-.2v.06c.04.85-.4 1.58-1.47 1.87Zm4.56-1.27c-.92.24-1.4 0-1.62-.84l-.72-2.7-.7.2-.16-.6.7-.19-.31-1.15.74-.2.3 1.15.98-.26.16.6-.97.26.67 2.51c.14.52.38.69.84.56l.33-.1.16.6c-.13.07-.26.12-.4.16Zm.43-5.84a.51.51 0 0 1-.62-.36.51.51 0 0 1 .36-.62c.27-.08.55.09.63.36a.51.51 0 0 1-.37.62Zm1.06 5.4-1.19-4.44.72-.2 1.19 4.45-.72.2Zm3.92-.96c-1.27.34-2.28-.33-2.67-1.75-.38-1.43.17-2.51 1.44-2.85 1.26-.34 2.28.32 2.66 1.74v.01c.38 1.42-.17 2.5-1.43 2.85Zm-.17-.64c.84-.22 1.15-.96.87-2.01-.29-1.06-.92-1.54-1.76-1.32-.85.23-1.16.96-.87 2.02.28 1.05.92 1.54 1.76 1.31Zm3.3-.29-1.18-4.44.72-.2.17.67.07-.01c.1-.53.44-.92 1.1-1.1 1-.26 1.7.18 1.99 1.23l.77 2.88-.72.2-.72-2.71c-.22-.8-.65-1.1-1.36-.9-.7.18-1.03.78-.82 1.56l.7 2.63-.71.2ZM12.53 113.2c-1.3.35-2.32-.11-2.67-1.06l-.02-.04.75-.2.01.04c.21.58.93.8 1.8.56.8-.21 1.28-.79 1.11-1.4-.13-.5-.56-.74-1.43-.7l-.7.03c-1.26.06-1.92-.35-2.15-1.22-.26-.99.41-1.91 1.64-2.24 1.19-.32 2.2.16 2.5 1.03l.02.05-.74.2-.02-.05c-.22-.5-.82-.76-1.6-.54-.74.2-1.21.7-1.05 1.33.13.47.54.7 1.4.67l.7-.03c1.31-.05 1.94.31 2.17 1.17.3 1.12-.39 2.04-1.72 2.4Zm5.14-1.45c-1.27.34-2.27-.34-2.64-1.73-.37-1.38.16-2.53 1.37-2.85 1.2-.33 2.18.37 2.53 1.7l.08.28-3.2.86c.27.91.92 1.31 1.7 1.1.61-.16.9-.54.95-.84l.01-.05.72-.19v.04c0 .64-.47 1.4-1.52 1.68Zm-1.1-3.94c-.67.17-1.05.76-.9 1.62l2.46-.66c-.31-.85-.91-1.14-1.57-.96Zm4.1 3.06-1.2-4.44.72-.2.18.66.06-.02c.05-.5.39-.89 1-1.05.13-.04.28-.06.36-.07l.18.7c-.15.01-.3.03-.45.08-.68.18-1.05.74-.88 1.4l.74 2.75-.72.19Zm4.5-1.21-2.83-4 .76-.2 2.2 3.33.06-.02.24-3.99.76-.2-.46 4.89-.72.19Zm2.28-6.3a.51.51 0 1 1 .36-.63.51.51 0 0 1-.36.64Zm1.06 5.4-1.19-4.44.72-.19 1.19 4.44-.72.2Zm3.9-.96c-1.24.34-2.27-.35-2.65-1.76v-.01c-.37-1.38.18-2.5 1.42-2.83 1.08-.29 1.9.16 2.24.92l.01.02-.71.2v-.02c-.24-.4-.73-.65-1.37-.48-.8.21-1.13 1-.86 2 .28 1.02.96 1.54 1.76 1.33.6-.16.9-.53.93-1.06v-.03l.71-.2v.05c.04.85-.4 1.59-1.47 1.87Zm4.73-1.26c-1.27.34-2.28-.35-2.65-1.74-.37-1.38.16-2.53 1.37-2.85 1.2-.32 2.18.38 2.54 1.7l.07.29-3.2.85c.27.92.92 1.32 1.71 1.1.6-.16.9-.54.95-.84v-.04l.72-.2v.04c.01.64-.46 1.4-1.51 1.69Zm-1.11-3.95c-.66.18-1.04.76-.9 1.63l2.46-.66c-.3-.86-.9-1.15-1.56-.97Z"/>
      <g clip-path="url(#e)">
        <rect width="54.04" height="54.04" x="288.07" y="83.99" fill="#4C4E59" rx="27.02" transform="rotate(-15 288.07 83.99)"/>
        <g filter="url(#f)">
          <ellipse cx="298.98" cy="88.69" fill="#E73235" rx="27.72" ry="27.89" transform="rotate(-15 298.98 88.7)"/>
        </g>
        <path fill="#fff" d="m310.85 103.79-1.25-4.68 1.78-.48c.86-.23 1.5.08 1.7.8.13.48-.1 1.02-.54 1.22l.02.05c.66-.09 1.18.24 1.34.86.23.82-.23 1.47-1.23 1.74l-1.82.49Zm.55-4.61-1.08.29.4 1.5.93-.25c.7-.2 1-.54.87-1.03-.13-.48-.54-.67-1.12-.51Zm.55 2-1.1.3.44 1.63 1.16-.3c.7-.2 1-.58.85-1.12-.15-.54-.6-.71-1.35-.51Zm2.37-2.8a.4.4 0 0 1-.2-.77.4.4 0 0 1 .49.28.4.4 0 0 1-.29.5Zm.83 4.25-.93-3.5.56-.14.94 3.5-.57.14Zm1.66-.44-1.3-4.88.56-.15 1.3 4.88-.56.15Zm1.68-.45-1.3-4.88.56-.15 1.3 4.88-.56.15Zm.83-4.7a.4.4 0 0 1-.2-.77.4.4 0 0 1 .2.78Zm.83 4.25-.94-3.5.57-.14.94 3.5-.57.14Zm1.63-.43-.94-3.5.57-.15.14.53.05-.02c.07-.41.34-.72.86-.86.78-.2 1.35.14 1.57.97l.6 2.26-.56.15-.57-2.12c-.17-.63-.5-.86-1.07-.71-.55.14-.8.62-.64 1.23l.55 2.07-.56.15Zm5.64-.2c-.84.23-1.48 0-1.72-.55v-.01l.59-.16c.14.26.5.36 1 .23.63-.17.92-.57.78-1.08l-.19-.7h-.05c-.12.45-.45.77-.93.9-.9.24-1.66-.3-1.92-1.29-.26-.98.11-1.84 1.02-2.09.5-.13.95.01 1.27.35l.03-.01-.15-.58.56-.15.93 3.45c.2.78-.26 1.44-1.22 1.7Zm-.53-1.9c.64-.17.9-.77.72-1.46-.2-.7-.72-1.09-1.36-.92-.65.18-.88.77-.7 1.46v.01c.2.7.69 1.08 1.34.9Zm-13.68 12.8c-1.02.27-1.83-.1-2.1-.84l-.01-.03.58-.16.01.04c.17.45.74.62 1.4.44.64-.17 1.02-.63.9-1.1-.11-.4-.45-.59-1.13-.56l-.55.03c-1 .04-1.51-.28-1.7-.96-.2-.78.33-1.5 1.3-1.77.93-.25 1.73.13 1.96.81l.02.05-.58.16-.02-.05c-.18-.39-.65-.59-1.26-.42-.58.16-.96.55-.82 1.04.1.38.42.56 1.1.53l.54-.02c1.04-.05 1.53.24 1.7.92.24.88-.3 1.6-1.34 1.88Zm4.04-1.14c-1 .27-1.79-.27-2.08-1.37-.29-1.08.13-1.98 1.08-2.24.95-.25 1.71.3 2 1.34l.05.22-2.51.68c.2.72.72 1.03 1.34.86.47-.12.7-.43.74-.66v-.03l.57-.16v.03c.01.5-.36 1.1-1.19 1.33Zm-.87-3.1c-.52.13-.82.6-.7 1.27l1.93-.52c-.25-.67-.72-.9-1.23-.76Zm3.22 2.4-.93-3.5.56-.14.14.52.05-.02c.04-.4.3-.7.78-.83.1-.03.23-.05.29-.05l.14.55c-.12 0-.23.02-.35.06-.54.14-.83.58-.7 1.1l.59 2.16-.57.15Zm3.55-.95-2.23-3.15.6-.16 1.73 2.63.05-.02.18-3.13.6-.16-.36 3.84-.57.15Zm1.8-4.95a.4.4 0 0 1-.5-.28.4.4 0 0 1 .28-.5.4.4 0 0 1 .2.78Zm.82 4.25-.93-3.5.56-.15.94 3.5-.57.15Zm3.08-.76c-.98.26-1.8-.28-2.1-1.39-.29-1.09.15-1.96 1.13-2.23.84-.22 1.48.13 1.75.73l.01.01-.56.15c-.18-.33-.57-.52-1.07-.39-.63.17-.89.78-.68 1.57.22.81.76 1.22 1.38 1.05.47-.12.71-.41.74-.83v-.03l.56-.15v.04c.03.67-.32 1.25-1.16 1.47Zm3.7-1c-.99.27-1.78-.26-2.07-1.36-.3-1.08.12-1.99 1.07-2.24.95-.25 1.72.3 2 1.34l.06.22-2.52.67c.21.72.73 1.04 1.35.87.47-.13.7-.43.74-.66v-.04l.57-.15v.03c0 .5-.37 1.1-1.2 1.33Zm-.87-3.1c-.51.14-.81.6-.7 1.28l1.93-.52c-.24-.67-.7-.9-1.23-.76Z"/>
      </g>
      <rect width="69.54" height="69.54" x="165.67" y="-26.03" fill="#E73235" rx="34.77" transform="rotate(-15 165.67 -26.03)"/>
      <path fill="#fff" d="M199.57.12c-1.49.4-2.63-.25-2.98-1.56l-1.06-3.95.75-.2 1.05 3.9c.24.92 1.02 1.4 2.06 1.12 1.04-.28 1.46-1.08 1.21-2l-1.04-3.9.75-.2 1.06 3.94c.35 1.31-.3 2.45-1.8 2.85Zm5.35-1.5c-1 .27-1.82-.03-2.1-.75l.74-.2c.22.35.65.5 1.22.34.6-.16.96-.56.85-.97-.08-.31-.37-.46-.96-.45l-.74.02c-.9.03-1.37-.24-1.55-.89-.2-.75.37-1.5 1.32-1.76.95-.25 1.73.05 2.02.75l-.7.2c-.2-.33-.62-.49-1.16-.34-.53.14-.85.52-.75.92.09.31.37.44.93.43l.74-.02c.9-.02 1.4.24 1.58.88.21.8-.42 1.57-1.44 1.84Zm4.77-1.27c-1.29.34-2.3-.35-2.69-1.76-.37-1.4.17-2.56 1.4-2.88 1.21-.33 2.2.38 2.56 1.72l.08.29-3.24.86c.27.93.93 1.33 1.73 1.12.6-.17.9-.55.95-.86l.01-.04.73-.2v.04c0 .65-.48 1.42-1.53 1.7Zm-1.13-4c-.67.18-1.05.77-.9 1.65l2.48-.67c-.31-.86-.92-1.15-1.58-.98Zm4.15 3.1-1.2-4.5.72-.19.18.67.06-.02c.05-.51.4-.9 1-1.07.14-.03.3-.06.38-.06l.19.7c-.16.02-.3.04-.46.08-.7.18-1.07.75-.9 1.41l.75 2.79-.72.2Zm4.73-1.18c-1 .27-1.82-.03-2.1-.75l.74-.2c.22.34.65.5 1.23.34.6-.16.95-.57.84-.98-.08-.3-.37-.46-.96-.44l-.74.02c-.9.02-1.37-.24-1.55-.9-.2-.74.37-1.5 1.32-1.75.95-.26 1.73.04 2.03.75l-.72.19c-.19-.33-.6-.48-1.15-.34-.53.15-.85.53-.74.92v.01c.08.3.36.44.92.42l.74-.01c.9-.03 1.4.23 1.58.87v.01c.22.8-.41 1.57-1.44 1.84ZM198.6 11.71c-1 .27-1.82-.03-2.1-.75l.74-.2c.23.34.65.5 1.23.34.6-.16.95-.57.84-.98-.08-.3-.37-.46-.96-.45l-.74.02c-.9.03-1.37-.24-1.55-.88-.2-.75.37-1.5 1.32-1.76.95-.26 1.73.04 2.03.75l-.72.19c-.19-.33-.6-.48-1.15-.34-.53.15-.85.53-.74.92v.01c.08.3.36.44.92.42l.74-.02c.9-.02 1.4.24 1.58.88v.01c.22.8-.41 1.56-1.44 1.84Zm4.77-1.28c-1.29.35-2.3-.35-2.68-1.76-.38-1.39.16-2.55 1.38-2.88 1.22-.33 2.21.38 2.57 1.73l.08.28-3.24.87c.27.92.93 1.33 1.73 1.11.6-.16.9-.55.96-.85v-.05l.73-.19v.04c0 .65-.47 1.42-1.53 1.7Zm-1.13-4c-.67.19-1.05.78-.9 1.65l2.48-.66c-.31-.87-.91-1.16-1.58-.98Zm4.15 3.1-1.2-4.49.72-.2.18.67.07-.01c.04-.52.39-.9 1-1.07.13-.04.3-.06.37-.07l.19.7c-.16.02-.3.04-.46.08-.7.19-1.07.76-.9 1.42l.75 2.78-.72.2Zm4.57-1.22-2.87-4.05.76-.2 2.23 3.37.06-.02.24-4.03.77-.2-.46 4.94-.73.2Zm2.3-6.36a.52.52 0 0 1-.27-1c.28-.08.56.09.64.36.07.28-.1.56-.37.64Zm1.07 5.46-1.2-4.5.72-.2 1.2 4.5-.72.2Zm3.96-.98c-1.26.34-2.31-.36-2.7-1.78v-.01c-.37-1.4.18-2.52 1.44-2.86 1.1-.3 1.92.16 2.27.93v.02l-.71.2-.01-.02c-.23-.4-.73-.66-1.37-.49-.81.22-1.15 1-.88 2.02.28 1.04.98 1.57 1.78 1.35.6-.16.92-.53.95-1.07v-.03l.72-.2v.05c.03.86-.42 1.6-1.5 1.9Zm4.77-1.27c-1.28.34-2.3-.35-2.68-1.76-.38-1.4.16-2.57 1.38-2.9 1.22-.32 2.2.39 2.57 1.73l.07.28-3.24.87c.28.92.93 1.33 1.73 1.11.61-.16.91-.55.96-.85V3.6l.73-.2v.04c.01.65-.47 1.42-1.53 1.7Zm-1.12-4c-.67.18-1.06.77-.9 1.65l2.48-.67c-.31-.87-.92-1.16-1.58-.98Z"/>
      <g clip-path="url(#g)">
        <rect width="54.04" height="54.04" x="71.65" y="88.1" fill="#4C4E59" rx="27.02" transform="rotate(-15 71.65 88.1)"/>
        <g filter="url(#h)">
          <ellipse cx="71.86" cy="111.18" fill="#E73235" rx="27.72" ry="27.89" transform="rotate(-15 71.86 111.18)"/>
        </g>
        <path fill="#fff" d="m95.66 111.72.47-5.14.58-.16 2.98 4.22-.61.16-.83-1.21-1.86.5-.11 1.46-.62.17Zm.94-4.46-.17 2.28 1.51-.4-1.29-1.9-.05.02Zm4.95 2.94c-.88.24-1.66-.32-1.95-1.41-.3-1.1.1-1.97.98-2.2.48-.13.96 0 1.25.32l.06-.02-.52-1.94.56-.15 1.3 4.89-.56.15-.14-.56-.06.01c-.1.45-.43.78-.92.91Zm0-.53c.63-.17.89-.77.67-1.58-.22-.81-.74-1.21-1.38-1.04-.63.17-.88.77-.66 1.58.22.82.73 1.21 1.37 1.04Zm2.77-.28-.93-3.49.56-.15.14.53.05-.01a1 1 0 0 1 .79-.85c.47-.13.87.03 1.13.36l.05-.02c.09-.42.42-.77.9-.9.72-.19 1.23.11 1.42.84l.65 2.42-.56.15-.62-2.28c-.14-.52-.44-.71-.93-.58a.81.81 0 0 0-.6 1.03l.6 2.24-.55.15-.64-2.37c-.11-.41-.47-.6-.91-.49-.46.12-.7.62-.56 1.1l.58 2.17-.57.16Zm4.96-5.8a.4.4 0 1 1-.21-.77.4.4 0 0 1 .2.78Zm.83 4.25-.94-3.5.57-.14.93 3.5-.56.14Zm1.63-.43-.94-3.5.56-.15.15.53.05-.02c.07-.41.34-.72.86-.86.78-.2 1.34.14 1.57.97l.6 2.26-.56.15-.57-2.12c-.17-.63-.5-.86-1.07-.71-.55.15-.8.62-.64 1.23l.55 2.07-.56.15Z"/>
      </g>
      <rect width="54.04" height="54.04" x="198.67" y="78.46" fill="#2C2E33" rx="27.02" transform="rotate(-15 198.67 78.46)"/>
      <path fill="#fff" d="m219.33 102.97-1.25-4.68 1.76-.47c.88-.23 1.67.2 1.9 1.1a1.5 1.5 0 0 1-1.1 1.91l-1.17.32.45 1.67-.59.15Zm.5-4.59-1.03.28.53 1.97 1.03-.28c.67-.18.96-.65.8-1.26h-.01c-.16-.63-.65-.89-1.32-.7Zm4.5 3.32c-.67.18-1.28-.09-1.45-.73-.16-.62.2-1.1 1-1.37l.99-.33-.09-.32c-.12-.43-.44-.6-.96-.46-.42.12-.66.35-.67.64v.01l-.57.15v-.02c-.06-.57.38-1.08 1.12-1.28.86-.23 1.45.08 1.64.8l.65 2.4-.57.15-.14-.51-.05.01a1.2 1.2 0 0 1-.9.86Zm-.87-.9c.1.36.45.49.85.38.58-.16.9-.64.76-1.14l-.08-.32-.92.3c-.53.18-.7.43-.61.78Zm4.05 1.3a1.7 1.7 0 0 1-.25.04l-.13-.46c.08 0 .16-.03.24-.05.32-.08.48-.28.5-.72v-.22l-2.22-3.15.6-.17 1.73 2.62.05-.01.19-3.13.59-.16-.37 4.07c-.08.86-.3 1.17-.93 1.33Zm2.98-2.12-.94-3.5.57-.14.14.53.05-.02c.06-.41.33-.72.79-.84.47-.13.87.03 1.13.35l.05-.01c.09-.42.42-.77.9-.9.72-.2 1.22.11 1.42.84l.65 2.42-.56.15-.62-2.29c-.14-.51-.44-.7-.93-.57a.81.81 0 0 0-.6 1.02l.6 2.25-.56.15-.63-2.37c-.11-.42-.47-.6-.91-.49-.46.12-.7.61-.57 1.1l.58 2.17-.56.15Zm7.22-1.87c-1 .27-1.79-.27-2.08-1.36-.3-1.08.13-1.99 1.07-2.24.95-.26 1.72.3 2 1.34l.06.22-2.52.67c.21.72.72 1.04 1.35.87.47-.13.7-.43.74-.67v-.03l.57-.15v.03c0 .5-.37 1.1-1.2 1.32Zm-.87-3.1c-.52.14-.82.6-.7 1.28l1.93-.52c-.25-.67-.72-.9-1.23-.76Zm3.22 2.4-.94-3.49.57-.15.14.53.05-.02c.08-.41.34-.72.86-.85.78-.22 1.35.13 1.57.96l.6 2.26-.56.15-.57-2.12c-.17-.63-.5-.86-1.06-.71-.56.15-.81.62-.65 1.23l.55 2.07-.56.15Zm5.12-1.34c-.72.2-1.09.01-1.27-.66l-.56-2.12-.56.15-.12-.47.55-.14-.24-.9.58-.16.24.9.77-.2.12.46-.76.2.53 1.98c.1.42.3.54.66.45l.25-.09.13.48c-.1.05-.2.1-.32.12Z"/>
      <rect width="54.04" height="54.04" x="16.84" y="156.66" fill="#2C2E33" rx="27.02" transform="rotate(-15 16.84 156.66)"/>
      <path fill="#fff" d="m41.8 175.88-1.26-4.68 1.6-.43c1.4-.37 2.45.27 2.84 1.74v.01c.4 1.47-.19 2.56-1.58 2.93l-1.6.43Zm.44-.68.98-.27c1.05-.28 1.47-1.1 1.17-2.24v-.01c-.3-1.14-1.1-1.65-2.14-1.37l-.98.26.97 3.63Zm5.29-.79c-.67.18-1.28-.09-1.45-.72v-.01c-.17-.62.2-1.1 1-1.37l.98-.33-.08-.32c-.12-.43-.44-.6-.97-.46-.41.12-.65.35-.67.64v.01l-.56.15v-.02c-.06-.57.37-1.08 1.12-1.28.85-.23 1.45.08 1.64.8l.64 2.4-.56.15-.14-.51h-.05a1.2 1.2 0 0 1-.9.87Zm-.88-.9c.1.36.46.49.86.38.57-.15.9-.64.76-1.14l-.09-.32-.91.3c-.53.18-.71.43-.62.78Zm4.81-.2c-.72.2-1.1.01-1.27-.65l-.57-2.12-.55.15-.12-.47.55-.15-.25-.9.59-.16.24.9.77-.2.12.47-.76.2.52 1.98c.12.41.3.54.67.44l.25-.08.13.48c-.1.05-.2.09-.32.12Zm2.14-.53c-.66.18-1.27-.09-1.44-.72-.17-.63.2-1.12 1-1.38l.98-.33-.09-.32c-.11-.43-.44-.6-.96-.45-.42.1-.65.34-.67.63v.01l-.57.16v-.02c-.05-.58.38-1.09 1.12-1.29.86-.23 1.45.08 1.65.81l.64 2.4-.57.14-.14-.51-.05.01a1.2 1.2 0 0 1-.9.86Zm-.87-.89c.1.35.45.48.86.37.57-.15.89-.64.75-1.14l-.08-.32-.92.31c-.52.18-.7.43-.61.77v.01ZM39.6 184.75l-1.25-4.68 1.76-.47c.88-.24 1.66.2 1.9 1.1a1.5 1.5 0 0 1-1.1 1.9l-1.17.32.44 1.67-.58.16Zm.5-4.6-1.03.28.53 1.97 1.03-.27c.66-.18.95-.65.79-1.26v-.01c-.17-.62-.65-.88-1.32-.7Zm3.65 3.49-.94-3.5.57-.15.13.52.06-.01c.03-.4.3-.7.77-.83l.3-.06.14.55-.36.06c-.53.15-.83.59-.69 1.1l.58 2.17-.56.15Zm3.88-.98c-1 .27-1.8-.25-2.1-1.37-.3-1.13.14-1.98 1.13-2.24 1-.27 1.8.25 2.1 1.37.3 1.12-.13 1.98-1.13 2.24Zm-.13-.5c.66-.17.9-.76.68-1.58-.22-.83-.72-1.21-1.38-1.04-.67.18-.9.76-.69 1.59.22.83.73 1.21 1.39 1.03Zm4.05-.55c-.98.27-1.8-.28-2.1-1.38v-.01c-.29-1.09.15-1.96 1.12-2.22.85-.23 1.5.12 1.76.72l.01.02-.56.15v-.01c-.18-.32-.57-.52-1.07-.38-.63.16-.89.78-.68 1.56v.01c.22.8.76 1.21 1.38 1.05.47-.13.71-.42.74-.84v-.02l.56-.16v.04c.03.67-.32 1.25-1.16 1.47Zm3.7-.99c-.99.27-1.78-.27-2.07-1.37-.3-1.08.12-1.98 1.07-2.24.95-.25 1.72.3 2 1.34l.06.22-2.52.68c.21.72.72 1.03 1.35.86.47-.12.7-.43.74-.66v-.03l.57-.16v.03c0 .5-.37 1.1-1.2 1.33Zm-.86-3.1c-.52.13-.82.6-.7 1.27l1.92-.51c-.24-.68-.7-.9-1.22-.77Zm4.43 2.14c-.77.21-1.4-.02-1.63-.58l.58-.15c.17.26.5.38.95.26.47-.13.74-.44.66-.76-.07-.24-.3-.36-.75-.35l-.58.02c-.7.02-1.06-.19-1.2-.69-.15-.58.29-1.17 1.03-1.37.73-.2 1.34.03 1.57.58l-.56.15c-.14-.25-.47-.37-.89-.26-.41.11-.66.4-.58.72.07.24.28.34.72.33l.57-.01c.7-.02 1.1.18 1.23.68.17.63-.32 1.22-1.12 1.43Zm3.41-.91c-.77.2-1.4-.02-1.63-.58l.58-.16c.17.27.5.39.95.27.47-.13.74-.44.66-.76-.07-.25-.3-.36-.75-.35l-.58.02c-.7.02-1.06-.2-1.2-.7-.15-.58.29-1.16 1.03-1.36.73-.2 1.34.03 1.57.58l-.56.15c-.14-.26-.47-.38-.89-.26-.41.1-.66.4-.58.71.07.25.28.35.72.34l.57-.02c.7-.01 1.1.19 1.23.69.17.62-.32 1.22-1.12 1.43Z"/>
      <rect width="54.04" height="54.04" x="141.73" y="112.53" fill="#2C2E33" rx="27.02" transform="rotate(-15 141.73 112.53)"/>
      <path fill="#fff" d="m166.3 131.84-1.25-4.67.59-.16 1.25 4.68-.58.15Zm2.96-.76c-.72.2-1.1 0-1.27-.66l-.57-2.12-.55.15-.12-.47.55-.15-.25-.9.59-.16.24.9.77-.2.12.47-.76.2.53 1.98c.1.41.3.54.66.44l.25-.08.13.48c-.1.05-.2.09-.32.12Zm2.56-.65c-1 .27-1.8-.27-2.09-1.36-.29-1.09.13-2 1.08-2.24.95-.26 1.72.3 2 1.34l.06.22-2.52.67c.21.72.72 1.03 1.34.87.48-.13.7-.43.75-.67v-.03l.57-.15v.03c0 .5-.37 1.1-1.2 1.32Zm-.88-3.1c-.52.14-.82.6-.7 1.28l1.93-.52c-.24-.67-.71-.9-1.23-.76Zm3.23 2.4-.94-3.49.56-.15.15.53.05-.01c.05-.42.32-.72.78-.85.47-.12.87.04 1.13.36l.05-.02c.1-.42.43-.77.9-.9.72-.19 1.23.11 1.43.85l.64 2.41-.56.15-.61-2.28c-.14-.52-.45-.71-.94-.58a.81.81 0 0 0-.59 1.03l.6 2.25-.56.15-.64-2.38c-.1-.41-.47-.6-.9-.49-.46.13-.7.62-.57 1.11l.58 2.17-.56.15Zm6.99-1.8c-.78.2-1.42-.03-1.63-.58l.57-.16c.17.27.5.38.95.26.47-.12.74-.44.66-.75-.06-.25-.29-.36-.75-.35l-.57.01c-.7.02-1.07-.18-1.2-.69-.16-.58.28-1.17 1.02-1.36.73-.2 1.34.03 1.57.58l-.55.15c-.15-.26-.47-.38-.9-.26-.41.1-.66.4-.58.71.07.25.28.35.72.34l.58-.02c.7-.02 1.09.19 1.22.68v.01c.17.62-.32 1.22-1.11 1.43Zm-18.98 13.3-1.25-4.68 1.6-.43c1.4-.37 2.44.28 2.84 1.75.4 1.47-.2 2.56-1.58 2.93l-1.6.43Zm.45-.68.98-.27c1.04-.28 1.47-1.1 1.16-2.24-.3-1.15-1.1-1.66-2.13-1.38l-.98.26.97 3.63Zm5.28-.79c-.66.18-1.27-.09-1.44-.72v-.01c-.17-.62.2-1.1 1-1.37l.98-.33-.09-.32c-.11-.43-.44-.6-.96-.45-.42.1-.65.34-.67.63v.01l-.56.16v-.03c-.06-.57.37-1.08 1.12-1.28.85-.23 1.44.08 1.64.8l.64 2.4-.57.15-.13-.51-.06.01a1.2 1.2 0 0 1-.9.86Zm-.87-.9c.1.36.45.49.86.38.57-.15.89-.64.75-1.14l-.08-.32-.92.31c-.52.17-.7.42-.61.77Zm4.8-.2c-.71.2-1.09.02-1.26-.65l-.57-2.12-.55.15-.13-.47.55-.15-.24-.9.58-.16.25.9.76-.2.13.47-.77.2.53 1.98c.11.41.3.54.66.44l.26-.08.13.48c-.1.05-.21.09-.32.12Zm2.15-.53c-.67.18-1.28-.09-1.45-.72-.17-.63.2-1.11 1-1.38l.98-.33-.08-.32c-.12-.43-.44-.6-.97-.45-.41.11-.65.34-.66.64l-.57.16v-.02c-.06-.58.38-1.09 1.12-1.29.85-.22 1.45.09 1.64.81l.64 2.4-.56.15-.14-.52-.05.01a1.2 1.2 0 0 1-.9.86Zm-.88-.89c.1.35.46.48.86.37.58-.15.9-.64.76-1.14l-.08-.32-.92.31c-.53.18-.7.43-.62.77v.01Zm5.32-.3c-.49.13-.94 0-1.26-.32l-.05.01.15.56-.56.15-1.31-4.88.56-.15.52 1.93.05-.01c.1-.42.45-.78.93-.9.89-.24 1.65.31 1.95 1.4v.02c.3 1.08-.1 1.96-.98 2.2Zm-.27-.46c.64-.17.89-.77.67-1.58-.22-.82-.73-1.21-1.37-1.04-.63.17-.89.77-.67 1.58.22.81.74 1.2 1.37 1.04Zm3.57-.42c-.67.18-1.28-.09-1.45-.73-.17-.62.2-1.1 1-1.37l.98-.33-.08-.32c-.12-.43-.44-.6-.96-.46-.42.12-.66.34-.67.64v.01l-.57.15v-.02c-.06-.57.38-1.08 1.12-1.28.85-.23 1.45.08 1.64.8l.64 2.4-.56.15-.14-.51h-.05a1.2 1.2 0 0 1-.9.87Zm-.87-.9c.1.36.45.49.85.38.58-.16.9-.64.76-1.14l-.09-.32-.91.3c-.53.18-.7.43-.62.78Zm4.77-.15c-.78.21-1.41-.02-1.63-.58l.57-.16c.18.27.5.39.95.27.47-.13.75-.44.66-.76-.06-.24-.28-.36-.74-.35l-.58.02c-.7.02-1.07-.19-1.2-.7-.16-.57.28-1.16 1.02-1.36.74-.2 1.34.03 1.57.58l-.55.15c-.15-.25-.47-.37-.9-.26-.4.11-.66.4-.57.71v.01c.06.24.28.34.72.33l.57-.01c.7-.02 1.1.18 1.23.68.16.63-.33 1.22-1.12 1.43Zm3.7-.99c-1 .27-1.79-.27-2.08-1.37-.3-1.08.13-1.98 1.08-2.24.95-.25 1.71.3 2 1.34l.05.22-2.51.68c.2.72.72 1.03 1.34.87.47-.13.7-.43.74-.67v-.03l.57-.15v.03c0 .5-.37 1.1-1.19 1.32Zm-.87-3.1c-.52.14-.82.6-.7 1.28l1.93-.52c-.25-.68-.72-.9-1.23-.76Z"/>
      <rect width="54.04" height="54.04" x="257.88" y="-11.6" fill="#2C2E33" rx="27.02" transform="rotate(-15 257.88 -11.6)"/>
      <path fill="#fff" d="m284.46 11.32.48-5.14.57-.16 2.98 4.22-.61.16-.83-1.2-1.86.49-.11 1.46-.62.17Zm.94-4.46-.17 2.29 1.51-.4-1.29-1.9-.05.01Zm4.86 2.97c-.8.21-1.32-.14-1.55-.97l-.6-2.26.56-.15.57 2.12c.17.63.48.87 1.04.72.61-.16.84-.63.67-1.24l-.55-2.07.56-.15.94 3.5-.56.15-.14-.52h-.06c-.07.43-.36.73-.88.87Zm3.94-1.1c-.72.2-1.09.02-1.27-.65l-.57-2.12-.55.15-.12-.47.55-.15-.24-.9.58-.16.24.9.77-.2.12.47-.76.2.53 1.98c.1.41.3.54.66.44l.25-.08.13.48c-.1.05-.2.09-.32.12Zm1.2-.34-1.31-4.88.56-.15.52 1.9h.05c.07-.42.34-.73.86-.86.78-.21 1.35.13 1.57.96l.6 2.26-.56.16-.57-2.13c-.17-.63-.5-.86-1.07-.71-.55.15-.8.62-.64 1.23l.55 2.07-.56.15Z"/>
      <rect width="54.04" height="54.04" x="330.59" y="-36.17" fill="#2C2E33" rx="27.02" transform="rotate(-15 330.59 -36.17)"/>
      <rect width="54.04" height="54.04" x="334.81" y="35.05" fill="#2C2E33" rx="27.02" transform="rotate(-15 334.81 35.05)"/>
      <path fill="#fff" d="M351.55 56.59c-1.16.3-2.05-.2-2.32-1.22l-.83-3.07.59-.16.8 3.03c.2.72.8 1.1 1.61.88.81-.22 1.14-.84.95-1.56l-.82-3.03.59-.16.82 3.07c.27 1.02-.23 1.9-1.4 2.22Zm4.15-1.17c-.78.21-1.41-.02-1.63-.58l.58-.16c.17.27.5.39.95.27.47-.13.74-.44.65-.76-.06-.24-.28-.36-.74-.35l-.58.02c-.7.02-1.07-.19-1.2-.7-.16-.58.28-1.16 1.03-1.36.73-.2 1.34.03 1.57.58l-.56.15c-.15-.26-.47-.37-.9-.26-.4.11-.65.4-.57.71V53c.06.24.28.34.72.33l.57-.02c.7-.01 1.1.19 1.23.69.17.63-.32 1.22-1.12 1.43Zm3.7-.99c-1 .27-1.78-.27-2.08-1.37-.29-1.08.13-1.98 1.08-2.24.95-.25 1.72.3 2 1.34l.05.22-2.51.68c.2.72.72 1.03 1.34.86.48-.12.7-.42.75-.66v-.03l.56-.15v.02c.01.5-.36 1.1-1.19 1.33Zm-.87-3.1c-.52.13-.82.6-.7 1.27l1.93-.51c-.24-.68-.71-.9-1.23-.76Zm3.22 2.4-.93-3.49.56-.15.14.52.05-.02c.04-.4.3-.7.78-.83.1-.03.23-.04.29-.05l.15.55c-.13.01-.24.03-.36.06-.54.14-.83.59-.7 1.1l.59 2.16-.57.15Zm4.47-1.2-1.25-4.67 1.76-.47c.88-.24 1.66.2 1.9 1.09a1.5 1.5 0 0 1-1.1 1.92l-1.17.31.44 1.67-.58.16Zm.5-4.58-1.03.27.53 1.97 1.03-.27c.67-.18.95-.65.79-1.27-.17-.62-.65-.88-1.32-.7Zm3.65 3.48-.94-3.5.57-.15.14.52.05-.01c.03-.4.3-.7.78-.84a2 2 0 0 1 .28-.05l.15.55c-.12.01-.23.03-.35.06-.54.14-.83.59-.7 1.1l.58 2.16-.56.16Zm3.88-.98c-1 .27-1.8-.25-2.1-1.37-.3-1.13.14-1.98 1.13-2.25 1-.26 1.8.26 2.1 1.38.3 1.12-.13 1.97-1.13 2.24Zm-.13-.5c.66-.18.9-.76.68-1.58-.22-.83-.72-1.21-1.38-1.04-.66.18-.9.76-.69 1.59.23.83.73 1.2 1.39 1.03Zm2.84-.29-.81-3.03-.58.16-.13-.47.58-.15-.1-.4c-.2-.69.07-1.12.73-1.3l.39-.06.12.45c-.07 0-.17.02-.27.05-.4.1-.5.35-.4.73l.1.38.79-.22.12.47-.8.21.82 3.03-.56.15Zm1.35-4.83a.4.4 0 0 1-.2-.78.4.4 0 0 1 .2.78Zm.83 4.25-.94-3.5.57-.15.94 3.5-.57.15Zm1.66-.45-1.3-4.88.56-.15 1.3 4.88-.56.15Zm3.09-.76c-1 .27-1.79-.27-2.08-1.37-.3-1.08.13-1.98 1.07-2.24.95-.25 1.72.3 2 1.34l.06.22-2.51.68c.2.72.72 1.03 1.34.86.47-.12.7-.43.74-.66v-.03l.57-.16v.03c0 .5-.37 1.1-1.19 1.33Zm-.87-3.1c-.52.13-.82.6-.7 1.27l1.93-.51c-.25-.68-.72-.9-1.23-.77Zm-23.07 17.85c-1.02.27-1.82-.09-2.1-.83l-.01-.04.58-.15.02.03c.16.46.73.62 1.4.44.64-.17 1.01-.62.89-1.1-.1-.39-.45-.58-1.13-.55l-.55.02c-1 .04-1.51-.28-1.7-.96-.2-.77.33-1.5 1.3-1.76.93-.25 1.73.12 1.97.8l.01.05-.58.16-.02-.04c-.17-.4-.64-.6-1.25-.43-.59.16-.96.56-.83 1.05.1.37.42.56 1.1.52l.55-.02c1.03-.04 1.52.25 1.7.92.24.88-.3 1.6-1.35 1.89Zm4.05-1.14c-1 .27-1.8-.27-2.09-1.36-.29-1.09.13-2 1.08-2.25.95-.25 1.72.3 2 1.35l.06.22-2.52.67c.21.72.72 1.03 1.35.87.47-.13.7-.43.74-.67v-.03l.57-.15v.03c0 .5-.37 1.1-1.2 1.32Zm-.88-3.1c-.52.14-.82.6-.7 1.28l1.93-.52c-.24-.68-.71-.9-1.23-.76Zm3.23 2.4-.94-3.49.56-.15.14.52.06-.01c.03-.4.3-.7.77-.84l.3-.05.14.55-.36.06c-.54.14-.83.59-.69 1.1l.58 2.16-.56.16Zm3.55-.95-2.23-3.14.6-.16 1.72 2.62.05-.01.19-3.14.6-.16-.36 3.84-.57.16Zm1.79-4.94a.4.4 0 0 1-.21-.78.4.4 0 0 1 .2.78Zm.83 4.24-.94-3.5.57-.14.93 3.5-.56.14Zm3.07-.76c-.98.27-1.8-.28-2.1-1.38v-.01c-.28-1.09.15-1.96 1.13-2.22.85-.23 1.49.12 1.76.72v.02l-.55.15-.01-.01c-.18-.32-.56-.52-1.07-.38-.63.17-.89.78-.68 1.57.22.8.76 1.21 1.38 1.05.47-.13.72-.42.74-.84v-.02l.56-.15v.03c.03.67-.32 1.25-1.16 1.47Zm3.71-.99c-1 .27-1.79-.27-2.08-1.37-.29-1.08.13-1.98 1.08-2.24.95-.25 1.71.3 2 1.34l.05.22-2.51.68c.2.72.72 1.03 1.34.86.47-.12.7-.42.74-.66v-.03l.57-.15v.02c.01.5-.36 1.11-1.19 1.33Zm-.87-3.1c-.52.13-.82.6-.7 1.27l1.93-.51c-.25-.68-.72-.9-1.23-.76Z"/>
      <rect width="54.04" height="54.04" x="92.61" y="-29.51" fill="#2C2E33" rx="27.02" transform="rotate(-15 92.61 -29.51)"/>
      <g clip-path="url(#i)">
        <rect width="54.04" height="54.04" x="131.94" y="43.28" fill="#4C4E59" rx="27.02" transform="rotate(-15 131.94 43.28)"/>
        <g filter="url(#j)">
          <ellipse cx="177.61" cy="38.63" fill="#E73235" rx="27.72" ry="27.89" transform="rotate(-15 177.6 38.63)"/>
        </g>
        <path fill="#fff" d="m150.86 68.26-1.26-4.68 1.79-.48c.9-.24 1.64.15 1.86 1 .18.65-.04 1.25-.58 1.59l1.6 1.65-.68.18-1.5-1.58-1.15.31.5 1.85-.58.16Zm-.05-2.53 1.15-.3c.6-.17.85-.58.7-1.15-.15-.56-.6-.8-1.2-.64l-1.13.3.48 1.8Zm5.66 1.09c-1 .27-1.8-.27-2.08-1.37-.3-1.08.12-1.98 1.07-2.24.95-.25 1.72.3 2 1.34l.06.22-2.52.68c.21.72.72 1.03 1.35.86.47-.12.7-.43.74-.66v-.03l.57-.15v.02c0 .5-.37 1.1-1.2 1.33Zm-.88-3.1c-.51.13-.81.6-.7 1.27l1.93-.51c-.24-.68-.71-.9-1.22-.77Zm3.54 3.57-1.25-4.66.57-.15.15.56.05-.02c.1-.44.43-.78.92-.9.89-.25 1.66.31 1.95 1.4v.01c.3 1.1-.1 1.96-.98 2.2-.48.13-.96 0-1.25-.32l-.05.01.45 1.72-.56.15Zm1.15-2.03c.63-.17.88-.76.66-1.58-.22-.82-.73-1.2-1.37-1.03-.63.17-.89.77-.67 1.58.22.8.74 1.2 1.38 1.03Zm4.04-.55c-1 .27-1.8-.25-2.1-1.37-.3-1.13.14-1.98 1.13-2.24 1-.27 1.8.25 2.1 1.37.3 1.13-.13 1.98-1.13 2.24Zm-.13-.5c.66-.17.9-.75.68-1.58-.22-.83-.72-1.21-1.38-1.03-.66.17-.9.75-.69 1.58.22.83.73 1.21 1.39 1.04Zm2.6-.22-.93-3.5.56-.15.14.52.05-.01c.03-.4.3-.7.78-.83l.29-.06.14.55a2.1 2.1 0 0 0-.35.06c-.54.15-.83.59-.7 1.1l.59 2.17-.57.15Zm3.84-1c-.72.19-1.09 0-1.27-.66l-.57-2.12-.55.14-.12-.46.55-.15-.24-.9.58-.16.24.9.77-.2.12.46-.76.2.53 1.99c.1.4.3.54.66.44l.25-.08.13.48c-.1.04-.2.09-.32.12Zm.35-4.6a.4.4 0 0 1-.21-.77.4.4 0 0 1 .2.78Zm.83 4.25-.94-3.5.57-.14.93 3.5-.56.14Zm1.63-.43-.94-3.5.56-.15.15.53.05-.02c.07-.41.34-.72.86-.86.78-.2 1.34.14 1.57.97l.6 2.26-.56.15-.57-2.12c-.17-.63-.5-.86-1.07-.72-.56.15-.8.62-.64 1.24l.55 2.07-.56.15Zm5.64-.2c-.84.23-1.48 0-1.72-.56l.59-.16c.14.25.5.36 1 .22.63-.16.92-.56.78-1.07l-.19-.71-.05.01c-.12.45-.46.77-.94.9-.9.24-1.65-.3-1.91-1.29-.26-.98.11-1.84 1.02-2.09.5-.13.94.01 1.27.35l.03-.01-.15-.58.56-.15.93 3.45c.2.78-.26 1.44-1.22 1.7Zm-.54-1.9c.65-.18.91-.77.73-1.46-.2-.7-.72-1.09-1.36-.92-.65.18-.88.77-.7 1.46v.01c.2.7.69 1.08 1.33.9Z"/>
      </g>
      <path fill="#E73235" d="m298.3 89.89-2-7.1-5.15 5.28 7.14 1.82Zm-1.55-2.4-1.32-1.29-.9.91 1.33 1.3.89-.92Zm-2.65-2.58-1.33-1.3-.89.92 1.33 1.3.89-.92Zm-2.65-2.59-1.32-1.29-.9.92 1.33 1.29.89-.92Zm-2.65-2.58-1.32-1.3-.9.92 1.33 1.3.89-.92Zm-2.65-2.58-1.32-1.3-.9.92 1.33 1.29.89-.91Zm-2.65-2.59-1.32-1.29-.9.91 1.33 1.3.89-.92ZM280.85 72l-1.33-1.3-.89.92 1.33 1.3.89-.92Zm-2.65-2.59-1.32-1.29-.9.92 1.33 1.29.89-.92Zm-2.65-2.58-1.32-1.3-.9.92 1.33 1.3.89-.92Zm-2.65-2.58-1.32-1.3-.9.92 1.33 1.29.89-.91Zm-2.65-2.59-1.32-1.29-.9.91 1.33 1.3.89-.92Zm-2.65-2.58-1.33-1.3-.89.92 1.33 1.3.89-.92Zm-2.65-2.59-1.32-1.29-.9.92 1.33 1.29.89-.92Zm-2.65-2.58-1.32-1.3-.9.92 1.33 1.3.89-.92Zm-2.65-2.58-1.32-1.3-.9.92 1.33 1.3.89-.92Zm-2.65-2.6-1.32-1.29-.9.91 1.33 1.3.89-.92Zm-2.65-2.58-1.32-1.3-.9.92 1.33 1.3.89-.92Zm-2.65-2.59-1.32-1.29-.9.92 1.33 1.29.89-.92Zm-2.65-2.58-1.33-1.3-.88.92 1.32 1.3.89-.92Zm-2.65-2.58-1.33-1.3-.88.92 1.32 1.29.89-.91Zm-2.65-2.59-1.32-1.29-.9.91 1.33 1.3.89-.92Zm-2.65-2.58-1.32-1.3-.9.92 1.33 1.3.89-.92Zm-2.65-2.59-1.32-1.29-.9.92 1.33 1.29.89-.92Zm-2.65-2.58-1.33-1.3-.88.92 1.32 1.3.89-.92Zm-2.65-2.58-1.33-1.3-.88.92 1.32 1.3.89-.92Zm-2.65-2.59-1.32-1.29-.9.91 1.33 1.3.89-.92Zm-2.65-2.58-.66-.65-.9.92.67.64.89-.91Zm-49.21 21.34 6.43-3.6-6.34-3.77-.1 7.37Zm2.05-2.2 1-1.69-1.1-.65-1 1.69 1.1.65Zm2-3.37 1-1.68-1.1-.66-1 1.69 1.1.65Zm2-3.37 1-1.68-1.1-.65-1 1.68 1.1.65Zm2-3.37 1-1.68-1.1-.65-1 1.68 1.1.65Zm2-3.36 1-1.69-1.09-.65-1 1.68 1.1.66Zm2-3.37 1-1.68-1.09-.66-1 1.69 1.1.65Zm2-3.37.51-.84-1.1-.65-.5.84 1.1.65ZM48.46 18.6l-5.68 4.69 6.9 2.57-1.22-7.27Zm-1.56 2.34-.64 1.7 1.2.45.64-1.7-1.2-.45Zm-1.27 3.42-.64 1.71 1.2.45.63-1.71-1.2-.45Zm-1.28 3.42-.64 1.71 1.2.45.64-1.71-1.2-.45Zm-1.27 3.43-.64 1.7 1.2.45.63-1.7-1.2-.45Zm-1.28 3.42-.63 1.71 1.2.45.63-1.72-1.2-.44Zm-1.27 3.42-.64 1.71 1.2.45.63-1.71-1.2-.45Zm-1.28 3.42-.63 1.72 1.2.44.63-1.71-1.2-.45Zm-1.27 3.43-.64 1.7 1.2.45.63-1.7-1.2-.45Zm-1.28 3.42-.63 1.71 1.2.45.63-1.72-1.2-.44Zm-1.27 3.42-.64 1.71 1.2.45.64-1.71-1.2-.45Zm-1.27 3.42-.64 1.72 1.2.44.63-1.71-1.2-.45Zm-1.28 3.43-.64 1.7 1.2.45.64-1.7-1.2-.45ZM31.61 62l-.64 1.71 1.2.45.63-1.71-1.2-.45Zm-1.28 3.42-.64 1.71 1.2.45.64-1.71-1.2-.45Zm-1.27 3.43-.64 1.7 1.2.45.63-1.7-1.2-.45Zm-1.28 3.42-.32.85 1.2.45.32-.86-1.2-.44Zm-52.49 84.85 6.92-2.53-5.66-4.72-1.26 7.25Zm2.35-1.82 1.24-1.49-.98-.81-1.24 1.48.98.82Zm2.48-2.97 1.25-1.5-.98-.81-1.25 1.49.98.82Zm2.49-2.98 1.24-1.49-.98-.82-1.24 1.5.98.81Zm2.48-2.97 1.24-1.5-.98-.81-1.24 1.49.98.81Zm2.48-2.98 1.25-1.49-.98-.82-1.25 1.5.98.8Zm2.49-2.98 1.24-1.48-.98-.82-1.24 1.49.98.81Zm2.48-2.97 1.24-1.49-.98-.82-1.24 1.5.98.8Zm2.48-2.98 1.24-1.48-.98-.82-1.24 1.49.98.81Zm2.49-2.97 1.24-1.49-.98-.82-1.24 1.49.98.82Zm2.48-2.98 1.24-1.49-.98-.81-1.24 1.48.98.82Zm2.48-2.97.62-.75-.98-.81-.62.74.98.82Zm75.91-19.94-5.43-4.97-1.6 7.2 7.03-2.23Zm-2.76-1.26-1.93-.43-.27 1.25 1.93.43.27-1.25Zm-3.86-.85-1.93-.43-.27 1.25 1.93.42.27-1.24Zm-3.86-.86-1.92-.42-.28 1.24 1.93.43.27-1.25Zm-3.85-.85-1.93-.43-.28 1.25 1.93.43.28-1.25Zm-3.86-.85-1.93-.43-.28 1.24 1.93.43.28-1.24Zm-3.86-.86-1.93-.42-.28 1.24 1.93.43.28-1.25Zm-3.86-.85-.97-.21-.27 1.24.96.21.28-1.24Z"/>
    </g>
    <path fill="url(#k)" d="M-7 0h376v168H-7z"/>
  </g>
  <defs>
    <clipPath id="a">
      <path fill="#fff" d="M.67 0h360.67v168H.67z"/>
    </clipPath>
    <clipPath id="b">
      <path fill="#fff" d="m-166.3 15.66 558.6-149.68 64.67 241.36-558.58 149.67z"/>
    </clipPath>
    <clipPath id="c">
      <rect width="54.04" height="54.04" x="23.77" y="-26.12" fill="#fff" rx="27.02" transform="rotate(-15 23.77 -26.12)"/>
    </clipPath>
    <clipPath id="e">
      <rect width="54.04" height="54.04" x="288.07" y="83.99" fill="#fff" rx="27.02" transform="rotate(-15 288.07 83.99)"/>
    </clipPath>
    <clipPath id="g">
      <rect width="54.04" height="54.04" x="71.65" y="88.1" fill="#fff" rx="27.02" transform="rotate(-15 71.65 88.1)"/>
    </clipPath>
    <clipPath id="i">
      <rect width="54.04" height="54.04" x="131.94" y="43.28" fill="#fff" rx="27.02" transform="rotate(-15 131.94 43.28)"/>
    </clipPath>
    <filter id="d" width="86.15" height="86.46" x="8.94" y="-28.88" color-interpolation-filters="sRGB" filterUnits="userSpaceOnUse">
      <feFlood flood-opacity="0" result="BackgroundImageFix"/>
      <feBlend in="SourceGraphic" in2="BackgroundImageFix" result="shape"/>
      <feGaussianBlur result="effect1_foregroundBlur_19394_119995" stdDeviation="7.67"/>
    </filter>
    <filter id="f" width="86.15" height="86.46" x="255.91" y="45.47" color-interpolation-filters="sRGB" filterUnits="userSpaceOnUse">
      <feFlood flood-opacity="0" result="BackgroundImageFix"/>
      <feBlend in="SourceGraphic" in2="BackgroundImageFix" result="shape"/>
      <feGaussianBlur result="effect1_foregroundBlur_19394_119995" stdDeviation="7.67"/>
    </filter>
    <filter id="h" width="86.15" height="86.46" x="28.79" y="67.95" color-interpolation-filters="sRGB" filterUnits="userSpaceOnUse">
      <feFlood flood-opacity="0" result="BackgroundImageFix"/>
      <feBlend in="SourceGraphic" in2="BackgroundImageFix" result="shape"/>
      <feGaussianBlur result="effect1_foregroundBlur_19394_119995" stdDeviation="7.67"/>
    </filter>
    <filter id="j" width="86.15" height="86.46" x="134.53" y="-4.6" color-interpolation-filters="sRGB" filterUnits="userSpaceOnUse">
      <feFlood flood-opacity="0" result="BackgroundImageFix"/>
      <feBlend in="SourceGraphic" in2="BackgroundImageFix" result="shape"/>
      <feGaussianBlur result="effect1_foregroundBlur_19394_119995" stdDeviation="7.67"/>
    </filter>
    <linearGradient id="k" x1="181" x2="181" y1="0" y2="168" gradientUnits="userSpaceOnUse">
      <stop stop-color="#222326" stop-opacity=".4"/>
      <stop offset=".78" stop-color="#222326"/>
    </linearGradient>
  </defs>
</svg>
