<svg xmlns="http://www.w3.org/2000/svg" width="361" height="168" fill="none" viewBox="0 0 361 168">
  <g clip-path="url(#a)" opacity=".5" style="mix-blend-mode:luminosity">
    <g clip-path="url(#b)">
      <path fill="#27282E" d="m-67.5 46.48-1.16-4.33 1.63-.44c.82-.22 1.54.19 1.76 1.01.23.83-.2 1.56-1.01 1.77l-1.1.3.42 1.54-.54.15Zm.46-4.25-.95.25.49 1.83.95-.26c.62-.16.89-.6.74-1.17-.16-.58-.6-.82-1.23-.65Zm4.17 3.07c-.62.16-1.18-.08-1.34-.67-.16-.58.18-1.03.92-1.28l.91-.3-.08-.3c-.1-.4-.4-.55-.89-.42-.38.1-.6.32-.62.6l-.52.14v-.02c-.05-.53.35-1 1.04-1.19.79-.2 1.34.08 1.52.75l.59 2.22-.52.14-.13-.48-.05.01c-.11.4-.4.68-.83.8Zm-.81-.83c.09.33.42.45.8.35.52-.15.82-.6.7-1.06l-.08-.3-.85.3c-.49.15-.66.39-.57.7v.01Zm3.75 1.2-.23.04-.12-.43c.07 0 .15-.03.22-.04.3-.08.44-.27.46-.67l.01-.2-2.06-2.93.55-.15 1.6 2.43.05-.01.17-2.9.55-.15-.34 3.77c-.07.8-.28 1.08-.86 1.23Zm2.76-1.96-.87-3.24.53-.14.13.5.05-.02c.05-.38.3-.67.72-.78.44-.12.8.03 1.05.33l.05-.01c.08-.4.39-.72.83-.84.66-.17 1.14.1 1.32.78l.6 2.24-.53.14-.56-2.12c-.13-.47-.41-.65-.87-.53a.75.75 0 0 0-.55.95l.56 2.08-.52.14-.59-2.2c-.1-.38-.43-.56-.84-.45-.42.11-.65.57-.52 1.02l.53 2-.52.15Zm6.68-1.73c-.92.25-1.65-.25-1.92-1.27-.27-1 .11-1.83 1-2.07.87-.24 1.58.27 1.84 1.24l.06.2-2.33.63c.2.66.66.96 1.24.8.44-.12.65-.4.69-.61v-.03l.53-.14v.02c0 .47-.34 1.03-1.1 1.23Zm-.8-2.87c-.49.12-.76.55-.66 1.18l1.8-.48c-.23-.62-.67-.83-1.15-.7Zm2.98 2.23-.87-3.24.52-.14.13.49.05-.02c.07-.38.32-.66.8-.8.73-.19 1.25.13 1.45.9l.56 2.1-.52.14-.53-1.97c-.15-.58-.47-.8-.98-.66-.52.14-.75.57-.6 1.14l.51 1.92-.52.14Zm4.74-1.25c-.66.18-1 0-1.17-.61l-.53-1.96-.5.13-.12-.43.5-.14-.22-.83.54-.15.23.84.7-.19.12.43-.7.2.48 1.82c.1.38.28.5.61.41.1-.02.15-.04.24-.08l.12.45-.3.11Zm2.88-.8-1.17-4.33 1.64-.43c.81-.22 1.54.19 1.76 1v.01c.22.83-.2 1.55-1.02 1.77l-1.09.3.42 1.54-.55.14Zm.46-4.25-.96.26.5 1.82.95-.25c.61-.17.88-.6.73-1.17-.16-.58-.6-.82-1.22-.66Zm3.38 3.23-.87-3.24.52-.14.13.48.05-.01c.03-.37.28-.65.72-.77.1-.03.21-.04.27-.05l.13.5-.33.06c-.5.14-.77.55-.64 1.02l.54 2-.52.15Zm3.6-.9c-.93.24-1.67-.24-1.95-1.28s.12-1.83 1.04-2.08c.93-.24 1.66.24 1.94 1.28s-.12 1.83-1.04 2.07Zm-.13-.47c.61-.16.83-.7.63-1.46v-.01c-.2-.77-.67-1.12-1.28-.95-.61.16-.84.7-.64 1.46.21.77.68 1.13 1.29.96Zm3.75-.5c-.91.23-1.67-.27-1.94-1.3-.27-1 .13-1.81 1.04-2.06.78-.2 1.37.12 1.62.67l.01.02-.52.14v-.01c-.17-.3-.53-.48-.99-.35-.58.15-.82.72-.63 1.45.2.75.7 1.13 1.28.97.43-.12.66-.38.68-.77v-.02l.52-.14v.03c.03.62-.3 1.15-1.07 1.36Zm3.43-.93c-.92.25-1.65-.25-1.93-1.26-.26-1 .12-1.84 1-2.08.88-.23 1.59.28 1.85 1.24l.05.2-2.32.63c.19.67.66.96 1.24.8.44-.11.65-.4.69-.61v-.03l.52-.14v.02c.01.47-.34 1.03-1.1 1.23Zm-.8-2.87c-.49.13-.77.55-.66 1.18l1.8-.48c-.23-.62-.67-.83-1.15-.7Zm4.1 1.99c-.72.19-1.3-.03-1.5-.54l.53-.15c.15.25.46.36.87.25.44-.12.7-.4.61-.7-.06-.23-.26-.34-.69-.33l-.53.02c-.65.02-.99-.17-1.11-.64-.15-.54.26-1.08.95-1.27.67-.18 1.24.03 1.45.54l-.51.14c-.14-.24-.44-.35-.83-.24-.38.1-.61.38-.54.66.06.23.26.32.67.31l.53-.01c.65-.02 1.01.17 1.14.63.15.58-.3 1.13-1.04 1.33Zm3.16-.85c-.72.2-1.3-.02-1.51-.54l.53-.14c.16.24.47.35.88.24.44-.12.69-.4.61-.7-.06-.22-.27-.33-.69-.32l-.53.01c-.65.02-1-.17-1.12-.64-.14-.54.27-1.08.95-1.26.68-.19 1.24.03 1.46.54l-.52.13c-.13-.23-.43-.34-.82-.24-.39.1-.62.38-.54.66v.01c.06.22.26.31.67.3h.53c.64-.02 1 .16 1.13.62.16.58-.3 1.13-1.03 1.33Zm1.33-4.55a.37.37 0 0 1-.45-.27c-.06-.2.06-.4.26-.45.2-.06.4.06.46.26.05.2-.07.4-.27.46Zm.77 3.93-.86-3.24.52-.14.87 3.24-.53.14Zm1.5-.4-.86-3.24.52-.14.13.48h.05c.07-.4.32-.68.8-.8.73-.2 1.25.12 1.45.89l.56 2.1-.52.13-.53-1.96c-.15-.59-.47-.8-.98-.66-.52.14-.75.57-.6 1.14l.51 1.91-.52.14Zm5.24-.19c-.78.21-1.38 0-1.6-.51l.55-.15c.12.23.46.33.92.2.58-.15.85-.52.73-1l-.18-.65-.05.01c-.1.41-.42.71-.86.83-.84.23-1.53-.28-1.78-1.19-.24-.91.1-1.7.95-1.93.46-.13.87 0 1.17.32l.04-.01-.15-.54.52-.14.86 3.2c.2.72-.24 1.33-1.12 1.56Zm-.5-1.76c.6-.16.84-.7.67-1.35-.18-.65-.66-1-1.26-.85-.6.16-.81.71-.64 1.35.17.65.63 1.01 1.23.85Zm5.84-.78c-.94.25-1.69-.08-1.94-.77l-.01-.03.54-.15v.04c.16.42.69.57 1.31.4.59-.16.94-.57.82-1.01-.1-.37-.41-.55-1.04-.52l-.51.02c-.92.04-1.4-.25-1.57-.88-.19-.72.3-1.4 1.2-1.64.86-.23 1.6.12 1.82.75l.01.04-.54.15-.01-.04c-.17-.36-.6-.55-1.17-.4-.54.15-.88.52-.76.97.1.35.39.52 1.01.5l.51-.03c.96-.04 1.41.23 1.58.85.22.82-.28 1.49-1.25 1.75Zm3.75-1.05c-.93.25-1.66-.25-1.93-1.27-.27-1 .12-1.84 1-2.07.88-.24 1.58.27 1.84 1.24l.06.2-2.33.63c.2.66.67.95 1.24.8.44-.12.66-.4.7-.62v-.03l.52-.14v.03c0 .47-.34 1.02-1.1 1.23Zm-.81-2.88c-.48.13-.76.56-.65 1.19l1.79-.48c-.23-.63-.67-.83-1.14-.7ZM.36 28.3l-.87-3.23.53-.14.13.48.04-.01c.04-.38.29-.66.72-.77.1-.03.22-.05.27-.05l.14.5-.33.06c-.5.14-.77.55-.64 1.02l.53 2-.52.14Zm3.29-.88L1.58 24.5l.56-.15 1.6 2.43.04-.01.17-2.9.56-.15-.33 3.55-.53.14Zm1.66-4.58a.37.37 0 0 1-.46-.26c-.05-.2.06-.4.26-.46.2-.05.4.07.46.27.05.2-.07.4-.26.45Zm.77 3.93-.87-3.23.52-.14.87 3.23-.52.14Zm2.84-.7c-.9.24-1.66-.26-1.94-1.28v-.01c-.27-1 .13-1.81 1.04-2.06.79-.2 1.38.12 1.63.67v.02l-.51.14v-.01c-.17-.3-.53-.48-1-.35-.58.15-.82.72-.62 1.45.2.75.7 1.12 1.27.97.44-.12.66-.38.69-.77v-.02l.51-.15v.04c.03.62-.3 1.15-1.07 1.36Zm3.44-.92c-.93.25-1.66-.25-1.93-1.26-.27-1 .12-1.84 1-2.08.87-.23 1.58.28 1.84 1.24l.06.2-2.33.63c.2.67.67.96 1.24.8.44-.11.66-.4.7-.61v-.03l.52-.14v.02c0 .47-.34 1.03-1.1 1.23Zm-.81-2.87c-.48.13-.76.55-.65 1.18l1.79-.48c-.23-.62-.67-.83-1.14-.7Z"/>
      <rect width="161.48" height="6.36" x="-65.39" y="56.55" fill="#F0F1F7" rx="3.18" transform="rotate(-15 -65.4 56.55)"/>
      <rect width="65.74" height="5.45" x="-.01" y="39.5" fill="#7D76EE" rx="2.73" transform="rotate(-15 -.01 39.5)"/>
      <rect width="26.36" height="5.45" x="65.25" y="22.01" fill="#6063F6" rx="2.73" transform="rotate(-15 65.25 22.01)"/>
      <path fill="#27282E" d="M11.6 62.68c-1.84.5-3.8-.38-4.64-3.5v-.02c-.78-2.91.07-5 2.25-5.58 1.59-.42 3.03.2 3.66 1.45l.03.06-1.52.41-.04-.05c-.4-.55-1.03-.8-1.8-.6-1.37.37-1.59 1.87-1.21 3.55l.05.2.12-.04c.13-.76.72-1.57 1.91-1.9a2.84 2.84 0 0 1 3.6 2.1v.02c.47 1.76-.53 3.4-2.4 3.9Zm-2.53-2.56a1.78 1.78 0 0 0 2.19 1.3 1.77 1.77 0 0 0 1.25-2.18v-.01a1.71 1.71 0 0 0-2.16-1.27 1.72 1.72 0 0 0-1.28 2.15v.01Z"/>
      <path fill="#828599" d="m18.42 54.41-.91-3.4 1.28-.34c.64-.17 1.21.15 1.38.8.18.64-.15 1.22-.8 1.39l-.85.23.33 1.21-.43.11Zm.36-3.34-.75.2.39 1.44.75-.2c.48-.13.7-.47.57-.92-.12-.45-.47-.65-.96-.52Zm3.64 2.32c-.73.2-1.3-.2-1.52-1-.2-.78.1-1.44.79-1.62.69-.19 1.24.21 1.45.97l.04.16-1.83.5c.15.52.53.75.98.62.34-.09.51-.3.54-.48v-.02l.41-.11v.02c0 .36-.26.8-.86.96Zm-.64-2.26c-.38.1-.6.44-.5.93l1.4-.37c-.18-.5-.52-.66-.9-.56Zm2.35 1.76-.68-2.55.4-.1.1.38.05-.01c.05-.3.25-.53.62-.63.57-.15.98.1 1.14.7l.44 1.65-.4.1-.42-1.54c-.12-.45-.37-.62-.78-.52-.4.11-.59.46-.47.9l.4 1.5-.4.12Zm3.77-.97c-.65.18-1.2-.23-1.42-1.02-.22-.8.07-1.43.71-1.6.35-.1.7 0 .91.23l.04-.01-.38-1.41.41-.11.96 3.55-.41.1-.11-.4-.04.01a.9.9 0 0 1-.67.66Zm0-.38c.46-.13.64-.57.48-1.15-.15-.6-.53-.88-1-.76-.46.12-.64.56-.48 1.15.16.6.53.88 1 .76Zm1.42-3.3a.3.3 0 0 1-.36-.2.3.3 0 0 1 .2-.36.3.3 0 0 1 .36.2.3.3 0 0 1-.2.37Zm.6 3.1-.68-2.55.41-.1.68 2.53-.4.11Zm1.19-.32-.69-2.55.41-.1.1.38.05-.01c.05-.3.25-.53.62-.63.57-.15.98.1 1.14.7l.44 1.65-.4.1-.42-1.54c-.12-.46-.37-.62-.78-.52-.4.11-.59.46-.47.9l.4 1.5-.4.12Zm4.1-.14c-.61.16-1.08-.01-1.25-.41l.43-.12c.1.18.36.26.73.16.45-.12.66-.4.56-.78l-.13-.52-.04.01a.91.91 0 0 1-.68.66c-.66.17-1.2-.23-1.4-.94-.19-.72.09-1.34.75-1.52a.9.9 0 0 1 .92.25h.03l-.12-.43.41-.1.67 2.5c.16.57-.18 1.05-.88 1.24Zm-.39-1.4c.47-.12.66-.55.53-1.05-.14-.51-.52-.8-1-.67-.46.13-.63.56-.5 1.06.14.51.5.8.97.67Zm-15.5 7.65a.3.3 0 0 1-.35-.2.3.3 0 0 1 .2-.36.3.3 0 0 1 .36.2.3.3 0 0 1-.2.36Zm.61 3.1-.68-2.55.41-.11.68 2.54-.4.11Zm2.07-.51c-.57.15-1.03-.02-1.19-.43l.42-.11c.13.2.37.28.7.19.33-.1.53-.32.47-.55-.05-.18-.2-.26-.54-.25h-.42c-.5.02-.78-.13-.88-.5-.1-.42.21-.85.75-.99.53-.14.98.02 1.14.42l-.4.11c-.1-.18-.34-.27-.65-.19-.3.08-.48.3-.42.52.05.18.2.25.52.25l.42-.01c.5-.02.8.13.9.5.11.45-.24.88-.82 1.04Zm2.48-.67c-.57.15-1.03-.02-1.19-.42l.42-.12c.13.2.37.28.7.2.33-.1.53-.32.47-.56-.05-.17-.2-.26-.54-.25l-.42.01c-.5.02-.78-.13-.88-.5-.1-.42.21-.85.75-1 .53-.14.98.03 1.14.43l-.4.1c-.1-.18-.34-.26-.65-.18-.3.08-.48.3-.42.52.05.17.2.25.52.24h.42c.5-.02.8.12.9.49.11.45-.24.89-.82 1.04Zm2.5-.67c-.57.15-.96-.1-1.12-.7l-.44-1.65.4-.11.42 1.54c.13.46.35.64.75.53.45-.12.62-.46.5-.9l-.4-1.51.4-.1.69 2.53-.41.11-.1-.38-.04.01c-.06.3-.27.53-.64.63Zm3.01-.8c-.72.19-1.3-.2-1.51-1-.21-.79.09-1.45.78-1.63.7-.19 1.25.22 1.45.98l.05.16-1.83.49c.15.52.52.75.97.63.35-.1.52-.32.54-.49v-.02l.42-.11v.02c0 .37-.27.8-.87.96Zm-.63-2.26c-.38.1-.6.43-.51.93l1.4-.38c-.18-.5-.52-.65-.9-.55Zm3.23 1.56c-.57.15-1.03-.02-1.2-.43l.43-.1c.12.19.36.27.69.18.34-.09.54-.32.48-.55-.05-.17-.21-.26-.55-.25l-.41.01c-.51.01-.78-.14-.88-.5-.11-.43.2-.85.75-1 .53-.14.97.03 1.14.43l-.4.1c-.11-.18-.35-.27-.65-.18-.3.08-.49.3-.43.52.05.17.2.25.53.24l.41-.01c.51-.01.8.13.9.5.12.45-.24.88-.81 1.04Z"/>
      <path stroke="#E6E8F2" stroke-width=".45" d="m54.88 39.85-.77 12.9"/>
      <path fill="#27282E" d="m75.49 45.34-1.92-7.14-.1.03-1.74 2.1-.4-1.46 1.84-2.2 1.54-.41 2.32 8.66-1.54.42Z"/>
      <path fill="#828599" d="m81.62 37.48-.92-3.4 2.07-.55.1.38-1.64.44.31 1.17 1.51-.4.1.37-1.5.4.39 1.48-.42.11Zm2.11-3.82a.3.3 0 0 1-.36-.2.3.3 0 0 1 .21-.36.3.3 0 0 1 .36.2.3.3 0 0 1-.2.36Zm.6 3.1-.67-2.55.4-.11.69 2.54-.41.11Zm.99-.27.53-1.5-1.22-1.04.48-.13.86.78H86l.35-1.11.46-.12-.53 1.48 1.22 1.05-.48.13-.86-.8-.04.01-.34 1.13-.46.12Zm3.66-.94c-.72.2-1.3-.2-1.51-.99-.21-.79.1-1.44.78-1.63.7-.18 1.25.22 1.45.98l.05.16-1.83.49c.15.52.52.75.98.63.34-.1.5-.32.54-.49v-.02l.41-.11v.02c0 .37-.27.8-.87.96Zm-.63-2.25c-.38.1-.6.43-.51.93l1.4-.38c-.17-.49-.52-.65-.9-.55Zm3.3 1.54c-.65.17-1.21-.23-1.42-1.03-.22-.8.06-1.43.7-1.6.36-.1.7 0 .92.23h.04l-.38-1.42.41-.1.95 3.55-.4.1-.12-.4h-.04a.9.9 0 0 1-.67.67Zm-.01-.39c.46-.12.65-.56.5-1.15h-.01c-.16-.59-.54-.88-1-.75-.46.12-.64.56-.49 1.15.16.6.54.88 1 .75Zm-9.12 5.75a.3.3 0 0 1-.36-.2.3.3 0 0 1 .21-.37.3.3 0 0 1 .36.21.3.3 0 0 1-.2.36Zm.6 3.09-.67-2.54.4-.11.69 2.54-.41.1Zm2.07-.5c-.56.14-1.02-.03-1.18-.43l.42-.12c.12.2.36.28.69.2.34-.1.54-.32.48-.55-.05-.18-.21-.27-.55-.26l-.42.01c-.5.02-.77-.13-.87-.5-.11-.42.2-.85.75-1 .53-.14.97.03 1.14.43l-.4.1c-.11-.18-.35-.26-.66-.18-.3.08-.48.3-.42.52.05.18.2.25.53.24h.41c.51-.02.8.12.9.49.12.46-.24.89-.82 1.04Zm2.48-.67c-.56.15-1.02-.02-1.18-.43l.42-.11c.12.2.36.28.69.2.34-.1.54-.33.48-.56-.05-.18-.21-.26-.55-.25h-.42c-.5.02-.77-.13-.87-.5-.11-.42.2-.84.75-.99.53-.14.97.03 1.14.43l-.4.1c-.11-.18-.35-.27-.65-.19-.3.08-.49.3-.43.52.05.18.2.25.53.25l.41-.01c.51-.02.8.13.9.5.12.45-.24.88-.82 1.04Zm2.51-.67c-.58.15-.97-.11-1.13-.71l-.44-1.65.41-.1.42 1.54c.12.46.34.63.75.52.45-.12.61-.45.5-.9l-.41-1.5.41-.11.68 2.54-.4.1-.11-.37h-.04c-.05.31-.27.54-.64.64Zm3-.81c-.72.2-1.3-.2-1.5-1-.22-.78.08-1.44.78-1.62.69-.19 1.24.21 1.45.97l.04.16-1.83.5c.15.51.53.74.98.62.34-.09.51-.31.54-.48v-.02l.41-.11v.02c0 .36-.26.8-.86.96Zm-.63-2.26c-.38.1-.6.44-.51.93l1.4-.37c-.17-.5-.51-.66-.89-.56Zm3.23 1.57c-.57.15-1.03-.02-1.19-.43l.42-.11c.13.2.37.28.7.19.33-.1.53-.32.47-.55-.05-.18-.2-.26-.54-.25h-.42c-.5.02-.78-.13-.87-.5-.12-.42.2-.85.74-.99.53-.14.98.02 1.14.42l-.4.11c-.1-.18-.34-.27-.65-.19-.3.08-.48.3-.42.52.05.18.2.25.52.25l.42-.01c.5-.02.8.13.9.5.11.45-.24.88-.82 1.04Z"/>
      <g clip-path="url(#c)">
        <path stroke="#C3C6D9" stroke-width=".45" d="m95.16-3.32 10.47 39.1"/>
      </g>
      <path fill="#27282E" d="m105.7.07.43-4.76.54-.14 2.75 3.9-.56.15-.77-1.12-1.72.46-.1 1.36-.57.15Zm.86-4.12-.16 2.11 1.4-.38-1.19-1.75-.05.02Zm4.5 2.74c-.73.2-1.22-.13-1.43-.9l-.56-2.1.52-.13.53 1.97c.16.58.44.8.96.66.57-.15.78-.58.62-1.15l-.5-1.91.51-.14.87 3.23-.52.14-.13-.48-.05.01c-.07.4-.34.67-.81.8Zm3.65-1.01c-.66.18-1.01 0-1.18-.61l-.52-1.96-.51.13-.12-.43.51-.14-.22-.83.54-.15.22.84.71-.2.12.44-.71.2.49 1.82c.1.38.27.5.61.41.1-.02.14-.04.24-.08l.12.45c-.1.04-.2.08-.3.1Zm1.1-.32-1.2-4.52.52-.14.47 1.77.05-.01c.07-.39.32-.67.8-.8.72-.2 1.24.13 1.45.9l.56 2.09-.52.14-.53-1.97c-.15-.58-.47-.8-.98-.66-.52.14-.76.58-.6 1.14l.51 1.92-.52.14Zm4.93-1.26c-.92.25-1.65-.25-1.92-1.27-.27-1 .11-1.84 1-2.07.87-.24 1.58.27 1.84 1.24l.06.2-2.33.63c.19.66.66.95 1.24.8.44-.12.65-.4.69-.61v-.04l.52-.13v.02c.01.47-.34 1.02-1.1 1.23Zm-.8-2.88c-.49.13-.77.56-.66 1.19l1.8-.48c-.23-.63-.67-.83-1.15-.7Zm2.98 2.23-.87-3.23.52-.14.13.49.05-.02c.07-.38.32-.66.8-.8.72-.19 1.25.13 1.45.9l.56 2.1-.52.14-.53-1.97c-.15-.58-.47-.8-.98-.66-.52.14-.75.57-.6 1.14l.51 1.91-.52.14Zm4.74-1.24c-.66.18-1 0-1.17-.61l-.53-1.96-.51.13-.12-.43.51-.14-.22-.83.54-.15.22.84.71-.2.12.44-.71.2.5 1.82c.1.38.27.5.6.41.1-.02.15-.04.24-.08l.12.45c-.1.04-.2.08-.3.1Zm.32-4.25a.37.37 0 1 1 .26-.46c.06.2-.06.4-.26.46Zm.77 3.93-.86-3.23.52-.14.86 3.23-.52.14Zm2.85-.7c-.91.24-1.66-.26-1.94-1.29-.27-1 .13-1.81 1.04-2.06.78-.2 1.38.12 1.63.67v.02l-.52.14v-.01c-.17-.3-.53-.48-.99-.36-.58.16-.82.73-.63 1.46.2.75.7 1.12 1.28.97.44-.12.66-.38.68-.78v-.02l.52-.14v.04c.03.62-.3 1.15-1.07 1.36Zm3-.8c-.61.16-1.18-.09-1.34-.68-.15-.58.18-1.02.93-1.27l.9-.3-.07-.3c-.1-.4-.41-.55-.9-.42-.38.1-.6.31-.61.59l-.53.15v-.02c-.05-.53.35-1 1.04-1.19.79-.21 1.34.08 1.52.75l.6 2.21-.53.14-.13-.47h-.04c-.12.4-.4.69-.84.8Zm-.8-.83c.08.33.41.44.79.34.53-.14.82-.6.7-1.05l-.08-.3-.85.29c-.49.16-.65.4-.57.71v.01Zm4.44-.19c-.66.18-1 .01-1.17-.6l-.53-1.97-.5.14-.13-.43.52-.14-.23-.84.54-.14.22.83.71-.19.12.44-.7.19.48 1.83c.1.38.28.5.61.4l.24-.07.12.44c-.1.05-.2.09-.3.11Zm.32-4.24a.37.37 0 0 1-.2-.72c.2-.06.41.06.47.26.05.2-.07.4-.27.46Zm.77 3.93-.87-3.24.53-.14.86 3.24-.52.14Zm2.85-.7c-.92.24-1.66-.24-1.94-1.28s.13-1.83 1.05-2.08c.92-.24 1.66.24 1.94 1.28.27 1.04-.13 1.83-1.05 2.07Zm-.12-.47c.61-.16.84-.7.63-1.46v-.01c-.2-.77-.67-1.12-1.28-.95-.61.16-.84.7-.63 1.46.2.77.67 1.13 1.28.96Zm2.41-.21-.87-3.23.53-.14.13.48.04-.01c.07-.39.32-.67.8-.8.73-.2 1.25.13 1.45.9l.56 2.1-.52.13-.53-1.97c-.15-.58-.47-.8-.98-.66-.52.14-.75.58-.6 1.15l.51 1.91-.52.14Zm6.83-1.72c-.95.25-1.7-.08-1.95-.77v-.03l.53-.15.01.04c.16.42.68.57 1.3.4.6-.15.94-.57.82-1.01-.1-.37-.4-.55-1.04-.52l-.5.02c-.93.04-1.4-.25-1.57-.88-.2-.72.3-1.4 1.2-1.64.86-.23 1.6.12 1.81.75l.02.04-.54.15-.02-.04c-.16-.36-.6-.55-1.16-.4-.54.15-.89.52-.77.97.1.35.4.52 1.02.5l.5-.03c.96-.04 1.42.23 1.59.85.21.82-.28 1.49-1.25 1.75Zm3.74-1.05c-.92.25-1.66-.25-1.93-1.27-.27-1 .12-1.84 1-2.07.88-.24 1.59.27 1.85 1.24l.05.2-2.32.63c.19.66.66.95 1.24.8.44-.12.65-.4.69-.62v-.03l.52-.14v.03c.01.47-.34 1.02-1.1 1.23Zm-.8-2.88c-.49.13-.77.56-.66 1.19l1.8-.48c-.23-.63-.67-.83-1.15-.7Zm2.98 2.23-.87-3.23.52-.14.13.48.05-.01c.03-.38.28-.65.72-.77.1-.03.21-.05.27-.05l.13.5-.33.06c-.5.14-.77.55-.64 1.02l.54 2-.52.14Zm3.28-.88-2.06-2.91.55-.15 1.6 2.43.05-.01.17-2.9.55-.15-.33 3.55-.53.14Zm1.66-4.58a.37.37 0 0 1-.2-.72c.2-.05.41.07.46.27.06.2-.06.4-.26.45Zm.77 3.93-.87-3.23.53-.14.86 3.23-.52.14Zm2.84-.7c-.9.25-1.66-.26-1.93-1.28-.27-1.01.13-1.82 1.03-2.07.8-.2 1.38.12 1.63.67l.01.02-.52.14v-.01c-.17-.3-.53-.48-1-.35-.57.15-.81.72-.62 1.45.2.75.7 1.13 1.28.97.43-.12.66-.38.68-.77v-.02l.52-.14v.03c.03.62-.3 1.15-1.07 1.36Zm3.44-.92c-.92.25-1.66-.25-1.93-1.26-.27-1 .12-1.84 1-2.08.88-.23 1.59.28 1.85 1.24l.05.2-2.33.63c.2.67.67.96 1.25.8.44-.11.65-.4.69-.61V-18l.52-.14v.02c.01.47-.34 1.03-1.1 1.23Zm-.8-2.87c-.49.13-.77.55-.66 1.18l1.79-.48c-.22-.62-.66-.83-1.14-.7Z"/>
      <rect width="161.48" height="6.36" x="108.15" y="10.05" fill="#F0F1F7" rx="3.18" transform="rotate(-15 108.15 10.05)"/>
      <rect width="65.74" height="5.45" x="108.27" y="10.49" fill="#E5E5FF" rx="2.73" transform="rotate(-15 108.27 10.49)"/>
      <path fill="#27282E" d="m117.8 34-1.9-7.14-.1.03-1.75 2.1-.4-1.46 1.84-2.2 1.55-.41 2.32 8.66-1.55.42Zm7.14-1.73c-1.9.5-3.41-.2-3.92-1.64l-.03-.07 1.48-.4.02.07c.28.7 1.1 1.05 2.11.77 1-.26 1.52-1 1.3-1.8v-.02c-.24-.91-1.05-1.23-2.16-.94l-1.02.28-.3-1.16.98-.26c.96-.26 1.45-.97 1.24-1.72v-.01c-.21-.8-.87-1.12-1.8-.87-.9.24-1.4.9-1.28 1.69l.01.06-1.44.39v-.07c-.28-1.54.64-2.84 2.39-3.3 1.78-.48 3.19.14 3.55 1.5.3 1.08-.3 2-1.27 2.5v.03c1.31-.22 2.36.3 2.68 1.5v.02c.41 1.52-.62 2.94-2.54 3.45Z"/>
      <path fill="#828599" d="m131.4 24.14.34-3.73.41-.12 2.17 3.07-.44.12-.6-.88-1.36.36-.08 1.06-.45.12Zm.67-3.24-.12 1.66 1.1-.3-.94-1.37-.04.01Zm3.63 2.14c-.56.15-1.02-.02-1.19-.43l.43-.11c.12.2.36.28.69.2.34-.1.54-.33.47-.56-.04-.18-.2-.26-.54-.25h-.42c-.5.02-.77-.13-.87-.5-.12-.42.2-.84.74-.99.54-.14.98.03 1.15.43l-.4.1c-.11-.18-.35-.27-.66-.19-.3.08-.48.3-.42.52.05.18.2.25.53.25l.41-.01c.51-.02.8.13.9.5.12.45-.24.88-.82 1.04Zm2.48-.67c-.56.15-1.03-.02-1.18-.42l.42-.12c.12.2.36.28.69.2.34-.1.54-.32.47-.55-.04-.18-.2-.27-.54-.26l-.42.01c-.5.02-.77-.13-.87-.5-.12-.42.2-.85.75-1 .53-.14.97.03 1.14.43l-.4.1c-.11-.18-.35-.26-.66-.18-.3.08-.48.3-.42.52.05.18.2.25.53.24h.41c.51-.02.8.13.9.49.12.46-.24.89-.82 1.04Zm1.05-3.58a.3.3 0 0 1-.36-.2.3.3 0 1 1 .36.2Zm.6 3.1-.68-2.55.41-.11.69 2.54-.41.11Zm2.48.29c-.62.16-1.08 0-1.26-.4v-.01l.43-.11c.1.18.36.25.73.16.45-.13.67-.41.57-.79l-.14-.51h-.04a.91.91 0 0 1-.68.66c-.66.18-1.2-.22-1.39-.94-.2-.71.08-1.34.75-1.52a.9.9 0 0 1 .91.26l.03-.01-.11-.42.4-.11.68 2.5c.15.57-.19 1.05-.88 1.24Zm-.4-1.39c.48-.12.66-.55.53-1.06-.14-.5-.52-.8-.99-.66-.47.12-.64.55-.5 1.06.14.5.5.79.97.66Zm2.05-.01-.68-2.55.41-.1.1.38.04-.01c.06-.3.25-.53.63-.63.57-.15.98.1 1.14.7l.44 1.65-.41.1-.41-1.54c-.13-.46-.38-.62-.78-.52-.4.11-.59.46-.47.9l.4 1.5-.4.12Zm3.87-1c-.73.2-1.3-.19-1.51-.99-.21-.78.09-1.44.78-1.63.7-.18 1.25.22 1.45.98l.04.16-1.82.49c.15.52.52.75.97.63.35-.1.52-.31.54-.48v-.03l.42-.1v.01c0 .37-.27.8-.87.97Zm-.63-2.25c-.38.1-.6.43-.51.93l1.4-.38c-.18-.49-.52-.65-.9-.55Zm3.3 1.54c-.65.18-1.21-.23-1.43-1.02-.21-.8.07-1.43.72-1.6.34-.1.7 0 .9.23l.05-.01-.38-1.41.4-.11.96 3.55-.41.1-.11-.4-.04.01a.9.9 0 0 1-.67.66Zm-.01-.38c.46-.13.65-.57.49-1.15-.16-.6-.54-.88-1-.76-.47.13-.65.56-.49 1.15.16.6.53.88 1 .76Zm-17.92 8.1a.3.3 0 1 1-.15-.57.3.3 0 0 1 .15.57Zm.6 3.09-.68-2.54.41-.11.69 2.54-.41.1Zm2.07-.5c-.56.14-1.03-.03-1.19-.43l.42-.12c.13.2.37.28.7.2.34-.1.54-.32.47-.55-.04-.18-.2-.27-.54-.26l-.42.01c-.5.02-.77-.13-.87-.5-.12-.42.2-.85.74-1 .54-.14.98.03 1.15.43l-.4.1c-.12-.18-.35-.26-.66-.18-.3.08-.48.3-.42.52.05.18.2.25.52.24h.42c.51-.02.8.12.9.49.12.46-.24.89-.82 1.04Zm2.48-.67c-.56.15-1.03-.02-1.19-.43l.43-.11c.12.2.36.28.69.2.34-.1.54-.33.47-.56-.04-.18-.2-.26-.54-.25h-.42c-.5.02-.77-.13-.87-.5-.12-.42.2-.84.74-.99.54-.14.98.03 1.15.43l-.4.1c-.11-.18-.35-.27-.66-.19-.3.08-.48.3-.42.52.05.18.2.25.53.25l.41-.01c.51-.02.8.13.9.5.12.45-.24.88-.82 1.04Zm2.5-.67c-.57.15-.96-.11-1.12-.71l-.44-1.65.41-.1.42 1.54c.12.46.34.63.75.52.45-.12.61-.45.5-.9l-.41-1.5.4-.11.69 2.54-.41.1-.1-.37h-.04c-.05.31-.27.54-.64.64Zm3.02-.81c-.73.2-1.3-.2-1.52-1-.21-.78.1-1.44.78-1.62.7-.19 1.25.21 1.46.97l.04.16-1.83.5c.15.51.52.74.98.62.34-.09.51-.31.54-.48v-.03l.41-.1v.02c0 .36-.27.8-.86.96Zm-.64-2.26c-.38.1-.6.44-.51.93l1.4-.37c-.17-.5-.52-.66-.89-.56Zm3.23 1.57c-.57.15-1.03-.02-1.19-.43l.42-.11c.13.2.37.28.7.19.33-.1.53-.32.47-.55-.05-.18-.2-.26-.54-.25h-.42c-.5.02-.78-.13-.88-.5-.11-.42.21-.85.75-1 .53-.13.98.03 1.14.43l-.4.11c-.1-.18-.34-.27-.65-.19-.3.08-.48.3-.42.52.04.18.2.25.52.25l.42-.01c.5-.02.8.13.9.5.11.45-.24.88-.82 1.04Z"/>
      <path stroke="#E6E8F2" stroke-width=".45" d="m166.92 9.83-.78 12.9"/>
      <path fill="#27282E" d="m184.38 16.16-1.9-7.14-.11.03-1.75 2.1-.39-1.46 1.84-2.2 1.54-.4 2.32 8.65-1.55.42Zm3.96-1.06-.28-1.05 2.06-3.66c.86-1.5 1.07-2.03.9-2.7v-.02c-.22-.8-.92-1.23-1.82-.99-.92.25-1.38 1.02-1.14 1.92v.02l-1.44.38-.01-.01c-.43-1.62.52-3.08 2.33-3.57 1.69-.45 3.18.25 3.57 1.7v.03c.27.98 0 1.89-1.17 3.83l-1.29 2.15.04.12L194 12.2l.34 1.29-6.01 1.6Z"/>
      <path fill="#828599" d="m198.24 6.23-.91-3.4 1.28-.34c.64-.18 1.21.14 1.38.79.18.65-.15 1.22-.8 1.4l-.85.22.32 1.22-.42.11Zm.36-3.34-.75.2.39 1.44.75-.2c.48-.13.7-.48.57-.92-.12-.46-.47-.65-.96-.52Zm3.64 2.32c-.73.2-1.3-.2-1.52-1-.21-.78.1-1.44.78-1.63.7-.18 1.25.22 1.46.98l.04.16-1.83.5c.15.51.53.74.98.62.34-.1.51-.31.54-.48v-.03l.41-.1v.01c0 .37-.26.8-.86.97Zm-.64-2.26c-.38.1-.6.44-.51.93l1.4-.38c-.17-.49-.52-.65-.89-.55Zm2.34 1.75-.68-2.54.41-.1.1.37h.04c.06-.31.26-.53.63-.63.57-.15.98.1 1.14.7l.44 1.65-.4.1-.42-1.54c-.13-.46-.37-.63-.78-.52-.4.11-.59.45-.47.9l.4 1.5-.4.11Zm3.78-.96c-.65.17-1.21-.23-1.42-1.03-.22-.8.06-1.43.71-1.6.35-.1.7 0 .91.23h.04l-.38-1.42.41-.1.95 3.54-.4.11-.11-.4h-.04a.9.9 0 0 1-.67.67Zm0-.39c.46-.12.64-.56.48-1.15-.16-.59-.54-.88-1-.75-.46.12-.64.55-.48 1.15.16.6.53.88 1 .75Zm1.42-3.29a.3.3 0 1 1-.15-.57.3.3 0 0 1 .15.57Zm.6 3.09-.68-2.54.41-.11.68 2.54-.4.11Zm1.18-.32L210.24.3l.41-.1.1.37h.04c.06-.31.25-.53.63-.63.57-.15.98.1 1.14.7l.44 1.65-.4.1-.42-1.54c-.13-.46-.37-.63-.78-.52-.4.11-.59.45-.47.9l.4 1.5-.4.11Zm4.11-.14c-.61.17-1.08 0-1.25-.4l.43-.12c.1.18.36.26.72.16.46-.12.67-.4.57-.78l-.14-.52-.03.01a.91.91 0 0 1-.68.65c-.66.18-1.2-.22-1.4-.93-.19-.72.08-1.34.75-1.52a.9.9 0 0 1 .91.25h.03l-.1-.43.4-.1.67 2.5c.16.57-.19 1.05-.88 1.23Zm-.4-1.38c.48-.13.67-.56.53-1.06-.13-.51-.51-.8-.98-.67s-.64.56-.5 1.06c.13.51.49.8.96.67Zm-15.48 7.64a.3.3 0 0 1-.36-.2.3.3 0 0 1 .2-.36.3.3 0 0 1 .15.57Zm.6 3.09-.68-2.54.4-.11.69 2.54-.41.1Zm2.07-.5c-.57.14-1.03-.02-1.19-.43l.42-.11c.13.19.36.27.69.19.34-.1.54-.32.48-.55-.05-.18-.21-.27-.54-.26l-.42.01c-.5.02-.78-.13-.88-.5-.11-.42.2-.85.75-1 .53-.14.97.03 1.14.43l-.4.1c-.11-.18-.34-.26-.65-.18-.3.08-.48.3-.42.52.04.18.2.25.52.24h.42c.5-.02.8.13.89.49.12.46-.23.89-.81 1.04Zm2.48-.67c-.57.15-1.03-.02-1.19-.43l.42-.1c.13.18.37.27.7.18.33-.09.53-.32.47-.55-.05-.17-.2-.26-.54-.25l-.42.01c-.5.01-.78-.14-.88-.5-.11-.43.21-.85.75-1 .53-.14.97.03 1.14.43l-.4.1c-.1-.18-.34-.27-.65-.19-.3.09-.48.3-.42.52v.01c.04.17.2.25.52.24l.42-.01c.5-.01.8.13.89.5.12.45-.23.88-.81 1.04Zm2.5-.67c-.57.15-.96-.1-1.12-.71l-.44-1.65.4-.1.42 1.54c.12.46.35.63.75.53.45-.12.62-.46.5-.9l-.4-1.51.4-.11.69 2.54-.41.11-.1-.38-.05.01c-.05.3-.26.53-.64.63Zm3.01-.8c-.73.19-1.3-.2-1.51-1-.22-.79.09-1.45.78-1.63.69-.19 1.25.21 1.45.97l.04.16-1.82.5c.15.52.52.74.97.62.35-.09.52-.3.54-.48v-.02l.42-.11v.02c0 .36-.27.8-.87.96Zm-.63-2.27c-.38.1-.6.44-.52.93l1.4-.37c-.17-.5-.51-.66-.88-.56Zm3.22 1.57c-.56.15-1.02-.02-1.18-.43l.42-.11c.12.2.36.28.69.2.34-.1.54-.33.48-.56-.05-.18-.21-.26-.55-.25h-.42c-.5.02-.77-.13-.87-.5-.12-.42.2-.84.75-.99.53-.14.97.02 1.14.42l-.4.11c-.11-.18-.35-.27-.66-.19-.3.08-.48.3-.42.52.05.18.2.25.53.25l.41-.01c.51-.02.8.13.9.5.12.45-.24.88-.82 1.04Z"/>
      <path stroke="#E6E8F2" stroke-width=".45" d="m231.56-7.5-.77 12.92"/>
      <path fill="#27282E" d="m-52.32 103.13-1.16-4.33.54-.15 1.16 4.33-.54.14Zm1.58-.43-.87-3.23.52-.14.14.48h.04c.07-.4.32-.68.8-.8.73-.2 1.25.12 1.45.89l.56 2.1-.52.13-.53-1.96c-.15-.59-.47-.8-.98-.66-.52.13-.75.57-.6 1.14l.51 1.91-.52.14Zm4.38-1.17-2.06-2.92.55-.14 1.6 2.42.05-.01.17-2.9.55-.15-.33 3.56-.53.14Zm3.63-.91c-.92.24-1.65-.26-1.92-1.27-.27-1 .12-1.84 1-2.07.87-.24 1.58.27 1.84 1.24l.06.2-2.33.63c.2.66.67.95 1.24.8.44-.12.65-.4.69-.62v-.03l.53-.14v.03c0 .47-.34 1.02-1.1 1.23Zm-.8-2.88c-.48.13-.76.56-.65 1.19l1.78-.48c-.22-.63-.66-.84-1.13-.7Zm2.98 2.23-.87-3.23.53-.14.13.48.04-.01c.07-.39.32-.67.8-.8.73-.19 1.25.13 1.45.9l.56 2.1-.52.13-.53-1.97c-.15-.58-.47-.8-.98-.65-.52.13-.75.57-.6 1.14l.51 1.91-.52.14Zm4.74-1.24c-.66.17-1 0-1.17-.61l-.53-1.97-.5.14-.12-.43.5-.14-.22-.84.54-.14.23.84.7-.2.12.44-.7.19.48 1.83c.1.38.28.5.61.4.1-.02.15-.03.24-.07l.12.44-.3.12Zm2.38-.6c-.92.24-1.66-.24-1.94-1.28s.12-1.83 1.04-2.07c.92-.25 1.66.23 1.94 1.27s-.12 1.83-1.04 2.08Zm-.13-.47c.62-.16.84-.7.64-1.46-.2-.77-.67-1.13-1.29-.96-.6.16-.83.7-.63 1.46v.01c.2.76.67 1.12 1.28.95Zm2.41-.2-.86-3.24.52-.14.13.48.05-.02c.03-.37.28-.65.72-.76.1-.03.21-.05.26-.05l.14.5-.33.06c-.5.13-.77.54-.64 1.02l.54 2-.53.14Zm2.96.42-.24.04-.12-.43c.07 0 .15-.02.22-.04.3-.08.45-.26.46-.67l.01-.2-2.06-2.92.55-.15 1.6 2.42.05-.01.18-2.9.54-.15-.34 3.77c-.07.8-.28 1.08-.85 1.24Zm4.55-2.44-1.16-4.33.62-.17 2.45 3.22.05-.01.52-4.01.62-.17 1.16 4.33-.5.13-.89-3.3h-.03l-.48 3.68-.46.12-2.25-2.94-.04.01.89 3.3-.5.14Zm6.2-1.6c-.61.16-1.17-.08-1.33-.67-.16-.58.18-1.03.92-1.28l.91-.3-.08-.3c-.1-.4-.4-.55-.89-.42-.39.1-.6.32-.62.6l-.52.14v-.02c-.05-.53.35-1 1.04-1.19.79-.2 1.33.08 1.52.75l.59 2.22-.52.14-.13-.48-.05.01c-.11.4-.4.68-.83.8Zm-.8-.83c.09.33.42.45.8.35.52-.15.82-.6.7-1.06l-.09-.3-.85.3c-.48.15-.65.39-.56.7v.01Zm3.3.1-.87-3.23.52-.14.13.48.05-.01c.07-.39.32-.67.8-.8.72-.19 1.24.13 1.45.9l.56 2.1-.53.13-.52-1.97c-.16-.58-.47-.8-.99-.65-.52.13-.75.57-.6 1.14l.51 1.91-.52.14Zm4.49-1.14c-.62.16-1.18-.08-1.34-.67-.16-.58.18-1.03.92-1.28l.91-.3-.08-.3c-.1-.4-.4-.55-.89-.42-.39.1-.6.32-.62.6l-.52.14v-.02c-.05-.53.35-1 1.04-1.19.79-.2 1.33.08 1.51.75l.6 2.22-.52.14-.13-.48-.05.01c-.11.4-.4.68-.83.8Zm-.81-.83c.09.33.42.45.8.35.52-.15.82-.6.7-1.06l-.09-.3-.85.3c-.48.15-.65.39-.56.7v.01Zm4.93.88c-.78.21-1.37 0-1.6-.51h.01l.54-.15c.13.23.46.33.93.2.58-.15.85-.52.72-1l-.18-.65-.04.01c-.11.41-.42.71-.87.83-.84.23-1.53-.28-1.77-1.19-.25-.91.1-1.7.95-1.93.45-.13.87 0 1.16.32l.04-.01-.14-.54.52-.14.85 3.2c.2.72-.24 1.33-1.12 1.56Zm-.5-1.76c.6-.16.84-.7.67-1.35-.17-.65-.66-1-1.26-.85-.6.16-.81.71-.64 1.35.18.65.63 1.01 1.23.85Zm3.94-.32c-.92.25-1.65-.25-1.92-1.26-.27-1 .11-1.84 1-2.08.87-.23 1.58.28 1.84 1.24l.05.2-2.32.63c.2.67.66.96 1.24.8.44-.11.65-.4.69-.61v-.03l.52-.14v.02c.01.47-.33 1.03-1.1 1.23Zm-.8-2.87c-.49.13-.76.55-.66 1.18l1.8-.48c-.23-.62-.67-.83-1.15-.7Zm2.98 2.23-.87-3.24.52-.14.14.5.04-.02c.05-.39.3-.67.73-.78.44-.12.8.03 1.05.33l.04-.02c.09-.39.4-.71.84-.83.66-.18 1.13.1 1.31.78l.6 2.24-.52.14-.57-2.12c-.12-.48-.4-.65-.86-.53a.75.75 0 0 0-.55.95l.56 2.08-.52.14-.6-2.2c-.1-.38-.43-.56-.83-.45-.43.11-.65.57-.53 1.02l.54 2-.52.15Zm6.68-1.73c-.92.25-1.65-.25-1.93-1.27-.27-1 .12-1.84 1-2.07.88-.24 1.59.27 1.85 1.24l.05.2-2.33.63c.2.66.67.95 1.25.8.44-.12.65-.4.69-.62v-.03l.52-.14v.03c.01.47-.34 1.02-1.1 1.23Zm-.8-2.88c-.49.13-.77.56-.66 1.19l1.79-.48c-.22-.63-.66-.83-1.14-.7Zm2.98 2.23-.87-3.23.52-.14.13.48h.05c.07-.4.32-.68.8-.8.72-.2 1.24.12 1.45.9l.56 2.09-.52.14-.53-1.97c-.16-.59-.47-.8-.99-.66-.51.14-.75.57-.6 1.14l.52 1.91-.52.14Zm4.74-1.24c-.66.18-1.01 0-1.18-.61l-.52-1.97-.51.14-.12-.43.51-.14-.22-.84.54-.14.22.84.71-.2.12.44-.71.19.49 1.83c.1.38.27.5.61.4.1-.02.14-.03.24-.07l.12.45c-.1.04-.2.08-.3.1Zm4.32-1.08c-.95.26-1.7-.08-1.95-.76v-.04l.53-.14.01.03c.16.42.68.58 1.3.4.6-.15.94-.57.82-1v-.01c-.1-.36-.4-.54-1.04-.51l-.5.02c-.93.04-1.4-.26-1.58-.89-.19-.72.3-1.4 1.2-1.63.86-.23 1.6.12 1.82.75l.02.04-.54.14-.02-.03c-.16-.37-.6-.55-1.16-.4-.54.15-.89.52-.77.97.1.35.4.52 1.02.49l.5-.02c.96-.04 1.42.22 1.59.85.21.81-.28 1.49-1.25 1.74Zm3.74-1.05c-.92.25-1.65-.25-1.93-1.26-.27-1 .12-1.84 1-2.08.88-.23 1.59.28 1.85 1.25l.05.2-2.33.62c.2.67.67.96 1.25.8.44-.11.65-.4.69-.61v-.03l.52-.14v.03c.01.46-.34 1.02-1.1 1.22Zm-.8-2.87c-.49.13-.77.55-.66 1.18l1.79-.48c-.23-.62-.66-.83-1.14-.7Zm2.98 2.23-.87-3.24.52-.14.13.48h.05c.03-.38.28-.66.72-.78l.27-.05.13.51-.33.06c-.5.13-.77.54-.64 1.02l.54 2-.52.14Zm3.28-.88-2.06-2.91.55-.15 1.6 2.42h.05l.17-2.91.55-.15-.33 3.56-.53.14Zm1.66-4.58a.37.37 0 0 1-.46-.26c-.05-.2.07-.4.27-.46.2-.05.4.06.45.26.06.2-.06.4-.26.46Zm.77 3.93-.87-3.24.53-.14.86 3.24-.52.14Zm2.84-.7c-.9.24-1.66-.26-1.93-1.29-.27-1 .13-1.82 1.03-2.06.8-.21 1.38.12 1.63.67l.01.01-.52.14c-.17-.3-.53-.48-1-.36-.57.16-.81.72-.62 1.45.2.75.7 1.13 1.28.98.43-.12.66-.39.68-.78v-.02l.52-.14v.03c.03.63-.3 1.16-1.07 1.37Zm3.44-.92c-.92.24-1.66-.25-1.93-1.27-.27-1 .12-1.84 1-2.07.88-.24 1.59.27 1.85 1.24l.05.2-2.33.63c.2.66.67.95 1.25.8.44-.12.65-.4.69-.62v-.03l.52-.14v.03c0 .47-.34 1.02-1.1 1.23Zm-.8-2.88c-.49.13-.77.56-.66 1.19l1.79-.48c-.23-.63-.66-.84-1.14-.7Z"/>
      <rect width="161.48" height="6.36" x="-50.21" y="113.19" fill="#F0F1F7" rx="3.18" transform="rotate(-15 -50.21 113.2)"/>
      <rect width="105.13" height="5.45" x="-50.1" y="113.63" fill="#E5E5FF" rx="2.73" transform="rotate(-15 -50.1 113.63)"/>
      <rect width="26.36" height="5.45" x="53.21" y="85.95" fill="#7D76EE" rx="2.73" transform="rotate(-15 53.2 85.95)"/>
      <rect width="26.36" height="5.45" x="80.43" y="78.66" fill="#6063F6" rx="2.73" transform="rotate(-15 80.43 78.66)"/>
      <path stroke="#E6E8F2" stroke-width=".45" d="m5.66 113.75-.77 12.91"/>
      <path fill="#27282E" d="M27.09 119.25c-1.77.47-3.26-.28-3.75-1.68l-.03-.07 1.43-.39.02.05c.3.67 1.1 1.06 2 .82 1-.27 1.51-1.17 1.24-2.19v-.01a1.7 1.7 0 0 0-2.16-1.26 1.84 1.84 0 0 0-1.38 1.36l-1.33.35-.93-5.18 5.2-1.4.33 1.28-3.99 1.07.47 2.7.1-.03c.2-.68.78-1.2 1.6-1.43 1.61-.43 3.1.46 3.55 2.11v.02c.49 1.8-.5 3.38-2.37 3.88Z"/>
      <path fill="#828599" d="m34.08 110.93-.9-3.4 1.27-.34c.64-.17 1.21.15 1.39.8a1.1 1.1 0 0 1-.8 1.39l-.86.23.33 1.2-.43.12Zm.37-3.34-.75.2.38 1.44.75-.2c.49-.13.7-.47.58-.92-.13-.45-.48-.65-.96-.52Zm3.63 2.32c-.73.2-1.3-.2-1.52-1-.2-.78.1-1.44.79-1.62.69-.19 1.25.21 1.45.97l.04.16-1.83.5c.16.52.53.74.98.62.35-.09.51-.31.54-.48v-.03l.42-.1v.01c0 .37-.27.81-.87.97Zm-.64-2.26c-.37.1-.6.44-.5.93l1.4-.37c-.18-.5-.52-.66-.9-.56Zm2.35 1.75-.68-2.54.4-.1.11.38.04-.02c.05-.3.25-.52.62-.62.57-.15.98.1 1.15.7l.44 1.65-.41.1-.42-1.54c-.12-.46-.37-.63-.77-.52-.41.11-.6.45-.47.9l.4 1.5-.41.11Zm3.77-.96c-.64.17-1.2-.23-1.42-1.03-.21-.8.07-1.43.71-1.6.35-.1.7 0 .92.23h.03l-.37-1.42.4-.1.96 3.55-.41.1-.11-.4h-.04a.9.9 0 0 1-.67.67Zm0-.39c.46-.12.64-.56.49-1.15-.16-.59-.54-.88-1-.75-.47.12-.65.55-.49 1.15.16.6.53.88 1 .75Zm1.42-3.29a.3.3 0 0 1-.36-.2.3.3 0 1 1 .36.2Zm.6 3.1-.68-2.55.41-.11.68 2.54-.4.11Zm1.19-.33-.68-2.54.4-.1.1.38.05-.02c.05-.3.25-.52.62-.62.57-.15.98.1 1.14.7l.45 1.65-.42.1-.41-1.54c-.12-.46-.37-.63-.78-.52-.4.11-.58.45-.47.9l.4 1.5-.4.11Zm4.1-.14c-.6.17-1.07 0-1.25-.4l.43-.12c.1.18.36.26.73.16.45-.12.67-.4.57-.78l-.14-.52-.04.01a.91.91 0 0 1-.68.66c-.66.17-1.2-.23-1.4-.94-.18-.72.09-1.34.75-1.52a.9.9 0 0 1 .92.25h.03l-.12-.43.42-.1.67 2.5c.15.57-.2 1.05-.89 1.23Zm-.39-1.38c.47-.13.66-.56.53-1.06-.14-.51-.52-.8-.99-.67s-.64.56-.5 1.06c.13.51.5.8.96.67Zm-15.5 7.64a.3.3 0 0 1-.14-.56.3.3 0 0 1 .15.56Zm.61 3.09-.68-2.54.41-.11.68 2.54-.4.11Zm2.07-.5c-.56.15-1.03-.02-1.19-.43l.42-.11c.13.2.37.27.7.19.34-.1.54-.32.47-.55-.04-.18-.2-.26-.54-.26l-.42.02c-.5.01-.78-.14-.87-.5-.12-.43.2-.86.74-1s.98.02 1.15.42l-.4.11c-.12-.19-.35-.27-.66-.19-.3.08-.48.3-.42.52.05.18.2.25.52.25l.42-.02c.51 0 .8.14.9.5.12.46-.24.89-.82 1.04Zm2.48-.67c-.56.15-1.03-.02-1.19-.42l.42-.12c.13.2.37.28.7.2.34-.1.54-.33.47-.56-.04-.17-.2-.26-.54-.25l-.42.01c-.5.01-.78-.14-.87-.5-.12-.43.2-.85.74-1 .54-.14.98.03 1.15.43l-.4.1c-.12-.18-.35-.27-.66-.18-.3.08-.48.3-.42.52.05.17.2.25.52.24l.42-.01c.51-.01.8.13.9.5.12.45-.24.89-.82 1.04Zm2.5-.67c-.57.15-.96-.1-1.12-.7l-.44-1.65.41-.11.42 1.54c.12.46.34.63.75.53.45-.12.61-.46.5-.9l-.41-1.51.4-.11.69 2.54-.41.11-.1-.38-.04.01c-.05.3-.27.53-.64.63Zm3.01-.8c-.72.19-1.3-.2-1.51-1-.21-.79.1-1.45.78-1.63.7-.19 1.25.21 1.45.97l.05.16-1.83.5c.15.52.52.75.98.62.34-.09.5-.3.54-.48v-.02l.41-.11v.02c0 .37-.27.8-.87.96Zm-.63-2.27c-.38.1-.6.44-.51.94l1.4-.38c-.17-.5-.52-.66-.9-.56Zm3.23 1.57c-.57.15-1.03-.02-1.19-.43l.42-.11c.13.2.37.28.69.2.34-.1.54-.33.48-.56-.05-.18-.21-.26-.54-.25h-.42c-.5.02-.78-.13-.88-.5-.11-.42.2-.84.75-.99.53-.14.97.03 1.14.43l-.4.1c-.11-.18-.34-.27-.65-.19-.3.09-.48.3-.42.52.04.18.2.25.52.25l.42-.01c.5-.02.8.13.89.5.12.45-.23.88-.81 1.04Z"/>
      <path stroke="#E6E8F2" stroke-width=".45" d="m70.3 96.43-.77 12.91"/>
      <path fill="#27282E" d="m90.67 101.98-1.92-7.13-.1.03-1.74 2.1-.4-1.46 1.84-2.2 1.54-.41 2.32 8.66-1.54.41Z"/>
      <path fill="#828599" d="m96.8 94.13-.92-3.4 2.07-.56.1.39-1.64.44.31 1.16 1.51-.4.1.38-1.5.4.39 1.48-.43.1Zm2.11-3.82a.3.3 0 0 1-.36-.2.3.3 0 0 1 .2-.36.3.3 0 0 1 .37.2.3.3 0 0 1-.21.36Zm.6 3.09-.68-2.54.41-.11.69 2.54-.41.11Zm.99-.26.53-1.5-1.22-1.04.48-.13.86.78h.03l.35-1.11.46-.13-.53 1.49 1.22 1.05-.48.13-.86-.8-.04.01-.34 1.12-.46.13Zm3.66-.94c-.72.2-1.3-.2-1.51-1-.21-.78.1-1.44.78-1.62.7-.19 1.25.22 1.45.97l.05.16-1.83.5c.15.52.52.75.97.63.35-.1.52-.32.54-.49v-.02l.42-.11v.02c0 .37-.27.8-.87.96Zm-.63-2.26c-.38.1-.6.44-.51.94l1.4-.38c-.18-.5-.52-.66-.9-.56Zm3.3 1.55c-.65.17-1.21-.23-1.42-1.03-.22-.8.06-1.43.7-1.6.36-.1.7 0 .92.23h.04l-.38-1.42.4-.1.96 3.54-.41.11-.1-.4h-.05a.9.9 0 0 1-.67.67Zm-.01-.39c.46-.12.65-.56.49-1.15-.16-.59-.54-.88-1-.75-.47.12-.64.55-.49 1.15.16.6.54.88 1 .75Zm-9.12 5.75a.3.3 0 0 1-.36-.2.3.3 0 0 1 .2-.37.3.3 0 0 1 .37.21.3.3 0 0 1-.21.36Zm.6 3.09-.68-2.55.41-.1.69 2.54-.41.1Zm2.07-.51c-.56.15-1.03-.02-1.18-.42l.41-.12c.13.2.37.28.7.2.34-.1.54-.32.48-.56-.05-.17-.22-.26-.55-.25l-.42.01c-.5.02-.77-.13-.87-.5-.12-.42.2-.85.74-1 .54-.14.98.03 1.15.43l-.4.1c-.11-.18-.35-.27-.66-.18-.3.08-.48.3-.42.52.05.17.2.25.52.24l.42-.01c.51-.01.8.13.9.5.12.45-.24.89-.82 1.04Zm2.48-.66c-.56.15-1.02-.02-1.18-.43l.41-.11c.13.2.37.28.7.19.34-.1.54-.32.47-.55-.04-.18-.2-.26-.54-.25h-.42c-.5.02-.77-.13-.87-.5-.11-.42.2-.85.75-.99.53-.14.97.02 1.14.42l-.4.11c-.11-.18-.35-.27-.66-.19-.3.08-.48.3-.42.52.05.18.2.25.53.25l.41-.01c.51-.02.8.13.9.5.12.45-.24.88-.82 1.04Zm2.51-.68c-.58.16-.97-.1-1.13-.7l-.44-1.65.41-.1.42 1.54c.12.46.34.63.75.52.45-.12.61-.45.5-.9l-.41-1.5.4-.11.69 2.54-.41.1-.1-.37H106c-.05.31-.27.53-.64.63Zm3-.8c-.72.2-1.3-.2-1.5-1h-.01c-.21-.78.1-1.44.79-1.63.69-.18 1.24.22 1.45.98l.04.16-1.83.49c.15.52.53.75.98.63.34-.1.51-.31.54-.48v-.03l.41-.1v.01c0 .37-.27.8-.86.97Zm-.63-2.26c-.38.1-.6.44-.51.93l1.4-.38c-.17-.49-.52-.65-.89-.55Zm3.23 1.56c-.57.16-1.03-.01-1.19-.42l.42-.11c.13.19.37.28.7.19.33-.1.53-.32.47-.55-.05-.18-.2-.26-.54-.26l-.42.02c-.5 0-.78-.14-.88-.5-.1-.43.21-.86.75-1 .53-.14.98.02 1.14.42l-.4.11c-.1-.19-.34-.27-.65-.19-.3.08-.48.3-.42.52.05.18.2.25.52.24h.42c.5-.02.8.13.9.49.11.46-.24.89-.82 1.04Z"/>
      <g clip-path="url(#d)">
        <path stroke="#C3C6D9" stroke-width=".45" d="m110.34 53.33 10.47 39.09"/>
      </g>
      <path fill="#27282E" d="m121.22 56.63-1.16-4.34.53-.14 3.25 2.74h.05l-.9-3.38.53-.14 1.16 4.33-.53.14-3.25-2.73-.05.01.9 3.36-.53.15Zm5.84-1.5c-.92.24-1.66-.25-1.94-1.28-.28-1.04.12-1.83 1.04-2.08.92-.24 1.66.24 1.94 1.27v.01c.28 1.04-.12 1.82-1.04 2.07Zm-.12-.47c.6-.16.83-.7.63-1.47-.2-.77-.67-1.12-1.28-.96-.62.17-.84.7-.64 1.47.21.77.67 1.12 1.29.96Zm3.56-.5c-.66.18-1 .01-1.17-.6l-.53-1.97-.51.14-.12-.44.51-.13-.22-.84.54-.14.22.83.71-.19.12.44-.71.19.5 1.83c.1.38.27.5.6.4l.24-.07.12.44c-.1.05-.2.09-.3.11Zm.32-4.24a.37.37 0 1 1 .26-.46c.06.2-.06.4-.26.46Zm.77 3.93-.87-3.24.53-.14.86 3.24-.52.14Zm1.72-.47-.75-2.8-.53.15-.12-.44.54-.14-.1-.36c-.17-.65.07-1.04.68-1.2.13-.04.25-.06.36-.07l.11.42a1 1 0 0 0-.25.05c-.37.1-.47.32-.37.67l.09.35.73-.2.12.44-.73.2.75 2.8-.53.13Zm1.26-4.47a.37.37 0 1 1-.2-.72.37.37 0 0 1 .2.72Zm.77 3.93-.87-3.23.52-.14.87 3.23-.52.14Zm2.84-.7c-.9.24-1.66-.26-1.94-1.28v-.01c-.27-1 .13-1.81 1.04-2.06.79-.2 1.38.12 1.63.67v.02l-.51.14v-.01c-.17-.3-.53-.48-1-.35-.58.15-.82.72-.62 1.45.2.75.7 1.12 1.28.97.43-.12.65-.38.68-.77v-.02l.51-.15v.04c.03.62-.3 1.15-1.07 1.36Zm3-.8c-.61.16-1.18-.09-1.33-.67v-.01c-.16-.58.18-1.02.92-1.27l.91-.3-.08-.3c-.1-.4-.4-.55-.89-.42-.39.1-.6.32-.62.59v.01l-.52.14v-.02c-.06-.53.35-1 1.04-1.19.78-.2 1.33.08 1.51.75l.6 2.21-.52.14-.13-.47-.05.01c-.11.4-.4.68-.84.8Zm-.8-.83c.09.33.42.45.8.34.52-.14.82-.59.7-1.05l-.09-.3-.85.29c-.48.16-.65.4-.56.71v.01Zm4.45-.18c-.67.17-1.01 0-1.18-.62l-.52-1.96-.51.14-.12-.43.51-.14-.22-.84.54-.14.22.83.7-.18.12.43-.7.19.49 1.83c.1.38.27.5.6.4l.24-.07.12.44c-.1.05-.19.09-.3.12Zm.32-4.25a.37.37 0 1 1-.2-.72.37.37 0 0 1 .2.72Zm.77 3.93-.87-3.24.52-.14.87 3.24-.52.14Zm2.85-.7c-.92.24-1.66-.24-1.94-1.28s.12-1.83 1.04-2.07c.92-.25 1.66.23 1.94 1.27s-.12 1.83-1.04 2.08Zm-.13-.47c.62-.16.84-.7.64-1.46-.2-.77-.67-1.13-1.28-.96-.62.16-.84.7-.64 1.46v.01c.2.76.67 1.12 1.28.95Zm2.41-.2-.86-3.24.52-.14.13.48.05-.01c.07-.39.32-.67.8-.8.72-.2 1.24.13 1.45.9l.56 2.1-.52.13-.53-1.97c-.16-.58-.47-.8-.99-.65-.51.13-.75.57-.6 1.14l.52 1.91-.53.14Zm6.83-1.73c-.94.25-1.69-.08-1.94-.77l-.01-.03.54-.14V46c.16.42.69.57 1.31.4.59-.15.94-.57.82-1.01-.1-.37-.41-.54-1.04-.52l-.51.03c-.92.04-1.4-.26-1.57-.89-.19-.72.3-1.4 1.2-1.64.86-.23 1.6.12 1.82.75l.01.05-.54.14-.01-.04c-.17-.36-.6-.55-1.17-.4-.53.15-.88.52-.76.97.1.35.4.52 1.01.5l.51-.03c.96-.04 1.41.23 1.58.85.22.82-.28 1.5-1.25 1.75Zm3.75-1.05c-.93.25-1.66-.25-1.93-1.27-.27-1 .12-1.83 1-2.07.88-.24 1.59.27 1.84 1.24l.06.2-2.33.63c.2.66.67.96 1.24.8.44-.12.66-.4.7-.61v-.03l.52-.14v.02c0 .47-.34 1.03-1.1 1.23Zm-.81-2.87c-.48.12-.76.55-.65 1.18l1.79-.48c-.23-.62-.67-.83-1.14-.7Zm2.98 2.23-.87-3.24.53-.14.13.48.04-.01c.04-.37.29-.65.72-.77.1-.03.22-.04.27-.05l.14.5-.33.06c-.5.14-.77.55-.64 1.02l.53 2-.52.15Zm3.29-.88-2.07-2.92.56-.15 1.6 2.43.04-.01.17-2.9.56-.15-.33 3.55-.53.15Zm1.66-4.59a.37.37 0 1 1-.2-.72.37.37 0 0 1 .2.72Zm.76 3.93-.86-3.23.52-.14.87 3.23-.53.14Zm2.85-.7c-.9.25-1.66-.26-1.94-1.28-.27-1.01.13-1.82 1.04-2.06.79-.22 1.38.11 1.63.66v.02l-.51.14v-.01c-.17-.3-.53-.48-1-.35-.58.15-.82.72-.62 1.45.2.75.7 1.13 1.27.97.44-.11.66-.38.69-.77v-.02l.51-.14v.03c.03.62-.3 1.16-1.07 1.36Zm3.44-.92c-.93.25-1.66-.25-1.93-1.26-.27-1 .12-1.84 1-2.08.88-.23 1.58.28 1.84 1.24l.06.2-2.33.63c.2.67.67.96 1.24.8.44-.11.66-.4.7-.61v-.03l.52-.14v.02c0 .47-.34 1.03-1.1 1.23Zm-.81-2.87c-.48.13-.76.55-.65 1.18l1.78-.48c-.22-.62-.66-.83-1.13-.7Z"/>
      <rect width="161.48" height="6.36" x="123.33" y="66.69" fill="#F0F1F7" rx="3.18" transform="rotate(-15 123.33 66.7)"/>
      <rect width="65.74" height="5.45" x="123.44" y="67.13" fill="#E5E5FF" rx="2.73" transform="rotate(-15 123.44 67.13)"/>
      <rect width="65.74" height="5.45" x="188.71" y="49.65" fill="#7D76EE" rx="2.73" transform="rotate(-15 188.7 49.65)"/>
      <rect width="26.36" height="5.45" x="253.97" y="32.16" fill="#6063F6" rx="2.73" transform="rotate(-15 253.97 32.16)"/>
      <path fill="#27282E" d="m132.99 90.64-1.92-7.13-.1.03-1.74 2.1-.4-1.46 1.84-2.2 1.54-.41 2.32 8.66-1.54.41Zm7.18-1.7c-2.05.56-3.76-.85-4.5-3.65l-.01-.01c-.75-2.8.02-4.87 2.08-5.42 2.06-.55 3.77.85 4.52 3.65v.01c.75 2.8-.03 4.88-2.09 5.43Zm-.33-1.24c1.1-.3 1.41-1.7.86-3.76v-.01c-.55-2.06-1.52-3.1-2.63-2.81-1.1.3-1.4 1.69-.85 3.74v.01c.55 2.05 1.51 3.12 2.62 2.83Z"/>
      <path fill="#828599" d="m146.57 80.8.34-3.75.42-.1L149.5 80l-.44.12-.6-.89-1.36.37-.08 1.06-.45.12Zm.68-3.25-.12 1.66 1.1-.3-.94-1.37-.04.01Zm3.63 2.14c-.56.15-1.03-.02-1.19-.43l.42-.11c.13.2.37.28.7.19.34-.1.54-.32.47-.55-.04-.18-.2-.26-.54-.25h-.42c-.5.02-.78-.13-.87-.5-.12-.42.2-.85.74-1 .54-.13.98.03 1.15.43l-.4.11c-.12-.18-.35-.27-.66-.19-.3.08-.48.3-.42.52.05.18.2.25.52.25l.42-.01c.51-.02.8.13.9.5.12.45-.24.88-.82 1.03Zm2.48-.67c-.56.15-1.03-.02-1.19-.42l.42-.12c.13.2.37.28.7.2.34-.1.54-.32.47-.56-.04-.17-.2-.26-.54-.25l-.42.01c-.5.02-.78-.13-.87-.5-.12-.42.2-.85.74-1 .54-.14.98.03 1.15.43l-.4.1c-.11-.18-.35-.26-.66-.18-.3.08-.48.3-.42.52.05.17.2.25.52.24h.42c.51-.02.8.12.9.49.12.45-.24.89-.82 1.04Zm1.05-3.58a.3.3 0 0 1-.36-.2.3.3 0 1 1 .36.2Zm.6 3.09-.68-2.54.41-.11.69 2.54-.42.11Zm2.48.3c-.62.16-1.08 0-1.26-.4v-.01l.43-.12c.1.19.36.26.73.16.45-.12.67-.4.57-.78l-.14-.51h-.04a.91.91 0 0 1-.68.66c-.66.18-1.2-.22-1.4-.94-.18-.71.09-1.34.75-1.52a.9.9 0 0 1 .92.25h.03l-.11-.42.4-.11.68 2.5c.15.57-.2 1.05-.88 1.24Zm-.4-1.39c.48-.12.66-.55.53-1.06-.14-.5-.52-.8-.99-.67s-.64.56-.5 1.07c.13.5.5.79.96.66Zm2.05-.02-.68-2.54.41-.1.1.37h.04c.06-.3.25-.53.63-.63.57-.15.98.1 1.14.7l.44 1.65-.41.1-.42-1.54c-.12-.46-.37-.63-.77-.52-.4.11-.6.45-.47.9l.4 1.5-.4.11Zm3.87-.98c-.73.19-1.3-.2-1.51-1-.22-.79.09-1.44.78-1.63.69-.18 1.25.22 1.45.98l.04.16-1.83.49c.16.52.53.75.98.63.35-.1.52-.31.54-.49v-.02l.42-.11v.02c0 .37-.27.8-.87.97Zm-.63-2.26c-.38.1-.6.43-.52.93l1.4-.38c-.17-.49-.51-.65-.88-.55Zm3.29 1.54c-.64.18-1.2-.23-1.42-1.03-.21-.8.07-1.43.72-1.6.34-.1.7 0 .9.23h.04l-.37-1.42.4-.1.96 3.55-.41.1-.11-.4-.04.01a.9.9 0 0 1-.67.66Zm0-.39c.46-.12.65-.56.49-1.15-.16-.59-.54-.87-1-.75-.47.12-.65.56-.49 1.15.16.6.53.88 1 .75Zm-17.92 8.1a.3.3 0 1 1-.15-.57.3.3 0 0 1 .15.58Zm.6 3.1-.68-2.55.41-.1.68 2.54-.4.1Zm2.07-.51c-.56.15-1.03-.02-1.19-.42l.42-.12c.13.2.37.28.7.2.34-.1.53-.32.47-.56-.04-.17-.2-.26-.54-.25l-.42.01c-.5.02-.78-.13-.87-.5-.12-.42.2-.85.74-1 .54-.14.98.03 1.15.43l-.4.1c-.12-.18-.35-.27-.66-.18-.3.08-.48.3-.42.52.05.17.2.25.52.24l.42-.01c.51-.01.8.13.9.5.12.45-.24.89-.82 1.04Zm2.48-.66c-.56.15-1.03-.02-1.19-.43l.42-.11c.13.2.37.28.7.19.34-.1.54-.32.47-.55-.04-.18-.2-.26-.54-.25h-.42c-.5.02-.78-.13-.87-.5-.12-.42.2-.85.74-.99s.98.02 1.15.42l-.4.11c-.12-.18-.35-.27-.66-.19-.3.08-.48.3-.42.52.05.18.2.25.52.25l.42-.01c.51-.02.8.13.9.5.12.45-.24.88-.82 1.04Zm2.5-.68c-.57.16-.96-.1-1.12-.7l-.44-1.65.41-.1.41 1.54c.13.46.35.63.76.52.45-.12.61-.46.49-.9l-.4-1.5.4-.11.69 2.54-.41.1-.1-.37h-.04c-.05.31-.27.53-.64.63Zm3.01-.8c-.72.2-1.3-.2-1.51-1-.21-.78.1-1.44.78-1.63.7-.18 1.25.22 1.45.98l.05.16-1.83.49c.15.52.52.75.98.63.34-.1.5-.31.54-.48V83l.41-.1v.01c0 .37-.27.8-.87.97Zm-.63-2.26c-.38.1-.6.44-.51.93l1.4-.38c-.17-.49-.52-.65-.9-.55Zm3.23 1.56c-.57.16-1.03-.01-1.19-.42l.42-.11c.13.19.36.27.69.19.34-.1.54-.32.48-.55-.05-.18-.21-.26-.54-.26l-.42.01c-.5.02-.78-.13-.88-.5-.11-.42.2-.85.75-1 .53-.14.97.03 1.14.43l-.4.11c-.11-.19-.34-.27-.65-.19-.3.08-.48.3-.42.52.04.18.2.25.52.24h.42c.5-.02.8.13.89.49.12.46-.23.89-.81 1.04Z"/>
      <path stroke="#E6E8F2" stroke-width=".45" d="m183.55 66.09-.78 12.9"/>
      <path fill="#27282E" d="M201.03 62.9c1.85-.5 3.81.38 4.65 3.5v.02c.78 2.91-.07 5-2.24 5.58-1.6.42-3.04-.2-3.67-1.45l-.03-.06 1.53-.41.03.05c.4.55 1.03.8 1.8.6 1.37-.37 1.6-1.87 1.21-3.55l-.04-.2-.12.04c-.14.77-.73 1.57-1.92 1.9a2.84 2.84 0 0 1-3.6-2.1v-.02c-.47-1.76.53-3.4 2.4-3.9Zm1.26 4.72a1.72 1.72 0 0 0 1.28-2.15v-.01a1.77 1.77 0 1 0-3.44.88v.01c.27 1 1.18 1.54 2.16 1.27Z"/>
      <path fill="#828599" d="m210.52 63.66-.91-3.4 1.28-.35c.64-.17 1.21.15 1.39.8.17.65-.16 1.22-.8 1.39l-.86.23.32 1.21-.42.12Zm.36-3.34-.75.2.39 1.43.75-.2c.48-.13.7-.47.57-.92-.12-.45-.47-.64-.96-.51Zm3.64 2.31c-.73.2-1.3-.2-1.52-.99-.2-.79.1-1.45.79-1.63.69-.19 1.24.22 1.45.98l.04.16-1.83.49c.15.52.53.75.98.63.34-.1.51-.32.54-.49v-.02l.41-.11v.02c0 .37-.26.8-.86.96Zm-.64-2.25c-.38.1-.6.43-.5.93l1.4-.38c-.18-.5-.52-.65-.9-.55Zm2.35 1.75-.69-2.54.42-.11.1.38.04-.01c.05-.3.25-.53.62-.63.57-.15.98.1 1.14.7l.44 1.65-.4.11-.42-1.55c-.12-.45-.37-.62-.78-.51-.4.1-.59.45-.47.9l.4 1.5-.4.1Zm3.77-.96c-.65.17-1.2-.24-1.42-1.03-.22-.8.07-1.43.71-1.6.35-.1.7 0 .91.23l.04-.01-.38-1.41.41-.11.95 3.55-.4.1-.11-.4-.04.01a.9.9 0 0 1-.67.67Zm0-.4c.46-.12.64-.56.48-1.14-.15-.6-.53-.88-1-.76-.46.13-.64.56-.48 1.15.16.6.53.88 1 .76Zm1.42-3.28a.3.3 0 0 1-.36-.21.3.3 0 0 1 .2-.36.3.3 0 0 1 .36.2.3.3 0 0 1-.2.37Zm.6 3.09-.68-2.55.41-.1.68 2.54-.4.1Zm1.19-.32-.69-2.54.41-.11.1.38.04-.01c.06-.3.26-.53.63-.63.57-.15.98.1 1.14.7l.44 1.65-.4.11-.42-1.55c-.13-.45-.37-.62-.78-.51-.4.1-.59.45-.47.9l.4 1.5-.4.1Zm4.1-.14c-.61.16-1.08 0-1.25-.4v-.01l.43-.12c.1.19.36.26.72.16.46-.12.67-.4.57-.78l-.13-.51h-.04a.91.91 0 0 1-.68.66c-.66.18-1.2-.22-1.4-.94-.19-.71.09-1.34.75-1.52a.9.9 0 0 1 .92.25h.03l-.12-.42.41-.11.67 2.5c.16.57-.19 1.05-.88 1.24Zm-.39-1.39c.47-.12.66-.55.53-1.06-.14-.5-.52-.8-1-.67-.46.13-.63.56-.5 1.07.14.5.5.79.97.66Zm-15.5 7.65a.3.3 0 0 1-.35-.21.3.3 0 1 1 .36.2Zm.61 3.08-.68-2.54.41-.1.68 2.53-.4.11Zm2.07-.5c-.57.15-1.03-.02-1.19-.43l.42-.11c.13.2.37.28.7.2.33-.1.53-.33.47-.56-.05-.18-.2-.26-.54-.25h-.42c-.5.02-.78-.13-.88-.5-.11-.42.21-.84.75-.99.53-.14.97.03 1.14.43l-.4.1c-.1-.18-.34-.27-.65-.19-.3.09-.48.3-.42.52.04.18.2.26.52.25l.42-.01c.5-.02.8.13.9.5.11.45-.24.88-.82 1.04Zm2.48-.67c-.57.15-1.03-.01-1.19-.42l.42-.11c.13.19.37.27.7.19.33-.1.53-.32.47-.55-.05-.18-.2-.27-.54-.26l-.42.01c-.5.02-.78-.13-.88-.5-.1-.42.21-.85.75-1 .53-.14.98.03 1.14.43l-.4.11c-.1-.19-.34-.27-.65-.19-.3.08-.48.3-.42.52.05.18.2.25.52.24h.42c.5-.02.8.13.9.49.11.46-.24.89-.82 1.04Zm2.5-.67c-.57.16-.96-.1-1.12-.7l-.44-1.65.4-.11.42 1.55c.13.45.35.63.75.52.45-.12.62-.46.5-.9l-.4-1.5.4-.12.69 2.54-.41.11-.1-.38-.04.01c-.06.3-.27.53-.64.63Zm3.01-.8c-.72.2-1.3-.2-1.51-1-.21-.79.09-1.44.78-1.63.7-.18 1.25.22 1.45.98l.04.16-1.82.49c.15.52.52.75.97.63.35-.1.52-.31.54-.49v-.02l.42-.1v.01c0 .37-.27.8-.87.97Zm-.63-2.26c-.38.1-.6.43-.52.93l1.41-.38c-.18-.49-.52-.65-.9-.55Zm3.22 1.56c-.56.15-1.02-.02-1.18-.42l.42-.12c.12.2.36.28.69.2.34-.1.54-.32.48-.56-.05-.17-.21-.26-.55-.25l-.41.01c-.51.02-.78-.13-.88-.5-.11-.42.2-.85.75-1 .53-.14.97.03 1.14.43l-.4.1c-.11-.18-.35-.26-.65-.18-.3.08-.49.3-.43.52.05.17.2.25.53.24h.41c.51-.02.8.12.9.49.12.45-.24.89-.81 1.04Z"/>
      <path stroke="#E6E8F2" stroke-width=".45" d="m245.3 49.54-.78 12.91"/>
      <path fill="#27282E" d="m264.2 55.48-1.9-7.13-.1.03-1.75 2.1-.4-1.46 1.84-2.2 1.54-.41 2.32 8.66-1.55.41Z"/>
      <path fill="#828599" d="m270.33 47.63-.9-3.4 2.06-.56.1.39-1.64.44.31 1.16 1.5-.4.11.38-1.5.4.39 1.48-.43.1Zm2.12-3.82a.3.3 0 1 1-.15-.56.3.3 0 0 1 .15.56Zm.6 3.09-.68-2.54.41-.11.69 2.54-.42.11Zm.99-.26.53-1.5-1.22-1.04.48-.13.86.78h.03l.35-1.11.46-.13L275 45l1.22 1.05-.48.13-.86-.8-.04.01-.34 1.12-.46.13Zm3.66-.94c-.72.2-1.3-.2-1.51-1-.21-.78.1-1.44.78-1.62.7-.19 1.25.22 1.45.97l.05.16-1.83.5c.15.52.52.75.97.63.35-.1.52-.32.54-.49v-.02l.42-.11v.02c0 .37-.27.8-.87.96Zm-.63-2.26c-.38.1-.6.44-.51.94l1.4-.38c-.18-.5-.52-.66-.9-.56Zm3.3 1.55c-.65.17-1.21-.23-1.43-1.03-.21-.8.07-1.43.72-1.6.35-.1.7 0 .9.23h.05l-.38-1.42.4-.1.96 3.54-.41.11-.1-.4h-.05a.9.9 0 0 1-.67.67Zm-.01-.39c.46-.12.65-.56.49-1.15-.16-.59-.54-.88-1-.75-.47.12-.65.55-.49 1.15.16.6.53.88 1 .75Zm-9.12 5.75a.3.3 0 0 1-.36-.2.3.3 0 0 1 .2-.37.3.3 0 0 1 .37.21.3.3 0 0 1-.21.36Zm.6 3.09-.68-2.55.41-.1.69 2.54-.41.1Zm2.07-.51c-.56.15-1.03-.02-1.19-.42l.42-.12c.13.2.37.28.7.2.34-.1.54-.32.48-.56-.05-.17-.21-.26-.55-.25l-.42.01c-.5.02-.77-.13-.87-.5-.12-.42.2-.85.74-1 .54-.14.98.03 1.15.43l-.4.1c-.12-.18-.35-.27-.66-.18-.3.08-.48.3-.42.52.05.17.2.25.53.24l.41-.01c.51-.01.8.13.9.5.12.45-.24.89-.82 1.04Zm2.48-.66c-.56.15-1.02-.02-1.19-.43l.43-.11c.12.2.36.28.69.19.34-.1.54-.32.48-.55-.05-.18-.21-.26-.55-.25h-.42c-.5.02-.77-.13-.87-.5-.12-.42.2-.85.75-.99.53-.14.97.02 1.14.42l-.4.11c-.11-.18-.35-.27-.66-.19-.3.08-.48.3-.42.52.05.18.2.25.52.25l.42-.01c.51-.02.8.13.9.5.12.45-.24.88-.82 1.04Zm2.5-.68c-.57.16-.96-.1-1.12-.7l-.44-1.65.41-.1.42 1.54c.12.46.34.63.75.52.45-.12.61-.45.5-.9l-.41-1.5.4-.11.69 2.54-.41.1-.1-.37h-.04c-.05.31-.27.53-.64.63Zm3.02-.8c-.73.2-1.3-.2-1.52-1-.21-.78.1-1.44.79-1.63.69-.18 1.24.22 1.45.98l.04.16-1.83.5c.15.51.52.74.98.62.34-.1.51-.31.54-.48v-.03l.41-.1v.01c0 .37-.27.8-.86.97Zm-.64-2.26c-.38.1-.6.44-.51.93l1.4-.38c-.17-.49-.52-.65-.89-.55Zm3.23 1.56c-.57.16-1.03-.01-1.19-.42l.42-.11c.13.19.37.28.7.19.33-.1.53-.32.47-.55-.05-.18-.2-.26-.54-.26l-.42.02c-.5 0-.78-.14-.88-.5-.11-.43.21-.86.75-1 .53-.14.98.02 1.14.42l-.4.11c-.1-.19-.34-.27-.65-.19-.3.08-.48.3-.42.52.04.18.2.25.52.24h.42c.5-.02.8.13.9.49.11.46-.24.89-.82 1.04Z"/>
      <g clip-path="url(#e)">
        <path stroke="#C3C6D9" stroke-width=".45" d="m283.88 6.83 10.47 39.09"/>
      </g>
      <path fill="#27282E" d="M294.76 10.13 293.6 5.8l1.66-.45c.8-.21 1.39.07 1.57.74.12.45-.1.94-.5 1.13l.01.05c.62-.08 1.1.22 1.25.8.2.76-.22 1.36-1.14 1.6l-1.69.46Zm.51-4.27-1 .27.37 1.39.87-.23c.65-.18.92-.5.8-.96-.12-.44-.5-.62-1.04-.47Zm.51 1.85-1.01.27.4 1.52 1.07-.28c.65-.18.92-.53.79-1.03s-.56-.67-1.25-.48Zm2.2-2.58a.37.37 0 0 1-.46-.27c-.05-.2.06-.4.26-.45a.37.37 0 0 1 .2.72Zm.77 3.93-.87-3.24.52-.14.87 3.24-.52.14Zm1.53-.41-1.2-4.52.51-.14 1.21 4.52-.52.14Zm1.56-.42-1.21-4.52.52-.14 1.2 4.52-.51.14Zm.76-4.34a.37.37 0 0 1-.45-.27c-.06-.2.06-.4.26-.45a.37.37 0 0 1 .2.72Zm.77 3.93-.86-3.24.52-.14.87 3.24-.53.14Zm1.5-.4-.86-3.24.53-.14.13.49.04-.02c.07-.38.32-.67.8-.8.73-.19 1.25.13 1.45.9l.56 2.1-.52.14-.53-1.97c-.15-.59-.47-.8-.98-.66-.52.14-.75.57-.6 1.14l.51 1.91-.52.14Zm5.24-.18c-.78.2-1.38-.01-1.6-.52l.55-.15c.12.23.46.33.92.2.58-.15.85-.52.72-1l-.17-.65-.05.01c-.1.42-.42.72-.86.83-.84.23-1.53-.28-1.77-1.19-.25-.9.1-1.7.94-1.93.46-.13.87 0 1.17.32l.04-.01-.15-.54.52-.14.86 3.2c.2.72-.24 1.33-1.12 1.57Zm-.5-1.77c.6-.16.84-.7.66-1.35-.17-.65-.65-1-1.25-.85-.6.16-.81.71-.64 1.35v.01c.17.64.63 1 1.23.84Zm5.84-.78c-.94.25-1.69-.08-1.94-.77l-.01-.03.54-.15v.04c.16.42.69.57 1.31.4.59-.15.94-.57.82-1.01-.1-.37-.41-.55-1.04-.52l-.51.03c-.92.04-1.4-.26-1.57-.89-.19-.72.3-1.4 1.2-1.64.86-.23 1.6.12 1.82.75l.01.05-.54.14-.02-.04c-.16-.36-.6-.55-1.16-.4-.54.15-.88.52-.76.97.09.35.39.52 1.01.5l.51-.03c.96-.04 1.41.23 1.58.85.22.82-.28 1.5-1.25 1.75Zm3.75-1.05c-.93.25-1.66-.25-1.93-1.27-.27-1 .12-1.84 1-2.07.88-.24 1.58.27 1.84 1.24l.06.2-2.33.63c.2.66.67.95 1.24.8.44-.12.66-.4.7-.61v-.03l.52-.14v.02c0 .47-.34 1.02-1.1 1.23Zm-.81-2.88c-.48.13-.76.56-.65 1.19l1.78-.48c-.22-.62-.65-.83-1.13-.7ZM321.37 3l-.87-3.23.53-.14.13.48.04-.01c.04-.37.29-.65.72-.77.1-.03.22-.05.27-.05l.14.5-.33.06c-.5.14-.77.55-.64 1.02l.53 2-.52.14Zm3.29-.88L322.59-.8l.56-.15 1.6 2.43.04-.01.17-2.9.56-.15-.33 3.55-.53.14Zm1.65-4.58a.37.37 0 0 1-.45-.26c-.06-.2.06-.4.26-.46.2-.05.4.07.46.27.05.2-.07.4-.26.45Zm.77 3.93-.86-3.23.52-.14.87 3.23-.53.14Zm2.85-.7c-.9.25-1.66-.26-1.94-1.28-.27-1.01.13-1.82 1.04-2.07.79-.2 1.38.12 1.63.67v.02l-.51.14v-.01c-.17-.3-.53-.48-1-.35-.58.15-.82.72-.62 1.45.2.75.7 1.13 1.27.97.44-.12.66-.38.69-.77V-.5l.51-.14v.03c.03.62-.3 1.15-1.07 1.36Zm3.44-.92c-.93.25-1.66-.25-1.93-1.26-.27-1 .12-1.84 1-2.08.88-.23 1.58.28 1.84 1.24l.06.2-2.33.63c.2.67.67.96 1.24.8.44-.11.66-.4.7-.61v-.03l.52-.14v.02c0 .47-.34 1.03-1.1 1.23Zm-.81-2.87c-.48.13-.76.55-.65 1.18l1.78-.48c-.22-.62-.66-.83-1.13-.7Z"/>
      <rect width="161.48" height="6.36" x="296.87" y="20.19" fill="#F0F1F7" rx="3.18" transform="rotate(-15 296.87 20.2)"/>
      <rect width="65.74" height="5.45" x="296.98" y="20.63" fill="#E5E5FF" rx="2.73" transform="rotate(-15 296.98 20.63)"/>
      <path fill="#27282E" d="M307.69 44.02c-2 .53-3.66-.13-4.05-1.61v-.01c-.3-1.11.28-2.19 1.37-2.73l-.01-.04c-1.06 0-1.92-.54-2.17-1.48-.36-1.34.65-2.66 2.44-3.14 1.8-.48 3.33.16 3.7 1.49v.01c.24.93-.22 1.83-1.14 2.36v.04c1.23-.08 2.26.57 2.56 1.68.4 1.5-.7 2.9-2.7 3.43Zm-1.41-5.26c.9-.24 1.4-.94 1.2-1.7h-.01c-.2-.76-.98-1.12-1.88-.88-.9.24-1.4.94-1.2 1.7h.01c.2.77.97 1.12 1.88.88Zm1.1 4.08c1.03-.28 1.6-1.08 1.38-1.91v-.02c-.22-.84-1.12-1.25-2.16-.97-1.05.29-1.62 1.09-1.4 1.93h.01c.23.84 1.12 1.24 2.16.97Z"/>
      <path fill="#828599" d="m314.32 35.84.34-3.73.42-.12 2.16 3.07-.44.12-.6-.88-1.36.36-.08 1.07-.44.11Zm.68-3.24-.13 1.67 1.1-.3-.94-1.38-.03.01Zm3.63 2.14c-.57.15-1.03-.02-1.2-.43l.43-.1c.12.18.36.27.69.18.34-.09.54-.32.48-.55-.05-.18-.21-.26-.54-.25h-.42c-.51.02-.78-.13-.88-.5-.11-.42.2-.84.75-.99.53-.14.97.03 1.14.43l-.4.1c-.11-.18-.35-.27-.65-.19-.3.09-.48.3-.42.52.04.18.2.26.52.25l.42-.01c.5-.01.8.13.89.5.12.45-.24.88-.81 1.04Zm2.48-.67c-.57.15-1.03-.01-1.2-.42l.43-.11c.12.19.36.27.69.19.34-.1.54-.32.48-.55-.05-.18-.21-.27-.55-.26l-.41.01c-.51.02-.78-.13-.88-.5-.11-.42.2-.85.75-1 .53-.14.97.03 1.14.43l-.4.11c-.11-.19-.35-.27-.65-.19-.3.08-.48.3-.42.52.04.18.2.25.52.24h.41c.52-.02.8.13.9.49.12.46-.24.89-.81 1.04Zm1.04-3.58a.3.3 0 1 1-.15-.56.3.3 0 0 1 .15.56Zm.6 3.1-.67-2.55.4-.1.69 2.53-.41.11Zm2.48.3c-.61.15-1.08-.02-1.25-.42l.42-.11c.1.18.37.26.73.16.46-.12.67-.41.57-.79l-.14-.51-.04.01a.91.91 0 0 1-.67.65c-.66.18-1.2-.22-1.4-.93-.19-.72.08-1.35.75-1.53a.9.9 0 0 1 .91.26l.03-.01-.11-.42.41-.11.67 2.5c.15.57-.19 1.05-.88 1.24Zm-.4-1.4c.48-.12.67-.55.53-1.06-.13-.5-.52-.79-.99-.66-.47.12-.63.55-.5 1.06.14.5.5.8.97.66Zm2.06-.01-.69-2.54.42-.11.1.38.03-.01c.06-.3.26-.53.63-.63.57-.15.98.1 1.14.7l.44 1.65-.4.11-.42-1.55c-.13-.45-.37-.62-.78-.51-.4.1-.59.45-.47.9l.4 1.5-.4.1Zm3.87-1c-.73.2-1.3-.19-1.52-.99-.21-.78.1-1.44.78-1.63.7-.18 1.25.22 1.46.98l.04.16-1.83.49c.15.52.52.75.98.63.34-.1.5-.31.54-.48v-.03l.41-.1v.01c0 .37-.27.8-.87.97Zm-.64-2.25c-.38.1-.6.43-.51.93l1.4-.38c-.17-.49-.52-.65-.9-.55Zm3.3 1.55c-.65.17-1.21-.24-1.42-1.03-.22-.8.06-1.43.7-1.6.36-.1.7 0 .92.23l.04-.01-.38-1.41.41-.11.95 3.55-.4.1-.12-.4-.03.01a.9.9 0 0 1-.68.67Zm0-.4c.45-.12.64-.56.48-1.14-.16-.6-.54-.88-1-.76-.46.13-.64.56-.48 1.15.15.6.53.88 1 .76Zm-17.93 8.11a.3.3 0 0 1-.36-.2.3.3 0 0 1 .21-.36.3.3 0 0 1 .36.2.3.3 0 0 1-.2.36Zm.6 3.09-.67-2.54.4-.11.69 2.54-.41.1Zm2.08-.5c-.57.14-1.03-.02-1.2-.43l.43-.11c.12.19.36.27.69.19.34-.1.54-.32.48-.55-.05-.18-.21-.27-.55-.26l-.41.01c-.51.02-.78-.13-.88-.5-.11-.42.2-.85.75-1 .53-.14.97.03 1.14.43l-.4.1c-.11-.18-.35-.26-.65-.18-.3.08-.49.3-.43.52.05.18.2.25.53.24h.41c.51-.02.8.13.9.49.12.46-.24.89-.81 1.04Zm2.48-.67c-.57.15-1.03-.02-1.2-.43l.43-.1c.12.18.36.27.69.18.34-.09.54-.32.48-.55-.05-.17-.21-.26-.55-.25l-.41.01c-.51.01-.78-.14-.88-.5-.11-.43.2-.85.75-1 .53-.14.97.03 1.14.43l-.4.1c-.11-.18-.35-.27-.65-.18-.3.08-.49.3-.43.51v.01c.05.17.2.25.53.24l.42-.01c.5-.01.8.13.89.5.12.45-.24.88-.81 1.04Zm2.5-.67c-.57.15-.96-.1-1.12-.71l-.44-1.65.4-.1.42 1.54c.12.46.35.63.75.53.45-.12.61-.46.5-.9l-.4-1.51.4-.11.68 2.54-.4.11-.1-.38-.05.01c-.05.3-.27.53-.64.63Zm3-.8c-.72.19-1.3-.2-1.5-1-.22-.79.09-1.45.78-1.63.69-.19 1.25.21 1.45.97l.04.16-1.83.5c.16.52.53.74.98.62.34-.09.51-.3.54-.48v-.02l.41-.11v.02c.01.36-.26.8-.86.96Zm-.63-2.27c-.37.1-.6.44-.5.93l1.4-.37c-.18-.5-.52-.66-.9-.56Zm3.23 1.57c-.56.15-1.03-.02-1.19-.43l.42-.11c.13.2.37.28.7.2.34-.1.54-.33.47-.56-.04-.18-.2-.26-.54-.25h-.42c-.5.02-.77-.13-.87-.5-.12-.42.2-.84.74-.99.54-.14.98.02 1.15.42l-.4.11c-.12-.18-.35-.27-.66-.19-.3.08-.48.3-.42.52.05.18.2.25.52.25l.42-.01c.51-.02.8.13.9.5.12.45-.24.88-.82 1.04Z"/>
      <path stroke="#E6E8F2" stroke-width=".45" d="m352.98 20.69-.77 12.9"/>
      <path fill="#27282E" d="M-35.4 159.42c-1.07.29-1.9-.19-2.14-1.13l-.77-2.84.54-.15.76 2.8c.17.67.73 1.02 1.48.82.75-.2 1.05-.78.87-1.44l-.75-2.81.54-.14.76 2.84c.26.94-.21 1.76-1.29 2.05Zm3.85-1.08c-.72.2-1.3-.03-1.51-.54l.53-.15c.16.25.47.36.88.25.44-.12.7-.4.61-.7-.06-.23-.26-.34-.69-.33l-.53.02c-.65.02-1-.17-1.12-.64-.14-.54.27-1.08.95-1.27.68-.18 1.24.03 1.46.54l-.52.14c-.13-.24-.43-.34-.82-.24-.39.1-.62.38-.54.66.06.23.26.32.67.31l.53-.01c.65-.02 1.01.17 1.13.63.16.58-.3 1.13-1.03 1.33Zm3.43-.92c-.93.25-1.66-.25-1.93-1.27-.27-1 .12-1.84 1-2.07.88-.24 1.59.27 1.84 1.24l.06.2-2.33.63c.2.66.67.95 1.24.8.44-.12.66-.4.7-.61v-.03l.52-.14v.02c0 .47-.34 1.03-1.1 1.23Zm-.81-2.88c-.48.13-.76.56-.65 1.19l1.79-.48c-.23-.62-.66-.83-1.14-.7Zm2.98 2.24-.86-3.24.52-.14.13.48.04-.01c.04-.37.29-.65.73-.77.1-.03.2-.04.26-.05l.14.5a2 2 0 0 0-.33.06c-.5.14-.77.55-.64 1.02l.54 2-.53.15Zm4.14-1.11-1.16-4.33 1.63-.44c.81-.22 1.54.19 1.76 1.01a1.4 1.4 0 0 1-1.01 1.78l-1.1.29.42 1.54-.54.15Zm.46-4.25-.95.25.49 1.83.95-.26c.62-.16.88-.6.73-1.17-.15-.57-.6-.82-1.22-.65Zm3.38 3.22-.87-3.24.52-.14.13.48h.05c.03-.38.28-.66.72-.78l.27-.05.13.51a2 2 0 0 0-.33.06c-.5.13-.76.54-.64 1.01l.54 2-.52.15Zm3.6-.9c-.93.24-1.67-.24-1.95-1.28-.27-1.04.13-1.83 1.05-2.07.92-.25 1.66.23 1.94 1.27s-.12 1.83-1.05 2.08Zm-.13-.47c.61-.16.84-.7.63-1.46-.2-.77-.67-1.13-1.28-.96-.61.16-.84.7-.63 1.47.2.76.67 1.12 1.28.95Zm2.63-.27-.75-2.8-.54.15-.12-.44.54-.14-.1-.36c-.17-.65.07-1.04.69-1.2.12-.04.24-.06.35-.07l.11.42a.86.86 0 0 0-.24.05c-.37.1-.48.32-.38.67l.1.35.73-.2.11.44-.73.2.75 2.8-.52.13Zm1.25-4.47a.37.37 0 1 1-.2-.72.37.37 0 0 1 .2.72Zm.77 3.93-.87-3.23.52-.14.87 3.23-.52.14Zm1.54-.4-1.22-4.53.53-.14 1.2 4.52-.51.14Zm2.86-.71c-.93.24-1.66-.25-1.93-1.27-.27-1 .12-1.84 1-2.07.87-.24 1.58.27 1.84 1.24l.06.2-2.33.63c.2.66.67.95 1.24.8.44-.12.66-.4.69-.62v-.03l.53-.14v.03c0 .47-.34 1.02-1.1 1.23Zm-.81-2.88c-.48.13-.76.56-.65 1.19l1.78-.48c-.22-.63-.66-.84-1.13-.7Zm6.22 1.47c-.95.26-1.7-.08-1.94-.77l-.02-.03.54-.14.02.03c.15.42.67.57 1.3.4.59-.15.93-.57.82-1.01-.1-.36-.42-.54-1.05-.52l-.5.03c-.92.04-1.4-.26-1.57-.89-.2-.72.3-1.4 1.2-1.63.86-.23 1.6.11 1.81.75l.02.04-.54.14-.02-.03c-.16-.37-.6-.56-1.16-.4-.54.15-.89.51-.77.97.1.34.4.52 1.02.49l.51-.02c.96-.04 1.41.22 1.58.85.22.81-.28 1.48-1.25 1.74Zm3.74-1.05c-.92.25-1.65-.25-1.92-1.26-.27-1 .11-1.84 1-2.08.87-.23 1.58.28 1.84 1.24l.06.2-2.33.63c.2.67.67.96 1.24.8.44-.11.65-.4.69-.61v-.03l.53-.14v.02c0 .47-.34 1.03-1.1 1.23Zm-.8-2.87c-.49.13-.76.55-.66 1.18l1.8-.48c-.23-.62-.67-.83-1.14-.7Zm2.98 2.23L5 145l.52-.14.13.48.05-.01c.03-.37.28-.65.72-.77.1-.03.21-.04.27-.05l.13.51a1.9 1.9 0 0 0-.33.06c-.5.13-.76.54-.64 1.01l.54 2-.52.15Zm3.28-.88-2.06-2.92.55-.14 1.6 2.42.05-.01.17-2.9.55-.15-.33 3.56-.53.14Zm1.66-4.58a.37.37 0 1 1 .26-.46c.06.2-.06.4-.26.46Zm.77 3.93-.86-3.24.52-.14.86 3.24-.52.14Zm2.85-.7c-.9.24-1.66-.26-1.94-1.29-.27-1.01.13-1.82 1.04-2.06.78-.21 1.38.11 1.63.66v.02l-.51.14h-.01c-.17-.3-.52-.49-.99-.36-.58.16-.82.72-.63 1.45.2.75.7 1.13 1.28.97.44-.11.66-.38.68-.77v-.02l.52-.14v.03c.03.62-.3 1.16-1.07 1.36Zm3.43-.93c-.92.25-1.65-.25-1.92-1.26-.27-1 .11-1.84 1-2.08.87-.23 1.58.28 1.84 1.25l.06.2-2.33.63c.2.66.66.95 1.24.8.44-.12.65-.4.69-.62v-.03l.53-.14v.03c0 .47-.34 1.02-1.1 1.22Zm-.8-2.87c-.49.13-.76.56-.66 1.19l1.8-.48c-.23-.63-.67-.84-1.15-.7Z"/>
      <rect width="161.48" height="6.36" x="-35.03" y="169.84" fill="#F0F1F7" rx="3.18" transform="rotate(-15 -35.03 169.84)"/>
      <rect width="65.74" height="5.45" x="-34.92" y="170.28" fill="#E5E5FF" rx="2.73" transform="rotate(-15 -34.92 170.28)"/>
      <rect width="26.36" height="5.45" x="30.34" y="152.8" fill="#7D76EE" rx="2.73" transform="rotate(-15 30.34 152.8)"/>
      <rect width="65.74" height="5.45" x="57.56" y="145.5" fill="#6063F6" rx="2.73" transform="rotate(-15 57.56 145.5)"/>
      <path fill="#27282E" d="m40.23 176.21-1.9-7.13-.1.02-1.76 2.1-.39-1.45 1.84-2.2 1.54-.41 2.32 8.66-1.55.41Z"/>
      <path fill="#828599" d="m46.36 168.36-.9-3.4 1.28-.35c.63-.17 1.2.15 1.38.8a1.1 1.1 0 0 1-.8 1.4l-.86.22.33 1.22-.43.1Zm.37-3.34-.75.2.38 1.43.75-.2c.49-.13.7-.47.58-.92-.12-.45-.48-.64-.96-.51Zm3.63 2.32c-.73.2-1.3-.2-1.51-1-.22-.79.09-1.44.78-1.63.7-.18 1.25.22 1.45.98l.04.16-1.83.49c.16.52.53.75.98.63.35-.1.52-.31.54-.48v-.03l.42-.1v.01c0 .37-.27.8-.87.97Zm-.63-2.26c-.38.1-.6.43-.52.93l1.4-.38c-.17-.49-.51-.65-.88-.55Zm2.34 1.75-.68-2.54.4-.11.11.38.04-.01c.05-.3.25-.52.63-.63.57-.15.97.1 1.14.7l.44 1.65-.41.11-.42-1.54c-.12-.46-.37-.63-.77-.52-.4.1-.6.45-.47.9l.4 1.5-.41.11Zm3.77-.96c-.64.17-1.2-.24-1.42-1.03-.21-.8.07-1.43.72-1.6.34-.1.7 0 .9.23l.04-.01-.37-1.41.4-.11.96 3.55-.41.11-.11-.4h-.04a.9.9 0 0 1-.67.67Zm0-.4c.46-.11.64-.55.49-1.14-.16-.6-.54-.88-1-.76-.47.13-.65.56-.49 1.15.16.6.53.88 1 .76Zm1.42-3.28a.3.3 0 1 1-.15-.57.3.3 0 0 1 .15.57Zm.6 3.09-.68-2.54.41-.11.69 2.54-.41.1Zm1.19-.32-.68-2.54.4-.11.11.38.04-.01c.05-.3.25-.52.62-.63.57-.15.98.1 1.15.7l.44 1.65-.41.11-.42-1.54c-.12-.46-.37-.63-.77-.52-.41.1-.6.45-.47.9l.4 1.5-.41.11Zm4.1-.14c-.6.16-1.07 0-1.25-.4v-.01l.43-.11c.1.18.36.25.73.16.45-.13.67-.41.57-.79l-.14-.51h-.04a.91.91 0 0 1-.68.66c-.66.18-1.2-.22-1.4-.94-.18-.71.09-1.34.75-1.52a.9.9 0 0 1 .92.26l.03-.01-.11-.42.4-.11.68 2.5c.15.57-.2 1.05-.88 1.24Zm-.39-1.39c.48-.12.66-.55.53-1.06-.14-.5-.52-.79-.99-.66-.47.12-.64.55-.5 1.06.13.5.5.79.96.66Zm-15.49 7.65a.3.3 0 1 1-.15-.57.3.3 0 0 1 .15.57Zm.6 3.09-.68-2.55.41-.1.68 2.54-.4.1Zm2.07-.51c-.56.15-1.03-.02-1.19-.42l.42-.12c.13.2.37.28.7.2.34-.1.54-.32.47-.56-.04-.17-.2-.26-.54-.25l-.42.01c-.5.02-.77-.13-.87-.5-.12-.42.2-.85.74-1 .54-.14.98.03 1.15.43l-.4.1c-.11-.18-.35-.27-.66-.18-.3.08-.48.3-.42.52.05.17.2.25.52.24l.42-.01c.51-.01.8.13.9.5.12.45-.24.88-.82 1.04Zm2.48-.66c-.56.15-1.03-.02-1.18-.43l.41-.11c.13.2.37.28.7.19.34-.1.54-.32.47-.55-.04-.18-.2-.26-.54-.25h-.42c-.5.02-.77-.13-.87-.5-.12-.42.2-.85.74-1 .54-.13.98.03 1.15.43l-.4.11c-.11-.18-.35-.27-.66-.19-.3.08-.48.3-.42.52.05.18.2.25.52.25l.42-.01c.51-.02.8.13.9.5.12.45-.24.88-.82 1.03Zm2.5-.68c-.57.16-.96-.1-1.12-.7l-.44-1.65.41-.1.42 1.54c.12.46.34.63.75.52.45-.12.61-.46.5-.9l-.41-1.5.4-.12.69 2.55-.41.1-.1-.37h-.04c-.05.31-.27.53-.64.63Zm3.02-.8c-.73.2-1.3-.2-1.52-1-.21-.78.1-1.44.78-1.63.7-.18 1.25.22 1.46.98l.04.16-1.83.49c.15.52.52.75.98.63.34-.1.51-.31.54-.48v-.03l.41-.1v.01c0 .37-.27.8-.86.97Zm-.64-2.26c-.38.1-.6.44-.51.93l1.4-.38c-.17-.49-.52-.65-.89-.55Zm3.23 1.56c-.57.16-1.03-.01-1.19-.42l.42-.11c.13.19.37.28.7.19.33-.1.53-.32.47-.55-.05-.18-.2-.27-.54-.26l-.42.01c-.5.02-.78-.13-.88-.5-.11-.42.21-.85.75-1 .53-.14.97.03 1.14.43l-.4.11c-.1-.19-.34-.27-.65-.19-.3.08-.48.3-.42.52.05.18.2.25.52.24h.42c.5-.02.8.13.9.49.11.46-.24.89-.82 1.04Z"/>
      <path stroke="#E6E8F2" stroke-width=".45" d="m80.17 154.5-.78 12.91"/>
      <path fill="#27282E" d="m98.12 160.7-1.92-7.13-.1.03-1.74 2.1-.4-1.46 1.84-2.2 1.54-.41 2.33 8.66-1.55.41Zm7.19-1.7c-2.06.56-3.77-.85-4.52-3.65v-.01c-.75-2.8.02-4.87 2.08-5.42 2.06-.55 3.77.85 4.52 3.65v.01c.75 2.8-.03 4.88-2.08 5.43Zm-.34-1.25c1.1-.3 1.41-1.7.86-3.75v-.01c-.55-2.06-1.52-3.1-2.62-2.81-1.1.3-1.41 1.69-.86 3.74v.01c.55 2.05 1.51 3.12 2.62 2.82Z"/>
      <path fill="#828599" d="m111.97 150.78-.9-3.4 2.06-.56.1.39-1.64.44.31 1.16 1.5-.4.11.38-1.5.4.39 1.47-.43.12Zm2.12-3.82a.3.3 0 0 1-.15-.56.3.3 0 0 1 .36.2.3.3 0 0 1-.21.36Zm.6 3.09-.68-2.54.41-.11.69 2.54-.42.11Zm.98-.26.53-1.5-1.22-1.04.49-.13.86.78h.03l.35-1.11.46-.13-.53 1.49 1.22 1.05-.48.13-.86-.8-.04.01-.34 1.12-.47.13Zm3.67-.94c-.72.2-1.3-.2-1.51-1-.21-.78.09-1.44.78-1.62.7-.19 1.25.22 1.45.97l.05.16-1.83.5c.15.52.52.75.97.63.35-.1.52-.32.54-.49v-.02l.42-.11v.02c0 .37-.27.8-.87.96Zm-.63-2.26c-.38.1-.6.44-.52.94l1.41-.38c-.18-.5-.52-.66-.9-.56Zm3.3 1.55c-.65.17-1.21-.24-1.43-1.03-.21-.8.07-1.43.72-1.6.34-.1.7 0 .9.23h.05l-.38-1.42.4-.1.96 3.54-.41.11-.1-.4h-.05a.9.9 0 0 1-.67.67Zm-.01-.39c.46-.12.65-.56.49-1.15-.16-.59-.54-.88-1-.75-.47.12-.65.55-.49 1.15.16.6.53.88 1 .75Zm-9.12 5.75a.3.3 0 1 1-.15-.57.3.3 0 0 1 .15.57Zm.6 3.09-.68-2.55.41-.1.68 2.54-.4.1Zm2.07-.51c-.56.15-1.03-.02-1.19-.43l.42-.1c.13.19.37.27.7.18.34-.09.54-.31.47-.55-.04-.17-.2-.26-.54-.25l-.42.01c-.5.02-.77-.13-.87-.5-.12-.42.2-.85.74-1 .54-.14.98.03 1.15.43l-.4.1c-.11-.18-.35-.27-.66-.18-.3.08-.48.3-.42.52.05.17.2.25.52.24l.42-.01c.51-.01.8.13.9.5.12.45-.24.89-.82 1.04Zm2.48-.67c-.56.16-1.03-.01-1.19-.42l.42-.11c.13.2.37.28.7.19.34-.1.54-.32.47-.55-.04-.18-.2-.26-.54-.26l-.42.02c-.5.01-.78-.14-.87-.5-.12-.43.2-.86.74-1s.98.02 1.15.42l-.4.11c-.12-.18-.35-.27-.66-.19-.3.08-.48.3-.42.52.05.18.2.25.52.25l.42-.01c.51-.02.8.13.9.5.12.45-.24.88-.82 1.03Zm2.5-.67c-.57.16-.96-.1-1.12-.7l-.44-1.65.41-.1.42 1.54c.12.46.34.63.75.52.45-.12.61-.45.5-.9l-.41-1.5.4-.11.69 2.54-.41.1-.1-.37h-.04c-.05.31-.27.53-.64.63Zm3.02-.8c-.73.2-1.3-.2-1.52-1-.21-.78.1-1.44.78-1.63.7-.18 1.25.22 1.46.98l.04.16-1.83.49c.15.52.52.75.98.63.34-.1.5-.31.54-.48v-.03l.41-.1v.01c0 .37-.27.8-.86.97Zm-.64-2.26c-.38.1-.6.44-.51.93l1.4-.38c-.17-.49-.52-.65-.89-.55Zm3.23 1.56c-.57.16-1.03-.02-1.19-.42l.42-.11c.13.19.37.28.7.19.33-.1.53-.32.47-.55-.05-.18-.2-.26-.54-.26l-.42.01c-.5.02-.78-.13-.88-.5-.11-.42.21-.85.75-1 .53-.13.97.03 1.14.43l-.4.11c-.1-.19-.34-.27-.65-.19-.3.08-.48.3-.42.52.05.18.2.25.52.24h.42c.5-.02.8.13.89.49.12.46-.23.89-.81 1.04Z"/>
      <g clip-path="url(#f)">
        <path stroke="#C3C6D9" stroke-width=".45" d="m125.52 109.98 10.47 39.09"/>
      </g>
      <path fill="#27282E" d="m136.4 113.28-1.16-4.34 1.65-.44c.84-.22 1.52.14 1.73.92.16.6-.04 1.16-.54 1.48l1.49 1.53-.64.17-1.38-1.47-1.07.29.46 1.71-.54.15Zm-.05-2.34 1.07-.29c.55-.15.79-.53.65-1.06-.14-.52-.56-.74-1.12-.59l-1.04.28.44 1.66Zm5.24 1c-.92.25-1.65-.25-1.92-1.26-.27-1 .12-1.84 1-2.08.87-.23 1.58.28 1.84 1.25l.06.2-2.33.62c.2.67.67.96 1.24.8.44-.11.65-.4.69-.61v-.03l.53-.14v.03c0 .46-.34 1.02-1.1 1.22Zm-.8-2.87c-.48.13-.76.55-.66 1.18l1.8-.47c-.23-.63-.67-.84-1.14-.71Zm3.27 3.31-1.16-4.31.53-.14.13.51.05-.01c.1-.42.4-.72.86-.85.81-.21 1.53.3 1.8 1.31.27 1.02-.08 1.82-.9 2.04-.45.12-.9 0-1.17-.3l-.04.02.42 1.59-.52.14Zm1.06-1.88c.6-.15.82-.7.62-1.46-.2-.76-.68-1.12-1.27-.96-.59.16-.82.72-.62 1.46.2.76.68 1.12 1.27.96Zm3.75-.5c-.93.24-1.67-.24-1.94-1.28-.28-1.04.12-1.83 1.04-2.07.92-.25 1.66.23 1.94 1.27s-.12 1.83-1.04 2.08Zm-.13-.47c.61-.16.84-.7.63-1.46-.2-.77-.67-1.13-1.28-.96-.61.16-.84.7-.63 1.47.2.76.67 1.12 1.28.95Zm2.41-.2-.87-3.24.53-.14.13.48.04-.02c.04-.37.29-.65.72-.76.1-.03.22-.05.27-.05l.14.5-.33.06c-.5.13-.77.54-.64 1.02l.53 2-.52.14Zm3.56-.94c-.67.18-1.01.01-1.18-.6l-.53-1.97-.5.14-.12-.43.5-.14-.22-.84.55-.14.22.83.7-.18.12.43-.7.19.49 1.83c.1.38.27.5.6.4l.24-.07.12.44c-.1.05-.19.09-.3.11Zm.32-4.24a.37.37 0 0 1-.46-.27c-.05-.2.07-.4.26-.45a.37.37 0 0 1 .2.72Zm.77 3.93-.87-3.24.52-.14.87 3.24-.52.14Zm1.5-.4-.86-3.24.52-.14.13.48h.05c.07-.4.32-.68.8-.8.72-.2 1.24.12 1.45.9l.56 2.09-.52.14-.53-1.97c-.16-.59-.47-.8-.99-.66s-.75.57-.6 1.14l.51 1.91-.52.14Zm5.23-.19c-.78.21-1.37 0-1.6-.51l.55-.15c.13.23.46.33.93.2.58-.15.85-.52.72-1l-.18-.65-.04.01c-.11.42-.42.72-.87.83-.84.23-1.53-.28-1.77-1.19-.25-.9.1-1.7.95-1.93.45-.13.87 0 1.16.32l.04-.01-.14-.54.52-.14.85 3.2c.2.72-.24 1.33-1.12 1.56Zm-.5-1.76c.6-.16.84-.7.67-1.35-.17-.65-.66-1-1.26-.85-.6.16-.81.71-.64 1.35v.01c.17.64.63 1 1.23.84Zm5.85-.78c-.95.25-1.7-.08-1.95-.77v-.03l.53-.15.01.04c.16.42.68.57 1.3.4.6-.15.94-.57.82-1.01-.1-.37-.41-.55-1.04-.52l-.5.03c-.93.03-1.4-.26-1.58-.9-.19-.71.3-1.39 1.2-1.63.86-.23 1.6.12 1.82.75l.01.05-.53.14-.02-.04c-.16-.36-.6-.55-1.16-.4-.54.15-.89.52-.77.97.1.35.4.52 1.02.5l.5-.03c.96-.04 1.42.23 1.59.85.21.82-.29 1.49-1.25 1.75Zm3.74-1.05c-.92.25-1.66-.25-1.93-1.27-.27-1 .12-1.84 1-2.07.88-.24 1.59.27 1.85 1.24l.05.2-2.33.63c.2.66.67.95 1.25.8.44-.12.65-.4.69-.62v-.03l.52-.14v.03c0 .47-.34 1.02-1.1 1.23Zm-.8-2.88c-.49.13-.77.56-.66 1.19l1.79-.48c-.23-.63-.66-.83-1.14-.7Zm2.97 2.23-.86-3.23.52-.14.13.48.05-.01c.03-.38.28-.65.72-.77.1-.03.21-.05.26-.05l.14.5a2 2 0 0 0-.33.06c-.5.14-.77.55-.64 1.02l.54 2-.53.14Zm3.3-.88-2.07-2.91.55-.15 1.6 2.43.05-.01.17-2.9.55-.15-.33 3.55-.53.14Zm1.65-4.58a.37.37 0 0 1-.46-.26c-.05-.2.07-.4.27-.46.2-.05.4.07.45.27.06.2-.06.4-.26.45Zm.77 3.93-.87-3.23.52-.14.87 3.23-.52.14Zm2.84-.7c-.9.25-1.66-.26-1.93-1.28-.27-1.01.13-1.82 1.03-2.07.79-.2 1.38.12 1.63.67l.01.02-.52.14v-.01c-.17-.3-.53-.48-1-.35-.57.15-.81.72-.62 1.45.2.75.7 1.13 1.28.97.43-.12.66-.38.68-.77v-.02l.52-.14v.03c.02.62-.3 1.15-1.08 1.36Zm3.44-.92c-.92.25-1.66-.25-1.93-1.26-.27-1 .12-1.84 1-2.08.88-.23 1.59.28 1.85 1.24l.05.2-2.33.63c.2.67.67.96 1.25.8.44-.11.65-.4.69-.61v-.03l.52-.14v.02c0 .47-.34 1.03-1.1 1.23Zm-.8-2.87c-.49.13-.77.55-.66 1.18l1.79-.48c-.23-.62-.66-.83-1.14-.7Z"/>
      <rect width="161.48" height="6.36" x="138.51" y="123.34" fill="#F0F1F7" rx="3.18" transform="rotate(-15 138.5 123.34)"/>
      <rect width="65.74" height="5.45" x="138.62" y="123.78" fill="#E5E5FF" rx="2.73" transform="rotate(-15 138.62 123.78)"/>
      <rect width="26.36" height="5.45" x="203.88" y="106.3" fill="#7D76EE" rx="2.73" transform="rotate(-15 203.88 106.3)"/>
      <rect width="65.74" height="5.45" x="231.1" y="99" fill="#6063F6" rx="2.73" transform="rotate(-15 231.1 99)"/>
      <path fill="#27282E" d="M149.23 147.24c-1.77.47-3.25-.29-3.75-1.68l-.02-.07 1.42-.39.02.04c.3.68 1.11 1.07 2 .83 1.01-.27 1.52-1.17 1.24-2.2a1.7 1.7 0 0 0-2.16-1.27 1.84 1.84 0 0 0-1.38 1.37l-1.32.35-.94-5.18 5.2-1.4.34 1.28-4 1.07.47 2.7.1-.03c.2-.68.79-1.2 1.6-1.43 1.62-.43 3.1.46 3.55 2.11v.01c.49 1.8-.5 3.39-2.37 3.89Z"/>
      <path fill="#828599" d="m155.96 139 .34-3.74.42-.12 2.16 3.07-.44.12-.6-.88-1.36.36-.08 1.06-.44.12Zm.68-3.25-.13 1.66 1.1-.3-.94-1.37-.03.01Zm3.63 2.14c-.57.15-1.03-.02-1.2-.43l.43-.11c.12.2.36.28.69.2.34-.1.54-.33.48-.56-.05-.18-.21-.26-.55-.25h-.41c-.51.02-.78-.13-.88-.5-.11-.42.2-.84.75-.99.53-.14.97.03 1.14.43l-.4.1c-.11-.18-.35-.27-.65-.19-.3.09-.49.3-.42.52.04.18.2.25.52.25l.41-.01c.51-.01.8.13.9.5.12.45-.24.88-.81 1.04Zm2.48-.67c-.57.15-1.03-.01-1.2-.42l.43-.12c.12.2.36.28.69.2.34-.1.54-.32.48-.55-.05-.18-.21-.27-.55-.26l-.41.01c-.51.02-.78-.13-.88-.5-.11-.42.2-.85.75-1 .53-.14.97.03 1.14.43l-.4.1c-.11-.18-.35-.26-.65-.18-.3.08-.49.3-.43.52.05.18.2.25.53.24h.41c.51-.02.8.13.9.49.12.46-.24.89-.81 1.04Zm1.04-3.58a.3.3 0 1 1-.15-.56.3.3 0 0 1 .15.56Zm.6 3.1-.67-2.55.4-.11.69 2.54-.41.11Zm2.48.29c-.61.16-1.08 0-1.25-.4v-.01l.42-.11c.1.18.37.25.73.16.46-.13.67-.41.57-.79l-.14-.51h-.04a.91.91 0 0 1-.67.66c-.66.18-1.2-.22-1.4-.94-.19-.71.08-1.34.75-1.52a.9.9 0 0 1 .91.26l.03-.01-.11-.42.41-.11.67 2.5c.15.57-.19 1.05-.88 1.24Zm-.4-1.39c.48-.12.67-.55.53-1.06-.13-.5-.52-.79-.99-.66-.47.12-.63.55-.5 1.06.14.5.5.79.97.66Zm2.05-.01-.68-2.55.41-.1.1.38.04-.01c.06-.3.26-.53.63-.63.57-.15.98.1 1.14.7l.44 1.65-.4.1-.42-1.54c-.13-.45-.37-.62-.78-.51-.4.1-.59.45-.47.9l.4 1.5-.4.1Zm3.87-1c-.72.2-1.3-.19-1.51-.99-.21-.78.1-1.44.78-1.63.7-.18 1.25.22 1.45.98l.05.16-1.83.49c.15.52.52.75.97.63.35-.1.52-.31.54-.48v-.03l.42-.1v.01c0 .37-.27.8-.87.97Zm-.63-2.25c-.38.1-.6.43-.51.93l1.4-.38c-.18-.49-.52-.65-.9-.55Zm3.3 1.55c-.65.17-1.21-.24-1.42-1.03-.22-.8.06-1.43.7-1.6.36-.1.7 0 .92.23l.04-.01-.38-1.41.41-.11.95 3.55-.4.1-.12-.4-.03.01a.9.9 0 0 1-.68.67Zm-.01-.4c.46-.12.65-.56.5-1.14h-.01c-.16-.6-.54-.88-1-.76-.47.13-.64.56-.49 1.15.16.6.54.88 1 .76Zm-17.92 8.11a.3.3 0 0 1-.36-.2.3.3 0 1 1 .36.2Zm.6 3.09-.67-2.54.4-.11.69 2.54-.41.1Zm2.08-.5c-.57.14-1.03-.02-1.2-.43l.43-.12c.12.2.36.28.69.2.34-.1.54-.32.48-.55-.05-.18-.21-.27-.55-.26l-.41.01c-.51.02-.78-.13-.88-.5-.11-.42.2-.85.75-1 .53-.14.97.03 1.14.43l-.4.1c-.11-.18-.35-.26-.65-.18-.3.08-.49.3-.43.52.05.18.2.25.53.24h.41c.51-.02.8.13.9.49.12.46-.24.89-.81 1.04Zm2.47-.67c-.56.15-1.02-.02-1.18-.43l.42-.11c.12.2.36.28.69.2.34-.1.54-.33.48-.56-.05-.17-.21-.26-.55-.25h-.41c-.51.02-.78-.13-.88-.5-.11-.42.2-.84.75-.99.53-.14.97.03 1.14.43l-.4.1c-.11-.18-.35-.27-.65-.19-.3.09-.49.3-.43.52.05.18.2.25.53.25l.41-.01c.51-.02.8.13.9.5.12.45-.24.88-.81 1.04Zm2.51-.67c-.58.15-.96-.1-1.13-.71l-.44-1.65.41-.1.42 1.54c.12.46.34.63.75.53.45-.13.61-.46.5-.9l-.4-1.51.4-.11.68 2.54-.4.1-.11-.37h-.04c-.05.31-.27.54-.64.64Zm3-.8c-.72.19-1.3-.2-1.5-1-.22-.8.09-1.45.78-1.63.69-.19 1.25.21 1.45.97l.04.16-1.83.5c.15.51.53.74.98.62.34-.09.51-.3.54-.48v-.02l.41-.11v.02c0 .36-.26.8-.86.96Zm-.63-2.27c-.38.1-.6.44-.5.93l1.4-.37c-.18-.5-.52-.66-.9-.56Zm3.23 1.57c-.56.15-1.03-.02-1.19-.43l.42-.11c.13.2.37.28.7.19.34-.1.53-.32.47-.55-.04-.18-.2-.26-.54-.25h-.42c-.5.02-.78-.13-.87-.5-.12-.42.2-.84.74-.99.54-.14.98.02 1.15.42l-.4.11c-.12-.18-.35-.27-.66-.19-.3.08-.48.3-.42.52.05.18.2.25.52.25l.42-.01c.5-.02.8.13.9.5.12.45-.24.88-.82 1.04Z"/>
      <path stroke="#E6E8F2" stroke-width=".45" d="m194.38 123.9-.78 12.91"/>
      <path fill="#27282E" d="m214.74 129.45-1.91-7.13-.1.03-1.75 2.1-.39-1.46 1.84-2.2 1.54-.41 2.32 8.66-1.55.41Z"/>
      <path fill="#828599" d="m220.87 121.6-.91-3.4 1.28-.35c.64-.17 1.21.15 1.38.8.18.65-.15 1.22-.8 1.4l-.85.22.32 1.22-.42.11Zm.36-3.34-.75.2.39 1.44.75-.2c.48-.14.7-.48.57-.93-.12-.45-.47-.64-.96-.51Zm3.64 2.32c-.73.2-1.3-.2-1.52-1-.2-.78.1-1.44.78-1.63.7-.18 1.25.22 1.46.98l.04.16-1.83.49c.15.52.52.75.98.63.34-.1.51-.31.54-.48v-.03l.41-.1v.01c0 .37-.26.8-.86.97Zm-.64-2.26c-.38.1-.6.43-.51.93l1.4-.38c-.17-.49-.51-.65-.89-.55Zm2.35 1.75-.69-2.54.42-.11.1.38h.03c.06-.31.26-.53.63-.63.57-.16.98.1 1.14.7l.44 1.64-.4.11-.42-1.54c-.13-.46-.37-.63-.78-.52-.4.1-.59.45-.47.9l.4 1.5-.4.11Zm3.77-.96c-.65.17-1.21-.24-1.42-1.03-.22-.8.06-1.43.71-1.6.35-.1.7 0 .91.23h.04l-.38-1.42.41-.1.95 3.54-.4.11-.11-.4h-.04a.9.9 0 0 1-.67.67Zm0-.39c.46-.12.64-.56.48-1.15-.16-.6-.54-.88-1-.75-.46.12-.64.55-.48 1.14.16.6.53.89 1 .76Zm1.42-3.29a.3.3 0 0 1-.36-.2.3.3 0 1 1 .36.2Zm.6 3.09-.68-2.54.41-.11.68 2.54-.4.1Zm1.18-.32-.68-2.54.41-.11.1.38h.04c.06-.31.26-.53.63-.63.57-.16.98.1 1.14.7l.44 1.64-.4.11-.42-1.54c-.13-.46-.37-.63-.78-.52-.4.1-.59.45-.47.9l.4 1.5-.4.11Zm4.11-.14c-.61.16-1.08 0-1.25-.4v-.01l.43-.11c.1.18.36.26.72.16.46-.12.67-.41.57-.79l-.14-.51-.03.01a.91.91 0 0 1-.68.65c-.66.18-1.2-.22-1.4-.93-.19-.72.08-1.35.75-1.52a.9.9 0 0 1 .92.25l.02-.01-.1-.42.4-.11.67 2.5c.16.58-.19 1.06-.88 1.24Zm-.39-1.39c.47-.12.66-.55.52-1.06-.13-.5-.51-.79-.98-.66-.47.12-.64.55-.5 1.06.13.5.49.8.96.66Zm-15.5 7.65a.3.3 0 1 1-.15-.57.3.3 0 0 1 .16.57Zm.61 3.09-.68-2.55.4-.1.69 2.54-.41.1Zm2.07-.5c-.57.14-1.03-.03-1.19-.43l.42-.12c.13.2.36.28.7.2.33-.1.53-.32.47-.56-.05-.17-.2-.26-.54-.25l-.42.01c-.5.02-.78-.13-.88-.5-.11-.42.21-.85.75-1 .53-.14.97.03 1.14.43l-.4.1c-.1-.18-.34-.26-.65-.18-.3.08-.48.3-.42.52.04.17.2.25.52.24h.42c.5-.02.8.12.89.49.12.45-.23.89-.81 1.04Zm2.48-.67c-.57.15-1.03-.02-1.19-.43l.42-.11c.13.2.37.28.7.2.33-.1.53-.33.47-.56-.05-.18-.2-.26-.54-.25h-.42c-.5.02-.78-.13-.88-.5-.11-.42.21-.84.75-.99.53-.14.97.03 1.14.43l-.4.1c-.1-.18-.34-.27-.65-.19-.3.08-.48.3-.42.52.05.18.2.25.52.25l.42-.01c.5-.02.8.13.9.5.11.45-.24.88-.82 1.04Zm2.5-.67c-.57.15-.96-.11-1.12-.71l-.44-1.65.4-.1.42 1.54c.12.46.35.63.75.52.45-.12.62-.45.5-.9l-.4-1.5.4-.11.69 2.54-.41.1-.1-.37h-.04c-.06.31-.27.53-.65.63Zm3.01-.81c-.72.2-1.3-.2-1.51-1-.22-.78.09-1.44.78-1.63.7-.18 1.25.22 1.45.98l.05.16-1.84.5c.16.51.53.74.98.62.35-.1.52-.31.54-.48v-.03l.42-.1v.01c0 .37-.27.8-.87.97Zm-.63-2.26c-.38.1-.6.44-.52.93l1.4-.38c-.17-.49-.51-.65-.88-.55Zm3.22 1.56c-.56.16-1.02-.01-1.18-.42l.42-.11c.12.2.36.28.69.19.34-.1.54-.32.48-.55-.05-.18-.21-.26-.55-.25h-.42c-.5.02-.77-.13-.87-.5-.11-.42.2-.85.75-1 .53-.13.97.03 1.14.43l-.4.11c-.11-.18-.35-.27-.66-.19-.3.08-.48.3-.42.52.05.18.2.25.53.24h.41c.51-.02.8.13.9.49.12.46-.24.89-.81 1.04Z"/>
      <path stroke="#E6E8F2" stroke-width=".45" d="m257.09 107.1-.77 12.9"/>
      <path fill="#27282E" d="m279.33 112.15-.44-1.67-4.24 1.14-.34-1.27c.6-2.25 1.3-4.57 2-6.67l2.18-.59 1.53 5.72 1.17-.31.34 1.28-1.16.3.44 1.67-1.48.4Zm-3.57-2.16 2.82-.75-1.21-4.52-.1.02a94.4 94.4 0 0 0-1.54 5.16l.03.1Z"/>
      <path fill="#828599" d="m285.51 104.28-.9-3.4 2.06-.56.1.39-1.64.44.31 1.16 1.5-.4.1.38-1.5.4.4 1.48-.43.1Zm2.12-3.82a.3.3 0 0 1-.36-.2.3.3 0 1 1 .36.2Zm.6 3.09-.68-2.54.41-.11.68 2.54-.4.11Zm.98-.26.53-1.5-1.22-1.04.49-.13.86.78h.03l.35-1.11.45-.13-.52 1.49 1.22 1.05-.48.13-.86-.8-.04.01-.34 1.12-.47.13Zm3.67-.94c-.73.2-1.3-.2-1.51-1-.21-.78.09-1.44.78-1.62.7-.19 1.25.21 1.45.97l.04.16-1.82.5c.15.52.52.75.97.63.35-.1.52-.32.54-.49v-.02l.42-.11v.02c0 .36-.27.8-.87.96Zm-.63-2.26c-.38.1-.6.44-.51.94l1.4-.38c-.18-.5-.52-.66-.9-.56Zm3.3 1.55c-.65.17-1.21-.24-1.43-1.03-.21-.8.07-1.43.72-1.6.35-.1.7 0 .9.23h.05l-.38-1.42.4-.1.96 3.54-.41.11-.11-.4h-.04a.9.9 0 0 1-.67.67Zm-.01-.39c.46-.12.65-.56.49-1.15-.16-.59-.54-.88-1-.75-.47.12-.65.55-.49 1.15.16.6.53.88 1 .75Zm-9.12 5.75a.3.3 0 0 1-.15-.57.3.3 0 0 1 .36.2.3.3 0 0 1-.21.37Zm.6 3.09-.68-2.55.41-.1.68 2.54-.4.1Zm2.07-.51c-.56.15-1.03-.02-1.19-.42l.42-.12c.13.2.37.28.7.2.34-.1.54-.32.47-.56-.04-.17-.2-.26-.54-.25l-.42.01c-.5.02-.77-.13-.87-.5-.12-.42.2-.85.74-1 .54-.14.98.03 1.15.43l-.4.1c-.12-.18-.35-.27-.66-.18-.3.08-.48.3-.42.52.05.17.2.25.52.24l.42-.01c.51-.01.8.13.9.5.12.45-.24.88-.82 1.04Zm2.48-.66c-.56.15-1.03-.02-1.19-.43l.42-.11c.13.2.37.28.7.19.34-.1.54-.32.47-.55-.04-.18-.2-.26-.54-.25h-.42c-.5.02-.77-.13-.87-.5-.12-.42.2-.85.74-1 .54-.13.98.03 1.15.43l-.4.11c-.12-.18-.35-.27-.66-.19-.3.08-.48.3-.42.52.05.18.2.25.52.25l.42-.02c.51 0 .8.14.9.5.12.46-.24.89-.82 1.05Zm2.5-.68c-.57.16-.96-.1-1.12-.7l-.44-1.65.41-.1.41 1.54c.13.46.35.63.76.52.45-.12.61-.45.5-.9l-.41-1.5.4-.12.69 2.55-.41.1-.1-.37h-.04c-.05.31-.27.53-.64.63Zm3.01-.8c-.72.2-1.3-.2-1.51-1-.21-.78.1-1.44.78-1.63.7-.18 1.25.22 1.45.98l.05.16-1.83.49c.15.52.52.75.98.63.34-.1.5-.31.54-.48v-.03l.41-.1v.01c0 .37-.27.8-.87.97Zm-.63-2.26c-.38.1-.6.43-.51.93l1.4-.38c-.17-.49-.52-.65-.9-.55Zm3.23 1.56c-.57.16-1.03-.02-1.19-.42l.42-.11c.13.19.36.28.7.19.33-.1.53-.32.47-.55-.05-.18-.2-.27-.54-.26l-.42.01c-.5.02-.78-.13-.88-.5-.11-.42.21-.85.75-1 .53-.13.97.03 1.14.43l-.4.11c-.1-.19-.35-.27-.65-.19-.3.08-.48.3-.42.52.04.18.2.25.52.24h.42c.5-.02.8.13.89.49.12.46-.23.89-.81 1.04Z"/>
      <g clip-path="url(#g)">
        <path stroke="#C3C6D9" stroke-width=".45" d="m299.06 63.48 10.47 39.09"/>
      </g>
      <path fill="#27282E" d="m309.94 66.77-1.16-4.33 1.49-.4c1.28-.34 2.25.26 2.62 1.62.36 1.37-.18 2.37-1.46 2.72l-1.49.4Zm.4-.63.92-.24c.97-.26 1.36-1.03 1.08-2.08-.29-1.06-1.02-1.54-1.98-1.28l-.91.25.9 3.35Zm4.9-.73c-.61.17-1.18-.08-1.34-.67-.15-.58.19-1.03.93-1.27l.9-.3-.07-.3c-.1-.4-.4-.55-.9-.42-.38.1-.6.31-.61.59l-.52.15v-.02c-.06-.53.34-1 1.03-1.19.8-.21 1.34.08 1.52.75l.6 2.21-.53.14-.13-.47h-.04c-.11.4-.4.69-.84.8Zm-.8-.82c.08.33.41.44.79.34.53-.14.82-.6.7-1.05l-.08-.3-.85.29c-.48.16-.65.4-.57.71Zm4.44-.19c-.66.18-1 .01-1.17-.6l-.53-1.97-.5.14-.12-.44.5-.13-.22-.84.54-.14.23.83.7-.19.12.44-.7.19.48 1.83c.1.38.28.5.61.4l.24-.07.12.44c-.1.05-.2.09-.3.11Zm1.99-.5c-.62.17-1.18-.07-1.34-.66-.16-.58.18-1.03.92-1.28l.91-.3-.08-.3c-.1-.4-.4-.55-.89-.42-.38.1-.6.32-.62.6l-.52.14v-.02c-.05-.53.35-1 1.04-1.19.79-.2 1.33.08 1.51.75l.6 2.22-.52.14-.13-.48-.05.01c-.11.4-.4.68-.83.8Zm-.81-.82c.09.33.42.45.8.35.52-.15.82-.6.7-1.06l-.08-.3-.86.3c-.48.15-.65.39-.56.7v.01Zm6.53-.66c-.94.26-1.69-.08-1.94-.77l-.01-.03.54-.14v.03c.16.42.69.57 1.31.4.59-.15.94-.57.82-1.01-.1-.36-.41-.54-1.04-.52l-.51.03c-.92.04-1.4-.26-1.57-.89-.19-.72.3-1.4 1.2-1.63.86-.24 1.6.11 1.82.75l.01.04-.54.14-.01-.04c-.17-.36-.6-.55-1.17-.4-.54.16-.88.52-.76.98.09.34.39.51 1.01.49l.51-.03c.96-.04 1.41.23 1.58.86.22.8-.28 1.48-1.25 1.74Zm2.99.3c-.07.03-.16.04-.23.05l-.12-.43c.07 0 .15-.02.22-.04.3-.08.44-.26.46-.67v-.2l-2.06-2.92.56-.15 1.6 2.42.05-.01.17-2.9.55-.15-.34 3.77c-.08.8-.29 1.08-.86 1.24Zm2.76-1.95-.87-3.23.52-.14.13.48h.05c.07-.4.32-.68.8-.8.72-.2 1.24.12 1.45.89l.56 2.1-.52.13-.53-1.96c-.16-.59-.47-.8-.99-.66-.51.14-.75.57-.6 1.14l.52 1.91-.52.14Zm4.93-1.26c-.91.25-1.67-.26-1.94-1.28-.27-1.01.13-1.82 1.04-2.06.78-.21 1.37.11 1.62.66l.01.02-.52.14v-.01c-.17-.3-.53-.48-1-.35-.57.15-.81.72-.62 1.45.2.75.7 1.13 1.28.97.43-.11.66-.38.68-.77v-.02l.52-.14v.03c.03.62-.3 1.16-1.07 1.36Zm2.13-.63-1.22-4.52.53-.14.47 1.77.05-.01c.07-.38.32-.67.8-.8.72-.19 1.24.13 1.45.9l.56 2.1-.52.13-.53-1.97c-.16-.58-.47-.8-.99-.65-.51.13-.75.57-.6 1.14l.52 1.91-.53.14Zm3.58-.96-.86-3.23.52-.14.13.48.05-.02c.03-.37.28-.65.72-.77l.26-.04.14.5-.33.06c-.5.13-.77.54-.64 1.02l.54 2-.53.14Zm3.6-.9c-.92.24-1.66-.24-1.94-1.27v-.01c-.28-1.04.12-1.82 1.04-2.07.92-.25 1.66.23 1.94 1.27s-.12 1.83-1.04 2.08Zm-.13-.46c.62-.17.84-.7.64-1.47-.2-.77-.67-1.12-1.28-.96-.62.17-.84.7-.64 1.47.2.77.67 1.12 1.28.96Zm2.42-.22-.87-3.23.52-.14.13.49.05-.02c.07-.38.32-.66.8-.8.72-.19 1.24.13 1.45.9l.56 2.1-.52.14-.53-1.97c-.16-.58-.47-.8-.99-.66-.51.14-.75.57-.6 1.14l.52 1.91-.52.14Zm2.83-4.89a.37.37 0 0 1-.46-.26c-.05-.2.07-.4.26-.46a.37.37 0 0 1 .2.72Zm.77 3.93-.87-3.24.52-.14.87 3.24-.52.14Zm1.43-.38-.1-.38 1.23-2.88-.02-.05-1.86.5-.12-.43 2.48-.66.1.38-1.22 2.87.02.05 1.86-.5.12.43-2.5.67Zm4.29-1.1c-.62.17-1.18-.08-1.34-.66v-.01c-.15-.58.18-1.02.92-1.27l.92-.3-.08-.3c-.11-.4-.41-.55-.9-.42-.38.1-.6.32-.61.6l-.53.14v-.02c-.05-.53.35-1 1.04-1.19.79-.2 1.34.08 1.52.75l.6 2.22-.53.14-.13-.48-.05.01c-.1.4-.4.68-.83.8Zm-.8-.82c.08.33.41.45.79.35.53-.15.82-.6.7-1.06l-.08-.3-.85.29c-.49.16-.65.4-.57.72Zm4.44-.18c-.66.17-1 0-1.17-.62l-.53-1.96-.51.14-.12-.43.51-.14-.22-.84.54-.14.22.84.71-.2.12.44-.71.19.49 1.83c.1.38.27.5.61.4.1-.02.15-.03.24-.07l.12.44-.3.12Zm.32-4.25a.37.37 0 0 1-.2-.72c.2-.05.41.06.47.26.05.2-.07.4-.27.46Zm.77 3.93-.87-3.24.53-.14.86 3.24-.52.14Zm2.85-.7c-.92.24-1.66-.24-1.94-1.28s.12-1.83 1.05-2.07c.92-.25 1.66.23 1.93 1.27.28 1.04-.12 1.83-1.04 2.08Zm-.12-.47c.61-.16.84-.7.63-1.46-.2-.77-.67-1.13-1.28-.96-.61.16-.84.7-.63 1.46v.01c.2.76.67 1.12 1.28.95Zm2.4-.2-.86-3.24.52-.14.13.48.05-.01c.07-.39.32-.67.8-.8.73-.19 1.25.13 1.45.9l.56 2.1-.52.13-.53-1.97c-.15-.58-.47-.8-.98-.65-.52.13-.75.57-.6 1.14l.51 1.91-.52.14Zm6.84-1.73c-.95.25-1.7-.08-1.95-.77v-.03l.53-.14.01.03c.16.42.68.57 1.3.4.6-.15.94-.57.82-1.01-.1-.37-.4-.54-1.04-.52l-.5.03c-.93.04-1.4-.26-1.58-.89-.19-.72.3-1.4 1.2-1.63.86-.24 1.6.11 1.82.75l.02.04-.54.14-.02-.04c-.16-.36-.6-.55-1.16-.4-.54.15-.89.52-.77.97.1.35.4.52 1.02.5l.5-.03c.96-.04 1.42.23 1.58.85.22.82-.27 1.5-1.24 1.75Zm3.74-1.05c-.92.25-1.65-.25-1.93-1.27-.27-1 .12-1.83 1-2.07.88-.24 1.59.28 1.85 1.24l.05.2-2.33.63c.2.66.67.96 1.25.8.44-.12.65-.4.69-.61v-.03l.52-.14v.02c0 .47-.34 1.03-1.1 1.23Zm-.8-2.87c-.49.12-.77.55-.66 1.18l1.79-.48c-.23-.62-.66-.83-1.14-.7Zm2.98 2.23-.87-3.24.52-.14.13.48.05-.01c.03-.37.28-.65.72-.77.1-.03.21-.04.26-.05l.14.5-.33.06c-.5.14-.77.55-.64 1.02l.54 2-.52.15Zm3.28-.88-2.06-2.92.55-.15 1.6 2.43.05-.01.17-2.9.55-.15-.33 3.55-.53.15Zm1.66-4.58a.37.37 0 1 1-.2-.73.37.37 0 0 1 .2.73Zm.77 3.93-.87-3.24.53-.14.86 3.24-.52.14Zm2.84-.7c-.9.24-1.66-.27-1.93-1.3-.27-1 .13-1.81 1.03-2.05.79-.21 1.38.11 1.63.66l.01.02-.52.14v-.01c-.17-.3-.53-.48-1-.35-.57.15-.81.72-.62 1.45.2.75.7 1.13 1.28.97.43-.11.66-.38.68-.77v-.02l.52-.14v.03c.02.62-.3 1.16-1.08 1.36Zm3.44-.93c-.92.25-1.66-.25-1.93-1.26-.27-1 .12-1.84 1-2.08.88-.23 1.59.28 1.85 1.24l.05.2-2.33.63c.2.67.67.96 1.25.8.44-.11.65-.4.69-.61v-.03l.52-.14v.03c0 .46-.34 1.02-1.1 1.22Zm-.8-2.87c-.49.13-.77.55-.66 1.18l1.79-.48c-.23-.62-.66-.83-1.14-.7Z"/>
      <rect width="161.48" height="6.36" x="312.05" y="76.84" fill="#F0F1F7" rx="3.18" transform="rotate(-15 312.05 76.84)"/>
      <rect width="105.13" height="5.45" x="312.16" y="77.28" fill="#E5E5FF" rx="2.73" transform="rotate(-15 312.16 77.28)"/>
      <path fill="#27282E" d="m319.96 101.26 1.81-8.3-.02-.1-4.47 1.2-.34-1.27 6.03-1.62.34 1.3-1.73 8.36-1.62.43Z"/>
      <path fill="#828599" d="m328.53 92.75.34-3.74.42-.1 2.17 3.06-.45.12-.6-.88-1.35.36-.08 1.06-.45.12Zm.68-3.24-.13 1.66 1.1-.3-.93-1.37-.04.01Zm3.63 2.14c-.57.15-1.03-.02-1.19-.43l.42-.11c.13.2.37.28.7.19.33-.1.53-.32.47-.55-.05-.18-.2-.26-.54-.25h-.42c-.5.02-.78-.13-.88-.5-.1-.42.21-.85.75-.99.53-.14.98.02 1.14.42l-.4.11c-.1-.18-.34-.27-.65-.19-.3.08-.48.3-.42.52.05.18.2.25.52.25l.42-.01c.5-.02.8.13.9.5.11.45-.24.88-.82 1.04Zm2.48-.67c-.57.15-1.03-.02-1.19-.42l.42-.12c.13.2.37.28.7.2.33-.1.53-.32.47-.55v-.01c-.05-.17-.2-.26-.54-.25l-.42.01c-.5.02-.78-.13-.88-.5-.1-.42.21-.85.75-1 .53-.14.98.03 1.14.43l-.4.1c-.1-.18-.34-.26-.65-.18-.3.08-.48.3-.42.52.05.17.2.25.52.24h.42c.5-.02.8.12.9.49.11.45-.24.89-.82 1.04Zm1.05-3.58a.3.3 0 1 1-.15-.56.3.3 0 0 1 .15.56Zm.6 3.09-.68-2.54.41-.11.68 2.54-.4.11Zm2.47.3c-.61.16-1.07 0-1.25-.4v-.01l.43-.12c.1.19.36.26.73.17.45-.13.66-.41.56-.79l-.13-.51h-.04a.91.91 0 0 1-.68.66c-.66.18-1.2-.22-1.4-.94-.19-.71.09-1.34.75-1.52a.9.9 0 0 1 .92.26l.03-.01-.12-.42.41-.11.68 2.5c.15.57-.2 1.05-.89 1.24Zm-.39-1.39c.47-.12.66-.55.53-1.06-.14-.5-.52-.8-1-.67-.46.13-.63.56-.5 1.07.14.5.5.79.97.66Zm2.05-.02-.68-2.54.4-.1.11.38.04-.01c.05-.3.25-.53.62-.63.57-.15.98.1 1.15.7l.44 1.65-.42.1-.4-1.54c-.13-.46-.38-.62-.79-.52-.4.11-.58.46-.46.9l.4 1.5-.41.11Zm3.87-.98c-.73.2-1.3-.2-1.52-1-.2-.79.1-1.44.79-1.63.69-.18 1.25.22 1.45.98l.04.16-1.83.49c.15.52.53.75.98.63.34-.1.51-.31.54-.49v-.02l.41-.1v.01c0 .37-.26.8-.86.97Zm-.64-2.26c-.38.1-.6.43-.5.93l1.4-.38c-.18-.49-.52-.65-.9-.55Zm3.3 1.54c-.65.18-1.2-.23-1.42-1.02-.21-.8.07-1.43.71-1.6.35-.1.7 0 .91.23l.04-.01-.38-1.41.41-.11.96 3.55-.42.1-.1-.4-.04.01a.9.9 0 0 1-.67.66Zm0-.38c.46-.13.64-.57.49-1.15-.16-.6-.54-.88-1-.76-.47.12-.65.56-.5 1.15.17.6.54.88 1 .76Zm-17.92 8.1a.3.3 0 0 1-.36-.2.3.3 0 0 1 .2-.37.3.3 0 0 1 .15.57Zm.6 3.09-.68-2.54.41-.11.68 2.54-.4.1Zm2.07-.5c-.57.14-1.03-.03-1.19-.43l.42-.12c.13.2.37.28.7.2.33-.1.53-.32.47-.56-.05-.17-.2-.26-.54-.25l-.42.01c-.5.02-.78-.13-.88-.5-.11-.42.21-.85.75-1 .53-.14.98.03 1.14.43l-.4.1c-.1-.18-.34-.26-.65-.18-.3.08-.48.3-.42.52.04.17.2.25.52.24h.42c.5-.02.8.12.9.49.11.45-.24.89-.82 1.04Zm2.48-.67c-.57.15-1.03-.02-1.19-.43l.42-.11c.13.2.37.28.7.2.33-.1.53-.33.47-.56-.05-.18-.2-.26-.54-.25h-.42c-.5.02-.78-.13-.88-.5-.1-.42.21-.84.75-.99.53-.14.97.03 1.14.42l-.4.11c-.1-.18-.34-.27-.65-.19-.3.08-.48.3-.42.52.05.18.2.25.52.25l.42-.01c.5-.02.8.13.9.5.11.45-.24.88-.82 1.04Zm2.5-.68c-.57.16-.96-.1-1.12-.7l-.44-1.65.4-.1.42 1.54c.13.46.35.63.75.52.45-.12.62-.45.5-.9l-.4-1.5.4-.11.69 2.54-.41.1-.1-.37H338c-.06.31-.27.53-.64.63Zm3.01-.8c-.73.2-1.3-.2-1.51-1-.21-.78.09-1.44.78-1.62.7-.19 1.25.21 1.45.97l.05.16-1.83.5c.15.51.52.74.97.62.35-.1.52-.31.54-.48v-.03l.42-.1v.01c0 .37-.27.8-.87.97Zm-.63-2.26c-.38.1-.6.44-.51.93l1.4-.37c-.18-.5-.52-.66-.9-.56Zm3.22 1.56c-.56.16-1.02-.01-1.18-.42l.42-.11c.12.2.36.28.69.19.34-.1.54-.32.48-.55-.05-.18-.21-.26-.55-.26l-.42.02c-.5.01-.77-.14-.87-.5-.11-.43.2-.86.75-1 .53-.14.97.02 1.14.42l-.4.11c-.11-.18-.35-.27-.65-.19-.3.08-.49.3-.43.52.05.18.2.25.53.25l.41-.02c.51 0 .8.14.9.5.12.46-.24.89-.81 1.04Z"/>
      <g clip-path="url(#h)">
        <path stroke="#C3C6D9" stroke-width=".45" d="m140.7 166.63 10.47 39.09"/>
      </g>
      <path fill="#27282E" d="m151.23 170.01.44-4.75.53-.15 2.76 3.9-.57.16-.76-1.12-1.73.46-.1 1.35-.57.15Zm.87-4.12-.16 2.12 1.4-.38-1.2-1.75-.04.01Zm3.62 2.92-1.16-4.33 1.63-.43c.81-.22 1.54.19 1.76 1v.01c.22.82-.2 1.55-1.01 1.77l-1.1.3.42 1.54-.54.14Zm.46-4.25-.95.26.49 1.82.95-.25c.62-.17.89-.6.73-1.17-.15-.58-.6-.82-1.22-.66Zm3.45 3.2-1.16-4.32.54-.15 1.16 4.33-.54.15Zm5.2-1.28c-1.2.33-2.2-.35-2.58-1.74-.37-1.37.17-2.47 1.36-2.79.96-.26 1.78.1 2.17.88l.01.03-.54.14-.02-.03c-.33-.5-.84-.7-1.49-.52-.86.23-1.23 1.07-.94 2.14.3 1.1 1.02 1.63 1.9 1.4.77-.21 1.16-.85.96-1.58l-.03-.1-1.22.32-.12-.47 1.75-.47.15.53c.28 1.06-.26 1.97-1.37 2.26Zm3.6-1.01c-.62.16-1.18-.08-1.34-.67-.16-.58.18-1.03.92-1.28l.92-.3-.08-.3c-.11-.4-.41-.55-.9-.42-.38.1-.6.32-.61.6l-.53.14v-.02c-.05-.53.35-1 1.04-1.19.79-.2 1.34.08 1.52.75l.6 2.22-.53.14-.13-.48-.05.01c-.1.4-.4.68-.83.8Zm-.8-.83c.08.33.41.45.78.35.54-.15.83-.6.7-1.06l-.07-.3-.85.3c-.49.15-.66.39-.57.7v.01Zm4.44-.18c-.66.18-1.01 0-1.17-.61l-.53-1.97-.51.14-.12-.43.51-.14-.22-.83.54-.15.22.84.71-.2.12.44-.71.19.49 1.83c.1.38.28.5.61.4.1-.02.14-.03.24-.07l.12.45c-.1.04-.2.08-.3.1Zm2.37-.6c-.93.25-1.66-.25-1.93-1.27-.27-1 .12-1.84 1-2.07.88-.24 1.58.27 1.84 1.24l.06.2-2.33.63c.2.66.67.96 1.24.8.44-.12.66-.4.7-.61v-.03l.52-.14v.02c0 .47-.34 1.03-1.1 1.23Zm-.81-2.88c-.48.13-.76.56-.65 1.19l1.78-.48c-.22-.62-.66-.83-1.13-.7Zm3.6 2.07-1.77-3 .52-.13 1.33 2.41.05-.01.03-2.78.5-.13 1.41 2.39.05-.01-.06-2.76.52-.14-.04 3.48-.52.14-1.4-2.31-.04.01-.05 2.7-.52.14Zm4.95-1.27c-.61.17-1.18-.08-1.33-.67-.16-.58.18-1.03.92-1.27l.91-.3-.08-.3c-.1-.4-.4-.55-.89-.42-.39.1-.6.31-.62.59l-.52.15v-.02c-.06-.53.34-1 1.03-1.2.8-.2 1.34.09 1.52.76l.6 2.21-.53.14-.12-.48-.05.02c-.11.4-.4.68-.84.8Zm-.8-.82c.09.32.41.44.79.34.53-.14.83-.6.7-1.06l-.08-.29-.85.29c-.48.16-.65.39-.56.71Zm3.75 1.19-.23.04-.12-.43c.07 0 .15-.02.22-.04.3-.08.44-.26.46-.67v-.2l-2.06-2.92.56-.15 1.6 2.42.05-.01.17-2.9.55-.15-.34 3.78c-.08.8-.29 1.08-.86 1.23Zm6-2.72c-.95.26-1.7-.08-1.95-.76v-.04l.53-.14.01.03c.16.42.68.58 1.3.4.6-.15.94-.57.82-1v-.01c-.1-.36-.4-.54-1.04-.51l-.5.02c-.93.04-1.4-.26-1.58-.88-.19-.73.3-1.4 1.2-1.64.87-.23 1.6.12 1.82.75l.02.04-.54.15-.02-.04c-.16-.37-.6-.55-1.16-.4-.54.15-.89.52-.77.97.1.35.4.52 1.02.49l.5-.02c.96-.04 1.42.22 1.59.85.21.81-.28 1.49-1.25 1.75Zm3.74-1.05c-.92.25-1.66-.25-1.93-1.26-.26-1 .12-1.84 1-2.08.88-.23 1.59.28 1.85 1.25l.05.2-2.33.62c.2.67.67.96 1.25.8.44-.11.65-.4.69-.61v-.03l.52-.14v.03c.01.46-.34 1.02-1.1 1.22Zm-.8-2.87c-.49.13-.77.55-.66 1.18l1.79-.47c-.22-.63-.66-.84-1.14-.71Zm2.98 2.23-.87-3.24.52-.13.13.47h.05c.03-.38.28-.66.72-.78l.27-.05.13.51-.33.06c-.5.13-.77.54-.64 1.02l.54 2-.52.14Zm3.28-.88-2.06-2.92.55-.14 1.6 2.42h.05l.17-2.91.55-.15-.33 3.56-.53.14Zm1.66-4.58a.37.37 0 0 1-.46-.26c-.05-.2.07-.4.27-.46.2-.05.4.06.45.26.06.2-.06.4-.26.46Zm.77 3.93-.87-3.24.53-.14.86 3.24-.52.14Zm2.84-.7c-.9.24-1.66-.26-1.93-1.29-.27-1 .13-1.82 1.04-2.06.78-.21 1.37.12 1.62.67l.01.01-.52.14c-.17-.3-.53-.48-1-.36-.57.16-.81.72-.62 1.45.2.75.7 1.13 1.28.98.43-.12.66-.39.68-.78v-.02l.52-.14v.03c.03.63-.3 1.16-1.08 1.37Zm3.44-.92c-.92.25-1.66-.25-1.93-1.27-.27-1 .12-1.84 1-2.07.88-.24 1.59.27 1.85 1.24l.05.2-2.33.63c.2.66.67.95 1.25.8.44-.12.65-.4.69-.62v-.03l.52-.14v.03c0 .47-.34 1.02-1.1 1.23Zm-.8-2.88c-.49.13-.77.56-.66 1.19l1.79-.48c-.22-.63-.66-.83-1.14-.7Z"/>
      <rect width="161.48" height="6.36" x="153.69" y="179.99" fill="#F0F1F7" rx="3.18" transform="rotate(-15 153.69 180)"/>
      <rect width="65.74" height="5.45" x="153.8" y="180.43" fill="#E5E5FF" rx="2.73" transform="rotate(-15 153.8 180.43)"/>
      <rect width="65.74" height="5.45" x="219.06" y="162.94" fill="#7D76EE" rx="2.73" transform="rotate(-15 219.06 162.94)"/>
      <rect width="26.36" height="5.45" x="284.32" y="145.46" fill="#6063F6" rx="2.73" transform="rotate(-15 284.32 145.46)"/>
      <path stroke="#E6E8F2" stroke-width=".45" d="m274.2 163.23-.77 12.9"/>
      <path fill="#27282E" d="m294.56 168.78-1.9-7.13-.11.02-1.75 2.1-.39-1.45 1.84-2.2 1.54-.41 2.32 8.66-1.55.41Z"/>
      <path fill="#828599" d="m300.7 160.93-.92-3.4 2.07-.56.1.38-1.64.44.31 1.17 1.5-.4.1.38-1.5.4.4 1.47-.43.12Zm2.1-3.82a.3.3 0 0 1-.35-.2.3.3 0 1 1 .36.2Zm.61 3.09-.68-2.54.41-.11.68 2.54-.4.1Zm.98-.26.53-1.5-1.22-1.04.49-.13.85.78.04-.01.35-1.1.45-.13-.52 1.49 1.22 1.05-.48.13-.86-.8-.04.01-.35 1.12-.46.13Zm3.67-.94c-.73.2-1.3-.2-1.51-1-.22-.78.09-1.44.78-1.62.69-.19 1.25.21 1.45.97l.04.16-1.83.5c.16.52.53.74.98.62.35-.09.51-.3.54-.48v-.02l.42-.11v.02c0 .36-.27.8-.87.96Zm-.63-2.26c-.38.1-.6.44-.52.93l1.4-.37c-.17-.5-.51-.66-.88-.56Zm3.29 1.55c-.64.17-1.2-.24-1.42-1.03-.21-.8.07-1.43.71-1.6.35-.1.7 0 .92.23l.03-.01-.37-1.41.4-.11.96 3.55-.41.11-.11-.4h-.04a.9.9 0 0 1-.67.67Zm0-.39c.46-.12.64-.56.49-1.15-.16-.6-.54-.88-1-.75-.47.12-.65.55-.49 1.14.16.6.53.88 1 .76Zm-9.12 5.75a.3.3 0 1 1-.15-.57.3.3 0 0 1 .15.57Zm.6 3.08-.68-2.54.41-.1.68 2.53-.4.11Zm2.07-.5c-.56.15-1.03-.02-1.19-.43l.42-.1c.13.19.37.27.7.18.34-.09.53-.32.47-.55-.05-.18-.2-.26-.54-.25h-.42c-.5.02-.78-.13-.87-.5-.12-.42.2-.84.74-.99.54-.14.98.03 1.14.43l-.4.1c-.1-.18-.34-.27-.65-.19-.3.09-.48.3-.42.53.05.17.2.25.52.24l.42-.01c.5-.01.8.13.9.5.12.45-.24.88-.82 1.04Zm2.48-.67c-.56.16-1.03-.01-1.19-.42l.42-.11c.13.19.37.28.7.19.33-.1.53-.32.47-.55-.04-.18-.2-.26-.54-.26l-.42.02c-.5 0-.78-.14-.87-.5-.12-.43.2-.86.74-1 .54-.15.98.02 1.14.42l-.4.11c-.1-.19-.34-.27-.65-.19-.3.08-.48.3-.42.52.05.18.2.25.52.24h.42c.5-.02.8.13.9.49.12.46-.24.89-.82 1.04Zm2.5-.67c-.57.16-.96-.1-1.12-.7l-.44-1.65.41-.11.41 1.55c.13.45.35.63.76.52.44-.12.6-.46.49-.9l-.4-1.5.4-.12.69 2.55-.41.1-.1-.38-.04.01c-.05.31-.27.53-.64.63Zm3.01-.8c-.72.2-1.3-.2-1.51-1-.21-.78.1-1.44.78-1.63.7-.18 1.25.22 1.45.98l.05.16-1.83.49c.15.52.52.75.98.63.34-.1.5-.31.53-.48v-.03l.42-.1v.01c0 .37-.27.8-.87.97Zm-.63-2.26c-.38.1-.6.43-.51.93l1.4-.38c-.17-.49-.52-.65-.9-.55Zm3.23 1.56c-.57.15-1.03-.02-1.2-.42l.43-.12c.12.2.36.28.69.2.34-.1.54-.32.48-.56-.05-.17-.21-.26-.54-.25l-.42.01c-.51.02-.78-.13-.88-.5-.11-.42.2-.85.75-1 .53-.14.97.03 1.14.43l-.4.1c-.11-.18-.35-.26-.65-.18-.3.08-.48.3-.42.52.04.17.2.25.52.24h.41c.52-.02.8.12.9.49.12.46-.24.89-.81 1.04Zm5.78 22.98-1.32-4.94 3-.81.15.56-2.39.63.46 1.7 2.19-.58.15.55-2.2.59.58 2.14-.62.16Zm3.08-5.55a.43.43 0 0 1-.52-.3.43.43 0 1 1 .52.3Zm.88 4.5-1-3.7.6-.16 1 3.7-.6.15Zm1.42-.39.78-2.19-1.78-1.5.7-.2 1.25 1.15.06-.01.5-1.61.66-.18-.76 2.16 1.77 1.53-.7.19-1.25-1.16-.05.01-.5 1.63-.68.18Zm5.34-1.36c-1.06.28-1.9-.28-2.2-1.44-.31-1.15.13-2.1 1.13-2.38 1.01-.26 1.82.32 2.12 1.42l.06.24-2.66.71c.22.76.76 1.1 1.42.92.5-.14.75-.46.79-.7v-.04l.6-.16v.03c0 .53-.39 1.17-1.26 1.4Zm-.93-3.28c-.54.14-.86.63-.74 1.35l2.05-.55c-.26-.71-.76-.95-1.3-.8Zm4.8 2.25c-.94.25-1.76-.35-2.06-1.5-.32-1.17.1-2.08 1.03-2.33.5-.14 1.02 0 1.33.34l.05-.02-.55-2.05.6-.16 1.38 5.17-.6.16-.15-.6-.06.02a1.3 1.3 0 0 1-.97.97Zm0-.57c.66-.18.94-.82.7-1.67-.23-.86-.78-1.28-1.45-1.1-.68.18-.94.8-.7 1.67.23.87.77 1.28 1.44 1.1Zm6.43-1.16c-1.03.28-1.9-.3-2.2-1.47h-.01c-.3-1.15.15-2.08 1.19-2.36.9-.24 1.57.14 1.86.77v.02l-.59.16v-.02c-.2-.33-.6-.54-1.13-.4-.67.18-.94.83-.72 1.66.23.86.8 1.29 1.46 1.11.5-.13.75-.43.78-.88v-.03l.59-.16v.04c.03.71-.34 1.32-1.23 1.56Zm2.4-.71-.99-3.7.6-.16.15.55.05-.01c.04-.43.32-.75.83-.88.1-.03.24-.06.3-.06l.16.58a2.5 2.5 0 0 0-.38.06c-.57.16-.88.63-.73 1.17l.61 2.29-.6.16Zm1.81-5.21a.43.43 0 0 1-.52-.3.43.43 0 1 1 .52.3Zm.88 4.49-.99-3.7.6-.16.99 3.7-.6.16Zm3.05-.79c-.77.2-1.16 0-1.35-.7l-.6-2.24-.58.16-.14-.5.59-.15-.26-.96.62-.17.25.96.81-.22.14.5-.81.22.56 2.09c.11.43.31.57.7.46l.27-.08.13.5c-.1.06-.22.1-.33.13Zm.36-4.85a.43.43 0 0 1-.52-.3.43.43 0 1 1 .52.3Zm.88 4.49-1-3.7.6-.16 1 3.7-.6.16Zm3.25-.8c-1.03.27-1.9-.3-2.21-1.47-.31-1.16.15-2.08 1.18-2.36.9-.24 1.58.13 1.86.76l.01.02-.59.16c-.2-.35-.6-.55-1.14-.41-.66.18-.94.82-.71 1.66.23.86.8 1.29 1.46 1.11.5-.13.75-.44.78-.89V176l.59-.16v.04c.03.7-.34 1.32-1.23 1.56Zm3.43-.92c-.7.19-1.34-.1-1.52-.77-.18-.67.2-1.18 1.05-1.46l1.04-.35-.09-.33c-.12-.46-.46-.63-1.02-.48-.44.12-.69.36-.7.67v.01l-.6.16v-.02c-.06-.6.4-1.15 1.18-1.36.9-.24 1.53.09 1.74.86l.68 2.53-.6.16-.15-.55-.05.02c-.13.45-.46.77-.96.9Zm-.92-.95c.1.38.48.51.9.4.62-.17.95-.68.81-1.21l-.09-.34-.97.33c-.55.18-.75.45-.65.82Zm3.8.1-1.38-5.16.6-.16 1.38 5.17-.6.16Zm2.85-5.48a.43.43 0 1 1-.22-.83.43.43 0 0 1 .22.83Zm.88 4.49-.99-3.7.6-.16.99 3.7-.6.16Zm3.01-.74c-.82.22-1.5-.03-1.73-.62l.61-.16c.18.28.53.4 1 .28.5-.14.8-.47.7-.8v-.01c-.06-.25-.3-.38-.79-.36l-.6.01c-.74.02-1.13-.2-1.28-.72-.16-.62.3-1.24 1.09-1.45.77-.21 1.42.03 1.66.61l-.59.16c-.15-.27-.5-.4-.94-.28-.44.12-.7.44-.62.76.07.26.3.37.77.36l.6-.02c.74-.02 1.16.2 1.3.72.18.67-.34 1.3-1.18 1.52Zm3.6-.97c-.81.22-1.49-.02-1.72-.61l.61-.17c.18.28.53.4 1 .28.5-.13.8-.46.7-.8-.07-.26-.3-.38-.79-.37l-.6.02c-.74.02-1.14-.2-1.28-.73-.16-.62.3-1.24 1.09-1.45.77-.2 1.41.04 1.66.62l-.59.15c-.15-.27-.5-.4-.94-.27-.44.12-.7.43-.62.75v.01c.07.25.3.36.76.35l.61-.02c.74-.01 1.16.2 1.3.72v.01c.18.66-.34 1.29-1.18 1.51Zm3.65-.97c-.84.22-1.4-.16-1.63-1.03l-.65-2.4.6-.15.6 2.25c.18.66.5.92 1.1.76.65-.18.89-.67.71-1.32l-.58-2.18.6-.16.99 3.7-.6.15-.15-.55-.05.02c-.08.44-.4.76-.94.9Zm4.38-1.18c-1.06.29-1.9-.28-2.2-1.44-.31-1.15.13-2.1 1.13-2.37 1-.27 1.82.31 2.12 1.42l.06.23-2.66.71c.22.76.76 1.1 1.42.92.5-.13.74-.45.78-.7v-.04l.6-.16v.03c.01.54-.38 1.17-1.25 1.4Zm-.93-3.28c-.55.15-.87.63-.74 1.35l2.04-.54c-.25-.72-.75-.96-1.3-.8Zm4.7 2.28c-.82.22-1.5-.03-1.73-.62l.61-.17c.18.28.53.4 1 .28.5-.13.8-.46.7-.8-.07-.26-.3-.38-.79-.37l-.6.02c-.74.02-1.14-.2-1.28-.73-.16-.62.3-1.24 1.09-1.45.77-.2 1.41.04 1.66.62l-.59.16c-.16-.28-.5-.4-.94-.28-.44.12-.7.43-.62.75v.01c.07.25.3.36.76.35l.61-.02c.74-.01 1.16.2 1.3.73.18.66-.34 1.29-1.18 1.52Z"/>
    </g>
    <path fill="url(#i)" d="M-7.33 0h376v168h-376z"/>
  </g>
  <defs>
    <clipPath id="a">
      <path fill="#fff" d="M.33 0H361v168H.33z"/>
    </clipPath>
    <clipPath id="b">
      <path fill="#fff" d="M-88.36 27.03 442.8-115.29l70.57 263.38-531.15 142.32z"/>
    </clipPath>
    <clipPath id="c">
      <path fill="#fff" d="m91.52-9.87 3.52-.94 14.23 53.13-3.51.94z"/>
    </clipPath>
    <clipPath id="d">
      <path fill="#fff" d="m106.7 46.78 3.51-.94 14.24 53.13-3.51.94z"/>
    </clipPath>
    <clipPath id="e">
      <path fill="#fff" d="m280.24.28 3.51-.94L298 52.47l-3.51.94z"/>
    </clipPath>
    <clipPath id="f">
      <path fill="#fff" d="m121.88 103.43 3.51-.95 14.24 53.14-3.52.94z"/>
    </clipPath>
    <clipPath id="g">
      <path fill="#fff" d="m295.42 56.93 3.51-.95 14.24 53.14-3.52.94z"/>
    </clipPath>
    <clipPath id="h">
      <path fill="#fff" d="m137.06 160.07 3.51-.94 14.24 53.14-3.52.94z"/>
    </clipPath>
    <linearGradient id="i" x1="180.67" x2="180.67" y1="0" y2="168" gradientUnits="userSpaceOnUse">
      <stop stop-color="#fff" stop-opacity=".4"/>
      <stop offset=".78" stop-color="#fff" stop-opacity=".77"/>
    </linearGradient>
  </defs>
</svg>
