<svg xmlns="http://www.w3.org/2000/svg" width="182" height="114" fill="none" viewBox="0 0 182 114">
  <g clip-path="url(#a)">
    <path fill="#D5DCFF" d="M12.28 113.73c-.76 0-1.39.6-1.39 1.34 0 .74.63 1.34 1.4 1.34.76 0 1.39-.6 1.39-1.34 0-.74-.63-1.34-1.4-1.34Zm14.75-41.08a.55.55 0 0 0-.56.54c0 .3.25.54.56.54.31 0 .56-.24.56-.54 0-.3-.25-.54-.56-.54Zm52.86 33.55a.55.55 0 0 0-.56.54c0 .3.25.54.56.54.3 0 .55-.24.55-.54 0-.3-.24-.53-.55-.53Zm58.42-24.15a.54.54 0 0 0-.56.53c0 .3.25.54.56.54.31 0 .56-.24.56-.54 0-.3-.25-.53-.56-.53Zm-33.38-8.86a.55.55 0 0 0-.56.53c0 .3.25.54.56.54.3 0 .55-.24.55-.54 0-.3-.24-.53-.55-.53Z" opacity=".3"/>
    <g filter="url(#b)">
      <g clip-path="url(#c)">
        <rect width="67.48" height="69.33" fill="#D5DCFF" rx="33.74" transform="matrix(-1 0 0 1 90.9 16.41)"/>
        <path fill="#BDC6F5" d="M16.56 45.4s2.92 3.96 3.7 4.73c.8.77 5.76 1.48 5.99 1.55.23.08 4.1 1.19 4.18 1.63.07.44.15.6-.64 1.19-.79.6-.55 5.11-.15 5.77.4.66 2.28 1.32 2.36 1.98.08.66.08.23.7 2.22.63 2-.94 0 1.5 2.74s.63 2.96-1.5 6.44c-2.13 3.48-2.36 4.96-2.36 4.96s-6.22 1.48-8.75.3c-2.52-1.19-3.51-3.6-5.04-3.24-1.53.35-1.97.47-5.63.53-3.65.05-6.85-1.5-8.74-2.55-1.9-1.03-7.1-1.26-4.22-2.81 2.87-1.55 5.35-1.68 5.2-3.3-.17-1.63 1.57-2.83.15-4.63-1.4-1.8-3.23.3-1.73-2.64 1.5-2.95 4.41-5.94 4.57-6.14.15-.2 1.89.3 1.65-3.19-.24-3.48-1.8-6.44-.3-6.73 1.49-.3 5.9-2.07 6.26-1.7l2.8 2.88Z"/>
        <path fill="#BDC6F5" d="M50.84 12.63s2.92 3.97 3.7 4.74c.8.77 5.76 1.48 6 1.55.22.07 4.1 1.18 4.17 1.63.08.44.15.6-.63 1.19-.8.59-.55 5.1-.16 5.77.4.66 2.29 1.32 2.36 1.98.08.66.08.23.7 2.22.63 2-.93 0 1.5 2.74 2.45 2.74.64 2.96-1.5 6.44-2.12 3.48-2.36 4.96-2.36 4.96s-6.22 1.48-8.74.3c-2.53-1.19-3.52-3.6-5.05-3.24-1.52.35-1.97.47-5.62.53-3.66.05-6.86-1.51-8.75-2.55-1.9-1.04-7.1-1.26-4.22-2.81s5.36-1.68 5.2-3.3c-.16-1.63 1.57-2.83.16-4.63-1.41-1.8-3.24.3-1.74-2.64 1.5-2.95 4.42-5.95 4.57-6.14.16-.2 1.9.3 1.66-3.19-.24-3.48-1.81-6.44-.31-6.74 1.5-.3 5.91-2.06 6.26-1.7l2.8 2.9Z" opacity=".3"/>
        <path fill="#BDC6F5" d="M89.94 31.87h-3.46s-1.2-.44-1.8 1.38c-.57 1.82-.93 2.07-.93 2.07l-1.58.79v2.03s-.63 2.26-.63 2.46c.23.6.51 1.2.82 1.77 0 0 5.35-3.88 7.58-7.2 2.23-3.3 0-3.3 0-3.3ZM74.46 79.22s4.85-2.86 4.74-3.15c-.11-.3-1.22-3.4-1.7-3.65-.47-.25-4.21.44-4.35 1.03-.15.59-.22 4.54-.22 4.54s-3.67.55-4.22.6c-.54.04-2.05-1-2.1.65 0 1.04.52 2.02 1.4 2.64 0 0 1.47-.2 2.11.7.64.89 3.16.74 3.16.74s2.67-1.48 2.81-1.48c.14 0 1.68.3 1.16-.4-.53-.7-1.21-1.68-1.21-1.68l-1.58-.54Z"/>
      </g>
    </g>
    <path fill="#D5DCFF" d="M12.28 30.2c-.76 0-1.39.6-1.39 1.34 0 .74.63 1.34 1.4 1.34.76 0 1.39-.6 1.39-1.34 0-.74-.63-1.35-1.4-1.35Zm67.61-7.52a.55.55 0 0 0-.56.53c0 .3.25.54.56.54.3 0 .55-.24.55-.54 0-.3-.24-.53-.55-.53ZM125.1 40.4c-.4 0-.7.24-.7.53 0 .3.3.54.7.54.38 0 .7-.24.7-.54 0-.3-.32-.54-.7-.54Z" opacity=".3"/>
    <path fill="#1A1D36" d="M-14.87-16.22c1.16 3.51-1.49 13.3 5.04 25.04C-3.3 20.57-5.97 24.2.27 33.07c6.23 8.87 2.97 7.07 9.8 16.97 6.82 9.9 11.94 24.57 20.37 24.87 8.43.3 21.38 1.82 28.7.3 7.33-1.5 30.78-5.44 43.63-1.22 12.86 4.22 15.4 5.1 21.46 10.34 4.15 3.52 8.46 6.81 12.92 9.88l7.38 2.03 13.69 1.7h-9.2l-15.06-1.96-6.19-3.06 1.64 6.79 16.1 10.79-15.8-4.95s-4.82-4.41-5.93-5.64c-1.11-1.22-8.4-12.51-8.71-13.43-.32-.92-17.12-3.63-20.09-3.93-2.97-.3-24.09.3-24.09.3s-7.69 3.97-9.31 4.58c-1.63.6-13.18 3.97-13.18 3.97l-11.26 6.14s-19.16-2.64-19.9-3.56c-.72-.92-18-4.68-18-4.68l-16.78-9.19-8-11.77 1.77 40.46 1.13 14.46-66.86-.86-1.86-46.86S-91.86-1.4-92.46-6c-.6-4.6 76.42-13.71 77.59-10.2Z"/>
    <path fill="url(#d)" d="M27.1 75.09c-1.76-.3-41.46-31.53-43.54-35.62 9.3-1.71 14.35-1.71 14.35-1.71l-40.77-47.9 25.33 15.77L-22.89-3l9.52 4.68-1.5-17.9s2.15 1.4 3.33 4.9c1.19 3.51-1.86 8.13 4.67 19.88C-.34 20.3-3 23.94 3.23 32.8c6.23 8.86 2.97 7.07 9.8 16.98 6.83 9.9 11.95 24.56 20.37 24.86 4.45.16 10.16.66 15.64.88 0 0-20.15-.13-21.93-.44Z"/>
    <path fill="url(#e)" d="m-14.8 75.7 16.1 6.51L-4 76.8l-9.24-12.35S5.24 80.99 6.42 82.2c1.2 1.22 8.84 3.67 10.7 3.53 1.85-.13 12.27 3.8 12.27 3.8v-2.17l9.1 3.93 4.26-2.3 12.19-5.78h7.38l6.75-5.24 5.16-.72 27.14-.2 12.46 3.35-13.96-2.28-25.07.2-10.5 4.7L51.14 87l-11.27 6.13L20 89.57 1.97 84.9l-16.77-9.18Z"/>
    <mask id="f" width="48" height="74" x="53" y="2" maskUnits="userSpaceOnUse" style="mask-type:luminance">
      <path fill="#fff" d="M100.75 2.21H53.06v73.12h47.7V2.2Z"/>
    </mask>
    <g mask="url(#f)">
      <path fill="#24284A" d="M85.53 65.14s-.85-6.53 3.4-7.54c4.42-1.04 11.22-3.62 11.78-6.04.55-2.43-3.9-7.6-.79-10.2-.35-1.3-1.71-2.89-1.71-2.89s-2.87 3.3-.45 9.8c3.1 8.35-8.63 7.87-10.61 8.32-3.09.7-2.87 4.8-2.87 4.8l1.25 3.75Z"/>
      <path fill="#ABB9FF" d="M85.47 63.13c.1-2 .74-4.88 3.43-5.51 4.42-1.05 11.23-3.62 11.78-6.05.23-.98-.36-2.4-.94-3.91.39 1.26.73 2.84.31 3.47a4.35 4.35 0 0 1-1.9 1.54l-.25.34c-1.09 2.89-7.94 3.7-7.94 3.7-2.1.2-4.15.95-4.63 2.55-.48 1.6.14 3.87.14 3.87Z"/>
      <path fill="#2F2E5E" d="m84.95 54.83 1 1.38s-3.4 2.74-3.4 3.11c0 .37 3.96 4.12 4.22 3.88.26-.24 5.8-3.31 5.73-5.73-.07-2.42-6.13-8.52-6.13-8.52s-9.55 3.9-14.92 13.35c-5.26 9.28-3.29 11.96-3.29 11.96s2.2-1.21 3-.43c.74-.5 1.46.05 1.46.05s1.32-.72 1.93.06c.61.79 3.63.75 3.63.75s.9-1.58 2.03-.83c.6-.48 1.53-.38 1.65-.03.35-.41 1.42-.41 1.94.52.95-.05 4.52-.77 6.4-1.36-.22-1.06-2.12-8.16-1.82-10.97-1.14.96-1.62.85-1.62.85s-3.75-2.91-3.78-3.59c-.03-.67 3.15-3.17 3.15-3.17l-1.18-1.28Z"/>
      <path fill="#2F2E5E" d="m67.77 54.39-.51 1.52s3.36 2.89 3.36 3.26c0 .37-3.95 4.5-4.2 4.27-.26-.24-5.42-3.56-5.35-5.96.07-2.41 3.74-9.47 3.74-9.47s6.65 1.24 12.28 7.27c-5.94 6.96-9.65 16.87-8.79 18.52-1.68-.2-4.33-.59-4.88-.75.21-1.06 1.87-8.07 1.56-10.88.51.43.84.7 1.04.9.2.16.5.16.69 0 1-.85 3.76-3.24 3.78-3.78.02-.68-3.23-3.38-3.23-3.38l.51-1.52Z"/>
      <path fill="#353F73" d="M74.26 55.53s-9.37-2.97-10.77-2.76c-1.4.21-1.96 2.58-2.32 3.66-.36 1.14-.04 2.44 1.46 3.7 1.5 1.27 2.9 1.8 3.39 1.74.48-.05 2.67-2.2 2.8-2.59.15-.38-3.96-2.26-4.05-3.36-.1-1.1 1.21-.99 1.9-.74.3-.44 1.23-1.06 1.23-1.06l-.32 1.26 1.51 1.43 2.04 1.93s-.57.88-.63 1.54c-.07.67-3.7 5.4-3.83 5.73-.11.33-1.63 1.66-1.63 1.66l-1.32 5.24 3.54.1s3.08-9.31 5.3-12.66c2.23-3.36 2.28-3.59 2.28-3.59l-.58-1.23Zm2.99 2.73s-3.65 2.64-6.09 7.85c-1.56 3.35-2 5.74-2.13 6.86a.52.52 0 0 0 .6.57c1.35-.27 4.36-.84 5.2-.54.6.2 1.18.48 1.72.8 0 0 1.24.2 1.4 0 .16-.19 2.15-1.79 3.17-1.46 1.02.33 2.64.66 2.64.66s2.52-.77 1.77-1.54-3.48-8.32-3.63-9.48c-.15-1.15-.25-3.58 0-3.72.24-.14-.14-2.4-1.06-2.24-.91.17-3.6 2.24-3.6 2.24Zm9.41-3.02s.67.22.74.6c.06.36-2.02 1.96-2.45 2.21-.42.25-1.29 1.04-1.2 1.09.07.05 2.47 2.38 2.88 2.6.42.22 1.33-.63 1.76-1.37.44-.75 1.52-2.43 1.22-3.75-.31-1.33-1.43-2.12-1.93-2.18-.5-.05-2.13.08-2.21.25-.09.17 1.19.55 1.19.55Z" opacity=".38"/>
      <path fill="#353F6E" d="M74.4 64.95a.7.7 0 0 0 .7-.71.7.7 0 0 0-.7-.72.7.7 0 0 0-.7.72c0 .4.31.71.7.71Zm6.06.01a.7.7 0 0 0 .7-.72.7.7 0 0 0-.7-.72.7.7 0 0 0-.7.72c0 .4.31.72.7.72Zm-6.56 5.02a.7.7 0 0 0 .7-.72.7.7 0 0 0-.7-.72.7.7 0 0 0-.7.72c0 .4.31.72.7.72Zm6.88 0a.7.7 0 0 0 .7-.72.7.7 0 0 0-.7-.72.7.7 0 0 0-.7.72c0 .4.31.72.7.72Z"/>
      <path fill="#7C8BD1" d="M74.2 64.77a.7.7 0 0 0 .7-.72.7.7 0 0 0-.7-.72.7.7 0 0 0-.7.72c0 .4.32.72.7.72Zm6.07 0a.7.7 0 0 0 .7-.72.7.7 0 0 0-.7-.71.7.7 0 0 0-.7.71c0 .4.3.72.7.72ZM73.7 69.8a.7.7 0 0 0 .7-.72.7.7 0 0 0-.7-.72.7.7 0 0 0-.7.72c0 .4.32.71.7.71Zm6.89 0a.7.7 0 0 0 .7-.72.7.7 0 0 0-.7-.72.7.7 0 0 0-.7.72c0 .4.31.71.7.71Z"/>
      <path fill="#ABB9FF" d="M90.11 53.17s2.63 3.17 2.45 4.49c-.17 1.2-1.11 2.58-4.12 4.62.87 4.78 1.29 8.15 1.76 10.72-1.53.51-3.1.86-4.7 1.06l2.27-1.9.48-.76c.26-.64.34-1.34.25-2.02-.18-1.04-.13-.7-.13-.7s-.36-3.06-.61-2.84c-.26.22-.73-1.04-.7-1.36a6.59 6.59 0 0 0-.3-1.28l-3.02 1.1s5.39-4.19 6.62-6.82c.86-1.85-.25-4.3-.25-4.3Z"/>
      <path fill="#7E92EB" d="M83.04 73.45a1.4 1.4 0 0 0-1.07.25 1.35 1.35 0 0 0-.97-.38c-.38 0-.74.14-1 .42a1.19 1.19 0 0 0-1.12-.19c-.6.19-.99.71-.86 1.18s.73.7 1.34.52c.24-.07.45-.2.62-.37.26.29.63.45 1.02.44.39.01.77-.16 1.03-.46.22.18.49.3.77.34.67.09 1.27-.23 1.33-.71.07-.49-.42-.94-1.1-1.04Zm-9.22.01c-.4-.08-.8.03-1.1.29a1.31 1.31 0 0 0-1-.42c-.3 0-.61.1-.86.3a1.22 1.22 0 0 0-1.07-.15c-.6.18-1 .7-.86 1.17.13.47.73.7 1.33.52.18-.05.35-.13.49-.25.26.27.61.42.98.4.4.02.8-.16 1.05-.49.23.2.5.33.8.37.68.09 1.27-.23 1.33-.7.07-.48-.42-.95-1.1-1.04Z"/>
      <path fill="#C5CCEB" d="M77.06 41.54v.08c-1.54-.2-14.44-1.5-22.09 9.12 6.59-.55 17.2 2.27 20.52 7.37 4.9-5.98 17.44-7.92 24.04-7.37-8.15-11.3-22.47-9.2-22.47-9.2Z"/>
      <path fill="#40469E" d="M60 41.48c.12-2.24 2.16-1.83 2.42-2.73a.5.5 0 0 0 .01-.07l4.33-1.19 8.42-.9.69 3.32s-4.97 4.36-8.84 4.22c-3.88-.14-5.08-3.04-6.35-1.35-.71.94 1.14 5.28 4.6 6.38 3.46 1.09 6.23 2.23 8.03 2.74 2.02.52 4.12.6 6.17.23 2.02-.4 9.39-2.56 9.54-2.6-.76.48-1.56.9-2.39 1.24-6.25 2.69-8.3 3.45-10.11 3.45-1.81 0-3.87-.76-10.11-3.45-6.25-2.7-6.54-7.06-6.41-9.3Z"/>
      <path fill="#40469E" d="M89.69 40.47s-1.46 3.6-8.48 2.99c-7.03-.62-6.39-5.18-6.3-8.8.08-3.6 4.67-6.7 4.67-6.7l10.1 12.5Z"/>
      <path fill="#91A6FF" d="M90.99 45.42c-1.05.88-2.77.55-4.6.04-.1-.17-.51-.35-.87-.45a3.27 3.27 0 0 0-1.09-.09c-.3-.08.09.65-.21.58a49.4 49.4 0 0 0-6.86-.77c-1.81-.11-3.63.18-5.33.86-2.59 1-6.45 1.17-8.04-.17-.48-.42-.95-.6-1.23-1.3-.1-.24.28-2.29 1.27-.93.64.86.85 1.95 1.96 2 4.07.17 5.95-1.81 7.46-3.62.56-.66 1.41-1.13 1.83-1.7.53-.72.82-1.84 1.37-1.85.84 0 .81 1 1.8 2.04.36.4.94.64 1.47 1.07 1.82 1.5 4.32 3.3 8.44 3.97 1.1.18 1.4-.24 2.11-1.06.75-.84 1.98-.46 1.56.3-.33.66-.55.66-1.04 1.08Z"/>
      <path fill="#40469E" d="M76.51 38.8c0-.15-.15-.2-.22-.09-.24.42-.45 1.38-.9 1.77-.56.52-1.26 1.15-1.01 1.82.25.67.95.2 1.5-.25l.49-.38a.4.4 0 0 0 .15-.31v-2.57Zm.48-.08c0-.15.16-.2.22-.08.25.42.46 1.37.9 1.77.56.5 1.26 1.15 1.01 1.81-.24.67-.95.2-1.5-.25l-.48-.38a.4.4 0 0 1-.15-.32v-2.55Zm7.75 6.68s0 2.53-.16 2.95a5.03 5.03 0 0 0 2.5-2.33c-.7-.44-2.34-.63-2.34-.63Z"/>
      <path fill="#F3F3F3" d="M84.46 45.26s-.08 1.94-.24 2.36c.68-.16 1.88-.9 2.22-1.82a5.4 5.4 0 0 0-1.98-.54Z"/>
      <path fill="#40469E" d="M90.99 45.9c-1.05.88-2.77.54-4.6.04-.1-.17-.51-.36-.87-.46a3.22 3.22 0 0 0-1.08-.08c-.3-.09-.64-.08-.91-.23-2.23-1.25-6.04-1.24-6.04-1.24s-3.3-.02-5.93 1.26c-2.5 1.22-5.96 2.05-7.55.7a4.4 4.4 0 0 1-1.14-1.73c-.1-.25.21-.44.35-.22.55.92 1.36 1.3 2.45 1.5 2.98.55 6.62-1.98 11.83-1.98s9.12 1.63 11.82 1.99c1.1.14 1.9-.59 2.46-1.5.13-.23.45-.04.35.21a4.45 4.45 0 0 1-1.14 1.73Z"/>
      <path fill="#40469E" d="M75.13 46.55c-.39-.27.4-.9 2.13-.9 1.62 0 2.25.55 2.17.78-.16.43-1.4-.1-2.21-.1-.82 0-1.7.5-2.09.23Z"/>
      <path fill="#D5DCFF" d="M80.47 3.12c-.22 0-.17 1.58-.18 1.88-.02.3 1.7 14.35.83 18.97-.15.82 1.36-1.62.73-11.44-.07-1.11-.37-6.15.4-6.3.76-.16-.18-1.74-.3-2-.14-.27-1.12-1.12-1.48-1.11Z"/>
      <path fill="#40469E" d="M72.25 3.44s-5.49 7.4-8.06 10.03c-2.57 2.64-7.86 9.51-8.94 11.43-1.07 1.92-2.46 6.36 1.52 8.92-1.99-4.97 1.83-6.42 3.07-6.2 1.24.23 1.11 4.73 1.11 4.73l1.97 2.64 7.27-.51 4-6.04-1.47-1.38a10.2 10.2 0 0 0-5.2-2.16c-3.13-.35-4.3-.25-4.3-.25s.45-3 3.73-2.48c-.96-1.43-1.3-9.07 5.3-18.73ZM82.6 8.67s.81 5.67.85 9.06c.05 3.38.8 8.63-.63 10.02-1.44 1.4.87 1.95.87 1.95l8.87 5.63s2.22-.37 3.28-1.11c1.06-.74 2.77-1.93 3.1-3.39-1.45 1.5-2.7 2.63-3.67 1.4-.97-1.24-.32-7.15-3.98-10.03.61 1.32-.15 3.51-1.59 3.25-1.44-.26-3.7-3.75-4.28-6.75-.57-3-2.81-10.03-2.81-10.03Z"/>
      <path fill="#D5DCFF" d="M64.61 23.4c0-.13.24-.44.73-.57.48-.12 1.5-.18 1.97.49.47.66-.82 0-1.14-.06-1.04-.22-1.56.25-1.56.13Zm8.47-20.06a44.84 44.84 0 0 0-1 4.6c-.17 1.2-.73 5.46-.8 7.23-.07 1.76-.9 8.16-1.18 8.7-.28.54-.19 1.01.11 1.17.3.16 1.16.35 1.67.75.5.4.44-.93-.14-1.72-.59-.78-.49-2.13-.4-3.19.1-1.05.15-5.21.6-7.98.44-2.77 1.14-9.56 1.14-9.56ZM88.5 21.62c-.41-.62-.1 2.2.85 2.49.93.29 1.58-.6 1.2-1.3-.37-.7-1.49-.3-2.06-1.19Z"/>
      <path fill="#F3F3F3" d="m60.32 30.12-3.81-3.45a1.75 1.75 0 0 1-.13-2.43c.61-.7 1.67-.76 2.36-.13l3.76 3.4a6.93 6.93 0 0 0-2.18 2.6Zm-.52 4.28c0-.2.02-.4.03-.58a8.49 8.49 0 0 1 3.48-6.28 7.93 7.93 0 0 1 4.65-1.49 8.29 8.29 0 0 1 8.16 8.42v.02a8.3 8.3 0 0 1-8.13 8.39h-.03a8.28 8.28 0 0 1-8.15-8.4v-.08Z"/>
      <path fill="#40469E" d="M67.99 41.42a6.74 6.74 0 0 0 6.66-6.82 6.74 6.74 0 0 0-6.66-6.83 6.74 6.74 0 0 0-6.66 6.83 6.74 6.74 0 0 0 6.66 6.82Z"/>
      <path fill="#F3F3F3" d="M74.6 33.87a6.7 6.7 0 0 0-7.32-6.06 6.6 6.6 0 0 0-4.34 2.33l8.8 1.17-7.05 4.81 7.81-2.96-2.85 2.6 4.96-1.9Z"/>
      <path fill="#40469E" d="M60.69 29.7s-3.5-3.23-3.6-3.35a1.2 1.2 0 0 1-.06-1.18c.22-.33.05.24.21.61.17.37 4.3 2.74 4.3 2.74l-.85 1.18Z"/>
      <path fill="#F3F3F3" d="m93.19 30.04 3.72-3.37a1.7 1.7 0 0 0 .12-2.36 1.6 1.6 0 0 0-2.3-.13l-3.67 3.32a6.8 6.8 0 0 1 2.13 2.54Zm.69 4.36a8.5 8.5 0 0 0-3.51-6.86 7.92 7.92 0 0 0-4.64-1.49 8.29 8.29 0 0 0-8.16 8.41v.03a8.3 8.3 0 0 0 8.13 8.39h.03a8.29 8.29 0 0 0 8.15-8.4v-.08Z"/>
      <path fill="#40469E" d="M85.66 41.42a6.74 6.74 0 0 0 6.66-6.82 6.74 6.74 0 0 0-6.66-6.83A6.74 6.74 0 0 0 79 34.6a6.74 6.74 0 0 0 6.66 6.82Z"/>
      <path fill="#F3F3F3" d="M92.16 33.11c-.8-3.68-4.36-6-7.95-5.18a6.7 6.7 0 0 0-4.62 3.86l10.04-1.52-7.58 5.18 7.81-2.97-2.84 2.6 5.14-1.97Z"/>
      <path fill="#40469E" d="M93.06 29.88s3.5-3.23 3.6-3.35c.23-.35.25-.8.06-1.18-.23-.33-.05.24-.22.61-.16.37-4.29 2.74-4.29 2.74l.85 1.18Z"/>
      <path fill="#6271B6" d="M100.4 28.13c-.32-5.49-12.21-17.4-14.14-19.28-1.93-1.88-5.16-6.67-6.1-6.6-1 .1.57 9.73.7 16.63.12 6.9-1.37 9.28-1.89 9.15a43.1 43.1 0 0 0-2.26-.4s-1.75.27-2.26.4c-.51.13-2-2.25-1.88-9.15.14-6.9 1.7-16.54.7-16.63-.94-.07-4.17 4.7-6.1 6.6-1.94 1.89-13.83 13.78-14.13 19.28-.24 4.35 1.4 5.6 4.99 7.35 3.59 1.74 4.71 2.27 4.46 3.23-.26.95-2.57 1.35-2.7 3.7-.13 2.33.42 6.06 6.72 8.88 6.3 2.81 8.4 3.61 10.2 3.61 1.81 0 3.9-.78 10.2-3.61 6.3-2.83 6.6-7.38 6.49-9.72-.11-2.33-2.18-1.9-2.44-2.86-.26-.96.86-1.49 4.46-3.23 3.59-1.75 5.21-3 4.97-7.35Z"/>
      <path fill="#353F6E" d="M93.1 41.64c-.12-2.24-2.16-1.83-2.41-2.74v-.06l-4.34-1.18-8.11-1.07s-1.97 1.3-1.39 1.34c1.02.07 1.08 1.24 1.76 1.92.67.7 3.59 4.62 7.48 4.48 3.89-.13 5.07-3.04 6.35-1.35.7.94-1.14 5.3-4.61 6.4-3.47 1.09-6.23 2.23-8.03 2.73-2.02.52-4.13.6-6.18.23-2.03-.39-9.4-2.56-9.54-2.6.77.47 1.57.89 2.4 1.23 6.25 2.7 8.3 3.46 10.11 3.46 1.82 0 3.86-.76 10.1-3.47 6.25-2.72 6.54-7.08 6.41-9.32Z"/>
      <path fill="#353F6E" d="M63.4 40.63s1.45 3.62 8.47 3c.88-.07 1.02-1.02 1.25-1.67.39-1.06 1.07-1.4 1.72-2.1.64-.69 1.1-1.79 2-1.95 1.26-.2 1.36-1.9 1.32-3.1-.1-3.62-4.67-6.72-4.67-6.72L63.4 40.63Z"/>
      <path fill="#353F6E" d="M76.48 38.96c0-.15-.16-.2-.22-.08-.24.42-.45 1.37-.9 1.77-.57.52-1.26 1.16-1.02 1.83.25.67.96.2 1.53-.26l.48-.4a.4.4 0 0 0 .15-.32l-.02-2.54Zm.48-.1c0-.14.15-.2.22-.07.24.41.45 1.38.9 1.77.56.51 1.26 1.15 1.02 1.82-.25.67-.96.21-1.53-.25l-.48-.4a.38.38 0 0 1-.15-.31l.02-2.56Z"/>
      <path fill="#4F5DA3" d="M84.71 45.58s0 2.55-.16 2.97a5.01 5.01 0 0 0 2.5-2.35 7.98 7.98 0 0 0-2.34-.62Z"/>
      <path fill="#F3F3F3" d="M84.43 45.45c-.02.8-.1 1.58-.23 2.35.68-.15 1.88-.9 2.22-1.82-.63-.3-1.3-.48-1.99-.53Z"/>
      <path fill="#353F6E" d="M90.96 46.08c-1.04.89-2.77.55-4.6.05-.24-.24-.54-.4-.86-.46a3.24 3.24 0 0 0-1.08-.09 4.04 4.04 0 0 1-.92-.22c-2.23-1.26-6.04-1.26-6.04-1.26s-3.31 0-5.93 1.27c-2.52 1.22-5.95 2.04-7.56.7a4.47 4.47 0 0 1-1.15-1.74c-.1-.25.22-.44.35-.22.56.93 1.37 1.31 2.46 1.51 2.98.55 6.62-1.98 11.82-1.98s9.12 1.63 11.82 1.98c1.1.15 1.9-.58 2.45-1.5.14-.23.45-.04.35.21a4.4 4.4 0 0 1-1.1 1.75Z"/>
      <path fill="#353F6E" d="M75.11 46.75c-.38-.28.38-.9 2.13-.9 1.62 0 2.26.53 2.17.78-.16.43-1.4-.1-2.22-.1-.82 0-1.7.49-2.08.22ZM72.22 3.5s-5.5 7.4-8.07 10.05c-2.57 2.65-7.86 9.56-8.94 11.47-1.09 1.9-2.46 6.38 1.52 8.94-1.99-4.98 1.83-6.44 3.05-6.2 1.23.23 1.12 4.73 1.12 4.73l1.97 2.65 7.25-.51 4.03-6.03-1.48-1.41a10.2 10.2 0 0 0-5.19-2.17c-3.13-.34-4.3-.24-4.3-.24s.45-3 3.73-2.48c-.95-1.46-1.3-9.12 5.3-18.8Zm10.36 5.22s.8 5.7.84 9.09c.05 3.4.8 8.66-.63 10.05-1.44 1.4.87 1.96.87 1.96l8.87 5.65s2.23-.4 3.29-1.12c1.06-.72 2.77-1.93 3.1-3.4-1.45 1.51-2.68 2.64-3.67 1.4-1-1.24-.3-7.16-3.99-10.06.62 1.33-.14 3.53-1.59 3.27-1.44-.26-3.7-3.77-4.26-6.76-.56-2.99-2.83-10.08-2.83-10.08Z"/>
      <path fill="#F3F3F3" d="m60.28 30.25-3.82-3.46a1.75 1.75 0 0 1 1.04-3 1.64 1.64 0 0 1 1.21.43l3.76 3.41a6.93 6.93 0 0 0-2.2 2.62Z"/>
      <path fill="#CCC" d="M76.08 34.63v.03a8.5 8.5 0 0 1-2.38 5.92 8.05 8.05 0 0 1 0-.02 8.53 8.53 0 0 0 2.38-5.93Zm-16.32-.09c0-.2 0-.4.03-.58l-.03.58Zm8.16 8.51a8.05 8.05 0 0 1-5.77-2.45 8.5 8.5 0 0 1-2.4-5.93v-.05c0 2.23.86 4.37 2.4 5.95a8.08 8.08 0 0 0 5.77 2.48Z"/>
      <path fill="#F3F3F3" d="M59.76 34.54c0-.2 0-.4.03-.58a8.62 8.62 0 0 1 3.48-6.27 7.93 7.93 0 0 1 10.43.96 8.53 8.53 0 0 1 2.38 5.96v.03c0 2.22-.86 4.35-2.38 5.92a8.08 8.08 0 0 1-5.75 2.49h-.03c-2.17 0-4.25-.9-5.78-2.48a8.53 8.53 0 0 1-2.38-5.95v-.08Z"/>
      <path fill="#353F6E" d="M67.95 41.6a6.76 6.76 0 0 0 6.67-6.85 6.76 6.76 0 0 0-6.67-6.85 6.76 6.76 0 0 0-6.67 6.85 6.76 6.76 0 0 0 6.67 6.85Z"/>
      <path fill="#F3F3F3" d="m61.92 30.16 12.7 1.67-1.3-1.67s-1.8-1.74-1.93-1.79c-.12-.04-1.85-.95-2.64-.95-.8 0-2.65-.7-3.44-.28-.78.4-3.39 2.8-3.39 2.8v.22Z"/>
      <path fill="#F3F3F3" d="m73.34 30.33-8.7 5.95 7.83-2.97-2.85 2.6 5.61-2.15-1.89-3.43Z"/>
      <path fill="#353F6E" d="M60.66 29.83s-3.5-3.24-3.6-3.36a1.19 1.19 0 0 1-.06-1.18c.22-.32.04.24.2.62.17.39 4.3 2.75 4.3 2.75l-.84 1.17Z"/>
      <path fill="#F3F3F3" d="m93.16 30.16 3.73-3.37a1.7 1.7 0 0 0 .12-2.38 1.62 1.62 0 0 0-2.3-.13l-3.68 3.33c.9.66 1.64 1.53 2.13 2.55Z"/>
      <path fill="#CCC" d="M77.54 34.63v.03a8.5 8.5 0 0 0 2.38 5.92 8.05 8.05 0 0 0 0-.02 8.53 8.53 0 0 1-2.38-5.93Zm16.31-.09c0-.2 0-.4-.02-.58l.02.58Zm-8.15 8.51c2.16 0 4.24-.88 5.77-2.45a8.5 8.5 0 0 0 2.39-5.93v-.05c0 2.23-.85 4.37-2.38 5.95a8.08 8.08 0 0 1-5.78 2.48Z"/>
      <path fill="#F3F3F3" d="M93.85 34.54c0-.2 0-.4-.02-.58a8.64 8.64 0 0 0-3.48-6.27 7.93 7.93 0 0 0-10.43.98 8.44 8.44 0 0 0-2.38 5.95v.03c0 2.22.85 4.35 2.38 5.93a8.08 8.08 0 0 0 5.75 2.48h.03c2.17 0 4.25-.9 5.78-2.47a8.53 8.53 0 0 0 2.38-5.95v-.1Z"/>
      <path fill="#353F6E" d="M85.63 41.6a6.76 6.76 0 0 0 6.67-6.85 6.76 6.76 0 0 0-6.67-6.85 6.76 6.76 0 0 0-6.66 6.85 6.76 6.76 0 0 0 6.66 6.85Z"/>
      <path fill="#F3F3F3" d="m91.22 30.16-12.5 1.9.75-1.72s2.16-1.92 2.3-1.96c.13-.03 1.83-.96 2.62-.96.8 0 2.65-.7 3.44-.28.78.4 3.39 2.8 3.39 2.8v.22Z"/>
      <path fill="#F3F3F3" d="m91 29.84-8.68 5.94 7.82-2.97-2.85 2.61 5.61-2.15-1.9-3.43Z"/>
      <path fill="#353F6E" d="m93.03 30.02 3.61-3.36a1.2 1.2 0 0 0 .06-1.18c-.23-.32-.05.24-.22.62-.16.4-4.29 2.75-4.29 2.75l.84 1.17Z"/>
    </g>
  </g>
  <defs>
    <linearGradient id="d" x1="17.97" x2="-15.66" y1="28.95" y2="36.95" gradientUnits="userSpaceOnUse">
      <stop offset=".11" stop-color="#9EAAF0"/>
      <stop offset=".77" stop-color="#373F7D" stop-opacity=".2"/>
    </linearGradient>
    <linearGradient id="e" x1="57.4" x2="34.67" y1="93.1" y2="52.12" gradientUnits="userSpaceOnUse">
      <stop offset=".11" stop-color="#9EAAF0"/>
      <stop offset=".77" stop-color="#373F7D" stop-opacity=".2"/>
    </linearGradient>
    <clipPath id="a">
      <path fill="#fff" d="M0 0h182v114H0z"/>
    </clipPath>
    <clipPath id="c">
      <rect width="67.48" height="69.33" fill="#fff" rx="33.74" transform="matrix(-1 0 0 1 90.9 16.41)"/>
    </clipPath>
    <filter id="b" width="138.72" height="140.57" x="-12.19" y="-19.21" color-interpolation-filters="sRGB" filterUnits="userSpaceOnUse">
      <feFlood flood-opacity="0" result="BackgroundImageFix"/>
      <feColorMatrix in="SourceAlpha" result="hardAlpha" values="0 0 0 0 0 0 0 0 0 0 0 0 0 0 0 0 0 0 127 0"/>
      <feOffset/>
      <feGaussianBlur stdDeviation="17.81"/>
      <feComposite in2="hardAlpha" operator="out"/>
      <feColorMatrix values="0 0 0 0 0.376471 0 0 0 0 0.388235 0 0 0 0 0.964706 0 0 0 0.6 0"/>
      <feBlend in2="BackgroundImageFix" result="effect1_dropShadow_20568_278044"/>
      <feBlend in="SourceGraphic" in2="effect1_dropShadow_20568_278044" result="shape"/>
    </filter>
  </defs>
</svg>
