<svg width="218" height="114" viewBox="0 0 218 114" fill="none" xmlns="http://www.w3.org/2000/svg">
<g clip-path="url(#clip0_6132_115556)">
<rect width="218" height="114" fill="white"/>
<rect width="803" height="245.64" transform="translate(-199 -25)" fill="#222326"/>
<g clip-path="url(#clip1_6132_115556)">
<mask id="path-1-inside-1_6132_115556" fill="white">
<path d="M-199 41.5869H604V220.641H-199V41.5869Z"/>
</mask>
<path opacity="0.35" d="M4.79518 63.2617V56.6828H8.87109V57.4214H5.61583V59.5323H8.7024V60.2618H5.61583V62.5231H8.87109V63.2617H4.79518ZM10.2571 63.2617V58.3469H11.0504V59.0855H11.1233C11.3695 58.5658 11.83 58.2603 12.5549 58.2603C13.6582 58.2603 14.2737 58.9123 14.2737 60.0794V63.2617H13.4804V60.2709C13.4804 59.3864 13.1157 58.9624 12.3315 58.9624C11.5473 58.9624 11.0504 59.4913 11.0504 60.353V63.2617H10.2571ZM16.918 63.2617L15.0989 58.3469H15.9378L17.2828 62.3955H17.3557L18.7007 58.3469H19.5396L17.7205 63.2617H16.918ZM21.0076 57.3986C20.7067 57.3986 20.4605 57.1524 20.4605 56.8515C20.4605 56.5506 20.7067 56.3044 21.0076 56.3044C21.3085 56.3044 21.5547 56.5506 21.5547 56.8515C21.5547 57.1524 21.3085 57.3986 21.0076 57.3986ZM20.6064 63.2617V58.3469H21.3997V63.2617H20.6064ZM22.8951 63.2617V58.3469H23.6884V59.0764H23.7614C23.9483 58.5612 24.4088 58.2603 25.0744 58.2603C25.2249 58.2603 25.3936 58.2785 25.4711 58.2922V59.0627C25.3069 59.0354 25.1565 59.0171 24.9832 59.0171C24.2264 59.0171 23.6884 59.4958 23.6884 60.2162V63.2617H22.8951ZM28.3342 63.3483C26.9346 63.3483 26.0683 62.3818 26.0683 60.8089V60.7998C26.0683 59.2223 26.9346 58.2603 28.3342 58.2603C29.7339 58.2603 30.6002 59.2223 30.6002 60.7998V60.8089C30.6002 62.3818 29.7339 63.3483 28.3342 63.3483ZM28.3342 62.6462C29.2643 62.6462 29.7886 61.9669 29.7886 60.8089V60.7998C29.7886 59.6372 29.2643 58.9624 28.3342 58.9624C27.4042 58.9624 26.8799 59.6372 26.8799 60.7998V60.8089C26.8799 61.9669 27.4042 62.6462 28.3342 62.6462ZM31.8311 63.2617V58.3469H32.6244V59.0855H32.6974C32.9436 58.5658 33.4041 58.2603 34.129 58.2603C35.2323 58.2603 35.8478 58.9123 35.8478 60.0794V63.2617H35.0545V60.2709C35.0545 59.3864 34.6897 58.9624 33.9056 58.9624C33.1214 58.9624 32.6244 59.4913 32.6244 60.353V63.2617H31.8311ZM37.2839 63.2617V58.3469H38.0772V59.0946H38.1502C38.369 58.5658 38.834 58.2603 39.4769 58.2603C40.1425 58.2603 40.6076 58.6114 40.8355 59.122H40.9085C41.1729 58.6022 41.7337 58.2603 42.413 58.2603C43.416 58.2603 43.9768 58.8348 43.9768 59.8651V63.2617H43.1835V60.0475C43.1835 59.3226 42.8507 58.9624 42.1577 58.9624C41.4738 58.9624 41.0225 59.4776 41.0225 60.1022V63.2617H40.2292V59.9244C40.2292 59.3408 39.828 58.9624 39.2079 58.9624C38.5651 58.9624 38.0772 59.5232 38.0772 60.2162V63.2617H37.2839ZM47.4144 63.3483C46.0102 63.3483 45.1622 62.3636 45.1622 60.8226V60.818C45.1622 59.2998 46.0284 58.2603 47.3643 58.2603C48.7001 58.2603 49.5117 59.2542 49.5117 60.7223V61.0323H45.9737C45.9965 62.049 46.5573 62.6417 47.4327 62.6417C48.0983 62.6417 48.5086 62.3271 48.6409 62.0307L48.6591 61.9897H49.4524L49.4433 62.0262C49.2746 62.6918 48.5725 63.3483 47.4144 63.3483ZM47.3597 58.967C46.6303 58.967 46.074 59.4639 45.9874 60.3986H48.7047C48.6226 59.4274 48.0846 58.967 47.3597 58.967ZM50.7426 63.2617V58.3469H51.5359V59.0855H51.6089C51.8551 58.5658 52.3156 58.2603 53.0405 58.2603C54.1438 58.2603 54.7593 58.9123 54.7593 60.0794V63.2617H53.966V60.2709C53.966 59.3864 53.6012 58.9624 52.8171 58.9624C52.0329 58.9624 51.5359 59.4913 51.5359 60.353V63.2617H50.7426ZM57.9416 63.2982C56.9294 63.2982 56.5054 62.9243 56.5054 61.9851V59.0034H55.7304V58.3469H56.5054V57.0749H57.3261V58.3469H58.4021V59.0034H57.3261V61.7845C57.3261 62.3636 57.5267 62.5961 58.0373 62.5961C58.1787 62.5961 58.2562 62.5915 58.4021 62.5778V63.2526C58.2471 63.28 58.0966 63.2982 57.9416 63.2982ZM62.3138 63.2617V56.6828H63.1345V63.2617H62.3138ZM64.8123 63.2617V56.6828H67.0691C69.0204 56.6828 70.1739 57.9001 70.1739 59.9654V59.9745C70.1739 62.0444 69.025 63.2617 67.0691 63.2617H64.8123ZM65.6329 62.5231H67.0144C68.4824 62.5231 69.335 61.5839 69.335 59.9837V59.9745C69.335 58.3697 68.4733 57.4214 67.0144 57.4214H65.6329V62.5231Z" fill="#828599"/>
<rect x="79.835" y="50.6208" width="126.282" height="19.2818" rx="2.51386" stroke="#4B4DB4" stroke-width="0.718247"/>
<path d="M85.9962 63.5713V57.4985H89.7585V58.1802H86.7537V60.1288H89.6028V60.8021H86.7537V62.8895H89.7585V63.5713H85.9962ZM91.1305 63.5713V57.4985H91.867L95.1622 62.2246H95.2296V57.4985H95.9787V63.5713H95.2422L91.9469 58.862H91.8796V63.5713H91.1305ZM99.2823 63.5713L97.0434 57.4985H97.8388L99.6232 62.5907H99.6905L101.475 57.4985H102.27L100.031 63.5713H99.2823ZM101.887 64.6739V63.9921H106.917V64.6739H101.887ZM107.695 63.5713V57.4985H108.432L111.727 62.2246H111.794V57.4985H112.543V63.5713H111.807L108.512 58.862H108.444V63.5713H107.695ZM113.608 63.5713L115.847 57.4985H116.596L118.835 63.5713H118.04L117.429 61.8332H115.014L114.403 63.5713H113.608ZM116.188 58.479L115.237 61.1893H117.206L116.255 58.479H116.188ZM119.9 63.5713V57.4985H120.779L122.858 62.5655H122.926L125.005 57.4985H125.884V63.5713H125.177V58.9335H125.131L123.212 63.5713H122.572L120.653 58.9335H120.607V63.5713H119.9ZM127.433 63.5713V57.4985H131.195V58.1802H128.19V60.1288H131.039V60.8021H128.19V62.8895H131.195V63.5713H127.433ZM133.161 63.5713H132.563L132.908 61.8753H131.919L132.037 61.2693H133.034L133.346 59.7374H132.302L132.424 59.1356H133.468L133.804 57.4985H134.402L134.065 59.1356H135.45L135.787 57.4985H136.388L136.052 59.1356H137.1L136.982 59.7374H135.93L135.614 61.2693H136.708L136.59 61.8753H135.492L135.143 63.5713H134.541L134.89 61.8753H133.506L133.161 63.5713ZM133.632 61.2693H135.017L135.328 59.7374H133.943L133.632 61.2693ZM137.996 63.5713V57.4985H138.754V63.5713H137.996ZM140.302 63.5713V57.4985H142.386C144.187 57.4985 145.252 58.6221 145.252 60.5286V60.537C145.252 62.4476 144.191 63.5713 142.386 63.5713H140.302ZM141.06 62.8895H142.335C143.69 62.8895 144.477 62.0226 144.477 60.5454V60.537C144.477 59.0556 143.682 58.1802 142.335 58.1802H141.06V62.8895ZM147.158 63.5713H146.56L146.905 61.8753H145.916L146.034 61.2693H147.032L147.343 59.7374H146.299L146.421 59.1356H147.465L147.802 57.4985H148.399L148.063 59.1356H149.447L149.784 57.4985H150.386L150.049 59.1356H151.097L150.979 59.7374H149.927L149.612 61.2693H150.706L150.588 61.8753H149.489L149.14 63.5713H148.538L148.888 61.8753H147.503L147.158 63.5713ZM147.629 61.2693H149.014L149.325 59.7374H147.941L147.629 61.2693ZM153.382 63.5713V58.3402H153.315L151.77 59.4596V58.66L153.387 57.4985H154.14V63.5713H153.382ZM155.895 63.5713V63.0494L157.949 60.8274C158.723 59.9899 158.95 59.6742 158.95 59.144V59.1356C158.95 58.4959 158.517 58.0161 157.801 58.0161C157.073 58.0161 156.589 58.4917 156.589 59.2071L156.585 59.2155L155.861 59.2113L155.853 59.2071C155.857 58.1297 156.69 57.3554 157.852 57.3554C158.912 57.3554 159.724 58.075 159.724 59.0556V59.064C159.724 59.7584 159.426 60.2634 158.327 61.3955L156.947 62.8222V62.8895H159.825V63.5713H155.895ZM163.163 63.6723C161.909 63.6723 161.096 62.9737 161.016 62.0142L161.012 61.9637H161.74L161.745 62.0057C161.803 62.6033 162.355 63.0158 163.163 63.0158C163.958 63.0158 164.501 62.5697 164.501 61.9258V61.9174C164.501 61.1725 163.967 60.7558 163.117 60.7558H162.355V60.1161H163.083C163.807 60.1161 164.312 59.67 164.312 59.064V59.0556C164.312 58.4201 163.895 58.054 163.154 58.054C162.439 58.054 161.93 58.4327 161.867 59.0472L161.862 59.0893H161.134L161.139 59.0472C161.235 58.0582 162.018 57.3975 163.154 57.3975C164.312 57.3975 165.073 58.0413 165.073 58.963V58.9714C165.073 59.7205 164.543 60.234 163.786 60.3939V60.4107C164.669 60.4865 165.271 61.0378 165.271 61.9005V61.9089C165.271 62.9232 164.379 63.6723 163.163 63.6723ZM169.274 63.5713V62.313H166.315V61.6228C167.136 60.2466 168.066 58.7652 168.916 57.4985H170.014V61.6354H170.877V62.313H170.014V63.5713H169.274ZM167.089 61.6396H169.278V58.2013H169.227C168.545 59.2197 167.75 60.4738 167.089 61.5891V61.6396ZM174.042 63.7144C172.91 63.7144 172.102 62.9863 172.013 62.0142L172.009 61.9679H172.737L172.741 62.0015C172.813 62.5823 173.339 63.0452 174.05 63.0452C174.858 63.0452 175.414 62.4687 175.414 61.648V61.6396C175.414 60.8316 174.85 60.255 174.063 60.255C173.659 60.255 173.314 60.3771 173.053 60.6254C172.948 60.7264 172.851 60.8442 172.775 60.9873H172.118L172.438 57.4985H175.818V58.176H173.036L172.83 60.2298H172.897C173.166 59.8215 173.642 59.5985 174.193 59.5985C175.334 59.5985 176.154 60.4528 176.154 61.627V61.6354C176.154 62.8601 175.275 63.7144 174.042 63.7144ZM177.977 63.6134C177.678 63.6134 177.43 63.3651 177.43 63.0663C177.43 62.7633 177.678 62.5192 177.977 62.5192C178.28 62.5192 178.524 62.7633 178.524 63.0663C178.524 63.3651 178.28 63.6134 177.977 63.6134ZM180.165 63.6134C179.866 63.6134 179.618 63.3651 179.618 63.0663C179.618 62.7633 179.866 62.5192 180.165 62.5192C180.468 62.5192 180.712 62.7633 180.712 63.0663C180.712 63.3651 180.468 63.6134 180.165 63.6134ZM182.353 63.6134C182.055 63.6134 181.806 63.3651 181.806 63.0663C181.806 62.7633 182.055 62.5192 182.353 62.5192C182.656 62.5192 182.901 62.7633 182.901 63.0663C182.901 63.3651 182.656 63.6134 182.353 63.6134Z" fill="#A1B5FF"/>
<g clip-path="url(#clip2_6132_115556)">
<path d="M197.767 61.6083H199.383V57.2988H195.074V58.9149" stroke="#ACAFBF" stroke-width="0.718247" stroke-linecap="round" stroke-linejoin="round"/>
<path d="M197.767 58.915H193.458V63.2245H197.767V58.915Z" stroke="#ACAFBF" stroke-width="0.718247" stroke-linecap="round" stroke-linejoin="round"/>
</g>
<g filter="url(#filter0_d_6132_115556)">
<rect x="-190.381" y="81.8086" width="388.572" height="130.213" rx="5.74598" fill="#1A1B1E"/>
<rect x="-190.022" y="82.1677" width="387.853" height="129.495" rx="5.38685" stroke="#37383F" stroke-width="0.718247"/>
<path d="M-178.767 119.694C-180.207 119.694 -181.137 118.937 -181.233 117.866L-181.238 117.816H-180.417L-180.413 117.866C-180.353 118.522 -179.669 118.937 -178.721 118.937C-177.828 118.937 -177.176 118.477 -177.176 117.807V117.802C-177.176 117.255 -177.554 116.881 -178.457 116.68L-179.186 116.521C-180.504 116.229 -181.074 115.623 -181.074 114.67V114.665C-181.069 113.576 -180.116 112.805 -178.758 112.805C-177.445 112.805 -176.528 113.58 -176.46 114.56L-176.455 114.624H-177.276L-177.285 114.565C-177.376 113.986 -177.923 113.557 -178.78 113.562C-179.601 113.567 -180.235 113.954 -180.235 114.642V114.647C-180.235 115.171 -179.875 115.527 -178.981 115.723L-178.252 115.887C-176.879 116.193 -176.337 116.744 -176.337 117.693V117.697C-176.337 118.928 -177.299 119.694 -178.767 119.694ZM-173.063 119.626C-174.467 119.626 -175.315 118.641 -175.315 117.1V117.095C-175.315 115.577 -174.449 114.538 -173.113 114.538C-171.777 114.538 -170.966 115.532 -170.966 117V117.31H-174.504C-174.481 118.326 -173.92 118.919 -173.045 118.919C-172.379 118.919 -171.969 118.604 -171.837 118.308L-171.819 118.267H-171.025L-171.034 118.304C-171.203 118.969 -171.905 119.626 -173.063 119.626ZM-173.118 115.244C-173.847 115.244 -174.404 115.741 -174.49 116.676H-171.773C-171.855 115.705 -172.393 115.244 -173.118 115.244ZM-167.989 119.576C-169.001 119.576 -169.425 119.202 -169.425 118.262V115.281H-170.2V114.624H-169.425V113.352H-168.604V114.624H-167.528V115.281H-168.604V118.062C-168.604 118.641 -168.404 118.873 -167.893 118.873C-167.752 118.873 -167.674 118.869 -167.528 118.855V119.53C-167.683 119.557 -167.834 119.576 -167.989 119.576ZM-162.071 119.626C-163.188 119.626 -163.762 118.969 -163.762 117.807V114.624H-162.969V117.615C-162.969 118.5 -162.65 118.924 -161.866 118.924C-161 118.924 -160.539 118.395 -160.539 117.533V114.624H-159.746V119.539H-160.539V118.805H-160.612C-160.854 119.329 -161.351 119.626 -162.071 119.626ZM-158.264 121.18V114.624H-157.471V115.408H-157.398C-157.097 114.861 -156.55 114.538 -155.866 114.538C-154.621 114.538 -153.805 115.545 -153.805 117.077V117.086C-153.805 118.627 -154.617 119.626 -155.866 119.626C-156.541 119.626 -157.129 119.288 -157.398 118.764H-157.471V121.18H-158.264ZM-156.048 118.924C-155.15 118.924 -154.617 118.231 -154.617 117.086V117.077C-154.617 115.933 -155.15 115.24 -156.048 115.24C-156.942 115.24 -157.489 115.942 -157.489 117.077V117.086C-157.489 118.221 -156.942 118.924 -156.048 118.924ZM-148.193 119.576C-149.205 119.576 -149.629 119.202 -149.629 118.262V115.281H-150.404V114.624H-149.629V113.352H-148.808V114.624H-147.732V115.281H-148.808V118.062C-148.808 118.641 -148.608 118.873 -148.097 118.873C-147.956 118.873 -147.878 118.869 -147.732 118.855V119.53C-147.887 119.557 -148.038 119.576 -148.193 119.576ZM-146.501 119.539V112.673H-145.708V115.363H-145.635C-145.389 114.843 -144.928 114.538 -144.204 114.538C-143.1 114.538 -142.485 115.19 -142.485 116.357V119.539H-143.278V116.548C-143.278 115.664 -143.643 115.24 -144.427 115.24C-145.211 115.24 -145.708 115.769 -145.708 116.63V119.539H-146.501ZM-139.043 119.626C-140.447 119.626 -141.295 118.641 -141.295 117.1V117.095C-141.295 115.577 -140.429 114.538 -139.093 114.538C-137.757 114.538 -136.945 115.532 -136.945 117V117.31H-140.483C-140.46 118.326 -139.9 118.919 -139.024 118.919C-138.359 118.919 -137.948 118.604 -137.816 118.308L-137.798 118.267H-137.005L-137.014 118.304C-137.182 118.969 -137.884 119.626 -139.043 119.626ZM-139.097 115.244C-139.827 115.244 -140.383 115.741 -140.47 116.676H-137.752C-137.834 115.705 -138.372 115.244 -139.097 115.244ZM-132.76 119.539V115.281H-133.576V114.624H-132.76V114.077C-132.76 113.097 -132.268 112.627 -131.333 112.627C-131.141 112.627 -130.968 112.641 -130.804 112.673V113.307C-130.9 113.288 -131.032 113.284 -131.173 113.284C-131.739 113.284 -131.967 113.562 -131.967 114.1V114.624H-130.85V115.281H-131.967V119.539H-132.76ZM-127.895 119.626C-129.295 119.626 -130.161 118.659 -130.161 117.086V117.077C-130.161 115.5 -129.295 114.538 -127.895 114.538C-126.496 114.538 -125.629 115.5 -125.629 117.077V117.086C-125.629 118.659 -126.496 119.626 -127.895 119.626ZM-127.895 118.924C-126.965 118.924 -126.441 118.244 -126.441 117.086V117.077C-126.441 115.915 -126.965 115.24 -127.895 115.24C-128.825 115.24 -129.35 115.915 -129.35 117.077V117.086C-129.35 118.244 -128.825 118.924 -127.895 118.924ZM-124.353 119.539V112.673H-123.56V119.539H-124.353ZM-121.991 119.539V112.673H-121.198V119.539H-121.991ZM-117.655 119.626C-119.055 119.626 -119.921 118.659 -119.921 117.086V117.077C-119.921 115.5 -119.055 114.538 -117.655 114.538C-116.256 114.538 -115.389 115.5 -115.389 117.077V117.086C-115.389 118.659 -116.256 119.626 -117.655 119.626ZM-117.655 118.924C-116.725 118.924 -116.201 118.244 -116.201 117.086V117.077C-116.201 115.915 -116.725 115.24 -117.655 115.24C-118.585 115.24 -119.11 115.915 -119.11 117.077V117.086C-119.11 118.244 -118.585 118.924 -117.655 118.924ZM-113.393 119.539L-114.769 114.624H-113.976L-113.01 118.554H-112.937L-111.838 114.624H-111.086L-109.987 118.554H-109.914L-108.947 114.624H-108.159L-109.535 119.539H-110.333L-111.432 115.737H-111.505L-112.599 119.539H-113.393ZM-106.691 113.676C-106.991 113.676 -107.238 113.43 -107.238 113.129C-107.238 112.828 -106.991 112.582 -106.691 112.582C-106.39 112.582 -106.143 112.828 -106.143 113.129C-106.143 113.43 -106.39 113.676 -106.691 113.676ZM-107.092 119.539V114.624H-106.298V119.539H-107.092ZM-104.803 119.539V114.624H-104.01V115.363H-103.937C-103.691 114.843 -103.23 114.538 -102.505 114.538C-101.402 114.538 -100.786 115.19 -100.786 116.357V119.539H-101.58V116.548C-101.58 115.664 -101.944 115.24 -102.729 115.24C-103.513 115.24 -104.01 115.769 -104.01 116.63V119.539H-104.803ZM-97.326 121.272C-98.5114 121.272 -99.2682 120.738 -99.3913 119.931L-99.3822 119.927H-98.5615L-98.557 119.931C-98.4703 120.305 -98.0327 120.569 -97.326 120.569C-96.4461 120.569 -95.9218 120.155 -95.9218 119.43V118.436H-95.9947C-96.3047 118.978 -96.861 119.284 -97.5357 119.284C-98.8077 119.284 -99.5965 118.299 -99.5965 116.922V116.913C-99.5965 115.536 -98.8032 114.538 -97.5175 114.538C-96.8245 114.538 -96.2865 114.88 -95.9856 115.436H-95.9309V114.624H-95.1376V119.471C-95.1376 120.569 -95.9856 121.272 -97.326 121.272ZM-97.3625 118.582C-96.4506 118.582 -95.9035 117.898 -95.9035 116.922V116.913C-95.9035 115.937 -96.4552 115.24 -97.3625 115.24C-98.2743 115.24 -98.7849 115.937 -98.7849 116.913V116.922C-98.7849 117.898 -98.2743 118.582 -97.3625 118.582ZM-89.0283 119.626C-90.4325 119.626 -91.2805 118.641 -91.2805 117.1V117.095C-91.2805 115.577 -90.4143 114.538 -89.0784 114.538C-87.7426 114.538 -86.931 115.532 -86.931 117V117.31H-90.469C-90.4462 118.326 -89.8854 118.919 -89.01 118.919C-88.3444 118.919 -87.9341 118.604 -87.8019 118.308L-87.7836 118.267H-86.9903L-86.9994 118.304C-87.1681 118.969 -87.8702 119.626 -89.0283 119.626ZM-89.083 115.244C-89.8125 115.244 -90.3687 115.741 -90.4553 116.676H-87.738C-87.8201 115.705 -88.3581 115.244 -89.083 115.244ZM-85.7001 119.539V114.624H-84.9068V115.363H-84.8338C-84.5876 114.843 -84.1272 114.538 -83.4022 114.538C-82.2989 114.538 -81.6834 115.19 -81.6834 116.357V119.539H-82.4767V116.548C-82.4767 115.664 -82.8415 115.24 -83.6256 115.24C-84.4098 115.24 -84.9068 115.769 -84.9068 116.63V119.539H-85.7001ZM-79.0391 119.539L-80.8582 114.624H-80.0193L-78.6744 118.673H-78.6014L-77.2565 114.624H-76.4176L-78.2367 119.539H-79.0391ZM-74.9495 113.676C-75.2504 113.676 -75.4966 113.43 -75.4966 113.129C-75.4966 112.828 -75.2504 112.582 -74.9495 112.582C-74.6486 112.582 -74.4024 112.828 -74.4024 113.129C-74.4024 113.43 -74.6486 113.676 -74.9495 113.676ZM-75.3507 119.539V114.624H-74.5574V119.539H-75.3507ZM-73.062 119.539V114.624H-72.2687V115.354H-72.1958C-72.0088 114.839 -71.5484 114.538 -70.8827 114.538C-70.7323 114.538 -70.5636 114.556 -70.4861 114.57V115.34C-70.6502 115.313 -70.8007 115.294 -70.9739 115.294C-71.7307 115.294 -72.2687 115.773 -72.2687 116.494V119.539H-73.062ZM-67.6229 119.626C-69.0226 119.626 -69.8888 118.659 -69.8888 117.086V117.077C-69.8888 115.5 -69.0226 114.538 -67.6229 114.538C-66.2232 114.538 -65.357 115.5 -65.357 117.077V117.086C-65.357 118.659 -66.2232 119.626 -67.6229 119.626ZM-67.6229 118.924C-66.6928 118.924 -66.1685 118.244 -66.1685 117.086V117.077C-66.1685 115.915 -66.6928 115.24 -67.6229 115.24C-68.553 115.24 -69.0773 115.915 -69.0773 117.077V117.086C-69.0773 118.244 -68.553 118.924 -67.6229 118.924ZM-64.126 119.539V114.624H-63.3327V115.363H-63.2598C-63.0136 114.843 -62.5531 114.538 -61.8282 114.538C-60.7249 114.538 -60.1094 115.19 -60.1094 116.357V119.539H-60.9027V116.548C-60.9027 115.664 -61.2674 115.24 -62.0516 115.24C-62.8358 115.24 -63.3327 115.769 -63.3327 116.63V119.539H-64.126ZM-58.6732 119.539V114.624H-57.8799V115.372H-57.807C-57.5881 114.843 -57.1231 114.538 -56.4803 114.538C-55.8146 114.538 -55.3496 114.889 -55.1216 115.399H-55.0487C-54.7842 114.88 -54.2235 114.538 -53.5441 114.538C-52.5411 114.538 -51.9803 115.112 -51.9803 116.142V119.539H-52.7736V116.325C-52.7736 115.6 -53.1065 115.24 -53.7995 115.24C-54.4833 115.24 -54.9347 115.755 -54.9347 116.38V119.539H-55.728V116.202C-55.728 115.618 -56.1292 115.24 -56.7492 115.24C-57.3921 115.24 -57.8799 115.801 -57.8799 116.494V119.539H-58.6732ZM-48.5427 119.626C-49.947 119.626 -50.795 118.641 -50.795 117.1V117.095C-50.795 115.577 -49.9287 114.538 -48.5929 114.538C-47.257 114.538 -46.4455 115.532 -46.4455 117V117.31H-49.9834C-49.9606 118.326 -49.3999 118.919 -48.5245 118.919C-47.8588 118.919 -47.4485 118.604 -47.3163 118.308L-47.2981 118.267H-46.5048L-46.5139 118.304C-46.6826 118.969 -47.3847 119.626 -48.5427 119.626ZM-48.5974 115.244C-49.3269 115.244 -49.8831 115.741 -49.9697 116.676H-47.2525C-47.3345 115.705 -47.8725 115.244 -48.5974 115.244ZM-45.2145 119.539V114.624H-44.4212V115.363H-44.3483C-44.1021 114.843 -43.6416 114.538 -42.9167 114.538C-41.8134 114.538 -41.1979 115.19 -41.1979 116.357V119.539H-41.9912V116.548C-41.9912 115.664 -42.3559 115.24 -43.1401 115.24C-43.9243 115.24 -44.4212 115.769 -44.4212 116.63V119.539H-45.2145ZM-38.0156 119.576C-39.0277 119.576 -39.4517 119.202 -39.4517 118.262V115.281H-40.2268V114.624H-39.4517V113.352H-38.6311V114.624H-37.5551V115.281H-38.6311V118.062C-38.6311 118.641 -38.4305 118.873 -37.9198 118.873C-37.7785 118.873 -37.701 118.869 -37.5551 118.855V119.53C-37.7101 119.557 -37.8606 119.576 -38.0156 119.576ZM-32.3531 119.539L-34.1722 114.624H-33.3333L-31.9883 118.673H-31.9154L-30.5704 114.624H-29.7315L-31.5506 119.539H-32.3531ZM-27.5158 119.626C-28.4504 119.626 -29.1571 119.06 -29.1571 118.167V118.158C-29.1571 117.282 -28.5097 116.776 -27.3653 116.708L-25.9565 116.621V116.174C-25.9565 115.568 -26.3258 115.24 -27.0598 115.24C-27.648 115.24 -28.0355 115.459 -28.1632 115.842L-28.1677 115.855H-28.961L-28.9565 115.828C-28.8288 115.057 -28.0811 114.538 -27.0325 114.538C-25.8334 114.538 -25.1632 115.153 -25.1632 116.174V119.539H-25.9565V118.814H-26.0295C-26.3395 119.338 -26.8547 119.626 -27.5158 119.626ZM-28.3455 118.149C-28.3455 118.645 -27.9215 118.937 -27.3516 118.937C-26.5447 118.937 -25.9565 118.408 -25.9565 117.706V117.259L-27.2696 117.342C-28.0173 117.387 -28.3455 117.652 -28.3455 118.139V118.149ZM-23.7134 119.539V114.624H-22.9201V115.354H-22.8471C-22.6602 114.839 -22.1997 114.538 -21.5341 114.538C-21.3836 114.538 -21.215 114.556 -21.1375 114.57V115.34C-21.3016 115.313 -21.452 115.294 -21.6253 115.294C-22.3821 115.294 -22.9201 115.773 -22.9201 116.494V119.539H-23.7134ZM-19.7378 113.676C-20.0387 113.676 -20.2849 113.43 -20.2849 113.129C-20.2849 112.828 -20.0387 112.582 -19.7378 112.582C-19.4369 112.582 -19.1907 112.828 -19.1907 113.129C-19.1907 113.43 -19.4369 113.676 -19.7378 113.676ZM-20.139 119.539V114.624H-19.3457V119.539H-20.139ZM-16.5008 119.626C-17.4354 119.626 -18.1421 119.06 -18.1421 118.167V118.158C-18.1421 117.282 -17.4947 116.776 -16.3503 116.708L-14.9415 116.621V116.174C-14.9415 115.568 -15.3108 115.24 -16.0449 115.24C-16.633 115.24 -17.0205 115.459 -17.1482 115.842L-17.1527 115.855H-17.946L-17.9415 115.828C-17.8138 115.057 -17.0661 114.538 -16.0175 114.538C-14.8184 114.538 -14.1482 115.153 -14.1482 116.174V119.539H-14.9415V118.814H-15.0145C-15.3245 119.338 -15.8397 119.626 -16.5008 119.626ZM-17.3305 118.149C-17.3305 118.645 -16.9065 118.937 -16.3366 118.937C-15.5297 118.937 -14.9415 118.408 -14.9415 117.706V117.259L-16.2546 117.342C-17.0023 117.387 -17.3305 117.652 -17.3305 118.139V118.149ZM-10.2547 119.626C-10.9386 119.626 -11.4857 119.302 -11.7866 118.755H-11.8595V119.539H-12.6528V112.673H-11.8595V115.399H-11.7866C-11.5176 114.875 -10.9294 114.538 -10.2547 114.538C-9.00547 114.538 -8.19393 115.536 -8.19393 117.077V117.086C-8.19393 118.618 -9.01003 119.626 -10.2547 119.626ZM-10.4371 118.924C-9.53889 118.924 -9.00547 118.231 -9.00547 117.086V117.077C-9.00547 115.933 -9.53889 115.24 -10.4371 115.24C-11.3307 115.24 -11.8778 115.942 -11.8778 117.077V117.086C-11.8778 118.221 -11.3307 118.924 -10.4371 118.924ZM-6.91736 119.539V112.673H-6.12406V119.539H-6.91736ZM-2.59526 119.626C-3.99949 119.626 -4.8475 118.641 -4.8475 117.1V117.095C-4.8475 115.577 -3.98125 114.538 -2.64541 114.538C-1.30957 114.538 -0.498036 115.532 -0.498036 117V117.31H-4.03596C-4.01317 118.326 -3.45239 118.919 -2.57702 118.919C-1.91138 118.919 -1.50106 118.604 -1.36884 118.308L-1.3506 118.267H-0.557305L-0.566423 118.304C-0.735113 118.969 -1.43723 119.626 -2.59526 119.626ZM-2.64997 115.244C-3.37944 115.244 -3.93566 115.741 -4.02229 116.676H-1.30501C-1.38708 115.705 -1.92506 115.244 -2.64997 115.244ZM2.41984 119.626C1.32564 119.626 0.573371 119.097 0.482187 118.285H1.29372C1.42594 118.696 1.81803 118.965 2.4472 118.965C3.10828 118.965 3.57787 118.65 3.57787 118.203V118.194C3.57787 117.861 3.32712 117.629 2.72075 117.483L1.95936 117.301C1.03841 117.082 0.623522 116.68 0.623522 115.974V115.969C0.623522 115.153 1.4077 114.538 2.45175 114.538C3.48213 114.538 4.19792 115.053 4.30734 115.855H3.52772C3.42286 115.468 3.03989 115.199 2.4472 115.199C1.86362 115.199 1.43506 115.5 1.43506 115.933V115.942C1.43506 116.275 1.68125 116.484 2.26027 116.626L3.01709 116.808C3.94261 117.032 4.38941 117.433 4.38941 118.135V118.144C4.38941 119.019 3.53684 119.626 2.41984 119.626ZM9.19479 119.539L7.81791 114.624H8.61121L9.57776 118.554H9.65071L10.7495 114.624H11.5017L12.6005 118.554H12.6734L13.64 114.624H14.4287L13.0519 119.539H12.254L11.1552 115.737H11.0823L9.98809 119.539H9.19479ZM15.5229 119.539V112.673H16.3162V115.363H16.3892C16.6354 114.843 17.0959 114.538 17.8208 114.538C18.9241 114.538 19.5396 115.19 19.5396 116.357V119.539H18.7463V116.548C18.7463 115.664 18.3816 115.24 17.5974 115.24C16.8132 115.24 16.3162 115.769 16.3162 116.63V119.539H15.5229ZM22.9818 119.626C21.5775 119.626 20.7295 118.641 20.7295 117.1V117.095C20.7295 115.577 21.5958 114.538 22.9316 114.538C24.2675 114.538 25.079 115.532 25.079 117V117.31H21.5411C21.5639 118.326 22.1246 118.919 23 118.919C23.6656 118.919 24.076 118.604 24.2082 118.308L24.2264 118.267H25.0197L25.0106 118.304C24.8419 118.969 24.1398 119.626 22.9818 119.626ZM22.9271 115.244C22.1976 115.244 21.6414 115.741 21.5547 116.676H24.272C24.1899 115.705 23.652 115.244 22.9271 115.244ZM26.31 119.539V114.624H27.1033V115.363H27.1762C27.4224 114.843 27.8829 114.538 28.6078 114.538C29.7111 114.538 30.3266 115.19 30.3266 116.357V119.539H29.5333V116.548C29.5333 115.664 29.1686 115.24 28.3844 115.24C27.6002 115.24 27.1033 115.769 27.1033 116.63V119.539H26.31ZM34.3888 119.539V114.624H35.1821V115.354H35.2551C35.442 114.839 35.9025 114.538 36.5681 114.538C36.7186 114.538 36.8873 114.556 36.9648 114.57V115.34C36.8006 115.313 36.6502 115.294 36.4769 115.294C35.7201 115.294 35.1821 115.773 35.1821 116.494V119.539H34.3888ZM39.5909 119.626C38.4739 119.626 37.8994 118.969 37.8994 117.807V114.624H38.6927V117.615C38.6927 118.5 39.0119 118.924 39.796 118.924C40.6623 118.924 41.1228 118.395 41.1228 117.533V114.624H41.9161V119.539H41.1228V118.805H41.0498C40.8082 119.329 40.3112 119.626 39.5909 119.626ZM43.3978 119.539V114.624H44.1911V115.363H44.264C44.5102 114.843 44.9707 114.538 45.6956 114.538C46.7989 114.538 47.4144 115.19 47.4144 116.357V119.539H46.6211V116.548C46.6211 115.664 46.2564 115.24 45.4722 115.24C44.688 115.24 44.1911 115.769 44.1911 116.63V119.539H43.3978ZM48.8506 119.539V114.624H49.6439V115.363H49.7168C49.963 114.843 50.4235 114.538 51.1484 114.538C52.2517 114.538 52.8672 115.19 52.8672 116.357V119.539H52.0739V116.548C52.0739 115.664 51.7092 115.24 50.925 115.24C50.1408 115.24 49.6439 115.769 49.6439 116.63V119.539H48.8506ZM54.7228 113.676C54.4219 113.676 54.1757 113.43 54.1757 113.129C54.1757 112.828 54.4219 112.582 54.7228 112.582C55.0237 112.582 55.2699 112.828 55.2699 113.129C55.2699 113.43 55.0237 113.676 54.7228 113.676ZM54.3216 119.539V114.624H55.1149V119.539H54.3216ZM56.6103 119.539V114.624H57.4036V115.363H57.4766C57.7227 114.843 58.1832 114.538 58.9081 114.538C60.0115 114.538 60.6269 115.19 60.6269 116.357V119.539H59.8337V116.548C59.8337 115.664 59.4689 115.24 58.6847 115.24C57.9006 115.24 57.4036 115.769 57.4036 116.63V119.539H56.6103ZM64.0874 121.272C62.902 121.272 62.1452 120.738 62.0221 119.931L62.0312 119.927H62.8518L62.8564 119.931C62.943 120.305 63.3807 120.569 64.0874 120.569C64.9673 120.569 65.4916 120.155 65.4916 119.43V118.436H65.4187C65.1086 118.978 64.5524 119.284 63.8777 119.284C62.6056 119.284 61.8169 118.299 61.8169 116.922V116.913C61.8169 115.536 62.6102 114.538 63.8959 114.538C64.5889 114.538 65.1269 114.88 65.4278 115.436H65.4825V114.624H66.2758V119.471C66.2758 120.569 65.4278 121.272 64.0874 121.272ZM64.0509 118.582C64.9627 118.582 65.5098 117.898 65.5098 116.922V116.913C65.5098 115.937 64.9582 115.24 64.0509 115.24C63.1391 115.24 62.6284 115.937 62.6284 116.913V116.922C62.6284 117.898 63.1391 118.582 64.0509 118.582ZM70.7985 121.262C70.6936 121.262 70.5569 121.253 70.4474 121.235V120.583C70.5432 120.601 70.6663 120.606 70.7757 120.606C71.2271 120.606 71.5006 120.401 71.6784 119.835L71.7696 119.544L69.9505 114.624H70.7985L72.148 118.668H72.221L73.5659 114.624H74.4002L72.4808 119.84C72.0751 120.943 71.6693 121.262 70.7985 121.262ZM77.2862 119.626C75.8865 119.626 75.0203 118.659 75.0203 117.086V117.077C75.0203 115.5 75.8865 114.538 77.2862 114.538C78.6859 114.538 79.5521 115.5 79.5521 117.077V117.086C79.5521 118.659 78.6859 119.626 77.2862 119.626ZM77.2862 118.924C78.2163 118.924 78.7406 118.244 78.7406 117.086V117.077C78.7406 115.915 78.2163 115.24 77.2862 115.24C76.3561 115.24 75.8318 115.915 75.8318 117.077V117.086C75.8318 118.244 76.3561 118.924 77.2862 118.924ZM82.429 119.626C81.312 119.626 80.7375 118.969 80.7375 117.807V114.624H81.5308V117.615C81.5308 118.5 81.85 118.924 82.6341 118.924C83.5004 118.924 83.9609 118.395 83.9609 117.533V114.624H84.7542V119.539H83.9609V118.805H83.8879C83.6463 119.329 83.1493 119.626 82.429 119.626ZM86.2359 119.539V114.624H87.0292V115.354H87.1021C87.2891 114.839 87.7496 114.538 88.4152 114.538C88.5656 114.538 88.7343 114.556 88.8118 114.57V115.34C88.6477 115.313 88.4973 115.294 88.324 115.294C87.5672 115.294 87.0292 115.773 87.0292 116.494V119.539H86.2359ZM94.4288 119.626C93.0519 119.626 92.172 118.627 92.172 117.068V117.059C92.172 115.532 93.0473 114.538 94.4242 114.538C95.6187 114.538 96.3345 115.226 96.4804 116.101L96.4849 116.129H95.6962L95.6916 116.115C95.5685 115.632 95.1309 115.24 94.4242 115.24C93.5397 115.24 92.9835 115.951 92.9835 117.059V117.068C92.9835 118.199 93.5488 118.924 94.4242 118.924C95.0853 118.924 95.5047 118.632 95.6871 118.085L95.6962 118.057L96.4804 118.053L96.4713 118.103C96.2707 118.992 95.6096 119.626 94.4288 119.626ZM99.6627 119.626C98.263 119.626 97.3968 118.659 97.3968 117.086V117.077C97.3968 115.5 98.263 114.538 99.6627 114.538C101.062 114.538 101.929 115.5 101.929 117.077V117.086C101.929 118.659 101.062 119.626 99.6627 119.626ZM99.6627 118.924C100.593 118.924 101.117 118.244 101.117 117.086V117.077C101.117 115.915 100.593 115.24 99.6627 115.24C98.7326 115.24 98.2083 115.915 98.2083 117.077V117.086C98.2083 118.244 98.7326 118.924 99.6627 118.924ZM104.974 119.626C103.729 119.626 102.913 118.618 102.913 117.086V117.077C102.913 115.536 103.725 114.538 104.974 114.538C105.649 114.538 106.237 114.875 106.506 115.399H106.579V112.673H107.372V119.539H106.579V118.755H106.506C106.205 119.302 105.658 119.626 104.974 119.626ZM105.157 118.924C106.05 118.924 106.597 118.221 106.597 117.086V117.077C106.597 115.942 106.05 115.24 105.157 115.24C104.258 115.24 103.725 115.933 103.725 117.077V117.086C103.725 118.231 104.258 118.924 105.157 118.924ZM110.901 119.626C109.497 119.626 108.649 118.641 108.649 117.1V117.095C108.649 115.577 109.515 114.538 110.851 114.538C112.187 114.538 112.998 115.532 112.998 117V117.31H109.46C109.483 118.326 110.044 118.919 110.919 118.919C111.585 118.919 111.995 118.604 112.128 118.308L112.146 118.267H112.939L112.93 118.304C112.761 118.969 112.059 119.626 110.901 119.626ZM110.846 115.244C110.117 115.244 109.561 115.741 109.474 116.676H112.191C112.109 115.705 111.571 115.244 110.846 115.244ZM118.602 119.576C117.589 119.576 117.165 119.202 117.165 118.262V115.281H116.39V114.624H117.165V113.352H117.986V114.624H119.062V115.281H117.986V118.062C117.986 118.641 118.187 118.873 118.697 118.873C118.839 118.873 118.916 118.869 119.062 118.855V119.53C118.907 119.557 118.757 119.576 118.602 119.576ZM122.194 119.626C120.795 119.626 119.928 118.659 119.928 117.086V117.077C119.928 115.5 120.795 114.538 122.194 114.538C123.594 114.538 124.46 115.5 124.46 117.077V117.086C124.46 118.659 123.594 119.626 122.194 119.626ZM122.194 118.924C123.124 118.924 123.649 118.244 123.649 117.086V117.077C123.649 115.915 123.124 115.24 122.194 115.24C121.264 115.24 120.74 115.915 120.74 117.077V117.086C120.74 118.244 121.264 118.924 122.194 118.924ZM130.063 119.576C129.051 119.576 128.627 119.202 128.627 118.262V115.281H127.852V114.624H128.627V113.352H129.448V114.624H130.524V115.281H129.448V118.062C129.448 118.641 129.648 118.873 130.159 118.873C130.3 118.873 130.378 118.869 130.524 118.855V119.53C130.369 119.557 130.218 119.576 130.063 119.576ZM133.059 119.626C132.124 119.626 131.417 119.06 131.417 118.167V118.158C131.417 117.282 132.065 116.776 133.209 116.708L134.618 116.621V116.174C134.618 115.568 134.249 115.24 133.515 115.24C132.927 115.24 132.539 115.459 132.411 115.842L132.407 115.855H131.613L131.618 115.828C131.746 115.057 132.493 114.538 133.542 114.538C134.741 114.538 135.411 115.153 135.411 116.174V119.539H134.618V118.814H134.545C134.235 119.338 133.72 119.626 133.059 119.626ZM132.229 118.149C132.229 118.645 132.653 118.937 133.223 118.937C134.03 118.937 134.618 118.408 134.618 117.706V117.259L133.305 117.342C132.557 117.387 132.229 117.652 132.229 118.139V118.149ZM138.885 121.272C137.7 121.272 136.943 120.738 136.82 119.931L136.829 119.927H137.65L137.654 119.931C137.741 120.305 138.179 120.569 138.885 120.569C139.765 120.569 140.29 120.155 140.29 119.43V118.436H140.217C139.907 118.978 139.35 119.284 138.676 119.284C137.404 119.284 136.615 118.299 136.615 116.922V116.913C136.615 115.536 137.408 114.538 138.694 114.538C139.387 114.538 139.925 114.88 140.226 115.436H140.28V114.624H141.074V119.471C141.074 120.569 140.226 121.272 138.885 121.272ZM138.849 118.582C139.761 118.582 140.308 117.898 140.308 116.922V116.913C140.308 115.937 139.756 115.24 138.849 115.24C137.937 115.24 137.426 115.937 137.426 116.913V116.922C137.426 117.898 137.937 118.582 138.849 118.582ZM146.923 119.576C145.911 119.576 145.487 119.202 145.487 118.262V115.281H144.712V114.624H145.487V113.352H146.308V114.624H147.384V115.281H146.308V118.062C146.308 118.641 146.508 118.873 147.019 118.873C147.16 118.873 147.238 118.869 147.384 118.855V119.53C147.229 119.557 147.078 119.576 146.923 119.576ZM148.615 119.539V112.673H149.408V115.363H149.481C149.727 114.843 150.188 114.538 150.912 114.538C152.016 114.538 152.631 115.19 152.631 116.357V119.539H151.838V116.548C151.838 115.664 151.473 115.24 150.689 115.24C149.905 115.24 149.408 115.769 149.408 116.63V119.539H148.615ZM156.073 119.626C154.669 119.626 153.821 118.641 153.821 117.1V117.095C153.821 115.577 154.687 114.538 156.023 114.538C157.359 114.538 158.171 115.532 158.171 117V117.31H154.633C154.656 118.326 155.216 118.919 156.092 118.919C156.757 118.919 157.168 118.604 157.3 118.308L157.318 118.267H158.111L158.102 118.304C157.934 118.969 157.232 119.626 156.073 119.626ZM156.019 115.244C155.289 115.244 154.733 115.741 154.646 116.676H157.364C157.282 115.705 156.744 115.244 156.019 115.244ZM-179.004 131.626C-180.403 131.626 -181.27 130.659 -181.27 129.086V129.077C-181.27 127.5 -180.403 126.538 -179.004 126.538C-177.604 126.538 -176.738 127.5 -176.738 129.077V129.086C-176.738 130.659 -177.604 131.626 -179.004 131.626ZM-179.004 130.924C-178.074 130.924 -177.549 130.244 -177.549 129.086V129.077C-177.549 127.915 -178.074 127.24 -179.004 127.24C-179.934 127.24 -180.458 127.915 -180.458 129.077V129.086C-180.458 130.244 -179.934 130.924 -179.004 130.924ZM-173.063 131.626C-173.747 131.626 -174.294 131.302 -174.595 130.755H-174.668V131.539H-175.461V124.673H-174.668V127.399H-174.595C-174.326 126.875 -173.738 126.538 -173.063 126.538C-171.814 126.538 -171.002 127.536 -171.002 129.077V129.086C-171.002 130.618 -171.819 131.626 -173.063 131.626ZM-173.246 130.924C-172.347 130.924 -171.814 130.231 -171.814 129.086V129.077C-171.814 127.933 -172.347 127.24 -173.246 127.24C-174.139 127.24 -174.686 127.942 -174.686 129.077V129.086C-174.686 130.221 -174.139 130.924 -173.246 130.924ZM-168.085 131.626C-169.179 131.626 -169.931 131.097 -170.022 130.285H-169.211C-169.078 130.696 -168.686 130.965 -168.057 130.965C-167.396 130.965 -166.926 130.65 -166.926 130.203V130.194C-166.926 129.861 -167.177 129.629 -167.784 129.483L-168.545 129.301C-169.466 129.082 -169.881 128.68 -169.881 127.974V127.969C-169.881 127.153 -169.097 126.538 -168.053 126.538C-167.022 126.538 -166.306 127.053 -166.197 127.855H-166.977C-167.082 127.468 -167.464 127.199 -168.057 127.199C-168.641 127.199 -169.069 127.5 -169.069 127.933V127.942C-169.069 128.275 -168.823 128.484 -168.244 128.626L-167.487 128.808C-166.562 129.032 -166.115 129.433 -166.115 130.135V130.144C-166.115 131.019 -166.968 131.626 -168.085 131.626ZM-162.878 131.626C-164.282 131.626 -165.13 130.641 -165.13 129.1V129.095C-165.13 127.577 -164.264 126.538 -162.928 126.538C-161.592 126.538 -160.781 127.532 -160.781 129V129.31H-164.319C-164.296 130.326 -163.735 130.919 -162.86 130.919C-162.194 130.919 -161.784 130.604 -161.652 130.308L-161.633 130.267H-160.84L-160.849 130.304C-161.018 130.969 -161.72 131.626 -162.878 131.626ZM-162.933 127.244C-163.662 127.244 -164.218 127.741 -164.305 128.676H-161.588C-161.67 127.705 -162.208 127.244 -162.933 127.244ZM-159.55 131.539V126.624H-158.756V127.354H-158.683C-158.497 126.839 -158.036 126.538 -157.37 126.538C-157.22 126.538 -157.051 126.556 -156.974 126.57V127.34C-157.138 127.313 -157.288 127.294 -157.462 127.294C-158.218 127.294 -158.756 127.773 -158.756 128.494V131.539H-159.55ZM-154.557 131.539L-156.377 126.624H-155.538L-154.193 130.673H-154.12L-152.775 126.624H-151.936L-153.755 131.539H-154.557ZM-149.72 131.626C-150.655 131.626 -151.361 131.06 -151.361 130.167V130.158C-151.361 129.282 -150.714 128.776 -149.57 128.708L-148.161 128.621V128.174C-148.161 127.568 -148.53 127.24 -149.264 127.24C-149.852 127.24 -150.24 127.459 -150.368 127.842L-150.372 127.855H-151.165L-151.161 127.828C-151.033 127.057 -150.285 126.538 -149.237 126.538C-148.038 126.538 -147.368 127.153 -147.368 128.174V131.539H-148.161V130.814H-148.234C-148.544 131.338 -149.059 131.626 -149.72 131.626ZM-150.55 130.149C-150.55 130.645 -150.126 130.937 -149.556 130.937C-148.749 130.937 -148.161 130.408 -148.161 129.706V129.259L-149.474 129.342C-150.222 129.387 -150.55 129.652 -150.55 130.139V130.149ZM-143.474 131.626C-144.158 131.626 -144.705 131.302 -145.006 130.755H-145.079V131.539H-145.872V124.673H-145.079V127.399H-145.006C-144.737 126.875 -144.149 126.538 -143.474 126.538C-142.225 126.538 -141.413 127.536 -141.413 129.077V129.086C-141.413 130.618 -142.229 131.626 -143.474 131.626ZM-143.656 130.924C-142.758 130.924 -142.225 130.231 -142.225 129.086V129.077C-142.225 127.933 -142.758 127.24 -143.656 127.24C-144.55 127.24 -145.097 127.942 -145.097 129.077V129.086C-145.097 130.221 -144.55 130.924 -143.656 130.924ZM-139.763 125.676C-140.064 125.676 -140.31 125.43 -140.31 125.129C-140.31 124.828 -140.064 124.582 -139.763 124.582C-139.462 124.582 -139.216 124.828 -139.216 125.129C-139.216 125.43 -139.462 125.676 -139.763 125.676ZM-140.164 131.539V126.624H-139.371V131.539H-140.164ZM-137.83 131.539V124.673H-137.036V131.539H-137.83ZM-135.094 125.676C-135.395 125.676 -135.641 125.43 -135.641 125.129C-135.641 124.828 -135.395 124.582 -135.094 124.582C-134.793 124.582 -134.547 124.828 -134.547 125.129C-134.547 125.43 -134.793 125.676 -135.094 125.676ZM-135.495 131.539V126.624H-134.702V131.539H-135.495ZM-131.461 131.576C-132.473 131.576 -132.897 131.202 -132.897 130.262V127.281H-133.672V126.624H-132.897V125.352H-132.076V126.624H-131V127.281H-132.076V130.062C-132.076 130.641 -131.875 130.873 -131.365 130.873C-131.224 130.873 -131.146 130.869 -131 130.855V131.53C-131.155 131.557 -131.306 131.576 -131.461 131.576ZM-129.395 133.262C-129.5 133.262 -129.637 133.253 -129.746 133.235V132.583C-129.651 132.601 -129.528 132.606 -129.418 132.606C-128.967 132.606 -128.693 132.401 -128.515 131.835L-128.424 131.544L-130.243 126.624H-129.395L-128.046 130.668H-127.973L-126.628 126.624H-125.794L-127.713 131.84C-128.119 132.943 -128.524 133.262 -129.395 133.262ZM-120.304 131.626C-121.549 131.626 -122.365 130.618 -122.365 129.086V129.077C-122.365 127.536 -121.553 126.538 -120.304 126.538C-119.63 126.538 -119.041 126.875 -118.772 127.399H-118.699V124.673H-117.906V131.539H-118.699V130.755H-118.772C-119.073 131.302 -119.62 131.626 -120.304 131.626ZM-120.122 130.924C-119.228 130.924 -118.681 130.221 -118.681 129.086V129.077C-118.681 127.942 -119.228 127.24 -120.122 127.24C-121.02 127.24 -121.553 127.933 -121.553 129.077V129.086C-121.553 130.231 -121.02 130.924 -120.122 130.924ZM-115.034 131.626C-115.968 131.626 -116.675 131.06 -116.675 130.167V130.158C-116.675 129.282 -116.028 128.776 -114.883 128.708L-113.475 128.621V128.174C-113.475 127.568 -113.844 127.24 -114.578 127.24C-115.166 127.24 -115.554 127.459 -115.681 127.842L-115.686 127.855H-116.479L-116.475 127.828C-116.347 127.057 -115.599 126.538 -114.551 126.538C-113.352 126.538 -112.681 127.153 -112.681 128.174V131.539H-113.475V130.814H-113.548C-113.858 131.338 -114.373 131.626 -115.034 131.626ZM-115.864 130.149C-115.864 130.645 -115.44 130.937 -114.87 130.937C-114.063 130.937 -113.475 130.408 -113.475 129.706V129.259L-114.788 129.342C-115.535 129.387 -115.864 129.652 -115.864 130.139V130.149ZM-109.485 131.576C-110.497 131.576 -110.921 131.202 -110.921 130.262V127.281H-111.697V126.624H-110.921V125.352H-110.101V126.624H-109.025V127.281H-110.101V130.062C-110.101 130.641 -109.9 130.873 -109.39 130.873C-109.248 130.873 -109.171 130.869 -109.025 130.855V131.53C-109.18 131.557 -109.33 131.576 -109.485 131.576ZM-106.49 131.626C-107.425 131.626 -108.131 131.06 -108.131 130.167V130.158C-108.131 129.282 -107.484 128.776 -106.339 128.708L-104.931 128.621V128.174C-104.931 127.568 -105.3 127.24 -106.034 127.24C-106.622 127.24 -107.01 127.459 -107.137 127.842L-107.142 127.855H-107.935L-107.931 127.828C-107.803 127.057 -107.055 126.538 -106.007 126.538C-104.808 126.538 -104.137 127.153 -104.137 128.174V131.539H-104.931V130.814H-105.004C-105.314 131.338 -105.829 131.626 -106.49 131.626ZM-107.32 130.149C-107.32 130.645 -106.896 130.937 -106.326 130.937C-105.519 130.937 -104.931 130.408 -104.931 129.706V129.259L-106.244 129.342C-106.991 129.387 -107.32 129.652 -107.32 130.139V130.149ZM-99.1132 131.539L-100.49 126.624H-99.6968L-98.7302 130.554H-98.6573L-97.5585 126.624H-96.8062L-95.7075 130.554H-95.6345L-94.668 126.624H-93.8792L-95.2561 131.539H-96.054L-97.1527 127.737H-97.2257L-98.3199 131.539H-99.1132ZM-92.4112 125.676C-92.7121 125.676 -92.9583 125.43 -92.9583 125.129C-92.9583 124.828 -92.7121 124.582 -92.4112 124.582C-92.1103 124.582 -91.8641 124.828 -91.8641 125.129C-91.8641 125.43 -92.1103 125.676 -92.4112 125.676ZM-92.8124 131.539V126.624H-92.0191V131.539H-92.8124ZM-88.7775 131.576C-89.7897 131.576 -90.2137 131.202 -90.2137 130.262V127.281H-90.9887V126.624H-90.2137V125.352H-89.393V126.624H-88.317V127.281H-89.393V130.062C-89.393 130.641 -89.1924 130.873 -88.6818 130.873C-88.5404 130.873 -88.4629 130.869 -88.317 130.855V131.53C-88.4721 131.557 -88.6225 131.576 -88.7775 131.576ZM-87.0861 131.539V124.673H-86.2928V127.363H-86.2198C-85.9736 126.843 -85.5131 126.538 -84.7882 126.538C-83.6849 126.538 -83.0694 127.19 -83.0694 128.357V131.539H-83.8627V128.548C-83.8627 127.664 -84.2275 127.24 -85.0116 127.24C-85.7958 127.24 -86.2928 127.769 -86.2928 128.63V131.539H-87.0861ZM-77.261 131.576C-78.2732 131.576 -78.6972 131.202 -78.6972 130.262V127.281H-79.4722V126.624H-78.6972V125.352H-77.8765V126.624H-76.8005V127.281H-77.8765V130.062C-77.8765 130.641 -77.6759 130.873 -77.1653 130.873C-77.0239 130.873 -76.9464 130.869 -76.8005 130.855V131.53C-76.9556 131.557 -77.106 131.576 -77.261 131.576ZM-75.5696 131.539V124.673H-74.7763V127.363H-74.7033C-74.4571 126.843 -73.9966 126.538 -73.2717 126.538C-72.1684 126.538 -71.5529 127.19 -71.5529 128.357V131.539H-72.3462V128.548C-72.3462 127.664 -72.711 127.24 -73.4951 127.24C-74.2793 127.24 -74.7763 127.769 -74.7763 128.63V131.539H-75.5696ZM-69.6973 125.676C-69.9982 125.676 -70.2444 125.43 -70.2444 125.129C-70.2444 124.828 -69.9982 124.582 -69.6973 124.582C-69.3964 124.582 -69.1502 124.828 -69.1502 125.129C-69.1502 125.43 -69.3964 125.676 -69.6973 125.676ZM-70.0985 131.539V126.624H-69.3052V131.539H-70.0985ZM-66.1229 131.626C-67.2171 131.626 -67.9694 131.097 -68.0606 130.285H-67.249C-67.1168 130.696 -66.7247 130.965 -66.0956 130.965C-65.4345 130.965 -64.9649 130.65 -64.9649 130.203V130.194C-64.9649 129.861 -65.2157 129.629 -65.822 129.483L-66.5834 129.301C-67.5044 129.082 -67.9192 128.68 -67.9192 127.974V127.969C-67.9192 127.153 -67.1351 126.538 -66.091 126.538C-65.0606 126.538 -64.3448 127.053 -64.2354 127.855H-65.015C-65.1199 127.468 -65.5029 127.199 -66.0956 127.199C-66.6792 127.199 -67.1077 127.5 -67.1077 127.933V127.942C-67.1077 128.275 -66.8615 128.484 -66.2825 128.626L-65.5257 128.808C-64.6002 129.032 -64.1534 129.433 -64.1534 130.135V130.144C-64.1534 131.019 -65.0059 131.626 -66.1229 131.626ZM-60.2963 131.539V126.624H-59.503V127.354H-59.43C-59.2431 126.839 -58.7826 126.538 -58.117 126.538C-57.9666 126.538 -57.7979 126.556 -57.7204 126.57V127.34C-57.8845 127.313 -58.0349 127.294 -58.2082 127.294C-58.965 127.294 -59.503 127.773 -59.503 128.494V131.539H-60.2963ZM-55.0943 131.626C-56.2113 131.626 -56.7857 130.969 -56.7857 129.807V126.624H-55.9924V129.615C-55.9924 130.5 -55.6733 130.924 -54.8891 130.924C-54.0229 130.924 -53.5624 130.395 -53.5624 129.533V126.624H-52.7691V131.539H-53.5624V130.805H-53.6353C-53.877 131.329 -54.3739 131.626 -55.0943 131.626ZM-51.2874 131.539V126.624H-50.4941V127.363H-50.4211C-50.1749 126.843 -49.7144 126.538 -48.9895 126.538C-47.8862 126.538 -47.2707 127.19 -47.2707 128.357V131.539H-48.064V128.548C-48.064 127.664 -48.4287 127.24 -49.2129 127.24C-49.9971 127.24 -50.4941 127.769 -50.4941 128.63V131.539H-51.2874ZM-41.1979 131.626C-42.5747 131.626 -43.4547 130.627 -43.4547 129.068V129.059C-43.4547 127.532 -42.5793 126.538 -41.2024 126.538C-40.0079 126.538 -39.2921 127.226 -39.1462 128.101L-39.1417 128.129H-39.9304L-39.935 128.115C-40.0581 127.632 -40.4957 127.24 -41.2024 127.24C-42.0869 127.24 -42.6431 127.951 -42.6431 129.059V129.068C-42.6431 130.199 -42.0778 130.924 -41.2024 130.924C-40.5413 130.924 -40.1219 130.632 -39.9395 130.085L-39.9304 130.057L-39.1462 130.053L-39.1553 130.103C-39.356 130.992 -40.017 131.626 -41.1979 131.626ZM-35.9639 131.626C-37.3636 131.626 -38.2298 130.659 -38.2298 129.086V129.077C-38.2298 127.5 -37.3636 126.538 -35.9639 126.538C-34.5643 126.538 -33.698 127.5 -33.698 129.077V129.086C-33.698 130.659 -34.5643 131.626 -35.9639 131.626ZM-35.9639 130.924C-35.0338 130.924 -34.5095 130.244 -34.5095 129.086V129.077C-34.5095 127.915 -35.0338 127.24 -35.9639 127.24C-36.894 127.24 -37.4183 127.915 -37.4183 129.077V129.086C-37.4183 130.244 -36.894 130.924 -35.9639 130.924ZM-32.467 131.539V126.624H-31.6737V127.363H-31.6008C-31.3546 126.843 -30.8941 126.538 -30.1692 126.538C-29.0659 126.538 -28.4504 127.19 -28.4504 128.357V131.539H-29.2437V128.548C-29.2437 127.664 -29.6084 127.24 -30.3926 127.24C-31.1768 127.24 -31.6737 127.769 -31.6737 128.63V131.539H-32.467ZM-26.686 131.539V127.281H-27.5021V126.624H-26.686V126.077C-26.686 125.097 -26.1936 124.627 -25.259 124.627C-25.0675 124.627 -24.8942 124.641 -24.7301 124.673V125.307C-24.8258 125.288 -24.9581 125.284 -25.0994 125.284C-25.6647 125.284 -25.8927 125.562 -25.8927 126.1V126.624H-24.7757V127.281H-25.8927V131.539H-26.686ZM-23.2119 125.676C-23.5128 125.676 -23.759 125.43 -23.759 125.129C-23.759 124.828 -23.5128 124.582 -23.2119 124.582C-22.911 124.582 -22.6648 124.828 -22.6648 125.129C-22.6648 125.43 -22.911 125.676 -23.2119 125.676ZM-23.6131 131.539V126.624H-22.8198V131.539H-23.6131ZM-19.3001 133.272C-20.4855 133.272 -21.2423 132.738 -21.3654 131.931L-21.3563 131.927H-20.5356L-20.5311 131.931C-20.4445 132.305 -20.0068 132.569 -19.3001 132.569C-18.4202 132.569 -17.8959 132.155 -17.8959 131.43V130.436H-17.9688C-18.2788 130.978 -18.8351 131.284 -19.5098 131.284C-20.7818 131.284 -21.5706 130.299 -21.5706 128.922V128.913C-21.5706 127.536 -20.7773 126.538 -19.4916 126.538C-18.7986 126.538 -18.2606 126.88 -17.9597 127.436H-17.905V126.624H-17.1117V131.471C-17.1117 132.569 -17.9597 133.272 -19.3001 133.272ZM-19.3366 130.582C-18.4247 130.582 -17.8776 129.898 -17.8776 128.922V128.913C-17.8776 127.937 -18.4293 127.24 -19.3366 127.24C-20.2484 127.24 -20.759 127.937 -20.759 128.913V128.922C-20.759 129.898 -20.2484 130.582 -19.3366 130.582ZM-14.9871 128.056C-15.3108 128.056 -15.5798 127.787 -15.5798 127.463C-15.5798 127.135 -15.3108 126.87 -14.9871 126.87C-14.6589 126.87 -14.3944 127.135 -14.3944 127.463C-14.3944 127.787 -14.6589 128.056 -14.9871 128.056ZM-14.9871 131.585C-15.3108 131.585 -15.5798 131.316 -15.5798 130.992C-15.5798 130.664 -15.3108 130.399 -14.9871 130.399C-14.6589 130.399 -14.3944 130.664 -14.3944 130.992C-14.3944 131.316 -14.6589 131.585 -14.9871 131.585Z" fill="#ACAFBF"/>
</g>
<g filter="url(#filter1_d_6132_115556)">
<rect x="206.809" y="81.8086" width="388.572" height="130.213" rx="5.74598" fill="#1A1B1E"/>
<rect x="207.169" y="82.1677" width="387.853" height="129.495" rx="5.38685" stroke="#37383F" stroke-width="0.718247"/>
<rect x="215.428" y="93.3008" width="14.3649" height="14.3649" rx="7.18247" fill="#4B4DB4"/>
<path d="M216.267 119.539V112.96H218.779C220.047 112.96 220.877 113.735 220.877 114.916V114.925C220.877 115.837 220.38 116.548 219.555 116.808L221.077 119.539H220.115L218.707 116.936H217.088V119.539H216.267ZM217.088 116.206H218.707C219.55 116.206 220.029 115.755 220.029 114.953V114.943C220.029 114.159 219.518 113.69 218.67 113.69H217.088V116.206ZM223.913 119.626C222.796 119.626 222.222 118.969 222.222 117.807V114.624H223.015V117.615C223.015 118.5 223.334 118.924 224.118 118.924C224.985 118.924 225.445 118.395 225.445 117.533V114.624H226.238V119.539H225.445V118.805H225.372C225.13 119.329 224.633 119.626 223.913 119.626ZM227.72 119.539V114.624H228.513V115.363H228.586C228.832 114.843 229.293 114.538 230.018 114.538C231.121 114.538 231.737 115.19 231.737 116.357V119.539H230.943V116.548C230.943 115.664 230.579 115.24 229.794 115.24C229.01 115.24 228.513 115.769 228.513 116.63V119.539H227.72ZM233.173 119.539V114.624H233.966V115.363H234.039C234.285 114.843 234.746 114.538 235.471 114.538C236.574 114.538 237.189 115.19 237.189 116.357V119.539H236.396V116.548C236.396 115.664 236.031 115.24 235.247 115.24C234.463 115.24 233.966 115.769 233.966 116.63V119.539H233.173ZM239.045 113.676C238.744 113.676 238.498 113.43 238.498 113.129C238.498 112.828 238.744 112.582 239.045 112.582C239.346 112.582 239.592 112.828 239.592 113.129C239.592 113.43 239.346 113.676 239.045 113.676ZM238.644 119.539V114.624H239.437V119.539H238.644ZM240.933 119.539V114.624H241.726V115.363H241.799C242.045 114.843 242.505 114.538 243.23 114.538C244.334 114.538 244.949 115.19 244.949 116.357V119.539H244.156V116.548C244.156 115.664 243.791 115.24 243.007 115.24C242.223 115.24 241.726 115.769 241.726 116.63V119.539H240.933ZM248.41 121.272C247.224 121.272 246.467 120.738 246.344 119.931L246.353 119.927H247.174L247.179 119.931C247.265 120.305 247.703 120.569 248.41 120.569C249.29 120.569 249.814 120.155 249.814 119.43V118.436H249.741C249.431 118.978 248.875 119.284 248.2 119.284C246.928 119.284 246.139 118.299 246.139 116.922V116.913C246.139 115.536 246.932 114.538 248.218 114.538C248.911 114.538 249.449 114.88 249.75 115.436H249.805V114.624H250.598V119.471C250.598 120.569 249.75 121.272 248.41 121.272ZM248.373 118.582C249.285 118.582 249.832 117.898 249.832 116.922V116.913C249.832 115.937 249.28 115.24 248.373 115.24C247.461 115.24 246.951 115.937 246.951 116.913V116.922C246.951 117.898 247.461 118.582 248.373 118.582ZM255.121 121.262C255.016 121.262 254.879 121.253 254.77 121.235V120.583C254.865 120.601 254.989 120.606 255.098 120.606C255.549 120.606 255.823 120.401 256.001 119.835L256.092 119.544L254.273 114.624H255.121L256.47 118.668H256.543L257.888 114.624H258.722L256.803 119.84C256.397 120.943 255.992 121.262 255.121 121.262ZM261.608 119.626C260.209 119.626 259.343 118.659 259.343 117.086V117.077C259.343 115.5 260.209 114.538 261.608 114.538C263.008 114.538 263.874 115.5 263.874 117.077V117.086C263.874 118.659 263.008 119.626 261.608 119.626ZM261.608 118.924C262.539 118.924 263.063 118.244 263.063 117.086V117.077C263.063 115.915 262.539 115.24 261.608 115.24C260.678 115.24 260.154 115.915 260.154 117.077V117.086C260.154 118.244 260.678 118.924 261.608 118.924ZM266.751 119.626C265.634 119.626 265.06 118.969 265.06 117.807V114.624H265.853V117.615C265.853 118.5 266.172 118.924 266.956 118.924C267.823 118.924 268.283 118.395 268.283 117.533V114.624H269.076V119.539H268.283V118.805H268.21C267.969 119.329 267.472 119.626 266.751 119.626ZM270.558 119.539V114.624H271.351V115.354H271.424C271.611 114.839 272.072 114.538 272.737 114.538C272.888 114.538 273.057 114.556 273.134 114.57V115.34C272.97 115.313 272.819 115.294 272.646 115.294C271.889 115.294 271.351 115.773 271.351 116.494V119.539H270.558ZM278.09 119.626C277.155 119.626 276.449 119.06 276.449 118.167V118.158C276.449 117.282 277.096 116.776 278.24 116.708L279.649 116.621V116.174C279.649 115.568 279.28 115.24 278.546 115.24C277.958 115.24 277.57 115.459 277.442 115.842L277.438 115.855H276.645L276.649 115.828C276.777 115.057 277.525 114.538 278.573 114.538C279.772 114.538 280.442 115.153 280.442 116.174V119.539H279.649V118.814H279.576C279.266 119.338 278.751 119.626 278.09 119.626ZM277.26 118.149C277.26 118.645 277.684 118.937 278.254 118.937C279.061 118.937 279.649 118.408 279.649 117.706V117.259L278.336 117.342C277.588 117.387 277.26 117.652 277.26 118.139V118.149ZM281.892 121.18V114.624H282.686V115.408H282.759C283.059 114.861 283.607 114.538 284.29 114.538C285.535 114.538 286.351 115.545 286.351 117.077V117.086C286.351 118.627 285.54 119.626 284.29 119.626C283.616 119.626 283.027 119.288 282.759 118.764H282.686V121.18H281.892ZM284.108 118.924C285.006 118.924 285.54 118.231 285.54 117.086V117.077C285.54 115.933 285.006 115.24 284.108 115.24C283.214 115.24 282.667 115.942 282.667 117.077V117.086C282.667 118.221 283.214 118.924 284.108 118.924ZM287.591 121.18V114.624H288.385V115.408H288.457C288.758 114.861 289.305 114.538 289.989 114.538C291.234 114.538 292.05 115.545 292.05 117.077V117.086C292.05 118.627 291.239 119.626 289.989 119.626C289.315 119.626 288.726 119.288 288.457 118.764H288.385V121.18H287.591ZM289.807 118.924C290.705 118.924 291.239 118.231 291.239 117.086V117.077C291.239 115.933 290.705 115.24 289.807 115.24C288.913 115.24 288.366 115.942 288.366 117.077V117.086C288.366 118.221 288.913 118.924 289.807 118.924ZM296.865 119.539L295.488 114.624H296.281L297.248 118.554H297.321L298.419 114.624H299.172L300.27 118.554H300.343L301.31 114.624H302.099L300.722 119.539H299.924L298.825 115.737H298.752L297.658 119.539H296.865ZM303.567 113.676C303.266 113.676 303.02 113.43 303.02 113.129C303.02 112.828 303.266 112.582 303.567 112.582C303.868 112.582 304.114 112.828 304.114 113.129C304.114 113.43 303.868 113.676 303.567 113.676ZM303.165 119.539V114.624H303.959V119.539H303.165ZM305.5 119.539V112.673H306.293V119.539H305.5ZM307.861 119.539V112.673H308.655V119.539H307.861ZM313.223 113.676C312.922 113.676 312.676 113.43 312.676 113.129C312.676 112.828 312.922 112.582 313.223 112.582C313.524 112.582 313.77 112.828 313.77 113.129C313.77 113.43 313.524 113.676 313.223 113.676ZM312.822 119.539V114.624H313.615V119.539H312.822ZM315.11 119.539V114.624H315.904V115.363H315.977C316.223 114.843 316.683 114.538 317.408 114.538C318.512 114.538 319.127 115.19 319.127 116.357V119.539H318.334V116.548C318.334 115.664 317.969 115.24 317.185 115.24C316.401 115.24 315.904 115.769 315.904 116.63V119.539H315.11ZM322.309 119.576C321.297 119.576 320.873 119.202 320.873 118.262V115.281H320.098V114.624H320.873V113.352H321.694V114.624H322.77V115.281H321.694V118.062C321.694 118.641 321.895 118.873 322.405 118.873C322.547 118.873 322.624 118.869 322.77 118.855V119.53C322.615 119.557 322.464 119.576 322.309 119.576ZM325.888 119.626C324.484 119.626 323.636 118.641 323.636 117.1V117.095C323.636 115.577 324.502 114.538 325.838 114.538C327.174 114.538 327.986 115.532 327.986 117V117.31H324.448C324.47 118.326 325.031 118.919 325.907 118.919C326.572 118.919 326.983 118.604 327.115 118.308L327.133 118.267H327.926L327.917 118.304C327.749 118.969 327.046 119.626 325.888 119.626ZM325.834 115.244C325.104 115.244 324.548 115.741 324.461 116.676H327.179C327.097 115.705 326.559 115.244 325.834 115.244ZM331.241 121.272C330.055 121.272 329.299 120.738 329.176 119.931L329.185 119.927H330.005L330.01 119.931C330.097 120.305 330.534 120.569 331.241 120.569C332.121 120.569 332.645 120.155 332.645 119.43V118.436H332.572C332.262 118.978 331.706 119.284 331.031 119.284C329.759 119.284 328.97 118.299 328.97 116.922V116.913C328.97 115.536 329.764 114.538 331.049 114.538C331.742 114.538 332.28 114.88 332.581 115.436H332.636V114.624H333.429V119.471C333.429 120.569 332.581 121.272 331.241 121.272ZM331.204 118.582C332.116 118.582 332.663 117.898 332.663 116.922V116.913C332.663 115.937 332.112 115.24 331.204 115.24C330.293 115.24 329.782 115.937 329.782 116.913V116.922C329.782 117.898 330.293 118.582 331.204 118.582ZM334.906 119.539V114.624H335.7V115.354H335.773C335.96 114.839 336.42 114.538 337.086 114.538C337.236 114.538 337.405 114.556 337.482 114.57V115.34C337.318 115.313 337.168 115.294 336.995 115.294C336.238 115.294 335.7 115.773 335.7 116.494V119.539H334.906ZM339.812 119.626C338.878 119.626 338.171 119.06 338.171 118.167V118.158C338.171 117.282 338.818 116.776 339.963 116.708L341.371 116.621V116.174C341.371 115.568 341.002 115.24 340.268 115.24C339.68 115.24 339.292 115.459 339.165 115.842L339.16 115.855H338.367L338.371 115.828C338.499 115.057 339.247 114.538 340.295 114.538C341.494 114.538 342.165 115.153 342.165 116.174V119.539H341.371V118.814H341.298C340.988 119.338 340.473 119.626 339.812 119.626ZM338.982 118.149C338.982 118.645 339.406 118.937 339.976 118.937C340.783 118.937 341.371 118.408 341.371 117.706V117.259L340.058 117.342C339.311 117.387 338.982 117.652 338.982 118.139V118.149ZM345.361 119.576C344.349 119.576 343.925 119.202 343.925 118.262V115.281H343.149V114.624H343.925V113.352H344.745V114.624H345.821V115.281H344.745V118.062C344.745 118.641 344.946 118.873 345.456 118.873C345.598 118.873 345.675 118.869 345.821 118.855V119.53C345.666 119.557 345.516 119.576 345.361 119.576ZM348.94 119.626C347.535 119.626 346.687 118.641 346.687 117.1V117.095C346.687 115.577 347.554 114.538 348.889 114.538C350.225 114.538 351.037 115.532 351.037 117V117.31H347.499C347.522 118.326 348.082 118.919 348.958 118.919C349.623 118.919 350.034 118.604 350.166 118.308L350.184 118.267H350.978L350.968 118.304C350.8 118.969 350.098 119.626 348.94 119.626ZM348.885 115.244C348.155 115.244 347.599 115.741 347.513 116.676H350.23C350.148 115.705 349.61 115.244 348.885 115.244ZM355.313 121.262C355.209 121.262 355.072 121.253 354.962 121.235V120.583C355.058 120.601 355.181 120.606 355.291 120.606C355.742 120.606 356.015 120.401 356.193 119.835L356.284 119.544L354.465 114.624H355.313L356.663 118.668H356.736L358.081 114.624H358.915L356.996 119.84C356.59 120.943 356.184 121.262 355.313 121.262ZM361.801 119.626C360.401 119.626 359.535 118.659 359.535 117.086V117.077C359.535 115.5 360.401 114.538 361.801 114.538C363.201 114.538 364.067 115.5 364.067 117.077V117.086C364.067 118.659 363.201 119.626 361.801 119.626ZM361.801 118.924C362.731 118.924 363.255 118.244 363.255 117.086V117.077C363.255 115.915 362.731 115.24 361.801 115.24C360.871 115.24 360.347 115.915 360.347 117.077V117.086C360.347 118.244 360.871 118.924 361.801 118.924ZM366.944 119.626C365.827 119.626 365.252 118.969 365.252 117.807V114.624H366.046V117.615C366.046 118.5 366.365 118.924 367.149 118.924C368.015 118.924 368.476 118.395 368.476 117.533V114.624H369.269V119.539H368.476V118.805H368.403C368.161 119.329 367.664 119.626 366.944 119.626ZM370.751 119.539V114.624H371.544V115.354H371.617C371.804 114.839 372.264 114.538 372.93 114.538C373.081 114.538 373.249 114.556 373.327 114.57V115.34C373.163 115.313 373.012 115.294 372.839 115.294C372.082 115.294 371.544 115.773 371.544 116.494V119.539H370.751ZM378.939 119.626C377.535 119.626 376.687 118.641 376.687 117.1V117.095C376.687 115.577 377.553 114.538 378.889 114.538C380.225 114.538 381.036 115.532 381.036 117V117.31H377.498C377.521 118.326 378.082 118.919 378.957 118.919C379.623 118.919 380.033 118.604 380.165 118.308L380.184 118.267H380.977L380.968 118.304C380.799 118.969 380.097 119.626 378.939 119.626ZM378.884 115.244C378.155 115.244 377.599 115.741 377.512 116.676H380.229C380.147 115.705 379.609 115.244 378.884 115.244ZM382.267 119.539V114.624H383.061V115.363H383.134C383.38 114.843 383.84 114.538 384.565 114.538C385.668 114.538 386.284 115.19 386.284 116.357V119.539H385.491V116.548C385.491 115.664 385.126 115.24 384.342 115.24C383.558 115.24 383.061 115.769 383.061 116.63V119.539H382.267ZM388.928 119.539L387.109 114.624H387.948L389.293 118.673H389.366L390.711 114.624H391.55L389.731 119.539H388.928ZM393.018 113.676C392.717 113.676 392.471 113.43 392.471 113.129C392.471 112.828 392.717 112.582 393.018 112.582C393.319 112.582 393.565 112.828 393.565 113.129C393.565 113.43 393.319 113.676 393.018 113.676ZM392.617 119.539V114.624H393.41V119.539H392.617ZM394.905 119.539V114.624H395.699V115.354H395.772C395.958 114.839 396.419 114.538 397.085 114.538C397.235 114.538 397.404 114.556 397.481 114.57V115.34C397.317 115.313 397.167 115.294 396.993 115.294C396.237 115.294 395.699 115.773 395.699 116.494V119.539H394.905ZM400.344 119.626C398.945 119.626 398.079 118.659 398.079 117.086V117.077C398.079 115.5 398.945 114.538 400.344 114.538C401.744 114.538 402.61 115.5 402.61 117.077V117.086C402.61 118.659 401.744 119.626 400.344 119.626ZM400.344 118.924C401.275 118.924 401.799 118.244 401.799 117.086V117.077C401.799 115.915 401.275 115.24 400.344 115.24C399.414 115.24 398.89 115.915 398.89 117.077V117.086C398.89 118.244 399.414 118.924 400.344 118.924ZM403.841 119.539V114.624H404.635V115.363H404.708C404.954 114.843 405.414 114.538 406.139 114.538C407.242 114.538 407.858 115.19 407.858 116.357V119.539H407.065V116.548C407.065 115.664 406.7 115.24 405.916 115.24C405.132 115.24 404.635 115.769 404.635 116.63V119.539H403.841ZM409.294 119.539V114.624H410.087V115.372H410.16C410.379 114.843 410.844 114.538 411.487 114.538C412.153 114.538 412.618 114.889 412.846 115.399H412.919C413.183 114.88 413.744 114.538 414.423 114.538C415.426 114.538 415.987 115.112 415.987 116.142V119.539H415.194V116.325C415.194 115.6 414.861 115.24 414.168 115.24C413.484 115.24 413.033 115.755 413.033 116.38V119.539H412.239V116.202C412.239 115.618 411.838 115.24 411.218 115.24C410.575 115.24 410.087 115.801 410.087 116.494V119.539H409.294ZM419.425 119.626C418.02 119.626 417.172 118.641 417.172 117.1V117.095C417.172 115.577 418.039 114.538 419.374 114.538C420.71 114.538 421.522 115.532 421.522 117V117.31H417.984C418.007 118.326 418.567 118.919 419.443 118.919C420.108 118.919 420.519 118.604 420.651 118.308L420.669 118.267H421.463L421.453 118.304C421.285 118.969 420.583 119.626 419.425 119.626ZM419.37 115.244C418.64 115.244 418.084 115.741 417.998 116.676H420.715C420.633 115.705 420.095 115.244 419.37 115.244ZM422.753 119.539V114.624H423.546V115.363H423.619C423.865 114.843 424.326 114.538 425.051 114.538C426.154 114.538 426.769 115.19 426.769 116.357V119.539H425.976V116.548C425.976 115.664 425.611 115.24 424.827 115.24C424.043 115.24 423.546 115.769 423.546 116.63V119.539H422.753ZM429.952 119.576C428.94 119.576 428.516 119.202 428.516 118.262V115.281H427.741V114.624H428.516V113.352H429.336V114.624H430.412V115.281H429.336V118.062C429.336 118.641 429.537 118.873 430.048 118.873C430.189 118.873 430.266 118.869 430.412 118.855V119.53C430.257 119.557 430.107 119.576 429.952 119.576ZM435.573 119.626C434.639 119.626 433.932 119.06 433.932 118.167V118.158C433.932 117.282 434.579 116.776 435.724 116.708L437.132 116.621V116.174C437.132 115.568 436.763 115.24 436.029 115.24C435.441 115.24 435.053 115.459 434.926 115.842L434.921 115.855H434.128L434.133 115.828C434.26 115.057 435.008 114.538 436.057 114.538C437.256 114.538 437.926 115.153 437.926 116.174V119.539H437.132V118.814H437.06C436.75 119.338 436.234 119.626 435.573 119.626ZM434.743 118.149C434.743 118.645 435.167 118.937 435.737 118.937C436.544 118.937 437.132 118.408 437.132 117.706V117.259L435.819 117.342C435.072 117.387 434.743 117.652 434.743 118.139V118.149ZM439.376 119.539V114.624H440.169V115.363H440.242C440.488 114.843 440.949 114.538 441.673 114.538C442.777 114.538 443.392 115.19 443.392 116.357V119.539H442.599V116.548C442.599 115.664 442.234 115.24 441.45 115.24C440.666 115.24 440.169 115.769 440.169 116.63V119.539H439.376ZM446.643 119.626C445.398 119.626 444.582 118.618 444.582 117.086V117.077C444.582 115.536 445.394 114.538 446.643 114.538C447.318 114.538 447.906 114.875 448.175 115.399H448.248V112.673H449.041V119.539H448.248V118.755H448.175C447.874 119.302 447.327 119.626 446.643 119.626ZM446.825 118.924C447.719 118.924 448.266 118.221 448.266 117.086V117.077C448.266 115.942 447.719 115.24 446.825 115.24C445.927 115.24 445.394 115.933 445.394 117.077V117.086C445.394 118.231 445.927 118.924 446.825 118.924ZM453.29 119.539V112.96H455.547C457.498 112.96 458.652 114.177 458.652 116.243V116.252C458.652 118.322 457.503 119.539 455.547 119.539H453.29ZM454.111 118.8H455.492C456.96 118.8 457.813 117.861 457.813 116.261V116.252C457.813 114.647 456.951 113.699 455.492 113.699H454.111V118.8ZM460.393 113.676C460.093 113.676 459.846 113.43 459.846 113.129C459.846 112.828 460.093 112.582 460.393 112.582C460.694 112.582 460.941 112.828 460.941 113.129C460.941 113.43 460.694 113.676 460.393 113.676ZM459.992 119.539V114.624H460.786V119.539H459.992ZM464.305 121.272C463.12 121.272 462.363 120.738 462.24 119.931L462.249 119.927H463.07L463.074 119.931C463.161 120.305 463.599 120.569 464.305 120.569C465.185 120.569 465.709 120.155 465.709 119.43V118.436H465.637C465.326 118.978 464.77 119.284 464.096 119.284C462.823 119.284 462.035 118.299 462.035 116.922V116.913C462.035 115.536 462.828 114.538 464.114 114.538C464.807 114.538 465.345 114.88 465.646 115.436H465.7V114.624H466.494V119.471C466.494 120.569 465.646 121.272 464.305 121.272ZM464.269 118.582C465.181 118.582 465.728 117.898 465.728 116.922V116.913C465.728 115.937 465.176 115.24 464.269 115.24C463.357 115.24 462.846 115.937 462.846 116.913V116.922C462.846 117.898 463.357 118.582 464.269 118.582ZM467.971 119.539V114.624H468.764V115.372H468.837C469.056 114.843 469.521 114.538 470.164 114.538C470.829 114.538 471.294 114.889 471.522 115.399H471.595C471.86 114.88 472.421 114.538 473.1 114.538C474.103 114.538 474.664 115.112 474.664 116.142V119.539H473.87V116.325C473.87 115.6 473.538 115.24 472.845 115.24C472.161 115.24 471.709 115.755 471.709 116.38V119.539H470.916V116.202C470.916 115.618 470.515 115.24 469.895 115.24C469.252 115.24 468.764 115.801 468.764 116.494V119.539H467.971ZM477.445 119.626C476.51 119.626 475.803 119.06 475.803 118.167V118.158C475.803 117.282 476.451 116.776 477.595 116.708L479.004 116.621V116.174C479.004 115.568 478.635 115.24 477.901 115.24C477.313 115.24 476.925 115.459 476.797 115.842L476.793 115.855H476L476.004 115.828C476.132 115.057 476.879 114.538 477.928 114.538C479.127 114.538 479.797 115.153 479.797 116.174V119.539H479.004V118.814H478.931C478.621 119.338 478.106 119.626 477.445 119.626ZM476.615 118.149C476.615 118.645 477.039 118.937 477.609 118.937C478.416 118.937 479.004 118.408 479.004 117.706V117.259L477.691 117.342C476.943 117.387 476.615 117.652 476.615 118.139V118.149ZM485.884 119.626C484.507 119.626 483.627 118.627 483.627 117.068V117.059C483.627 115.532 484.502 114.538 485.879 114.538C487.074 114.538 487.79 115.226 487.935 116.101L487.94 116.129H487.151L487.147 116.115C487.024 115.632 486.586 115.24 485.879 115.24C484.995 115.24 484.439 115.951 484.439 117.059V117.068C484.439 118.199 485.004 118.924 485.879 118.924C486.54 118.924 486.96 118.632 487.142 118.085L487.151 118.057L487.935 118.053L487.926 118.103C487.726 118.992 487.065 119.626 485.884 119.626ZM490.448 119.626C489.513 119.626 488.806 119.06 488.806 118.167V118.158C488.806 117.282 489.454 116.776 490.598 116.708L492.007 116.621V116.174C492.007 115.568 491.638 115.24 490.904 115.24C490.315 115.24 489.928 115.459 489.8 115.842L489.796 115.855H489.002L489.007 115.828C489.135 115.057 489.882 114.538 490.931 114.538C492.13 114.538 492.8 115.153 492.8 116.174V119.539H492.007V118.814H491.934C491.624 119.338 491.109 119.626 490.448 119.626ZM489.618 118.149C489.618 118.645 490.042 118.937 490.612 118.937C491.419 118.937 492.007 118.408 492.007 117.706V117.259L490.694 117.342C489.946 117.387 489.618 117.652 489.618 118.139V118.149ZM494.25 119.539V114.624H495.043V115.363H495.116C495.362 114.843 495.823 114.538 496.548 114.538C497.651 114.538 498.267 115.19 498.267 116.357V119.539H497.473V116.548C497.473 115.664 497.109 115.24 496.324 115.24C495.54 115.24 495.043 115.769 495.043 116.63V119.539H494.25ZM504.016 119.626C502.922 119.626 502.169 119.097 502.078 118.285H502.89C503.022 118.696 503.414 118.965 504.043 118.965C504.704 118.965 505.174 118.65 505.174 118.203V118.194C505.174 117.861 504.923 117.629 504.317 117.483L503.555 117.301C502.634 117.082 502.219 116.68 502.219 115.974V115.969C502.219 115.153 503.004 114.538 504.048 114.538C505.078 114.538 505.794 115.053 505.903 115.855H505.124C505.019 115.468 504.636 115.199 504.043 115.199C503.46 115.199 503.031 115.5 503.031 115.933V115.942C503.031 116.275 503.277 116.484 503.856 116.626L504.613 116.808C505.538 117.032 505.985 117.433 505.985 118.135V118.144C505.985 119.019 505.133 119.626 504.016 119.626ZM508.917 119.576C507.905 119.576 507.481 119.202 507.481 118.262V115.281H506.706V114.624H507.481V113.352H508.301V114.624H509.377V115.281H508.301V118.062C508.301 118.641 508.502 118.873 509.013 118.873C509.154 118.873 509.231 118.869 509.377 118.855V119.53C509.222 119.557 509.072 119.576 508.917 119.576ZM511.912 119.626C510.978 119.626 510.271 119.06 510.271 118.167V118.158C510.271 117.282 510.918 116.776 512.063 116.708L513.471 116.621V116.174C513.471 115.568 513.102 115.24 512.368 115.24C511.78 115.24 511.392 115.459 511.265 115.842L511.26 115.855H510.467L510.472 115.828C510.599 115.057 511.347 114.538 512.396 114.538C513.595 114.538 514.265 115.153 514.265 116.174V119.539H513.471V118.814H513.399C513.089 119.338 512.573 119.626 511.912 119.626ZM511.082 118.149C511.082 118.645 511.506 118.937 512.076 118.937C512.883 118.937 513.471 118.408 513.471 117.706V117.259L512.158 117.342C511.411 117.387 511.082 117.652 511.082 118.139V118.149ZM515.715 119.539V114.624H516.508V115.354H516.581C516.768 114.839 517.228 114.538 517.894 114.538C518.044 114.538 518.213 114.556 518.291 114.57V115.34C518.126 115.313 517.976 115.294 517.803 115.294C517.046 115.294 516.508 115.773 516.508 116.494V119.539H515.715ZM521.108 119.576C520.096 119.576 519.672 119.202 519.672 118.262V115.281H518.897V114.624H519.672V113.352H520.493V114.624H521.569V115.281H520.493V118.062C520.493 118.641 520.693 118.873 521.204 118.873C521.345 118.873 521.423 118.869 521.569 118.855V119.53C521.414 119.557 521.263 119.576 521.108 119.576ZM527.067 119.626C525.973 119.626 525.22 119.097 525.129 118.285H525.941C526.073 118.696 526.465 118.965 527.094 118.965C527.755 118.965 528.225 118.65 528.225 118.203V118.194C528.225 117.861 527.974 117.629 527.368 117.483L526.606 117.301C525.686 117.082 525.271 116.68 525.271 115.974V115.969C525.271 115.153 526.055 114.538 527.099 114.538C528.129 114.538 528.845 115.053 528.954 115.855H528.175C528.07 115.468 527.687 115.199 527.094 115.199C526.511 115.199 526.082 115.5 526.082 115.933V115.942C526.082 116.275 526.328 116.484 526.907 116.626L527.664 116.808C528.59 117.032 529.037 117.433 529.037 118.135V118.144C529.037 119.019 528.184 119.626 527.067 119.626ZM530.313 119.539V112.673H531.106V115.363H531.179C531.426 114.843 531.886 114.538 532.611 114.538C533.714 114.538 534.33 115.19 534.33 116.357V119.539H533.536V116.548C533.536 115.664 533.172 115.24 532.388 115.24C531.603 115.24 531.106 115.769 531.106 116.63V119.539H530.313ZM537.786 119.626C536.386 119.626 535.52 118.659 535.52 117.086V117.077C535.52 115.5 536.386 114.538 537.786 114.538C539.185 114.538 540.052 115.5 540.052 117.077V117.086C540.052 118.659 539.185 119.626 537.786 119.626ZM537.786 118.924C538.716 118.924 539.24 118.244 539.24 117.086V117.077C539.24 115.915 538.716 115.24 537.786 115.24C536.856 115.24 536.331 115.915 536.331 117.077V117.086C536.331 118.244 536.856 118.924 537.786 118.924ZM542.048 119.539L540.672 114.624H541.465L542.431 118.554H542.504L543.603 114.624H544.355L545.454 118.554H545.527L546.494 114.624H547.282L545.906 119.539H545.108L544.009 115.737H543.936L542.842 119.539H542.048ZM548.75 113.676C548.45 113.676 548.203 113.43 548.203 113.129C548.203 112.828 548.45 112.582 548.75 112.582C549.051 112.582 549.298 112.828 549.298 113.129C549.298 113.43 549.051 113.676 548.75 113.676ZM548.349 119.539V114.624H549.143V119.539H548.349ZM550.638 119.539V114.624H551.431V115.363H551.504C551.75 114.843 552.211 114.538 552.936 114.538C554.039 114.538 554.655 115.19 554.655 116.357V119.539H553.861V116.548C553.861 115.664 553.497 115.24 552.712 115.24C551.928 115.24 551.431 115.769 551.431 116.63V119.539H550.638ZM558.115 121.272C556.93 121.272 556.173 120.738 556.05 119.931L556.059 119.927H556.879L556.884 119.931C556.971 120.305 557.408 120.569 558.115 120.569C558.995 120.569 559.519 120.155 559.519 119.43V118.436H559.446C559.136 118.978 558.58 119.284 557.905 119.284C556.633 119.284 555.845 118.299 555.845 116.922V116.913C555.845 115.536 556.638 114.538 557.924 114.538C558.617 114.538 559.155 114.88 559.455 115.436H559.51V114.624H560.303V119.471C560.303 120.569 559.455 121.272 558.115 121.272ZM558.079 118.582C558.99 118.582 559.537 117.898 559.537 116.922V116.913C559.537 115.937 558.986 115.24 558.079 115.24C557.167 115.24 556.656 115.937 556.656 116.913V116.922C556.656 117.898 557.167 118.582 558.079 118.582ZM564.826 121.262C564.721 121.262 564.584 121.253 564.475 121.235V120.583C564.571 120.601 564.694 120.606 564.803 120.606C565.255 120.606 565.528 120.401 565.706 119.835L565.797 119.544L563.978 114.624H564.826L566.176 118.668H566.249L567.594 114.624H568.428L566.508 119.84C566.103 120.943 565.697 121.262 564.826 121.262ZM571.314 119.626C569.914 119.626 569.048 118.659 569.048 117.086V117.077C569.048 115.5 569.914 114.538 571.314 114.538C572.714 114.538 573.58 115.5 573.58 117.077V117.086C573.58 118.659 572.714 119.626 571.314 119.626ZM571.314 118.924C572.244 118.924 572.768 118.244 572.768 117.086V117.077C572.768 115.915 572.244 115.24 571.314 115.24C570.384 115.24 569.859 115.915 569.859 117.077V117.086C569.859 118.244 570.384 118.924 571.314 118.924ZM576.457 119.626C575.34 119.626 574.765 118.969 574.765 117.807V114.624H575.558V117.615C575.558 118.5 575.878 118.924 576.662 118.924C577.528 118.924 577.988 118.395 577.988 117.533V114.624H578.782V119.539H577.988V118.805H577.916C577.674 119.329 577.177 119.626 576.457 119.626ZM216.586 125.676C216.286 125.676 216.039 125.43 216.039 125.129C216.039 124.828 216.286 124.582 216.586 124.582C216.887 124.582 217.134 124.828 217.134 125.129C217.134 125.43 216.887 125.676 216.586 125.676ZM216.185 131.539V126.624H216.979V131.539H216.185ZM218.474 131.539V126.624H219.267V127.363H219.34C219.586 126.843 220.047 126.538 220.772 126.538C221.875 126.538 222.491 127.19 222.491 128.357V131.539H221.697V128.548C221.697 127.664 221.333 127.24 220.548 127.24C219.764 127.24 219.267 127.769 219.267 128.63V131.539H218.474ZM224.255 131.539V127.281H223.439V126.624H224.255V126.077C224.255 125.097 224.747 124.627 225.682 124.627C225.874 124.627 226.047 124.641 226.211 124.673V125.307C226.115 125.288 225.983 125.284 225.842 125.284C225.276 125.284 225.048 125.562 225.048 126.1V126.624H226.165V127.281H225.048V131.539H224.255ZM229.12 131.626C227.72 131.626 226.854 130.659 226.854 129.086V129.077C226.854 127.5 227.72 126.538 229.12 126.538C230.519 126.538 231.386 127.5 231.386 129.077V129.086C231.386 130.659 230.519 131.626 229.12 131.626ZM229.12 130.924C230.05 130.924 230.574 130.244 230.574 129.086V129.077C230.574 127.915 230.05 127.24 229.12 127.24C228.19 127.24 227.665 127.915 227.665 129.077V129.086C227.665 130.244 228.19 130.924 229.12 130.924ZM232.949 129.351L232.872 124.956H233.784L233.706 129.351H232.949ZM233.332 131.621C232.963 131.621 232.699 131.357 232.699 130.987C232.699 130.614 232.963 130.349 233.332 130.349C233.702 130.349 233.962 130.614 233.962 130.987C233.962 131.357 233.702 131.621 233.332 131.621Z" fill="#ACAFBF"/>
</g>
</g>
<path d="M-199 42.3052H604V40.8687H-199V42.3052Z" fill="#2C2E33" mask="url(#path-1-inside-1_6132_115556)"/>
<g filter="url(#filter2_d_6132_115556)">
<g clip-path="url(#clip3_6132_115556)">
<mask id="path-15-inside-2_6132_115556" fill="white">
<path d="M-199 9.98438H604V41.5872H-199V9.98438Z"/>
</mask>
<path d="M-199 9.98438H604V41.5872H-199V9.98438Z" fill="#27282E"/>
<g opacity="0.35">
<path opacity="0.35" d="M-42.069 28.9411C-43.5097 28.9411 -44.4398 28.1843 -44.5355 27.1129L-44.5401 27.0628H-43.7194L-43.7149 27.1129C-43.6556 27.7694 -42.9717 28.1843 -42.0234 28.1843C-41.1298 28.1843 -40.4779 27.7238 -40.4779 27.0536V27.0491C-40.4779 26.502 -40.8563 26.1281 -41.759 25.9275L-42.4885 25.768C-43.8061 25.4762 -44.376 24.8698 -44.376 23.9169V23.9124C-44.3714 22.8227 -43.4185 22.0522 -42.0599 22.0522C-40.7468 22.0522 -39.8304 22.8273 -39.7621 23.8075L-39.7575 23.8713H-40.5782L-40.5873 23.8121C-40.6785 23.233 -41.2256 22.8045 -42.0827 22.809C-42.9033 22.8136 -43.5371 23.2011 -43.5371 23.8896V23.8941C-43.5371 24.4184 -43.1769 24.7741 -42.2833 24.9701L-41.5538 25.1342C-40.1815 25.4397 -39.639 25.9914 -39.639 26.9397V26.9442C-39.639 28.1752 -40.601 28.9411 -42.069 28.9411ZM-38.7955 28.7861L-36.37 22.2072H-35.5585L-33.133 28.7861H-33.9947L-34.6558 26.9032H-37.2727L-37.9338 28.7861H-38.7955ZM-36.0007 23.2695L-37.0311 26.2056H-34.8974L-35.9278 23.2695H-36.0007ZM-31.9795 28.7861V22.2072H-31.0267L-28.7744 27.6965H-28.7015L-26.4492 22.2072H-25.4964V28.7861H-26.2623V23.7619H-26.3125L-28.3915 28.7861H-29.0845L-31.1634 23.7619H-31.2136V28.7861H-31.9795ZM-23.8186 28.7861V22.2072H-21.3384C-20.1029 22.2072 -19.2275 23.0598 -19.2275 24.309V24.3181C-19.2275 25.5673 -20.1029 26.4382 -21.3384 26.4382H-22.9979V28.7861H-23.8186ZM-21.5481 22.9367H-22.9979V25.7087H-21.5481C-20.6089 25.7087 -20.0664 25.1935 -20.0664 24.3273V24.3181C-20.0664 23.4519 -20.6089 22.9367 -21.5481 22.9367ZM-17.8825 28.7861V22.2072H-17.0619V28.0475H-13.8887V28.7861H-17.8825ZM-12.5756 28.7861V22.2072H-8.49973V22.9458H-11.755V25.0567H-8.66842V25.7862H-11.755V28.0475H-8.49973V28.7861H-12.5756ZM-7.85233 29.9806V29.2421H-2.4041V29.9806H-7.85233ZM-1.56065 28.7861V22.2072H2.51526V22.9458H-0.740001V25.0567H2.34657V25.7862H-0.740001V28.0475H2.51526V28.7861H-1.56065ZM4.00155 28.7861V22.2072H4.79941L8.36925 27.3272H8.44219V22.2072H9.25373V28.7861H8.45587L4.88603 23.6844H4.81308V28.7861H4.00155ZM12.8327 28.7861L10.4072 22.2072H11.2689L13.202 27.7238H13.2749L15.208 22.2072H16.0697L13.6442 28.7861H12.8327Z" fill="#ACAFBF"/>
<g clip-path="url(#clip4_6132_115556)">
<path d="M24.1181 26.1899C24.3412 26.1899 24.5221 26.009 24.5221 25.7858C24.5221 25.5627 24.3412 25.3818 24.1181 25.3818C23.8949 25.3818 23.7141 25.5627 23.7141 25.7858C23.7141 26.009 23.8949 26.1899 24.1181 26.1899Z" fill="#828599"/>
<path d="M24.1181 23.9008C24.3412 23.9008 24.5221 23.7199 24.5221 23.4968C24.5221 23.2737 24.3412 23.0928 24.1181 23.0928C23.8949 23.0928 23.7141 23.2737 23.7141 23.4968C23.7141 23.7199 23.8949 23.9008 24.1181 23.9008Z" fill="#828599"/>
<path d="M24.1181 28.4789C24.3412 28.4789 24.5221 28.298 24.5221 28.0749C24.5221 27.8518 24.3412 27.6709 24.1181 27.6709C23.8949 27.6709 23.7141 27.8518 23.7141 28.0749C23.7141 28.298 23.8949 28.4789 24.1181 28.4789Z" fill="#828599"/>
</g>
</g>
<mask id="path-21-inside-3_6132_115556" fill="white">
<path d="M39.9195 9.98438H106.649V41.5872H39.9195V9.98438Z"/>
</mask>
<path d="M106.649 40.869H39.9195V42.3055H106.649V40.869Z" fill="#6063F6" mask="url(#path-21-inside-3_6132_115556)"/>
<g clip-path="url(#clip5_6132_115556)">
<path d="M46.3824 26.5984L46.0899 26.9287C45.8639 27.1547 45.5759 27.3086 45.2624 27.371C44.9489 27.4333 44.624 27.4013 44.3287 27.279C44.0334 27.1567 43.781 26.9496 43.6034 26.6838C43.4258 26.4181 43.3311 26.1056 43.3311 25.786C43.3311 25.4663 43.4258 25.1539 43.6034 24.8881C43.781 24.6224 44.0334 24.4152 44.3287 24.2929C44.624 24.1706 44.9489 24.1386 45.2624 24.201C45.5759 24.2633 45.8639 24.4173 46.0899 24.6433L48.114 26.9287C48.34 27.1547 48.6279 27.3086 48.9414 27.371C49.2549 27.4333 49.5799 27.4013 49.8752 27.279C50.1705 27.1567 50.4229 26.9496 50.6004 26.6838C50.778 26.4181 50.8728 26.1056 50.8728 25.786C50.8728 25.4663 50.778 25.1539 50.6004 24.8881C50.4229 24.6224 50.1705 24.4152 49.8752 24.2929C49.5799 24.1706 49.2549 24.1386 48.9414 24.201C48.6279 24.2633 48.34 24.4173 48.114 24.6433L47.8214 24.9736" stroke="#F0F1F7" stroke-width="0.718247" stroke-linecap="round" stroke-linejoin="round"/>
</g>
<path d="M55.1233 28.7861V22.2072H56.0762L58.3284 27.6965H58.4014L60.6536 22.2072H61.6065V28.7861H60.8405V23.7619H60.7904L58.7114 28.7861H58.0184L55.9394 23.7619H55.8893V28.7861H55.1233ZM65.0943 28.7861V25.9549L62.7599 22.2072H63.6946L65.4681 25.1297H65.5411L67.3146 22.2072H68.2492L65.9149 25.9549V28.7861H65.0943ZM67.7431 29.9806V29.2421H73.1914V29.9806H67.7431ZM74.0348 28.7861V22.2072H78.1107V22.9458H74.8555V25.0567H77.942V25.7862H74.8555V28.0475H78.1107V28.7861H74.0348ZM79.597 28.7861V22.2072H80.3949L83.9647 27.3272H84.0377V22.2072H84.8492V28.7861H84.0513L80.4815 23.6844H80.4086V28.7861H79.597ZM88.4282 28.7861L86.0027 22.2072H86.8644L88.7974 27.7238H88.8704L90.8035 22.2072H91.6652L89.2397 28.7861H88.4282Z" fill="white"/>
<g clip-path="url(#clip6_6132_115556)">
<path d="M99.4669 26.1899C99.69 26.1899 99.8709 26.009 99.8709 25.7858C99.8709 25.5627 99.69 25.3818 99.4669 25.3818C99.2437 25.3818 99.0629 25.5627 99.0629 25.7858C99.0629 26.009 99.2437 26.1899 99.4669 26.1899Z" fill="#F0F1F7"/>
<path d="M99.4669 23.9008C99.69 23.9008 99.8709 23.7199 99.8709 23.4968C99.8709 23.2737 99.69 23.0928 99.4669 23.0928C99.2437 23.0928 99.0629 23.2737 99.0629 23.4968C99.0629 23.7199 99.2437 23.9008 99.4669 23.9008Z" fill="#F0F1F7"/>
<path d="M99.4669 28.4789C99.69 28.4789 99.8709 28.298 99.8709 28.0749C99.8709 27.8518 99.69 27.6709 99.4669 27.6709C99.2437 27.6709 99.0629 27.8518 99.0629 28.0749C99.0629 28.298 99.2437 28.4789 99.4669 28.4789Z" fill="#F0F1F7"/>
</g>
</g>
<path d="M-199 10.7026H604V9.26613H-199V10.7026Z" fill="#2C2E33" mask="url(#path-15-inside-2_6132_115556)"/>
</g>
<rect width="803" height="34.9839" transform="translate(-199 -25)" fill="#27282E"/>
<rect x="272" y="70" width="44" height="285" transform="rotate(90 272 70)" fill="url(#paint0_linear_6132_115556)"/>
<rect x="194" y="-5" width="25" height="125" fill="url(#paint1_linear_6132_115556)"/>
<rect x="25" y="120" width="25" height="125" transform="rotate(-180 25 120)" fill="url(#paint2_linear_6132_115556)"/>
</g>
<defs>
<filter id="filter0_d_6132_115556" x="-193.254" y="79.6539" width="394.318" height="135.959" filterUnits="userSpaceOnUse" color-interpolation-filters="sRGB">
<feFlood flood-opacity="0" result="BackgroundImageFix"/>
<feColorMatrix in="SourceAlpha" type="matrix" values="0 0 0 0 0 0 0 0 0 0 0 0 0 0 0 0 0 0 127 0" result="hardAlpha"/>
<feOffset dy="0.718247"/>
<feGaussianBlur stdDeviation="1.43649"/>
<feComposite in2="hardAlpha" operator="out"/>
<feColorMatrix type="matrix" values="0 0 0 0 0 0 0 0 0 0 0 0 0 0 0 0 0 0 0.45 0"/>
<feBlend mode="normal" in2="BackgroundImageFix" result="effect1_dropShadow_6132_115556"/>
<feBlend mode="normal" in="SourceGraphic" in2="effect1_dropShadow_6132_115556" result="shape"/>
</filter>
<filter id="filter1_d_6132_115556" x="203.936" y="79.6539" width="394.318" height="135.959" filterUnits="userSpaceOnUse" color-interpolation-filters="sRGB">
<feFlood flood-opacity="0" result="BackgroundImageFix"/>
<feColorMatrix in="SourceAlpha" type="matrix" values="0 0 0 0 0 0 0 0 0 0 0 0 0 0 0 0 0 0 127 0" result="hardAlpha"/>
<feOffset dy="0.718247"/>
<feGaussianBlur stdDeviation="1.43649"/>
<feComposite in2="hardAlpha" operator="out"/>
<feColorMatrix type="matrix" values="0 0 0 0 0 0 0 0 0 0 0 0 0 0 0 0 0 0 0.45 0"/>
<feBlend mode="normal" in2="BackgroundImageFix" result="effect1_dropShadow_6132_115556"/>
<feBlend mode="normal" in="SourceGraphic" in2="effect1_dropShadow_6132_115556" result="shape"/>
</filter>
<filter id="filter2_d_6132_115556" x="-216.238" y="-0.789328" width="837.476" height="66.0784" filterUnits="userSpaceOnUse" color-interpolation-filters="sRGB">
<feFlood flood-opacity="0" result="BackgroundImageFix"/>
<feColorMatrix in="SourceAlpha" type="matrix" values="0 0 0 0 0 0 0 0 0 0 0 0 0 0 0 0 0 0 127 0" result="hardAlpha"/>
<feOffset dy="6.46422"/>
<feGaussianBlur stdDeviation="8.61896"/>
<feComposite in2="hardAlpha" operator="out"/>
<feColorMatrix type="matrix" values="0 0 0 0 0 0 0 0 0 0 0 0 0 0 0 0 0 0 0.3 0"/>
<feBlend mode="normal" in2="BackgroundImageFix" result="effect1_dropShadow_6132_115556"/>
<feBlend mode="normal" in="SourceGraphic" in2="effect1_dropShadow_6132_115556" result="shape"/>
</filter>
<linearGradient id="paint0_linear_6132_115556" x1="316" y1="210.22" x2="272" y2="210.22" gradientUnits="userSpaceOnUse">
<stop stop-color="#2C2E33"/>
<stop offset="1" stop-color="#2C2E33" stop-opacity="0"/>
</linearGradient>
<linearGradient id="paint1_linear_6132_115556" x1="219" y1="56.5" x2="194" y2="56.5" gradientUnits="userSpaceOnUse">
<stop stop-color="#2C2E33"/>
<stop offset="1" stop-color="#2C2E33" stop-opacity="0"/>
</linearGradient>
<linearGradient id="paint2_linear_6132_115556" x1="50" y1="181.5" x2="25" y2="181.5" gradientUnits="userSpaceOnUse">
<stop stop-color="#2C2E33"/>
<stop offset="1" stop-color="#2C2E33" stop-opacity="0"/>
</linearGradient>
<clipPath id="clip0_6132_115556">
<rect width="218" height="114" fill="white"/>
</clipPath>
<clipPath id="clip1_6132_115556">
<path d="M-199 41.5869H604V220.641H-199V41.5869Z" fill="white"/>
</clipPath>
<clipPath id="clip2_6132_115556">
<rect width="8.61896" height="8.61896" fill="white" transform="translate(192.111 55.9521)"/>
</clipPath>
<clipPath id="clip3_6132_115556">
<path d="M-199 9.98438H604V41.5872H-199V9.98438Z" fill="white"/>
</clipPath>
<clipPath id="clip4_6132_115556">
<rect width="8.61896" height="8.61896" fill="white" transform="translate(19.8086 21.4766)"/>
</clipPath>
<clipPath id="clip5_6132_115556">
<rect width="8.61896" height="8.61896" fill="white" transform="translate(42.7925 21.4766)"/>
</clipPath>
<clipPath id="clip6_6132_115556">
<rect width="8.61896" height="8.61896" fill="white" transform="translate(95.1574 21.4766)"/>
</clipPath>
</defs>
</svg>
