<svg width="218" height="114" viewBox="0 0 218 114" fill="none" xmlns="http://www.w3.org/2000/svg">
<g clip-path="url(#clip0_6132_116062)">
<rect width="218" height="114" fill="white"/>
<rect width="803" height="245.64" transform="translate(-199 -25)" fill="#F0F1F7"/>
<g clip-path="url(#clip1_6132_116062)">
<mask id="path-1-inside-1_6132_116062" fill="white">
<path d="M-199 41.0137H604V220.64H-199V41.0137Z"/>
</mask>
<path opacity="0.35" d="M4.79518 62.6875V56.1086H8.87109V56.8472H5.61583V58.9581H8.7024V59.6876H5.61583V61.9489H8.87109V62.6875H4.79518ZM10.2571 62.6875V57.7727H11.0504V58.5113H11.1233C11.3695 57.9915 11.83 57.6861 12.5549 57.6861C13.6582 57.6861 14.2737 58.338 14.2737 59.5052V62.6875H13.4804V59.6967C13.4804 58.8122 13.1157 58.3882 12.3315 58.3882C11.5473 58.3882 11.0504 58.9171 11.0504 59.7787V62.6875H10.2571ZM16.918 62.6875L15.0989 57.7727H15.9378L17.2828 61.8213H17.3557L18.7007 57.7727H19.5396L17.7205 62.6875H16.918ZM21.0076 56.8244C20.7067 56.8244 20.4605 56.5782 20.4605 56.2773C20.4605 55.9764 20.7067 55.7302 21.0076 55.7302C21.3085 55.7302 21.5547 55.9764 21.5547 56.2773C21.5547 56.5782 21.3085 56.8244 21.0076 56.8244ZM20.6064 62.6875V57.7727H21.3997V62.6875H20.6064ZM22.8951 62.6875V57.7727H23.6884V58.5022H23.7614C23.9483 57.987 24.4088 57.6861 25.0744 57.6861C25.2249 57.6861 25.3936 57.7043 25.4711 57.718V58.4885C25.3069 58.4611 25.1565 58.4429 24.9832 58.4429C24.2264 58.4429 23.6884 58.9216 23.6884 59.642V62.6875H22.8951ZM28.3342 62.7741C26.9346 62.7741 26.0683 61.8076 26.0683 60.2347V60.2255C26.0683 58.6481 26.9346 57.6861 28.3342 57.6861C29.7339 57.6861 30.6002 58.6481 30.6002 60.2255V60.2347C30.6002 61.8076 29.7339 62.7741 28.3342 62.7741ZM28.3342 62.072C29.2643 62.072 29.7886 61.3927 29.7886 60.2347V60.2255C29.7886 59.0629 29.2643 58.3882 28.3342 58.3882C27.4042 58.3882 26.8799 59.0629 26.8799 60.2255V60.2347C26.8799 61.3927 27.4042 62.072 28.3342 62.072ZM31.8311 62.6875V57.7727H32.6244V58.5113H32.6974C32.9436 57.9915 33.4041 57.6861 34.129 57.6861C35.2323 57.6861 35.8478 58.338 35.8478 59.5052V62.6875H35.0545V59.6967C35.0545 58.8122 34.6897 58.3882 33.9056 58.3882C33.1214 58.3882 32.6244 58.9171 32.6244 59.7787V62.6875H31.8311ZM37.2839 62.6875V57.7727H38.0772V58.5204H38.1502C38.369 57.9915 38.834 57.6861 39.4769 57.6861C40.1425 57.6861 40.6076 58.0371 40.8355 58.5478H40.9085C41.1729 58.028 41.7337 57.6861 42.413 57.6861C43.416 57.6861 43.9768 58.2605 43.9768 59.2909V62.6875H43.1835V59.4733C43.1835 58.7484 42.8507 58.3882 42.1577 58.3882C41.4738 58.3882 41.0225 58.9034 41.0225 59.528V62.6875H40.2292V59.3502C40.2292 58.7666 39.828 58.3882 39.2079 58.3882C38.5651 58.3882 38.0772 58.949 38.0772 59.642V62.6875H37.2839ZM47.4144 62.7741C46.0102 62.7741 45.1622 61.7893 45.1622 60.2483V60.2438C45.1622 58.7256 46.0284 57.6861 47.3643 57.6861C48.7001 57.6861 49.5117 58.68 49.5117 60.148V60.4581H45.9737C45.9965 61.4748 46.5573 62.0675 47.4327 62.0675C48.0983 62.0675 48.5086 61.7529 48.6409 61.4565L48.6591 61.4155H49.4524L49.4433 61.452C49.2746 62.1176 48.5725 62.7741 47.4144 62.7741ZM47.3597 58.3927C46.6303 58.3927 46.074 58.8897 45.9874 59.8243H48.7047C48.6226 58.8532 48.0846 58.3927 47.3597 58.3927ZM50.7426 62.6875V57.7727H51.5359V58.5113H51.6089C51.8551 57.9915 52.3156 57.6861 53.0405 57.6861C54.1438 57.6861 54.7593 58.338 54.7593 59.5052V62.6875H53.966V59.6967C53.966 58.8122 53.6012 58.3882 52.8171 58.3882C52.0329 58.3882 51.5359 58.9171 51.5359 59.7787V62.6875H50.7426ZM57.9416 62.724C56.9294 62.724 56.5054 62.3501 56.5054 61.4109V58.4292H55.7304V57.7727H56.5054V56.5007H57.3261V57.7727H58.4021V58.4292H57.3261V61.2103C57.3261 61.7893 57.5267 62.0219 58.0373 62.0219C58.1787 62.0219 58.2562 62.0173 58.4021 62.0036V62.6784C58.2471 62.7057 58.0966 62.724 57.9416 62.724ZM62.3138 62.6875V56.1086H63.1345V62.6875H62.3138ZM64.8123 62.6875V56.1086H67.0691C69.0204 56.1086 70.1739 57.3259 70.1739 59.3912V59.4003C70.1739 61.4702 69.025 62.6875 67.0691 62.6875H64.8123ZM65.6329 61.9489H67.0144C68.4824 61.9489 69.335 61.0097 69.335 59.4094V59.4003C69.335 57.7955 68.4733 56.8472 67.0144 56.8472H65.6329V61.9489Z" fill="#828599"/>
<rect x="79.835" y="50.0466" width="126.282" height="19.2818" rx="2.51386" stroke="#4B4DB4" stroke-width="0.718247"/>
<path d="M85.9962 62.9961V56.9233H89.7585V57.605H86.7537V59.5536H89.6028V60.2269H86.7537V62.3143H89.7585V62.9961H85.9962ZM91.1305 62.9961V56.9233H91.867L95.1622 61.6494H95.2296V56.9233H95.9787V62.9961H95.2422L91.9469 58.2868H91.8796V62.9961H91.1305ZM99.2823 62.9961L97.0434 56.9233H97.8388L99.6232 62.0155H99.6905L101.475 56.9233H102.27L100.031 62.9961H99.2823ZM101.887 64.0987V63.4169H106.917V64.0987H101.887ZM107.695 62.9961V56.9233H108.432L111.727 61.6494H111.794V56.9233H112.543V62.9961H111.807L108.512 58.2868H108.444V62.9961H107.695ZM113.608 62.9961L115.847 56.9233H116.596L118.835 62.9961H118.04L117.429 61.258H115.014L114.403 62.9961H113.608ZM116.188 57.9038L115.237 60.6141H117.206L116.255 57.9038H116.188ZM119.9 62.9961V56.9233H120.779L122.858 61.9903H122.926L125.005 56.9233H125.884V62.9961H125.177V58.3584H125.131L123.212 62.9961H122.572L120.653 58.3584H120.607V62.9961H119.9ZM127.433 62.9961V56.9233H131.195V57.605H128.19V59.5536H131.039V60.2269H128.19V62.3143H131.195V62.9961H127.433ZM133.161 62.9961H132.563L132.908 61.3001H131.919L132.037 60.6941H133.034L133.346 59.1622H132.302L132.424 58.5604H133.468L133.804 56.9233H134.402L134.065 58.5604H135.45L135.787 56.9233H136.388L136.052 58.5604H137.1L136.982 59.1622H135.93L135.614 60.6941H136.708L136.59 61.3001H135.492L135.143 62.9961H134.541L134.89 61.3001H133.506L133.161 62.9961ZM133.632 60.6941H135.017L135.328 59.1622H133.943L133.632 60.6941ZM137.996 62.9961V56.9233H138.754V62.9961H137.996ZM140.302 62.9961V56.9233H142.386C144.187 56.9233 145.252 58.0469 145.252 59.9534V59.9618C145.252 61.8724 144.191 62.9961 142.386 62.9961H140.302ZM141.06 62.3143H142.335C143.69 62.3143 144.477 61.4474 144.477 59.9702V59.9618C144.477 58.4804 143.682 57.605 142.335 57.605H141.06V62.3143ZM147.158 62.9961H146.56L146.905 61.3001H145.916L146.034 60.6941H147.032L147.343 59.1622H146.299L146.421 58.5604H147.465L147.802 56.9233H148.399L148.063 58.5604H149.447L149.784 56.9233H150.386L150.049 58.5604H151.097L150.979 59.1622H149.927L149.612 60.6941H150.706L150.588 61.3001H149.489L149.14 62.9961H148.538L148.888 61.3001H147.503L147.158 62.9961ZM147.629 60.6941H149.014L149.325 59.1622H147.941L147.629 60.6941ZM153.382 62.9961V57.765H153.315L151.77 58.8844V58.0848L153.387 56.9233H154.14V62.9961H153.382ZM155.895 62.9961V62.4742L157.949 60.2522C158.723 59.4147 158.95 59.099 158.95 58.5688V58.5604C158.95 57.9207 158.517 57.4409 157.801 57.4409C157.073 57.4409 156.589 57.9165 156.589 58.6319L156.585 58.6403L155.861 58.6361L155.853 58.6319C155.857 57.5545 156.69 56.7802 157.852 56.7802C158.912 56.7802 159.724 57.4998 159.724 58.4804V58.4888C159.724 59.1832 159.426 59.6882 158.327 60.8203L156.947 62.247V62.3143H159.825V62.9961H155.895ZM163.163 63.0971C161.909 63.0971 161.096 62.3985 161.016 61.439L161.012 61.3885H161.74L161.745 61.4305C161.803 62.0281 162.355 62.4406 163.163 62.4406C163.958 62.4406 164.501 61.9945 164.501 61.3506V61.3422C164.501 60.5973 163.967 60.1806 163.117 60.1806H162.355V59.5409H163.083C163.807 59.5409 164.312 59.0948 164.312 58.4888V58.4804C164.312 57.8449 163.895 57.4788 163.154 57.4788C162.439 57.4788 161.93 57.8575 161.867 58.472L161.862 58.5141H161.134L161.139 58.472C161.235 57.483 162.018 56.8223 163.154 56.8223C164.312 56.8223 165.073 57.4662 165.073 58.3878V58.3962C165.073 59.1453 164.543 59.6588 163.786 59.8187V59.8355C164.669 59.9113 165.271 60.4626 165.271 61.3253V61.3337C165.271 62.348 164.379 63.0971 163.163 63.0971ZM169.274 62.9961V61.7378H166.315V61.0476C167.136 59.6714 168.066 58.19 168.916 56.9233H170.014V61.0602H170.877V61.7378H170.014V62.9961H169.274ZM167.089 61.0644H169.278V57.6261H169.227C168.545 58.6445 167.75 59.8987 167.089 61.0139V61.0644ZM174.042 63.1392C172.91 63.1392 172.102 62.4111 172.013 61.439L172.009 61.3927H172.737L172.741 61.4263C172.813 62.0071 173.339 62.47 174.05 62.47C174.858 62.47 175.414 61.8935 175.414 61.0728V61.0644C175.414 60.2564 174.85 59.6798 174.063 59.6798C173.659 59.6798 173.314 59.8019 173.053 60.0502C172.948 60.1512 172.851 60.269 172.775 60.4121H172.118L172.438 56.9233H175.818V57.6008H173.036L172.83 59.6546H172.897C173.166 59.2463 173.642 59.0233 174.193 59.0233C175.334 59.0233 176.154 59.8776 176.154 61.0518V61.0602C176.154 62.2849 175.275 63.1392 174.042 63.1392ZM177.977 63.0382C177.678 63.0382 177.43 62.7899 177.43 62.4911C177.43 62.1881 177.678 61.944 177.977 61.944C178.28 61.944 178.524 62.1881 178.524 62.4911C178.524 62.7899 178.28 63.0382 177.977 63.0382ZM180.165 63.0382C179.866 63.0382 179.618 62.7899 179.618 62.4911C179.618 62.1881 179.866 61.944 180.165 61.944C180.468 61.944 180.712 62.1881 180.712 62.4911C180.712 62.7899 180.468 63.0382 180.165 63.0382ZM182.353 63.0382C182.055 63.0382 181.806 62.7899 181.806 62.4911C181.806 62.1881 182.055 61.944 182.353 61.944C182.656 61.944 182.901 62.1881 182.901 62.4911C182.901 62.7899 182.656 63.0382 182.353 63.0382Z" fill="#6063F6"/>
<g clip-path="url(#clip2_6132_116062)">
<path d="M197.767 61.036H199.383V56.7266H195.074V58.3426" stroke="#4C4E59" stroke-width="0.718247" stroke-linecap="round" stroke-linejoin="round"/>
<path d="M197.767 58.3418H193.458V62.6513H197.767V58.3418Z" stroke="#4C4E59" stroke-width="0.718247" stroke-linecap="round" stroke-linejoin="round"/>
</g>
<g filter="url(#filter0_d_6132_116062)">
<rect x="-190.381" y="81.2363" width="388.572" height="130.785" rx="5.74598" fill="white"/>
<rect x="-190.022" y="81.5955" width="387.853" height="130.067" rx="5.38685" stroke="#C3C6D9" stroke-width="0.718247"/>
<path d="M-178.767 119.122C-180.207 119.122 -181.137 118.365 -181.233 117.294L-181.238 117.243H-180.417L-180.413 117.294C-180.353 117.95 -179.669 118.365 -178.721 118.365C-177.828 118.365 -177.176 117.905 -177.176 117.234V117.23C-177.176 116.683 -177.554 116.309 -178.457 116.108L-179.186 115.949C-180.504 115.657 -181.074 115.05 -181.074 114.098V114.093C-181.069 113.003 -180.116 112.233 -178.758 112.233C-177.445 112.233 -176.528 113.008 -176.46 113.988L-176.455 114.052H-177.276L-177.285 113.993C-177.376 113.414 -177.923 112.985 -178.78 112.99C-179.601 112.994 -180.235 113.382 -180.235 114.07V114.075C-180.235 114.599 -179.875 114.955 -178.981 115.151L-178.252 115.315C-176.879 115.62 -176.337 116.172 -176.337 117.12V117.125C-176.337 118.356 -177.299 119.122 -178.767 119.122ZM-173.063 119.053C-174.467 119.053 -175.315 118.069 -175.315 116.528V116.523C-175.315 115.005 -174.449 113.965 -173.113 113.965C-171.777 113.965 -170.966 114.959 -170.966 116.427V116.737H-174.504C-174.481 117.754 -173.92 118.347 -173.045 118.347C-172.379 118.347 -171.969 118.032 -171.837 117.736L-171.819 117.695H-171.025L-171.034 117.731C-171.203 118.397 -171.905 119.053 -173.063 119.053ZM-173.118 114.672C-173.847 114.672 -174.404 115.169 -174.49 116.104H-171.773C-171.855 115.133 -172.393 114.672 -173.118 114.672ZM-167.989 119.003C-169.001 119.003 -169.425 118.629 -169.425 117.69V114.709H-170.2V114.052H-169.425V112.78H-168.604V114.052H-167.528V114.709H-168.604V117.49C-168.604 118.069 -168.404 118.301 -167.893 118.301C-167.752 118.301 -167.674 118.297 -167.528 118.283V118.958C-167.683 118.985 -167.834 119.003 -167.989 119.003ZM-162.071 119.053C-163.188 119.053 -163.762 118.397 -163.762 117.234V114.052H-162.969V117.043C-162.969 117.927 -162.65 118.351 -161.866 118.351C-161 118.351 -160.539 117.822 -160.539 116.961V114.052H-159.746V118.967H-160.539V118.233H-160.612C-160.854 118.757 -161.351 119.053 -162.071 119.053ZM-158.264 120.608V114.052H-157.471V114.836H-157.398C-157.097 114.289 -156.55 113.965 -155.866 113.965C-154.621 113.965 -153.805 114.973 -153.805 116.505V116.514C-153.805 118.055 -154.617 119.053 -155.866 119.053C-156.541 119.053 -157.129 118.716 -157.398 118.192H-157.471V120.608H-158.264ZM-156.048 118.351C-155.15 118.351 -154.617 117.658 -154.617 116.514V116.505C-154.617 115.36 -155.15 114.667 -156.048 114.667C-156.942 114.667 -157.489 115.37 -157.489 116.505V116.514C-157.489 117.649 -156.942 118.351 -156.048 118.351ZM-148.193 119.003C-149.205 119.003 -149.629 118.629 -149.629 117.69V114.709H-150.404V114.052H-149.629V112.78H-148.808V114.052H-147.732V114.709H-148.808V117.49C-148.808 118.069 -148.608 118.301 -148.097 118.301C-147.956 118.301 -147.878 118.297 -147.732 118.283V118.958C-147.887 118.985 -148.038 119.003 -148.193 119.003ZM-146.501 118.967V112.101H-145.708V114.791H-145.635C-145.389 114.271 -144.928 113.965 -144.204 113.965C-143.1 113.965 -142.485 114.617 -142.485 115.784V118.967H-143.278V115.976C-143.278 115.091 -143.643 114.667 -144.427 114.667C-145.211 114.667 -145.708 115.196 -145.708 116.058V118.967H-146.501ZM-139.043 119.053C-140.447 119.053 -141.295 118.069 -141.295 116.528V116.523C-141.295 115.005 -140.429 113.965 -139.093 113.965C-137.757 113.965 -136.945 114.959 -136.945 116.427V116.737H-140.483C-140.46 117.754 -139.9 118.347 -139.024 118.347C-138.359 118.347 -137.948 118.032 -137.816 117.736L-137.798 117.695H-137.005L-137.014 117.731C-137.182 118.397 -137.884 119.053 -139.043 119.053ZM-139.097 114.672C-139.827 114.672 -140.383 115.169 -140.47 116.104H-137.752C-137.834 115.133 -138.372 114.672 -139.097 114.672ZM-132.76 118.967V114.709H-133.576V114.052H-132.76V113.505C-132.76 112.525 -132.268 112.055 -131.333 112.055C-131.141 112.055 -130.968 112.069 -130.804 112.101V112.734C-130.9 112.716 -131.032 112.712 -131.173 112.712C-131.739 112.712 -131.967 112.99 -131.967 113.528V114.052H-130.85V114.709H-131.967V118.967H-132.76ZM-127.895 119.053C-129.295 119.053 -130.161 118.087 -130.161 116.514V116.505C-130.161 114.927 -129.295 113.965 -127.895 113.965C-126.496 113.965 -125.629 114.927 -125.629 116.505V116.514C-125.629 118.087 -126.496 119.053 -127.895 119.053ZM-127.895 118.351C-126.965 118.351 -126.441 117.672 -126.441 116.514V116.505C-126.441 115.342 -126.965 114.667 -127.895 114.667C-128.825 114.667 -129.35 115.342 -129.35 116.505V116.514C-129.35 117.672 -128.825 118.351 -127.895 118.351ZM-124.353 118.967V112.101H-123.56V118.967H-124.353ZM-121.991 118.967V112.101H-121.198V118.967H-121.991ZM-117.655 119.053C-119.055 119.053 -119.921 118.087 -119.921 116.514V116.505C-119.921 114.927 -119.055 113.965 -117.655 113.965C-116.256 113.965 -115.389 114.927 -115.389 116.505V116.514C-115.389 118.087 -116.256 119.053 -117.655 119.053ZM-117.655 118.351C-116.725 118.351 -116.201 117.672 -116.201 116.514V116.505C-116.201 115.342 -116.725 114.667 -117.655 114.667C-118.585 114.667 -119.11 115.342 -119.11 116.505V116.514C-119.11 117.672 -118.585 118.351 -117.655 118.351ZM-113.393 118.967L-114.769 114.052H-113.976L-113.01 117.982H-112.937L-111.838 114.052H-111.086L-109.987 117.982H-109.914L-108.947 114.052H-108.159L-109.535 118.967H-110.333L-111.432 115.164H-111.505L-112.599 118.967H-113.393ZM-106.691 113.104C-106.991 113.104 -107.238 112.857 -107.238 112.557C-107.238 112.256 -106.991 112.009 -106.691 112.009C-106.39 112.009 -106.143 112.256 -106.143 112.557C-106.143 112.857 -106.39 113.104 -106.691 113.104ZM-107.092 118.967V114.052H-106.298V118.967H-107.092ZM-104.803 118.967V114.052H-104.01V114.791H-103.937C-103.691 114.271 -103.23 113.965 -102.505 113.965C-101.402 113.965 -100.786 114.617 -100.786 115.784V118.967H-101.58V115.976C-101.58 115.091 -101.944 114.667 -102.729 114.667C-103.513 114.667 -104.01 115.196 -104.01 116.058V118.967H-104.803ZM-97.326 120.699C-98.5114 120.699 -99.2682 120.166 -99.3913 119.359L-99.3822 119.354H-98.5615L-98.557 119.359C-98.4703 119.733 -98.0327 119.997 -97.326 119.997C-96.4461 119.997 -95.9218 119.582 -95.9218 118.857V117.863H-95.9947C-96.3047 118.406 -96.861 118.711 -97.5357 118.711C-98.8077 118.711 -99.5965 117.727 -99.5965 116.35V116.341C-99.5965 114.964 -98.8032 113.965 -97.5175 113.965C-96.8245 113.965 -96.2865 114.307 -95.9856 114.864H-95.9309V114.052H-95.1376V118.898C-95.1376 119.997 -95.9856 120.699 -97.326 120.699ZM-97.3625 118.009C-96.4506 118.009 -95.9035 117.325 -95.9035 116.35V116.341C-95.9035 115.365 -96.4552 114.667 -97.3625 114.667C-98.2743 114.667 -98.7849 115.365 -98.7849 116.341V116.35C-98.7849 117.325 -98.2743 118.009 -97.3625 118.009ZM-89.0283 119.053C-90.4325 119.053 -91.2805 118.069 -91.2805 116.528V116.523C-91.2805 115.005 -90.4143 113.965 -89.0784 113.965C-87.7426 113.965 -86.931 114.959 -86.931 116.427V116.737H-90.469C-90.4462 117.754 -89.8854 118.347 -89.01 118.347C-88.3444 118.347 -87.9341 118.032 -87.8019 117.736L-87.7836 117.695H-86.9903L-86.9994 117.731C-87.1681 118.397 -87.8702 119.053 -89.0283 119.053ZM-89.083 114.672C-89.8125 114.672 -90.3687 115.169 -90.4553 116.104H-87.738C-87.8201 115.133 -88.3581 114.672 -89.083 114.672ZM-85.7001 118.967V114.052H-84.9068V114.791H-84.8338C-84.5876 114.271 -84.1272 113.965 -83.4022 113.965C-82.2989 113.965 -81.6834 114.617 -81.6834 115.784V118.967H-82.4767V115.976C-82.4767 115.091 -82.8415 114.667 -83.6256 114.667C-84.4098 114.667 -84.9068 115.196 -84.9068 116.058V118.967H-85.7001ZM-79.0391 118.967L-80.8582 114.052H-80.0193L-78.6744 118.101H-78.6014L-77.2565 114.052H-76.4176L-78.2367 118.967H-79.0391ZM-74.9495 113.104C-75.2504 113.104 -75.4966 112.857 -75.4966 112.557C-75.4966 112.256 -75.2504 112.009 -74.9495 112.009C-74.6486 112.009 -74.4024 112.256 -74.4024 112.557C-74.4024 112.857 -74.6486 113.104 -74.9495 113.104ZM-75.3507 118.967V114.052H-74.5574V118.967H-75.3507ZM-73.062 118.967V114.052H-72.2687V114.781H-72.1958C-72.0088 114.266 -71.5484 113.965 -70.8827 113.965C-70.7323 113.965 -70.5636 113.984 -70.4861 113.997V114.768C-70.6502 114.74 -70.8007 114.722 -70.9739 114.722C-71.7307 114.722 -72.2687 115.201 -72.2687 115.921V118.967H-73.062ZM-67.6229 119.053C-69.0226 119.053 -69.8888 118.087 -69.8888 116.514V116.505C-69.8888 114.927 -69.0226 113.965 -67.6229 113.965C-66.2232 113.965 -65.357 114.927 -65.357 116.505V116.514C-65.357 118.087 -66.2232 119.053 -67.6229 119.053ZM-67.6229 118.351C-66.6928 118.351 -66.1685 117.672 -66.1685 116.514V116.505C-66.1685 115.342 -66.6928 114.667 -67.6229 114.667C-68.553 114.667 -69.0773 115.342 -69.0773 116.505V116.514C-69.0773 117.672 -68.553 118.351 -67.6229 118.351ZM-64.126 118.967V114.052H-63.3327V114.791H-63.2598C-63.0136 114.271 -62.5531 113.965 -61.8282 113.965C-60.7249 113.965 -60.1094 114.617 -60.1094 115.784V118.967H-60.9027V115.976C-60.9027 115.091 -61.2674 114.667 -62.0516 114.667C-62.8358 114.667 -63.3327 115.196 -63.3327 116.058V118.967H-64.126ZM-58.6732 118.967V114.052H-57.8799V114.8H-57.807C-57.5881 114.271 -57.1231 113.965 -56.4803 113.965C-55.8146 113.965 -55.3496 114.316 -55.1216 114.827H-55.0487C-54.7842 114.307 -54.2235 113.965 -53.5441 113.965C-52.5411 113.965 -51.9803 114.54 -51.9803 115.57V118.967H-52.7736V115.753C-52.7736 115.028 -53.1065 114.667 -53.7995 114.667C-54.4833 114.667 -54.9347 115.183 -54.9347 115.807V118.967H-55.728V115.629C-55.728 115.046 -56.1292 114.667 -56.7492 114.667C-57.3921 114.667 -57.8799 115.228 -57.8799 115.921V118.967H-58.6732ZM-48.5427 119.053C-49.947 119.053 -50.795 118.069 -50.795 116.528V116.523C-50.795 115.005 -49.9287 113.965 -48.5929 113.965C-47.257 113.965 -46.4455 114.959 -46.4455 116.427V116.737H-49.9834C-49.9606 117.754 -49.3999 118.347 -48.5245 118.347C-47.8588 118.347 -47.4485 118.032 -47.3163 117.736L-47.2981 117.695H-46.5048L-46.5139 117.731C-46.6826 118.397 -47.3847 119.053 -48.5427 119.053ZM-48.5974 114.672C-49.3269 114.672 -49.8831 115.169 -49.9697 116.104H-47.2525C-47.3345 115.133 -47.8725 114.672 -48.5974 114.672ZM-45.2145 118.967V114.052H-44.4212V114.791H-44.3483C-44.1021 114.271 -43.6416 113.965 -42.9167 113.965C-41.8134 113.965 -41.1979 114.617 -41.1979 115.784V118.967H-41.9912V115.976C-41.9912 115.091 -42.3559 114.667 -43.1401 114.667C-43.9243 114.667 -44.4212 115.196 -44.4212 116.058V118.967H-45.2145ZM-38.0156 119.003C-39.0277 119.003 -39.4517 118.629 -39.4517 117.69V114.709H-40.2268V114.052H-39.4517V112.78H-38.6311V114.052H-37.5551V114.709H-38.6311V117.49C-38.6311 118.069 -38.4305 118.301 -37.9198 118.301C-37.7785 118.301 -37.701 118.297 -37.5551 118.283V118.958C-37.7101 118.985 -37.8606 119.003 -38.0156 119.003ZM-32.3531 118.967L-34.1722 114.052H-33.3333L-31.9883 118.101H-31.9154L-30.5704 114.052H-29.7315L-31.5506 118.967H-32.3531ZM-27.5158 119.053C-28.4504 119.053 -29.1571 118.488 -29.1571 117.594V117.585C-29.1571 116.71 -28.5097 116.204 -27.3653 116.136L-25.9565 116.049V115.602C-25.9565 114.996 -26.3258 114.667 -27.0598 114.667C-27.648 114.667 -28.0355 114.886 -28.1632 115.269L-28.1677 115.283H-28.961L-28.9565 115.256C-28.8288 114.485 -28.0811 113.965 -27.0325 113.965C-25.8334 113.965 -25.1632 114.581 -25.1632 115.602V118.967H-25.9565V118.242H-26.0295C-26.3395 118.766 -26.8547 119.053 -27.5158 119.053ZM-28.3455 117.576C-28.3455 118.073 -27.9215 118.365 -27.3516 118.365C-26.5447 118.365 -25.9565 117.836 -25.9565 117.134V116.687L-27.2696 116.769C-28.0173 116.815 -28.3455 117.079 -28.3455 117.567V117.576ZM-23.7134 118.967V114.052H-22.9201V114.781H-22.8471C-22.6602 114.266 -22.1997 113.965 -21.5341 113.965C-21.3836 113.965 -21.215 113.984 -21.1375 113.997V114.768C-21.3016 114.74 -21.452 114.722 -21.6253 114.722C-22.3821 114.722 -22.9201 115.201 -22.9201 115.921V118.967H-23.7134ZM-19.7378 113.104C-20.0387 113.104 -20.2849 112.857 -20.2849 112.557C-20.2849 112.256 -20.0387 112.009 -19.7378 112.009C-19.4369 112.009 -19.1907 112.256 -19.1907 112.557C-19.1907 112.857 -19.4369 113.104 -19.7378 113.104ZM-20.139 118.967V114.052H-19.3457V118.967H-20.139ZM-16.5008 119.053C-17.4354 119.053 -18.1421 118.488 -18.1421 117.594V117.585C-18.1421 116.71 -17.4947 116.204 -16.3503 116.136L-14.9415 116.049V115.602C-14.9415 114.996 -15.3108 114.667 -16.0449 114.667C-16.633 114.667 -17.0205 114.886 -17.1482 115.269L-17.1527 115.283H-17.946L-17.9415 115.256C-17.8138 114.485 -17.0661 113.965 -16.0175 113.965C-14.8184 113.965 -14.1482 114.581 -14.1482 115.602V118.967H-14.9415V118.242H-15.0145C-15.3245 118.766 -15.8397 119.053 -16.5008 119.053ZM-17.3305 117.576C-17.3305 118.073 -16.9065 118.365 -16.3366 118.365C-15.5297 118.365 -14.9415 117.836 -14.9415 117.134V116.687L-16.2546 116.769C-17.0023 116.815 -17.3305 117.079 -17.3305 117.567V117.576ZM-10.2547 119.053C-10.9386 119.053 -11.4857 118.73 -11.7866 118.183H-11.8595V118.967H-12.6528V112.101H-11.8595V114.827H-11.7866C-11.5176 114.303 -10.9294 113.965 -10.2547 113.965C-9.00547 113.965 -8.19393 114.964 -8.19393 116.505V116.514C-8.19393 118.046 -9.01003 119.053 -10.2547 119.053ZM-10.4371 118.351C-9.53889 118.351 -9.00547 117.658 -9.00547 116.514V116.505C-9.00547 115.36 -9.53889 114.667 -10.4371 114.667C-11.3307 114.667 -11.8778 115.37 -11.8778 116.505V116.514C-11.8778 117.649 -11.3307 118.351 -10.4371 118.351ZM-6.91736 118.967V112.101H-6.12406V118.967H-6.91736ZM-2.59526 119.053C-3.99949 119.053 -4.8475 118.069 -4.8475 116.528V116.523C-4.8475 115.005 -3.98125 113.965 -2.64541 113.965C-1.30957 113.965 -0.498036 114.959 -0.498036 116.427V116.737H-4.03596C-4.01317 117.754 -3.45239 118.347 -2.57702 118.347C-1.91138 118.347 -1.50106 118.032 -1.36884 117.736L-1.3506 117.695H-0.557305L-0.566423 117.731C-0.735113 118.397 -1.43723 119.053 -2.59526 119.053ZM-2.64997 114.672C-3.37944 114.672 -3.93566 115.169 -4.02229 116.104H-1.30501C-1.38708 115.133 -1.92506 114.672 -2.64997 114.672ZM2.41984 119.053C1.32564 119.053 0.573371 118.525 0.482187 117.713H1.29372C1.42594 118.123 1.81803 118.392 2.4472 118.392C3.10828 118.392 3.57787 118.078 3.57787 117.631V117.622C3.57787 117.289 3.32712 117.056 2.72075 116.911L1.95936 116.728C1.03841 116.509 0.623522 116.108 0.623522 115.402V115.397C0.623522 114.581 1.4077 113.965 2.45175 113.965C3.48213 113.965 4.19792 114.481 4.30734 115.283H3.52772C3.42286 114.895 3.03989 114.626 2.4472 114.626C1.86362 114.626 1.43506 114.927 1.43506 115.36V115.37C1.43506 115.702 1.68125 115.912 2.26027 116.053L3.01709 116.236C3.94261 116.459 4.38941 116.86 4.38941 117.563V117.572C4.38941 118.447 3.53684 119.053 2.41984 119.053ZM9.19479 118.967L7.81791 114.052H8.61121L9.57776 117.982H9.65071L10.7495 114.052H11.5017L12.6005 117.982H12.6734L13.64 114.052H14.4287L13.0519 118.967H12.254L11.1552 115.164H11.0823L9.98809 118.967H9.19479ZM15.5229 118.967V112.101H16.3162V114.791H16.3892C16.6354 114.271 17.0959 113.965 17.8208 113.965C18.9241 113.965 19.5396 114.617 19.5396 115.784V118.967H18.7463V115.976C18.7463 115.091 18.3816 114.667 17.5974 114.667C16.8132 114.667 16.3162 115.196 16.3162 116.058V118.967H15.5229ZM22.9818 119.053C21.5775 119.053 20.7295 118.069 20.7295 116.528V116.523C20.7295 115.005 21.5958 113.965 22.9316 113.965C24.2675 113.965 25.079 114.959 25.079 116.427V116.737H21.5411C21.5639 117.754 22.1246 118.347 23 118.347C23.6656 118.347 24.076 118.032 24.2082 117.736L24.2264 117.695H25.0197L25.0106 117.731C24.8419 118.397 24.1398 119.053 22.9818 119.053ZM22.9271 114.672C22.1976 114.672 21.6414 115.169 21.5547 116.104H24.272C24.1899 115.133 23.652 114.672 22.9271 114.672ZM26.31 118.967V114.052H27.1033V114.791H27.1762C27.4224 114.271 27.8829 113.965 28.6078 113.965C29.7111 113.965 30.3266 114.617 30.3266 115.784V118.967H29.5333V115.976C29.5333 115.091 29.1686 114.667 28.3844 114.667C27.6002 114.667 27.1033 115.196 27.1033 116.058V118.967H26.31ZM34.3888 118.967V114.052H35.1821V114.781H35.2551C35.442 114.266 35.9025 113.965 36.5681 113.965C36.7186 113.965 36.8873 113.984 36.9648 113.997V114.768C36.8006 114.74 36.6502 114.722 36.4769 114.722C35.7201 114.722 35.1821 115.201 35.1821 115.921V118.967H34.3888ZM39.5909 119.053C38.4739 119.053 37.8994 118.397 37.8994 117.234V114.052H38.6927V117.043C38.6927 117.927 39.0119 118.351 39.796 118.351C40.6623 118.351 41.1228 117.822 41.1228 116.961V114.052H41.9161V118.967H41.1228V118.233H41.0498C40.8082 118.757 40.3112 119.053 39.5909 119.053ZM43.3978 118.967V114.052H44.1911V114.791H44.264C44.5102 114.271 44.9707 113.965 45.6956 113.965C46.7989 113.965 47.4144 114.617 47.4144 115.784V118.967H46.6211V115.976C46.6211 115.091 46.2564 114.667 45.4722 114.667C44.688 114.667 44.1911 115.196 44.1911 116.058V118.967H43.3978ZM48.8506 118.967V114.052H49.6439V114.791H49.7168C49.963 114.271 50.4235 113.965 51.1484 113.965C52.2517 113.965 52.8672 114.617 52.8672 115.784V118.967H52.0739V115.976C52.0739 115.091 51.7092 114.667 50.925 114.667C50.1408 114.667 49.6439 115.196 49.6439 116.058V118.967H48.8506ZM54.7228 113.104C54.4219 113.104 54.1757 112.857 54.1757 112.557C54.1757 112.256 54.4219 112.009 54.7228 112.009C55.0237 112.009 55.2699 112.256 55.2699 112.557C55.2699 112.857 55.0237 113.104 54.7228 113.104ZM54.3216 118.967V114.052H55.1149V118.967H54.3216ZM56.6103 118.967V114.052H57.4036V114.791H57.4766C57.7227 114.271 58.1832 113.965 58.9081 113.965C60.0115 113.965 60.6269 114.617 60.6269 115.784V118.967H59.8337V115.976C59.8337 115.091 59.4689 114.667 58.6847 114.667C57.9006 114.667 57.4036 115.196 57.4036 116.058V118.967H56.6103ZM64.0874 120.699C62.902 120.699 62.1452 120.166 62.0221 119.359L62.0312 119.354H62.8518L62.8564 119.359C62.943 119.733 63.3807 119.997 64.0874 119.997C64.9673 119.997 65.4916 119.582 65.4916 118.857V117.863H65.4187C65.1086 118.406 64.5524 118.711 63.8777 118.711C62.6056 118.711 61.8169 117.727 61.8169 116.35V116.341C61.8169 114.964 62.6102 113.965 63.8959 113.965C64.5889 113.965 65.1269 114.307 65.4278 114.864H65.4825V114.052H66.2758V118.898C66.2758 119.997 65.4278 120.699 64.0874 120.699ZM64.0509 118.009C64.9627 118.009 65.5098 117.325 65.5098 116.35V116.341C65.5098 115.365 64.9582 114.667 64.0509 114.667C63.1391 114.667 62.6284 115.365 62.6284 116.341V116.35C62.6284 117.325 63.1391 118.009 64.0509 118.009ZM70.7985 120.69C70.6936 120.69 70.5569 120.681 70.4474 120.663V120.011C70.5432 120.029 70.6663 120.034 70.7757 120.034C71.2271 120.034 71.5006 119.828 71.6784 119.263L71.7696 118.971L69.9505 114.052H70.7985L72.148 118.096H72.221L73.5659 114.052H74.4002L72.4808 119.268C72.0751 120.371 71.6693 120.69 70.7985 120.69ZM77.2862 119.053C75.8865 119.053 75.0203 118.087 75.0203 116.514V116.505C75.0203 114.927 75.8865 113.965 77.2862 113.965C78.6859 113.965 79.5521 114.927 79.5521 116.505V116.514C79.5521 118.087 78.6859 119.053 77.2862 119.053ZM77.2862 118.351C78.2163 118.351 78.7406 117.672 78.7406 116.514V116.505C78.7406 115.342 78.2163 114.667 77.2862 114.667C76.3561 114.667 75.8318 115.342 75.8318 116.505V116.514C75.8318 117.672 76.3561 118.351 77.2862 118.351ZM82.429 119.053C81.312 119.053 80.7375 118.397 80.7375 117.234V114.052H81.5308V117.043C81.5308 117.927 81.85 118.351 82.6341 118.351C83.5004 118.351 83.9609 117.822 83.9609 116.961V114.052H84.7542V118.967H83.9609V118.233H83.8879C83.6463 118.757 83.1493 119.053 82.429 119.053ZM86.2359 118.967V114.052H87.0292V114.781H87.1021C87.2891 114.266 87.7496 113.965 88.4152 113.965C88.5656 113.965 88.7343 113.984 88.8118 113.997V114.768C88.6477 114.74 88.4973 114.722 88.324 114.722C87.5672 114.722 87.0292 115.201 87.0292 115.921V118.967H86.2359ZM94.4288 119.053C93.0519 119.053 92.172 118.055 92.172 116.496V116.487C92.172 114.959 93.0473 113.965 94.4242 113.965C95.6187 113.965 96.3345 114.654 96.4804 115.529L96.4849 115.557H95.6962L95.6916 115.543C95.5685 115.06 95.1309 114.667 94.4242 114.667C93.5397 114.667 92.9835 115.379 92.9835 116.487V116.496C92.9835 117.626 93.5488 118.351 94.4242 118.351C95.0853 118.351 95.5047 118.06 95.6871 117.512L95.6962 117.485L96.4804 117.481L96.4713 117.531C96.2707 118.42 95.6096 119.053 94.4288 119.053ZM99.6627 119.053C98.263 119.053 97.3968 118.087 97.3968 116.514V116.505C97.3968 114.927 98.263 113.965 99.6627 113.965C101.062 113.965 101.929 114.927 101.929 116.505V116.514C101.929 118.087 101.062 119.053 99.6627 119.053ZM99.6627 118.351C100.593 118.351 101.117 117.672 101.117 116.514V116.505C101.117 115.342 100.593 114.667 99.6627 114.667C98.7326 114.667 98.2083 115.342 98.2083 116.505V116.514C98.2083 117.672 98.7326 118.351 99.6627 118.351ZM104.974 119.053C103.729 119.053 102.913 118.046 102.913 116.514V116.505C102.913 114.964 103.725 113.965 104.974 113.965C105.649 113.965 106.237 114.303 106.506 114.827H106.579V112.101H107.372V118.967H106.579V118.183H106.506C106.205 118.73 105.658 119.053 104.974 119.053ZM105.157 118.351C106.05 118.351 106.597 117.649 106.597 116.514V116.505C106.597 115.37 106.05 114.667 105.157 114.667C104.258 114.667 103.725 115.36 103.725 116.505V116.514C103.725 117.658 104.258 118.351 105.157 118.351ZM110.901 119.053C109.497 119.053 108.649 118.069 108.649 116.528V116.523C108.649 115.005 109.515 113.965 110.851 113.965C112.187 113.965 112.998 114.959 112.998 116.427V116.737H109.46C109.483 117.754 110.044 118.347 110.919 118.347C111.585 118.347 111.995 118.032 112.128 117.736L112.146 117.695H112.939L112.93 117.731C112.761 118.397 112.059 119.053 110.901 119.053ZM110.846 114.672C110.117 114.672 109.561 115.169 109.474 116.104H112.191C112.109 115.133 111.571 114.672 110.846 114.672ZM118.602 119.003C117.589 119.003 117.165 118.629 117.165 117.69V114.709H116.39V114.052H117.165V112.78H117.986V114.052H119.062V114.709H117.986V117.49C117.986 118.069 118.187 118.301 118.697 118.301C118.839 118.301 118.916 118.297 119.062 118.283V118.958C118.907 118.985 118.757 119.003 118.602 119.003ZM122.194 119.053C120.795 119.053 119.928 118.087 119.928 116.514V116.505C119.928 114.927 120.795 113.965 122.194 113.965C123.594 113.965 124.46 114.927 124.46 116.505V116.514C124.46 118.087 123.594 119.053 122.194 119.053ZM122.194 118.351C123.124 118.351 123.649 117.672 123.649 116.514V116.505C123.649 115.342 123.124 114.667 122.194 114.667C121.264 114.667 120.74 115.342 120.74 116.505V116.514C120.74 117.672 121.264 118.351 122.194 118.351ZM130.063 119.003C129.051 119.003 128.627 118.629 128.627 117.69V114.709H127.852V114.052H128.627V112.78H129.448V114.052H130.524V114.709H129.448V117.49C129.448 118.069 129.648 118.301 130.159 118.301C130.3 118.301 130.378 118.297 130.524 118.283V118.958C130.369 118.985 130.218 119.003 130.063 119.003ZM133.059 119.053C132.124 119.053 131.417 118.488 131.417 117.594V117.585C131.417 116.71 132.065 116.204 133.209 116.136L134.618 116.049V115.602C134.618 114.996 134.249 114.667 133.515 114.667C132.927 114.667 132.539 114.886 132.411 115.269L132.407 115.283H131.613L131.618 115.256C131.746 114.485 132.493 113.965 133.542 113.965C134.741 113.965 135.411 114.581 135.411 115.602V118.967H134.618V118.242H134.545C134.235 118.766 133.72 119.053 133.059 119.053ZM132.229 117.576C132.229 118.073 132.653 118.365 133.223 118.365C134.03 118.365 134.618 117.836 134.618 117.134V116.687L133.305 116.769C132.557 116.815 132.229 117.079 132.229 117.567V117.576ZM138.885 120.699C137.7 120.699 136.943 120.166 136.82 119.359L136.829 119.354H137.65L137.654 119.359C137.741 119.733 138.179 119.997 138.885 119.997C139.765 119.997 140.29 119.582 140.29 118.857V117.863H140.217C139.907 118.406 139.35 118.711 138.676 118.711C137.404 118.711 136.615 117.727 136.615 116.35V116.341C136.615 114.964 137.408 113.965 138.694 113.965C139.387 113.965 139.925 114.307 140.226 114.864H140.28V114.052H141.074V118.898C141.074 119.997 140.226 120.699 138.885 120.699ZM138.849 118.009C139.761 118.009 140.308 117.325 140.308 116.35V116.341C140.308 115.365 139.756 114.667 138.849 114.667C137.937 114.667 137.426 115.365 137.426 116.341V116.35C137.426 117.325 137.937 118.009 138.849 118.009ZM146.923 119.003C145.911 119.003 145.487 118.629 145.487 117.69V114.709H144.712V114.052H145.487V112.78H146.308V114.052H147.384V114.709H146.308V117.49C146.308 118.069 146.508 118.301 147.019 118.301C147.16 118.301 147.238 118.297 147.384 118.283V118.958C147.229 118.985 147.078 119.003 146.923 119.003ZM148.615 118.967V112.101H149.408V114.791H149.481C149.727 114.271 150.188 113.965 150.912 113.965C152.016 113.965 152.631 114.617 152.631 115.784V118.967H151.838V115.976C151.838 115.091 151.473 114.667 150.689 114.667C149.905 114.667 149.408 115.196 149.408 116.058V118.967H148.615ZM156.073 119.053C154.669 119.053 153.821 118.069 153.821 116.528V116.523C153.821 115.005 154.687 113.965 156.023 113.965C157.359 113.965 158.171 114.959 158.171 116.427V116.737H154.633C154.656 117.754 155.216 118.347 156.092 118.347C156.757 118.347 157.168 118.032 157.3 117.736L157.318 117.695H158.111L158.102 117.731C157.934 118.397 157.232 119.053 156.073 119.053ZM156.019 114.672C155.289 114.672 154.733 115.169 154.646 116.104H157.364C157.282 115.133 156.744 114.672 156.019 114.672ZM-179.004 131.053C-180.403 131.053 -181.27 130.087 -181.27 128.514V128.505C-181.27 126.927 -180.403 125.965 -179.004 125.965C-177.604 125.965 -176.738 126.927 -176.738 128.505V128.514C-176.738 130.087 -177.604 131.053 -179.004 131.053ZM-179.004 130.351C-178.074 130.351 -177.549 129.672 -177.549 128.514V128.505C-177.549 127.342 -178.074 126.667 -179.004 126.667C-179.934 126.667 -180.458 127.342 -180.458 128.505V128.514C-180.458 129.672 -179.934 130.351 -179.004 130.351ZM-173.063 131.053C-173.747 131.053 -174.294 130.73 -174.595 130.183H-174.668V130.967H-175.461V124.101H-174.668V126.827H-174.595C-174.326 126.303 -173.738 125.965 -173.063 125.965C-171.814 125.965 -171.002 126.964 -171.002 128.505V128.514C-171.002 130.046 -171.819 131.053 -173.063 131.053ZM-173.246 130.351C-172.347 130.351 -171.814 129.658 -171.814 128.514V128.505C-171.814 127.36 -172.347 126.667 -173.246 126.667C-174.139 126.667 -174.686 127.37 -174.686 128.505V128.514C-174.686 129.649 -174.139 130.351 -173.246 130.351ZM-168.085 131.053C-169.179 131.053 -169.931 130.525 -170.022 129.713H-169.211C-169.078 130.123 -168.686 130.392 -168.057 130.392C-167.396 130.392 -166.926 130.078 -166.926 129.631V129.622C-166.926 129.289 -167.177 129.056 -167.784 128.911L-168.545 128.728C-169.466 128.509 -169.881 128.108 -169.881 127.402V127.397C-169.881 126.581 -169.097 125.965 -168.053 125.965C-167.022 125.965 -166.306 126.481 -166.197 127.283H-166.977C-167.082 126.895 -167.464 126.626 -168.057 126.626C-168.641 126.626 -169.069 126.927 -169.069 127.36V127.37C-169.069 127.702 -168.823 127.912 -168.244 128.053L-167.487 128.236C-166.562 128.459 -166.115 128.86 -166.115 129.563V129.572C-166.115 130.447 -166.968 131.053 -168.085 131.053ZM-162.878 131.053C-164.282 131.053 -165.13 130.069 -165.13 128.528V128.523C-165.13 127.005 -164.264 125.965 -162.928 125.965C-161.592 125.965 -160.781 126.959 -160.781 128.427V128.737H-164.319C-164.296 129.754 -163.735 130.347 -162.86 130.347C-162.194 130.347 -161.784 130.032 -161.652 129.736L-161.633 129.695H-160.84L-160.849 129.731C-161.018 130.397 -161.72 131.053 -162.878 131.053ZM-162.933 126.672C-163.662 126.672 -164.218 127.169 -164.305 128.104H-161.588C-161.67 127.133 -162.208 126.672 -162.933 126.672ZM-159.55 130.967V126.052H-158.756V126.781H-158.683C-158.497 126.266 -158.036 125.965 -157.37 125.965C-157.22 125.965 -157.051 125.984 -156.974 125.997V126.768C-157.138 126.74 -157.288 126.722 -157.462 126.722C-158.218 126.722 -158.756 127.201 -158.756 127.921V130.967H-159.55ZM-154.557 130.967L-156.377 126.052H-155.538L-154.193 130.101H-154.12L-152.775 126.052H-151.936L-153.755 130.967H-154.557ZM-149.72 131.053C-150.655 131.053 -151.361 130.488 -151.361 129.594V129.585C-151.361 128.71 -150.714 128.204 -149.57 128.136L-148.161 128.049V127.602C-148.161 126.996 -148.53 126.667 -149.264 126.667C-149.852 126.667 -150.24 126.886 -150.368 127.269L-150.372 127.283H-151.165L-151.161 127.256C-151.033 126.485 -150.285 125.965 -149.237 125.965C-148.038 125.965 -147.368 126.581 -147.368 127.602V130.967H-148.161V130.242H-148.234C-148.544 130.766 -149.059 131.053 -149.72 131.053ZM-150.55 129.576C-150.55 130.073 -150.126 130.365 -149.556 130.365C-148.749 130.365 -148.161 129.836 -148.161 129.134V128.687L-149.474 128.769C-150.222 128.815 -150.55 129.079 -150.55 129.567V129.576ZM-143.474 131.053C-144.158 131.053 -144.705 130.73 -145.006 130.183H-145.079V130.967H-145.872V124.101H-145.079V126.827H-145.006C-144.737 126.303 -144.149 125.965 -143.474 125.965C-142.225 125.965 -141.413 126.964 -141.413 128.505V128.514C-141.413 130.046 -142.229 131.053 -143.474 131.053ZM-143.656 130.351C-142.758 130.351 -142.225 129.658 -142.225 128.514V128.505C-142.225 127.36 -142.758 126.667 -143.656 126.667C-144.55 126.667 -145.097 127.37 -145.097 128.505V128.514C-145.097 129.649 -144.55 130.351 -143.656 130.351ZM-139.763 125.104C-140.064 125.104 -140.31 124.857 -140.31 124.557C-140.31 124.256 -140.064 124.009 -139.763 124.009C-139.462 124.009 -139.216 124.256 -139.216 124.557C-139.216 124.857 -139.462 125.104 -139.763 125.104ZM-140.164 130.967V126.052H-139.371V130.967H-140.164ZM-137.83 130.967V124.101H-137.036V130.967H-137.83ZM-135.094 125.104C-135.395 125.104 -135.641 124.857 -135.641 124.557C-135.641 124.256 -135.395 124.009 -135.094 124.009C-134.793 124.009 -134.547 124.256 -134.547 124.557C-134.547 124.857 -134.793 125.104 -135.094 125.104ZM-135.495 130.967V126.052H-134.702V130.967H-135.495ZM-131.461 131.003C-132.473 131.003 -132.897 130.629 -132.897 129.69V126.709H-133.672V126.052H-132.897V124.78H-132.076V126.052H-131V126.709H-132.076V129.49C-132.076 130.069 -131.875 130.301 -131.365 130.301C-131.224 130.301 -131.146 130.297 -131 130.283V130.958C-131.155 130.985 -131.306 131.003 -131.461 131.003ZM-129.395 132.69C-129.5 132.69 -129.637 132.681 -129.746 132.663V132.011C-129.651 132.029 -129.528 132.034 -129.418 132.034C-128.967 132.034 -128.693 131.828 -128.515 131.263L-128.424 130.971L-130.243 126.052H-129.395L-128.046 130.096H-127.973L-126.628 126.052H-125.794L-127.713 131.268C-128.119 132.371 -128.524 132.69 -129.395 132.69ZM-120.304 131.053C-121.549 131.053 -122.365 130.046 -122.365 128.514V128.505C-122.365 126.964 -121.553 125.965 -120.304 125.965C-119.63 125.965 -119.041 126.303 -118.772 126.827H-118.699V124.101H-117.906V130.967H-118.699V130.183H-118.772C-119.073 130.73 -119.62 131.053 -120.304 131.053ZM-120.122 130.351C-119.228 130.351 -118.681 129.649 -118.681 128.514V128.505C-118.681 127.37 -119.228 126.667 -120.122 126.667C-121.02 126.667 -121.553 127.36 -121.553 128.505V128.514C-121.553 129.658 -121.02 130.351 -120.122 130.351ZM-115.034 131.053C-115.968 131.053 -116.675 130.488 -116.675 129.594V129.585C-116.675 128.71 -116.028 128.204 -114.883 128.136L-113.475 128.049V127.602C-113.475 126.996 -113.844 126.667 -114.578 126.667C-115.166 126.667 -115.554 126.886 -115.681 127.269L-115.686 127.283H-116.479L-116.475 127.256C-116.347 126.485 -115.599 125.965 -114.551 125.965C-113.352 125.965 -112.681 126.581 -112.681 127.602V130.967H-113.475V130.242H-113.548C-113.858 130.766 -114.373 131.053 -115.034 131.053ZM-115.864 129.576C-115.864 130.073 -115.44 130.365 -114.87 130.365C-114.063 130.365 -113.475 129.836 -113.475 129.134V128.687L-114.788 128.769C-115.535 128.815 -115.864 129.079 -115.864 129.567V129.576ZM-109.485 131.003C-110.497 131.003 -110.921 130.629 -110.921 129.69V126.709H-111.697V126.052H-110.921V124.78H-110.101V126.052H-109.025V126.709H-110.101V129.49C-110.101 130.069 -109.9 130.301 -109.39 130.301C-109.248 130.301 -109.171 130.297 -109.025 130.283V130.958C-109.18 130.985 -109.33 131.003 -109.485 131.003ZM-106.49 131.053C-107.425 131.053 -108.131 130.488 -108.131 129.594V129.585C-108.131 128.71 -107.484 128.204 -106.339 128.136L-104.931 128.049V127.602C-104.931 126.996 -105.3 126.667 -106.034 126.667C-106.622 126.667 -107.01 126.886 -107.137 127.269L-107.142 127.283H-107.935L-107.931 127.256C-107.803 126.485 -107.055 125.965 -106.007 125.965C-104.808 125.965 -104.137 126.581 -104.137 127.602V130.967H-104.931V130.242H-105.004C-105.314 130.766 -105.829 131.053 -106.49 131.053ZM-107.32 129.576C-107.32 130.073 -106.896 130.365 -106.326 130.365C-105.519 130.365 -104.931 129.836 -104.931 129.134V128.687L-106.244 128.769C-106.991 128.815 -107.32 129.079 -107.32 129.567V129.576ZM-99.1132 130.967L-100.49 126.052H-99.6968L-98.7302 129.982H-98.6573L-97.5585 126.052H-96.8062L-95.7075 129.982H-95.6345L-94.668 126.052H-93.8792L-95.2561 130.967H-96.054L-97.1527 127.164H-97.2257L-98.3199 130.967H-99.1132ZM-92.4112 125.104C-92.7121 125.104 -92.9583 124.857 -92.9583 124.557C-92.9583 124.256 -92.7121 124.009 -92.4112 124.009C-92.1103 124.009 -91.8641 124.256 -91.8641 124.557C-91.8641 124.857 -92.1103 125.104 -92.4112 125.104ZM-92.8124 130.967V126.052H-92.0191V130.967H-92.8124ZM-88.7775 131.003C-89.7897 131.003 -90.2137 130.629 -90.2137 129.69V126.709H-90.9887V126.052H-90.2137V124.78H-89.393V126.052H-88.317V126.709H-89.393V129.49C-89.393 130.069 -89.1924 130.301 -88.6818 130.301C-88.5404 130.301 -88.4629 130.297 -88.317 130.283V130.958C-88.4721 130.985 -88.6225 131.003 -88.7775 131.003ZM-87.0861 130.967V124.101H-86.2928V126.791H-86.2198C-85.9736 126.271 -85.5131 125.965 -84.7882 125.965C-83.6849 125.965 -83.0694 126.617 -83.0694 127.784V130.967H-83.8627V127.976C-83.8627 127.091 -84.2275 126.667 -85.0116 126.667C-85.7958 126.667 -86.2928 127.196 -86.2928 128.058V130.967H-87.0861ZM-77.261 131.003C-78.2732 131.003 -78.6972 130.629 -78.6972 129.69V126.709H-79.4722V126.052H-78.6972V124.78H-77.8765V126.052H-76.8005V126.709H-77.8765V129.49C-77.8765 130.069 -77.6759 130.301 -77.1653 130.301C-77.0239 130.301 -76.9464 130.297 -76.8005 130.283V130.958C-76.9556 130.985 -77.106 131.003 -77.261 131.003ZM-75.5696 130.967V124.101H-74.7763V126.791H-74.7033C-74.4571 126.271 -73.9966 125.965 -73.2717 125.965C-72.1684 125.965 -71.5529 126.617 -71.5529 127.784V130.967H-72.3462V127.976C-72.3462 127.091 -72.711 126.667 -73.4951 126.667C-74.2793 126.667 -74.7763 127.196 -74.7763 128.058V130.967H-75.5696ZM-69.6973 125.104C-69.9982 125.104 -70.2444 124.857 -70.2444 124.557C-70.2444 124.256 -69.9982 124.009 -69.6973 124.009C-69.3964 124.009 -69.1502 124.256 -69.1502 124.557C-69.1502 124.857 -69.3964 125.104 -69.6973 125.104ZM-70.0985 130.967V126.052H-69.3052V130.967H-70.0985ZM-66.1229 131.053C-67.2171 131.053 -67.9694 130.525 -68.0606 129.713H-67.249C-67.1168 130.123 -66.7247 130.392 -66.0956 130.392C-65.4345 130.392 -64.9649 130.078 -64.9649 129.631V129.622C-64.9649 129.289 -65.2157 129.056 -65.822 128.911L-66.5834 128.728C-67.5044 128.509 -67.9192 128.108 -67.9192 127.402V127.397C-67.9192 126.581 -67.1351 125.965 -66.091 125.965C-65.0606 125.965 -64.3448 126.481 -64.2354 127.283H-65.015C-65.1199 126.895 -65.5029 126.626 -66.0956 126.626C-66.6792 126.626 -67.1077 126.927 -67.1077 127.36V127.37C-67.1077 127.702 -66.8615 127.912 -66.2825 128.053L-65.5257 128.236C-64.6002 128.459 -64.1534 128.86 -64.1534 129.563V129.572C-64.1534 130.447 -65.0059 131.053 -66.1229 131.053ZM-60.2963 130.967V126.052H-59.503V126.781H-59.43C-59.2431 126.266 -58.7826 125.965 -58.117 125.965C-57.9666 125.965 -57.7979 125.984 -57.7204 125.997V126.768C-57.8845 126.74 -58.0349 126.722 -58.2082 126.722C-58.965 126.722 -59.503 127.201 -59.503 127.921V130.967H-60.2963ZM-55.0943 131.053C-56.2113 131.053 -56.7857 130.397 -56.7857 129.234V126.052H-55.9924V129.043C-55.9924 129.927 -55.6733 130.351 -54.8891 130.351C-54.0229 130.351 -53.5624 129.822 -53.5624 128.961V126.052H-52.7691V130.967H-53.5624V130.233H-53.6353C-53.877 130.757 -54.3739 131.053 -55.0943 131.053ZM-51.2874 130.967V126.052H-50.4941V126.791H-50.4211C-50.1749 126.271 -49.7144 125.965 -48.9895 125.965C-47.8862 125.965 -47.2707 126.617 -47.2707 127.784V130.967H-48.064V127.976C-48.064 127.091 -48.4287 126.667 -49.2129 126.667C-49.9971 126.667 -50.4941 127.196 -50.4941 128.058V130.967H-51.2874ZM-41.1979 131.053C-42.5747 131.053 -43.4547 130.055 -43.4547 128.496V128.487C-43.4547 126.959 -42.5793 125.965 -41.2024 125.965C-40.0079 125.965 -39.2921 126.654 -39.1462 127.529L-39.1417 127.557H-39.9304L-39.935 127.543C-40.0581 127.06 -40.4957 126.667 -41.2024 126.667C-42.0869 126.667 -42.6431 127.379 -42.6431 128.487V128.496C-42.6431 129.626 -42.0778 130.351 -41.2024 130.351C-40.5413 130.351 -40.1219 130.06 -39.9395 129.512L-39.9304 129.485L-39.1462 129.481L-39.1553 129.531C-39.356 130.42 -40.017 131.053 -41.1979 131.053ZM-35.9639 131.053C-37.3636 131.053 -38.2298 130.087 -38.2298 128.514V128.505C-38.2298 126.927 -37.3636 125.965 -35.9639 125.965C-34.5643 125.965 -33.698 126.927 -33.698 128.505V128.514C-33.698 130.087 -34.5643 131.053 -35.9639 131.053ZM-35.9639 130.351C-35.0338 130.351 -34.5095 129.672 -34.5095 128.514V128.505C-34.5095 127.342 -35.0338 126.667 -35.9639 126.667C-36.894 126.667 -37.4183 127.342 -37.4183 128.505V128.514C-37.4183 129.672 -36.894 130.351 -35.9639 130.351ZM-32.467 130.967V126.052H-31.6737V126.791H-31.6008C-31.3546 126.271 -30.8941 125.965 -30.1692 125.965C-29.0659 125.965 -28.4504 126.617 -28.4504 127.784V130.967H-29.2437V127.976C-29.2437 127.091 -29.6084 126.667 -30.3926 126.667C-31.1768 126.667 -31.6737 127.196 -31.6737 128.058V130.967H-32.467ZM-26.686 130.967V126.709H-27.5021V126.052H-26.686V125.505C-26.686 124.525 -26.1936 124.055 -25.259 124.055C-25.0675 124.055 -24.8942 124.069 -24.7301 124.101V124.734C-24.8258 124.716 -24.9581 124.712 -25.0994 124.712C-25.6647 124.712 -25.8927 124.99 -25.8927 125.528V126.052H-24.7757V126.709H-25.8927V130.967H-26.686ZM-23.2119 125.104C-23.5128 125.104 -23.759 124.857 -23.759 124.557C-23.759 124.256 -23.5128 124.009 -23.2119 124.009C-22.911 124.009 -22.6648 124.256 -22.6648 124.557C-22.6648 124.857 -22.911 125.104 -23.2119 125.104ZM-23.6131 130.967V126.052H-22.8198V130.967H-23.6131ZM-19.3001 132.699C-20.4855 132.699 -21.2423 132.166 -21.3654 131.359L-21.3563 131.354H-20.5356L-20.5311 131.359C-20.4445 131.733 -20.0068 131.997 -19.3001 131.997C-18.4202 131.997 -17.8959 131.582 -17.8959 130.857V129.863H-17.9688C-18.2788 130.406 -18.8351 130.711 -19.5098 130.711C-20.7818 130.711 -21.5706 129.727 -21.5706 128.35V128.341C-21.5706 126.964 -20.7773 125.965 -19.4916 125.965C-18.7986 125.965 -18.2606 126.307 -17.9597 126.864H-17.905V126.052H-17.1117V130.898C-17.1117 131.997 -17.9597 132.699 -19.3001 132.699ZM-19.3366 130.009C-18.4247 130.009 -17.8776 129.325 -17.8776 128.35V128.341C-17.8776 127.365 -18.4293 126.667 -19.3366 126.667C-20.2484 126.667 -20.759 127.365 -20.759 128.341V128.35C-20.759 129.325 -20.2484 130.009 -19.3366 130.009ZM-14.9871 127.484C-15.3108 127.484 -15.5798 127.215 -15.5798 126.891C-15.5798 126.563 -15.3108 126.298 -14.9871 126.298C-14.6589 126.298 -14.3944 126.563 -14.3944 126.891C-14.3944 127.215 -14.6589 127.484 -14.9871 127.484ZM-14.9871 131.012C-15.3108 131.012 -15.5798 130.743 -15.5798 130.42C-15.5798 130.091 -15.3108 129.827 -14.9871 129.827C-14.6589 129.827 -14.3944 130.091 -14.3944 130.42C-14.3944 130.743 -14.6589 131.012 -14.9871 131.012Z" fill="#828599"/>
</g>
<g filter="url(#filter1_d_6132_116062)">
<rect x="206.809" y="81.2363" width="388.572" height="130.785" rx="5.74598" fill="white"/>
<rect x="207.169" y="81.5955" width="387.853" height="130.067" rx="5.38685" stroke="#C3C6D9" stroke-width="0.718247"/>
<rect x="215.428" y="92.7285" width="14.3649" height="14.3649" rx="7.18247" fill="#4B4DB4"/>
<path d="M216.267 118.967V112.388H218.779C220.047 112.388 220.877 113.163 220.877 114.344V114.353C220.877 115.265 220.38 115.976 219.555 116.236L221.077 118.967H220.115L218.707 116.364H217.088V118.967H216.267ZM217.088 115.634H218.707C219.55 115.634 220.029 115.183 220.029 114.38V114.371C220.029 113.587 219.518 113.117 218.67 113.117H217.088V115.634ZM223.913 119.053C222.796 119.053 222.222 118.397 222.222 117.234V114.052H223.015V117.043C223.015 117.927 223.334 118.351 224.118 118.351C224.985 118.351 225.445 117.822 225.445 116.961V114.052H226.238V118.967H225.445V118.233H225.372C225.13 118.757 224.633 119.053 223.913 119.053ZM227.72 118.967V114.052H228.513V114.791H228.586C228.832 114.271 229.293 113.965 230.018 113.965C231.121 113.965 231.737 114.617 231.737 115.784V118.967H230.943V115.976C230.943 115.091 230.579 114.667 229.794 114.667C229.01 114.667 228.513 115.196 228.513 116.058V118.967H227.72ZM233.173 118.967V114.052H233.966V114.791H234.039C234.285 114.271 234.746 113.965 235.471 113.965C236.574 113.965 237.189 114.617 237.189 115.784V118.967H236.396V115.976C236.396 115.091 236.031 114.667 235.247 114.667C234.463 114.667 233.966 115.196 233.966 116.058V118.967H233.173ZM239.045 113.104C238.744 113.104 238.498 112.857 238.498 112.557C238.498 112.256 238.744 112.009 239.045 112.009C239.346 112.009 239.592 112.256 239.592 112.557C239.592 112.857 239.346 113.104 239.045 113.104ZM238.644 118.967V114.052H239.437V118.967H238.644ZM240.933 118.967V114.052H241.726V114.791H241.799C242.045 114.271 242.505 113.965 243.23 113.965C244.334 113.965 244.949 114.617 244.949 115.784V118.967H244.156V115.976C244.156 115.091 243.791 114.667 243.007 114.667C242.223 114.667 241.726 115.196 241.726 116.058V118.967H240.933ZM248.41 120.699C247.224 120.699 246.467 120.166 246.344 119.359L246.353 119.354H247.174L247.179 119.359C247.265 119.733 247.703 119.997 248.41 119.997C249.29 119.997 249.814 119.582 249.814 118.857V117.863H249.741C249.431 118.406 248.875 118.711 248.2 118.711C246.928 118.711 246.139 117.727 246.139 116.35V116.341C246.139 114.964 246.932 113.965 248.218 113.965C248.911 113.965 249.449 114.307 249.75 114.864H249.805V114.052H250.598V118.898C250.598 119.997 249.75 120.699 248.41 120.699ZM248.373 118.009C249.285 118.009 249.832 117.325 249.832 116.35V116.341C249.832 115.365 249.28 114.667 248.373 114.667C247.461 114.667 246.951 115.365 246.951 116.341V116.35C246.951 117.325 247.461 118.009 248.373 118.009ZM255.121 120.69C255.016 120.69 254.879 120.681 254.77 120.663V120.011C254.865 120.029 254.989 120.034 255.098 120.034C255.549 120.034 255.823 119.828 256.001 119.263L256.092 118.971L254.273 114.052H255.121L256.47 118.096H256.543L257.888 114.052H258.722L256.803 119.268C256.397 120.371 255.992 120.69 255.121 120.69ZM261.608 119.053C260.209 119.053 259.343 118.087 259.343 116.514V116.505C259.343 114.927 260.209 113.965 261.608 113.965C263.008 113.965 263.874 114.927 263.874 116.505V116.514C263.874 118.087 263.008 119.053 261.608 119.053ZM261.608 118.351C262.539 118.351 263.063 117.672 263.063 116.514V116.505C263.063 115.342 262.539 114.667 261.608 114.667C260.678 114.667 260.154 115.342 260.154 116.505V116.514C260.154 117.672 260.678 118.351 261.608 118.351ZM266.751 119.053C265.634 119.053 265.06 118.397 265.06 117.234V114.052H265.853V117.043C265.853 117.927 266.172 118.351 266.956 118.351C267.823 118.351 268.283 117.822 268.283 116.961V114.052H269.076V118.967H268.283V118.233H268.21C267.969 118.757 267.472 119.053 266.751 119.053ZM270.558 118.967V114.052H271.351V114.781H271.424C271.611 114.266 272.072 113.965 272.737 113.965C272.888 113.965 273.057 113.984 273.134 113.997V114.768C272.97 114.74 272.819 114.722 272.646 114.722C271.889 114.722 271.351 115.201 271.351 115.921V118.967H270.558ZM278.09 119.053C277.155 119.053 276.449 118.488 276.449 117.594V117.585C276.449 116.71 277.096 116.204 278.24 116.136L279.649 116.049V115.602C279.649 114.996 279.28 114.667 278.546 114.667C277.958 114.667 277.57 114.886 277.442 115.269L277.438 115.283H276.645L276.649 115.256C276.777 114.485 277.525 113.965 278.573 113.965C279.772 113.965 280.442 114.581 280.442 115.602V118.967H279.649V118.242H279.576C279.266 118.766 278.751 119.053 278.09 119.053ZM277.26 117.576C277.26 118.073 277.684 118.365 278.254 118.365C279.061 118.365 279.649 117.836 279.649 117.134V116.687L278.336 116.769C277.588 116.815 277.26 117.079 277.26 117.567V117.576ZM281.892 120.608V114.052H282.686V114.836H282.759C283.059 114.289 283.607 113.965 284.29 113.965C285.535 113.965 286.351 114.973 286.351 116.505V116.514C286.351 118.055 285.54 119.053 284.29 119.053C283.616 119.053 283.027 118.716 282.759 118.192H282.686V120.608H281.892ZM284.108 118.351C285.006 118.351 285.54 117.658 285.54 116.514V116.505C285.54 115.36 285.006 114.667 284.108 114.667C283.214 114.667 282.667 115.37 282.667 116.505V116.514C282.667 117.649 283.214 118.351 284.108 118.351ZM287.591 120.608V114.052H288.385V114.836H288.457C288.758 114.289 289.305 113.965 289.989 113.965C291.234 113.965 292.05 114.973 292.05 116.505V116.514C292.05 118.055 291.239 119.053 289.989 119.053C289.315 119.053 288.726 118.716 288.457 118.192H288.385V120.608H287.591ZM289.807 118.351C290.705 118.351 291.239 117.658 291.239 116.514V116.505C291.239 115.36 290.705 114.667 289.807 114.667C288.913 114.667 288.366 115.37 288.366 116.505V116.514C288.366 117.649 288.913 118.351 289.807 118.351ZM296.865 118.967L295.488 114.052H296.281L297.248 117.982H297.321L298.419 114.052H299.172L300.27 117.982H300.343L301.31 114.052H302.099L300.722 118.967H299.924L298.825 115.164H298.752L297.658 118.967H296.865ZM303.567 113.104C303.266 113.104 303.02 112.857 303.02 112.557C303.02 112.256 303.266 112.009 303.567 112.009C303.868 112.009 304.114 112.256 304.114 112.557C304.114 112.857 303.868 113.104 303.567 113.104ZM303.165 118.967V114.052H303.959V118.967H303.165ZM305.5 118.967V112.101H306.293V118.967H305.5ZM307.861 118.967V112.101H308.655V118.967H307.861ZM313.223 113.104C312.922 113.104 312.676 112.857 312.676 112.557C312.676 112.256 312.922 112.009 313.223 112.009C313.524 112.009 313.77 112.256 313.77 112.557C313.77 112.857 313.524 113.104 313.223 113.104ZM312.822 118.967V114.052H313.615V118.967H312.822ZM315.11 118.967V114.052H315.904V114.791H315.977C316.223 114.271 316.683 113.965 317.408 113.965C318.512 113.965 319.127 114.617 319.127 115.784V118.967H318.334V115.976C318.334 115.091 317.969 114.667 317.185 114.667C316.401 114.667 315.904 115.196 315.904 116.058V118.967H315.11ZM322.309 119.003C321.297 119.003 320.873 118.629 320.873 117.69V114.709H320.098V114.052H320.873V112.78H321.694V114.052H322.77V114.709H321.694V117.49C321.694 118.069 321.895 118.301 322.405 118.301C322.547 118.301 322.624 118.297 322.77 118.283V118.958C322.615 118.985 322.464 119.003 322.309 119.003ZM325.888 119.053C324.484 119.053 323.636 118.069 323.636 116.528V116.523C323.636 115.005 324.502 113.965 325.838 113.965C327.174 113.965 327.986 114.959 327.986 116.427V116.737H324.448C324.47 117.754 325.031 118.347 325.907 118.347C326.572 118.347 326.983 118.032 327.115 117.736L327.133 117.695H327.926L327.917 117.731C327.749 118.397 327.046 119.053 325.888 119.053ZM325.834 114.672C325.104 114.672 324.548 115.169 324.461 116.104H327.179C327.097 115.133 326.559 114.672 325.834 114.672ZM331.241 120.699C330.055 120.699 329.299 120.166 329.176 119.359L329.185 119.354H330.005L330.01 119.359C330.097 119.733 330.534 119.997 331.241 119.997C332.121 119.997 332.645 119.582 332.645 118.857V117.863H332.572C332.262 118.406 331.706 118.711 331.031 118.711C329.759 118.711 328.97 117.727 328.97 116.35V116.341C328.97 114.964 329.764 113.965 331.049 113.965C331.742 113.965 332.28 114.307 332.581 114.864H332.636V114.052H333.429V118.898C333.429 119.997 332.581 120.699 331.241 120.699ZM331.204 118.009C332.116 118.009 332.663 117.325 332.663 116.35V116.341C332.663 115.365 332.112 114.667 331.204 114.667C330.293 114.667 329.782 115.365 329.782 116.341V116.35C329.782 117.325 330.293 118.009 331.204 118.009ZM334.906 118.967V114.052H335.7V114.781H335.773C335.96 114.266 336.42 113.965 337.086 113.965C337.236 113.965 337.405 113.984 337.482 113.997V114.768C337.318 114.74 337.168 114.722 336.995 114.722C336.238 114.722 335.7 115.201 335.7 115.921V118.967H334.906ZM339.812 119.053C338.878 119.053 338.171 118.488 338.171 117.594V117.585C338.171 116.71 338.818 116.204 339.963 116.136L341.371 116.049V115.602C341.371 114.996 341.002 114.667 340.268 114.667C339.68 114.667 339.292 114.886 339.165 115.269L339.16 115.283H338.367L338.371 115.256C338.499 114.485 339.247 113.965 340.295 113.965C341.494 113.965 342.165 114.581 342.165 115.602V118.967H341.371V118.242H341.298C340.988 118.766 340.473 119.053 339.812 119.053ZM338.982 117.576C338.982 118.073 339.406 118.365 339.976 118.365C340.783 118.365 341.371 117.836 341.371 117.134V116.687L340.058 116.769C339.311 116.815 338.982 117.079 338.982 117.567V117.576ZM345.361 119.003C344.349 119.003 343.925 118.629 343.925 117.69V114.709H343.149V114.052H343.925V112.78H344.745V114.052H345.821V114.709H344.745V117.49C344.745 118.069 344.946 118.301 345.456 118.301C345.598 118.301 345.675 118.297 345.821 118.283V118.958C345.666 118.985 345.516 119.003 345.361 119.003ZM348.94 119.053C347.535 119.053 346.687 118.069 346.687 116.528V116.523C346.687 115.005 347.554 113.965 348.889 113.965C350.225 113.965 351.037 114.959 351.037 116.427V116.737H347.499C347.522 117.754 348.082 118.347 348.958 118.347C349.623 118.347 350.034 118.032 350.166 117.736L350.184 117.695H350.978L350.968 117.731C350.8 118.397 350.098 119.053 348.94 119.053ZM348.885 114.672C348.155 114.672 347.599 115.169 347.513 116.104H350.23C350.148 115.133 349.61 114.672 348.885 114.672ZM355.313 120.69C355.209 120.69 355.072 120.681 354.962 120.663V120.011C355.058 120.029 355.181 120.034 355.291 120.034C355.742 120.034 356.015 119.828 356.193 119.263L356.284 118.971L354.465 114.052H355.313L356.663 118.096H356.736L358.081 114.052H358.915L356.996 119.268C356.59 120.371 356.184 120.69 355.313 120.69ZM361.801 119.053C360.401 119.053 359.535 118.087 359.535 116.514V116.505C359.535 114.927 360.401 113.965 361.801 113.965C363.201 113.965 364.067 114.927 364.067 116.505V116.514C364.067 118.087 363.201 119.053 361.801 119.053ZM361.801 118.351C362.731 118.351 363.255 117.672 363.255 116.514V116.505C363.255 115.342 362.731 114.667 361.801 114.667C360.871 114.667 360.347 115.342 360.347 116.505V116.514C360.347 117.672 360.871 118.351 361.801 118.351ZM366.944 119.053C365.827 119.053 365.252 118.397 365.252 117.234V114.052H366.046V117.043C366.046 117.927 366.365 118.351 367.149 118.351C368.015 118.351 368.476 117.822 368.476 116.961V114.052H369.269V118.967H368.476V118.233H368.403C368.161 118.757 367.664 119.053 366.944 119.053ZM370.751 118.967V114.052H371.544V114.781H371.617C371.804 114.266 372.264 113.965 372.93 113.965C373.081 113.965 373.249 113.984 373.327 113.997V114.768C373.163 114.74 373.012 114.722 372.839 114.722C372.082 114.722 371.544 115.201 371.544 115.921V118.967H370.751ZM378.939 119.053C377.535 119.053 376.687 118.069 376.687 116.528V116.523C376.687 115.005 377.553 113.965 378.889 113.965C380.225 113.965 381.036 114.959 381.036 116.427V116.737H377.498C377.521 117.754 378.082 118.347 378.957 118.347C379.623 118.347 380.033 118.032 380.165 117.736L380.184 117.695H380.977L380.968 117.731C380.799 118.397 380.097 119.053 378.939 119.053ZM378.884 114.672C378.155 114.672 377.599 115.169 377.512 116.104H380.229C380.147 115.133 379.609 114.672 378.884 114.672ZM382.267 118.967V114.052H383.061V114.791H383.134C383.38 114.271 383.84 113.965 384.565 113.965C385.668 113.965 386.284 114.617 386.284 115.784V118.967H385.491V115.976C385.491 115.091 385.126 114.667 384.342 114.667C383.558 114.667 383.061 115.196 383.061 116.058V118.967H382.267ZM388.928 118.967L387.109 114.052H387.948L389.293 118.101H389.366L390.711 114.052H391.55L389.731 118.967H388.928ZM393.018 113.104C392.717 113.104 392.471 112.857 392.471 112.557C392.471 112.256 392.717 112.009 393.018 112.009C393.319 112.009 393.565 112.256 393.565 112.557C393.565 112.857 393.319 113.104 393.018 113.104ZM392.617 118.967V114.052H393.41V118.967H392.617ZM394.905 118.967V114.052H395.699V114.781H395.772C395.958 114.266 396.419 113.965 397.085 113.965C397.235 113.965 397.404 113.984 397.481 113.997V114.768C397.317 114.74 397.167 114.722 396.993 114.722C396.237 114.722 395.699 115.201 395.699 115.921V118.967H394.905ZM400.344 119.053C398.945 119.053 398.079 118.087 398.079 116.514V116.505C398.079 114.927 398.945 113.965 400.344 113.965C401.744 113.965 402.61 114.927 402.61 116.505V116.514C402.61 118.087 401.744 119.053 400.344 119.053ZM400.344 118.351C401.275 118.351 401.799 117.672 401.799 116.514V116.505C401.799 115.342 401.275 114.667 400.344 114.667C399.414 114.667 398.89 115.342 398.89 116.505V116.514C398.89 117.672 399.414 118.351 400.344 118.351ZM403.841 118.967V114.052H404.635V114.791H404.708C404.954 114.271 405.414 113.965 406.139 113.965C407.242 113.965 407.858 114.617 407.858 115.784V118.967H407.065V115.976C407.065 115.091 406.7 114.667 405.916 114.667C405.132 114.667 404.635 115.196 404.635 116.058V118.967H403.841ZM409.294 118.967V114.052H410.087V114.8H410.16C410.379 114.271 410.844 113.965 411.487 113.965C412.153 113.965 412.618 114.316 412.846 114.827H412.919C413.183 114.307 413.744 113.965 414.423 113.965C415.426 113.965 415.987 114.54 415.987 115.57V118.967H415.194V115.753C415.194 115.028 414.861 114.667 414.168 114.667C413.484 114.667 413.033 115.183 413.033 115.807V118.967H412.239V115.629C412.239 115.046 411.838 114.667 411.218 114.667C410.575 114.667 410.087 115.228 410.087 115.921V118.967H409.294ZM419.425 119.053C418.02 119.053 417.172 118.069 417.172 116.528V116.523C417.172 115.005 418.039 113.965 419.374 113.965C420.71 113.965 421.522 114.959 421.522 116.427V116.737H417.984C418.007 117.754 418.567 118.347 419.443 118.347C420.108 118.347 420.519 118.032 420.651 117.736L420.669 117.695H421.463L421.453 117.731C421.285 118.397 420.583 119.053 419.425 119.053ZM419.37 114.672C418.64 114.672 418.084 115.169 417.998 116.104H420.715C420.633 115.133 420.095 114.672 419.37 114.672ZM422.753 118.967V114.052H423.546V114.791H423.619C423.865 114.271 424.326 113.965 425.051 113.965C426.154 113.965 426.769 114.617 426.769 115.784V118.967H425.976V115.976C425.976 115.091 425.611 114.667 424.827 114.667C424.043 114.667 423.546 115.196 423.546 116.058V118.967H422.753ZM429.952 119.003C428.94 119.003 428.516 118.629 428.516 117.69V114.709H427.741V114.052H428.516V112.78H429.336V114.052H430.412V114.709H429.336V117.49C429.336 118.069 429.537 118.301 430.048 118.301C430.189 118.301 430.266 118.297 430.412 118.283V118.958C430.257 118.985 430.107 119.003 429.952 119.003ZM435.573 119.053C434.639 119.053 433.932 118.488 433.932 117.594V117.585C433.932 116.71 434.579 116.204 435.724 116.136L437.132 116.049V115.602C437.132 114.996 436.763 114.667 436.029 114.667C435.441 114.667 435.053 114.886 434.926 115.269L434.921 115.283H434.128L434.133 115.256C434.26 114.485 435.008 113.965 436.057 113.965C437.256 113.965 437.926 114.581 437.926 115.602V118.967H437.132V118.242H437.06C436.75 118.766 436.234 119.053 435.573 119.053ZM434.743 117.576C434.743 118.073 435.167 118.365 435.737 118.365C436.544 118.365 437.132 117.836 437.132 117.134V116.687L435.819 116.769C435.072 116.815 434.743 117.079 434.743 117.567V117.576ZM439.376 118.967V114.052H440.169V114.791H440.242C440.488 114.271 440.949 113.965 441.673 113.965C442.777 113.965 443.392 114.617 443.392 115.784V118.967H442.599V115.976C442.599 115.091 442.234 114.667 441.45 114.667C440.666 114.667 440.169 115.196 440.169 116.058V118.967H439.376ZM446.643 119.053C445.398 119.053 444.582 118.046 444.582 116.514V116.505C444.582 114.964 445.394 113.965 446.643 113.965C447.318 113.965 447.906 114.303 448.175 114.827H448.248V112.101H449.041V118.967H448.248V118.183H448.175C447.874 118.73 447.327 119.053 446.643 119.053ZM446.825 118.351C447.719 118.351 448.266 117.649 448.266 116.514V116.505C448.266 115.37 447.719 114.667 446.825 114.667C445.927 114.667 445.394 115.36 445.394 116.505V116.514C445.394 117.658 445.927 118.351 446.825 118.351ZM453.29 118.967V112.388H455.547C457.498 112.388 458.652 113.605 458.652 115.671V115.68C458.652 117.749 457.503 118.967 455.547 118.967H453.29ZM454.111 118.228H455.492C456.96 118.228 457.813 117.289 457.813 115.689V115.68C457.813 114.075 456.951 113.126 455.492 113.126H454.111V118.228ZM460.393 113.104C460.093 113.104 459.846 112.857 459.846 112.557C459.846 112.256 460.093 112.009 460.393 112.009C460.694 112.009 460.941 112.256 460.941 112.557C460.941 112.857 460.694 113.104 460.393 113.104ZM459.992 118.967V114.052H460.786V118.967H459.992ZM464.305 120.699C463.12 120.699 462.363 120.166 462.24 119.359L462.249 119.354H463.07L463.074 119.359C463.161 119.733 463.599 119.997 464.305 119.997C465.185 119.997 465.709 119.582 465.709 118.857V117.863H465.637C465.326 118.406 464.77 118.711 464.096 118.711C462.823 118.711 462.035 117.727 462.035 116.35V116.341C462.035 114.964 462.828 113.965 464.114 113.965C464.807 113.965 465.345 114.307 465.646 114.864H465.7V114.052H466.494V118.898C466.494 119.997 465.646 120.699 464.305 120.699ZM464.269 118.009C465.181 118.009 465.728 117.325 465.728 116.35V116.341C465.728 115.365 465.176 114.667 464.269 114.667C463.357 114.667 462.846 115.365 462.846 116.341V116.35C462.846 117.325 463.357 118.009 464.269 118.009ZM467.971 118.967V114.052H468.764V114.8H468.837C469.056 114.271 469.521 113.965 470.164 113.965C470.829 113.965 471.294 114.316 471.522 114.827H471.595C471.86 114.307 472.421 113.965 473.1 113.965C474.103 113.965 474.664 114.54 474.664 115.57V118.967H473.87V115.753C473.87 115.028 473.538 114.667 472.845 114.667C472.161 114.667 471.709 115.183 471.709 115.807V118.967H470.916V115.629C470.916 115.046 470.515 114.667 469.895 114.667C469.252 114.667 468.764 115.228 468.764 115.921V118.967H467.971ZM477.445 119.053C476.51 119.053 475.803 118.488 475.803 117.594V117.585C475.803 116.71 476.451 116.204 477.595 116.136L479.004 116.049V115.602C479.004 114.996 478.635 114.667 477.901 114.667C477.313 114.667 476.925 114.886 476.797 115.269L476.793 115.283H476L476.004 115.256C476.132 114.485 476.879 113.965 477.928 113.965C479.127 113.965 479.797 114.581 479.797 115.602V118.967H479.004V118.242H478.931C478.621 118.766 478.106 119.053 477.445 119.053ZM476.615 117.576C476.615 118.073 477.039 118.365 477.609 118.365C478.416 118.365 479.004 117.836 479.004 117.134V116.687L477.691 116.769C476.943 116.815 476.615 117.079 476.615 117.567V117.576ZM485.884 119.053C484.507 119.053 483.627 118.055 483.627 116.496V116.487C483.627 114.959 484.502 113.965 485.879 113.965C487.074 113.965 487.79 114.654 487.935 115.529L487.94 115.557H487.151L487.147 115.543C487.024 115.06 486.586 114.667 485.879 114.667C484.995 114.667 484.439 115.379 484.439 116.487V116.496C484.439 117.626 485.004 118.351 485.879 118.351C486.54 118.351 486.96 118.06 487.142 117.512L487.151 117.485L487.935 117.481L487.926 117.531C487.726 118.42 487.065 119.053 485.884 119.053ZM490.448 119.053C489.513 119.053 488.806 118.488 488.806 117.594V117.585C488.806 116.71 489.454 116.204 490.598 116.136L492.007 116.049V115.602C492.007 114.996 491.638 114.667 490.904 114.667C490.315 114.667 489.928 114.886 489.8 115.269L489.796 115.283H489.002L489.007 115.256C489.135 114.485 489.882 113.965 490.931 113.965C492.13 113.965 492.8 114.581 492.8 115.602V118.967H492.007V118.242H491.934C491.624 118.766 491.109 119.053 490.448 119.053ZM489.618 117.576C489.618 118.073 490.042 118.365 490.612 118.365C491.419 118.365 492.007 117.836 492.007 117.134V116.687L490.694 116.769C489.946 116.815 489.618 117.079 489.618 117.567V117.576ZM494.25 118.967V114.052H495.043V114.791H495.116C495.362 114.271 495.823 113.965 496.548 113.965C497.651 113.965 498.267 114.617 498.267 115.784V118.967H497.473V115.976C497.473 115.091 497.109 114.667 496.324 114.667C495.54 114.667 495.043 115.196 495.043 116.058V118.967H494.25ZM504.016 119.053C502.922 119.053 502.169 118.525 502.078 117.713H502.89C503.022 118.123 503.414 118.392 504.043 118.392C504.704 118.392 505.174 118.078 505.174 117.631V117.622C505.174 117.289 504.923 117.056 504.317 116.911L503.555 116.728C502.634 116.509 502.219 116.108 502.219 115.402V115.397C502.219 114.581 503.004 113.965 504.048 113.965C505.078 113.965 505.794 114.481 505.903 115.283H505.124C505.019 114.895 504.636 114.626 504.043 114.626C503.46 114.626 503.031 114.927 503.031 115.36V115.37C503.031 115.702 503.277 115.912 503.856 116.053L504.613 116.236C505.538 116.459 505.985 116.86 505.985 117.563V117.572C505.985 118.447 505.133 119.053 504.016 119.053ZM508.917 119.003C507.905 119.003 507.481 118.629 507.481 117.69V114.709H506.706V114.052H507.481V112.78H508.301V114.052H509.377V114.709H508.301V117.49C508.301 118.069 508.502 118.301 509.013 118.301C509.154 118.301 509.231 118.297 509.377 118.283V118.958C509.222 118.985 509.072 119.003 508.917 119.003ZM511.912 119.053C510.978 119.053 510.271 118.488 510.271 117.594V117.585C510.271 116.71 510.918 116.204 512.063 116.136L513.471 116.049V115.602C513.471 114.996 513.102 114.667 512.368 114.667C511.78 114.667 511.392 114.886 511.265 115.269L511.26 115.283H510.467L510.472 115.256C510.599 114.485 511.347 113.965 512.396 113.965C513.595 113.965 514.265 114.581 514.265 115.602V118.967H513.471V118.242H513.399C513.089 118.766 512.573 119.053 511.912 119.053ZM511.082 117.576C511.082 118.073 511.506 118.365 512.076 118.365C512.883 118.365 513.471 117.836 513.471 117.134V116.687L512.158 116.769C511.411 116.815 511.082 117.079 511.082 117.567V117.576ZM515.715 118.967V114.052H516.508V114.781H516.581C516.768 114.266 517.228 113.965 517.894 113.965C518.044 113.965 518.213 113.984 518.291 113.997V114.768C518.126 114.74 517.976 114.722 517.803 114.722C517.046 114.722 516.508 115.201 516.508 115.921V118.967H515.715ZM521.108 119.003C520.096 119.003 519.672 118.629 519.672 117.69V114.709H518.897V114.052H519.672V112.78H520.493V114.052H521.569V114.709H520.493V117.49C520.493 118.069 520.693 118.301 521.204 118.301C521.345 118.301 521.423 118.297 521.569 118.283V118.958C521.414 118.985 521.263 119.003 521.108 119.003ZM527.067 119.053C525.973 119.053 525.22 118.525 525.129 117.713H525.941C526.073 118.123 526.465 118.392 527.094 118.392C527.755 118.392 528.225 118.078 528.225 117.631V117.622C528.225 117.289 527.974 117.056 527.368 116.911L526.606 116.728C525.686 116.509 525.271 116.108 525.271 115.402V115.397C525.271 114.581 526.055 113.965 527.099 113.965C528.129 113.965 528.845 114.481 528.954 115.283H528.175C528.07 114.895 527.687 114.626 527.094 114.626C526.511 114.626 526.082 114.927 526.082 115.36V115.37C526.082 115.702 526.328 115.912 526.907 116.053L527.664 116.236C528.59 116.459 529.037 116.86 529.037 117.563V117.572C529.037 118.447 528.184 119.053 527.067 119.053ZM530.313 118.967V112.101H531.106V114.791H531.179C531.426 114.271 531.886 113.965 532.611 113.965C533.714 113.965 534.33 114.617 534.33 115.784V118.967H533.536V115.976C533.536 115.091 533.172 114.667 532.388 114.667C531.603 114.667 531.106 115.196 531.106 116.058V118.967H530.313ZM537.786 119.053C536.386 119.053 535.52 118.087 535.52 116.514V116.505C535.52 114.927 536.386 113.965 537.786 113.965C539.185 113.965 540.052 114.927 540.052 116.505V116.514C540.052 118.087 539.185 119.053 537.786 119.053ZM537.786 118.351C538.716 118.351 539.24 117.672 539.24 116.514V116.505C539.24 115.342 538.716 114.667 537.786 114.667C536.856 114.667 536.331 115.342 536.331 116.505V116.514C536.331 117.672 536.856 118.351 537.786 118.351ZM542.048 118.967L540.672 114.052H541.465L542.431 117.982H542.504L543.603 114.052H544.355L545.454 117.982H545.527L546.494 114.052H547.282L545.906 118.967H545.108L544.009 115.164H543.936L542.842 118.967H542.048ZM548.75 113.104C548.45 113.104 548.203 112.857 548.203 112.557C548.203 112.256 548.45 112.009 548.75 112.009C549.051 112.009 549.298 112.256 549.298 112.557C549.298 112.857 549.051 113.104 548.75 113.104ZM548.349 118.967V114.052H549.143V118.967H548.349ZM550.638 118.967V114.052H551.431V114.791H551.504C551.75 114.271 552.211 113.965 552.936 113.965C554.039 113.965 554.655 114.617 554.655 115.784V118.967H553.861V115.976C553.861 115.091 553.497 114.667 552.712 114.667C551.928 114.667 551.431 115.196 551.431 116.058V118.967H550.638ZM558.115 120.699C556.93 120.699 556.173 120.166 556.05 119.359L556.059 119.354H556.879L556.884 119.359C556.971 119.733 557.408 119.997 558.115 119.997C558.995 119.997 559.519 119.582 559.519 118.857V117.863H559.446C559.136 118.406 558.58 118.711 557.905 118.711C556.633 118.711 555.845 117.727 555.845 116.35V116.341C555.845 114.964 556.638 113.965 557.924 113.965C558.617 113.965 559.155 114.307 559.455 114.864H559.51V114.052H560.303V118.898C560.303 119.997 559.455 120.699 558.115 120.699ZM558.079 118.009C558.99 118.009 559.537 117.325 559.537 116.35V116.341C559.537 115.365 558.986 114.667 558.079 114.667C557.167 114.667 556.656 115.365 556.656 116.341V116.35C556.656 117.325 557.167 118.009 558.079 118.009ZM564.826 120.69C564.721 120.69 564.584 120.681 564.475 120.663V120.011C564.571 120.029 564.694 120.034 564.803 120.034C565.255 120.034 565.528 119.828 565.706 119.263L565.797 118.971L563.978 114.052H564.826L566.176 118.096H566.249L567.594 114.052H568.428L566.508 119.268C566.103 120.371 565.697 120.69 564.826 120.69ZM571.314 119.053C569.914 119.053 569.048 118.087 569.048 116.514V116.505C569.048 114.927 569.914 113.965 571.314 113.965C572.714 113.965 573.58 114.927 573.58 116.505V116.514C573.58 118.087 572.714 119.053 571.314 119.053ZM571.314 118.351C572.244 118.351 572.768 117.672 572.768 116.514V116.505C572.768 115.342 572.244 114.667 571.314 114.667C570.384 114.667 569.859 115.342 569.859 116.505V116.514C569.859 117.672 570.384 118.351 571.314 118.351ZM576.457 119.053C575.34 119.053 574.765 118.397 574.765 117.234V114.052H575.558V117.043C575.558 117.927 575.878 118.351 576.662 118.351C577.528 118.351 577.988 117.822 577.988 116.961V114.052H578.782V118.967H577.988V118.233H577.916C577.674 118.757 577.177 119.053 576.457 119.053ZM216.586 125.104C216.286 125.104 216.039 124.857 216.039 124.557C216.039 124.256 216.286 124.009 216.586 124.009C216.887 124.009 217.134 124.256 217.134 124.557C217.134 124.857 216.887 125.104 216.586 125.104ZM216.185 130.967V126.052H216.979V130.967H216.185ZM218.474 130.967V126.052H219.267V126.791H219.34C219.586 126.271 220.047 125.965 220.772 125.965C221.875 125.965 222.491 126.617 222.491 127.784V130.967H221.697V127.976C221.697 127.091 221.333 126.667 220.548 126.667C219.764 126.667 219.267 127.196 219.267 128.058V130.967H218.474ZM224.255 130.967V126.709H223.439V126.052H224.255V125.505C224.255 124.525 224.747 124.055 225.682 124.055C225.874 124.055 226.047 124.069 226.211 124.101V124.734C226.115 124.716 225.983 124.712 225.842 124.712C225.276 124.712 225.048 124.99 225.048 125.528V126.052H226.165V126.709H225.048V130.967H224.255ZM229.12 131.053C227.72 131.053 226.854 130.087 226.854 128.514V128.505C226.854 126.927 227.72 125.965 229.12 125.965C230.519 125.965 231.386 126.927 231.386 128.505V128.514C231.386 130.087 230.519 131.053 229.12 131.053ZM229.12 130.351C230.05 130.351 230.574 129.672 230.574 128.514V128.505C230.574 127.342 230.05 126.667 229.12 126.667C228.19 126.667 227.665 127.342 227.665 128.505V128.514C227.665 129.672 228.19 130.351 229.12 130.351ZM232.949 128.778L232.872 124.383H233.784L233.706 128.778H232.949ZM233.332 131.049C232.963 131.049 232.699 130.784 232.699 130.415C232.699 130.041 232.963 129.777 233.332 129.777C233.702 129.777 233.962 130.041 233.962 130.415C233.962 130.784 233.702 131.049 233.332 131.049Z" fill="#828599"/>
</g>
</g>
<path d="M-199 41.7319H604V40.2954H-199V41.7319Z" fill="#C3C6D9" mask="url(#path-1-inside-1_6132_116062)"/>
<g clip-path="url(#clip3_6132_116062)">
<mask id="path-15-inside-2_6132_116062" fill="white">
<path d="M-199 9.41211H604V41.015H-199V9.41211Z"/>
</mask>
<path d="M-199 9.41211H604V41.015H-199V9.41211Z" fill="#E6E8F2"/>
<g opacity="0.35">
<path opacity="0.35" d="M-42.069 28.3679C-43.5097 28.3679 -44.4398 27.6111 -44.5355 26.5397L-44.5401 26.4895H-43.7194L-43.7149 26.5397C-43.6556 27.1962 -42.9717 27.6111 -42.0234 27.6111C-41.1298 27.6111 -40.4779 27.1506 -40.4779 26.4804V26.4758C-40.4779 25.9287 -40.8563 25.5549 -41.759 25.3543L-42.4885 25.1947C-43.8061 24.9029 -44.376 24.2966 -44.376 23.3437V23.3391C-44.3714 22.2495 -43.4185 21.479 -42.0599 21.479C-40.7468 21.479 -39.8304 22.254 -39.7621 23.2343L-39.7575 23.2981H-40.5782L-40.5873 23.2388C-40.6785 22.6598 -41.2256 22.2312 -42.0827 22.2358C-42.9033 22.2404 -43.5371 22.6279 -43.5371 23.3163V23.3209C-43.5371 23.8452 -43.1769 24.2008 -42.2833 24.3969L-41.5538 24.561C-40.1815 24.8664 -39.639 25.4181 -39.639 26.3664V26.371C-39.639 27.602 -40.601 28.3679 -42.069 28.3679ZM-38.7955 28.2129L-36.37 21.634H-35.5585L-33.133 28.2129H-33.9947L-34.6558 26.3299H-37.2727L-37.9338 28.2129H-38.7955ZM-36.0007 22.6963L-37.0311 25.6324H-34.8974L-35.9278 22.6963H-36.0007ZM-31.9795 28.2129V21.634H-31.0267L-28.7744 27.1232H-28.7015L-26.4492 21.634H-25.4964V28.2129H-26.2623V23.1887H-26.3125L-28.3915 28.2129H-29.0845L-31.1634 23.1887H-31.2136V28.2129H-31.9795ZM-23.8186 28.2129V21.634H-21.3384C-20.1029 21.634 -19.2275 22.4866 -19.2275 23.7358V23.7449C-19.2275 24.9941 -20.1029 25.8649 -21.3384 25.8649H-22.9979V28.2129H-23.8186ZM-21.5481 22.3635H-22.9979V25.1354H-21.5481C-20.6089 25.1354 -20.0664 24.6203 -20.0664 23.754V23.7449C-20.0664 22.8786 -20.6089 22.3635 -21.5481 22.3635ZM-17.8825 28.2129V21.634H-17.0619V27.4743H-13.8887V28.2129H-17.8825ZM-12.5756 28.2129V21.634H-8.49973V22.3726H-11.755V24.4835H-8.66842V25.2129H-11.755V27.4743H-8.49973V28.2129H-12.5756ZM-7.85233 29.4074V28.6688H-2.4041V29.4074H-7.85233ZM-1.56065 28.2129V21.634H2.51526V22.3726H-0.740001V24.4835H2.34657V25.2129H-0.740001V27.4743H2.51526V28.2129H-1.56065ZM4.00155 28.2129V21.634H4.79941L8.36925 26.754H8.44219V21.634H9.25373V28.2129H8.45587L4.88603 23.1112H4.81308V28.2129H4.00155ZM12.8327 28.2129L10.4072 21.634H11.2689L13.202 27.1506H13.2749L15.208 21.634H16.0697L13.6442 28.2129H12.8327Z" fill="#828599"/>
<g clip-path="url(#clip4_6132_116062)">
<path d="M24.1181 25.6166C24.3412 25.6166 24.5221 25.4357 24.5221 25.2126C24.5221 24.9895 24.3412 24.8086 24.1181 24.8086C23.8949 24.8086 23.7141 24.9895 23.7141 25.2126C23.7141 25.4357 23.8949 25.6166 24.1181 25.6166Z" fill="#828599"/>
<path d="M24.1181 23.3276C24.3412 23.3276 24.5221 23.1467 24.5221 22.9235C24.5221 22.7004 24.3412 22.5195 24.1181 22.5195C23.8949 22.5195 23.7141 22.7004 23.7141 22.9235C23.7141 23.1467 23.8949 23.3276 24.1181 23.3276Z" fill="#828599"/>
<path d="M24.1181 27.9076C24.3412 27.9076 24.5221 27.7268 24.5221 27.5036C24.5221 27.2805 24.3412 27.0996 24.1181 27.0996C23.8949 27.0996 23.7141 27.2805 23.7141 27.5036C23.7141 27.7268 23.8949 27.9076 24.1181 27.9076Z" fill="#828599"/>
</g>
</g>
<mask id="path-21-inside-3_6132_116062" fill="white">
<path d="M39.9195 9.41211H106.649V41.015H39.9195V9.41211Z"/>
</mask>
<path d="M106.649 40.2967H39.9195V41.7332H106.649V40.2967Z" fill="#6063F6" mask="url(#path-21-inside-3_6132_116062)"/>
<g clip-path="url(#clip5_6132_116062)">
<path d="M46.3824 26.0261L46.0899 26.3564C45.8639 26.5824 45.5759 26.7363 45.2624 26.7987C44.9489 26.8611 44.624 26.8291 44.3287 26.7068C44.0334 26.5845 43.781 26.3773 43.6034 26.1116C43.4258 25.8458 43.3311 25.5333 43.3311 25.2137C43.3311 24.8941 43.4258 24.5816 43.6034 24.3159C43.781 24.0501 44.0334 23.843 44.3287 23.7207C44.624 23.5983 44.9489 23.5664 45.2624 23.6287C45.5759 23.6911 45.8639 23.845 46.0899 24.071L48.114 26.3564C48.34 26.5824 48.6279 26.7363 48.9414 26.7987C49.2549 26.8611 49.5799 26.8291 49.8752 26.7068C50.1705 26.5845 50.4229 26.3773 50.6004 26.1116C50.778 25.8458 50.8728 25.5333 50.8728 25.2137C50.8728 24.8941 50.778 24.5816 50.6004 24.3159C50.4229 24.0501 50.1705 23.843 49.8752 23.7207C49.5799 23.5983 49.2549 23.5664 48.9414 23.6287C48.6279 23.6911 48.34 23.845 48.114 24.071L47.8214 24.4013" stroke="#2C2E33" stroke-width="0.718247" stroke-linecap="round" stroke-linejoin="round"/>
</g>
<path d="M55.1233 28.2129V21.634H56.0762L58.3284 27.1232H58.4014L60.6536 21.634H61.6065V28.2129H60.8405V23.1887H60.7904L58.7114 28.2129H58.0184L55.9394 23.1887H55.8893V28.2129H55.1233ZM65.0943 28.2129V25.3816L62.7599 21.634H63.6946L65.4681 24.5564H65.5411L67.3146 21.634H68.2492L65.9149 25.3816V28.2129H65.0943ZM67.7431 29.4074V28.6688H73.1914V29.4074H67.7431ZM74.0348 28.2129V21.634H78.1107V22.3726H74.8555V24.4835H77.942V25.2129H74.8555V27.4743H78.1107V28.2129H74.0348ZM79.597 28.2129V21.634H80.3949L83.9647 26.754H84.0377V21.634H84.8492V28.2129H84.0513L80.4815 23.1112H80.4086V28.2129H79.597ZM88.4282 28.2129L86.0027 21.634H86.8644L88.7974 27.1506H88.8704L90.8035 21.634H91.6652L89.2397 28.2129H88.4282Z" fill="#27282E"/>
<g clip-path="url(#clip6_6132_116062)">
<path d="M99.4669 25.6166C99.69 25.6166 99.8709 25.4357 99.8709 25.2126C99.8709 24.9895 99.69 24.8086 99.4669 24.8086C99.2437 24.8086 99.0629 24.9895 99.0629 25.2126C99.0629 25.4357 99.2437 25.6166 99.4669 25.6166Z" fill="#2C2E33"/>
<path d="M99.4669 23.3276C99.69 23.3276 99.8709 23.1467 99.8709 22.9235C99.8709 22.7004 99.69 22.5195 99.4669 22.5195C99.2437 22.5195 99.0629 22.7004 99.0629 22.9235C99.0629 23.1467 99.2437 23.3276 99.4669 23.3276Z" fill="#2C2E33"/>
<path d="M99.4669 27.9076C99.69 27.9076 99.8709 27.7268 99.8709 27.5036C99.8709 27.2805 99.69 27.0996 99.4669 27.0996C99.2437 27.0996 99.0629 27.2805 99.0629 27.5036C99.0629 27.7268 99.2437 27.9076 99.4669 27.9076Z" fill="#2C2E33"/>
</g>
</g>
<path d="M-199 10.1304H604V8.69386H-199V10.1304Z" fill="#C3C6D9" mask="url(#path-15-inside-2_6132_116062)"/>
<g opacity="0.1">
<rect width="803" height="34.4114" transform="translate(-199 -25)" fill="#E6E8F2"/>
</g>
<rect x="272" y="70" width="44" height="285" transform="rotate(90 272 70)" fill="url(#paint0_linear_6132_116062)"/>
<rect x="194" y="-5" width="25" height="125" fill="url(#paint1_linear_6132_116062)"/>
<rect x="25" y="120" width="25" height="125" transform="rotate(-180 25 120)" fill="url(#paint2_linear_6132_116062)"/>
</g>
<defs>
<filter id="filter0_d_6132_116062" x="-193.254" y="79.0816" width="394.318" height="136.531" filterUnits="userSpaceOnUse" color-interpolation-filters="sRGB">
<feFlood flood-opacity="0" result="BackgroundImageFix"/>
<feColorMatrix in="SourceAlpha" type="matrix" values="0 0 0 0 0 0 0 0 0 0 0 0 0 0 0 0 0 0 127 0" result="hardAlpha"/>
<feOffset dy="0.718247"/>
<feGaussianBlur stdDeviation="1.43649"/>
<feComposite in2="hardAlpha" operator="out"/>
<feColorMatrix type="matrix" values="0 0 0 0 0 0 0 0 0 0 0 0 0 0 0 0 0 0 0.45 0"/>
<feBlend mode="normal" in2="BackgroundImageFix" result="effect1_dropShadow_6132_116062"/>
<feBlend mode="normal" in="SourceGraphic" in2="effect1_dropShadow_6132_116062" result="shape"/>
</filter>
<filter id="filter1_d_6132_116062" x="203.936" y="79.0816" width="394.318" height="136.531" filterUnits="userSpaceOnUse" color-interpolation-filters="sRGB">
<feFlood flood-opacity="0" result="BackgroundImageFix"/>
<feColorMatrix in="SourceAlpha" type="matrix" values="0 0 0 0 0 0 0 0 0 0 0 0 0 0 0 0 0 0 127 0" result="hardAlpha"/>
<feOffset dy="0.718247"/>
<feGaussianBlur stdDeviation="1.43649"/>
<feComposite in2="hardAlpha" operator="out"/>
<feColorMatrix type="matrix" values="0 0 0 0 0 0 0 0 0 0 0 0 0 0 0 0 0 0 0.45 0"/>
<feBlend mode="normal" in2="BackgroundImageFix" result="effect1_dropShadow_6132_116062"/>
<feBlend mode="normal" in="SourceGraphic" in2="effect1_dropShadow_6132_116062" result="shape"/>
</filter>
<linearGradient id="paint0_linear_6132_116062" x1="316" y1="210.22" x2="272" y2="210.22" gradientUnits="userSpaceOnUse">
<stop stop-color="#F0F1F7"/>
<stop offset="1" stop-color="#F0F1F7" stop-opacity="0"/>
</linearGradient>
<linearGradient id="paint1_linear_6132_116062" x1="219" y1="56.5" x2="194" y2="56.5" gradientUnits="userSpaceOnUse">
<stop stop-color="#F0F1F7"/>
<stop offset="1" stop-color="#F0F1F7" stop-opacity="0"/>
</linearGradient>
<linearGradient id="paint2_linear_6132_116062" x1="50" y1="181.5" x2="25" y2="181.5" gradientUnits="userSpaceOnUse">
<stop stop-color="#F0F1F7"/>
<stop offset="1" stop-color="#F0F1F7" stop-opacity="0"/>
</linearGradient>
<clipPath id="clip0_6132_116062">
<rect width="218" height="114" fill="white"/>
</clipPath>
<clipPath id="clip1_6132_116062">
<path d="M-199 41.0137H604V220.64H-199V41.0137Z" fill="white"/>
</clipPath>
<clipPath id="clip2_6132_116062">
<rect width="8.61896" height="8.61896" fill="white" transform="translate(192.111 55.3789)"/>
</clipPath>
<clipPath id="clip3_6132_116062">
<path d="M-199 9.41211H604V41.015H-199V9.41211Z" fill="white"/>
</clipPath>
<clipPath id="clip4_6132_116062">
<rect width="8.61896" height="8.61896" fill="white" transform="translate(19.8086 20.9043)"/>
</clipPath>
<clipPath id="clip5_6132_116062">
<rect width="8.61896" height="8.61896" fill="white" transform="translate(42.7925 20.9043)"/>
</clipPath>
<clipPath id="clip6_6132_116062">
<rect width="8.61896" height="8.61896" fill="white" transform="translate(95.1574 20.9043)"/>
</clipPath>
</defs>
</svg>
