<svg width="218" height="114" viewBox="0 0 218 114" fill="none" xmlns="http://www.w3.org/2000/svg">
<g clip-path="url(#clip0_6132_115456)">
<rect width="218" height="114" fill="white"/>
<rect width="783" height="239.522" fill="#222326"/>
<g opacity="0.1" clip-path="url(#clip1_6132_115456)">
<path d="M14.2903 95.541L16.4735 89.6194H17.2039L19.3871 95.541H18.6115L18.0164 93.8462H15.6609L15.0659 95.541H14.2903ZM16.8059 90.5756L15.8784 93.2183H17.799L16.8715 90.5756H16.8059ZM21.7713 95.619C20.7864 95.619 20.1093 95.143 20.0272 94.4125H20.7577C20.8767 94.7818 21.2296 95.024 21.7959 95.024C22.3909 95.024 22.8136 94.7408 22.8136 94.3386V94.3304C22.8136 94.0309 22.5879 93.8216 22.0421 93.6903L21.3568 93.5261C20.5279 93.3291 20.1545 92.968 20.1545 92.332V92.3279C20.1545 91.5933 20.8603 91.0393 21.8 91.0393C22.7274 91.0393 23.3717 91.503 23.4702 92.2253H22.7685C22.6741 91.8764 22.3294 91.6343 21.7959 91.6343C21.2706 91.6343 20.8849 91.9052 20.8849 92.295V92.3032C20.8849 92.6028 21.1065 92.7916 21.6277 92.9188L22.3089 93.0829C23.1419 93.284 23.5441 93.6451 23.5441 94.2771V94.2853C23.5441 95.0732 22.7767 95.619 21.7713 95.619ZM26.0883 95.619C25.1035 95.619 24.4264 95.143 24.3443 94.4125H25.0747C25.1937 94.7818 25.5467 95.024 26.113 95.024C26.708 95.024 27.1307 94.7408 27.1307 94.3386V94.3304C27.1307 94.0309 26.905 93.8216 26.3592 93.6903L25.6739 93.5261C24.8449 93.3291 24.4715 92.968 24.4715 92.332V92.3279C24.4715 91.5933 25.1773 91.0393 26.1171 91.0393C27.0445 91.0393 27.6888 91.503 27.7873 92.2253H27.0855C26.9911 91.8764 26.6464 91.6343 26.113 91.6343C25.5877 91.6343 25.202 91.9052 25.202 92.295V92.3032C25.202 92.6028 25.4236 92.7916 25.9447 92.9188L26.6259 93.0829C27.459 93.284 27.8611 93.6451 27.8611 94.2771V94.2853C27.8611 95.0732 27.0937 95.619 26.0883 95.619ZM30.7747 95.619C29.5108 95.619 28.7475 94.7326 28.7475 93.3456V93.3415C28.7475 91.9749 29.5272 91.0393 30.7296 91.0393C31.932 91.0393 32.6624 91.9339 32.6624 93.2553V93.5343H29.478C29.4985 94.4494 30.0032 94.9829 30.7911 94.9829C31.3903 94.9829 31.7596 94.6998 31.8786 94.433L31.895 94.3961H32.6091L32.6009 94.4289C32.449 95.0281 31.8171 95.619 30.7747 95.619ZM30.7255 91.6754C30.0689 91.6754 29.5682 92.1227 29.4903 92.9639H31.9361C31.8622 92.0898 31.378 91.6754 30.7255 91.6754ZM35.3421 95.5738C34.4311 95.5738 34.0494 95.2373 34.0494 94.392V91.7082H33.3518V91.1173H34.0494V89.9724H34.7881V91.1173H35.7566V91.7082H34.7881V94.2114C34.7881 94.7326 34.9687 94.9419 35.4283 94.9419C35.5555 94.9419 35.6252 94.9378 35.7566 94.9255V95.5328C35.617 95.5574 35.4816 95.5738 35.3421 95.5738Z" fill="#828599"/>
<rect x="8.75448" y="103.397" width="765.491" height="28.1082" rx="2.45125" fill="#1A1B1E"/>
<rect x="8.75448" y="103.397" width="765.491" height="28.1082" rx="2.45125" stroke="#2C2E33" stroke-width="0.700358"/>
</g>
<g opacity="0.1">
<mask id="path-3-inside-1_6132_115456" fill="white">
<path d="M0 65.2275H783V87.639H0V65.2275Z"/>
</mask>
<path d="M0 65.9279H783V64.5272H0V65.9279Z" fill="#2C2E33" mask="url(#path-3-inside-1_6132_115456)"/>
<path d="M9.51735 79.4336V73.512H11.8523C13.067 73.512 13.8221 74.2178 13.8221 75.3176V75.3258C13.8221 76.1219 13.3953 76.7703 12.6731 77.0124L14.0026 79.4336H12.9398L11.7333 77.1561H10.4366V79.4336H9.51735ZM10.4366 76.4092H11.7621C12.4679 76.4092 12.8782 76.0235 12.8782 75.3505V75.3422C12.8782 74.6857 12.4433 74.2835 11.7333 74.2835H10.4366V76.4092ZM16.7685 79.5198C15.4636 79.5198 14.6756 78.6293 14.6756 77.2176V77.2135C14.6756 75.8224 15.48 74.8908 16.7234 74.8908C17.9668 74.8908 18.7301 75.7895 18.7301 77.1273V77.4392H15.5702C15.5867 78.2928 16.0545 78.7893 16.789 78.7893C17.3594 78.7893 17.7 78.5062 17.8067 78.2764L17.8232 78.2435L18.6808 78.2394L18.6726 78.2764C18.5249 78.8632 17.9093 79.5198 16.7685 79.5198ZM16.7275 75.6213C16.1201 75.6213 15.6605 76.0358 15.5826 76.8031H17.8478C17.778 76.007 17.3307 75.6213 16.7275 75.6213ZM21.6642 79.5198C20.3633 79.5198 19.5672 78.6334 19.5672 77.193V77.1848C19.5672 75.7731 20.3592 74.8908 21.6601 74.8908C22.7804 74.8908 23.4493 75.5228 23.5724 76.3887V76.4092L22.7188 76.4133L22.7147 76.401C22.6162 75.9619 22.2551 75.6336 21.6642 75.6336C20.9214 75.6336 20.4741 76.2245 20.4741 77.1848V77.193C20.4741 78.1779 20.9296 78.777 21.6642 78.777C22.2223 78.777 22.567 78.5226 22.7106 78.0425L22.7188 78.0219H23.5724L23.5642 78.0589C23.4041 78.9247 22.7681 79.5198 21.6642 79.5198ZM26.4531 79.5198C25.1482 79.5198 24.3603 78.6293 24.3603 77.2176V77.2135C24.3603 75.8224 25.1646 74.8908 26.408 74.8908C27.6514 74.8908 28.4147 75.7895 28.4147 77.1273V77.4392H25.2549C25.2713 78.2928 25.7391 78.7893 26.4737 78.7893C27.0441 78.7893 27.3847 78.5062 27.4914 78.2764L27.5078 78.2435L28.3655 78.2394L28.3572 78.2764C28.2095 78.8632 27.594 79.5198 26.4531 79.5198ZM26.4121 75.6213C25.8048 75.6213 25.3452 76.0358 25.2672 76.8031H27.5324C27.4626 76.007 27.0153 75.6213 26.4121 75.6213ZM29.4734 79.4336V74.977H30.3639V75.6541H30.4296C30.6471 75.1781 31.0739 74.8908 31.7222 74.8908C32.7194 74.8908 33.2693 75.4859 33.2693 76.5487V79.4336H32.3829V76.758C32.3829 76.0193 32.0752 75.6541 31.4227 75.6541C30.7702 75.6541 30.3639 76.1014 30.3639 76.8196V79.4336H29.4734ZM36.1952 79.4623C35.2145 79.4623 34.8123 79.1176 34.8123 78.2599V75.6787H34.1147V74.977H34.8123V73.8526H35.7192V74.977H36.6754V75.6787H35.7192V78.0466C35.7192 78.5267 35.8998 78.7237 36.3389 78.7237C36.4743 78.7237 36.5523 78.7196 36.6754 78.7072V79.4172C36.5317 79.4418 36.3676 79.4623 36.1952 79.4623ZM39.6587 79.4336L41.7967 73.512H42.7898L44.9278 79.4336H43.9594L43.4259 77.8332H41.1607L40.6231 79.4336H39.6587ZM42.2563 74.5502L41.4069 77.0945H43.1797L42.3261 74.5502H42.2563ZM47.4844 79.5198C46.1835 79.5198 45.3874 78.6334 45.3874 77.193V77.1848C45.3874 75.7731 46.1794 74.8908 47.4803 74.8908C48.6006 74.8908 49.2695 75.5228 49.3926 76.3887V76.4092L48.539 76.4133L48.5349 76.401C48.4364 75.9619 48.0753 75.6336 47.4844 75.6336C46.7416 75.6336 46.2943 76.2245 46.2943 77.1848V77.193C46.2943 78.1779 46.7498 78.777 47.4844 78.777C48.0425 78.777 48.3872 78.5226 48.5308 78.0425L48.539 78.0219H49.3926L49.3844 78.0589C49.2244 78.9247 48.5883 79.5198 47.4844 79.5198ZM52.1503 79.4623C51.1695 79.4623 50.7673 79.1176 50.7673 78.2599V75.6787H50.0697V74.977H50.7673V73.8526H51.6742V74.977H52.6304V75.6787H51.6742V78.0466C51.6742 78.5267 51.8548 78.7237 52.2939 78.7237C52.4293 78.7237 52.5073 78.7196 52.6304 78.7072V79.4172C52.4868 79.4418 52.3226 79.4623 52.1503 79.4623ZM54.1323 74.1809C53.8246 74.1809 53.5742 73.9306 53.5742 73.6269C53.5742 73.3191 53.8246 73.0688 54.1323 73.0688C54.436 73.0688 54.6904 73.3191 54.6904 73.6269C54.6904 73.9306 54.436 74.1809 54.1323 74.1809ZM53.685 79.4336V74.977H54.5714V79.4336H53.685ZM57.0952 79.4336L55.4824 74.977H56.4263L57.5384 78.5308H57.6081L58.7161 74.977H59.6517L58.0431 79.4336H57.0952ZM61.0101 74.1809C60.7023 74.1809 60.452 73.9306 60.452 73.6269C60.452 73.3191 60.7023 73.0688 61.0101 73.0688C61.3137 73.0688 61.5682 73.3191 61.5682 73.6269C61.5682 73.9306 61.3137 74.1809 61.0101 74.1809ZM60.5628 79.4336V74.977H61.4491V79.4336H60.5628ZM64.4284 79.4623C63.4476 79.4623 63.0455 79.1176 63.0455 78.2599V75.6787H62.3479V74.977H63.0455V73.8526H63.9524V74.977H64.9085V75.6787H63.9524V78.0466C63.9524 78.5267 64.1329 78.7237 64.572 78.7237C64.7075 78.7237 64.7854 78.7196 64.9085 78.7072V79.4172C64.7649 79.4418 64.6008 79.4623 64.4284 79.4623ZM66.3817 81.0012C66.2709 81.0012 66.1396 80.993 66.0247 80.9807V80.2789C66.1109 80.2913 66.2217 80.2954 66.3243 80.2954C66.7388 80.2954 66.985 80.1189 67.1204 79.6675L67.1861 79.4377L65.5692 74.977H66.5295L67.6457 78.539H67.7236L68.8357 74.977H69.7714L68.1135 79.6059C67.736 80.6729 67.2846 81.0012 66.3817 81.0012Z" fill="white"/>
</g>
<g filter="url(#filter0_d_6132_115456)">
<g clip-path="url(#clip2_6132_115456)">
<mask id="path-6-inside-2_6132_115456" fill="white">
<path d="M0 34.4111H783V65.2269H0V34.4111Z"/>
</mask>
<path d="M0 34.4111H783V65.2269H0V34.4111Z" fill="#27282E"/>
<g opacity="0.35">
<g clip-path="url(#clip3_6132_115456)">
<path d="M21.212 49.7114C21.1368 48.3953 18.2038 45.5356 17.7281 45.0853C17.2524 44.635 16.4571 43.4872 16.224 43.5031C15.9786 43.5257 16.3659 45.8383 16.396 47.4928C16.4261 49.1474 16.0594 49.7189 15.9325 49.6879C15.8056 49.6569 15.3751 49.5939 15.3751 49.5939C15.3751 49.5939 14.9436 49.6559 14.8176 49.6879C14.6916 49.7199 14.3222 49.1483 14.3551 47.4928C14.388 45.8373 14.7725 43.5257 14.5252 43.5031C14.294 43.4853 13.4977 44.6312 13.0211 45.0853C12.5445 45.5393 9.61428 48.3925 9.53907 49.7114C9.47984 50.7549 9.88314 51.0557 10.7687 51.475C11.6542 51.8943 11.9316 52.0202 11.8686 52.2496C11.8056 52.479 11.235 52.5739 11.203 53.1361C11.171 53.6983 11.3064 54.5923 12.8604 55.2682C14.4143 55.9441 14.9285 56.1349 15.3751 56.1349C15.8216 56.1349 16.3358 55.9469 17.8898 55.2682C19.4437 54.5895 19.5152 53.499 19.4879 52.9377C19.4606 52.3765 18.9502 52.479 18.8872 52.2496C18.8242 52.0202 19.1006 51.8943 19.9861 51.475C20.8717 51.0557 21.2712 50.7549 21.212 49.7114Z" fill="#4F5DA3"/>
<path d="M19.4155 52.9548C19.3845 52.4171 18.8825 52.5158 18.8195 52.2968C18.8189 52.2918 18.8189 52.2867 18.8195 52.2817L17.7516 51.9997L15.7517 51.7432C15.7517 51.7432 15.2653 52.0549 15.4099 52.0645C15.6596 52.0813 15.6763 52.3603 15.8419 52.5256C16.0075 52.6908 16.7278 53.6317 17.6867 53.5997C18.6456 53.5677 18.937 52.8693 19.2519 53.2754C19.4268 53.501 18.9699 54.5454 18.1154 54.8086C17.2609 55.0719 16.5793 55.3464 16.1356 55.4667C15.637 55.5906 15.118 55.6095 14.6117 55.5222C14.1135 55.4282 12.2973 54.9064 12.2615 54.8951C12.4496 55.0106 12.6471 55.11 12.8519 55.1922C14.3927 55.8399 14.8994 56.0223 15.3459 56.0223C15.7925 56.0223 16.2963 55.8408 17.8353 55.1894C19.3742 54.5379 19.4465 53.4907 19.4155 52.9548Z" fill="#353F6E"/>
<path d="M12.0923 52.7123C12.0923 52.7123 12.4505 53.5809 14.1821 53.4324C14.3984 53.4138 14.432 53.1876 14.4904 53.0305C14.5849 52.7761 14.7522 52.6952 14.9141 52.526C15.0713 52.3618 15.1826 52.0976 15.4084 52.0603C15.7176 52.0091 15.7406 51.6014 15.7323 51.3163C15.7069 50.4467 14.5817 49.7021 14.5817 49.7021L12.0923 52.7123Z" fill="#353F6E"/>
<path d="M15.3177 52.3102C15.3177 52.2754 15.2792 52.2623 15.2632 52.2914C15.2049 52.392 15.1513 52.6214 15.0432 52.7173C14.9022 52.8404 14.7302 52.9937 14.7913 53.1544C14.8524 53.3152 15.0263 53.2033 15.1673 53.0924C15.2256 53.0444 15.2613 53.0172 15.2858 52.9984C15.2975 52.9893 15.307 52.9776 15.3133 52.9642C15.3197 52.9508 15.3228 52.9361 15.3224 52.9213L15.3177 52.3102Z" fill="#353F6E"/>
<path d="M15.4362 52.2878C15.4362 52.253 15.4738 52.2398 15.4907 52.269C15.549 52.3695 15.6026 52.5999 15.7107 52.6948C15.8508 52.818 16.0228 52.9712 15.9626 53.132C15.9025 53.2927 15.7276 53.1818 15.5866 53.0708C15.5283 53.0229 15.4926 52.9947 15.4682 52.9768C15.4564 52.9678 15.4469 52.9561 15.4406 52.9427C15.4342 52.9293 15.4311 52.9146 15.4315 52.8998L15.4362 52.2878Z" fill="#353F6E"/>
<path d="M17.2787 53.8662C17.2728 54.0553 17.2537 54.2438 17.2214 54.4303C17.3887 54.3927 17.6849 54.214 17.7676 53.9931C17.614 53.9208 17.4482 53.8777 17.2787 53.8662Z" fill="#DFE1E5"/>
<path d="M18.8881 54.0173C18.6296 54.2307 18.2056 54.1499 17.7535 54.0296C17.694 53.9735 17.6201 53.9351 17.5401 53.9186C17.4531 53.8973 17.3632 53.8904 17.274 53.898C17.197 53.8888 17.1213 53.8708 17.0484 53.8444C16.4975 53.5417 15.5584 53.5435 15.5584 53.5435C15.5584 53.5435 14.7433 53.5435 14.0966 53.8472C13.4761 54.1405 12.63 54.337 12.2333 54.0173C12.1074 53.9023 12.0107 53.7589 11.9513 53.599C11.9269 53.5379 12.0039 53.4918 12.0378 53.5464C12.175 53.7673 12.3734 53.8604 12.6423 53.9083C13.3774 54.039 14.2752 53.4326 15.5565 53.4326C16.8378 53.4326 17.8061 53.8246 18.4707 53.9083C18.7424 53.9431 18.9408 53.7673 19.0752 53.5464C19.109 53.4918 19.1861 53.5379 19.1617 53.599C19.1054 53.7584 19.0115 53.9019 18.8881 54.0173Z" fill="#353F6E"/>
<path d="M14.9802 54.1762C14.8862 54.1094 15.0742 53.96 15.5057 53.96C15.9053 53.96 16.0613 54.0897 16.0397 54.148C16.0002 54.2504 15.6956 54.1254 15.4935 54.1254C15.2914 54.1254 15.0742 54.242 14.9802 54.1762Z" fill="#353F6E"/>
<path d="M14.2667 43.8008C14.2667 43.8008 12.9121 45.5794 12.2785 46.214C11.6449 46.8485 10.341 48.5077 10.074 48.9656C9.80701 49.4234 9.46764 50.496 10.45 51.1108C9.9593 49.916 10.9003 49.5663 11.2021 49.6217C11.5038 49.6772 11.4766 50.7573 11.4766 50.7573L11.9635 51.3947L13.7497 51.2706L14.7424 49.8239L14.3795 49.4854C14.0088 49.198 13.5662 49.0182 13.1001 48.9656C12.3274 48.8828 12.0397 48.9082 12.0397 48.9082C12.0397 48.9082 12.1497 48.1881 12.9591 48.3131C12.7241 47.9634 12.6404 46.1247 14.2667 43.8008Z" fill="#353F6E"/>
<path d="M16.8209 45.0557C16.8209 45.0557 17.0193 46.4207 17.0296 47.2357C17.04 48.0507 17.228 49.3142 16.8736 49.6479C16.5192 49.9817 17.0888 50.118 17.0888 50.118L19.2755 51.4726C19.2755 51.4726 19.8235 51.3786 20.0849 51.2047C20.3462 51.0308 20.7692 50.7403 20.8473 50.3897C20.4929 50.7506 20.1892 51.0223 19.9439 50.7243C19.6985 50.4263 19.8687 49.0059 18.9624 48.3111C19.1138 48.6298 18.9258 49.1572 18.5704 49.0952C18.2151 49.0331 17.6567 48.1908 17.5185 47.4735C17.3803 46.7563 16.8209 45.0557 16.8209 45.0557Z" fill="#353F6E"/>
<path d="M11.3233 50.2213L10.3833 49.3912C10.3017 49.318 10.2525 49.2154 10.2465 49.1059C10.2405 48.9964 10.2782 48.8891 10.3513 48.8074C10.3877 48.7667 10.4317 48.7335 10.4809 48.7099C10.5301 48.6862 10.5835 48.6725 10.638 48.6696C10.6925 48.6666 10.747 48.6744 10.7985 48.6926C10.85 48.7107 10.8973 48.7389 10.9379 48.7754L11.8639 49.5933C11.6339 49.754 11.448 49.9699 11.3233 50.2213Z" fill="#DFE1E5"/>
<path d="M15.2181 51.2725V51.28C15.2181 51.8121 15.0071 52.3226 14.6315 52.6995C14.2558 53.0764 13.746 53.2891 13.2138 53.2908C13.7467 53.2871 14.2564 53.0728 14.6319 52.6947C15.0074 52.3166 15.2181 51.8053 15.2181 51.2725Z" fill="#A5AFD4"/>
<path d="M11.1964 51.2505C11.1964 51.2035 11.1964 51.1565 11.203 51.1113C11.2002 51.1574 11.1964 51.2035 11.1964 51.2505Z" fill="#A5AFD4"/>
<path d="M13.2073 53.2907C12.6739 53.2907 12.1623 53.0789 11.7851 52.7018C11.4078 52.3247 11.1957 51.8133 11.1955 51.2799V51.2695C11.1947 51.8042 11.4062 52.3173 11.7833 52.6962C12.1605 53.0752 12.6726 53.289 13.2073 53.2907Z" fill="#A5AFD4"/>
<path d="M11.1964 51.2502C11.1964 51.2032 11.1964 51.1561 11.203 51.111C11.2262 50.8125 11.3151 50.5228 11.4635 50.2627C11.6119 50.0027 11.8161 49.7787 12.0613 49.6069C12.3965 49.3699 12.7967 49.2422 13.2073 49.2412C13.7424 49.2432 14.2548 49.4576 14.6319 49.8374C15.009 50.2171 15.2198 50.731 15.2181 51.2661V51.2727C15.2181 51.8056 15.0074 52.3168 14.6319 52.6949C14.2565 53.073 13.7467 53.2873 13.2138 53.2911H13.2073C12.6726 53.2893 12.1605 53.0755 11.7833 52.6966C11.4062 52.3176 11.1947 51.8045 11.1955 51.2699C11.1955 51.2605 11.1964 51.2558 11.1964 51.2502Z" fill="#DFE1E5"/>
<path d="M13.2148 52.9437C14.1223 52.9437 14.858 52.208 14.858 51.3005C14.858 50.3929 14.1223 49.6572 13.2148 49.6572C12.3072 49.6572 11.5715 50.3929 11.5715 51.3005C11.5715 52.208 12.3072 52.9437 13.2148 52.9437Z" fill="#353F6E"/>
<path d="M11.7285 50.2L14.858 50.6014L14.5403 50.2C14.5403 50.2 14.0928 49.7817 14.0637 49.7713C14.0345 49.761 13.6058 49.5419 13.4113 49.5419C13.2167 49.5419 12.7588 49.3765 12.5652 49.4743C12.3715 49.572 11.7295 50.1455 11.7295 50.1455L11.7285 50.2Z" fill="#DFE1E5"/>
<path d="M13.6275 51.5779L15.0103 51.0618L14.5441 50.2393L12.4007 51.6654L14.3288 50.9528L13.6275 51.5779Z" fill="#DFE1E5"/>
<path d="M11.4183 50.1208C11.4183 50.1208 10.5553 49.3424 10.529 49.3142C10.502 49.2726 10.4866 49.2246 10.4841 49.1751C10.4816 49.1256 10.4922 49.0763 10.5149 49.0322C10.5703 48.9542 10.5262 49.0886 10.5666 49.1807C10.607 49.2729 11.626 49.8388 11.626 49.8388L11.4183 50.1208Z" fill="#353F6E"/>
<path d="M19.4306 50.2003L20.3481 49.3909C20.4278 49.3193 20.4759 49.219 20.4817 49.112C20.4875 49.005 20.4506 48.9001 20.3791 48.8203C20.3076 48.7408 20.2074 48.6929 20.1007 48.6871C19.9939 48.6813 19.8892 48.718 19.8094 48.7893L18.9051 49.5874C19.1287 49.7445 19.3094 49.9553 19.4306 50.2003Z" fill="#DFE1E5"/>
<path d="M15.5791 51.2725V51.28C15.5791 51.8121 15.79 52.3226 16.1657 52.6995C16.5414 53.0764 17.0512 53.2891 17.5833 53.2908C17.0505 53.2871 16.5407 53.0728 16.1652 52.6947C15.7898 52.3166 15.5791 51.8053 15.5791 51.2725Z" fill="#A5AFD4"/>
<path d="M19.6008 51.2505C19.6008 51.2035 19.6008 51.1565 19.5942 51.1113C19.5979 51.1574 19.6008 51.2035 19.6008 51.2505Z" fill="#A5AFD4"/>
<path d="M17.5909 53.2907C17.8549 53.2907 18.1164 53.2387 18.3604 53.1376C18.6043 53.0366 18.826 52.8885 19.0127 52.7017C19.1994 52.515 19.3476 52.2933 19.4486 52.0494C19.5497 51.8054 19.6017 51.5439 19.6017 51.2799V51.2695C19.6027 51.8041 19.3915 52.3172 19.0144 52.6962C18.6374 53.0751 18.1254 53.289 17.5909 53.2907Z" fill="#A5AFD4"/>
<path d="M19.6007 51.2503C19.6007 51.2033 19.6007 51.1563 19.5941 51.1112C19.571 50.8126 19.482 50.5229 19.3336 50.2629C19.1852 50.0028 18.9811 49.7788 18.7358 49.607C18.4005 49.3714 18.0006 49.245 17.5908 49.2451C17.3258 49.246 17.0635 49.299 16.8189 49.4013C16.5744 49.5035 16.3524 49.6529 16.1656 49.8409C15.9787 50.029 15.8308 50.2519 15.7302 50.4972C15.6295 50.7424 15.5782 51.005 15.5791 51.27V51.2766C15.579 51.8095 15.7897 52.3207 16.1652 52.6988C16.5407 53.077 17.0504 53.2912 17.5833 53.295H17.5908C18.1254 53.2932 18.6374 53.0794 19.0144 52.7004C19.3914 52.3215 19.6026 51.8084 19.6016 51.2738C19.6016 51.2606 19.6007 51.2559 19.6007 51.2503Z" fill="#DFE1E5"/>
<path d="M17.5739 52.9437C18.4815 52.9437 19.2172 52.208 19.2172 51.3005C19.2172 50.3929 18.4815 49.6572 17.5739 49.6572C16.6664 49.6572 15.9307 50.3929 15.9307 51.3005C15.9307 52.208 16.6664 52.9437 17.5739 52.9437Z" fill="#353F6E"/>
<path d="M18.9511 50.2L15.8677 50.6578L16.0557 50.2432C16.0557 50.2432 16.5868 49.7817 16.6197 49.7732C16.6526 49.7647 17.0738 49.5419 17.2684 49.5419C17.463 49.5419 17.9208 49.3765 18.1145 49.4743C18.3081 49.572 18.9502 50.1455 18.9502 50.1455L18.9511 50.2Z" fill="#DFE1E5"/>
<path d="M17.9828 51.4607L19.3657 50.9446L18.8994 50.1211L16.757 51.5481L18.6841 50.8346L17.9828 51.4607Z" fill="#DFE1E5"/>
<path d="M19.3986 50.1647C19.3986 50.1647 20.2616 49.3864 20.2879 49.3582C20.3149 49.3165 20.3303 49.2685 20.3328 49.219C20.3353 49.1695 20.3247 49.1202 20.302 49.0761C20.2466 48.9981 20.2907 49.1325 20.2494 49.2256C20.208 49.3187 19.1909 49.8837 19.1909 49.8837L19.3986 50.1647Z" fill="#353F6E"/>
</g>
</g>
<path d="M30.8157 45.2666V54.3713" stroke="#37383F" stroke-width="0.700358" stroke-linecap="round"/>
<mask id="path-37-inside-3_6132_115456" fill="white">
<path d="M39.22 34.4111H104.234V65.2269H39.22V34.4111Z"/>
</mask>
<path d="M104.234 64.5265H39.22V65.9272H104.234V64.5265Z" fill="#6063F6" mask="url(#path-37-inside-3_6132_115456)"/>
<g clip-path="url(#clip4_6132_115456)">
<path d="M45.5221 50.6111L45.2368 50.9332C45.0164 51.1536 44.7356 51.3037 44.4299 51.3645C44.1243 51.4253 43.8074 51.3941 43.5195 51.2748C43.2315 51.1556 42.9854 50.9536 42.8122 50.6945C42.6391 50.4353 42.5467 50.1306 42.5467 49.819C42.5467 49.5073 42.6391 49.2026 42.8122 48.9435C42.9854 48.6843 43.2315 48.4824 43.5195 48.3631C43.8074 48.2438 44.1243 48.2126 44.4299 48.2735C44.7356 48.3343 45.0164 48.4844 45.2368 48.7047L47.2105 50.9332C47.4308 51.1536 47.7116 51.3037 48.0173 51.3645C48.323 51.4253 48.6398 51.3941 48.9278 51.2748C49.2157 51.1556 49.4618 50.9536 49.635 50.6945C49.8081 50.4353 49.9006 50.1306 49.9006 49.819C49.9006 49.5073 49.8081 49.2026 49.635 48.9435C49.4618 48.6843 49.2157 48.4824 48.9278 48.3631C48.6398 48.2438 48.323 48.2126 48.0173 48.2735C47.7116 48.3343 47.4308 48.4844 47.2105 48.7047L46.9252 49.0268" stroke="#F0F1F7" stroke-width="0.700358" stroke-linecap="round" stroke-linejoin="round"/>
</g>
<path d="M54.0452 52.8193V46.4043H54.9743L57.1704 51.7568H57.2416L59.4377 46.4043H60.3669V52.8193H59.62V47.9203H59.5711L57.5439 52.8193H56.8681L54.8409 47.9203H54.792V52.8193H54.0452ZM63.7678 52.8193V50.0586L61.4916 46.4043H62.403L64.1323 49.2539H64.2034L65.9328 46.4043H66.8441L64.568 50.0586V52.8193H63.7678ZM66.3507 53.9841V53.2639H71.6632V53.9841H66.3507ZM72.4856 52.8193V46.4043H76.46V47.1245H73.2859V49.1828H76.2955V49.8941H73.2859V52.0991H76.46V52.8193H72.4856ZM77.9093 52.8193V46.4043H78.6873L82.1682 51.3967H82.2394V46.4043H83.0307V52.8193H82.2527L78.7718 47.8447H78.7006V52.8193H77.9093ZM86.5205 52.8193L84.1554 46.4043H84.9956L86.8806 51.7835H86.9517L88.8367 46.4043H89.6769L87.3118 52.8193H86.5205Z" fill="white"/>
<g clip-path="url(#clip5_6132_115456)">
<path d="M97.2308 50.2127C97.4483 50.2127 97.6247 50.0363 97.6247 49.8188C97.6247 49.6012 97.4483 49.4248 97.2308 49.4248C97.0132 49.4248 96.8368 49.6012 96.8368 49.8188C96.8368 50.0363 97.0132 50.2127 97.2308 50.2127Z" fill="#F0F1F7"/>
<path d="M97.2308 47.9803C97.4483 47.9803 97.6247 47.8039 97.6247 47.5863C97.6247 47.3688 97.4483 47.1924 97.2308 47.1924C97.0132 47.1924 96.8368 47.3688 96.8368 47.5863C96.8368 47.8039 97.0132 47.9803 97.2308 47.9803Z" fill="#F0F1F7"/>
<path d="M97.2308 52.4451C97.4483 52.4451 97.6247 52.2688 97.6247 52.0512C97.6247 51.8336 97.4483 51.6572 97.2308 51.6572C97.0132 51.6572 96.8368 51.8336 96.8368 52.0512C96.8368 52.2688 97.0132 52.4451 97.2308 52.4451Z" fill="#F0F1F7"/>
</g>
<g opacity="0.1">
<g clip-path="url(#clip6_6132_115456)">
<path d="M118.941 50.6111L118.655 50.9332C118.435 51.1536 118.154 51.3037 117.849 51.3645C117.543 51.4253 117.226 51.3941 116.938 51.2748C116.65 51.1556 116.404 50.9536 116.231 50.6945C116.058 50.4353 115.965 50.1306 115.965 49.819C115.965 49.5073 116.058 49.2026 116.231 48.9435C116.404 48.6843 116.65 48.4824 116.938 48.3631C117.226 48.2438 117.543 48.2126 117.849 48.2735C118.154 48.3343 118.435 48.4844 118.655 48.7047L120.629 50.9332C120.849 51.1536 121.13 51.3037 121.436 51.3645C121.742 51.4253 122.058 51.3941 122.346 51.2748C122.634 51.1556 122.88 50.9536 123.054 50.6945C123.227 50.4353 123.319 50.1306 123.319 49.819C123.319 49.5073 123.227 49.2026 123.054 48.9435C122.88 48.6843 122.634 48.4824 122.346 48.3631C122.058 48.2438 121.742 48.2126 121.436 48.2735C121.13 48.3343 120.849 48.4844 120.629 48.7047L120.344 49.0268" stroke="#ACAFBF" stroke-width="0.700358" stroke-linecap="round" stroke-linejoin="round"/>
</g>
<path d="M129.567 52.9705C128.162 52.9705 127.255 52.2325 127.162 51.1878L127.157 51.1389H127.957L127.962 51.1878C128.02 51.828 128.686 52.2325 129.611 52.2325C130.482 52.2325 131.118 51.7835 131.118 51.13V51.1256C131.118 50.5921 130.749 50.2275 129.869 50.0319L129.158 49.8763C127.873 49.5918 127.317 49.0005 127.317 48.0714V48.067C127.322 47.0045 128.251 46.2531 129.575 46.2531C130.856 46.2531 131.749 47.0089 131.816 47.9647L131.821 48.0269H131.02L131.011 47.9692C130.923 47.4046 130.389 46.9867 129.553 46.9911C128.753 46.9956 128.135 47.3734 128.135 48.0447V48.0492C128.135 48.5604 128.486 48.9072 129.358 49.0983L130.069 49.2584C131.407 49.5562 131.936 50.0942 131.936 51.0189V51.0233C131.936 52.2236 130.998 52.9705 129.567 52.9705ZM132.759 52.8193L135.124 46.4043H135.915L138.28 52.8193H137.44L136.795 50.9833H134.243L133.599 52.8193H132.759ZM135.484 47.4401L134.479 50.3031H136.56L135.555 47.4401H135.484ZM139.405 52.8193V46.4043H140.334L142.53 51.7568H142.601L144.797 46.4043H145.726V52.8193H144.98V47.9203H144.931L142.903 52.8193H142.228L140.201 47.9203H140.152V52.8193H139.405ZM147.362 52.8193V46.4043H149.781C150.986 46.4043 151.839 47.2356 151.839 48.4537V48.4626C151.839 49.6807 150.986 50.5298 149.781 50.5298H148.163V52.8193H147.362ZM149.576 47.1156H148.163V49.8185H149.576C150.492 49.8185 151.021 49.3162 151.021 48.4715V48.4626C151.021 47.6179 150.492 47.1156 149.576 47.1156ZM153.151 52.8193V46.4043H153.951V52.0991H157.045V52.8193H153.151ZM158.325 52.8193V46.4043H162.3V47.1245H159.126V49.1828H162.135V49.8941H159.126V52.0991H162.3V52.8193H158.325ZM162.931 53.9841V53.2639H168.244V53.9841H162.931ZM169.066 52.8193V46.4043H173.04V47.1245H169.866V49.1828H172.876V49.8941H169.866V52.0991H173.04V52.8193H169.066ZM174.49 52.8193V46.4043H175.268L178.749 51.3967H178.82V46.4043H179.611V52.8193H178.833L175.352 47.8447H175.281V52.8193H174.49ZM183.101 52.8193L180.736 46.4043H181.576L183.461 51.7835H183.532L185.417 46.4043H186.257L183.892 52.8193H183.101Z" fill="#ACAFBF"/>
<g clip-path="url(#clip7_6132_115456)">
<path d="M193.649 50.2127C193.867 50.2127 194.043 50.0363 194.043 49.8188C194.043 49.6012 193.867 49.4248 193.649 49.4248C193.432 49.4248 193.255 49.6012 193.255 49.8188C193.255 50.0363 193.432 50.2127 193.649 50.2127Z" fill="#828599"/>
<path d="M193.649 47.9803C193.867 47.9803 194.043 47.8039 194.043 47.5863C194.043 47.3688 193.867 47.1924 193.649 47.1924C193.432 47.1924 193.255 47.3688 193.255 47.5863C193.255 47.8039 193.432 47.9803 193.649 47.9803Z" fill="#828599"/>
<path d="M193.649 52.4451C193.867 52.4451 194.043 52.2688 194.043 52.0512C194.043 51.8336 193.867 51.6572 193.649 51.6572C193.432 51.6572 193.255 51.8336 193.255 52.0512C193.255 52.2688 193.432 52.4451 193.649 52.4451Z" fill="#828599"/>
</g>
</g>
</g>
<path d="M0 35.1115H783V33.7108H0V35.1115Z" fill="#2C2E33" mask="url(#path-6-inside-2_6132_115456)"/>
</g>
<g opacity="0.1">
<rect width="783" height="34.4114" fill="#27282E"/>
<path d="M11.9608 20.3661C10.0803 20.3661 8.92444 19.0635 8.92444 17.0008V16.9919C8.92444 14.9246 10.0981 13.631 11.9608 13.631C13.828 13.631 14.9927 14.9246 14.9927 16.9919V17.0008C14.9927 19.0635 13.8324 20.3661 11.9608 20.3661ZM11.9608 19.3747C13.1033 19.3747 13.8235 18.4411 13.8235 17.0008V16.9919C13.8235 15.5426 13.0989 14.6223 11.9608 14.6223C10.8227 14.6223 10.0936 15.5426 10.0936 16.9919V17.0008C10.0936 18.4411 10.8049 19.3747 11.9608 19.3747ZM18.896 20.2861C18.2158 20.2861 17.6868 19.9749 17.42 19.4459H17.3445V20.2061H16.2375V13.4665H17.3445V16.1205H17.42C17.6734 15.5959 18.2291 15.267 18.896 15.267C20.1274 15.267 20.8921 16.2272 20.8921 17.7743V17.7832C20.8921 19.3214 20.1141 20.2861 18.896 20.2861ZM18.5492 19.3525C19.305 19.3525 19.7629 18.7612 19.7629 17.7832V17.7743C19.7629 16.7963 19.305 16.2005 18.5492 16.2005C17.7979 16.2005 17.3311 16.8007 17.3311 17.7743V17.7832C17.3311 18.7568 17.7979 19.3525 18.5492 19.3525ZM23.8351 20.3039C22.5992 20.3039 21.8523 19.7348 21.759 18.9124V18.9035H22.857L22.8615 18.9124C22.9771 19.2502 23.3016 19.4859 23.8529 19.4859C24.4041 19.4859 24.7864 19.2369 24.7864 18.8724V18.8635C24.7864 18.579 24.5731 18.3922 24.0396 18.2722L23.2527 18.0944C22.328 17.8899 21.8879 17.4542 21.8879 16.7385V16.734C21.8879 15.8582 22.6881 15.2536 23.8351 15.2536C25.0176 15.2536 25.7245 15.8404 25.7956 16.6273V16.6362H24.7553L24.7509 16.6229C24.6709 16.3161 24.3508 16.0672 23.8306 16.0672C23.3372 16.0672 22.9815 16.3072 22.9815 16.6718V16.6762C22.9815 16.9607 23.186 17.1341 23.7106 17.2542L24.4975 17.4275C25.4488 17.6409 25.8979 18.0455 25.8979 18.7523V18.7612C25.8979 19.6859 25.031 20.3039 23.8351 20.3039ZM29.0943 20.3039C27.6494 20.3039 26.7736 19.3347 26.7736 17.7876V17.7832C26.7736 16.2539 27.6583 15.2536 29.0409 15.2536C30.4235 15.2536 31.2771 16.2228 31.2771 17.6898V18.0544H27.8806C27.8939 18.9257 28.3652 19.4325 29.1165 19.4325C29.7166 19.4325 30.059 19.1302 30.1657 18.9079L30.179 18.8768H31.2326L31.2193 18.9168C31.0637 19.5437 30.4146 20.3039 29.0943 20.3039ZM29.0543 16.1205C28.4363 16.1205 27.974 16.5384 27.8895 17.3119H30.1968C30.1212 16.5162 29.6722 16.1205 29.0543 16.1205ZM32.384 20.2061V15.347H33.491V16.0938H33.5666C33.7311 15.5737 34.1756 15.267 34.8158 15.267C34.9847 15.267 35.1581 15.2892 35.2648 15.3203V16.3117C35.087 16.2761 34.9047 16.2494 34.7135 16.2494C33.9756 16.2494 33.491 16.6896 33.491 17.3831V20.2061H32.384ZM37.5499 20.2061L35.8205 15.347H37.003L38.1278 19.1258H38.2034L39.3192 15.347H40.484L38.7635 20.2061H37.5499ZM42.5734 20.2861C41.6487 20.2861 40.9774 19.717 40.9774 18.8324V18.8235C40.9774 17.9566 41.6398 17.4498 42.8224 17.3786L44.0716 17.3031V16.8852C44.0716 16.4006 43.756 16.1339 43.1602 16.1339C42.6534 16.1339 42.3245 16.3161 42.2133 16.6362L42.2089 16.654H41.1641L41.1686 16.614C41.2753 15.796 42.0577 15.2536 43.2136 15.2536C44.4628 15.2536 45.1652 15.8582 45.1652 16.8852V20.2061H44.0716V19.5392H43.996C43.7293 20.0104 43.2136 20.2861 42.5734 20.2861ZM42.0711 18.779C42.0711 19.1925 42.4223 19.437 42.9113 19.437C43.5781 19.437 44.0716 19.0013 44.0716 18.4234V18.0321L42.978 18.1033C42.36 18.1433 42.0711 18.37 42.0711 18.7701V18.779ZM49.1974 20.2861C48.5172 20.2861 47.9882 19.9749 47.7215 19.4459H47.6459V20.2061H46.5389V13.4665H47.6459V16.1205H47.7215C47.9749 15.5959 48.5306 15.267 49.1974 15.267C50.4288 15.267 51.1935 16.2272 51.1935 17.7743V17.7832C51.1935 19.3214 50.4155 20.2861 49.1974 20.2861ZM48.8506 19.3525C49.6064 19.3525 50.0643 18.7612 50.0643 17.7832V17.7743C50.0643 16.7963 49.6064 16.2005 48.8506 16.2005C48.0993 16.2005 47.6325 16.8007 47.6325 17.7743V17.7832C47.6325 18.7568 48.0993 19.3525 48.8506 19.3525ZM52.8695 14.5334C52.505 14.5334 52.2071 14.2445 52.2071 13.8799C52.2071 13.5198 52.505 13.2264 52.8695 13.2264C53.2296 13.2264 53.5274 13.5198 53.5274 13.8799C53.5274 14.2445 53.2296 14.5334 52.8695 14.5334ZM52.3138 20.2061V15.347H53.4208V20.2061H52.3138ZM54.8256 20.2061V13.4665H55.9325V20.2061H54.8256ZM57.9019 14.5334C57.5374 14.5334 57.2396 14.2445 57.2396 13.8799C57.2396 13.5198 57.5374 13.2264 57.9019 13.2264C58.262 13.2264 58.5599 13.5198 58.5599 13.8799C58.5599 14.2445 58.262 14.5334 57.9019 14.5334ZM57.3462 20.2061V15.347H58.4532V20.2061H57.3462ZM61.7252 20.2283C60.6093 20.2283 60.1514 19.8548 60.1514 18.9168V16.205H59.3957V15.347H60.1514V14.1556H61.2762V15.347H62.3031V16.205H61.2762V18.6545C61.2762 19.1391 61.4673 19.3436 61.9297 19.3436C62.0853 19.3436 62.1698 19.3392 62.3031 19.3258V20.1794C62.1431 20.2105 61.9386 20.2283 61.7252 20.2283ZM63.9258 21.9132C63.7924 21.9132 63.6368 21.9087 63.5034 21.8954V21.0463C63.5924 21.0552 63.7168 21.0596 63.8324 21.0596C64.2859 21.0596 64.5571 20.8729 64.6771 20.4328L64.7349 20.2105L62.9966 15.347H64.2059L65.3395 19.1435H65.424L66.5531 15.347H67.7179L65.9752 20.3083C65.5573 21.5264 65.0016 21.9132 63.9258 21.9132Z" fill="white"/>
</g>
<rect x="264" y="86" width="29" height="264" transform="rotate(90 264 86)" fill="url(#paint0_linear_6132_115456)"/>
<rect x="131" y="-5.5" width="87" height="125" fill="url(#paint1_linear_6132_115456)"/>
<rect width="29" height="125" transform="matrix(-1 0 0 1 29 -5)" fill="url(#paint2_linear_6132_115456)"/>
<g filter="url(#filter1_dd_6132_115456)">
<path d="M104.431 60.0472L97.8991 53.7852V62.7868L99.8784 60.6342L101.822 64.478C101.842 64.5167 101.889 64.5323 101.928 64.513L102.974 63.9959C103.014 63.9766 103.029 63.9296 103.01 63.8909L101.066 60.0472H104.431Z" fill="black"/>
</g>
<g filter="url(#filter2_dd_6132_115456)">
<path fill-rule="evenodd" clip-rule="evenodd" d="M106.384 60.8307L97.1074 51.9365V64.8122L99.687 62.0068L101.114 64.8288C101.329 65.2541 101.852 65.4265 102.283 65.2139L103.328 64.6968C103.759 64.4841 103.933 63.9669 103.718 63.5416L102.347 60.8307H106.384ZM103.01 63.8917C103.029 63.9303 103.014 63.9774 102.974 63.9967L101.928 64.5137C101.889 64.5331 101.842 64.5174 101.822 64.4787L99.8784 60.635L97.8991 62.7875V53.7859L104.431 60.0479H101.066L103.01 63.8917Z" fill="white"/>
</g>
<g filter="url(#filter3_d_6132_115456)">
<rect x="91.6093" y="66.9336" width="87.5447" height="22.4114" rx="2.80143" fill="#222326" shape-rendering="crispEdges"/>
<g clip-path="url(#clip8_6132_115456)">
<g clip-path="url(#clip9_6132_115456)">
<path d="M109.468 74.9883H101.764" stroke="#F0F1F7" stroke-width="0.700358" stroke-linecap="round" stroke-linejoin="round"/>
<path d="M104.566 77.0889V79.8903" stroke="#F0F1F7" stroke-width="0.700358" stroke-linecap="round" stroke-linejoin="round"/>
<path d="M106.667 77.0889V79.8903" stroke="#F0F1F7" stroke-width="0.700358" stroke-linecap="round" stroke-linejoin="round"/>
<path d="M108.768 74.9883V81.6417C108.768 81.7346 108.731 81.8236 108.665 81.8893C108.6 81.955 108.511 81.9919 108.418 81.9919H102.815C102.722 81.9919 102.633 81.955 102.567 81.8893C102.502 81.8236 102.465 81.7346 102.465 81.6417V74.9883" stroke="#F0F1F7" stroke-width="0.700358" stroke-linecap="round" stroke-linejoin="round"/>
<path d="M107.367 74.9876V74.2873C107.367 74.1015 107.294 73.9234 107.162 73.792C107.031 73.6607 106.853 73.5869 106.667 73.5869H104.566C104.38 73.5869 104.202 73.6607 104.071 73.792C103.939 73.9234 103.866 74.1015 103.866 74.2873V74.9876" stroke="#F0F1F7" stroke-width="0.700358" stroke-linecap="round" stroke-linejoin="round"/>
</g>
</g>
<path d="M117.64 81.1396V74.7246H119.841C121.743 74.7246 122.868 75.9116 122.868 77.9255V77.9343C122.868 79.9527 121.748 81.1396 119.841 81.1396H117.64ZM118.44 80.4195H119.787C121.219 80.4195 122.05 79.5037 122.05 77.9432V77.9343C122.05 76.3695 121.21 75.4448 119.787 75.4448H118.44V80.4195ZM126.114 81.2241C124.744 81.2241 123.917 80.2639 123.917 78.7612V78.7568C123.917 77.2764 124.762 76.2628 126.065 76.2628C127.367 76.2628 128.159 77.2319 128.159 78.6634V78.9657H124.709C124.731 79.9571 125.278 80.535 126.131 80.535C126.78 80.535 127.18 80.2283 127.309 79.9393L127.327 79.8993H128.101L128.092 79.9349C127.927 80.5839 127.243 81.2241 126.114 81.2241ZM126.06 76.9519C125.349 76.9519 124.806 77.4364 124.722 78.3478H127.372C127.292 77.4009 126.767 76.9519 126.06 76.9519ZM129.403 81.1396V74.4445H130.177V81.1396H129.403ZM133.618 81.2241C132.248 81.2241 131.422 80.2639 131.422 78.7612V78.7568C131.422 77.2764 132.266 76.2628 133.569 76.2628C134.871 76.2628 135.663 77.2319 135.663 78.6634V78.9657H132.213C132.235 79.9571 132.782 80.535 133.636 80.535C134.285 80.535 134.685 80.2283 134.814 79.9393L134.831 79.8993H135.605L135.596 79.9349C135.432 80.5839 134.747 81.2241 133.618 81.2241ZM133.564 76.9519C132.853 76.9519 132.311 77.4364 132.226 78.3478H134.876C134.796 77.4009 134.271 76.9519 133.564 76.9519ZM138.566 81.1752C137.579 81.1752 137.165 80.8107 137.165 79.8949V76.9874H136.41V76.3473H137.165V75.1069H137.966V76.3473H139.015V76.9874H137.966V79.6993C137.966 80.2639 138.161 80.4906 138.659 80.4906C138.797 80.4906 138.872 80.4861 139.015 80.4728V81.1308C138.864 81.1574 138.717 81.1752 138.566 81.1752ZM142.056 81.2241C140.686 81.2241 139.859 80.2639 139.859 78.7612V78.7568C139.859 77.2764 140.704 76.2628 142.007 76.2628C143.309 76.2628 144.101 77.2319 144.101 78.6634V78.9657H140.651C140.673 79.9571 141.22 80.535 142.073 80.535C142.722 80.535 143.122 80.2283 143.251 79.9393L143.269 79.8993H144.043L144.034 79.9349C143.869 80.5839 143.185 81.2241 142.056 81.2241ZM142.002 76.9519C141.291 76.9519 140.749 77.4364 140.664 78.3478H143.314C143.234 77.4009 142.709 76.9519 142.002 76.9519Z" fill="white"/>
</g>
<g filter="url(#filter4_d_6132_115456)">
<rect x="91.6093" y="66.9336" width="90.6172" height="42.0215" rx="2.80143" fill="#222326" shape-rendering="crispEdges"/>
<rect x="94.4107" y="69.7354" width="85.0143" height="16.8086" rx="1.40072" fill="#37383F"/>
<g clip-path="url(#clip10_6132_115456)">
<path d="M104.566 78.0929C104.286 77.5863 104.17 77.0054 104.233 76.4301C104.297 75.8548 104.537 75.3133 104.921 74.8801C105.305 74.4469 105.814 74.1432 106.377 74.0108C106.94 73.8784 107.531 73.9238 108.068 74.1407L106.317 76.0382L106.565 77.1912L107.717 77.4389L109.615 75.688C109.832 76.2246 109.877 76.8153 109.745 77.3787C109.612 77.9422 109.309 78.4508 108.876 78.8346C108.442 79.2184 107.901 79.4587 107.326 79.5223C106.75 79.5859 106.169 79.4697 105.663 79.1898L103.209 82.035C103.012 82.2324 102.744 82.3432 102.465 82.3432C102.186 82.3432 101.918 82.2324 101.721 82.035C101.523 81.8377 101.412 81.57 101.412 81.2909C101.412 81.0118 101.523 80.7441 101.721 80.5467L104.566 78.0929Z" stroke="#F0F1F7" stroke-width="0.700358" stroke-linecap="round" stroke-linejoin="round"/>
</g>
<path d="M117.64 81.1396V74.7246H118.44V77.4987H121.961V74.7246H122.762V81.1396H121.961V78.2189H118.44V81.1396H117.64ZM126.269 81.2241C124.904 81.2241 124.06 80.2816 124.06 78.7479V78.739C124.06 77.2008 124.904 76.2628 126.269 76.2628C127.634 76.2628 128.479 77.2008 128.479 78.739V78.7479C128.479 80.2816 127.634 81.2241 126.269 81.2241ZM126.269 80.5395C127.176 80.5395 127.687 79.8771 127.687 78.7479V78.739C127.687 77.6054 127.176 76.9474 126.269 76.9474C125.362 76.9474 124.851 77.6054 124.851 78.739V78.7479C124.851 79.8771 125.362 80.5395 126.269 80.5395ZM130.426 81.1396L129.083 76.3473H129.857L130.799 80.1794H130.87L131.942 76.3473H132.675L133.747 80.1794H133.818L134.76 76.3473H135.529L134.187 81.1396H133.409L132.337 77.432H132.266L131.199 81.1396H130.426ZM140.815 81.1752C139.828 81.1752 139.415 80.8107 139.415 79.8949V76.9874H138.659V76.3473H139.415V75.1069H140.215V76.3473H141.264V76.9874H140.215V79.6993C140.215 80.2639 140.411 80.4906 140.909 80.4906C141.046 80.4906 141.122 80.4861 141.264 80.4728V81.1308C141.113 81.1574 140.966 81.1752 140.815 81.1752ZM144.318 81.2241C142.954 81.2241 142.109 80.2816 142.109 78.7479V78.739C142.109 77.2008 142.954 76.2628 144.318 76.2628C145.683 76.2628 146.528 77.2008 146.528 78.739V78.7479C146.528 80.2816 145.683 81.2241 144.318 81.2241ZM144.318 80.5395C145.225 80.5395 145.737 79.8771 145.737 78.7479V78.739C145.737 77.6054 145.225 76.9474 144.318 76.9474C143.411 76.9474 142.9 77.6054 142.9 78.739V78.7479C142.9 79.8771 143.411 80.5395 144.318 80.5395ZM151.934 81.2241C150.867 81.2241 150.133 80.7084 150.044 79.9171H150.836C150.965 80.3172 151.347 80.5795 151.96 80.5795C152.605 80.5795 153.063 80.2728 153.063 79.8371V79.8282C153.063 79.5037 152.818 79.2769 152.227 79.1347L151.485 78.9568C150.587 78.7435 150.182 78.3522 150.182 77.6632V77.6587C150.182 76.863 150.947 76.2628 151.965 76.2628C152.97 76.2628 153.668 76.7651 153.774 77.5476H153.014C152.912 77.1697 152.538 76.9074 151.96 76.9074C151.391 76.9074 150.973 77.2008 150.973 77.6232V77.632C150.973 77.9566 151.214 78.1611 151.778 78.2989L152.516 78.4767C153.419 78.6946 153.854 79.0858 153.854 79.7704V79.7793C153.854 80.6328 153.023 81.2241 151.934 81.2241ZM157.011 81.2241C155.641 81.2241 154.815 80.2639 154.815 78.7612V78.7568C154.815 77.2764 155.659 76.2628 156.962 76.2628C158.264 76.2628 159.056 77.2319 159.056 78.6634V78.9657H155.606C155.628 79.9571 156.175 80.535 157.028 80.535C157.677 80.535 158.078 80.2283 158.207 79.9393L158.224 79.8993H158.998L158.989 79.9349C158.824 80.5839 158.14 81.2241 157.011 81.2241ZM156.957 76.9519C156.246 76.9519 155.704 77.4364 155.619 78.3478H158.269C158.189 77.4009 157.664 76.9519 156.957 76.9519ZM161.959 81.1752C160.972 81.1752 160.558 80.8107 160.558 79.8949V76.9874H159.803V76.3473H160.558V75.1069H161.358V76.3473H162.408V76.9874H161.358V79.6993C161.358 80.2639 161.554 80.4906 162.052 80.4906C162.19 80.4906 162.265 80.4861 162.408 80.4728V81.1308C162.256 81.1574 162.11 81.1752 161.959 81.1752ZM165.168 81.2241C164.079 81.2241 163.519 80.5839 163.519 79.4503V76.3473H164.293V79.2636C164.293 80.126 164.604 80.5395 165.368 80.5395C166.213 80.5395 166.662 80.0238 166.662 79.1836V76.3473H167.436V81.1396H166.662V80.4239H166.591C166.355 80.9351 165.871 81.2241 165.168 81.2241ZM168.88 82.7401V76.3473H169.654V77.1119H169.725C170.019 76.5784 170.552 76.2628 171.219 76.2628C172.433 76.2628 173.228 77.2453 173.228 78.739V78.7479C173.228 80.2505 172.437 81.2241 171.219 81.2241C170.561 81.2241 169.987 80.8951 169.725 80.3839H169.654V82.7401H168.88ZM171.041 80.5395C171.917 80.5395 172.437 79.8638 172.437 78.7479V78.739C172.437 77.6232 171.917 76.9474 171.041 76.9474C170.17 76.9474 169.636 77.632 169.636 78.739V78.7479C169.636 79.8549 170.17 80.5395 171.041 80.5395Z" fill="white"/>
<g opacity="0.1">
<g clip-path="url(#clip11_6132_115456)">
<g clip-path="url(#clip12_6132_115456)">
<path d="M109.468 94.5977H101.764" stroke="#828599" stroke-width="0.700358" stroke-linecap="round" stroke-linejoin="round"/>
<path d="M104.566 96.6982V99.4997" stroke="#828599" stroke-width="0.700358" stroke-linecap="round" stroke-linejoin="round"/>
<path d="M106.667 96.6982V99.4997" stroke="#828599" stroke-width="0.700358" stroke-linecap="round" stroke-linejoin="round"/>
<path d="M108.768 94.5977V101.251C108.768 101.344 108.731 101.433 108.665 101.499C108.6 101.564 108.511 101.601 108.418 101.601H102.815C102.722 101.601 102.633 101.564 102.567 101.499C102.502 101.433 102.465 101.344 102.465 101.251V94.5977" stroke="#828599" stroke-width="0.700358" stroke-linecap="round" stroke-linejoin="round"/>
<path d="M107.367 94.597V93.8966C107.367 93.7109 107.294 93.5328 107.162 93.4014C107.031 93.2701 106.853 93.1963 106.667 93.1963H104.566C104.38 93.1963 104.202 93.2701 104.071 93.4014C103.939 93.5328 103.866 93.7109 103.866 93.8966V94.597" stroke="#828599" stroke-width="0.700358" stroke-linecap="round" stroke-linejoin="round"/>
</g>
</g>
<path d="M117.64 100.749V94.334H119.841C121.743 94.334 122.868 95.521 122.868 97.5348V97.5437C122.868 99.562 121.748 100.749 119.841 100.749H117.64ZM118.44 100.029H119.787C121.219 100.029 122.05 99.113 122.05 97.5526V97.5437C122.05 95.9789 121.21 95.0542 119.787 95.0542H118.44V100.029ZM126.114 100.833C124.744 100.833 123.917 99.8732 123.917 98.3706V98.3662C123.917 96.8858 124.762 95.8722 126.065 95.8722C127.367 95.8722 128.159 96.8413 128.159 98.2728V98.5751H124.709C124.731 99.5665 125.278 100.144 126.131 100.144C126.78 100.144 127.18 99.8377 127.309 99.5487L127.327 99.5087H128.101L128.092 99.5443C127.927 100.193 127.243 100.833 126.114 100.833ZM126.06 96.5612C125.349 96.5612 124.806 97.0458 124.722 97.9572H127.372C127.292 97.0102 126.767 96.5612 126.06 96.5612ZM129.403 100.749V94.0539H130.177V100.749H129.403ZM133.618 100.833C132.248 100.833 131.422 99.8732 131.422 98.3706V98.3662C131.422 96.8858 132.266 95.8722 133.569 95.8722C134.871 95.8722 135.663 96.8413 135.663 98.2728V98.5751H132.213C132.235 99.5665 132.782 100.144 133.636 100.144C134.285 100.144 134.685 99.8377 134.814 99.5487L134.831 99.5087H135.605L135.596 99.5443C135.432 100.193 134.747 100.833 133.618 100.833ZM133.564 96.5612C132.853 96.5612 132.311 97.0458 132.226 97.9572H134.876C134.796 97.0102 134.271 96.5612 133.564 96.5612ZM138.566 100.785C137.579 100.785 137.165 100.42 137.165 99.5042V96.5968H136.41V95.9566H137.165V94.7163H137.966V95.9566H139.015V96.5968H137.966V99.3086C137.966 99.8732 138.161 100.1 138.659 100.1C138.797 100.1 138.872 100.096 139.015 100.082V100.74C138.864 100.767 138.717 100.785 138.566 100.785ZM142.056 100.833C140.686 100.833 139.859 99.8732 139.859 98.3706V98.3662C139.859 96.8858 140.704 95.8722 142.007 95.8722C143.309 95.8722 144.101 96.8413 144.101 98.2728V98.5751H140.651C140.673 99.5665 141.22 100.144 142.073 100.144C142.722 100.144 143.122 99.8377 143.251 99.5487L143.269 99.5087H144.043L144.034 99.5443C143.869 100.193 143.185 100.833 142.056 100.833ZM142.002 96.5612C141.291 96.5612 140.749 97.0458 140.664 97.9572H143.314C143.234 97.0102 142.709 96.5612 142.002 96.5612Z" fill="white"/>
</g>
</g>
<g filter="url(#filter5_dd_6132_115456)">
<path d="M172.431 91.0472L165.899 84.7852V93.7868L167.878 91.6342L169.822 95.478C169.842 95.5167 169.889 95.5323 169.928 95.513L170.974 94.9959C171.014 94.9766 171.029 94.9296 171.01 94.8909L169.066 91.0472H172.431Z" fill="black"/>
</g>
<g filter="url(#filter6_dd_6132_115456)">
<path fill-rule="evenodd" clip-rule="evenodd" d="M174.384 91.8307L165.107 82.9365V95.8122L167.687 93.0068L169.114 95.8288C169.329 96.2541 169.852 96.4265 170.283 96.2139L171.328 95.6968C171.759 95.4841 171.933 94.9669 171.718 94.5416L170.347 91.8307H174.384ZM171.01 94.8917C171.029 94.9303 171.014 94.9774 170.974 94.9967L169.928 95.5137C169.889 95.5331 169.842 95.5174 169.822 95.4787L167.878 91.635L165.899 93.7875V84.7859L172.431 91.0479H169.066L171.01 94.8917Z" fill="white"/>
</g>
</g>
<defs>
<filter id="filter0_d_6132_115456" x="-16.8086" y="23.9058" width="816.617" height="64.4326" filterUnits="userSpaceOnUse" color-interpolation-filters="sRGB">
<feFlood flood-opacity="0" result="BackgroundImageFix"/>
<feColorMatrix in="SourceAlpha" type="matrix" values="0 0 0 0 0 0 0 0 0 0 0 0 0 0 0 0 0 0 127 0" result="hardAlpha"/>
<feOffset dy="6.30322"/>
<feGaussianBlur stdDeviation="8.40429"/>
<feComposite in2="hardAlpha" operator="out"/>
<feColorMatrix type="matrix" values="0 0 0 0 0 0 0 0 0 0 0 0 0 0 0 0 0 0 0.3 0"/>
<feBlend mode="normal" in2="BackgroundImageFix" result="effect1_dropShadow_6132_115456"/>
<feBlend mode="normal" in="SourceGraphic" in2="effect1_dropShadow_6132_115456" result="shape"/>
</filter>
<filter id="filter1_dd_6132_115456" x="95.7981" y="52.3844" width="10.7337" height="16.3392" filterUnits="userSpaceOnUse" color-interpolation-filters="sRGB">
<feFlood flood-opacity="0" result="BackgroundImageFix"/>
<feColorMatrix in="SourceAlpha" type="matrix" values="0 0 0 0 0 0 0 0 0 0 0 0 0 0 0 0 0 0 127 0" result="hardAlpha"/>
<feOffset dx="0.700358"/>
<feGaussianBlur stdDeviation="0.700358"/>
<feColorMatrix type="matrix" values="0 0 0 0 0 0 0 0 0 0 0 0 0 0 0 0 0 0 0.3 0"/>
<feBlend mode="normal" in2="BackgroundImageFix" result="effect1_dropShadow_6132_115456"/>
<feColorMatrix in="SourceAlpha" type="matrix" values="0 0 0 0 0 0 0 0 0 0 0 0 0 0 0 0 0 0 127 0" result="hardAlpha"/>
<feOffset dy="2.10107"/>
<feGaussianBlur stdDeviation="1.05054"/>
<feColorMatrix type="matrix" values="0 0 0 0 0 0 0 0 0 0 0 0 0 0 0 0 0 0 0.25 0"/>
<feBlend mode="normal" in2="effect1_dropShadow_6132_115456" result="effect2_dropShadow_6132_115456"/>
<feBlend mode="normal" in="SourceGraphic" in2="effect2_dropShadow_6132_115456" result="shape"/>
</filter>
<filter id="filter2_dd_6132_115456" x="95.0063" y="50.5358" width="13.4792" height="18.971" filterUnits="userSpaceOnUse" color-interpolation-filters="sRGB">
<feFlood flood-opacity="0" result="BackgroundImageFix"/>
<feColorMatrix in="SourceAlpha" type="matrix" values="0 0 0 0 0 0 0 0 0 0 0 0 0 0 0 0 0 0 127 0" result="hardAlpha"/>
<feOffset dx="0.700358"/>
<feGaussianBlur stdDeviation="0.700358"/>
<feColorMatrix type="matrix" values="0 0 0 0 0 0 0 0 0 0 0 0 0 0 0 0 0 0 0.3 0"/>
<feBlend mode="normal" in2="BackgroundImageFix" result="effect1_dropShadow_6132_115456"/>
<feColorMatrix in="SourceAlpha" type="matrix" values="0 0 0 0 0 0 0 0 0 0 0 0 0 0 0 0 0 0 127 0" result="hardAlpha"/>
<feOffset dy="2.10107"/>
<feGaussianBlur stdDeviation="1.05054"/>
<feColorMatrix type="matrix" values="0 0 0 0 0 0 0 0 0 0 0 0 0 0 0 0 0 0 0.25 0"/>
<feBlend mode="normal" in2="effect1_dropShadow_6132_115456" result="effect2_dropShadow_6132_115456"/>
<feBlend mode="normal" in="SourceGraphic" in2="effect2_dropShadow_6132_115456" result="shape"/>
</filter>
<filter id="filter3_d_6132_115456" x="88.8078" y="65.5329" width="93.1476" height="28.014" filterUnits="userSpaceOnUse" color-interpolation-filters="sRGB">
<feFlood flood-opacity="0" result="BackgroundImageFix"/>
<feColorMatrix in="SourceAlpha" type="matrix" values="0 0 0 0 0 0 0 0 0 0 0 0 0 0 0 0 0 0 127 0" result="hardAlpha"/>
<feOffset dy="1.40072"/>
<feGaussianBlur stdDeviation="1.40072"/>
<feComposite in2="hardAlpha" operator="out"/>
<feColorMatrix type="matrix" values="0 0 0 0 0 0 0 0 0 0 0 0 0 0 0 0 0 0 0.29 0"/>
<feBlend mode="normal" in2="BackgroundImageFix" result="effect1_dropShadow_6132_115456"/>
<feBlend mode="normal" in="SourceGraphic" in2="effect1_dropShadow_6132_115456" result="shape"/>
</filter>
<filter id="filter4_d_6132_115456" x="88.8078" y="65.5329" width="96.22" height="47.6243" filterUnits="userSpaceOnUse" color-interpolation-filters="sRGB">
<feFlood flood-opacity="0" result="BackgroundImageFix"/>
<feColorMatrix in="SourceAlpha" type="matrix" values="0 0 0 0 0 0 0 0 0 0 0 0 0 0 0 0 0 0 127 0" result="hardAlpha"/>
<feOffset dy="1.40072"/>
<feGaussianBlur stdDeviation="1.40072"/>
<feComposite in2="hardAlpha" operator="out"/>
<feColorMatrix type="matrix" values="0 0 0 0 0 0 0 0 0 0 0 0 0 0 0 0 0 0 0.29 0"/>
<feBlend mode="normal" in2="BackgroundImageFix" result="effect1_dropShadow_6132_115456"/>
<feBlend mode="normal" in="SourceGraphic" in2="effect1_dropShadow_6132_115456" result="shape"/>
</filter>
<filter id="filter5_dd_6132_115456" x="163.798" y="83.3844" width="10.7338" height="16.3392" filterUnits="userSpaceOnUse" color-interpolation-filters="sRGB">
<feFlood flood-opacity="0" result="BackgroundImageFix"/>
<feColorMatrix in="SourceAlpha" type="matrix" values="0 0 0 0 0 0 0 0 0 0 0 0 0 0 0 0 0 0 127 0" result="hardAlpha"/>
<feOffset dx="0.700358"/>
<feGaussianBlur stdDeviation="0.700358"/>
<feColorMatrix type="matrix" values="0 0 0 0 0 0 0 0 0 0 0 0 0 0 0 0 0 0 0.3 0"/>
<feBlend mode="normal" in2="BackgroundImageFix" result="effect1_dropShadow_6132_115456"/>
<feColorMatrix in="SourceAlpha" type="matrix" values="0 0 0 0 0 0 0 0 0 0 0 0 0 0 0 0 0 0 127 0" result="hardAlpha"/>
<feOffset dy="2.10107"/>
<feGaussianBlur stdDeviation="1.05054"/>
<feColorMatrix type="matrix" values="0 0 0 0 0 0 0 0 0 0 0 0 0 0 0 0 0 0 0.25 0"/>
<feBlend mode="normal" in2="effect1_dropShadow_6132_115456" result="effect2_dropShadow_6132_115456"/>
<feBlend mode="normal" in="SourceGraphic" in2="effect2_dropShadow_6132_115456" result="shape"/>
</filter>
<filter id="filter6_dd_6132_115456" x="163.006" y="81.5358" width="13.4792" height="18.971" filterUnits="userSpaceOnUse" color-interpolation-filters="sRGB">
<feFlood flood-opacity="0" result="BackgroundImageFix"/>
<feColorMatrix in="SourceAlpha" type="matrix" values="0 0 0 0 0 0 0 0 0 0 0 0 0 0 0 0 0 0 127 0" result="hardAlpha"/>
<feOffset dx="0.700358"/>
<feGaussianBlur stdDeviation="0.700358"/>
<feColorMatrix type="matrix" values="0 0 0 0 0 0 0 0 0 0 0 0 0 0 0 0 0 0 0.3 0"/>
<feBlend mode="normal" in2="BackgroundImageFix" result="effect1_dropShadow_6132_115456"/>
<feColorMatrix in="SourceAlpha" type="matrix" values="0 0 0 0 0 0 0 0 0 0 0 0 0 0 0 0 0 0 127 0" result="hardAlpha"/>
<feOffset dy="2.10107"/>
<feGaussianBlur stdDeviation="1.05054"/>
<feColorMatrix type="matrix" values="0 0 0 0 0 0 0 0 0 0 0 0 0 0 0 0 0 0 0.25 0"/>
<feBlend mode="normal" in2="effect1_dropShadow_6132_115456" result="effect2_dropShadow_6132_115456"/>
<feBlend mode="normal" in="SourceGraphic" in2="effect2_dropShadow_6132_115456" result="shape"/>
</filter>
<linearGradient id="paint0_linear_6132_115456" x1="293" y1="215.888" x2="264" y2="215.888" gradientUnits="userSpaceOnUse">
<stop stop-color="#2C2E33"/>
<stop offset="1" stop-color="#2C2E33" stop-opacity="0"/>
</linearGradient>
<linearGradient id="paint1_linear_6132_115456" x1="218" y1="56" x2="131" y2="56" gradientUnits="userSpaceOnUse">
<stop stop-color="#2C2E33"/>
<stop offset="1" stop-color="#2C2E33" stop-opacity="0"/>
</linearGradient>
<linearGradient id="paint2_linear_6132_115456" x1="29" y1="61.5" x2="3.96587e-07" y2="61.5" gradientUnits="userSpaceOnUse">
<stop stop-color="#2C2E33"/>
<stop offset="1" stop-color="#2C2E33" stop-opacity="0"/>
</linearGradient>
<clipPath id="clip0_6132_115456">
<rect width="218" height="114" fill="white"/>
</clipPath>
<clipPath id="clip1_6132_115456">
<rect width="783" height="147.451" fill="white" transform="translate(0 87.6387)"/>
</clipPath>
<clipPath id="clip2_6132_115456">
<path d="M0 34.4111H783V65.2269H0V34.4111Z" fill="white"/>
</clipPath>
<clipPath id="clip3_6132_115456">
<rect width="14.0072" height="14.0072" fill="white" transform="translate(8.4043 42.8154)"/>
</clipPath>
<clipPath id="clip4_6132_115456">
<rect width="8.40429" height="8.40429" fill="white" transform="translate(42.0215 45.6172)"/>
</clipPath>
<clipPath id="clip5_6132_115456">
<rect width="8.40429" height="8.40429" fill="white" transform="translate(93.0286 45.6172)"/>
</clipPath>
<clipPath id="clip6_6132_115456">
<rect width="8.40429" height="8.40429" fill="white" transform="translate(115.44 45.6172)"/>
</clipPath>
<clipPath id="clip7_6132_115456">
<rect width="8.40429" height="8.40429" fill="white" transform="translate(189.447 45.6172)"/>
</clipPath>
<clipPath id="clip8_6132_115456">
<rect width="11.2057" height="11.2057" fill="white" transform="translate(100.014 72.5371)"/>
</clipPath>
<clipPath id="clip9_6132_115456">
<rect width="11.2057" height="11.2057" fill="white" transform="translate(100.014 72.5371)"/>
</clipPath>
<clipPath id="clip10_6132_115456">
<rect width="11.2057" height="11.2057" fill="white" transform="translate(100.014 72.5371)"/>
</clipPath>
<clipPath id="clip11_6132_115456">
<rect width="11.2057" height="11.2057" fill="white" transform="translate(100.014 92.1465)"/>
</clipPath>
<clipPath id="clip12_6132_115456">
<rect width="11.2057" height="11.2057" fill="white" transform="translate(100.014 92.1465)"/>
</clipPath>
</defs>
</svg>
