<svg width="218" height="114" viewBox="0 0 218 114" fill="none" xmlns="http://www.w3.org/2000/svg">
<g clip-path="url(#clip0_6132_115962)">
<rect width="218" height="114" fill="white"/>
<rect width="783" height="239.522" fill="#F0F1F7"/>
<g opacity="0.1" clip-path="url(#clip1_6132_115962)">
<path d="M14.2903 95.541L16.4735 89.6194H17.2039L19.3871 95.541H18.6115L18.0164 93.8462H15.6609L15.0659 95.541H14.2903ZM16.8059 90.5756L15.8784 93.2183H17.799L16.8715 90.5756H16.8059ZM21.7713 95.619C20.7864 95.619 20.1093 95.143 20.0272 94.4125H20.7577C20.8767 94.7818 21.2296 95.024 21.7959 95.024C22.3909 95.024 22.8136 94.7408 22.8136 94.3386V94.3304C22.8136 94.0309 22.5879 93.8216 22.0421 93.6903L21.3568 93.5261C20.5279 93.3291 20.1545 92.968 20.1545 92.332V92.3279C20.1545 91.5933 20.8603 91.0393 21.8 91.0393C22.7274 91.0393 23.3717 91.503 23.4702 92.2253H22.7685C22.6741 91.8764 22.3294 91.6343 21.7959 91.6343C21.2706 91.6343 20.8849 91.9052 20.8849 92.295V92.3032C20.8849 92.6028 21.1065 92.7916 21.6277 92.9188L22.3089 93.0829C23.1419 93.284 23.5441 93.6451 23.5441 94.2771V94.2853C23.5441 95.0732 22.7767 95.619 21.7713 95.619ZM26.0883 95.619C25.1035 95.619 24.4264 95.143 24.3443 94.4125H25.0747C25.1937 94.7818 25.5467 95.024 26.113 95.024C26.708 95.024 27.1307 94.7408 27.1307 94.3386V94.3304C27.1307 94.0309 26.905 93.8216 26.3592 93.6903L25.6739 93.5261C24.8449 93.3291 24.4715 92.968 24.4715 92.332V92.3279C24.4715 91.5933 25.1773 91.0393 26.1171 91.0393C27.0445 91.0393 27.6888 91.503 27.7873 92.2253H27.0855C26.9911 91.8764 26.6464 91.6343 26.113 91.6343C25.5877 91.6343 25.202 91.9052 25.202 92.295V92.3032C25.202 92.6028 25.4236 92.7916 25.9447 92.9188L26.6259 93.0829C27.459 93.284 27.8611 93.6451 27.8611 94.2771V94.2853C27.8611 95.0732 27.0937 95.619 26.0883 95.619ZM30.7747 95.619C29.5108 95.619 28.7475 94.7326 28.7475 93.3456V93.3415C28.7475 91.9749 29.5272 91.0393 30.7296 91.0393C31.932 91.0393 32.6624 91.9339 32.6624 93.2553V93.5343H29.478C29.4985 94.4494 30.0032 94.9829 30.7911 94.9829C31.3903 94.9829 31.7596 94.6998 31.8786 94.433L31.895 94.3961H32.6091L32.6009 94.4289C32.449 95.0281 31.8171 95.619 30.7747 95.619ZM30.7255 91.6754C30.0689 91.6754 29.5682 92.1227 29.4903 92.9639H31.9361C31.8622 92.0898 31.378 91.6754 30.7255 91.6754ZM35.3421 95.5738C34.4311 95.5738 34.0494 95.2373 34.0494 94.392V91.7082H33.3518V91.1173H34.0494V89.9724H34.7881V91.1173H35.7566V91.7082H34.7881V94.2114C34.7881 94.7326 34.9687 94.9419 35.4283 94.9419C35.5555 94.9419 35.6252 94.9378 35.7566 94.9255V95.5328C35.617 95.5574 35.4816 95.5738 35.3421 95.5738Z" fill="#2C2E33"/>
<rect x="8.75448" y="103.397" width="765.491" height="28.1082" rx="2.45125" fill="white"/>
<rect x="8.75448" y="103.397" width="765.491" height="28.1082" rx="2.45125" stroke="#828599" stroke-width="0.700358"/>
</g>
<g opacity="0.1">
<mask id="path-3-inside-1_6132_115962" fill="white">
<path d="M0 65.2266H783V87.638H0V65.2266Z"/>
</mask>
<path d="M0 65.9269H783V64.5262H0V65.9269Z" fill="#828599" mask="url(#path-3-inside-1_6132_115962)"/>
<path d="M9.51735 79.4316V73.5101H11.8523C13.067 73.5101 13.8221 74.2159 13.8221 75.3157V75.3239C13.8221 76.12 13.3953 76.7684 12.6731 77.0105L14.0026 79.4316H12.9398L11.7333 77.1541H10.4366V79.4316H9.51735ZM10.4366 76.4072H11.7621C12.4679 76.4072 12.8782 76.0215 12.8782 75.3485V75.3403C12.8782 74.6837 12.4433 74.2815 11.7333 74.2815H10.4366V76.4072ZM16.7685 79.5178C15.4636 79.5178 14.6756 78.6273 14.6756 77.2157V77.2116C14.6756 75.8204 15.48 74.8889 16.7234 74.8889C17.9668 74.8889 18.7301 75.7876 18.7301 77.1254V77.4373H15.5702C15.5867 78.2908 16.0545 78.7874 16.789 78.7874C17.3594 78.7874 17.7 78.5042 17.8067 78.2744L17.8232 78.2416L18.6808 78.2375L18.6726 78.2744C18.5249 78.8612 17.9093 79.5178 16.7685 79.5178ZM16.7275 75.6193C16.1201 75.6193 15.6605 76.0338 15.5826 76.8012H17.8478C17.778 76.0051 17.3307 75.6193 16.7275 75.6193ZM21.6642 79.5178C20.3633 79.5178 19.5672 78.6314 19.5672 77.191V77.1828C19.5672 75.7712 20.3592 74.8889 21.6601 74.8889C22.7804 74.8889 23.4493 75.5209 23.5724 76.3867V76.4072L22.7188 76.4113L22.7147 76.399C22.6162 75.9599 22.2551 75.6317 21.6642 75.6317C20.9214 75.6317 20.4741 76.2226 20.4741 77.1828V77.191C20.4741 78.1759 20.9296 78.7751 21.6642 78.7751C22.2223 78.7751 22.567 78.5206 22.7106 78.0405L22.7188 78.02H23.5724L23.5642 78.0569C23.4041 78.9228 22.7681 79.5178 21.6642 79.5178ZM26.4531 79.5178C25.1482 79.5178 24.3603 78.6273 24.3603 77.2157V77.2116C24.3603 75.8204 25.1646 74.8889 26.408 74.8889C27.6514 74.8889 28.4147 75.7876 28.4147 77.1254V77.4373H25.2549C25.2713 78.2908 25.7391 78.7874 26.4737 78.7874C27.0441 78.7874 27.3847 78.5042 27.4914 78.2744L27.5078 78.2416L28.3655 78.2375L28.3572 78.2744C28.2095 78.8612 27.594 79.5178 26.4531 79.5178ZM26.4121 75.6193C25.8048 75.6193 25.3452 76.0338 25.2672 76.8012H27.5324C27.4626 76.0051 27.0153 75.6193 26.4121 75.6193ZM29.4734 79.4316V74.9751H30.3639V75.6522H30.4296C30.6471 75.1761 31.0739 74.8889 31.7222 74.8889C32.7194 74.8889 33.2693 75.4839 33.2693 76.5468V79.4316H32.3829V76.7561C32.3829 76.0174 32.0752 75.6522 31.4227 75.6522C30.7702 75.6522 30.3639 76.0995 30.3639 76.8176V79.4316H29.4734ZM36.1952 79.4604C35.2145 79.4604 34.8123 79.1157 34.8123 78.258V75.6768H34.1147V74.9751H34.8123V73.8507H35.7192V74.9751H36.6754V75.6768H35.7192V78.0446C35.7192 78.5247 35.8998 78.7217 36.3389 78.7217C36.4743 78.7217 36.5523 78.7176 36.6754 78.7053V79.4152C36.5317 79.4398 36.3676 79.4604 36.1952 79.4604ZM39.6587 79.4316L41.7967 73.5101H42.7898L44.9278 79.4316H43.9594L43.4259 77.8312H41.1607L40.6231 79.4316H39.6587ZM42.2563 74.5483L41.4069 77.0926H43.1797L42.3261 74.5483H42.2563ZM47.4844 79.5178C46.1835 79.5178 45.3874 78.6314 45.3874 77.191V77.1828C45.3874 75.7712 46.1794 74.8889 47.4803 74.8889C48.6006 74.8889 49.2695 75.5209 49.3926 76.3867V76.4072L48.539 76.4113L48.5349 76.399C48.4364 75.9599 48.0753 75.6317 47.4844 75.6317C46.7416 75.6317 46.2943 76.2226 46.2943 77.1828V77.191C46.2943 78.1759 46.7498 78.7751 47.4844 78.7751C48.0425 78.7751 48.3872 78.5206 48.5308 78.0405L48.539 78.02H49.3926L49.3844 78.0569C49.2244 78.9228 48.5883 79.5178 47.4844 79.5178ZM52.1503 79.4604C51.1695 79.4604 50.7673 79.1157 50.7673 78.258V75.6768H50.0697V74.9751H50.7673V73.8507H51.6742V74.9751H52.6304V75.6768H51.6742V78.0446C51.6742 78.5247 51.8548 78.7217 52.2939 78.7217C52.4293 78.7217 52.5073 78.7176 52.6304 78.7053V79.4152C52.4868 79.4398 52.3226 79.4604 52.1503 79.4604ZM54.1323 74.179C53.8246 74.179 53.5742 73.9286 53.5742 73.625C53.5742 73.3172 53.8246 73.0669 54.1323 73.0669C54.436 73.0669 54.6904 73.3172 54.6904 73.625C54.6904 73.9286 54.436 74.179 54.1323 74.179ZM53.685 79.4316V74.9751H54.5714V79.4316H53.685ZM57.0952 79.4316L55.4824 74.9751H56.4263L57.5384 78.5288H57.6081L58.7161 74.9751H59.6517L58.0431 79.4316H57.0952ZM61.0101 74.179C60.7023 74.179 60.452 73.9286 60.452 73.625C60.452 73.3172 60.7023 73.0669 61.0101 73.0669C61.3137 73.0669 61.5682 73.3172 61.5682 73.625C61.5682 73.9286 61.3137 74.179 61.0101 74.179ZM60.5628 79.4316V74.9751H61.4491V79.4316H60.5628ZM64.4284 79.4604C63.4476 79.4604 63.0455 79.1157 63.0455 78.258V75.6768H62.3479V74.9751H63.0455V73.8507H63.9524V74.9751H64.9085V75.6768H63.9524V78.0446C63.9524 78.5247 64.1329 78.7217 64.572 78.7217C64.7075 78.7217 64.7854 78.7176 64.9085 78.7053V79.4152C64.7649 79.4398 64.6008 79.4604 64.4284 79.4604ZM66.3817 80.9992C66.2709 80.9992 66.1396 80.991 66.0247 80.9787V80.277C66.1109 80.2893 66.2217 80.2934 66.3243 80.2934C66.7388 80.2934 66.985 80.117 67.1204 79.6655L67.1861 79.4357L65.5692 74.9751H66.5295L67.6457 78.537H67.7236L68.8357 74.9751H69.7714L68.1135 79.604C67.736 80.6709 67.2846 80.9992 66.3817 80.9992Z" fill="#27282E"/>
</g>
<g clip-path="url(#clip2_6132_115962)">
<mask id="path-6-inside-2_6132_115962" fill="white">
<path d="M0 34.4121H783V65.2279H0V34.4121Z"/>
</mask>
<path d="M0 34.4121H783V65.2279H0V34.4121Z" fill="#E6E8F2"/>
<g opacity="0.35">
<g clip-path="url(#clip3_6132_115962)">
<path d="M21.212 49.7124C21.1368 48.3963 18.2038 45.5366 17.7281 45.0863C17.2524 44.636 16.4571 43.4881 16.224 43.5041C15.9786 43.5267 16.3659 45.8393 16.396 47.4938C16.4261 49.1483 16.0594 49.7199 15.9325 49.6889C15.8056 49.6579 15.3751 49.5949 15.3751 49.5949C15.3751 49.5949 14.9436 49.6569 14.8176 49.6889C14.6916 49.7208 14.3222 49.1493 14.3551 47.4938C14.388 45.8383 14.7725 43.5267 14.5252 43.5041C14.294 43.4863 13.4977 44.6322 13.0211 45.0863C12.5445 45.5403 9.61428 48.3935 9.53907 49.7124C9.47984 50.7559 9.88314 51.0567 10.7687 51.476C11.6542 51.8952 11.9316 52.0212 11.8686 52.2506C11.8056 52.48 11.235 52.5749 11.203 53.1371C11.171 53.6992 11.3064 54.5933 12.8604 55.2692C14.4143 55.9451 14.9285 56.1359 15.3751 56.1359C15.8216 56.1359 16.3358 55.9479 17.8898 55.2692C19.4437 54.5904 19.5152 53.4999 19.4879 52.9387C19.4606 52.3775 18.9502 52.48 18.8872 52.2506C18.8242 52.0212 19.1006 51.8952 19.9861 51.476C20.8717 51.0567 21.2712 50.7559 21.212 49.7124Z" fill="#4F5DA3"/>
<path d="M19.4155 52.9558C19.3845 52.4181 18.8825 52.5168 18.8195 52.2977C18.8189 52.2927 18.8189 52.2877 18.8195 52.2827L17.7516 52.0007L15.7517 51.7441C15.7517 51.7441 15.2653 52.0558 15.4099 52.0655C15.6596 52.0822 15.6763 52.3613 15.8419 52.5265C16.0075 52.6918 16.7278 53.6326 17.6867 53.6007C18.6456 53.5687 18.937 52.8702 19.2519 53.2764C19.4268 53.502 18.9699 54.5464 18.1154 54.8096C17.2609 55.0728 16.5793 55.3473 16.1356 55.4677C15.637 55.5916 15.118 55.6105 14.6117 55.5231C14.1135 55.4291 12.2973 54.9074 12.2615 54.8961C12.4496 55.0116 12.6471 55.1109 12.8519 55.1932C14.3927 55.8409 14.8994 56.0233 15.3459 56.0233C15.7925 56.0233 16.2963 55.8418 17.8353 55.1903C19.3742 54.5389 19.4465 53.4916 19.4155 52.9558Z" fill="#353F6E"/>
<path d="M12.0923 52.7133C12.0923 52.7133 12.4505 53.5819 14.1821 53.4333C14.3984 53.4148 14.432 53.1886 14.4904 53.0314C14.5849 52.7771 14.7522 52.6962 14.9141 52.527C15.0713 52.3627 15.1826 52.0986 15.4084 52.0613C15.7176 52.0101 15.7406 51.6023 15.7323 51.3172C15.7069 50.4477 14.5817 49.7031 14.5817 49.7031L12.0923 52.7133Z" fill="#353F6E"/>
<path d="M15.3177 52.3102C15.3177 52.2754 15.2792 52.2623 15.2632 52.2914C15.2049 52.392 15.1513 52.6214 15.0432 52.7173C14.9022 52.8404 14.7302 52.9937 14.7913 53.1544C14.8524 53.3152 15.0263 53.2033 15.1673 53.0924C15.2256 53.0444 15.2613 53.0172 15.2858 52.9984C15.2975 52.9893 15.307 52.9776 15.3133 52.9642C15.3197 52.9508 15.3228 52.9361 15.3224 52.9213L15.3177 52.3102Z" fill="#353F6E"/>
<path d="M15.4362 52.2887C15.4362 52.254 15.4738 52.2408 15.4907 52.2699C15.549 52.3705 15.6026 52.6008 15.7107 52.6958C15.8508 52.8189 16.0228 52.9722 15.9626 53.1329C15.9025 53.2937 15.7276 53.1828 15.5866 53.0718C15.5283 53.0239 15.4926 52.9957 15.4682 52.9778C15.4564 52.9688 15.4469 52.9571 15.4406 52.9437C15.4342 52.9303 15.4311 52.9156 15.4315 52.9007L15.4362 52.2887Z" fill="#353F6E"/>
<path d="M17.2787 53.8672C17.2728 54.0563 17.2537 54.2448 17.2214 54.4312C17.3887 54.3936 17.6849 54.215 17.7676 53.9941C17.614 53.9218 17.4482 53.8787 17.2787 53.8672Z" fill="#DFE1E5"/>
<path d="M18.8881 54.0183C18.6296 54.2317 18.2056 54.1509 17.7535 54.0305C17.694 53.9745 17.6201 53.9361 17.5401 53.9196C17.4531 53.8983 17.3632 53.8913 17.274 53.8989C17.197 53.8898 17.1213 53.8718 17.0484 53.8453C16.4975 53.5426 15.5584 53.5445 15.5584 53.5445C15.5584 53.5445 14.7433 53.5445 14.0966 53.8482C13.4761 54.1415 12.63 54.3379 12.2333 54.0183C12.1074 53.9033 12.0107 53.7599 11.9513 53.6C11.9269 53.5389 12.0039 53.4928 12.0378 53.5473C12.175 53.7683 12.3734 53.8613 12.6423 53.9093C13.3774 54.0399 14.2752 53.4336 15.5565 53.4336C16.8378 53.4336 17.8061 53.8256 18.4707 53.9093C18.7424 53.9441 18.9408 53.7683 19.0752 53.5473C19.109 53.4928 19.1861 53.5389 19.1617 53.6C19.1054 53.7594 19.0115 53.9028 18.8881 54.0183Z" fill="#353F6E"/>
<path d="M14.9802 54.1772C14.8862 54.1104 15.0742 53.9609 15.5057 53.9609C15.9053 53.9609 16.0613 54.0907 16.0397 54.149C16.0002 54.2514 15.6956 54.1264 15.4935 54.1264C15.2914 54.1264 15.0742 54.243 14.9802 54.1772Z" fill="#353F6E"/>
<path d="M14.2667 43.8027C14.2667 43.8027 12.9121 45.5814 12.2785 46.2159C11.6449 46.8505 10.341 48.5097 10.074 48.9675C9.80701 49.4253 9.46764 50.498 10.45 51.1128C9.9593 49.9179 10.9003 49.5682 11.2021 49.6237C11.5038 49.6792 11.4766 50.7593 11.4766 50.7593L11.9635 51.3967L13.7497 51.2726L14.7424 49.8258L14.3795 49.4874C14.0088 49.2 13.5662 49.0201 13.1001 48.9675C12.3274 48.8848 12.0397 48.9102 12.0397 48.9102C12.0397 48.9102 12.1497 48.1901 12.9591 48.3151C12.7241 47.9654 12.6404 46.1266 14.2667 43.8027Z" fill="#353F6E"/>
<path d="M16.8209 45.0566C16.8209 45.0566 17.0193 46.4216 17.0296 47.2367C17.04 48.0517 17.228 49.3152 16.8736 49.6489C16.5192 49.9826 17.0888 50.119 17.0888 50.119L19.2755 51.4736C19.2755 51.4736 19.8235 51.3796 20.0849 51.2057C20.3462 51.0318 20.7692 50.7413 20.8473 50.3906C20.4929 50.7516 20.1892 51.0233 19.9439 50.7253C19.6985 50.4273 19.8687 49.0068 18.9624 48.3121C19.1138 48.6308 18.9258 49.1582 18.5704 49.0961C18.2151 49.0341 17.6567 48.1918 17.5185 47.4745C17.3803 46.7572 16.8209 45.0566 16.8209 45.0566Z" fill="#353F6E"/>
<path d="M11.3233 50.2222L10.3833 49.3921C10.3017 49.3189 10.2525 49.2163 10.2465 49.1069C10.2405 48.9974 10.2782 48.89 10.3513 48.8084C10.3877 48.7676 10.4317 48.7345 10.4809 48.7109C10.5301 48.6872 10.5835 48.6735 10.638 48.6705C10.6925 48.6676 10.747 48.6754 10.7985 48.6936C10.85 48.7117 10.8973 48.7399 10.9379 48.7764L11.8639 49.5943C11.6339 49.755 11.448 49.9709 11.3233 50.2222Z" fill="#DFE1E5"/>
<path d="M15.2181 51.2734V51.281C15.2181 51.8131 15.0071 52.3236 14.6315 52.7005C14.2558 53.0774 13.746 53.29 13.2138 53.2918C13.7467 53.2881 14.2564 53.0738 14.6319 52.6957C15.0074 52.3176 15.2181 51.8063 15.2181 51.2734Z" fill="#A5AFD4"/>
<path d="M11.1964 51.2505C11.1964 51.2035 11.1964 51.1565 11.203 51.1113C11.2002 51.1574 11.1964 51.2035 11.1964 51.2505Z" fill="#A5AFD4"/>
<path d="M13.2073 53.2926C12.6739 53.2926 12.1623 53.0808 11.7851 52.7038C11.4078 52.3267 11.1957 51.8152 11.1955 51.2818V51.2715C11.1947 51.8061 11.4062 52.3192 11.7833 52.6982C12.1605 53.0771 12.6726 53.2909 13.2073 53.2926Z" fill="#A5AFD4"/>
<path d="M11.1964 51.2511C11.1964 51.2041 11.1964 51.1571 11.203 51.112C11.2262 50.8135 11.3151 50.5238 11.4635 50.2637C11.6119 50.0036 11.8161 49.7797 12.0613 49.6079C12.3965 49.3709 12.7967 49.2431 13.2073 49.2422C13.7424 49.2442 14.2548 49.4586 14.6319 49.8383C15.009 50.218 15.2198 50.732 15.2181 51.2671V51.2737C15.2181 51.8066 15.0074 52.3178 14.6319 52.6959C14.2565 53.074 13.7467 53.2883 13.2138 53.292H13.2073C12.6726 53.2903 12.1605 53.0765 11.7833 52.6976C11.4062 52.3186 11.1947 51.8055 11.1955 51.2709C11.1955 51.2615 11.1964 51.2568 11.1964 51.2511Z" fill="#DFE1E5"/>
<path d="M13.2148 52.9447C14.1223 52.9447 14.858 52.209 14.858 51.3015C14.858 50.3939 14.1223 49.6582 13.2148 49.6582C12.3072 49.6582 11.5715 50.3939 11.5715 51.3015C11.5715 52.209 12.3072 52.9447 13.2148 52.9447Z" fill="#353F6E"/>
<path d="M11.7285 50.202L14.858 50.6034L14.5403 50.202C14.5403 50.202 14.0928 49.7836 14.0637 49.7733C14.0345 49.7629 13.6058 49.5439 13.4113 49.5439C13.2167 49.5439 12.7588 49.3784 12.5652 49.4762C12.3715 49.574 11.7295 50.1474 11.7295 50.1474L11.7285 50.202Z" fill="#DFE1E5"/>
<path d="M13.6275 51.5789L15.0103 51.0628L14.5441 50.2402L12.4007 51.6663L14.3288 50.9538L13.6275 51.5789Z" fill="#DFE1E5"/>
<path d="M11.4183 50.1218C11.4183 50.1218 10.5553 49.3434 10.529 49.3152C10.502 49.2736 10.4866 49.2256 10.4841 49.1761C10.4816 49.1266 10.4922 49.0773 10.5149 49.0332C10.5703 48.9551 10.5262 49.0896 10.5666 49.1817C10.607 49.2738 11.626 49.8398 11.626 49.8398L11.4183 50.1218Z" fill="#353F6E"/>
<path d="M19.4306 50.2013L20.3481 49.3919C20.4278 49.3203 20.4759 49.22 20.4817 49.113C20.4875 49.006 20.4506 48.9011 20.3791 48.8213C20.3076 48.7418 20.2074 48.6939 20.1007 48.6881C19.9939 48.6823 19.8892 48.719 19.8094 48.7902L18.9051 49.5884C19.1287 49.7455 19.3094 49.9562 19.4306 50.2013Z" fill="#DFE1E5"/>
<path d="M15.5791 51.2734V51.281C15.5791 51.8131 15.79 52.3236 16.1657 52.7005C16.5414 53.0774 17.0512 53.29 17.5833 53.2918C17.0505 53.2881 16.5407 53.0738 16.1652 52.6957C15.7898 52.3176 15.5791 51.8063 15.5791 51.2734Z" fill="#A5AFD4"/>
<path d="M19.6008 51.2505C19.6008 51.2035 19.6008 51.1565 19.5942 51.1113C19.5979 51.1574 19.6008 51.2035 19.6008 51.2505Z" fill="#A5AFD4"/>
<path d="M17.5909 53.2926C17.8549 53.2926 18.1164 53.2406 18.3604 53.1396C18.6043 53.0385 18.826 52.8904 19.0127 52.7037C19.1994 52.517 19.3476 52.2953 19.4486 52.0513C19.5497 51.8074 19.6017 51.5459 19.6017 51.2818V51.2715C19.6027 51.806 19.3915 52.3192 19.0144 52.6981C18.6374 53.0771 18.1254 53.2909 17.5909 53.2926Z" fill="#A5AFD4"/>
<path d="M19.6007 51.2513C19.6007 51.2043 19.6007 51.1573 19.5941 51.1121C19.571 50.8136 19.482 50.5239 19.3336 50.2639C19.1852 50.0038 18.9811 49.7798 18.7358 49.608C18.4005 49.3724 18.0006 49.246 17.5908 49.2461C17.3258 49.247 17.0635 49.3 16.8189 49.4022C16.5744 49.5045 16.3524 49.6539 16.1656 49.8419C15.9787 50.0299 15.8308 50.2529 15.7302 50.4981C15.6295 50.7433 15.5782 51.006 15.5791 51.271V51.2776C15.579 51.8105 15.7897 52.3217 16.1652 52.6998C16.5407 53.0779 17.0504 53.2922 17.5833 53.2959H17.5908C18.1254 53.2942 18.6374 53.0804 19.0144 52.7014C19.3914 52.3224 19.6026 51.8093 19.6016 51.2748C19.6016 51.2616 19.6007 51.2569 19.6007 51.2513Z" fill="#DFE1E5"/>
<path d="M17.5739 52.9447C18.4815 52.9447 19.2172 52.209 19.2172 51.3015C19.2172 50.3939 18.4815 49.6582 17.5739 49.6582C16.6664 49.6582 15.9307 50.3939 15.9307 51.3015C15.9307 52.209 16.6664 52.9447 17.5739 52.9447Z" fill="#353F6E"/>
<path d="M18.9511 50.202L15.8677 50.6598L16.0557 50.2452C16.0557 50.2452 16.5868 49.7836 16.6197 49.7752C16.6526 49.7667 17.0738 49.5439 17.2684 49.5439C17.463 49.5439 17.9208 49.3784 18.1145 49.4762C18.3081 49.574 18.9502 50.1474 18.9502 50.1474L18.9511 50.202Z" fill="#DFE1E5"/>
<path d="M17.9828 51.4607L19.3657 50.9446L18.8994 50.1211L16.757 51.5481L18.6841 50.8346L17.9828 51.4607Z" fill="#DFE1E5"/>
<path d="M19.3986 50.1647C19.3986 50.1647 20.2616 49.3864 20.2879 49.3582C20.3149 49.3165 20.3303 49.2685 20.3328 49.219C20.3353 49.1695 20.3247 49.1202 20.302 49.0761C20.2466 48.9981 20.2907 49.1325 20.2494 49.2256C20.208 49.3187 19.1909 49.8837 19.1909 49.8837L19.3986 50.1647Z" fill="#353F6E"/>
</g>
</g>
<path d="M30.8157 45.2676V54.3722" stroke="#C3C6D9" stroke-width="0.700358" stroke-linecap="round"/>
<mask id="path-37-inside-3_6132_115962" fill="white">
<path d="M39.22 34.4121H104.234V65.2279H39.22V34.4121Z"/>
</mask>
<path d="M104.234 64.5275H39.22V65.9282H104.234V64.5275Z" fill="#6063F6" mask="url(#path-37-inside-3_6132_115962)"/>
<g clip-path="url(#clip4_6132_115962)">
<path d="M45.5221 50.6121L45.2368 50.9342C45.0164 51.1546 44.7356 51.3047 44.4299 51.3655C44.1243 51.4263 43.8074 51.3951 43.5195 51.2758C43.2315 51.1565 42.9854 50.9546 42.8122 50.6954C42.6391 50.4363 42.5467 50.1316 42.5467 49.8199C42.5467 49.5083 42.6391 49.2036 42.8122 48.9445C42.9854 48.6853 43.2315 48.4833 43.5195 48.3641C43.8074 48.2448 44.1243 48.2136 44.4299 48.2744C44.7356 48.3352 45.0164 48.4853 45.2368 48.7057L47.2105 50.9342C47.4308 51.1546 47.7116 51.3047 48.0173 51.3655C48.323 51.4263 48.6398 51.3951 48.9278 51.2758C49.2157 51.1565 49.4618 50.9546 49.635 50.6954C49.8081 50.4363 49.9006 50.1316 49.9006 49.8199C49.9006 49.5083 49.8081 49.2036 49.635 48.9445C49.4618 48.6853 49.2157 48.4833 48.9278 48.3641C48.6398 48.2448 48.323 48.2136 48.0173 48.2744C47.7116 48.3352 47.4308 48.4853 47.2105 48.7057L46.9252 49.0278" stroke="#2C2E33" stroke-width="0.700358" stroke-linecap="round" stroke-linejoin="round"/>
</g>
<path d="M54.0452 52.8203V46.4053H54.9743L57.1704 51.7578H57.2416L59.4377 46.4053H60.3669V52.8203H59.62V47.9212H59.5711L57.5439 52.8203H56.8681L54.8409 47.9212H54.792V52.8203H54.0452ZM63.7678 52.8203V50.0596L61.4916 46.4053H62.403L64.1323 49.2549H64.2034L65.9328 46.4053H66.8441L64.568 50.0596V52.8203H63.7678ZM66.3507 53.9851V53.2649H71.6632V53.9851H66.3507ZM72.4856 52.8203V46.4053H76.46V47.1255H73.2859V49.1838H76.2955V49.8951H73.2859V52.1001H76.46V52.8203H72.4856ZM77.9093 52.8203V46.4053H78.6873L82.1682 51.3977H82.2394V46.4053H83.0307V52.8203H82.2527L78.7718 47.8457H78.7006V52.8203H77.9093ZM86.5205 52.8203L84.1554 46.4053H84.9956L86.8806 51.7845H86.9517L88.8367 46.4053H89.6769L87.3118 52.8203H86.5205Z" fill="#27282E"/>
<g clip-path="url(#clip5_6132_115962)">
<path d="M97.2308 50.2137C97.4483 50.2137 97.6247 50.0373 97.6247 49.8197C97.6247 49.6022 97.4483 49.4258 97.2308 49.4258C97.0132 49.4258 96.8368 49.6022 96.8368 49.8197C96.8368 50.0373 97.0132 50.2137 97.2308 50.2137Z" fill="#2C2E33"/>
<path d="M97.2308 47.9813C97.4483 47.9813 97.6247 47.8049 97.6247 47.5873C97.6247 47.3697 97.4483 47.1934 97.2308 47.1934C97.0132 47.1934 96.8368 47.3697 96.8368 47.5873C96.8368 47.8049 97.0132 47.9813 97.2308 47.9813Z" fill="#2C2E33"/>
<path d="M97.2308 52.4461C97.4483 52.4461 97.6247 52.2697 97.6247 52.0522C97.6247 51.8346 97.4483 51.6582 97.2308 51.6582C97.0132 51.6582 96.8368 51.8346 96.8368 52.0522C96.8368 52.2697 97.0132 52.4461 97.2308 52.4461Z" fill="#2C2E33"/>
</g>
<g opacity="0.1">
<g clip-path="url(#clip6_6132_115962)">
<path d="M118.941 50.6121L118.655 50.9342C118.435 51.1546 118.154 51.3047 117.849 51.3655C117.543 51.4263 117.226 51.3951 116.938 51.2758C116.65 51.1565 116.404 50.9546 116.231 50.6954C116.058 50.4363 115.965 50.1316 115.965 49.8199C115.965 49.5083 116.058 49.2036 116.231 48.9445C116.404 48.6853 116.65 48.4833 116.938 48.3641C117.226 48.2448 117.543 48.2136 117.849 48.2744C118.154 48.3352 118.435 48.4853 118.655 48.7057L120.629 50.9342C120.849 51.1546 121.13 51.3047 121.436 51.3655C121.742 51.4263 122.058 51.3951 122.346 51.2758C122.634 51.1565 122.88 50.9546 123.054 50.6954C123.227 50.4363 123.319 50.1316 123.319 49.8199C123.319 49.5083 123.227 49.2036 123.054 48.9445C122.88 48.6853 122.634 48.4833 122.346 48.3641C122.058 48.2448 121.742 48.2136 121.436 48.2744C121.13 48.3352 120.849 48.4853 120.629 48.7057L120.344 49.0278" stroke="#4C4E59" stroke-width="0.700358" stroke-linecap="round" stroke-linejoin="round"/>
</g>
<path d="M129.567 52.9715C128.162 52.9715 127.255 52.2335 127.162 51.1888L127.157 51.1399H127.957L127.962 51.1888C128.02 51.8289 128.686 52.2335 129.611 52.2335C130.482 52.2335 131.118 51.7845 131.118 51.131V51.1265C131.118 50.5931 130.749 50.2285 129.869 50.0329L129.158 49.8773C127.873 49.5928 127.317 49.0015 127.317 48.0724V48.0679C127.322 47.0054 128.251 46.2541 129.575 46.2541C130.856 46.2541 131.749 47.0099 131.816 47.9657L131.821 48.0279H131.02L131.011 47.9701C130.923 47.4055 130.389 46.9876 129.553 46.9921C128.753 46.9965 128.135 47.3744 128.135 48.0457V48.0502C128.135 48.5614 128.486 48.9082 129.358 49.0993L130.069 49.2594C131.407 49.5572 131.936 50.0951 131.936 51.0198V51.0243C131.936 52.2246 130.998 52.9715 129.567 52.9715ZM132.759 52.8203L135.124 46.4053H135.915L138.28 52.8203H137.44L136.795 50.9843H134.243L133.599 52.8203H132.759ZM135.484 47.4411L134.479 50.3041H136.56L135.555 47.4411H135.484ZM139.405 52.8203V46.4053H140.334L142.53 51.7578H142.601L144.797 46.4053H145.726V52.8203H144.98V47.9212H144.931L142.903 52.8203H142.228L140.201 47.9212H140.152V52.8203H139.405ZM147.362 52.8203V46.4053H149.781C150.986 46.4053 151.839 47.2366 151.839 48.4547V48.4636C151.839 49.6817 150.986 50.5308 149.781 50.5308H148.163V52.8203H147.362ZM149.576 47.1166H148.163V49.8195H149.576C150.492 49.8195 151.021 49.3172 151.021 48.4725V48.4636C151.021 47.6189 150.492 47.1166 149.576 47.1166ZM153.151 52.8203V46.4053H153.951V52.1001H157.045V52.8203H153.151ZM158.325 52.8203V46.4053H162.3V47.1255H159.126V49.1838H162.135V49.8951H159.126V52.1001H162.3V52.8203H158.325ZM162.931 53.9851V53.2649H168.244V53.9851H162.931ZM169.066 52.8203V46.4053H173.04V47.1255H169.866V49.1838H172.876V49.8951H169.866V52.1001H173.04V52.8203H169.066ZM174.49 52.8203V46.4053H175.268L178.749 51.3977H178.82V46.4053H179.611V52.8203H178.833L175.352 47.8457H175.281V52.8203H174.49ZM183.101 52.8203L180.736 46.4053H181.576L183.461 51.7845H183.532L185.417 46.4053H186.257L183.892 52.8203H183.101Z" fill="#828599"/>
<g clip-path="url(#clip7_6132_115962)">
<path d="M193.649 50.2137C193.867 50.2137 194.043 50.0373 194.043 49.8197C194.043 49.6022 193.867 49.4258 193.649 49.4258C193.432 49.4258 193.255 49.6022 193.255 49.8197C193.255 50.0373 193.432 50.2137 193.649 50.2137Z" fill="#828599"/>
<path d="M193.649 47.9813C193.867 47.9813 194.043 47.8049 194.043 47.5873C194.043 47.3697 193.867 47.1934 193.649 47.1934C193.432 47.1934 193.255 47.3697 193.255 47.5873C193.255 47.8049 193.432 47.9813 193.649 47.9813Z" fill="#828599"/>
<path d="M193.649 52.4461C193.867 52.4461 194.043 52.2697 194.043 52.0522C194.043 51.8346 193.867 51.6582 193.649 51.6582C193.432 51.6582 193.255 51.8346 193.255 52.0522C193.255 52.2697 193.432 52.4461 193.649 52.4461Z" fill="#828599"/>
</g>
</g>
</g>
<path d="M0 35.1125H783V33.7118H0V35.1125Z" fill="#C3C6D9" mask="url(#path-6-inside-2_6132_115962)"/>
<g opacity="0.1">
<rect width="783" height="34.4114" fill="#E6E8F2"/>
<path d="M11.9608 20.3651C10.0803 20.3651 8.92444 19.0626 8.92444 16.9998V16.9909C8.92444 14.9237 10.0981 13.63 11.9608 13.63C13.828 13.63 14.9927 14.9237 14.9927 16.9909V16.9998C14.9927 19.0626 13.8324 20.3651 11.9608 20.3651ZM11.9608 19.3737C13.1033 19.3737 13.8235 18.4402 13.8235 16.9998V16.9909C13.8235 15.5416 13.0989 14.6214 11.9608 14.6214C10.8227 14.6214 10.0936 15.5416 10.0936 16.9909V16.9998C10.0936 18.4402 10.8049 19.3737 11.9608 19.3737ZM18.896 20.2851C18.2158 20.2851 17.6868 19.9739 17.42 19.4449H17.3445V20.2051H16.2375V13.4655H17.3445V16.1195H17.42C17.6734 15.595 18.2291 15.266 18.896 15.266C20.1274 15.266 20.8921 16.2262 20.8921 17.7733V17.7822C20.8921 19.3204 20.1141 20.2851 18.896 20.2851ZM18.5492 19.3515C19.305 19.3515 19.7629 18.7602 19.7629 17.7822V17.7733C19.7629 16.7953 19.305 16.1996 18.5492 16.1996C17.7979 16.1996 17.3311 16.7997 17.3311 17.7733V17.7822C17.3311 18.7558 17.7979 19.3515 18.5492 19.3515ZM23.8351 20.3029C22.5992 20.3029 21.8523 19.7338 21.759 18.9114V18.9025H22.857L22.8615 18.9114C22.9771 19.2493 23.3016 19.4849 23.8529 19.4849C24.4041 19.4849 24.7864 19.2359 24.7864 18.8714V18.8625C24.7864 18.578 24.5731 18.3913 24.0396 18.2712L23.2527 18.0934C22.328 17.8889 21.8879 17.4532 21.8879 16.7375V16.733C21.8879 15.8573 22.6881 15.2526 23.8351 15.2526C25.0176 15.2526 25.7245 15.8395 25.7956 16.6263V16.6352H24.7553L24.7509 16.6219C24.6709 16.3152 24.3508 16.0662 23.8306 16.0662C23.3372 16.0662 22.9815 16.3063 22.9815 16.6708V16.6752C22.9815 16.9598 23.186 17.1331 23.7106 17.2532L24.4975 17.4266C25.4488 17.6399 25.8979 18.0445 25.8979 18.7514V18.7602C25.8979 19.6849 25.031 20.3029 23.8351 20.3029ZM29.0943 20.3029C27.6494 20.3029 26.7736 19.3337 26.7736 17.7867V17.7822C26.7736 16.2529 27.6583 15.2526 29.0409 15.2526C30.4235 15.2526 31.2771 16.2218 31.2771 17.6889V18.0534H27.8806C27.8939 18.9247 28.3652 19.4315 29.1165 19.4315C29.7166 19.4315 30.059 19.1292 30.1657 18.907L30.179 18.8758H31.2326L31.2193 18.9158C31.0637 19.5427 30.4146 20.3029 29.0943 20.3029ZM29.0543 16.1195C28.4363 16.1195 27.974 16.5374 27.8895 17.311H30.1968C30.1212 16.5152 29.6722 16.1195 29.0543 16.1195ZM32.384 20.2051V15.346H33.491V16.0929H33.5666C33.7311 15.5727 34.1756 15.266 34.8158 15.266C34.9847 15.266 35.1581 15.2882 35.2648 15.3193V16.3107C35.087 16.2751 34.9047 16.2485 34.7135 16.2485C33.9756 16.2485 33.491 16.6886 33.491 17.3821V20.2051H32.384ZM37.5499 20.2051L35.8205 15.346H37.003L38.1278 19.1248H38.2034L39.3192 15.346H40.484L38.7635 20.2051H37.5499ZM42.5734 20.2851C41.6487 20.2851 40.9774 19.7161 40.9774 18.8314V18.8225C40.9774 17.9556 41.6398 17.4488 42.8224 17.3777L44.0716 17.3021V16.8842C44.0716 16.3996 43.756 16.1329 43.1602 16.1329C42.6534 16.1329 42.3245 16.3152 42.2133 16.6352L42.2089 16.653H41.1641L41.1686 16.613C41.2753 15.795 42.0577 15.2526 43.2136 15.2526C44.4628 15.2526 45.1652 15.8573 45.1652 16.8842V20.2051H44.0716V19.5382H43.996C43.7293 20.0095 43.2136 20.2851 42.5734 20.2851ZM42.0711 18.778C42.0711 19.1915 42.4223 19.436 42.9113 19.436C43.5781 19.436 44.0716 19.0003 44.0716 18.4224V18.0312L42.978 18.1023C42.36 18.1423 42.0711 18.369 42.0711 18.7691V18.778ZM49.1974 20.2851C48.5172 20.2851 47.9882 19.9739 47.7215 19.4449H47.6459V20.2051H46.5389V13.4655H47.6459V16.1195H47.7215C47.9749 15.595 48.5306 15.266 49.1974 15.266C50.4288 15.266 51.1935 16.2262 51.1935 17.7733V17.7822C51.1935 19.3204 50.4155 20.2851 49.1974 20.2851ZM48.8506 19.3515C49.6064 19.3515 50.0643 18.7602 50.0643 17.7822V17.7733C50.0643 16.7953 49.6064 16.1996 48.8506 16.1996C48.0993 16.1996 47.6325 16.7997 47.6325 17.7733V17.7822C47.6325 18.7558 48.0993 19.3515 48.8506 19.3515ZM52.8695 14.5325C52.505 14.5325 52.2071 14.2435 52.2071 13.8789C52.2071 13.5188 52.505 13.2254 52.8695 13.2254C53.2296 13.2254 53.5274 13.5188 53.5274 13.8789C53.5274 14.2435 53.2296 14.5325 52.8695 14.5325ZM52.3138 20.2051V15.346H53.4208V20.2051H52.3138ZM54.8256 20.2051V13.4655H55.9325V20.2051H54.8256ZM57.9019 14.5325C57.5374 14.5325 57.2396 14.2435 57.2396 13.8789C57.2396 13.5188 57.5374 13.2254 57.9019 13.2254C58.262 13.2254 58.5599 13.5188 58.5599 13.8789C58.5599 14.2435 58.262 14.5325 57.9019 14.5325ZM57.3462 20.2051V15.346H58.4532V20.2051H57.3462ZM61.7252 20.2273C60.6093 20.2273 60.1514 19.8539 60.1514 18.9158V16.204H59.3957V15.346H60.1514V14.1546H61.2762V15.346H62.3031V16.204H61.2762V18.6536C61.2762 19.1381 61.4673 19.3426 61.9297 19.3426C62.0853 19.3426 62.1698 19.3382 62.3031 19.3248V20.1784C62.1431 20.2095 61.9386 20.2273 61.7252 20.2273ZM63.9258 21.9122C63.7924 21.9122 63.6368 21.9078 63.5034 21.8944V21.0453C63.5924 21.0542 63.7168 21.0586 63.8324 21.0586C64.2859 21.0586 64.5571 20.8719 64.6771 20.4318L64.7349 20.2095L62.9966 15.346H64.2059L65.3395 19.1426H65.424L66.5531 15.346H67.7179L65.9752 20.3073C65.5573 21.5254 65.0016 21.9122 63.9258 21.9122Z" fill="#27282E"/>
</g>
<rect x="264" y="86" width="29" height="264" transform="rotate(90 264 86)" fill="url(#paint0_linear_6132_115962)"/>
<rect x="131" y="-5.5" width="87" height="125" fill="url(#paint1_linear_6132_115962)"/>
<rect width="29" height="125" transform="matrix(-1 0 0 1 29 -5)" fill="url(#paint2_linear_6132_115962)"/>
<g filter="url(#filter0_dd_6132_115962)">
<path d="M104.431 60.0472L97.8991 53.7852V62.7868L99.8784 60.6342L101.822 64.478C101.842 64.5167 101.889 64.5323 101.928 64.513L102.974 63.9959C103.014 63.9766 103.029 63.9296 103.01 63.8909L101.066 60.0472H104.431Z" fill="black"/>
</g>
<g filter="url(#filter1_dd_6132_115962)">
<path fill-rule="evenodd" clip-rule="evenodd" d="M106.384 60.8297L97.1074 51.9355V64.8112L99.687 62.0058L101.114 64.8278C101.329 65.2531 101.852 65.4255 102.283 65.2129L103.328 64.6958C103.759 64.4832 103.933 63.966 103.718 63.5406L102.347 60.8297H106.384ZM103.01 63.8907C103.029 63.9294 103.014 63.9764 102.974 63.9957L101.928 64.5128C101.889 64.5321 101.842 64.5164 101.822 64.4778L99.8784 60.634L97.8991 62.7866V53.7849L104.431 60.0469H101.066L103.01 63.8907Z" fill="white"/>
</g>
<g filter="url(#filter2_d_6132_115962)">
<rect x="91.6093" y="66.9336" width="87.5447" height="22.4114" rx="2.80143" fill="#F0F1F7" shape-rendering="crispEdges"/>
<g clip-path="url(#clip8_6132_115962)">
<g clip-path="url(#clip9_6132_115962)">
<path d="M109.468 74.9863H101.764" stroke="#2C2E33" stroke-width="0.700358" stroke-linecap="round" stroke-linejoin="round"/>
<path d="M104.566 77.0879V79.8893" stroke="#2C2E33" stroke-width="0.700358" stroke-linecap="round" stroke-linejoin="round"/>
<path d="M106.667 77.0879V79.8893" stroke="#2C2E33" stroke-width="0.700358" stroke-linecap="round" stroke-linejoin="round"/>
<path d="M108.768 74.9863V81.6397C108.768 81.7326 108.731 81.8217 108.665 81.8873C108.6 81.953 108.511 81.9899 108.418 81.9899H102.815C102.722 81.9899 102.633 81.953 102.567 81.8873C102.502 81.8217 102.465 81.7326 102.465 81.6397V74.9863" stroke="#2C2E33" stroke-width="0.700358" stroke-linecap="round" stroke-linejoin="round"/>
<path d="M107.367 74.9867V74.2863C107.367 74.1005 107.294 73.9224 107.162 73.7911C107.031 73.6597 106.853 73.5859 106.667 73.5859H104.566C104.38 73.5859 104.202 73.6597 104.071 73.7911C103.939 73.9224 103.866 74.1005 103.866 74.2863V74.9867" stroke="#2C2E33" stroke-width="0.700358" stroke-linecap="round" stroke-linejoin="round"/>
</g>
</g>
<path d="M117.64 81.1387V74.7236H119.841C121.743 74.7236 122.868 75.9106 122.868 77.9245V77.9334C122.868 79.9517 121.748 81.1387 119.841 81.1387H117.64ZM118.44 80.4185H119.787C121.219 80.4185 122.05 79.5027 122.05 77.9423V77.9334C122.05 76.3685 121.21 75.4438 119.787 75.4438H118.44V80.4185ZM126.114 81.2231C124.744 81.2231 123.917 80.2629 123.917 78.7603V78.7558C123.917 77.2754 124.762 76.2618 126.065 76.2618C127.367 76.2618 128.159 77.231 128.159 78.6625V78.9648H124.709C124.731 79.9561 125.278 80.5341 126.131 80.5341C126.78 80.5341 127.18 80.2273 127.309 79.9384L127.327 79.8983H128.101L128.092 79.9339C127.927 80.583 127.243 81.2231 126.114 81.2231ZM126.06 76.9509C125.349 76.9509 124.806 77.4355 124.722 78.3468H127.372C127.292 77.3999 126.767 76.9509 126.06 76.9509ZM129.403 81.1387V74.4436H130.177V81.1387H129.403ZM133.618 81.2231C132.248 81.2231 131.422 80.2629 131.422 78.7603V78.7558C131.422 77.2754 132.266 76.2618 133.569 76.2618C134.871 76.2618 135.663 77.231 135.663 78.6625V78.9648H132.213C132.235 79.9561 132.782 80.5341 133.636 80.5341C134.285 80.5341 134.685 80.2273 134.814 79.9384L134.831 79.8983H135.605L135.596 79.9339C135.432 80.583 134.747 81.2231 133.618 81.2231ZM133.564 76.9509C132.853 76.9509 132.311 77.4355 132.226 78.3468H134.876C134.796 77.3999 134.271 76.9509 133.564 76.9509ZM138.566 81.1742C137.579 81.1742 137.165 80.8097 137.165 79.8939V76.9865H136.41V76.3463H137.165V75.106H137.966V76.3463H139.015V76.9865H137.966V79.6983C137.966 80.2629 138.161 80.4896 138.659 80.4896C138.797 80.4896 138.872 80.4852 139.015 80.4718V81.1298C138.864 81.1565 138.717 81.1742 138.566 81.1742ZM142.056 81.2231C140.686 81.2231 139.859 80.2629 139.859 78.7603V78.7558C139.859 77.2754 140.704 76.2618 142.007 76.2618C143.309 76.2618 144.101 77.231 144.101 78.6625V78.9648H140.651C140.673 79.9561 141.22 80.5341 142.073 80.5341C142.722 80.5341 143.122 80.2273 143.251 79.9384L143.269 79.8983H144.043L144.034 79.9339C143.869 80.583 143.185 81.2231 142.056 81.2231ZM142.002 76.9509C141.291 76.9509 140.749 77.4355 140.664 78.3468H143.314C143.234 77.3999 142.709 76.9509 142.002 76.9509Z" fill="#27282E"/>
</g>
<g filter="url(#filter3_d_6132_115962)">
<rect x="91.6093" y="66.9336" width="90.6172" height="42.0215" rx="2.80143" fill="#F0F1F7" shape-rendering="crispEdges"/>
<rect x="94.4107" y="69.7344" width="85.0143" height="16.8086" rx="1.40072" fill="#D3D6E5"/>
<g clip-path="url(#clip10_6132_115962)">
<path d="M104.566 78.0919C104.286 77.5853 104.17 77.0044 104.233 76.4291C104.297 75.8538 104.537 75.3124 104.921 74.8792C105.305 74.4459 105.814 74.1423 106.377 74.0098C106.94 73.8774 107.531 73.9228 108.068 74.1397L106.317 76.0372L106.565 77.1902L107.717 77.4379L109.615 75.687C109.832 76.2237 109.877 76.8143 109.745 77.3777C109.612 77.9412 109.309 78.4498 108.876 78.8336C108.442 79.2175 107.901 79.4577 107.326 79.5213C106.75 79.5849 106.169 79.4688 105.663 79.1888L103.209 82.034C103.012 82.2314 102.744 82.3423 102.465 82.3423C102.186 82.3423 101.918 82.2314 101.721 82.034C101.523 81.8367 101.412 81.569 101.412 81.2899C101.412 81.0108 101.523 80.7431 101.721 80.5458L104.566 78.0919Z" stroke="#2C2E33" stroke-width="0.700358" stroke-linecap="round" stroke-linejoin="round"/>
</g>
<path d="M117.64 81.1387V74.7236H118.44V77.4977H121.961V74.7236H122.762V81.1387H121.961V78.2179H118.44V81.1387H117.64ZM126.269 81.2231C124.904 81.2231 124.06 80.2807 124.06 78.7469V78.738C124.06 77.1998 124.904 76.2618 126.269 76.2618C127.634 76.2618 128.479 77.1998 128.479 78.738V78.7469C128.479 80.2807 127.634 81.2231 126.269 81.2231ZM126.269 80.5385C127.176 80.5385 127.687 79.8761 127.687 78.7469V78.738C127.687 77.6044 127.176 76.9464 126.269 76.9464C125.362 76.9464 124.851 77.6044 124.851 78.738V78.7469C124.851 79.8761 125.362 80.5385 126.269 80.5385ZM130.426 81.1387L129.083 76.3463H129.857L130.799 80.1784H130.87L131.942 76.3463H132.675L133.747 80.1784H133.818L134.76 76.3463H135.529L134.187 81.1387H133.409L132.337 77.431H132.266L131.199 81.1387H130.426ZM140.815 81.1742C139.828 81.1742 139.415 80.8097 139.415 79.8939V76.9865H138.659V76.3463H139.415V75.106H140.215V76.3463H141.264V76.9865H140.215V79.6983C140.215 80.2629 140.411 80.4896 140.909 80.4896C141.046 80.4896 141.122 80.4852 141.264 80.4718V81.1298C141.113 81.1565 140.966 81.1742 140.815 81.1742ZM144.318 81.2231C142.954 81.2231 142.109 80.2807 142.109 78.7469V78.738C142.109 77.1998 142.954 76.2618 144.318 76.2618C145.683 76.2618 146.528 77.1998 146.528 78.738V78.7469C146.528 80.2807 145.683 81.2231 144.318 81.2231ZM144.318 80.5385C145.225 80.5385 145.737 79.8761 145.737 78.7469V78.738C145.737 77.6044 145.225 76.9464 144.318 76.9464C143.411 76.9464 142.9 77.6044 142.9 78.738V78.7469C142.9 79.8761 143.411 80.5385 144.318 80.5385ZM151.934 81.2231C150.867 81.2231 150.133 80.7074 150.044 79.9161H150.836C150.965 80.3162 151.347 80.5785 151.96 80.5785C152.605 80.5785 153.063 80.2718 153.063 79.8361V79.8272C153.063 79.5027 152.818 79.276 152.227 79.1337L151.485 78.9559C150.587 78.7425 150.182 78.3513 150.182 77.6622V77.6577C150.182 76.862 150.947 76.2618 151.965 76.2618C152.97 76.2618 153.668 76.7642 153.774 77.5466H153.014C152.912 77.1687 152.538 76.9064 151.96 76.9064C151.391 76.9064 150.973 77.1998 150.973 77.6222V77.6311C150.973 77.9556 151.214 78.1601 151.778 78.2979L152.516 78.4757C153.419 78.6936 153.854 79.0848 153.854 79.7694V79.7783C153.854 80.6319 153.023 81.2231 151.934 81.2231ZM157.011 81.2231C155.641 81.2231 154.815 80.2629 154.815 78.7603V78.7558C154.815 77.2754 155.659 76.2618 156.962 76.2618C158.264 76.2618 159.056 77.231 159.056 78.6625V78.9648H155.606C155.628 79.9561 156.175 80.5341 157.028 80.5341C157.677 80.5341 158.078 80.2273 158.207 79.9384L158.224 79.8983H158.998L158.989 79.9339C158.824 80.583 158.14 81.2231 157.011 81.2231ZM156.957 76.9509C156.246 76.9509 155.704 77.4355 155.619 78.3468H158.269C158.189 77.3999 157.664 76.9509 156.957 76.9509ZM161.959 81.1742C160.972 81.1742 160.558 80.8097 160.558 79.8939V76.9865H159.803V76.3463H160.558V75.106H161.358V76.3463H162.408V76.9865H161.358V79.6983C161.358 80.2629 161.554 80.4896 162.052 80.4896C162.19 80.4896 162.265 80.4852 162.408 80.4718V81.1298C162.256 81.1565 162.11 81.1742 161.959 81.1742ZM165.168 81.2231C164.079 81.2231 163.519 80.583 163.519 79.4493V76.3463H164.293V79.2626C164.293 80.1251 164.604 80.5385 165.368 80.5385C166.213 80.5385 166.662 80.0228 166.662 79.1826V76.3463H167.436V81.1387H166.662V80.4229H166.591C166.355 80.9342 165.871 81.2231 165.168 81.2231ZM168.88 82.7391V76.3463H169.654V77.1109H169.725C170.019 76.5775 170.552 76.2618 171.219 76.2618C172.433 76.2618 173.228 77.2443 173.228 78.738V78.7469C173.228 80.2495 172.437 81.2231 171.219 81.2231C170.561 81.2231 169.987 80.8942 169.725 80.3829H169.654V82.7391H168.88ZM171.041 80.5385C171.917 80.5385 172.437 79.8628 172.437 78.7469V78.738C172.437 77.6222 171.917 76.9464 171.041 76.9464C170.17 76.9464 169.636 77.6311 169.636 78.738V78.7469C169.636 79.8539 170.17 80.5385 171.041 80.5385Z" fill="#27282E"/>
<g opacity="0.35">
<g clip-path="url(#clip11_6132_115962)">
<g clip-path="url(#clip12_6132_115962)">
<path d="M109.468 94.5977H101.764" stroke="#828599" stroke-width="0.700358" stroke-linecap="round" stroke-linejoin="round"/>
<path d="M104.566 96.6992V99.5006" stroke="#828599" stroke-width="0.700358" stroke-linecap="round" stroke-linejoin="round"/>
<path d="M106.667 96.6992V99.5006" stroke="#828599" stroke-width="0.700358" stroke-linecap="round" stroke-linejoin="round"/>
<path d="M108.768 94.5977V101.251C108.768 101.344 108.731 101.433 108.665 101.499C108.6 101.564 108.511 101.601 108.418 101.601H102.815C102.722 101.601 102.633 101.564 102.567 101.499C102.502 101.433 102.465 101.344 102.465 101.251V94.5977" stroke="#828599" stroke-width="0.700358" stroke-linecap="round" stroke-linejoin="round"/>
<path d="M107.367 94.598V93.8976C107.367 93.7119 107.294 93.5337 107.162 93.4024C107.031 93.2711 106.853 93.1973 106.667 93.1973H104.566C104.38 93.1973 104.202 93.2711 104.071 93.4024C103.939 93.5337 103.866 93.7119 103.866 93.8976V94.598" stroke="#828599" stroke-width="0.700358" stroke-linecap="round" stroke-linejoin="round"/>
</g>
</g>
<path d="M117.64 100.75V94.335H119.841C121.743 94.335 122.868 95.5219 122.868 97.5358V97.5447C122.868 99.563 121.748 100.75 119.841 100.75H117.64ZM118.44 100.03H119.787C121.219 100.03 122.05 99.114 122.05 97.5536V97.5447C122.05 95.9798 121.21 95.0551 119.787 95.0551H118.44V100.03ZM126.114 100.834C124.744 100.834 123.917 99.8742 123.917 98.3716V98.3671C123.917 96.8867 124.762 95.8731 126.065 95.8731C127.367 95.8731 128.159 96.8423 128.159 98.2738V98.5761H124.709C124.731 99.5675 125.278 100.145 126.131 100.145C126.78 100.145 127.18 99.8386 127.309 99.5497L127.327 99.5097H128.101L128.092 99.5452C127.927 100.194 127.243 100.834 126.114 100.834ZM126.06 96.5622C125.349 96.5622 124.806 97.0468 124.722 97.9581H127.372C127.292 97.0112 126.767 96.5622 126.06 96.5622ZM129.403 100.75V94.0549H130.177V100.75H129.403ZM133.618 100.834C132.248 100.834 131.422 99.8742 131.422 98.3716V98.3671C131.422 96.8867 132.266 95.8731 133.569 95.8731C134.871 95.8731 135.663 96.8423 135.663 98.2738V98.5761H132.213C132.235 99.5675 132.782 100.145 133.636 100.145C134.285 100.145 134.685 99.8386 134.814 99.5497L134.831 99.5097H135.605L135.596 99.5452C135.432 100.194 134.747 100.834 133.618 100.834ZM133.564 96.5622C132.853 96.5622 132.311 97.0468 132.226 97.9581H134.876C134.796 97.0112 134.271 96.5622 133.564 96.5622ZM138.566 100.786C137.579 100.786 137.165 100.421 137.165 99.5052V96.5978H136.41V95.9576H137.165V94.7173H137.966V95.9576H139.015V96.5978H137.966V99.3096C137.966 99.8742 138.161 100.101 138.659 100.101C138.797 100.101 138.872 100.096 139.015 100.083V100.741C138.864 100.768 138.717 100.786 138.566 100.786ZM142.056 100.834C140.686 100.834 139.859 99.8742 139.859 98.3716V98.3671C139.859 96.8867 140.704 95.8731 142.007 95.8731C143.309 95.8731 144.101 96.8423 144.101 98.2738V98.5761H140.651C140.673 99.5675 141.22 100.145 142.073 100.145C142.722 100.145 143.122 99.8386 143.251 99.5497L143.269 99.5097H144.043L144.034 99.5452C143.869 100.194 143.185 100.834 142.056 100.834ZM142.002 96.5622C141.291 96.5622 140.749 97.0468 140.664 97.9581H143.314C143.234 97.0112 142.709 96.5622 142.002 96.5622Z" fill="#27282E"/>
</g>
</g>
<g filter="url(#filter4_dd_6132_115962)">
<path d="M172.431 91.0472L165.899 84.7852V93.7868L167.878 91.6342L169.822 95.478C169.842 95.5167 169.889 95.5323 169.928 95.513L170.974 94.9959C171.014 94.9766 171.029 94.9296 171.01 94.8909L169.066 91.0472H172.431Z" fill="black"/>
</g>
<g filter="url(#filter5_dd_6132_115962)">
<path fill-rule="evenodd" clip-rule="evenodd" d="M174.384 91.8297L165.107 82.9355V95.8112L167.687 93.0058L169.114 95.8278C169.329 96.2531 169.852 96.4255 170.283 96.2129L171.328 95.6958C171.759 95.4832 171.933 94.966 171.718 94.5406L170.347 91.8297H174.384ZM171.01 94.8907C171.029 94.9294 171.014 94.9764 170.974 94.9957L169.928 95.5128C169.889 95.5321 169.842 95.5164 169.822 95.4778L167.878 91.634L165.899 93.7866V84.7849L172.431 91.0469H169.066L171.01 94.8907Z" fill="white"/>
</g>
</g>
<defs>
<filter id="filter0_dd_6132_115962" x="95.7981" y="52.3844" width="10.7337" height="16.3392" filterUnits="userSpaceOnUse" color-interpolation-filters="sRGB">
<feFlood flood-opacity="0" result="BackgroundImageFix"/>
<feColorMatrix in="SourceAlpha" type="matrix" values="0 0 0 0 0 0 0 0 0 0 0 0 0 0 0 0 0 0 127 0" result="hardAlpha"/>
<feOffset dx="0.700358"/>
<feGaussianBlur stdDeviation="0.700358"/>
<feColorMatrix type="matrix" values="0 0 0 0 0 0 0 0 0 0 0 0 0 0 0 0 0 0 0.3 0"/>
<feBlend mode="normal" in2="BackgroundImageFix" result="effect1_dropShadow_6132_115962"/>
<feColorMatrix in="SourceAlpha" type="matrix" values="0 0 0 0 0 0 0 0 0 0 0 0 0 0 0 0 0 0 127 0" result="hardAlpha"/>
<feOffset dy="2.10107"/>
<feGaussianBlur stdDeviation="1.05054"/>
<feColorMatrix type="matrix" values="0 0 0 0 0 0 0 0 0 0 0 0 0 0 0 0 0 0 0.25 0"/>
<feBlend mode="normal" in2="effect1_dropShadow_6132_115962" result="effect2_dropShadow_6132_115962"/>
<feBlend mode="normal" in="SourceGraphic" in2="effect2_dropShadow_6132_115962" result="shape"/>
</filter>
<filter id="filter1_dd_6132_115962" x="95.0063" y="50.5348" width="13.4792" height="18.972" filterUnits="userSpaceOnUse" color-interpolation-filters="sRGB">
<feFlood flood-opacity="0" result="BackgroundImageFix"/>
<feColorMatrix in="SourceAlpha" type="matrix" values="0 0 0 0 0 0 0 0 0 0 0 0 0 0 0 0 0 0 127 0" result="hardAlpha"/>
<feOffset dx="0.700358"/>
<feGaussianBlur stdDeviation="0.700358"/>
<feColorMatrix type="matrix" values="0 0 0 0 0 0 0 0 0 0 0 0 0 0 0 0 0 0 0.3 0"/>
<feBlend mode="normal" in2="BackgroundImageFix" result="effect1_dropShadow_6132_115962"/>
<feColorMatrix in="SourceAlpha" type="matrix" values="0 0 0 0 0 0 0 0 0 0 0 0 0 0 0 0 0 0 127 0" result="hardAlpha"/>
<feOffset dy="2.10107"/>
<feGaussianBlur stdDeviation="1.05054"/>
<feColorMatrix type="matrix" values="0 0 0 0 0 0 0 0 0 0 0 0 0 0 0 0 0 0 0.25 0"/>
<feBlend mode="normal" in2="effect1_dropShadow_6132_115962" result="effect2_dropShadow_6132_115962"/>
<feBlend mode="normal" in="SourceGraphic" in2="effect2_dropShadow_6132_115962" result="shape"/>
</filter>
<filter id="filter2_d_6132_115962" x="88.8078" y="65.5329" width="93.1476" height="28.015" filterUnits="userSpaceOnUse" color-interpolation-filters="sRGB">
<feFlood flood-opacity="0" result="BackgroundImageFix"/>
<feColorMatrix in="SourceAlpha" type="matrix" values="0 0 0 0 0 0 0 0 0 0 0 0 0 0 0 0 0 0 127 0" result="hardAlpha"/>
<feOffset dy="1.40072"/>
<feGaussianBlur stdDeviation="1.40072"/>
<feComposite in2="hardAlpha" operator="out"/>
<feColorMatrix type="matrix" values="0 0 0 0 0 0 0 0 0 0 0 0 0 0 0 0 0 0 0.29 0"/>
<feBlend mode="normal" in2="BackgroundImageFix" result="effect1_dropShadow_6132_115962"/>
<feBlend mode="normal" in="SourceGraphic" in2="effect1_dropShadow_6132_115962" result="shape"/>
</filter>
<filter id="filter3_d_6132_115962" x="88.8078" y="65.5329" width="96.22" height="47.6243" filterUnits="userSpaceOnUse" color-interpolation-filters="sRGB">
<feFlood flood-opacity="0" result="BackgroundImageFix"/>
<feColorMatrix in="SourceAlpha" type="matrix" values="0 0 0 0 0 0 0 0 0 0 0 0 0 0 0 0 0 0 127 0" result="hardAlpha"/>
<feOffset dy="1.40072"/>
<feGaussianBlur stdDeviation="1.40072"/>
<feComposite in2="hardAlpha" operator="out"/>
<feColorMatrix type="matrix" values="0 0 0 0 0 0 0 0 0 0 0 0 0 0 0 0 0 0 0.29 0"/>
<feBlend mode="normal" in2="BackgroundImageFix" result="effect1_dropShadow_6132_115962"/>
<feBlend mode="normal" in="SourceGraphic" in2="effect1_dropShadow_6132_115962" result="shape"/>
</filter>
<filter id="filter4_dd_6132_115962" x="163.798" y="83.3844" width="10.7338" height="16.3392" filterUnits="userSpaceOnUse" color-interpolation-filters="sRGB">
<feFlood flood-opacity="0" result="BackgroundImageFix"/>
<feColorMatrix in="SourceAlpha" type="matrix" values="0 0 0 0 0 0 0 0 0 0 0 0 0 0 0 0 0 0 127 0" result="hardAlpha"/>
<feOffset dx="0.700358"/>
<feGaussianBlur stdDeviation="0.700358"/>
<feColorMatrix type="matrix" values="0 0 0 0 0 0 0 0 0 0 0 0 0 0 0 0 0 0 0.3 0"/>
<feBlend mode="normal" in2="BackgroundImageFix" result="effect1_dropShadow_6132_115962"/>
<feColorMatrix in="SourceAlpha" type="matrix" values="0 0 0 0 0 0 0 0 0 0 0 0 0 0 0 0 0 0 127 0" result="hardAlpha"/>
<feOffset dy="2.10107"/>
<feGaussianBlur stdDeviation="1.05054"/>
<feColorMatrix type="matrix" values="0 0 0 0 0 0 0 0 0 0 0 0 0 0 0 0 0 0 0.25 0"/>
<feBlend mode="normal" in2="effect1_dropShadow_6132_115962" result="effect2_dropShadow_6132_115962"/>
<feBlend mode="normal" in="SourceGraphic" in2="effect2_dropShadow_6132_115962" result="shape"/>
</filter>
<filter id="filter5_dd_6132_115962" x="163.006" y="81.5348" width="13.4792" height="18.972" filterUnits="userSpaceOnUse" color-interpolation-filters="sRGB">
<feFlood flood-opacity="0" result="BackgroundImageFix"/>
<feColorMatrix in="SourceAlpha" type="matrix" values="0 0 0 0 0 0 0 0 0 0 0 0 0 0 0 0 0 0 127 0" result="hardAlpha"/>
<feOffset dx="0.700358"/>
<feGaussianBlur stdDeviation="0.700358"/>
<feColorMatrix type="matrix" values="0 0 0 0 0 0 0 0 0 0 0 0 0 0 0 0 0 0 0.3 0"/>
<feBlend mode="normal" in2="BackgroundImageFix" result="effect1_dropShadow_6132_115962"/>
<feColorMatrix in="SourceAlpha" type="matrix" values="0 0 0 0 0 0 0 0 0 0 0 0 0 0 0 0 0 0 127 0" result="hardAlpha"/>
<feOffset dy="2.10107"/>
<feGaussianBlur stdDeviation="1.05054"/>
<feColorMatrix type="matrix" values="0 0 0 0 0 0 0 0 0 0 0 0 0 0 0 0 0 0 0.25 0"/>
<feBlend mode="normal" in2="effect1_dropShadow_6132_115962" result="effect2_dropShadow_6132_115962"/>
<feBlend mode="normal" in="SourceGraphic" in2="effect2_dropShadow_6132_115962" result="shape"/>
</filter>
<linearGradient id="paint0_linear_6132_115962" x1="293" y1="215.888" x2="264" y2="215.888" gradientUnits="userSpaceOnUse">
<stop stop-color="#F0F1F7"/>
<stop offset="1" stop-color="#F0F1F7" stop-opacity="0"/>
</linearGradient>
<linearGradient id="paint1_linear_6132_115962" x1="218" y1="56" x2="131" y2="56" gradientUnits="userSpaceOnUse">
<stop stop-color="#F0F1F7"/>
<stop offset="1" stop-color="#F0F1F7" stop-opacity="0"/>
</linearGradient>
<linearGradient id="paint2_linear_6132_115962" x1="29" y1="61.5" x2="3.96587e-07" y2="61.5" gradientUnits="userSpaceOnUse">
<stop stop-color="#F0F1F7"/>
<stop offset="1" stop-color="#F0F1F7" stop-opacity="0"/>
</linearGradient>
<clipPath id="clip0_6132_115962">
<rect width="218" height="114" fill="white"/>
</clipPath>
<clipPath id="clip1_6132_115962">
<rect width="783" height="147.451" fill="white" transform="translate(0 87.6387)"/>
</clipPath>
<clipPath id="clip2_6132_115962">
<path d="M0 34.4121H783V65.2279H0V34.4121Z" fill="white"/>
</clipPath>
<clipPath id="clip3_6132_115962">
<rect width="14.0072" height="14.0072" fill="white" transform="translate(8.4043 42.8164)"/>
</clipPath>
<clipPath id="clip4_6132_115962">
<rect width="8.40429" height="8.40429" fill="white" transform="translate(42.0215 45.6172)"/>
</clipPath>
<clipPath id="clip5_6132_115962">
<rect width="8.40429" height="8.40429" fill="white" transform="translate(93.0286 45.6172)"/>
</clipPath>
<clipPath id="clip6_6132_115962">
<rect width="8.40429" height="8.40429" fill="white" transform="translate(115.44 45.6172)"/>
</clipPath>
<clipPath id="clip7_6132_115962">
<rect width="8.40429" height="8.40429" fill="white" transform="translate(189.447 45.6172)"/>
</clipPath>
<clipPath id="clip8_6132_115962">
<rect width="11.2057" height="11.2057" fill="white" transform="translate(100.014 72.5352)"/>
</clipPath>
<clipPath id="clip9_6132_115962">
<rect width="11.2057" height="11.2057" fill="white" transform="translate(100.014 72.5352)"/>
</clipPath>
<clipPath id="clip10_6132_115962">
<rect width="11.2057" height="11.2057" fill="white" transform="translate(100.014 72.5352)"/>
</clipPath>
<clipPath id="clip11_6132_115962">
<rect width="11.2057" height="11.2057" fill="white" transform="translate(100.014 92.1465)"/>
</clipPath>
<clipPath id="clip12_6132_115962">
<rect width="11.2057" height="11.2057" fill="white" transform="translate(100.014 92.1465)"/>
</clipPath>
</defs>
</svg>
