<svg width="355" height="331" viewBox="0 0 355 331" fill="none" xmlns="http://www.w3.org/2000/svg">
<path d="M224.389 158.875L219.908 161.697C219.908 161.697 228.063 168.46 228.063 169.35C228.063 170.239 218.683 179.097 218.035 178.514C217.387 177.931 205.362 171.252 205.534 165.342C205.706 159.429 220.863 144.469 220.863 144.469C220.863 144.469 244.649 157.614 258.064 180.82C271.194 203.55 266.304 206.505 266.304 206.505C266.304 206.505 260.805 203.531 258.796 205.443C257.67 204.743 256.237 204.794 255.161 205.567C255.161 205.567 251.888 203.808 250.404 205.73C248.92 207.652 241.261 207.548 241.261 207.548C241.261 207.548 239.025 203.72 236.19 205.511C234.696 204.355 232.383 204.554 232.078 205.426C231.203 204.469 228.53 204.469 227.225 206.707C221.827 206.01 216.491 204.901 211.26 203.387C211.784 200.794 216.532 183.394 215.78 176.526C218.634 178.869 219.833 178.592 219.833 178.592C219.833 178.592 229.233 171.444 229.291 169.799C229.349 168.154 221.414 162.022 221.414 162.022L224.392 158.875H224.389Z" fill="#353F6E"/>
<path d="M274.684 142.157C262.963 145.001 252.311 151.198 244.018 159.998C258.842 177.017 268.109 201.297 265.997 205.344C270.193 204.865 276.816 203.91 278.177 203.497C274.817 188.786 274.031 176.888 273.959 168.608C273.881 159.789 274.969 133.341 274.684 142.157Z" fill="#353F6E"/>
<path d="M251.086 160.618C251.086 160.618 271.752 159.116 270.019 159.729C269.12 158.723 263.94 163.717 263.94 163.717L258.85 168.444C259.609 169.591 260.145 170.874 260.428 172.223C260.6 173.839 269.676 185.443 269.942 186.257C270.207 187.071 274.024 190.304 274.024 190.304L277.41 203.143L268.571 203.4C268.571 203.4 260.873 180.595 255.328 172.356C249.781 164.12 249.619 163.583 249.619 163.583L251.084 160.618H251.086Z" fill="#6271B6"/>
<path d="M243.617 167.293C250.114 172.421 255.328 179.005 258.84 186.521C262.741 194.721 263.846 200.575 264.15 203.309C264.237 204.007 263.744 204.641 263.05 204.729C262.92 204.746 262.787 204.741 262.657 204.717C259.297 204.046 251.743 202.67 249.679 203.397C248.188 203.885 246.75 204.527 245.389 205.309C245.389 205.309 242.298 205.779 241.896 205.309C241.495 204.84 236.53 200.928 233.971 201.732C231.411 202.537 227.396 203.358 227.396 203.358C227.396 203.358 221.088 201.445 222.973 199.579C224.856 197.713 231.67 179.201 232.023 176.361C232.375 173.52 232.612 167.587 232.023 167.254C231.433 166.921 232.366 161.381 234.648 161.791C236.929 162.202 243.62 167.291 243.62 167.291L243.617 167.293Z" fill="#6271B6"/>
<path d="M220.116 159.911C220.116 159.911 218.441 160.446 218.269 161.355C218.098 162.264 223.311 166.186 224.377 166.789C225.443 167.392 227.602 169.324 227.404 169.457C227.205 169.591 221.228 175.292 220.191 175.829C219.154 176.364 216.86 174.279 215.794 172.461C214.728 170.643 211.987 166.519 212.768 163.277C213.549 160.035 216.326 158.084 217.525 157.948C218.724 157.814 222.862 158.149 223.062 158.56C223.263 158.971 220.114 159.909 220.114 159.909L220.116 159.911Z" fill="#6271B6"/>
<path d="M250.726 183.683C249.759 183.683 248.976 182.895 248.976 181.924C248.976 180.952 249.759 180.164 250.726 180.164C251.692 180.164 252.476 180.952 252.476 181.924C252.476 182.895 251.692 183.683 250.726 183.683Z" fill="#353F6E"/>
<path d="M235.607 183.699C234.641 183.699 233.857 182.911 233.857 181.939C233.857 180.967 234.641 180.18 235.607 180.18C236.574 180.18 237.357 180.967 237.357 181.939C237.357 182.911 236.574 183.699 235.607 183.699Z" fill="#353F6E"/>
<path d="M251.98 195.988C251.014 195.988 250.23 195.2 250.23 194.228C250.23 193.256 251.014 192.469 251.98 192.469C252.947 192.469 253.73 193.256 253.73 194.228C253.73 195.2 252.947 195.988 251.98 195.988Z" fill="#353F6E"/>
<path d="M234.797 195.988C233.831 195.988 233.047 195.2 233.047 194.228C233.047 193.256 233.831 192.469 234.797 192.469C235.764 192.469 236.547 193.256 236.547 194.228C236.547 195.2 235.764 195.988 234.797 195.988Z" fill="#353F6E"/>
<path d="M251.202 183.23C250.236 183.23 249.452 182.442 249.452 181.47C249.452 180.499 250.236 179.711 251.202 179.711C252.168 179.711 252.952 180.499 252.952 181.47C252.952 182.442 252.168 183.23 251.202 183.23Z" fill="#F3F3F3"/>
<path d="M236.083 183.238C235.117 183.238 234.333 182.45 234.333 181.478C234.333 180.506 235.117 179.719 236.083 179.719C237.05 179.719 237.833 180.506 237.833 181.478C237.833 182.45 237.05 183.238 236.083 183.238Z" fill="#F3F3F3"/>
<path d="M252.457 195.539C251.49 195.539 250.707 194.751 250.707 193.779C250.707 192.807 251.49 192.02 252.457 192.02C253.423 192.02 254.206 192.807 254.206 193.779C254.206 194.751 253.423 195.539 252.457 195.539Z" fill="#F3F3F3"/>
<path d="M235.274 195.539C234.307 195.539 233.524 194.751 233.524 193.779C233.524 192.807 234.307 192.02 235.274 192.02C236.24 192.02 237.023 192.807 237.023 193.779C237.023 194.751 236.24 195.539 235.274 195.539Z" fill="#F3F3F3"/>
<path d="M244.113 126.338V126.54C247.92 126.061 280.134 122.885 299.241 148.886C282.791 147.537 256.302 154.424 248.024 166.918C235.779 152.281 204.437 147.537 187.976 148.856C208.328 121.2 244.113 126.338 244.113 126.338Z" fill="#F3F3F3"/>
<path d="M185.799 93.181C186.56 79.7879 216.246 50.6859 221.059 46.1049C225.874 41.5214 233.922 29.8417 236.281 30.0021C238.764 30.2306 234.846 53.765 234.541 70.6016C234.237 87.4383 237.947 93.2539 239.233 92.9404C240.516 92.6244 244.874 91.9828 244.874 91.9828C244.874 91.9828 249.242 92.6147 250.516 92.9404C251.789 93.266 255.529 87.448 255.197 70.6016C254.864 53.7577 250.972 30.233 253.474 30.0021C255.814 29.8198 263.875 41.4825 268.697 46.1024C273.521 50.7247 303.179 79.7588 303.94 93.181C304.539 103.799 300.457 106.861 291.495 111.128C282.532 115.396 279.726 116.676 280.362 119.012C281 121.345 286.774 122.312 287.098 128.033C287.422 133.754 286.051 142.853 270.323 149.73C254.596 156.608 249.392 158.549 244.872 158.549C240.352 158.549 235.148 156.637 219.42 149.73C203.692 142.823 202.969 131.727 203.245 126.016C203.52 120.305 208.688 121.347 209.324 119.014C209.96 116.681 207.163 115.398 198.201 111.131C189.238 106.863 185.194 103.804 185.794 93.1834L185.799 93.181Z" fill="#6271B6"/>
<path d="M203.98 126.184C204.294 120.711 209.375 121.717 210.013 119.489C210.018 119.438 210.018 119.387 210.013 119.336L220.822 116.466L241.062 113.855C241.062 113.855 245.986 117.027 244.521 117.127C241.993 117.297 241.826 120.138 240.149 121.817C238.474 123.499 231.181 133.074 221.477 132.748C211.772 132.422 208.824 125.314 205.635 129.448C203.866 131.744 208.49 142.372 217.138 145.05C225.787 147.728 232.685 150.523 237.176 151.745C242.223 153.007 247.475 153.199 252.599 152.309C257.641 151.352 276.023 146.044 276.385 145.927C274.481 147.101 272.482 148.115 270.411 148.951C254.816 155.541 249.687 157.398 245.169 157.398C240.652 157.398 235.549 155.551 219.974 148.921C204.398 142.292 203.666 131.635 203.98 126.182V126.184Z" fill="#353F6E"/>
<path d="M278.099 123.721C278.099 123.721 274.474 132.559 256.947 131.048C254.758 130.858 254.419 128.557 253.827 126.958C252.87 124.369 251.176 123.546 249.539 121.825C247.949 120.153 246.822 117.465 244.536 117.086C241.406 116.566 241.174 112.415 241.256 109.516C241.512 100.667 252.901 93.0898 252.901 93.0898L278.097 123.721H278.099Z" fill="#353F6E"/>
<path d="M245.454 119.621C245.454 119.266 245.843 119.132 246.005 119.429C246.595 120.452 247.137 122.787 248.231 123.762C249.658 125.016 251.4 126.574 250.781 128.209C250.163 129.845 248.403 128.707 246.975 127.577C246.385 127.089 246.022 126.812 245.776 126.62C245.534 126.433 245.396 126.141 245.404 125.835L245.452 119.616L245.454 119.621Z" fill="#353F6E"/>
<path d="M244.255 119.402C244.255 119.047 243.876 118.914 243.704 119.21C243.115 120.233 242.573 122.578 241.478 123.543C240.059 124.797 238.319 126.355 238.928 127.99C239.537 129.626 241.307 128.498 242.735 127.368C243.325 126.88 243.687 126.593 243.934 126.411C244.176 126.224 244.313 125.932 244.306 125.626L244.258 119.397L244.255 119.402Z" fill="#353F6E"/>
<path d="M256.092 32.207C256.092 32.207 269.801 50.3074 276.216 56.7646C282.629 63.2217 295.826 80.107 298.528 84.7657C301.231 89.4245 304.665 100.339 294.721 106.597C299.688 94.4381 290.163 90.8778 287.11 91.444C284.057 92.0103 284.333 103 284.333 103L279.404 109.486L261.327 108.222L251.279 93.5L254.951 90.0564C258.702 87.1328 263.183 85.3004 267.899 84.7657C275.721 83.9249 278.631 84.1825 278.631 84.1825C278.631 84.1825 277.517 76.8553 269.325 78.1263C271.704 74.5685 272.55 55.8557 256.089 32.207H256.092Z" fill="#353F6E"/>
<path d="M230.241 45.8086C230.241 45.8086 228.233 59.6998 228.129 67.9942C228.025 76.2886 226.12 89.1446 229.707 92.542C233.294 95.9371 227.529 97.3247 227.529 97.3247L205.399 111.109C205.399 111.109 199.851 110.152 197.207 108.382C194.563 106.613 190.28 103.655 189.492 100.088C193.079 103.762 196.151 106.526 198.636 103.493C201.118 100.46 199.397 86.0047 208.57 78.9351C207.037 82.1771 208.942 87.5455 212.536 86.9136C216.133 86.2817 221.784 77.7103 223.183 70.4123C224.583 63.1143 230.244 45.8086 230.244 45.8086H230.241Z" fill="#353F6E"/>
<path d="M285.882 98.3646L295.396 89.9171C297.117 88.3666 297.259 85.7079 295.72 83.9751C294.175 82.2375 291.524 82.0869 289.795 83.6373C289.791 83.6422 289.788 83.6446 289.783 83.6495L280.412 91.973C282.74 93.6086 284.62 95.8055 285.882 98.3646Z" fill="#F3F3F3"/>
<path d="M246.462 109.066V109.142C246.462 120.416 255.533 129.568 266.746 129.604C255.519 129.527 246.46 120.352 246.462 109.066Z" fill="#CCCCCC"/>
<path d="M287.166 108.839C287.166 108.36 287.166 107.881 287.098 107.422C287.127 107.891 287.166 108.36 287.166 108.839Z" fill="#CCCCCC"/>
<path d="M266.814 129.606C278.056 129.606 287.17 120.447 287.175 109.144V109.039C287.192 120.366 278.082 129.57 266.814 129.606Z" fill="#CCCCCC"/>
<path d="M287.166 108.838C287.166 108.359 287.166 107.88 287.098 107.421C286.624 101.27 283.436 95.6536 278.411 92.1152C275.017 89.7044 270.969 88.4043 266.814 88.3945C255.536 88.4358 246.426 97.661 246.462 109V109.069C246.462 120.357 255.521 129.529 266.746 129.606H266.814C278.08 129.57 287.19 120.367 287.175 109.039C287.175 108.945 287.166 108.896 287.166 108.838Z" fill="#F3F3F3"/>
<path d="M265.098 128.601C255.912 128.601 248.466 121.114 248.466 111.879C248.466 102.643 255.912 95.1562 265.098 95.1562C274.283 95.1562 281.73 102.643 281.73 111.879C281.73 121.114 274.283 128.601 265.098 128.601Z" fill="#353F6E"/>
<path d="M284.074 105.817L252.952 98.624L257.375 95.9118C257.375 95.9118 263.089 93.4937 263.403 93.4986C263.718 93.5034 268.554 92.9226 270.401 93.6079C272.247 94.2933 277.176 94.3273 278.672 95.9434C280.168 97.5595 284.255 105.295 284.255 105.295L284.074 105.82V105.817Z" fill="#F3F3F3"/>
<path d="M274.979 113.072L255.463 105.82L262.562 112.182L248.565 106.931L253.286 98.5586L274.979 113.072Z" fill="#F3F3F3"/>
<path d="M284.92 97.3546C284.92 97.3546 293.655 89.4345 293.921 89.1477C294.477 88.285 294.53 87.1913 294.064 86.2776C293.503 85.4829 293.95 86.8511 293.539 87.7892C293.131 88.7273 282.817 94.4845 282.817 94.4845L284.92 97.3546Z" fill="#353F6E"/>
<path d="M203.827 98.1535L194.541 89.9174C192.861 88.401 192.719 85.8006 194.227 84.1116C195.735 82.4274 198.312 82.2865 199.992 83.7957L209.145 91.9175C206.88 93.5166 205.053 95.6601 203.827 98.1559V98.1535Z" fill="#F3F3F3"/>
<path d="M242.81 109.066V109.142C242.81 120.416 233.739 129.568 222.526 129.604C233.753 129.527 242.812 120.352 242.81 109.066Z" fill="#CCCCCC"/>
<path d="M202.107 108.839C202.107 108.36 202.107 107.881 202.174 107.422C202.136 107.891 202.107 108.36 202.107 108.839Z" fill="#CCCCCC"/>
<path d="M222.449 129.606C211.209 129.606 202.097 120.444 202.097 109.144V109.039C202.075 120.366 211.183 129.57 222.449 129.606Z" fill="#CCCCCC"/>
<path d="M202.107 108.844C202.107 108.365 202.107 107.887 202.174 107.427C202.648 101.276 205.836 95.6602 210.861 92.1217C214.255 89.7231 218.301 88.4375 222.451 88.4375C233.734 88.474 242.849 97.6991 242.812 109.043V109.112C242.812 120.4 233.753 129.572 222.528 129.649H222.453C211.188 129.613 202.08 120.41 202.102 109.082C202.102 108.949 202.111 108.9 202.111 108.844H202.107Z" fill="#F3F3F3"/>
<path d="M220.979 128.601C211.794 128.601 204.347 121.114 204.347 111.879C204.347 102.643 211.794 95.1562 220.979 95.1562C230.165 95.1562 237.611 102.643 237.611 111.879C237.611 121.114 230.165 128.601 220.979 128.601Z" fill="#353F6E"/>
<path d="M209.435 99.4134L240.664 103.924L238.742 99.7148C238.742 99.7148 233.345 95.0439 233.011 94.9588C232.678 94.8737 228.404 92.6282 226.434 92.6355C224.464 92.6428 219.824 90.9829 217.868 91.9866C215.913 92.9903 209.442 98.8569 209.442 98.8569L209.435 99.411V99.4134Z" fill="#F3F3F3"/>
<path d="M230.887 111.871L211.383 104.609L218.48 110.981L204.485 105.73L209.203 97.3477L230.887 111.871Z" fill="#F3F3F3"/>
<path d="M204.151 97.7881C204.151 97.7881 195.416 89.868 195.15 89.5812C194.594 88.7185 194.541 87.6248 195.008 86.7111C195.568 85.9164 195.121 87.2846 195.539 88.2324C195.958 89.1802 206.252 94.9277 206.252 94.9277L204.149 97.7881H204.151Z" fill="#353F6E"/>
<path d="M229.166 204.495C230.106 204.334 231.073 204.565 231.839 205.136C233.229 203.858 235.37 203.892 236.719 205.212C237.521 204.609 238.568 204.441 239.516 204.762C241.029 205.202 241.988 206.492 241.657 207.632C241.326 208.772 239.83 209.345 238.317 208.905C237.729 208.731 237.202 208.4 236.784 207.948C235.443 209.37 233.207 209.428 231.793 208.077C231.749 208.035 231.706 207.992 231.665 207.948C231.114 208.385 230.456 208.667 229.763 208.762C228.088 208.991 226.604 208.218 226.442 207.032C226.28 205.846 227.479 204.725 229.163 204.497L229.166 204.495Z" fill="#6271B6"/>
<path d="M252.181 204.506C253.157 204.338 254.158 204.598 254.932 205.223C255.584 204.545 256.495 204.175 257.433 204.209C258.221 204.195 258.99 204.452 259.611 204.936C260.399 204.408 261.385 204.275 262.284 204.571C263.788 205.011 264.75 206.302 264.416 207.441C264.083 208.581 262.599 209.145 261.085 208.705C260.646 208.579 260.237 208.367 259.877 208.083C259.239 208.754 258.354 209.13 257.431 209.126C256.423 209.155 255.459 208.71 254.823 207.92C254.25 208.416 253.547 208.729 252.797 208.819C251.122 209.048 249.638 208.275 249.486 207.096C249.334 205.92 250.513 204.734 252.179 204.503L252.181 204.506Z" fill="#6271B6"/>
<path d="M227.237 136.879C227.237 136.879 227.237 142.745 227.604 143.71C226.009 143.351 222.531 140.456 221.743 138.303C223.418 137.321 227.237 136.879 227.237 136.879Z" fill="#4F5DA3"/>
<path d="M227.882 136.594C227.938 138.407 228.122 140.215 228.429 142.001C226.833 141.641 224.01 139.928 223.22 137.811C224.684 137.119 226.265 136.706 227.88 136.594H227.882Z" fill="#F3F3F3"/>
<path d="M212.539 138.036C215.004 140.082 219.045 139.307 223.357 138.153C223.925 137.616 224.629 137.246 225.393 137.088C226.222 136.884 227.08 136.816 227.928 136.889C228.663 136.802 229.383 136.629 230.079 136.376C235.332 133.475 244.287 133.492 244.287 133.492C244.287 133.492 252.058 133.492 258.224 136.403C264.138 139.215 272.206 141.098 275.989 138.034C277.19 136.93 278.111 135.555 278.677 134.024C278.909 133.438 278.174 132.996 277.853 133.518C276.545 135.635 274.652 136.529 272.09 136.989C265.081 138.24 256.522 132.43 244.304 132.43C232.085 132.43 222.855 136.187 216.517 136.989C213.926 137.322 212.036 135.638 210.755 133.518C210.433 132.996 209.696 133.438 209.931 134.024C210.467 135.553 211.362 136.928 212.539 138.034V138.036Z" fill="#353F6E"/>
<path d="M249.798 139.569C250.695 138.93 248.901 137.496 244.787 137.496C240.978 137.496 239.489 138.74 239.697 139.299C240.074 140.281 242.977 139.083 244.906 139.083C246.834 139.083 248.904 140.201 249.8 139.569H249.798Z" fill="#353F6E"/>
<path d="M208.802 168.25C208.802 168.25 206.414 170.139 207.861 173.633C207.395 176.081 207.211 182.723 208.802 184.122C210.395 185.52 211.19 186.64 213.65 185.102C215.026 185.843 217.269 186.781 218.209 186.29C219.149 185.802 220.452 187.889 223.493 186.426C226.533 184.963 226.533 171.327 226.026 170.768C225.518 170.209 219.077 164.965 208.802 168.25Z" fill="#353F6E"/>
<path d="M213.65 178.55C213.65 178.55 209.742 175.194 209.404 174.681C209.065 174.168 207.617 171.371 209.21 169.879C209.21 169.879 213.602 173.468 214.47 173.376C215.337 173.284 217.51 177.386 213.65 178.55Z" fill="#6271B6"/>
<path d="M210.851 177.275L208.753 175.457C208.753 175.457 208.367 182.59 209.092 183.336C209.817 184.082 211.274 185.015 212.174 184.874C213.073 184.733 215.485 181.914 215.316 178.93C214.206 179.676 213.14 180.544 211.722 178.067C210.515 179.722 209.575 182.658 209.72 183.054C209.865 183.45 208.529 181.737 210.854 177.272L210.851 177.275Z" fill="#6271B6"/>
<path d="M219.947 178.795C219.947 178.795 219.93 183.602 217.885 185.194C215.731 185.265 214.702 185.019 214.392 184.426C214.083 183.833 216.81 181.216 216.275 178.134C217.433 178.03 218.103 177.347 219.949 178.798L219.947 178.795Z" fill="#6271B6"/>
<path d="M223.759 178.95C223.759 178.95 221.225 177.669 220.766 178.717C220.766 179.625 220.815 183.891 219.222 185.103C219.944 185.337 221.032 186.221 222.961 185.64C224.89 185.057 223.756 178.95 223.756 178.95H223.759Z" fill="#6271B6"/>
<path d="M217.157 176.886C217.157 176.886 217.813 175.01 216.655 174.217C216.655 174.217 221.648 175.802 223.423 173.18C224.363 173.634 225.052 174.217 225.052 174.217V176.468C225.052 176.468 223.459 177.119 223.64 177.877C222.156 177.518 220.918 177.391 220.13 177.877C219.444 177.877 218.279 177.097 217.16 176.888L217.157 176.886Z" fill="#6271B6"/>
<path d="M240.158 169.551L257.414 166.285C257.414 166.285 261.723 157.811 264.16 155.645C265.748 154.236 273.528 154.673 275.506 158.542C279.146 165.66 275.462 174.487 273.956 176.001C272.45 177.515 246.071 184.249 244.867 183.637C243.663 183.024 238.416 173.077 240.156 169.551H240.158Z" fill="#353F6E"/>
<path d="M264.16 157.408L259.241 167.083C258.801 167.763 254.318 168.949 253.733 169.095C251.405 169.671 250.02 170.794 248.976 170.594C248.976 170.594 250.448 173.309 250.327 174.281C250.325 174.303 249.445 180.704 249.452 180.724C249.711 181.365 257.184 181.054 261.097 178.616C262.272 177.883 271.007 176.789 272.666 174.223C274.283 172.018 276.475 161.739 273.289 158.375C273.289 158.375 267.858 155.852 264.162 157.41L264.16 157.408Z" fill="#6271B6"/>
<path d="M259.377 165.719C259.377 165.719 263.974 166.618 263.481 169.206C262.988 171.794 262.85 172.186 262.85 172.186C262.85 172.186 261.675 166.992 258.61 167.592C255.545 168.193 259.377 165.719 259.377 165.719Z" fill="#353F6E"/>
<path d="M248.101 183.587C248.101 183.587 252.894 180.022 252.493 175.081C252.089 170.14 247.9 165.645 241.053 167.224C234.889 165.725 234.406 165.523 232.31 165.888C230.215 166.252 227.597 174.658 227.597 174.658C227.597 174.658 225.059 174.311 223.971 175.973C222.884 177.635 223.809 183.062 227.918 182.899C228.523 184.357 234.244 188.124 234.244 188.124C234.244 188.124 238.957 192.093 243.832 188.367C246.774 185.371 248.103 183.587 248.103 183.587H248.101Z" fill="#353F6E"/>
<path d="M247.013 183.09C247.013 183.09 251.685 179.391 251.391 175.287C251.096 171.182 248.275 167.996 242.957 168.239C244.461 170.507 244.408 171.236 244.408 171.236C244.408 171.236 240.729 167.347 238.259 167.563C236.03 167.294 232.941 166.511 232.431 167.807C233.746 169.291 235.626 171.559 235.626 171.559C235.626 171.559 236.646 170.64 236.97 171.099C237.294 171.559 231.517 177.095 228.295 176.23C228.16 175.77 228.457 175.365 228.457 175.365L227.653 175.083C227.653 175.083 224.295 175.581 225.209 178.767C226.122 181.953 226.524 181.899 232.487 181.467C232.675 182.223 230.5 182.818 229.692 182.845C229.854 183.263 233.117 186.869 236.46 188.245C239.803 189.623 245.807 185.465 247.016 183.088L247.013 183.09Z" fill="#6271B6"/>
<path d="M235.547 171.558L230.123 165.159C230.123 165.159 234.205 154.629 224.375 145.987C214.545 137.345 211.376 139.345 208.26 140.262C206.058 142.206 202.029 145.555 202.029 145.555C202.029 145.555 195.423 151.873 205.251 164.673C215.081 177.473 223.621 171.099 223.621 171.099L228.455 175.42C228.455 175.42 233.988 175.041 235.544 171.558H235.547Z" fill="#353F6E"/>
<path opacity="0.8" d="M210.258 160.453C205.393 154.416 203.327 147.992 205.644 146.104C207.961 144.217 213.783 147.58 218.649 153.617C223.514 159.653 225.58 166.077 223.263 167.965C220.946 169.853 215.124 166.49 210.258 160.453Z" fill="#FFDB01"/>
<path d="M230.551 168.022L228.296 165.268C228.296 165.268 233.56 155.926 221.581 145.61C221.581 145.61 216.694 139.94 209.79 141.262C207.642 142.694 206.486 143.773 206.486 143.773C206.486 143.773 213.416 142.842 220.747 151.914C228.078 160.986 225.54 167.752 225.54 167.752L227.595 165.949C227.595 165.949 227.213 168.603 224.834 169.917C225.453 170.544 226.526 171.558 226.526 171.558C226.526 171.558 229.714 169.648 230.548 168.019L230.551 168.022Z" fill="#6271B6"/>
<path d="M204.192 145.675C211.001 142.474 219.621 152.479 219.621 152.479C220.965 153.886 229.693 166.971 221.755 170.504C213.82 174.038 204.877 161.634 204.877 161.634C204.877 161.634 197.384 148.875 204.192 145.675ZM207.373 162.484C211.023 166.764 217.738 171.083 220.803 169.019C221.31 168.677 221.569 168.261 221.796 167.884C224.099 164.081 221.409 157.281 217.552 153.113C213.708 148.96 207.19 145.781 204.579 147.82C203.504 148.661 203.226 150.28 203.064 151.225C202.682 153.446 203.366 155.203 204.149 157.136C205.3 159.974 206.834 161.853 207.371 162.482L207.373 162.484Z" fill="#6271B6"/>
<g opacity="0.3" filter="url(#filter0_f_12024_195948)">
<ellipse cx="162.258" cy="165.646" rx="98.2581" ry="71.3023" fill="#FEB95A"/>
</g>
<g clip-path="url(#clip0_12024_195948)">
<path d="M172.496 212.598C171.043 212.598 169.502 212.168 167.906 211.324L156.307 205.176C154.727 204.339 152.459 203.862 150.088 203.862C147.718 203.862 145.443 204.339 143.862 205.176L132.263 211.324C130.667 212.168 129.119 212.598 127.673 212.598C125.753 212.598 124.054 211.834 122.884 210.44C121.889 209.253 120.83 207.063 121.454 203.408L123.667 190.394C124.299 186.675 122.505 181.1 119.819 178.464L110.432 169.241C106.979 165.841 107.28 162.798 107.769 161.285C108.259 159.772 109.792 157.128 114.564 156.435L127.53 154.54C131.236 153.998 135.937 150.55 137.597 147.165L143.396 135.322C145.529 130.958 148.5 130.305 150.081 130.305C151.661 130.305 154.624 130.958 156.765 135.322L162.565 147.165C164.224 150.55 168.925 153.998 172.631 154.54L185.597 156.435C190.377 157.136 191.91 159.78 192.392 161.285C192.882 162.798 193.182 165.841 189.721 169.241L180.342 178.464C177.664 181.1 175.862 186.675 176.494 190.394L178.707 203.408C179.331 207.063 178.272 209.245 177.277 210.44C176.115 211.834 174.409 212.598 172.489 212.598H172.496Z" fill="url(#paint0_radial_12024_195948)"/>
<path d="M190.891 161.78C190.519 160.617 189.302 158.586 185.368 158.013L172.402 156.117C168.182 155.496 163.031 151.721 161.142 147.874L155.343 136.032C153.581 132.44 151.289 131.906 150.081 131.906C148.872 131.906 146.572 132.44 144.818 136.032L139.019 147.874C137.13 151.729 131.979 155.504 127.76 156.117L114.794 158.013C110.859 158.586 109.642 160.625 109.271 161.78C108.899 162.943 108.694 165.308 111.538 168.103L120.925 177.326C123.975 180.32 125.942 186.429 125.223 190.666L123.011 203.679C122.489 206.729 123.311 208.482 124.093 209.413C124.963 210.457 126.203 211.006 127.673 211.006C128.866 211.006 130.162 210.64 131.528 209.915L143.127 203.767C144.921 202.811 147.457 202.27 150.088 202.27C152.72 202.27 155.248 202.819 157.049 203.767L168.649 209.915C170.015 210.64 171.311 211.006 172.504 211.006C173.974 211.006 175.207 210.457 176.084 209.413C176.866 208.482 177.688 206.729 177.166 203.679L174.954 190.666C174.235 186.429 176.202 180.32 179.252 177.326L188.631 168.103C191.475 165.308 191.278 162.943 190.898 161.78H190.891Z" fill="url(#paint1_radial_12024_195948)"/>
<path d="M146.683 137.822C146.683 137.822 142.408 147.117 140.512 153.122C138.616 159.127 151.582 144.194 151.669 139.025C151.764 133.856 148.619 133.466 146.683 137.83V137.822Z" fill="white"/>
<path d="M138.964 158.587C138.964 159.415 138.3 160.084 137.478 160.084C136.656 160.084 135.993 159.415 135.993 158.587C135.993 157.759 136.656 157.09 137.478 157.09C138.3 157.09 138.964 157.759 138.964 158.587Z" fill="white"/>
<path d="M142.78 200.363C143.175 201.16 138.063 204.162 137.462 204.473C135.25 205.612 130.414 208.089 129.19 206.751C127.965 205.413 142.385 199.567 142.78 200.363Z" fill="#FFED1D"/>
<path d="M186.3 163.73C185.249 166.382 179.829 171.989 178.138 174.346C176.447 176.704 187.438 168.907 188.473 165.864C189.508 162.822 187.359 161.07 186.3 163.722V163.73Z" fill="#FFE000"/>
<path d="M146.327 199.643C146.327 200.152 145.917 200.566 145.411 200.566C144.905 200.566 144.494 200.152 144.494 199.643C144.494 199.133 144.905 198.719 145.411 198.719C145.917 198.719 146.327 199.133 146.327 199.643Z" fill="#FFED1D"/>
<path d="M162.636 202.023C163.426 202.349 164.358 202.938 164.611 203.066C167.179 204.388 169.676 204.985 172.402 205.869C173.492 206.22 175.096 207.653 173.634 208.609C171.635 209.915 168.925 208.266 167.131 207.335C165.551 206.522 164.492 205.798 162.723 204.308C160.953 202.819 160.581 201.17 162.636 202.015V202.023Z" fill="#FFC900"/>
<path d="M126.092 137.192C118.926 137.861 118.389 138.394 117.733 145.618C117.069 138.394 116.54 137.853 109.373 137.192C116.54 136.523 117.077 135.989 117.733 128.766C118.389 135.989 118.926 136.531 126.092 137.192Z" fill="#FFED1D"/>
<path d="M179.236 143.027C175.056 143.418 174.74 143.728 174.353 147.949C173.966 143.736 173.658 143.418 169.47 143.027C173.658 142.637 173.966 142.326 174.353 138.105C174.74 142.326 175.049 142.637 179.236 143.027Z" fill="#FFED1D"/>
<path d="M123.928 191.34C119.748 191.73 119.432 192.041 119.045 196.262C118.657 192.049 118.349 191.73 114.162 191.34C118.349 190.95 118.657 190.639 119.045 186.418C119.432 190.639 119.74 190.95 123.928 191.34Z" fill="#FFED1D"/>
<path d="M141.5 121.461C137.668 121.819 137.383 122.106 137.028 125.969C136.672 122.106 136.388 121.819 132.556 121.461C136.388 121.102 136.672 120.816 137.028 116.953C137.383 120.816 137.668 121.102 141.5 121.461Z" fill="#FFED1D"/>
<path d="M188.615 198.247C185.62 198.525 185.399 198.748 185.123 201.767C184.846 198.748 184.625 198.525 181.63 198.247C184.625 197.968 184.846 197.745 185.123 194.727C185.399 197.745 185.62 197.968 188.615 198.247Z" fill="#FFED1D"/>
</g>
<defs>
<filter id="filter0_f_12024_195948" x="-29.9104" y="0.43335" width="384.337" height="330.426" filterUnits="userSpaceOnUse" color-interpolation-filters="sRGB">
<feFlood flood-opacity="0" result="BackgroundImageFix"/>
<feBlend mode="normal" in="SourceGraphic" in2="BackgroundImageFix" result="shape"/>
<feGaussianBlur stdDeviation="46.9552" result="effect1_foregroundBlur_12024_195948"/>
</filter>
<radialGradient id="paint0_radial_12024_195948" cx="0" cy="0" r="1" gradientUnits="userSpaceOnUse" gradientTransform="translate(149.512 166.271) scale(41.3393 41.6685)">
<stop stop-color="#AA9800"/>
<stop offset="0.28" stop-color="#AA9400"/>
<stop offset="0.54" stop-color="#AA8900"/>
<stop offset="0.79" stop-color="#AA7600"/>
<stop offset="1" stop-color="#AA6100"/>
</radialGradient>
<radialGradient id="paint1_radial_12024_195948" cx="0" cy="0" r="1" gradientUnits="userSpaceOnUse" gradientTransform="translate(149.535 166.471) scale(39.767 40.0836)">
<stop stop-color="#FFE400"/>
<stop offset="0.23" stop-color="#FFE000"/>
<stop offset="0.45" stop-color="#FFD400"/>
<stop offset="0.66" stop-color="#FFC200"/>
<stop offset="0.86" stop-color="#FFA700"/>
<stop offset="1" stop-color="#FF9200"/>
</radialGradient>
<clipPath id="clip0_12024_195948">
<rect width="85.215" height="95.6495" fill="white" transform="translate(107.477 116.953)"/>
</clipPath>
</defs>
</svg>
