<svg xmlns="http://www.w3.org/2000/svg" width="78" height="24" fill="none" viewBox="0 0 78 24">
  <path fill="#6271B6" d="M21.5957 11.4806c-.1391-2.434-5.5627-7.722-6.4424-8.5544-.8796-.8329-2.3504-2.9555-2.7813-2.9258-.4541.0415.2624 4.318.3178 7.3773.0557 3.0596-.6221 4.1167-.8569 4.0593-.2348-.0574-1.031-.1737-1.031-.1737s-.7979.1147-1.0306.1737c-.2332.059-.9163-.998-.8553-4.0593.0607-3.0609.7719-7.3358.3145-7.3773-.4276-.033-1.9 2.086-2.7813 2.9258-.8813.8393-6.2996 6.1152-6.4387 8.5544-.1095 1.9293.6363 2.4855 2.2736 3.261 1.6376.7751 2.1503 1.0082 2.034 1.4322-.1165.4243-1.1719.5997-1.2309 1.6392-.059 1.0396.1913 2.6927 3.065 3.9426 2.8733 1.2499 3.8242 1.603 4.6497 1.603.8259 0 1.7768-.3478 4.6501-1.603 2.8737-1.2548 3.0059-3.2716 2.9555-4.3092-.0505-1.0379-.9944-.8483-1.1108-1.2726-.1167-.424.3943-.6571 2.0319-1.4322 1.6377-.7755 2.3766-1.3317 2.2671-3.261Z"/>
  <path fill="#353F6E" d="M18.2739 17.4818c-.0574-.9944-.9859-.8121-1.1022-1.2169a.0988.0988 0 0 1 0-.0277l-1.975-.5216-3.698-.4744s-.8992.5765-.6319.5944c.4618.031.4927.5469.7987.8524.3064.3056 1.6385 2.0454 3.4116 1.9864 1.7731-.0594 2.3118-1.3508 2.8941-.5998.3234.4171-.5212 2.3485-2.1015 2.8351-1.5803.4866-2.8404.9944-3.661 1.2169a6.8547 6.8547 0 0 1-2.818.1026c-.9212-.1738-4.2799-1.1389-4.3458-1.1596a7.2166 7.2166 0 0 0 1.0916.5493c2.8494 1.1978 3.7864 1.5351 4.6119 1.5351.826 0 1.7577-.3357 4.6033-1.5404 2.8457-1.2044 2.9795-3.141 2.9222-4.1318Z"/>
  <path fill="#353F6E" d="M4.732 17.0313s.6623 1.6063 3.8644 1.3317c.3995-.0342.4618-.4525.57-.743.1745-.4703.4842-.6201.7832-.9329.2909-.304.4968-.7922.9143-.8614.5716-.0944.6143-.8483.5989-1.3756-.0468-1.6079-2.1275-2.9848-2.1275-2.9848l-4.6034 5.566Z"/>
  <path fill="#353F6E" d="M10.6962 16.2827c0-.0642-.0712-.0887-.1009-.035-.1078.186-.2067.6103-.4069.7877-.2604.2275-.5785.5111-.4658.8081.113.2974.4349.0907.6953-.1143.1078-.0887.1741-.1392.2193-.1742a.1739.1739 0 0 0 .0675-.1424l-.0085-1.1299Zm.2189-.0396c0-.0643.0696-.0887.1009-.0346.1078.1859.2067.6119.4069.7873.2588.2278.5769.511.4659.8084-.1115.2971-.4346.092-.6954-.1131-.1078-.0887-.1737-.1407-.2189-.1737a.1728.1728 0 0 1-.0679-.1424l.0085-1.1319Z"/>
  <path fill="#4F5DA3" d="M14.4477 19.2192s0 1.1315-.0712 1.3175c.3092-.0696.9838-.6274 1.1368-1.0428-.3251-.1896-1.0656-.2747-1.0656-.2747Z"/>
  <path fill="#F3F3F3" d="M14.3223 19.1685a7.5287 7.5287 0 0 1-.1057 1.0432c.3092-.0696.8568-.4 1.0098-.8085a2.5276 2.5276 0 0 0-.9041-.2347Z"/>
  <path fill="#353F6E" d="M17.2985 19.4404c-.4781.3947-1.2621.2454-2.0983.0228a.8143.8143 0 0 0-.3946-.2051 1.5186 1.5186 0 0 0-.4919-.0382 1.8846 1.8846 0 0 1-.4171-.0993c-1.0188-.5594-2.7553-.5562-2.7553-.5562s-1.507 0-2.7032.5615c-1.1474.5424-2.7118.9057-3.4454.3145a1.981 1.981 0 0 1-.5216-.7734c-.0452-.1127.0972-.1982.1599-.0973.2539.4085.6209.5806 1.1177.6693 1.3597.2417 3.0197-.8796 5.3889-.8796 2.3697 0 4.1599.725 5.389.8796.5025.0643.8691-.2608 1.1177-.6693.0627-.1009.2051-.0154.1599.0973a1.9446 1.9446 0 0 1-.5057.7734Z"/>
  <path fill="#353F6E" d="M10.0721 19.7422c-.1738-.1232.1737-.3999.9716-.3999.7389 0 1.0277.24.9875.3479-.0729.1896-.636-.042-1.0099-.042s-.7755.2157-.9492.094ZM8.7526.5498S6.2476 3.839 5.0761 5.0123C3.9043 6.1857 1.4932 9.254.9997 10.1006c-.494.8463-1.1213 2.8298.6953 3.9666-.9073-2.2093.8325-2.8558 1.3907-2.7533.5578.1025.5074 2.0998.5074 2.0998l.9004 1.1787 3.303-.2294 1.8358-2.6756-.671-.6258a4.7286 4.7286 0 0 0-2.366-.961c-1.4288-.153-1.9606-.1062-1.9606-.1062s.2034-1.3317 1.6999-1.1006C5.9 8.2473 5.7454 4.8471 8.7526.5498Zm4.7234 2.3189s.3666 2.5238.3857 4.0312c.0191 1.507.367 3.8433-.2884 4.4605-.6555.6172.3979.8691.3979.8691l4.0434 2.505s1.0135-.1737 1.4969-.4955c.483-.3215 1.2654-.8585 1.4098-1.5071-.6555.6677-1.2169 1.1698-1.6706.6189s-.1391-3.1777-1.815-4.4621c.2799.5891-.0676 1.5644-.7247 1.4496-.6571-.1147-1.6897-1.6722-1.9452-2.9986-.2555-1.3264-1.2898-4.471-1.2898-4.471Z"/>
  <path fill="#F3F3F3" d="m3.31 12.4196-1.7385-1.5347a.7659.7659 0 0 1 .4712-1.3345.7677.7677 0 0 1 .5545.1957l1.7125 1.5123a3.0958 3.0958 0 0 0-.9997 1.1612Z"/>
  <path fill="#CCC" d="M10.5118 14.3701v.0139a3.7193 3.7193 0 0 1-1.0847 2.6251 3.7194 3.7194 0 0 1-2.6214 1.0932 3.7315 3.7315 0 0 0 3.7061-3.7322Zm-7.4366-.0408c0-.087 0-.1741.0122-.2575-.0053.0854-.0122.1705-.0122.2575Zm3.7183 3.7685a3.7204 3.7204 0 0 1-2.63-1.0887 3.721 3.721 0 0 1-1.09-2.6296v-.0191a3.7314 3.7314 0 0 0 1.0871 2.6381 3.7302 3.7302 0 0 0 2.6329 1.0993Z"/>
  <path fill="#F3F3F3" d="M3.0751 14.3241c0-.0867 0-.1738.0122-.2572a3.7501 3.7501 0 0 1 1.5872-2.7813 3.6838 3.6838 0 0 1 2.119-.6762 3.7333 3.7333 0 0 1 2.6345 1.1022 3.7327 3.7327 0 0 1 1.0839 2.6422v.0122a3.7336 3.7336 0 0 1-1.084 2.63 3.7325 3.7325 0 0 1-2.6222 1.1022h-.0122a3.7324 3.7324 0 0 1-3.72-3.7375c0-.0175.0016-.026.0016-.0366Z"/>
  <path fill="#353F6E" d="M6.8075 17.4573c1.6784 0 3.039-1.3601 3.039-3.0384 0-1.6784-1.3606-3.0385-3.039-3.0385-1.6779 0-3.0385 1.3601-3.0385 3.0385 0 1.6783 1.3606 3.0384 3.0385 3.0384Z"/>
  <path fill="#F3F3F3" d="m4.0588 12.3804 5.7873.7425-.5875-.7425s-.8275-.7735-.8817-.7926c-.0537-.0191-.8462-.424-1.2063-.424-.3597 0-1.2064-.3059-1.5644-.1253-.358.1807-1.5453 1.2414-1.5453 1.2414l-.002.1005Z"/>
  <path fill="#F3F3F3" d="M9.2653 12.4536 5.302 15.0905l3.5654-1.3174-1.2967 1.1559 2.5572-.9545-.8626-1.5209Z"/>
  <path fill="#353F6E" d="M3.4852 12.2387s-1.5957-1.4395-1.6441-1.4916a.5173.5173 0 0 1-.083-.2571.5184.5184 0 0 1 .057-.2645c.1024-.1444.0207.1041.0955.2746.0745.1705 1.9591 1.217 1.9591 1.217l-.3845.5216Z"/>
  <path fill="#F3F3F3" d="m18.3014 12.3841 1.6967-1.4965a.7479.7479 0 0 0 .0574-1.0554.7469.7469 0 0 0-.5147-.2462.749.749 0 0 0-.5387.1888l-1.6723 1.4761c.4134.2905.7475.6803.9716 1.1332Z"/>
  <path fill="#CCC" d="M11.1797 14.3701v.0139a3.7175 3.7175 0 0 0 3.7062 3.7183 3.7307 3.7307 0 0 1-2.6223-1.1022 3.731 3.731 0 0 1-1.0839-2.63Zm7.4361-.0408c0-.087 0-.1741-.0118-.2575.0069.0854.0118.1705.0118.2575Zm-3.7161 3.7685a3.72 3.72 0 0 0 2.6291-1.0887 3.719 3.719 0 0 0 1.0892-2.6296v-.0191a3.7315 3.7315 0 0 1-1.0859 2.6381 3.7318 3.7318 0 0 1-2.6324 1.0993Z"/>
  <path fill="#F3F3F3" d="M18.6161 14.3268c0-.087 0-.1741-.0118-.2575a3.7583 3.7583 0 0 0-.4818-1.5685 3.7568 3.7568 0 0 0-1.1054-1.2129 3.6834 3.6834 0 0 0-2.1174-.6692 3.7352 3.7352 0 0 0-2.6357 1.1017 3.7395 3.7395 0 0 0-.8052 1.2137 3.7348 3.7348 0 0 0-.2791 1.429v.0122c0 .9854.3894 1.931 1.0839 2.6299a3.7308 3.7308 0 0 0 2.6223 1.1023h.0138a3.7306 3.7306 0 0 0 3.7184-3.7371c0-.0244-.002-.0334-.002-.0436Z"/>
  <path fill="#353F6E" d="M14.8683 17.4573c1.6784 0 3.0385-1.3601 3.0385-3.0384 0-1.6784-1.3601-3.0385-3.0385-3.0385-1.6783 0-3.0385 1.3601-3.0385 3.0385 0 1.6783 1.3602 3.0384 3.0385 3.0384Z"/>
  <path fill="#F3F3F3" d="m17.415 12.3804-5.7019.8467.3479-.7666s.9822-.8536 1.0428-.8691c.061-.0158.8398-.4276 1.1995-.4276.36 0 1.2067-.3059 1.5648-.1253.358.1807 1.5453 1.2414 1.5453 1.2414l.0016.1005Z"/>
  <path fill="#F3F3F3" d="m17.3193 12.2383-3.9616 2.6389 3.5637-1.3194-1.2971 1.1579 2.5572-.9545-.8622-1.5229Z"/>
  <path fill="#353F6E" d="M18.2425 12.3161s1.5957-1.4395 1.6445-1.4916a.5242.5242 0 0 0 .083-.2571.5234.5234 0 0 0-.0569-.2645c-.1025-.144-.0212.1046-.0977.2767s-1.957 1.2165-1.957 1.2165l.3841.52Z"/>
  <path fill="#fff" fill-rule="evenodd" d="M33.2489 8.5892c.7561 0 1.4499.1246 2.0814.3733.6315.2488 1.1794.598 1.6435 1.0479.4641.4497.8253.9807 1.0837 1.5932.2584.6124.3876 1.2823.3876 2.0096 0 .7272-.1292 1.3946-.3876 2.0024-.2584.6076-.622 1.1387-1.0908 1.5932-.469.4545-1.024.8062-1.6651 1.055-.6412.2488-1.3398.3733-2.0957.3733h-4.0765V8.5892h4.1195Zm.0431 8.598c.4881 0 .9401-.086 1.3564-.2582.4164-.1724.7799-.4188 1.0909-.7393.311-.3205.5551-.6986.7322-1.134.177-.4353.2655-.9114.2655-1.4282 0-.5262-.091-1.0071-.2728-1.4425-.1819-.4355-.4306-.8159-.7463-1.1412-.3159-.3253-.6867-.5741-1.1125-.7463-.4259-.1724-.8876-.2584-1.3851-.2584h-2.3971v7.1481h2.4688Zm6.9617-8.598h1.6936v10.0479h-1.6936V8.5892Zm12.6887 8.8421c-.3349.2584-.72.4881-1.1554.689a7.1015 7.1015 0 0 1-1.3564.4665c-.469.1101-.9331.1651-1.3924.1651-.7463 0-1.4378-.1316-2.0741-.3948-.6364-.2632-1.1962-.6292-1.6794-1.098-.4833-.4689-.8589-1.0168-1.1268-1.6435-.268-.6269-.402-1.2991-.402-2.0168s.1365-1.3851.4092-2.0024a5.0945 5.0945 0 0 1 1.1411-1.6292c.4881-.4688 1.0599-.8325 1.7153-1.0908.6555-.2584 1.3612-.3876 2.1171-.3876a5.862 5.862 0 0 1 1.414.1723c.464.1148.9066.2775 1.3277.488.421.2105.7943.464 1.1196.7608l-.9617 1.1626c-.3828-.3637-.8301-.6483-1.3421-.854-.512-.2058-1.0311-.3086-1.5575-.3086-.5166 0-.9952.0957-1.4353.287-.4402.1914-.8278.4546-1.1627.7896-.3349.3348-.5957.7248-.7823 1.1697-.1865.4451-.2798.9258-.2798 1.4426 0 .5168.0933 1 .2798 1.4497.1866.4499.4474.8446.7823 1.1842.3349.3398.7249.6053 1.1699.7968.4449.1913.9258.2869 1.4426.2869.4689 0 .9545-.0956 1.4568-.2869a5.0536 5.0536 0 0 0 .8541-.4194V13.728h1.4784v3.7033Zm2.3971-8.842h1.9665l3.4737 6.8181 3.4449-6.8182h1.9665v10.0479h-1.5646l-.0143-7.6793-3.3014 6.6315h-1.0766l-3.3301-6.6315v7.6793h-1.5646V8.5892Zm20.3442 8.6233-.3784-.9009h-5.0412l-.9726 2.3254h-1.7654l4.4353-10.0479h1.7368l3.7699 8.624c.5501 1.2591-.181 2.8289-.8733 3.5918-.0216-.8539-.2074-1.9191-.9111-3.5924Zm-.9812-2.3363-1.9229-4.5788-1.9152 4.5788h3.8381Z" clip-rule="evenodd"/>
</svg>
