<svg xmlns="http://www.w3.org/2000/svg" width="353" height="220" fill="none" viewBox="0 0 353 220">
  <g filter="url(#mailWithCheckmark_dark-filter-1)" opacity=".1">
    <ellipse cx="176.5" cy="114.5" fill="#6063F6" rx="144.5" ry="51.5"/>
  </g>
  <rect width="170" height="170" x="91" y="30" fill="#28293E" rx="20"/>
  <path fill="#242433" d="M176 81.4h.5l43.3 17.9a1.3 1.3 0 0 1 .8 1.2v20.8a1.3 1.3 0 0 1-1.3 1.3h-86.6a1.3 1.3 0 0 1-1.3-1.3v-20.8a1.3 1.3 0 0 1 .8-1.2l43.3-17.8.5-.1Zm0-7.4c-1.1 0-2.2.2-3.3.6l-43.3 17.9a8.7 8.7 0 0 0-5.4 8v20.8a8.7 8.7 0 0 0 8.7 8.7h86.6a8.7 8.7 0 0 0 8.7-8.7v-20.8a8.7 8.7 0 0 0-5.4-8l-43.3-17.9c-1-.4-2.2-.6-3.3-.6Z"/>
  <path fill="#F0F1F7" stroke="#F0F1F7" stroke-miterlimit="10" stroke-width="8.5" d="M148.8 71h54.4a8.8 8.8 0 0 1 8.8 8.7V131h-72V79.7a8.7 8.7 0 0 1 8.8-8.7Z"/>
  <path stroke="#6063F6" stroke-linecap="round" stroke-linejoin="round" stroke-miterlimit="10" stroke-width="6" d="m166.5 98.5 9.5 7.5 17.5-17.5"/>
  <path fill="#242433" d="M219.3 160h-86.6a8.7 8.7 0 0 1-8.7-8.7V100l48.7 19.8c2.1.8 4.5.8 6.6 0L228 100v51.3a8.7 8.7 0 0 1-8.7 8.7Z"/>
  <defs>
    <filter id="mailWithCheckmark_dark-filter-1" width="352.9" height="166.9" x="0" y="31" color-interpolation-filters="sRGB" filterUnits="userSpaceOnUse">
      <feFlood flood-opacity="0" result="BackgroundImageFix"/>
      <feBlend in="SourceGraphic" in2="BackgroundImageFix" result="shape"/>
      <feGaussianBlur result="effect1_foregroundBlur_22835_150087" stdDeviation="16"/>
    </filter>
  </defs>
</svg>