<svg xmlns="http://www.w3.org/2000/svg" width="279" height="184" fill="none" viewBox="0 0 279 184">
  <rect width="277.5" height="183" x="1" y=".5" stroke="#C3C6D9" rx="7.5"/>
  <g filter="url(#a)">
    <g clip-path="url(#b)">
      <path stroke="#828599" stroke-linecap="round" stroke-linejoin="round" stroke-width="1.33" d="m23.16 25.5-.54.62a3 3 0 1 1 0-4.24l3.76 4.24a3 3 0 1 0 0-4.24l-.54.61"/>
    </g>
    <path fill="#27282E" d="M41.7 29v-9.86h6.53v1.7h-4.47v2.38h4.22v1.58h-4.22v2.5h4.47V29H41.7Zm11.2.12c-1.89 0-3.06-1.47-3.06-3.88v-.01c0-2.42 1.15-3.88 3.05-3.88 1.04 0 1.88.5 2.25 1.33h.13V18.6h2V29h-2v-1.17h-.13c-.39.81-1.19 1.29-2.25 1.29Zm.67-1.66c1.06 0 1.72-.83 1.72-2.21v-.02c0-1.38-.67-2.23-1.72-2.23-1.05 0-1.7.85-1.7 2.23v.01c0 1.39.65 2.22 1.7 2.22Zm9.08 4.19c-2.09 0-3.3-.88-3.46-2.16v-.03h1.98v.03c.11.43.63.73 1.52.73 1.07 0 1.69-.5 1.69-1.37v-1.4h-.13c-.41.8-1.2 1.22-2.25 1.22-1.9 0-3.06-1.46-3.06-3.6v-.01c0-2.22 1.17-3.7 3.1-3.7 1.03 0 1.83.5 2.24 1.34h.1v-1.23h1.99v7.3c0 1.76-1.45 2.88-3.72 2.88Zm.03-4.5c1.08 0 1.72-.85 1.72-2.09v-.01c0-1.24-.65-2.08-1.72-2.08-1.08 0-1.7.84-1.7 2.08v.01c0 1.24.62 2.08 1.7 2.08Zm9 2c-2.3 0-3.69-1.49-3.69-3.9v-.01c0-2.4 1.4-3.93 3.6-3.93s3.56 1.5 3.56 3.78v.62h-5.18c.02 1.24.68 1.96 1.74 1.96.88 0 1.36-.47 1.5-.76l.02-.04h1.86l-.01.07c-.24.95-1.2 2.22-3.4 2.22Zm-.06-6.34c-.86 0-1.5.58-1.63 1.65h3.25c-.13-1.1-.75-1.65-1.62-1.65Z"/>
  </g>
  <g filter="url(#c)">
    <path fill="#828599" d="M21.73 62.23c-2.68 0-4.36-1.98-4.36-5.15v-.02c0-3.17 1.67-5.16 4.35-5.16 2.08 0 3.7 1.3 4 3.2l-.01.02h-1.24v-.02a2.71 2.71 0 0 0-2.75-2.06c-1.9 0-3.08 1.56-3.08 4.02v.02c0 2.47 1.19 4.02 3.09 4.02 1.37 0 2.42-.7 2.73-1.84l.01-.01h1.24c-.32 1.81-1.88 2.98-3.98 2.98Zm5.9-.23v-7.37h1.19v1.1h.1c.29-.78.98-1.23 1.98-1.23a4 4 0 0 1 .6.05v1.15a4.28 4.28 0 0 0-.74-.06c-1.14 0-1.94.71-1.94 1.8V62h-1.2Zm5.96-8.8a.82.82 0 0 1-.82-.81c0-.45.37-.82.82-.82.45 0 .82.37.82.82 0 .45-.37.82-.82.82Zm-.6 8.8v-7.37h1.19V62h-1.2Zm6.05.05c-1.52 0-2.16-.56-2.16-1.96v-4.47h-1.16v-.99h1.16v-1.9h1.24v1.9h1.6v.99h-1.6v4.17c0 .86.3 1.21 1.06 1.21.21 0 .33 0 .55-.03V62c-.23.04-.46.06-.7.06Zm3.1-8.84a.82.82 0 0 1-.83-.82.82.82 0 0 1 1.65 0c0 .45-.37.82-.83.82Zm-.6 8.79v-7.37h1.18V62h-1.19Zm6.44.13c-2.06 0-3.38-1.5-3.38-3.84 0-2.3 1.3-3.79 3.37-3.79 1.8 0 2.87 1.03 3.09 2.35v.04h-1.18v-.02c-.2-.73-.85-1.32-1.9-1.32-1.33 0-2.17 1.07-2.17 2.73v.01c0 1.7.85 2.79 2.16 2.79 1 0 1.62-.44 1.9-1.26l.01-.04h1.18l-.02.07c-.3 1.33-1.29 2.28-3.06 2.28Zm6.84 0c-1.4 0-2.46-.85-2.46-2.19v-.01c0-1.31.97-2.07 2.69-2.18l2.11-.13v-.66c0-.91-.55-1.4-1.65-1.4-.89 0-1.47.32-1.66.9v.02h-1.2l.01-.04c.2-1.16 1.31-1.94 2.89-1.94 1.8 0 2.8.92 2.8 2.46V62h-1.19v-1.09h-.1a2.46 2.46 0 0 1-2.24 1.22Zm-1.24-2.22c0 .75.63 1.19 1.49 1.19 1.2 0 2.09-.8 2.09-1.85v-.67l-1.97.13c-1.12.06-1.61.46-1.61 1.2ZM60.59 62V51.7h1.2V62h-1.2Zm8.04-8.8a.82.82 0 0 1-.82-.81c0-.45.37-.82.82-.82.45 0 .82.37.82.82 0 .45-.37.82-.82.82Zm-.6 8.8v-7.37h1.19V62h-1.2Zm5.96.13c-1.64 0-2.77-.8-2.9-2.01h1.21c.2.62.79 1.02 1.73 1.02 1 0 1.7-.47 1.7-1.14v-.02c0-.5-.38-.84-1.29-1.06l-1.14-.28c-1.38-.32-2-.93-2-1.99 0-1.23 1.17-2.15 2.74-2.15 1.54 0 2.62.77 2.78 1.98h-1.17c-.16-.58-.73-.99-1.62-.99-.87 0-1.52.45-1.52 1.1v.02c0 .5.37.81 1.24 1.02l1.14.28c1.38.33 2.05.93 2.05 1.98v.02c0 1.31-1.27 2.22-2.95 2.22Zm7.2 0c-1.65 0-2.78-.8-2.91-2.01h1.21c.2.62.79 1.02 1.73 1.02 1 0 1.7-.47 1.7-1.14v-.02c0-.5-.38-.84-1.29-1.06l-1.14-.28c-1.38-.32-2-.93-2-1.99 0-1.23 1.17-2.15 2.74-2.15 1.54 0 2.62.77 2.78 1.98h-1.17c-.15-.58-.73-.99-1.62-.99-.87 0-1.51.45-1.51 1.1v.02c0 .5.36.81 1.23 1.02l1.14.28c1.38.33 2.05.93 2.05 1.98v.02c0 1.31-1.27 2.22-2.95 2.22Zm7.26 0c-1.68 0-2.54-.98-2.54-2.73v-4.77h1.2v4.49c0 1.32.47 1.96 1.65 1.96 1.3 0 1.99-.8 1.99-2.09v-4.36h1.18V62h-1.18v-1.1h-.11c-.37.79-1.11 1.23-2.2 1.23Zm8.71 0c-2.1 0-3.37-1.48-3.37-3.79 0-2.28 1.3-3.84 3.3-3.84 2 0 3.22 1.5 3.22 3.7v.46H95c.03 1.52.87 2.41 2.18 2.41 1 0 1.61-.47 1.81-.92l.03-.06h1.19l-.01.06c-.26 1-1.31 1.98-3.05 1.98Zm-.08-6.57c-1.1 0-1.93.75-2.06 2.15h4.08c-.12-1.46-.93-2.15-2.02-2.15Zm7.6 6.57c-1.64 0-2.77-.8-2.9-2.01H103c.2.62.78 1.02 1.72 1.02 1 0 1.7-.47 1.7-1.14v-.02c0-.5-.38-.84-1.28-1.06l-1.15-.28c-1.38-.32-2-.93-2-1.99 0-1.23 1.18-2.15 2.74-2.15 1.55 0 2.62.77 2.78 1.98h-1.17c-.15-.58-.73-.99-1.62-.99-.87 0-1.51.45-1.51 1.1v.02c0 .5.37.81 1.23 1.02l1.14.28c1.39.33 2.06.93 2.06 1.98v.02c0 1.31-1.28 2.22-2.96 2.22Z"/>
    <path fill="#FF7E7E" d="M249.99 62.25c-2.1 0-3.94-1.5-3.94-5.06 0-3.33 1.5-5.3 3.98-5.3 1.81 0 3.16 1.07 3.48 2.58l.01.08h-1.73l-.03-.07c-.25-.69-.86-1.14-1.73-1.14-1.57 0-2.23 1.53-2.3 3.42l-.01.22h.13c.37-.78 1.23-1.47 2.58-1.47 1.9 0 3.22 1.38 3.22 3.26v.01c0 2-1.52 3.47-3.66 3.47Zm-1.97-3.45a1.96 1.96 0 1 0 3.91.04v-.01c0-1.14-.81-1.96-1.94-1.96a1.9 1.9 0 0 0-1.97 1.92v.01ZM256 62l4.28-8.31v-.11h-5.08v-1.44h6.86v1.47L257.83 62H256Z"/>
    <path fill="#27282E" d="M249.99 62.25c-2.1 0-3.94-1.5-3.94-5.06 0-3.33 1.5-5.3 3.98-5.3 1.81 0 3.16 1.07 3.48 2.58l.01.08h-1.73l-.03-.07c-.25-.69-.86-1.14-1.73-1.14-1.57 0-2.23 1.53-2.3 3.42l-.01.22h.13c.37-.78 1.23-1.47 2.58-1.47 1.9 0 3.22 1.38 3.22 3.26v.01c0 2-1.52 3.47-3.66 3.47Zm-1.97-3.45a1.96 1.96 0 1 0 3.91.04v-.01c0-1.14-.81-1.96-1.94-1.96a1.9 1.9 0 0 0-1.97 1.92v.01ZM256 62l4.28-8.31v-.11h-5.08v-1.44h6.86v1.47L257.83 62H256Z"/>
    <path fill="#828599" d="M20.32 96v-8.76h-3.18v-1.1h7.59v1.1h-3.18V96h-1.23Zm5.14 0v-7.37h1.18v1.1h.11c.28-.78.97-1.23 1.97-1.23a4 4 0 0 1 .6.05v1.15a4.28 4.28 0 0 0-.73-.06c-1.14 0-1.95.71-1.95 1.8V96h-1.18Zm7.35.13c-1.4 0-2.46-.85-2.46-2.19v-.01c0-1.31.97-2.07 2.69-2.18l2.1-.13v-.66c0-.91-.55-1.4-1.65-1.4-.88 0-1.46.32-1.65.9v.02h-1.2l.01-.04c.2-1.16 1.31-1.94 2.89-1.94 1.8 0 2.8.92 2.8 2.46V96h-1.2v-1.09h-.1a2.46 2.46 0 0 1-2.23 1.22Zm-1.24-2.21c0 .74.63 1.18 1.49 1.18 1.2 0 2.09-.8 2.09-1.85v-.67l-1.97.13c-1.12.06-1.61.46-1.61 1.2Zm9.96 2.21c-2.07 0-3.39-1.5-3.39-3.84 0-2.3 1.32-3.79 3.38-3.79 1.79 0 2.86 1.03 3.08 2.35v.04h-1.17l-.01-.02c-.18-.73-.84-1.32-1.9-1.32-1.33 0-2.16 1.07-2.16 2.73v.01c0 1.7.85 2.79 2.16 2.79 1 0 1.62-.44 1.9-1.26v-.04h1.18l-.01.07c-.3 1.33-1.3 2.28-3.06 2.28Zm7.82 0c-2.1 0-3.37-1.48-3.37-3.79 0-2.28 1.3-3.84 3.3-3.84 2 0 3.22 1.5 3.22 3.7v.46h-5.3c.03 1.52.87 2.41 2.18 2.41 1 0 1.61-.47 1.81-.92l.03-.06h1.19l-.01.06c-.26 1-1.31 1.98-3.05 1.98Zm-.08-6.57c-1.1 0-1.93.75-2.06 2.15h4.08c-.13-1.46-.93-2.15-2.02-2.15Zm7.6 6.57c-1.64 0-2.77-.8-2.9-2.01h1.21c.2.62.8 1.02 1.73 1.02 1 0 1.7-.47 1.7-1.14v-.02c0-.5-.38-.84-1.29-1.06l-1.14-.28c-1.38-.32-2-.93-2-1.99 0-1.23 1.18-2.15 2.74-2.15 1.55 0 2.62.77 2.78 1.98h-1.17c-.15-.58-.73-.99-1.62-.99-.87 0-1.51.45-1.51 1.1v.02c0 .5.37.81 1.23 1.02l1.14.28c1.39.33 2.06.93 2.06 1.98v.02c0 1.31-1.28 2.22-2.96 2.22Zm7.95-10.42-3.11 12.75h-1.15l3.12-12.75h1.14Zm3.65 10.42c-1.64 0-2.77-.8-2.9-2.01h1.2c.2.62.8 1.02 1.74 1.02.99 0 1.7-.47 1.7-1.14v-.02c0-.5-.38-.84-1.3-1.06l-1.13-.28c-1.38-.32-2-.93-2-1.99 0-1.23 1.17-2.15 2.73-2.15 1.55 0 2.62.77 2.79 1.98h-1.17c-.16-.58-.73-.99-1.62-.99-.88 0-1.52.45-1.52 1.1v.02c0 .5.37.81 1.24 1.02l1.13.28c1.39.33 2.06.93 2.06 1.98v.02c0 1.31-1.28 2.22-2.95 2.22Zm7.8 0c-2.1 0-3.37-1.48-3.37-3.79 0-2.28 1.3-3.84 3.3-3.84 2 0 3.22 1.5 3.22 3.7v.46h-5.3c.03 1.52.87 2.41 2.18 2.41 1 0 1.61-.47 1.81-.92l.03-.06h1.19l-.01.06c-.26 1-1.31 1.98-3.05 1.98Zm-.08-6.57c-1.1 0-1.93.75-2.06 2.15h4.08c-.13-1.46-.93-2.15-2.02-2.15Zm8.09 6.57c-2.07 0-3.39-1.5-3.39-3.84 0-2.3 1.32-3.79 3.38-3.79 1.8 0 2.87 1.03 3.08 2.35l.01.04h-1.18v-.02c-.2-.73-.85-1.32-1.9-1.32-1.33 0-2.17 1.07-2.17 2.73v.01c0 1.7.85 2.79 2.16 2.79 1 0 1.62-.44 1.9-1.26v-.04h1.18v.07c-.31 1.33-1.3 2.28-3.07 2.28Zm7.85 0c-2.1 0-3.4-1.45-3.4-3.8v-.02c0-2.37 1.3-3.8 3.4-3.8 2.1 0 3.4 1.43 3.4 3.8v.01c0 2.36-1.3 3.81-3.4 3.81Zm0-1.05c1.4 0 2.18-1.02 2.18-2.76v-.01c0-1.74-.79-2.76-2.18-2.76-1.4 0-2.18 1.02-2.18 2.76v.01c0 1.74.78 2.76 2.18 2.76Zm5.24.92v-7.37h1.19v1.1h.1c.38-.77 1.07-1.23 2.15-1.23 1.66 0 2.58.98 2.58 2.73V96h-1.19v-4.48c0-1.33-.55-1.97-1.72-1.97-1.18 0-1.92.8-1.92 2.09V96h-1.2Zm10.9.13c-1.87 0-3.1-1.51-3.1-3.8v-.02c0-2.31 1.22-3.8 3.1-3.8 1 0 1.89.5 2.3 1.28h.1v-4.08h1.2V96h-1.2v-1.18h-.1a2.52 2.52 0 0 1-2.3 1.31Zm.27-1.05c1.34 0 2.16-1.06 2.16-2.76v-.01c0-1.7-.82-2.76-2.16-2.76-1.35 0-2.15 1.04-2.15 2.76v.01c0 1.72.8 2.76 2.15 2.76Z"/>
    <path fill="#FF7E7E" d="M239.7 96.25c-2.02 0-3.38-1.23-3.51-2.85v-.1h1.62v.05c.14.81.88 1.45 1.9 1.45 1.15 0 1.94-.81 1.94-1.97v-.02c0-1.14-.8-1.95-1.93-1.95a2.02 2.02 0 0 0-1.86 1.05h-1.5l.47-5.77h5.92v1.44h-4.54l-.28 3h.12a2.4 2.4 0 0 1 2.1-1.05 3.1 3.1 0 0 1 3.18 3.25v.01c0 2.05-1.5 3.46-3.63 3.46Zm9.18-.05c-2.27 0-3.84-1.18-3.84-2.87v-.01c0-1.26.92-2.24 2.23-2.5v-.05c-1.13-.3-1.88-1.13-1.88-2.19v-.01c0-1.52 1.45-2.63 3.5-2.63 2.04 0 3.49 1.11 3.49 2.63v.01c0 1.06-.75 1.89-1.88 2.19v.04c1.32.27 2.23 1.25 2.23 2.51v.01c0 1.7-1.58 2.87-3.85 2.87Zm0-5.99c1.04 0 1.75-.6 1.75-1.46v-.02c0-.86-.71-1.46-1.75-1.46-1.03 0-1.75.6-1.75 1.46v.02c0 .86.72 1.46 1.75 1.46Zm0 4.64c1.19 0 2.03-.68 2.03-1.63v-.02c0-.95-.84-1.64-2.03-1.64-1.2 0-2.02.69-2.02 1.64v.02c0 .95.84 1.63 2.02 1.63Zm9.48 1.4c-2.1 0-3.94-1.5-3.94-5.06 0-3.33 1.5-5.3 3.98-5.3 1.81 0 3.16 1.07 3.48 2.58l.01.08h-1.73l-.02-.07c-.26-.69-.87-1.14-1.74-1.14-1.57 0-2.23 1.53-2.3 3.42l-.01.22h.14c.36-.78 1.22-1.47 2.57-1.47 1.9 0 3.22 1.38 3.22 3.26v.01c0 2-1.52 3.47-3.66 3.47Zm-1.96-3.45a1.95 1.95 0 1 0 3.9.04v-.01c0-1.14-.81-1.96-1.94-1.96a1.9 1.9 0 0 0-1.96 1.92v.01Z"/>
    <path fill="#27282E" d="M239.7 96.25c-2.02 0-3.38-1.23-3.51-2.85v-.1h1.62v.05c.14.81.88 1.45 1.9 1.45 1.15 0 1.94-.81 1.94-1.97v-.02c0-1.14-.8-1.95-1.93-1.95a2.02 2.02 0 0 0-1.86 1.05h-1.5l.47-5.77h5.92v1.44h-4.54l-.28 3h.12a2.4 2.4 0 0 1 2.1-1.05 3.1 3.1 0 0 1 3.18 3.25v.01c0 2.05-1.5 3.46-3.63 3.46Zm9.18-.05c-2.27 0-3.84-1.18-3.84-2.87v-.01c0-1.26.92-2.24 2.23-2.5v-.05c-1.13-.3-1.88-1.13-1.88-2.19v-.01c0-1.52 1.45-2.63 3.5-2.63 2.04 0 3.49 1.11 3.49 2.63v.01c0 1.06-.75 1.89-1.88 2.19v.04c1.32.27 2.23 1.25 2.23 2.51v.01c0 1.7-1.58 2.87-3.85 2.87Zm0-5.99c1.04 0 1.75-.6 1.75-1.46v-.02c0-.86-.71-1.46-1.75-1.46-1.03 0-1.75.6-1.75 1.46v.02c0 .86.72 1.46 1.75 1.46Zm0 4.64c1.19 0 2.03-.68 2.03-1.63v-.02c0-.95-.84-1.64-2.03-1.64-1.2 0-2.02.69-2.02 1.64v.02c0 .95.84 1.63 2.02 1.63Zm9.48 1.4c-2.1 0-3.94-1.5-3.94-5.06 0-3.33 1.5-5.3 3.98-5.3 1.81 0 3.16 1.07 3.48 2.58l.01.08h-1.73l-.02-.07c-.26-.69-.87-1.14-1.74-1.14-1.57 0-2.23 1.53-2.3 3.42l-.01.22h.14c.36-.78 1.22-1.47 2.57-1.47 1.9 0 3.22 1.38 3.22 3.26v.01c0 2-1.52 3.47-3.66 3.47Zm-1.96-3.45a1.95 1.95 0 1 0 3.9.04v-.01c0-1.14-.81-1.96-1.94-1.96a1.9 1.9 0 0 0-1.96 1.92v.01Z"/>
    <path fill="#828599" d="m16.97 130 3.64-9.86h1.22l3.63 9.86h-1.29l-1-2.82h-3.92l-.99 2.82h-1.29Zm4.2-8.27-1.55 4.4h3.2l-1.55-4.4h-.1Zm8.26 8.4c-1.64 0-2.77-.8-2.9-2.01h1.22c.2.62.78 1.02 1.72 1.02 1 0 1.7-.47 1.7-1.14v-.02c0-.5-.38-.84-1.29-1.06l-1.14-.28c-1.38-.33-2-.93-2-1.99 0-1.23 1.18-2.15 2.74-2.15 1.55 0 2.62.77 2.78 1.98H31.1c-.15-.58-.73-.99-1.62-.99-.87 0-1.51.45-1.51 1.1v.02c0 .5.37.81 1.23 1.02l1.14.28c1.39.33 2.06.93 2.06 1.98v.02c0 1.31-1.28 2.22-2.96 2.22Zm7.2 0c-1.65 0-2.77-.8-2.91-2.01h1.22c.2.62.78 1.02 1.73 1.02.99 0 1.7-.47 1.7-1.14v-.02c0-.5-.38-.84-1.3-1.06l-1.14-.28c-1.38-.33-2-.93-2-1.99 0-1.23 1.18-2.15 2.74-2.15 1.55 0 2.62.77 2.79 1.98h-1.17c-.16-.58-.74-.99-1.62-.99-.88 0-1.52.45-1.52 1.1v.02c0 .5.37.81 1.24 1.02l1.13.28c1.39.33 2.06.93 2.06 1.98v.02c0 1.31-1.28 2.22-2.95 2.22Zm7.8 0c-2.1 0-3.38-1.48-3.38-3.79 0-2.28 1.3-3.84 3.3-3.84 2 0 3.23 1.5 3.23 3.7v.46h-5.3c.03 1.52.87 2.41 2.18 2.41 1 0 1.61-.47 1.81-.92l.03-.06h1.19l-.02.06c-.25 1-1.3 1.98-3.04 1.98Zm-.08-6.57c-1.1 0-1.93.75-2.06 2.15h4.08c-.13-1.46-.93-2.15-2.02-2.15Zm7.69 6.5c-1.52 0-2.15-.57-2.15-1.97v-4.48h-1.17v-.98h1.17v-1.9h1.23v1.9h1.61v.98h-1.61v4.17c0 .87.3 1.22 1.06 1.22.22 0 .33 0 .55-.03V130c-.23.04-.46.06-.69.06Zm4.86.07c-1.64 0-2.77-.8-2.9-2.01h1.21c.2.62.79 1.02 1.73 1.02 1 0 1.7-.47 1.7-1.14v-.02c0-.5-.38-.84-1.29-1.06l-1.14-.28c-1.38-.33-2-.93-2-1.99 0-1.23 1.17-2.15 2.74-2.15 1.54 0 2.62.77 2.78 1.98h-1.17c-.16-.58-.73-.99-1.62-.99-.87 0-1.52.45-1.52 1.1v.02c0 .5.37.81 1.24 1.02l1.14.28c1.38.33 2.05.93 2.05 1.98v.02c0 1.31-1.27 2.22-2.95 2.22Z"/>
    <path fill="#FF7E7E" d="M240.77 130v-1.9h-4.83v-1.44a129.7 129.7 0 0 1 4.02-6.52h2.5v6.51h1.32v1.46h-1.32V130h-1.69Zm-3.19-3.3h3.22v-5.16h-.1a102.55 102.55 0 0 0-3.12 5.05v.1Zm11.61 3.5c-2.16 0-3.57-1.18-3.7-2.87l-.01-.08h1.68v.08c.1.83.88 1.43 2.03 1.43 1.14 0 1.9-.64 1.9-1.56v-.01c0-1.04-.76-1.61-2.03-1.61h-1.16v-1.31h1.13c1.08 0 1.8-.62 1.8-1.48v-.02c0-.9-.6-1.43-1.65-1.43-1.04 0-1.76.55-1.85 1.43v.07h-1.65l.01-.07c.15-1.71 1.5-2.83 3.49-2.83 2.03 0 3.35 1.06 3.35 2.6v.02c0 1.22-.88 2.03-2.07 2.28v.03c1.45.14 2.42 1 2.42 2.37v.01c0 1.74-1.5 2.95-3.69 2.95Zm9.16.05c-2.02 0-3.38-1.23-3.51-2.85v-.1h1.62v.05c.14.81.88 1.45 1.9 1.45 1.15 0 1.94-.81 1.94-1.97v-.02c0-1.14-.8-1.95-1.94-1.95a2.02 2.02 0 0 0-1.85 1.05h-1.5l.47-5.77h5.92v1.44h-4.55l-.27 3h.12a2.4 2.4 0 0 1 2.1-1.05 3.1 3.1 0 0 1 3.18 3.25v.01c0 2.05-1.5 3.46-3.63 3.46Z"/>
    <path fill="#27282E" d="M240.77 130v-1.9h-4.83v-1.44a129.7 129.7 0 0 1 4.02-6.52h2.5v6.51h1.32v1.46h-1.32V130h-1.69Zm-3.19-3.3h3.22v-5.16h-.1a102.55 102.55 0 0 0-3.12 5.05v.1Zm11.61 3.5c-2.16 0-3.57-1.18-3.7-2.87l-.01-.08h1.68v.08c.1.83.88 1.43 2.03 1.43 1.14 0 1.9-.64 1.9-1.56v-.01c0-1.04-.76-1.61-2.03-1.61h-1.16v-1.31h1.13c1.08 0 1.8-.62 1.8-1.48v-.02c0-.9-.6-1.43-1.65-1.43-1.04 0-1.76.55-1.85 1.43v.07h-1.65l.01-.07c.15-1.71 1.5-2.83 3.49-2.83 2.03 0 3.35 1.06 3.35 2.6v.02c0 1.22-.88 2.03-2.07 2.28v.03c1.45.14 2.42 1 2.42 2.37v.01c0 1.74-1.5 2.95-3.69 2.95Zm9.16.05c-2.02 0-3.38-1.23-3.51-2.85v-.1h1.62v.05c.14.81.88 1.45 1.9 1.45 1.15 0 1.94-.81 1.94-1.97v-.02c0-1.14-.8-1.95-1.94-1.95a2.02 2.02 0 0 0-1.85 1.05h-1.5l.47-5.77h5.92v1.44h-4.55l-.27 3h.12a2.4 2.4 0 0 1 2.1-1.05 3.1 3.1 0 0 1 3.18 3.25v.01c0 2.05-1.5 3.46-3.63 3.46Z"/>
    <path fill="#828599" d="M21 164.23c-2.17 0-3.56-1.13-3.7-2.74l-.01-.07h1.23v.07c.1.99 1.12 1.6 2.54 1.6 1.34 0 2.32-.68 2.32-1.69 0-.83-.57-1.39-1.92-1.69l-1.1-.24c-1.97-.43-2.83-1.34-2.83-2.77 0-1.64 1.44-2.8 3.47-2.8 1.97 0 3.35 1.16 3.45 2.63v.1h-1.22l-.02-.09c-.13-.87-.95-1.5-2.24-1.5-1.23 0-2.18.59-2.18 1.62 0 .8.54 1.32 1.88 1.62l1.1.24c2.05.46 2.86 1.29 2.86 2.71 0 1.85-1.44 3-3.64 3Zm7.56-.1c-1.4 0-2.46-.85-2.46-2.19v-.01c0-1.31.97-2.07 2.68-2.18l2.12-.13v-.66c0-.91-.56-1.4-1.66-1.4-.88 0-1.46.32-1.65.9v.02h-1.2v-.04c.2-1.16 1.32-1.94 2.9-1.94 1.8 0 2.8.92 2.8 2.46V164h-1.2v-1.09h-.1a2.46 2.46 0 0 1-2.23 1.22Zm-1.25-2.22c0 .75.64 1.19 1.5 1.19 1.2 0 2.09-.8 2.09-1.85v-.67l-1.97.13c-1.12.06-1.62.46-1.62 1.2Zm6.95 2.09v-7.37h1.19v1.12h.1c.34-.8 1.03-1.25 2-1.25 1 0 1.7.53 2.04 1.3h.1c.4-.79 1.24-1.3 2.26-1.3 1.5 0 2.34.86 2.34 2.4v5.1h-1.18v-4.82c0-1.09-.5-1.63-1.54-1.63-1.03 0-1.7.78-1.7 1.71V164h-1.2v-5c0-.88-.6-1.45-1.53-1.45-.96 0-1.7.84-1.7 1.88V164h-1.18Zm12.18 2.46v-9.83h1.2v1.18h.1a2.52 2.52 0 0 1 2.3-1.3c1.86 0 3.09 1.5 3.09 3.8v.01c0 2.31-1.22 3.81-3.1 3.81-1 0-1.89-.5-2.29-1.3h-.1v3.63h-1.2Zm3.32-3.38c1.35 0 2.15-1.04 2.15-2.76v-.01c0-1.72-.8-2.76-2.15-2.76-1.34 0-2.16 1.06-2.16 2.76v.01c0 1.7.82 2.76 2.16 2.76Zm5.3.92v-10.3h1.18V164h-1.19Zm4.1-8.8a.82.82 0 0 1-.82-.81c0-.45.37-.82.82-.82.45 0 .82.37.82.82 0 .45-.37.82-.82.82Zm-.6 8.8v-7.37h1.18V164h-1.19Zm3.43 0v-7.37h1.19v1.1h.1c.37-.77 1.06-1.23 2.15-1.23 1.66 0 2.58.98 2.58 2.73V164h-1.2v-4.48c0-1.33-.54-1.97-1.71-1.97-1.18 0-1.92.8-1.92 2.09V164h-1.2Zm11.2 2.6c-1.77 0-2.9-.8-3.09-2.01h1.25c.13.56.79.95 1.85.95 1.32 0 2.1-.62 2.1-1.7v-1.5h-.1a2.56 2.56 0 0 1-2.32 1.28c-1.9 0-3.09-1.48-3.09-3.54v-.02c0-2.06 1.2-3.56 3.12-3.56a2.5 2.5 0 0 1 2.3 1.35h.08v-1.22h1.19v7.27c0 1.64-1.27 2.7-3.28 2.7Zm-.05-4.04c1.37 0 2.19-1.02 2.19-2.48v-.02c0-1.46-.83-2.5-2.19-2.5-1.36 0-2.13 1.04-2.13 2.5v.02c0 1.46.77 2.48 2.13 2.48Z"/>
    <path fill="#2DDABB" d="M231.52 164v-1.19l3.24-3.3c1.34-1.36 1.72-1.86 1.72-2.62v-.02c0-.9-.62-1.56-1.65-1.56-1.05 0-1.75.69-1.75 1.7v.03h-1.65V157c0-1.83 1.43-3.12 3.49-3.12 1.92 0 3.3 1.17 3.3 2.83v.02c0 1.12-.54 2.01-2.34 3.74l-1.97 1.91v.15h4.46V164h-6.85Zm13.22 0v-1.9h-4.82v-1.44a130.8 130.8 0 0 1 4.02-6.52h2.5v6.51h1.32v1.46h-1.33V164h-1.69Zm-3.18-3.3h3.21v-5.16h-.1a101.79 101.79 0 0 0-3.11 5.05v.1Zm10.12-1.24c-1.39 0-2.22-1.05-2.22-2.73 0-1.69.83-2.73 2.22-2.73 1.37 0 2.21 1.04 2.21 2.73s-.84 2.73-2.21 2.73Zm1.22 4.54h-1.4l6.66-9.86h1.41l-6.66 9.86Zm-1.22-5.53c.62 0 .98-.64.98-1.74 0-1.11-.36-1.74-.98-1.74-.63 0-.98.63-.98 1.74 0 1.1.35 1.74.98 1.74Zm7.71 5.67c-1.38 0-2.22-1.06-2.22-2.74 0-1.69.84-2.72 2.22-2.72 1.38 0 2.22 1.03 2.22 2.72 0 1.68-.84 2.74-2.22 2.74Zm0-1c.63 0 .99-.63.99-1.74 0-1.1-.37-1.73-.99-1.73-.63 0-.98.63-.98 1.73 0 1.11.35 1.75.98 1.75Z"/>
  </g>
  <defs>
    <filter id="a" width="266.5" height="36" x="6.5" y="6" color-interpolation-filters="sRGB" filterUnits="userSpaceOnUse">
      <feFlood flood-opacity="0" result="BackgroundImageFix"/>
      <feBlend in="SourceGraphic" in2="BackgroundImageFix" result="shape"/>
      <feGaussianBlur result="effect1_foregroundBlur_19372_219121" stdDeviation="5"/>
    </filter>
    <filter id="c" width="266.5" height="140" x="6.5" y="38" color-interpolation-filters="sRGB" filterUnits="userSpaceOnUse">
      <feFlood flood-opacity="0" result="BackgroundImageFix"/>
      <feBlend in="SourceGraphic" in2="BackgroundImageFix" result="shape"/>
      <feGaussianBlur result="effect1_foregroundBlur_19372_219121" stdDeviation="5"/>
    </filter>
    <clipPath id="b">
      <path fill="#fff" d="M16.5 16h16v16h-16z"/>
    </clipPath>
  </defs>
</svg>
