<svg xmlns="http://www.w3.org/2000/svg" width="279" height="176" fill="none" viewBox="0 0 279 176">
  <rect width="277.5" height="175" x=".5" y=".5" stroke="#37383F" rx="7.5"/>
  <g filter="url(#a)">
    <g clip-path="url(#b)">
      <path stroke="#828599" stroke-linecap="round" stroke-linejoin="round" stroke-width="1.33" d="m22.66 25.5-.54.62a3 3 0 1 1 0-4.24l3.76 4.24a3 3 0 1 0 0-4.24l-.54.61"/>
    </g>
    <path fill="#fff" d="M41.2 29v-9.86h4.06c2.08 0 3.47 1.34 3.47 3.37 0 2.04-1.39 3.38-3.47 3.38h-2V29H41.2Zm3.56-8.23h-1.5v3.5h1.5c1.18 0 1.88-.62 1.88-1.74v-.02c0-1.12-.7-1.74-1.88-1.74ZM50.43 29v-7.53h2v1.17h.12c.24-.81.92-1.29 1.9-1.29.27 0 .55.04.75.1v1.74c-.3-.07-.61-.12-.92-.12-1.13 0-1.85.65-1.85 1.72V29h-2Zm9.26.16c-2.31 0-3.7-1.47-3.7-3.92v-.01c0-2.43 1.4-3.92 3.7-3.92 2.3 0 3.72 1.48 3.72 3.92v.01c0 2.45-1.4 3.92-3.72 3.92Zm0-1.57c1.06 0 1.67-.87 1.67-2.35v-.01c0-1.47-.61-2.36-1.67-2.36s-1.66.89-1.66 2.36v.01c0 1.48.6 2.35 1.66 2.35Zm8.03 1.53c-1.88 0-3.06-1.47-3.06-3.88v-.01c0-2.42 1.15-3.88 3.06-3.88 1.03 0 1.87.5 2.25 1.33h.12V18.6h2V29h-2v-1.17h-.12c-.4.81-1.2 1.29-2.25 1.29Zm.68-1.66c1.06 0 1.71-.83 1.71-2.21v-.02c0-1.38-.66-2.23-1.71-2.23-1.06 0-1.7.85-1.7 2.23v.01c0 1.39.64 2.22 1.7 2.22Zm8.24 1.7c-1.69 0-2.56-1.03-2.56-2.82v-4.87h2v4.41c0 1.07.4 1.62 1.35 1.62.98 0 1.51-.66 1.51-1.68v-4.35h2V29h-2v-1.16h-.12c-.34.82-1.1 1.32-2.18 1.32Zm9.62 0c-2.35 0-3.69-1.43-3.69-3.93v-.02c0-2.47 1.33-3.9 3.69-3.9 2 0 3.18 1.09 3.36 2.77v.02h-1.86l-.01-.02c-.13-.73-.63-1.2-1.48-1.2-1.08 0-1.67.83-1.67 2.33v.02c0 1.52.6 2.36 1.67 2.36.82 0 1.3-.39 1.48-1.14l.01-.03h1.85v.04c-.21 1.64-1.39 2.7-3.35 2.7Zm8.1-.13c-1.83 0-2.56-.6-2.56-2.06v-4h-1.17v-1.5h1.17v-1.8h2.01v1.8h1.55v1.5h-1.55v3.54c0 .68.29.98.97.98.26 0 .4-.01.58-.03v1.48c-.24.05-.61.09-1 .09Zm3.68-8.71c-.61 0-1.12-.5-1.12-1.1 0-.63.5-1.12 1.12-1.12.62 0 1.13.49 1.13 1.11 0 .62-.51 1.1-1.13 1.1Zm-1 8.68v-7.53h2V29h-2Zm7.35.16c-2.32 0-3.71-1.47-3.71-3.92v-.01c0-2.43 1.41-3.92 3.7-3.92 2.3 0 3.72 1.48 3.72 3.92v.01c0 2.45-1.4 3.92-3.71 3.92Zm0-1.57c1.06 0 1.67-.87 1.67-2.35v-.01c0-1.47-.62-2.36-1.67-2.36-1.06 0-1.67.89-1.67 2.36v.01c0 1.48.6 2.35 1.67 2.35Zm5.34 1.41v-7.53h2v1.17h.12c.34-.82 1.08-1.33 2.16-1.33 1.67 0 2.57 1.03 2.57 2.82V29h-2v-4.42c0-1.06-.43-1.62-1.37-1.62-.93 0-1.49.67-1.49 1.69V29h-2Z"/>
  </g>
  <g filter="url(#c)">
    <path fill="#fff" d="M113.73 81v-9.86h1.53l4.85 6.8h.1v-6.8h1.7V81h-1.52l-4.85-6.8h-.1V81h-1.7Zm13.67.15c-2.24 0-3.6-1.46-3.6-3.88v-.02c0-2.4 1.38-3.87 3.6-3.87 2.23 0 3.6 1.47 3.6 3.87v.02c0 2.42-1.36 3.88-3.6 3.88Zm0-1.38c1.19 0 1.86-.92 1.86-2.5s-.68-2.51-1.86-2.51c-1.18 0-1.86.93-1.86 2.5v.01c0 1.58.68 2.5 1.86 2.5Zm11.73 1.35c-1.87 0-3.06-1.48-3.06-3.85 0-2.39 1.17-3.86 3.06-3.86 1.03 0 1.88.5 2.27 1.3h.12v-4.07h1.7V81h-1.7v-1.17h-.12c-.4.81-1.21 1.3-2.27 1.3Zm.54-1.43c1.16 0 1.88-.92 1.88-2.42s-.73-2.43-1.88-2.43c-1.16 0-1.87.92-1.87 2.42v.01c0 1.5.7 2.42 1.87 2.42Zm7.74 1.43c-1.43 0-2.46-.87-2.46-2.23v-.02c0-1.33 1.02-2.1 2.84-2.22l1.92-.11v-.65c0-.74-.49-1.15-1.4-1.15-.78 0-1.29.28-1.46.77v.03h-1.61v-.06c.17-1.26 1.37-2.1 3.15-2.1 1.92 0 3 .93 3 2.51V81h-1.68v-1.03h-.12c-.4.73-1.2 1.15-2.19 1.15Zm-.78-2.31c0 .63.54 1 1.3 1 1.02 0 1.78-.66 1.78-1.55v-.6l-1.68.1c-.95.07-1.4.42-1.4 1.03v.02Zm9.74 2.22c-1.71 0-2.42-.57-2.42-2.01v-4.17h-1.16v-1.32h1.16V71.7h1.73v1.83h1.58v1.32h-1.58v3.76c0 .75.3 1.06 1 1.06.25 0 .38 0 .58-.02v1.3c-.24.06-.56.08-.89.08Zm4.63.1c-1.43 0-2.46-.88-2.46-2.24v-.02c0-1.33 1.02-2.1 2.84-2.22l1.92-.11v-.65c0-.74-.49-1.15-1.4-1.15-.78 0-1.29.28-1.46.77v.03h-1.61v-.06c.17-1.26 1.37-2.1 3.15-2.1 1.92 0 3 .93 3 2.51V81h-1.68v-1.03h-.12c-.4.73-1.2 1.15-2.19 1.15Zm-.78-2.32c0 .63.54 1 1.3 1 1.02 0 1.78-.66 1.78-1.55v-.6l-1.68.1c-.95.07-1.4.42-1.4 1.03v.02Z"/>
    <path fill="#828599" d="M58.1 101v-8.46h5.24v.95h-4.18v2.72h3.97v.93h-3.97v2.91h4.18v.95H58.1Zm7.02 0v-6.32h1.02v.95h.1c.31-.67.9-1.06 1.84-1.06 1.41 0 2.2.84 2.2 2.34V101h-1.01v-3.84c0-1.14-.47-1.69-1.48-1.69-1 0-1.65.68-1.65 1.8V101h-1.02Zm8.56 0-2.33-6.32h1.07l1.73 5.2h.1l1.72-5.2h1.08L74.71 101h-1.03Zm5.26-7.54a.7.7 0 0 1-.7-.7c0-.39.31-.7.7-.7.39 0 .7.31.7.7a.7.7 0 0 1-.7.7Zm-.52 7.54v-6.32h1.02V101h-1.02Zm2.95 0v-6.32h1.01v.94h.1c.24-.66.83-1.05 1.69-1.05.19 0 .4.03.5.04v1a3.1 3.1 0 0 0-.62-.07c-.97 0-1.67.62-1.67 1.55V101h-1.01Zm6.99.11c-1.8 0-2.92-1.24-2.92-3.26v-.01c0-2.03 1.12-3.27 2.92-3.27 1.8 0 2.9 1.24 2.9 3.27 0 2.03-1.1 3.27-2.9 3.27Zm0-.9c1.2 0 1.86-.87 1.86-2.36v-.01c0-1.5-.67-2.37-1.86-2.37-1.2 0-1.87.87-1.87 2.37s.67 2.37 1.87 2.37Zm4.49.79v-6.32h1.02v.95h.1c.3-.67.9-1.06 1.83-1.06 1.42 0 2.21.84 2.21 2.34V101H97v-3.84c0-1.14-.47-1.69-1.47-1.69-1.01 0-1.65.68-1.65 1.8V101h-1.02Zm7 0v-6.32h1.03v.96h.1c.27-.68.87-1.07 1.7-1.07.85 0 1.45.45 1.74 1.11h.1a2.11 2.11 0 0 1 1.93-1.1c1.29 0 2 .73 2 2.05V101h-1.01v-4.13c0-.93-.43-1.4-1.32-1.4-.88 0-1.46.67-1.46 1.47V101h-1.02v-4.29c0-.75-.51-1.24-1.31-1.24-.83 0-1.45.73-1.45 1.62V101h-1.02Zm13.03.11c-1.8 0-2.9-1.26-2.9-3.24v-.01c0-1.95 1.12-3.29 2.83-3.29 1.72 0 2.76 1.28 2.76 3.17v.4h-4.54c.03 1.3.75 2.06 1.87 2.06.86 0 1.38-.4 1.55-.78l.03-.05h1.02l-.02.04c-.21.86-1.12 1.7-2.6 1.7Zm-.07-5.63c-.94 0-1.66.64-1.77 1.84h3.5c-.11-1.25-.8-1.84-1.73-1.84Zm4.34 5.52v-6.32h1.02v.95h.1c.31-.67.9-1.06 1.84-1.06 1.42 0 2.2.84 2.2 2.34V101h-1.01v-3.84c0-1.14-.47-1.69-1.48-1.69-1 0-1.65.68-1.65 1.8V101h-1.02Zm9.26.05c-1.3 0-1.85-.48-1.85-1.7v-3.82h-1v-.85h1v-1.63h1.05v1.63H127v.85h-1.39v3.57c0 .75.26 1.05.92 1.05.18 0 .28-.01.47-.03v.87c-.2.03-.4.06-.6.06Zm6.03-7.59a.7.7 0 0 1-.7-.7c0-.39.3-.7.7-.7.38 0 .7.31.7.7a.7.7 0 0 1-.7.7Zm-.52 7.54v-6.32h1.02V101h-1.02Zm5.1.11c-1.4 0-2.36-.68-2.48-1.72h1.04c.17.53.68.87 1.48.87.85 0 1.46-.4 1.46-.98 0-.44-.33-.74-1.1-.92l-.98-.24c-1.19-.28-1.72-.8-1.72-1.7 0-1.06 1-1.85 2.35-1.85 1.33 0 2.24.66 2.39 1.7h-1c-.14-.5-.63-.85-1.4-.85-.75 0-1.3.39-1.3.95 0 .43.32.7 1.06.89l.98.23c1.19.29 1.76.8 1.76 1.7v.02c0 1.12-1.1 1.9-2.53 1.9Zm7.5-.11v-6.32h1.02v.95h.1c.3-.67.9-1.06 1.83-1.06 1.42 0 2.21.84 2.21 2.34V101h-1.02v-3.84c0-1.14-.47-1.69-1.48-1.69-1 0-1.64.68-1.64 1.8V101h-1.02Zm9.6.11c-1.8 0-2.91-1.24-2.91-3.26v-.01c0-2.03 1.11-3.27 2.91-3.27s2.91 1.24 2.91 3.27c0 2.03-1.11 3.27-2.9 3.27Zm0-.9c1.2 0 1.87-.87 1.87-2.36v-.01c0-1.5-.67-2.37-1.87-2.37-1.2 0-1.87.87-1.87 2.37s.68 2.37 1.87 2.37Zm6.74.84c-1.3 0-1.85-.48-1.85-1.7v-3.82h-1v-.85h1v-1.63h1.06v1.63h1.38v.85h-1.38v3.57c0 .75.26 1.05.91 1.05.18 0 .28-.01.47-.03v.87c-.2.03-.4.06-.6.06Zm7.66.06c-1.4 0-2.38-.68-2.5-1.72h1.05c.17.53.67.87 1.48.87.85 0 1.46-.4 1.46-.98 0-.44-.33-.74-1.1-.92l-.98-.24c-1.19-.28-1.72-.8-1.72-1.7 0-1.06 1-1.85 2.35-1.85 1.32 0 2.24.66 2.38 1.7h-1c-.13-.5-.63-.85-1.39-.85-.75 0-1.3.39-1.3.95 0 .43.32.7 1.06.89l.97.23c1.2.29 1.77.8 1.77 1.7v.02c0 1.12-1.1 1.9-2.53 1.9Zm6.69 0c-1.8 0-2.9-1.26-2.9-3.24v-.01c0-1.95 1.12-3.29 2.84-3.29 1.71 0 2.75 1.28 2.75 3.17v.4h-4.54c.03 1.3.75 2.06 1.87 2.06.86 0 1.39-.4 1.56-.78l.02-.05h1.02l-.01.04c-.22.86-1.12 1.7-2.61 1.7Zm-.07-5.63c-.94 0-1.65.64-1.76 1.84h3.49c-.1-1.25-.8-1.84-1.73-1.84Zm6.59 5.57c-1.3 0-1.84-.48-1.84-1.7v-3.82h-1v-.85h1v-1.63h1.05v1.63h1.38v.85h-1.38v3.57c0 .75.26 1.05.91 1.05.19 0 .28-.01.47-.03v.87c-.2.03-.39.06-.59.06Zm7.6.06c-1.43 0-2.17-.84-2.17-2.34v-4.09h1.02v3.85c0 1.13.41 1.68 1.42 1.68 1.11 0 1.7-.68 1.7-1.79v-3.74h1.02V101h-1.01v-.94h-.1c-.31.67-.95 1.05-1.87 1.05Zm4.9 2v-8.43h1.02v1.01h.1a2.16 2.16 0 0 1 1.96-1.12c1.6 0 2.65 1.3 2.65 3.27 0 1.99-1.04 3.27-2.65 3.27-.87 0-1.62-.43-1.97-1.1h-.1v3.1h-1.01Zm2.85-2.9c1.15 0 1.84-.9 1.84-2.36v-.01c0-1.47-.69-2.37-1.84-2.37-1.15 0-1.86.9-1.86 2.37 0 1.47.7 2.37 1.86 2.37Zm8.39 3c-.14 0-.31 0-.45-.03v-.84c.12.02.28.03.42.03.58 0 .93-.26 1.16-.99l.12-.37-2.34-6.33h1.09l1.73 5.2h.1l1.72-5.2h1.08l-2.47 6.7c-.52 1.43-1.04 1.84-2.16 1.84Zm8.32-2.1c-1.8 0-2.9-1.26-2.9-3.24v-.01c0-1.95 1.12-3.29 2.83-3.29 1.72 0 2.76 1.28 2.76 3.17v.4h-4.54c.03 1.3.75 2.06 1.87 2.06.86 0 1.38-.4 1.55-.78l.03-.05h1.02l-.01.04c-.22.86-1.13 1.7-2.61 1.7Zm-.07-5.63c-.94 0-1.66.64-1.77 1.84h3.5c-.11-1.25-.8-1.84-1.73-1.84Zm6.59 5.57c-1.3 0-1.85-.48-1.85-1.7v-3.82h-1v-.85h1v-1.63h1.06v1.63h1.38v.85h-1.38v3.57c0 .75.25 1.05.91 1.05.18 0 .28-.01.47-.03v.87c-.2.03-.4.06-.6.06Z"/>
    <g filter="url(#d)">
      <rect width="89" height="28" x="94.75" y="113" fill="#222326" rx="4" shape-rendering="crispEdges"/>
      <rect width="88" height="27" x="95.25" y="113.5" stroke="#2C2E33" rx="3.5" shape-rendering="crispEdges"/>
      <path fill="#fff" d="M107.6 132.22c-2.48 0-4.04-1.84-4.04-4.79v-.01c0-2.95 1.55-4.8 4.04-4.8 1.93 0 3.43 1.22 3.7 2.97v.02h-1.15v-.02a2.52 2.52 0 0 0-2.55-1.91c-1.76 0-2.86 1.44-2.86 3.74v.01c0 2.3 1.1 3.73 2.87 3.73 1.27 0 2.24-.65 2.53-1.7l.01-.02h1.16v.02c-.3 1.67-1.75 2.76-3.7 2.76Zm5.55-.22v-9.56h1.1v3.75h.1c.35-.73.99-1.15 2-1.15 1.53 0 2.39.9 2.39 2.53V132h-1.1v-4.16c0-1.24-.51-1.83-1.6-1.83-1.1 0-1.79.74-1.79 1.94V132h-1.1Zm10.38.12c-1.95 0-3.13-1.37-3.13-3.52 0-2.12 1.2-3.56 3.06-3.56s3 1.38 3 3.42v.44h-4.93c.03 1.41.8 2.24 2.03 2.24.92 0 1.5-.44 1.68-.85l.03-.06h1.1l-.01.05c-.24.93-1.22 1.84-2.83 1.84Zm-.07-6.1c-1.02 0-1.8.7-1.91 2h3.78c-.12-1.36-.86-2-1.87-2Zm7.5 6.1c-1.91 0-3.14-1.39-3.14-3.56v-.01c0-2.13 1.22-3.51 3.14-3.51 1.66 0 2.66.95 2.86 2.17v.04h-1.09v-.02c-.18-.67-.79-1.22-1.77-1.22-1.23 0-2 1-2 2.54v.01c0 1.57.78 2.58 2 2.58.92 0 1.5-.4 1.76-1.16l.01-.04h1.1l-.02.06c-.28 1.24-1.2 2.12-2.84 2.12Zm4.54-.12v-9.56h1.1v5.7h.11l2.96-2.98H141l-2.99 2.87 3.18 3.97h-1.39l-2.56-3.22-.64.62v2.6h-1.1Zm13.18.12c-1.73 0-2.87-1.4-2.87-3.53v-.02c0-2.14 1.13-3.53 2.87-3.53.94 0 1.76.47 2.13 1.2h.1v-3.8h1.11V132h-1.1v-1.1h-.1a2.34 2.34 0 0 1-2.14 1.22Zm.26-.98c1.24 0 2-.97 2-2.55v-.02c0-1.58-.76-2.56-2-2.56-1.25 0-2 .97-2 2.56v.02c0 1.59.75 2.55 2 2.55Zm8.01.98c-1.95 0-3.15-1.34-3.15-3.53v-.02c0-2.2 1.2-3.53 3.15-3.53s3.16 1.34 3.16 3.53v.02c0 2.19-1.2 3.53-3.16 3.53Zm0-.98c1.3 0 2.03-.94 2.03-2.55v-.02c0-1.62-.73-2.56-2.03-2.56-1.3 0-2.02.94-2.02 2.56v.02c0 1.6.73 2.55 2.02 2.55Zm7.67.98c-1.92 0-3.14-1.39-3.14-3.56v-.01c0-2.13 1.22-3.51 3.13-3.51 1.67 0 2.66.95 2.87 2.17v.04h-1.1v-.02c-.17-.67-.78-1.22-1.77-1.22-1.23 0-2 1-2 2.54v.01c0 1.57.79 2.58 2 2.58.92 0 1.5-.4 1.76-1.16l.01-.04h1.1l-.02.06c-.28 1.24-1.2 2.12-2.84 2.12Zm6.82 0c-1.52 0-2.57-.74-2.7-1.87h1.14c.18.58.73.95 1.6.95.92 0 1.58-.44 1.58-1.06v-.01c0-.47-.35-.79-1.2-1l-1.06-.25c-1.28-.3-1.86-.86-1.86-1.84v-.01c0-1.14 1.1-2 2.55-2 1.43 0 2.43.72 2.58 1.84H173c-.15-.54-.68-.91-1.5-.91s-1.42.42-1.42 1.02v.01c0 .47.35.76 1.15.95l1.06.26c1.28.3 1.9.87 1.9 1.84v.02c0 1.22-1.18 2.06-2.74 2.06Z"/>
    </g>
  </g>
  <defs>
    <filter id="a" width="266.5" height="36" x="6" y="6" color-interpolation-filters="sRGB" filterUnits="userSpaceOnUse">
      <feFlood flood-opacity="0" result="BackgroundImageFix"/>
      <feBlend in="SourceGraphic" in2="BackgroundImageFix" result="shape"/>
      <feGaussianBlur result="effect1_foregroundBlur_19372_215947" stdDeviation="5"/>
    </filter>
    <filter id="c" width="266.5" height="132" x="6" y="38" color-interpolation-filters="sRGB" filterUnits="userSpaceOnUse">
      <feFlood flood-opacity="0" result="BackgroundImageFix"/>
      <feBlend in="SourceGraphic" in2="BackgroundImageFix" result="shape"/>
      <feGaussianBlur result="effect1_foregroundBlur_19372_215947" stdDeviation="5"/>
    </filter>
    <filter id="d" width="97" height="36" x="90.75" y="111" color-interpolation-filters="sRGB" filterUnits="userSpaceOnUse">
      <feFlood flood-opacity="0" result="BackgroundImageFix"/>
      <feColorMatrix in="SourceAlpha" result="hardAlpha" values="0 0 0 0 0 0 0 0 0 0 0 0 0 0 0 0 0 0 127 0"/>
      <feOffset dy="2"/>
      <feGaussianBlur stdDeviation="2"/>
      <feComposite in2="hardAlpha" operator="out"/>
      <feColorMatrix values="0 0 0 0 0 0 0 0 0 0 0 0 0 0 0 0 0 0 0.13 0"/>
      <feBlend in2="BackgroundImageFix" result="effect1_dropShadow_19372_215947"/>
      <feBlend in="SourceGraphic" in2="effect1_dropShadow_19372_215947" result="shape"/>
    </filter>
    <clipPath id="b">
      <path fill="#fff" d="M16 16h16v16H16z"/>
    </clipPath>
  </defs>
</svg>
