<svg xmlns="http://www.w3.org/2000/svg" width="279" height="184" fill="none" viewBox="0 0 279 184">
  <rect width="277.5" height="183" x=".5" y=".5" stroke="#37383F" rx="7.5"/>
  <g filter="url(#a)">
    <g clip-path="url(#b)">
      <path stroke="#828599" stroke-linecap="round" stroke-linejoin="round" stroke-width="1.33" d="m22.66 25.5-.54.62a3 3 0 1 1 0-4.24l3.76 4.24a3 3 0 1 0 0-4.24l-.54.61"/>
    </g>
    <path fill="#fff" d="M41.2 29v-9.86h4.06c2.08 0 3.47 1.34 3.47 3.37 0 2.04-1.39 3.38-3.47 3.38h-2V29H41.2Zm3.56-8.23h-1.5v3.5h1.5c1.18 0 1.88-.62 1.88-1.74v-.02c0-1.12-.7-1.74-1.88-1.74ZM50.63 29v-9.86h4.1c2.25 0 3.54 1.2 3.54 3.13v.02a2.9 2.9 0 0 1-1.79 2.8L58.56 29h-2.34l-1.84-3.6H52.7V29h-2.06Zm2.06-5.11h1.82c1.03 0 1.64-.6 1.64-1.56v-.02c0-.95-.63-1.56-1.66-1.56h-1.8v3.14Zm11.97 5.36c-2.93 0-4.75-2-4.75-5.18v-.01c0-3.2 1.85-5.18 4.75-5.18s4.75 2 4.75 5.18v.01c0 3.19-1.83 5.18-4.75 5.18Zm0-1.75c1.61 0 2.64-1.34 2.64-3.43v-.01c0-2.1-1.04-3.43-2.64-3.43s-2.64 1.34-2.64 3.43v.01c0 2.09 1.02 3.43 2.64 3.43Zm6.71 1.5v-9.86h3.88c2.94 0 4.63 1.77 4.63 4.86 0 3.19-1.67 4.99-4.63 4.99h-3.88Zm2.06-1.7h1.5c1.82 0 2.85-1.15 2.85-3.26v-.01c0-2.03-1.06-3.2-2.86-3.2h-1.49v6.47Zm12.54 1.95c-2.53 0-4.13-1.46-4.13-3.65v-6.46h2.06v6.27c0 1.28.75 2.1 2.07 2.1 1.33 0 2.07-.82 2.07-2.1v-6.27h2.06v6.46c0 2.18-1.59 3.65-4.13 3.65Zm10.71 0c-2.85 0-4.62-1.98-4.62-5.18v-.01c0-3.2 1.76-5.18 4.62-5.18 2.34 0 4.1 1.5 4.28 3.58v.08h-2v-.05a2.23 2.23 0 0 0-2.28-1.86c-1.55 0-2.51 1.3-2.51 3.43v.01c0 2.12.96 3.43 2.52 3.43 1.18 0 2.04-.69 2.26-1.74l.01-.05h2.01v.07c-.22 2.06-1.9 3.47-4.29 3.47Zm8.38-.25v-8.16h-2.96v-1.7h7.98v1.7h-2.96V29h-2.06Zm6.85 0v-9.86h2.06V29h-2.06Zm8.77.25c-2.94 0-4.75-2-4.75-5.18v-.01c0-3.2 1.84-5.18 4.75-5.18 2.9 0 4.74 2 4.74 5.18v.01c0 3.19-1.83 5.18-4.74 5.18Zm0-1.75c1.6 0 2.64-1.34 2.64-3.43v-.01c0-2.1-1.04-3.43-2.64-3.43s-2.65 1.34-2.65 3.43v.01c0 2.09 1.02 3.43 2.65 3.43Zm6.7 1.5v-9.86h1.73l4.55 6.28h.1v-6.28h1.98V29h-1.7l-4.57-6.31h-.11V29h-1.98Zm9.57 2.48v-1.8h8.78v1.8h-8.78ZM148.5 29v-8.16h-2.96v-1.7h7.98v1.7h-2.96V29h-2.06Zm6.85 0v-9.86h6.53v1.7h-4.47v2.38h4.22v1.58h-4.22v2.5h4.47V29h-6.53Zm12.23.25c-2.36 0-3.85-1.13-3.96-2.88v-.1h1.98v.06c.08.74.88 1.24 2.04 1.24 1.1 0 1.86-.53 1.86-1.28v-.01c0-.65-.49-1.01-1.71-1.27l-1.04-.2c-2.05-.42-2.93-1.38-2.93-2.88 0-1.84 1.57-3.05 3.76-3.05 2.3 0 3.65 1.22 3.78 2.87l.01.09h-1.94l-.01-.09c-.12-.7-.8-1.2-1.84-1.2-1.02.01-1.7.48-1.7 1.22 0 .65.48 1.03 1.64 1.27l1.05.21c2.08.43 3 1.27 3 2.8v.01c0 1.96-1.53 3.2-3.99 3.2Zm8.33-.25v-8.16h-2.96v-1.7h7.98v1.7h-2.96V29h-2.06Z"/>
  </g>
  <g filter="url(#c)">
    <path fill="#ACAFBF" d="M21.23 62.23c-2.68 0-4.36-1.98-4.36-5.15v-.02c0-3.17 1.67-5.16 4.35-5.16 2.08 0 3.7 1.3 4 3.2l-.01.02h-1.24v-.02a2.71 2.71 0 0 0-2.75-2.06c-1.9 0-3.08 1.56-3.08 4.02v.02c0 2.47 1.19 4.02 3.09 4.02 1.37 0 2.42-.7 2.73-1.84l.01-.01h1.24c-.32 1.81-1.88 2.98-3.98 2.98Zm5.9-.23v-7.37h1.19v1.1h.1c.29-.78.98-1.23 1.98-1.23a4 4 0 0 1 .6.05v1.15a4.28 4.28 0 0 0-.74-.06c-1.14 0-1.94.71-1.94 1.8V62h-1.2Zm5.96-8.8a.82.82 0 0 1-.82-.81c0-.45.37-.82.82-.82.45 0 .82.37.82.82 0 .45-.37.82-.82.82Zm-.6 8.8v-7.37h1.19V62h-1.2Zm6.05.05c-1.52 0-2.16-.56-2.16-1.96v-4.47h-1.16v-.99h1.16v-1.9h1.24v1.9h1.6v.99h-1.6v4.17c0 .86.3 1.21 1.06 1.21.21 0 .33 0 .55-.03V62c-.23.04-.46.06-.7.06Zm3.1-8.84a.82.82 0 0 1-.83-.82.82.82 0 0 1 1.65 0c0 .45-.37.82-.83.82Zm-.6 8.79v-7.37h1.18V62h-1.19Zm6.44.13c-2.06 0-3.38-1.5-3.38-3.84 0-2.3 1.3-3.79 3.37-3.79 1.8 0 2.87 1.03 3.09 2.35v.04h-1.18v-.02c-.2-.73-.85-1.32-1.9-1.32-1.33 0-2.17 1.07-2.17 2.73v.01c0 1.7.85 2.79 2.16 2.79 1 0 1.62-.44 1.9-1.26l.01-.04h1.18l-.02.07c-.3 1.33-1.29 2.28-3.06 2.28Zm6.84 0c-1.4 0-2.46-.85-2.46-2.19v-.01c0-1.31.97-2.07 2.69-2.18l2.11-.13v-.66c0-.91-.55-1.4-1.65-1.4-.89 0-1.47.32-1.66.9v.02h-1.2l.01-.04c.2-1.16 1.31-1.94 2.89-1.94 1.8 0 2.8.92 2.8 2.46V62h-1.19v-1.09h-.1a2.46 2.46 0 0 1-2.24 1.22Zm-1.24-2.22c0 .75.63 1.19 1.49 1.19 1.2 0 2.09-.8 2.09-1.85v-.67l-1.97.13c-1.12.06-1.61.46-1.61 1.2ZM60.09 62V51.7h1.2V62h-1.2Zm8.04-8.8a.82.82 0 0 1-.82-.81c0-.45.37-.82.82-.82.45 0 .82.37.82.82 0 .45-.37.82-.82.82Zm-.6 8.8v-7.37h1.19V62h-1.2Zm5.96.13c-1.64 0-2.77-.8-2.9-2.01h1.21c.2.62.79 1.02 1.73 1.02 1 0 1.7-.47 1.7-1.14v-.02c0-.5-.38-.84-1.29-1.06l-1.14-.28c-1.38-.32-2-.93-2-1.99 0-1.23 1.17-2.15 2.74-2.15 1.54 0 2.62.77 2.78 1.98h-1.17c-.16-.58-.73-.99-1.62-.99-.87 0-1.52.45-1.52 1.1v.02c0 .5.37.81 1.24 1.02l1.14.28c1.38.33 2.05.93 2.05 1.98v.02c0 1.31-1.27 2.22-2.95 2.22Zm7.2 0c-1.65 0-2.78-.8-2.91-2.01h1.21c.2.62.79 1.02 1.73 1.02 1 0 1.7-.47 1.7-1.14v-.02c0-.5-.38-.84-1.29-1.06L80 58.64c-1.38-.32-2-.93-2-1.99 0-1.23 1.17-2.15 2.74-2.15 1.54 0 2.62.77 2.78 1.98h-1.17c-.15-.58-.73-.99-1.62-.99-.87 0-1.51.45-1.51 1.1v.02c0 .5.36.81 1.23 1.02l1.14.28c1.38.33 2.05.93 2.05 1.98v.02c0 1.31-1.27 2.22-2.95 2.22Zm7.26 0c-1.68 0-2.54-.98-2.54-2.73v-4.77h1.2v4.49c0 1.32.47 1.96 1.65 1.96 1.3 0 1.99-.8 1.99-2.09v-4.36h1.18V62h-1.18v-1.1h-.11c-.37.79-1.11 1.23-2.2 1.23Zm8.71 0c-2.1 0-3.37-1.48-3.37-3.79 0-2.28 1.3-3.84 3.3-3.84 2 0 3.22 1.5 3.22 3.7v.46h-5.3c.03 1.52.87 2.41 2.18 2.41 1 0 1.61-.47 1.81-.92l.03-.06h1.19l-.01.06c-.26 1-1.31 1.98-3.05 1.98Zm-.08-6.57c-1.1 0-1.93.75-2.06 2.15h4.08c-.12-1.46-.93-2.15-2.02-2.15Zm7.6 6.57c-1.64 0-2.77-.8-2.9-2.01h1.22c.2.62.78 1.02 1.72 1.02 1 0 1.7-.47 1.7-1.14v-.02c0-.5-.38-.84-1.28-1.06l-1.15-.28c-1.38-.32-2-.93-2-1.99 0-1.23 1.18-2.15 2.74-2.15 1.55 0 2.62.77 2.78 1.98h-1.17c-.15-.58-.73-.99-1.62-.99-.87 0-1.51.45-1.51 1.1v.02c0 .5.37.81 1.23 1.02l1.14.28c1.39.33 2.06.93 2.06 1.98v.02c0 1.31-1.28 2.22-2.96 2.22Z"/>
    <path fill="#DA2D5F" d="M249.35 62v-1.9h-4.83v-1.44a129.7 129.7 0 0 1 4.02-6.52h2.5v6.51h1.32v1.46h-1.32V62h-1.69Zm-3.19-3.3h3.22v-5.16h-.1a102.64 102.64 0 0 0-3.12 5.05v.1Zm11.6 3.55c-2.01 0-3.37-1.23-3.5-2.85v-.1h1.62v.05c.13.81.88 1.45 1.9 1.45 1.15 0 1.94-.81 1.94-1.97v-.02c0-1.14-.8-1.95-1.94-1.95a2.02 2.02 0 0 0-1.85 1.05h-1.5l.47-5.77h5.92v1.45h-4.55l-.27 3h.12a2.4 2.4 0 0 1 2.1-1.06c1.84 0 3.17 1.36 3.17 3.25v.01c0 2.05-1.5 3.46-3.63 3.46Z"/>
    <path fill="#fff" d="M249.35 62v-1.9h-4.83v-1.44a129.7 129.7 0 0 1 4.02-6.52h2.5v6.51h1.32v1.46h-1.32V62h-1.69Zm-3.19-3.3h3.22v-5.16h-.1a102.64 102.64 0 0 0-3.12 5.05v.1Zm11.6 3.55c-2.01 0-3.37-1.23-3.5-2.85v-.1h1.62v.05c.13.81.88 1.45 1.9 1.45 1.15 0 1.94-.81 1.94-1.97v-.02c0-1.14-.8-1.95-1.94-1.95a2.02 2.02 0 0 0-1.85 1.05h-1.5l.47-5.77h5.92v1.45h-4.55l-.27 3h.12a2.4 2.4 0 0 1 2.1-1.06c1.84 0 3.17 1.36 3.17 3.25v.01c0 2.05-1.5 3.46-3.63 3.46Z"/>
    <path fill="#ACAFBF" d="M19.82 96v-8.76h-3.18v-1.1h7.59v1.1h-3.18V96h-1.23Zm5.14 0v-7.37h1.18v1.1h.11c.28-.78.97-1.23 1.97-1.23a4 4 0 0 1 .6.05v1.15a4.28 4.28 0 0 0-.73-.06c-1.14 0-1.95.71-1.95 1.8V96h-1.18Zm7.35.13c-1.4 0-2.46-.85-2.46-2.19v-.01c0-1.31.97-2.07 2.69-2.18l2.1-.13v-.66c0-.91-.55-1.4-1.65-1.4-.88 0-1.46.32-1.65.9v.02h-1.2l.01-.04c.2-1.16 1.31-1.94 2.89-1.94 1.8 0 2.8.92 2.8 2.46V96h-1.2v-1.09h-.1a2.46 2.46 0 0 1-2.23 1.22Zm-1.24-2.21c0 .74.63 1.18 1.49 1.18 1.2 0 2.09-.8 2.09-1.85v-.67l-1.97.13c-1.12.06-1.61.46-1.61 1.2Zm9.96 2.21c-2.07 0-3.39-1.5-3.39-3.84 0-2.3 1.32-3.79 3.38-3.79 1.79 0 2.86 1.03 3.08 2.35v.04h-1.17l-.01-.02c-.18-.73-.84-1.32-1.9-1.32-1.33 0-2.16 1.07-2.16 2.73v.01c0 1.7.85 2.79 2.16 2.79 1 0 1.62-.44 1.9-1.26v-.04h1.18l-.01.07c-.3 1.33-1.3 2.28-3.06 2.28Zm7.82 0c-2.1 0-3.37-1.48-3.37-3.79 0-2.28 1.3-3.84 3.3-3.84 2 0 3.22 1.5 3.22 3.7v.46h-5.3c.03 1.52.87 2.41 2.18 2.41 1 0 1.61-.47 1.81-.92l.03-.06h1.19l-.01.06c-.26 1-1.31 1.98-3.05 1.98Zm-.08-6.57c-1.1 0-1.93.75-2.06 2.15h4.08c-.13-1.46-.93-2.15-2.02-2.15Zm7.6 6.57c-1.64 0-2.77-.8-2.9-2.01h1.21c.2.62.8 1.02 1.73 1.02 1 0 1.7-.47 1.7-1.14v-.02c0-.5-.38-.84-1.29-1.06l-1.14-.28c-1.38-.32-2-.93-2-1.99 0-1.23 1.18-2.15 2.74-2.15 1.55 0 2.62.77 2.78 1.98h-1.17c-.15-.58-.73-.99-1.62-.99-.87 0-1.51.45-1.51 1.1v.02c0 .5.37.81 1.23 1.02l1.14.28c1.39.33 2.06.93 2.06 1.98v.02c0 1.31-1.28 2.22-2.96 2.22Zm7.95-10.42-3.11 12.75h-1.15l3.12-12.75h1.14Zm3.65 10.42c-1.64 0-2.77-.8-2.9-2.01h1.2c.2.62.8 1.02 1.74 1.02.99 0 1.7-.47 1.7-1.14v-.02c0-.5-.38-.84-1.3-1.06l-1.13-.28c-1.38-.32-2-.93-2-1.99 0-1.23 1.17-2.15 2.73-2.15 1.55 0 2.62.77 2.79 1.98h-1.17c-.16-.58-.73-.99-1.62-.99-.88 0-1.52.45-1.52 1.1v.02c0 .5.37.81 1.24 1.02l1.13.28c1.39.33 2.06.93 2.06 1.98v.02c0 1.31-1.28 2.22-2.95 2.22Zm7.8 0c-2.1 0-3.37-1.48-3.37-3.79 0-2.28 1.3-3.84 3.3-3.84 2 0 3.22 1.5 3.22 3.7v.46h-5.3c.03 1.52.87 2.41 2.18 2.41 1 0 1.61-.47 1.81-.92l.03-.06h1.19l-.01.06c-.26 1-1.31 1.98-3.05 1.98Zm-.08-6.57c-1.1 0-1.93.75-2.06 2.15h4.08c-.13-1.46-.93-2.15-2.02-2.15Zm8.09 6.57c-2.07 0-3.39-1.5-3.39-3.84 0-2.3 1.32-3.79 3.38-3.79 1.8 0 2.87 1.03 3.08 2.35l.01.04h-1.18v-.02c-.2-.73-.85-1.32-1.9-1.32-1.33 0-2.17 1.07-2.17 2.73v.01c0 1.7.85 2.79 2.16 2.79 1 0 1.62-.44 1.9-1.26v-.04h1.18v.07c-.31 1.33-1.3 2.28-3.07 2.28Zm7.85 0c-2.1 0-3.4-1.45-3.4-3.8v-.02c0-2.37 1.3-3.8 3.4-3.8 2.1 0 3.4 1.43 3.4 3.8v.01c0 2.36-1.3 3.81-3.4 3.81Zm0-1.05c1.4 0 2.18-1.02 2.18-2.76v-.01c0-1.74-.79-2.76-2.18-2.76-1.4 0-2.18 1.02-2.18 2.76v.01c0 1.74.78 2.76 2.18 2.76Zm5.24.92v-7.37h1.19v1.1h.1c.38-.77 1.07-1.23 2.15-1.23 1.66 0 2.58.98 2.58 2.73V96h-1.19v-4.48c0-1.33-.55-1.97-1.72-1.97-1.18 0-1.92.8-1.92 2.09V96h-1.2Zm10.9.13c-1.87 0-3.1-1.51-3.1-3.8v-.02c0-2.31 1.22-3.8 3.1-3.8 1 0 1.89.5 2.3 1.28h.1v-4.08h1.2V96h-1.2v-1.18h-.1a2.52 2.52 0 0 1-2.3 1.31Zm.27-1.05c1.34 0 2.16-1.06 2.16-2.76v-.01c0-1.7-.82-2.76-2.16-2.76-1.35 0-2.15 1.04-2.15 2.76v.01c0 1.72.8 2.76 2.15 2.76Z"/>
    <path fill="#DA2D5F" d="M237.59 96v-1.19l3.23-3.3c1.34-1.36 1.72-1.86 1.72-2.62v-.02c0-.9-.62-1.57-1.65-1.57-1.04 0-1.75.7-1.75 1.71v.03h-1.64l-.01-.03c0-1.84 1.44-3.12 3.5-3.12 1.91 0 3.3 1.17 3.3 2.83v.02c0 1.12-.55 2.01-2.34 3.74l-1.98 1.91v.15h4.47V96h-6.85Zm9.23 0 4.29-8.31v-.11h-5.09v-1.44h6.86v1.47L248.67 96h-1.85Zm7.86 0v-1.19l3.24-3.3c1.33-1.36 1.71-1.86 1.71-2.62v-.02c0-.9-.62-1.57-1.65-1.57-1.04 0-1.75.7-1.75 1.71v.03h-1.64l-.01-.03c0-1.84 1.43-3.12 3.5-3.12 1.91 0 3.3 1.17 3.3 2.83v.02c0 1.12-.55 2.01-2.34 3.74l-1.98 1.91v.15h4.46V96h-6.84Z"/>
    <path fill="#fff" d="M237.59 96v-1.19l3.23-3.3c1.34-1.36 1.72-1.86 1.72-2.62v-.02c0-.9-.62-1.57-1.65-1.57-1.04 0-1.75.7-1.75 1.71v.03h-1.64l-.01-.03c0-1.84 1.44-3.12 3.5-3.12 1.91 0 3.3 1.17 3.3 2.83v.02c0 1.12-.55 2.01-2.34 3.74l-1.98 1.91v.15h4.47V96h-6.85Zm9.23 0 4.29-8.31v-.11h-5.09v-1.44h6.86v1.47L248.67 96h-1.85Zm7.86 0v-1.19l3.24-3.3c1.33-1.36 1.71-1.86 1.71-2.62v-.02c0-.9-.62-1.57-1.65-1.57-1.04 0-1.75.7-1.75 1.71v.03h-1.64l-.01-.03c0-1.84 1.43-3.12 3.5-3.12 1.91 0 3.3 1.17 3.3 2.83v.02c0 1.12-.55 2.01-2.34 3.74l-1.98 1.91v.15h4.46V96h-6.84Z"/>
    <path fill="#ACAFBF" d="m16.47 130 3.64-9.86h1.22l3.63 9.86h-1.29l-1-2.82h-3.92l-.99 2.82h-1.29Zm4.2-8.27-1.55 4.4h3.2l-1.55-4.4h-.1Zm8.26 8.4c-1.64 0-2.77-.8-2.9-2.01h1.22c.2.62.78 1.02 1.72 1.02 1 0 1.7-.47 1.7-1.14v-.02c0-.5-.38-.84-1.29-1.06l-1.14-.28c-1.38-.33-2-.93-2-1.99 0-1.23 1.18-2.15 2.74-2.15 1.55 0 2.62.77 2.78 1.98H30.6c-.15-.58-.73-.99-1.62-.99-.87 0-1.51.45-1.51 1.1v.02c0 .5.37.81 1.23 1.02l1.14.28c1.39.33 2.06.93 2.06 1.98v.02c0 1.31-1.28 2.22-2.96 2.22Zm7.2 0c-1.65 0-2.77-.8-2.91-2.01h1.22c.2.62.78 1.02 1.73 1.02.99 0 1.7-.47 1.7-1.14v-.02c0-.5-.38-.84-1.3-1.06l-1.14-.28c-1.38-.33-2-.93-2-1.99 0-1.23 1.18-2.15 2.74-2.15 1.55 0 2.62.77 2.79 1.98h-1.17c-.16-.58-.74-.99-1.62-.99-.88 0-1.52.45-1.52 1.1v.02c0 .5.37.81 1.24 1.02l1.13.28c1.39.33 2.06.93 2.06 1.98v.02c0 1.31-1.28 2.22-2.95 2.22Zm7.8 0c-2.1 0-3.38-1.48-3.38-3.79 0-2.28 1.3-3.84 3.3-3.84 2 0 3.23 1.5 3.23 3.7v.46h-5.3c.03 1.52.87 2.41 2.18 2.41 1 0 1.61-.47 1.81-.92l.03-.06h1.19l-.02.06c-.25 1-1.3 1.98-3.04 1.98Zm-.08-6.57c-1.1 0-1.93.75-2.06 2.15h4.08c-.13-1.46-.93-2.15-2.02-2.15Zm7.69 6.5c-1.52 0-2.15-.57-2.15-1.97v-4.48h-1.17v-.98h1.17v-1.9h1.23v1.9h1.61v.98h-1.61v4.17c0 .87.3 1.22 1.06 1.22.22 0 .33 0 .55-.03V130c-.23.04-.46.06-.69.06Zm4.86.07c-1.64 0-2.77-.8-2.9-2.01h1.21c.2.62.79 1.02 1.73 1.02 1 0 1.7-.47 1.7-1.14v-.02c0-.5-.38-.84-1.29-1.06l-1.14-.28c-1.38-.33-2-.93-2-1.99 0-1.23 1.17-2.15 2.74-2.15 1.54 0 2.62.77 2.78 1.98h-1.17c-.16-.58-.73-.99-1.62-.99-.87 0-1.52.45-1.52 1.1v.02c0 .5.37.81 1.24 1.02l1.14.28c1.38.33 2.05.93 2.05 1.98v.02c0 1.31-1.27 2.22-2.95 2.22Z"/>
    <path fill="#DA2D5F" d="M229.38 119.89c2.1 0 3.94 1.5 3.94 5.05v.02c0 3.32-1.5 5.29-3.98 5.29-1.8 0-3.16-1.08-3.48-2.59l-.01-.07h1.74l.02.06c.26.7.86 1.15 1.73 1.15 1.57 0 2.23-1.53 2.3-3.42l.01-.23h-.13c-.37.78-1.23 1.47-2.58 1.47a3.12 3.12 0 0 1-3.22-3.25v-.02c0-2 1.52-3.46 3.66-3.46Zm0 5.38a1.9 1.9 0 0 0 1.97-1.92v-.02a1.95 1.95 0 1 0-3.9-.04v.02c0 1.14.8 1.96 1.93 1.96Zm9.6 4.98c-2.1 0-3.93-1.5-3.93-5.06 0-3.33 1.5-5.3 3.98-5.3 1.81 0 3.16 1.07 3.48 2.58l.01.08h-1.73l-.02-.07c-.26-.69-.87-1.14-1.74-1.14-1.57 0-2.23 1.53-2.3 3.42l-.01.22h.13c.37-.78 1.23-1.47 2.58-1.47 1.9 0 3.22 1.38 3.22 3.26v.01c0 2-1.52 3.47-3.66 3.47Zm-1.95-3.45a1.95 1.95 0 1 0 3.9.04v-.01c0-1.14-.81-1.96-1.94-1.96a1.9 1.9 0 0 0-1.96 1.92v.01Zm11.15 3.45c-2.35 0-3.76-2-3.76-5.18v-.01c0-3.19 1.41-5.17 3.76-5.17 2.34 0 3.76 1.98 3.76 5.17v.01c0 3.19-1.42 5.18-3.76 5.18Zm0-1.43c1.25 0 1.98-1.41 1.98-3.75v-.01c0-2.34-.73-3.73-1.98-3.73-1.26 0-1.98 1.39-1.98 3.73v.01c0 2.34.72 3.75 1.98 3.75Zm9.3 1.43c-2.34 0-3.75-2-3.75-5.18v-.01c0-3.19 1.41-5.17 3.76-5.17 2.34 0 3.76 1.98 3.76 5.17v.01c0 3.19-1.42 5.18-3.76 5.18Zm0-1.43c1.26 0 2-1.41 2-3.75v-.01c0-2.34-.74-3.73-2-3.73-1.25 0-1.97 1.39-1.97 3.73v.01c0 2.34.72 3.75 1.98 3.75Z"/>
    <path fill="#fff" d="M229.38 119.89c2.1 0 3.94 1.5 3.94 5.05v.02c0 3.32-1.5 5.29-3.98 5.29-1.8 0-3.16-1.08-3.48-2.59l-.01-.07h1.74l.02.06c.26.7.86 1.15 1.73 1.15 1.57 0 2.23-1.53 2.3-3.42l.01-.23h-.13c-.37.78-1.23 1.47-2.58 1.47a3.12 3.12 0 0 1-3.22-3.25v-.02c0-2 1.52-3.46 3.66-3.46Zm0 5.38a1.9 1.9 0 0 0 1.97-1.92v-.02a1.95 1.95 0 1 0-3.9-.04v.02c0 1.14.8 1.96 1.93 1.96Zm9.6 4.98c-2.1 0-3.93-1.5-3.93-5.06 0-3.33 1.5-5.3 3.98-5.3 1.81 0 3.16 1.07 3.48 2.58l.01.08h-1.73l-.02-.07c-.26-.69-.87-1.14-1.74-1.14-1.57 0-2.23 1.53-2.3 3.42l-.01.22h.13c.37-.78 1.23-1.47 2.58-1.47 1.9 0 3.22 1.38 3.22 3.26v.01c0 2-1.52 3.47-3.66 3.47Zm-1.95-3.45a1.95 1.95 0 1 0 3.9.04v-.01c0-1.14-.81-1.96-1.94-1.96a1.9 1.9 0 0 0-1.96 1.92v.01Zm11.15 3.45c-2.35 0-3.76-2-3.76-5.18v-.01c0-3.19 1.41-5.17 3.76-5.17 2.34 0 3.76 1.98 3.76 5.17v.01c0 3.19-1.42 5.18-3.76 5.18Zm0-1.43c1.25 0 1.98-1.41 1.98-3.75v-.01c0-2.34-.73-3.73-1.98-3.73-1.26 0-1.98 1.39-1.98 3.73v.01c0 2.34.72 3.75 1.98 3.75Zm9.3 1.43c-2.34 0-3.75-2-3.75-5.18v-.01c0-3.19 1.41-5.17 3.76-5.17 2.34 0 3.76 1.98 3.76 5.17v.01c0 3.19-1.42 5.18-3.76 5.18Zm0-1.43c1.26 0 2-1.41 2-3.75v-.01c0-2.34-.74-3.73-2-3.73-1.25 0-1.97 1.39-1.97 3.73v.01c0 2.34.72 3.75 1.98 3.75Z"/>
    <path fill="#ACAFBF" d="M20.5 164.23c-2.17 0-3.56-1.13-3.7-2.74l-.01-.07h1.23v.07c.1.99 1.12 1.6 2.54 1.6 1.34 0 2.32-.68 2.32-1.69 0-.83-.57-1.39-1.92-1.69l-1.1-.24c-1.97-.43-2.83-1.34-2.83-2.77 0-1.64 1.44-2.8 3.47-2.8 1.97 0 3.35 1.16 3.45 2.63v.1h-1.22l-.02-.09c-.13-.87-.95-1.5-2.24-1.5-1.23 0-2.18.59-2.18 1.62 0 .8.54 1.32 1.88 1.62l1.1.24c2.05.46 2.86 1.29 2.86 2.71 0 1.85-1.44 3-3.64 3Zm7.56-.1c-1.4 0-2.46-.85-2.46-2.19v-.01c0-1.31.97-2.07 2.68-2.18l2.12-.13v-.66c0-.91-.56-1.4-1.66-1.4-.88 0-1.46.32-1.65.9v.02h-1.2v-.04c.2-1.16 1.32-1.94 2.9-1.94 1.8 0 2.8.92 2.8 2.46V164h-1.2v-1.09h-.1a2.46 2.46 0 0 1-2.23 1.22Zm-1.25-2.22c0 .75.64 1.19 1.5 1.19 1.2 0 2.09-.8 2.09-1.85v-.67l-1.97.13c-1.12.06-1.62.46-1.62 1.2Zm6.95 2.09v-7.37h1.19v1.12h.1c.34-.8 1.03-1.25 2-1.25 1 0 1.7.53 2.04 1.3h.1c.4-.79 1.24-1.3 2.26-1.3 1.5 0 2.34.86 2.34 2.4v5.1h-1.18v-4.82c0-1.09-.5-1.63-1.54-1.63-1.03 0-1.7.78-1.7 1.71V164h-1.2v-5c0-.88-.6-1.45-1.53-1.45-.96 0-1.7.84-1.7 1.88V164h-1.18Zm12.18 2.46v-9.83h1.2v1.18h.1a2.52 2.52 0 0 1 2.3-1.3c1.86 0 3.09 1.5 3.09 3.8v.01c0 2.31-1.22 3.81-3.1 3.81-1 0-1.89-.5-2.29-1.3h-.1v3.63h-1.2Zm3.32-3.38c1.35 0 2.15-1.04 2.15-2.76v-.01c0-1.72-.8-2.76-2.15-2.76-1.34 0-2.16 1.06-2.16 2.76v.01c0 1.7.82 2.76 2.16 2.76Zm5.3.92v-10.3h1.18V164h-1.19Zm4.1-8.8a.82.82 0 0 1-.82-.81c0-.45.37-.82.82-.82.45 0 .82.37.82.82 0 .45-.37.82-.82.82Zm-.6 8.8v-7.37h1.18V164h-1.19Zm3.43 0v-7.37h1.19v1.1h.1c.37-.77 1.06-1.23 2.15-1.23 1.66 0 2.58.98 2.58 2.73V164h-1.2v-4.48c0-1.33-.54-1.97-1.71-1.97-1.18 0-1.92.8-1.92 2.09V164h-1.2Zm11.2 2.6c-1.77 0-2.9-.8-3.09-2.01h1.25c.13.56.79.95 1.85.95 1.32 0 2.1-.62 2.1-1.7v-1.5h-.1a2.56 2.56 0 0 1-2.32 1.28c-1.9 0-3.09-1.48-3.09-3.54v-.02c0-2.06 1.2-3.56 3.12-3.56a2.5 2.5 0 0 1 2.3 1.35h.08v-1.22h1.19v7.27c0 1.64-1.27 2.7-3.28 2.7Zm-.05-4.04c1.37 0 2.19-1.02 2.19-2.48v-.02c0-1.46-.83-2.5-2.19-2.5-1.36 0-2.13 1.04-2.13 2.5v.02c0 1.46.77 2.48 2.13 2.48Z"/>
    <path fill="#6EBD9C" d="M243.66 164.25c-2.1 0-3.94-1.5-3.94-5.06 0-3.33 1.5-5.3 3.98-5.3 1.81 0 3.16 1.07 3.48 2.58l.01.08h-1.73l-.03-.07c-.25-.69-.86-1.14-1.73-1.14-1.57 0-2.23 1.53-2.3 3.42l-.01.22h.13c.37-.78 1.23-1.47 2.58-1.47 1.9 0 3.22 1.38 3.22 3.26v.01c0 2-1.52 3.47-3.66 3.47Zm-1.97-3.45a1.96 1.96 0 1 0 3.91.04v-.01c0-1.14-.81-1.96-1.94-1.96a1.9 1.9 0 0 0-1.97 1.92v.01Zm9.62-1.34c-1.38 0-2.22-1.05-2.22-2.73 0-1.69.84-2.73 2.22-2.73 1.37 0 2.21 1.04 2.21 2.73s-.84 2.73-2.21 2.73Zm1.23 4.54h-1.41l6.66-9.86h1.41l-6.66 9.86Zm-1.23-5.53c.62 0 .98-.64.98-1.74 0-1.11-.36-1.74-.98-1.74-.63 0-.98.63-.98 1.74 0 1.1.35 1.74.98 1.74Zm7.71 5.67c-1.38 0-2.22-1.06-2.22-2.74 0-1.69.84-2.72 2.22-2.72 1.38 0 2.22 1.03 2.22 2.72 0 1.68-.84 2.74-2.22 2.74Zm0-1c.63 0 .99-.63.99-1.74 0-1.1-.36-1.73-.99-1.73-.62 0-.98.63-.98 1.73 0 1.11.36 1.75.98 1.75Z"/>
  </g>
  <defs>
    <filter id="a" width="266.5" height="36" x="6" y="6" color-interpolation-filters="sRGB" filterUnits="userSpaceOnUse">
      <feFlood flood-opacity="0" result="BackgroundImageFix"/>
      <feBlend in="SourceGraphic" in2="BackgroundImageFix" result="shape"/>
      <feGaussianBlur result="effect1_foregroundBlur_19372_215945" stdDeviation="5"/>
    </filter>
    <filter id="c" width="266.5" height="140" x="6" y="38" color-interpolation-filters="sRGB" filterUnits="userSpaceOnUse">
      <feFlood flood-opacity="0" result="BackgroundImageFix"/>
      <feBlend in="SourceGraphic" in2="BackgroundImageFix" result="shape"/>
      <feGaussianBlur result="effect1_foregroundBlur_19372_215945" stdDeviation="5"/>
    </filter>
    <clipPath id="b">
      <path fill="#fff" d="M16 16h16v16H16z"/>
    </clipPath>
  </defs>
</svg>
