<svg xmlns="http://www.w3.org/2000/svg" width="279" height="184" fill="none" viewBox="0 0 279 184">
  <rect width="277.5" height="183" x="1" y=".5" stroke="#C3C6D9" rx="7.5"/>
  <g filter="url(#a)">
    <g clip-path="url(#b)">
      <path stroke="#828599" stroke-linecap="round" stroke-linejoin="round" stroke-width="1.33" d="m23.16 25.5-.54.62a3 3 0 1 1 0-4.24l3.76 4.24a3 3 0 1 0 0-4.24l-.54.61"/>
    </g>
    <path fill="#27282E" d="M45.22 29.25c-2.35 0-3.84-1.13-3.96-2.88v-.1h1.98v.06c.08.74.88 1.24 2.04 1.24 1.1 0 1.86-.53 1.86-1.28v-.01c0-.65-.49-1.01-1.71-1.27l-1.04-.2c-2.05-.42-2.93-1.38-2.93-2.88 0-1.84 1.57-3.05 3.76-3.05 2.3 0 3.65 1.22 3.78 2.87l.01.09h-1.94l-.01-.09c-.12-.7-.8-1.2-1.84-1.2-1.02.01-1.7.48-1.7 1.22 0 .65.48 1.03 1.64 1.27l1.05.21c2.08.43 3 1.27 3 2.8v.01c0 1.96-1.53 3.2-3.99 3.2Zm8.86-.22c-1.83 0-2.57-.6-2.57-2.06v-4h-1.16v-1.5h1.16v-1.8h2.02v1.8h1.55v1.5h-1.55v3.54c0 .68.29.98.96.98.26 0 .4-.01.6-.03v1.48c-.26.05-.62.09-1 .09Zm4.71.09c-1.43 0-2.45-.9-2.45-2.26v-.01c0-1.36 1.04-2.15 2.92-2.26l1.82-.1v-.63c0-.65-.45-1.02-1.27-1.02-.72 0-1.17.25-1.33.7l-.02.03h-1.84v-.07c.16-1.32 1.4-2.19 3.3-2.19 2 0 3.12.94 3.12 2.55V29h-1.96v-1h-.13c-.38.7-1.17 1.12-2.16 1.12Zm-.5-2.38c0 .57.48.92 1.17.92.93 0 1.62-.6 1.62-1.4v-.55l-1.52.1c-.86.05-1.27.37-1.27.91v.02Zm10.03 4.9c-2.08 0-3.3-.87-3.46-2.15v-.03h1.98v.03c.12.43.63.73 1.52.73 1.07 0 1.7-.5 1.7-1.37v-1.4h-.13c-.42.8-1.21 1.22-2.26 1.22-1.9 0-3.06-1.46-3.06-3.6v-.01c0-2.22 1.17-3.7 3.1-3.7 1.03 0 1.84.5 2.24 1.34h.1v-1.23h2v7.3c0 1.76-1.45 2.88-3.73 2.88Zm.03-4.5c1.08 0 1.72-.84 1.72-2.08v-.01c0-1.24-.65-2.08-1.72-2.08-1.07 0-1.7.84-1.7 2.08v.01c0 1.24.62 2.08 1.7 2.08Zm9 2.02c-2.3 0-3.68-1.5-3.68-3.91v-.01c0-2.4 1.4-3.93 3.6-3.93 2.19 0 3.56 1.5 3.56 3.78v.62h-5.19c.02 1.24.69 1.96 1.75 1.96.87 0 1.36-.47 1.5-.76l.01-.04h1.86l-.01.07c-.23.95-1.2 2.22-3.4 2.22Zm-.05-6.35c-.87 0-1.51.58-1.64 1.65h3.25c-.12-1.1-.74-1.65-1.61-1.65Z"/>
  </g>
  <g filter="url(#c)">
    <path fill="#828599" d="M21.73 62.23c-2.68 0-4.36-1.98-4.36-5.15v-.02c0-3.17 1.67-5.16 4.35-5.16 2.08 0 3.7 1.3 4 3.2l-.01.02h-1.24v-.02a2.71 2.71 0 0 0-2.75-2.06c-1.9 0-3.08 1.56-3.08 4.02v.02c0 2.47 1.19 4.02 3.09 4.02 1.37 0 2.42-.7 2.73-1.84l.01-.01h1.24c-.32 1.81-1.88 2.98-3.98 2.98Zm5.9-.23v-7.37h1.19v1.1h.1c.29-.78.98-1.23 1.98-1.23a4 4 0 0 1 .6.05v1.15a4.28 4.28 0 0 0-.74-.06c-1.14 0-1.94.71-1.94 1.8V62h-1.2Zm5.96-8.8a.82.82 0 0 1-.82-.81c0-.45.37-.82.82-.82.45 0 .82.37.82.82 0 .45-.37.82-.82.82Zm-.6 8.8v-7.37h1.19V62h-1.2Zm6.05.05c-1.52 0-2.16-.56-2.16-1.96v-4.47h-1.16v-.99h1.16v-1.9h1.24v1.9h1.6v.99h-1.6v4.17c0 .86.3 1.21 1.06 1.21.21 0 .33 0 .55-.03V62c-.23.04-.46.06-.7.06Zm3.1-8.84a.82.82 0 0 1-.83-.82.82.82 0 0 1 1.65 0c0 .45-.37.82-.83.82Zm-.6 8.79v-7.37h1.18V62h-1.19Zm6.44.13c-2.06 0-3.38-1.5-3.38-3.84 0-2.3 1.3-3.79 3.37-3.79 1.8 0 2.87 1.03 3.09 2.35v.04h-1.18v-.02c-.2-.73-.85-1.32-1.9-1.32-1.33 0-2.17 1.07-2.17 2.73v.01c0 1.7.85 2.79 2.16 2.79 1 0 1.62-.44 1.9-1.26l.01-.04h1.18l-.02.07c-.3 1.33-1.29 2.28-3.06 2.28Zm6.84 0c-1.4 0-2.46-.85-2.46-2.19v-.01c0-1.31.97-2.07 2.69-2.18l2.11-.13v-.66c0-.91-.55-1.4-1.65-1.4-.89 0-1.47.32-1.66.9v.02h-1.2l.01-.04c.2-1.16 1.31-1.94 2.89-1.94 1.8 0 2.8.92 2.8 2.46V62h-1.19v-1.09h-.1a2.46 2.46 0 0 1-2.24 1.22Zm-1.24-2.22c0 .75.63 1.19 1.49 1.19 1.2 0 2.09-.8 2.09-1.85v-.67l-1.97.13c-1.12.06-1.61.46-1.61 1.2ZM60.59 62V51.7h1.2V62h-1.2Zm8.04-8.8a.82.82 0 0 1-.82-.81c0-.45.37-.82.82-.82.45 0 .82.37.82.82 0 .45-.37.82-.82.82Zm-.6 8.8v-7.37h1.19V62h-1.2Zm5.96.13c-1.64 0-2.77-.8-2.9-2.01h1.21c.2.62.79 1.02 1.73 1.02 1 0 1.7-.47 1.7-1.14v-.02c0-.5-.38-.84-1.29-1.06l-1.14-.28c-1.38-.32-2-.93-2-1.99 0-1.23 1.17-2.15 2.74-2.15 1.54 0 2.62.77 2.78 1.98h-1.17c-.16-.58-.73-.99-1.62-.99-.87 0-1.52.45-1.52 1.1v.02c0 .5.37.81 1.24 1.02l1.14.28c1.38.33 2.05.93 2.05 1.98v.02c0 1.31-1.27 2.22-2.95 2.22Zm7.2 0c-1.65 0-2.78-.8-2.91-2.01h1.21c.2.62.79 1.02 1.73 1.02 1 0 1.7-.47 1.7-1.14v-.02c0-.5-.38-.84-1.29-1.06l-1.14-.28c-1.38-.32-2-.93-2-1.99 0-1.23 1.17-2.15 2.74-2.15 1.54 0 2.62.77 2.78 1.98h-1.17c-.15-.58-.73-.99-1.62-.99-.87 0-1.51.45-1.51 1.1v.02c0 .5.36.81 1.23 1.02l1.14.28c1.38.33 2.05.93 2.05 1.98v.02c0 1.31-1.27 2.22-2.95 2.22Zm7.26 0c-1.68 0-2.54-.98-2.54-2.73v-4.77h1.2v4.49c0 1.32.47 1.96 1.65 1.96 1.3 0 1.99-.8 1.99-2.09v-4.36h1.18V62h-1.18v-1.1h-.11c-.37.79-1.11 1.23-2.2 1.23Zm8.71 0c-2.1 0-3.37-1.48-3.37-3.79 0-2.28 1.3-3.84 3.3-3.84 2 0 3.22 1.5 3.22 3.7v.46H95c.03 1.52.87 2.41 2.18 2.41 1 0 1.61-.47 1.81-.92l.03-.06h1.19l-.01.06c-.26 1-1.31 1.98-3.05 1.98Zm-.08-6.57c-1.1 0-1.93.75-2.06 2.15h4.08c-.12-1.46-.93-2.15-2.02-2.15Zm7.6 6.57c-1.64 0-2.77-.8-2.9-2.01H103c.2.62.78 1.02 1.72 1.02 1 0 1.7-.47 1.7-1.14v-.02c0-.5-.38-.84-1.28-1.06l-1.15-.28c-1.38-.32-2-.93-2-1.99 0-1.23 1.18-2.15 2.74-2.15 1.55 0 2.62.77 2.78 1.98h-1.17c-.15-.58-.73-.99-1.62-.99-.87 0-1.51.45-1.51 1.1v.02c0 .5.37.81 1.23 1.02l1.14.28c1.39.33 2.06.93 2.06 1.98v.02c0 1.31-1.28 2.22-2.96 2.22Z"/>
    <path fill="#FF7E7E" d="M249.62 62.2c-2.16 0-3.58-1.18-3.7-2.87l-.01-.08h1.68v.08c.1.83.87 1.43 2.03 1.43 1.14 0 1.9-.64 1.9-1.56v-.01c0-1.04-.77-1.61-2.03-1.61h-1.16v-1.32h1.12c1.1 0 1.82-.61 1.82-1.47v-.02c0-.9-.61-1.43-1.67-1.43-1.03 0-1.75.55-1.84 1.43v.07h-1.65v-.07c.16-1.71 1.5-2.83 3.5-2.83 2.02 0 3.34 1.06 3.34 2.6v.02c0 1.22-.88 2.03-2.06 2.28v.03c1.45.14 2.41 1 2.41 2.37v.01c0 1.74-1.5 2.95-3.68 2.95Zm5.59-.2v-1.19l3.24-3.3c1.34-1.36 1.72-1.86 1.72-2.62v-.02c0-.9-.63-1.57-1.65-1.57-1.05 0-1.75.7-1.75 1.71v.03h-1.65V55c0-1.84 1.43-3.12 3.49-3.12 1.92 0 3.3 1.17 3.3 2.83v.02c0 1.12-.54 2.01-2.34 3.74l-1.97 1.91v.15h4.46V62h-6.85Z"/>
    <path fill="#27282E" d="M249.62 62.2c-2.16 0-3.58-1.18-3.7-2.87l-.01-.08h1.68v.08c.1.83.87 1.43 2.03 1.43 1.14 0 1.9-.64 1.9-1.56v-.01c0-1.04-.77-1.61-2.03-1.61h-1.16v-1.32h1.12c1.1 0 1.82-.61 1.82-1.47v-.02c0-.9-.61-1.43-1.67-1.43-1.03 0-1.75.55-1.84 1.43v.07h-1.65v-.07c.16-1.71 1.5-2.83 3.5-2.83 2.02 0 3.34 1.06 3.34 2.6v.02c0 1.22-.88 2.03-2.06 2.28v.03c1.45.14 2.41 1 2.41 2.37v.01c0 1.74-1.5 2.95-3.68 2.95Zm5.59-.2v-1.19l3.24-3.3c1.34-1.36 1.72-1.86 1.72-2.62v-.02c0-.9-.63-1.57-1.65-1.57-1.05 0-1.75.7-1.75 1.71v.03h-1.65V55c0-1.84 1.43-3.12 3.49-3.12 1.92 0 3.3 1.17 3.3 2.83v.02c0 1.12-.54 2.01-2.34 3.74l-1.97 1.91v.15h4.46V62h-6.85Z"/>
    <path fill="#828599" d="M20.32 96v-8.76h-3.18v-1.1h7.59v1.1h-3.18V96h-1.23Zm5.14 0v-7.37h1.18v1.1h.11c.28-.78.97-1.23 1.97-1.23a4 4 0 0 1 .6.05v1.15a4.28 4.28 0 0 0-.73-.06c-1.14 0-1.95.71-1.95 1.8V96h-1.18Zm7.35.13c-1.4 0-2.46-.85-2.46-2.19v-.01c0-1.31.97-2.07 2.69-2.18l2.1-.13v-.66c0-.91-.55-1.4-1.65-1.4-.88 0-1.46.32-1.65.9v.02h-1.2l.01-.04c.2-1.16 1.31-1.94 2.89-1.94 1.8 0 2.8.92 2.8 2.46V96h-1.2v-1.09h-.1a2.46 2.46 0 0 1-2.23 1.22Zm-1.24-2.21c0 .74.63 1.18 1.49 1.18 1.2 0 2.09-.8 2.09-1.85v-.67l-1.97.13c-1.12.06-1.61.46-1.61 1.2Zm9.96 2.21c-2.07 0-3.39-1.5-3.39-3.84 0-2.3 1.32-3.79 3.38-3.79 1.79 0 2.86 1.03 3.08 2.35v.04h-1.17l-.01-.02c-.18-.73-.84-1.32-1.9-1.32-1.33 0-2.16 1.07-2.16 2.73v.01c0 1.7.85 2.79 2.16 2.79 1 0 1.62-.44 1.9-1.26v-.04h1.18l-.01.07c-.3 1.33-1.3 2.28-3.06 2.28Zm7.82 0c-2.1 0-3.37-1.48-3.37-3.79 0-2.28 1.3-3.84 3.3-3.84 2 0 3.22 1.5 3.22 3.7v.46h-5.3c.03 1.52.87 2.41 2.18 2.41 1 0 1.61-.47 1.81-.92l.03-.06h1.19l-.01.06c-.26 1-1.31 1.98-3.05 1.98Zm-.08-6.57c-1.1 0-1.93.75-2.06 2.15h4.08c-.13-1.46-.93-2.15-2.02-2.15Zm7.6 6.57c-1.64 0-2.77-.8-2.9-2.01h1.21c.2.62.8 1.02 1.73 1.02 1 0 1.7-.47 1.7-1.14v-.02c0-.5-.38-.84-1.29-1.06l-1.14-.28c-1.38-.32-2-.93-2-1.99 0-1.23 1.18-2.15 2.74-2.15 1.55 0 2.62.77 2.78 1.98h-1.17c-.15-.58-.73-.99-1.62-.99-.87 0-1.51.45-1.51 1.1v.02c0 .5.37.81 1.23 1.02l1.14.28c1.39.33 2.06.93 2.06 1.98v.02c0 1.31-1.28 2.22-2.96 2.22Zm7.95-10.42-3.11 12.75h-1.15l3.12-12.75h1.14Zm3.65 10.42c-1.64 0-2.77-.8-2.9-2.01h1.2c.2.62.8 1.02 1.74 1.02.99 0 1.7-.47 1.7-1.14v-.02c0-.5-.38-.84-1.3-1.06l-1.13-.28c-1.38-.32-2-.93-2-1.99 0-1.23 1.17-2.15 2.73-2.15 1.55 0 2.62.77 2.79 1.98h-1.17c-.16-.58-.73-.99-1.62-.99-.88 0-1.52.45-1.52 1.1v.02c0 .5.37.81 1.24 1.02l1.13.28c1.39.33 2.06.93 2.06 1.98v.02c0 1.31-1.28 2.22-2.95 2.22Zm7.8 0c-2.1 0-3.37-1.48-3.37-3.79 0-2.28 1.3-3.84 3.3-3.84 2 0 3.22 1.5 3.22 3.7v.46h-5.3c.03 1.52.87 2.41 2.18 2.41 1 0 1.61-.47 1.81-.92l.03-.06h1.19l-.01.06c-.26 1-1.31 1.98-3.05 1.98Zm-.08-6.57c-1.1 0-1.93.75-2.06 2.15h4.08c-.13-1.46-.93-2.15-2.02-2.15Zm8.09 6.57c-2.07 0-3.39-1.5-3.39-3.84 0-2.3 1.32-3.79 3.38-3.79 1.8 0 2.87 1.03 3.08 2.35l.01.04h-1.18v-.02c-.2-.73-.85-1.32-1.9-1.32-1.33 0-2.17 1.07-2.17 2.73v.01c0 1.7.85 2.79 2.16 2.79 1 0 1.62-.44 1.9-1.26v-.04h1.18v.07c-.31 1.33-1.3 2.28-3.07 2.28Zm7.85 0c-2.1 0-3.4-1.45-3.4-3.8v-.02c0-2.37 1.3-3.8 3.4-3.8 2.1 0 3.4 1.43 3.4 3.8v.01c0 2.36-1.3 3.81-3.4 3.81Zm0-1.05c1.4 0 2.18-1.02 2.18-2.76v-.01c0-1.74-.79-2.76-2.18-2.76-1.4 0-2.18 1.02-2.18 2.76v.01c0 1.74.78 2.76 2.18 2.76Zm5.24.92v-7.37h1.19v1.1h.1c.38-.77 1.07-1.23 2.15-1.23 1.66 0 2.58.98 2.58 2.73V96h-1.19v-4.48c0-1.33-.55-1.97-1.72-1.97-1.18 0-1.92.8-1.92 2.09V96h-1.2Zm10.9.13c-1.87 0-3.1-1.51-3.1-3.8v-.02c0-2.31 1.22-3.8 3.1-3.8 1 0 1.89.5 2.3 1.28h.1v-4.08h1.2V96h-1.2v-1.18h-.1a2.52 2.52 0 0 1-2.3 1.31Zm.27-1.05c1.34 0 2.16-1.06 2.16-2.76v-.01c0-1.7-.82-2.76-2.16-2.76-1.35 0-2.15 1.04-2.15 2.76v.01c0 1.72.8 2.76 2.15 2.76Z"/>
    <path fill="#FF7E7E" d="m237.72 96 4.28-8.31v-.11h-5.09v-1.44h6.87v1.47L239.56 96h-1.84Zm11.43.25c-2.11 0-3.94-1.5-3.94-5.06 0-3.33 1.5-5.3 3.98-5.3 1.8 0 3.16 1.07 3.47 2.58l.02.08h-1.73l-.03-.07a1.75 1.75 0 0 0-1.73-1.14c-1.57 0-2.23 1.53-2.3 3.42l-.01.22h.13c.36-.78 1.23-1.47 2.58-1.47 1.9 0 3.22 1.38 3.22 3.26v.01c0 2-1.53 3.47-3.66 3.47Zm-1.97-3.45a1.96 1.96 0 1 0 3.91.04v-.01c0-1.14-.82-1.96-1.94-1.96a1.9 1.9 0 0 0-1.97 1.92v.01Zm11.1 3.45c-2.02 0-3.38-1.23-3.5-2.85l-.02-.1h1.63v.05c.14.81.88 1.45 1.9 1.45 1.15 0 1.94-.81 1.94-1.97v-.02c0-1.14-.8-1.95-1.93-1.95a2.02 2.02 0 0 0-1.86 1.05h-1.5l.47-5.77h5.92v1.44h-4.54l-.28 3h.12a2.4 2.4 0 0 1 2.1-1.05 3.1 3.1 0 0 1 3.18 3.25v.01c0 2.05-1.5 3.46-3.63 3.46Z"/>
    <path fill="#27282E" d="m237.72 96 4.28-8.31v-.11h-5.09v-1.44h6.87v1.47L239.56 96h-1.84Zm11.43.25c-2.11 0-3.94-1.5-3.94-5.06 0-3.33 1.5-5.3 3.98-5.3 1.8 0 3.16 1.07 3.47 2.58l.02.08h-1.73l-.03-.07a1.75 1.75 0 0 0-1.73-1.14c-1.57 0-2.23 1.53-2.3 3.42l-.01.22h.13c.36-.78 1.23-1.47 2.58-1.47 1.9 0 3.22 1.38 3.22 3.26v.01c0 2-1.53 3.47-3.66 3.47Zm-1.97-3.45a1.96 1.96 0 1 0 3.91.04v-.01c0-1.14-.82-1.96-1.94-1.96a1.9 1.9 0 0 0-1.97 1.92v.01Zm11.1 3.45c-2.02 0-3.38-1.23-3.5-2.85l-.02-.1h1.63v.05c.14.81.88 1.45 1.9 1.45 1.15 0 1.94-.81 1.94-1.97v-.02c0-1.14-.8-1.95-1.93-1.95a2.02 2.02 0 0 0-1.86 1.05h-1.5l.47-5.77h5.92v1.44h-4.54l-.28 3h.12a2.4 2.4 0 0 1 2.1-1.05 3.1 3.1 0 0 1 3.18 3.25v.01c0 2.05-1.5 3.46-3.63 3.46Z"/>
    <path fill="#828599" d="m16.97 130 3.64-9.86h1.22l3.63 9.86h-1.29l-1-2.82h-3.92l-.99 2.82h-1.29Zm4.2-8.27-1.55 4.4h3.2l-1.55-4.4h-.1Zm8.26 8.4c-1.64 0-2.77-.8-2.9-2.01h1.22c.2.62.78 1.02 1.72 1.02 1 0 1.7-.47 1.7-1.14v-.02c0-.5-.38-.84-1.29-1.06l-1.14-.28c-1.38-.33-2-.93-2-1.99 0-1.23 1.18-2.15 2.74-2.15 1.55 0 2.62.77 2.78 1.98H31.1c-.15-.58-.73-.99-1.62-.99-.87 0-1.51.45-1.51 1.1v.02c0 .5.37.81 1.23 1.02l1.14.28c1.39.33 2.06.93 2.06 1.98v.02c0 1.31-1.28 2.22-2.96 2.22Zm7.2 0c-1.65 0-2.77-.8-2.91-2.01h1.22c.2.62.78 1.02 1.73 1.02.99 0 1.7-.47 1.7-1.14v-.02c0-.5-.38-.84-1.3-1.06l-1.14-.28c-1.38-.33-2-.93-2-1.99 0-1.23 1.18-2.15 2.74-2.15 1.55 0 2.62.77 2.79 1.98h-1.17c-.16-.58-.74-.99-1.62-.99-.88 0-1.52.45-1.52 1.1v.02c0 .5.37.81 1.24 1.02l1.13.28c1.39.33 2.06.93 2.06 1.98v.02c0 1.31-1.28 2.22-2.95 2.22Zm7.8 0c-2.1 0-3.38-1.48-3.38-3.79 0-2.28 1.3-3.84 3.3-3.84 2 0 3.23 1.5 3.23 3.7v.46h-5.3c.03 1.52.87 2.41 2.18 2.41 1 0 1.61-.47 1.81-.92l.03-.06h1.19l-.02.06c-.25 1-1.3 1.98-3.04 1.98Zm-.08-6.57c-1.1 0-1.93.75-2.06 2.15h4.08c-.13-1.46-.93-2.15-2.02-2.15Zm7.69 6.5c-1.52 0-2.15-.57-2.15-1.97v-4.48h-1.17v-.98h1.17v-1.9h1.23v1.9h1.61v.98h-1.61v4.17c0 .87.3 1.22 1.06 1.22.22 0 .33 0 .55-.03V130c-.23.04-.46.06-.69.06Zm4.86.07c-1.64 0-2.77-.8-2.9-2.01h1.21c.2.62.79 1.02 1.73 1.02 1 0 1.7-.47 1.7-1.14v-.02c0-.5-.38-.84-1.29-1.06l-1.14-.28c-1.38-.33-2-.93-2-1.99 0-1.23 1.17-2.15 2.74-2.15 1.54 0 2.62.77 2.78 1.98h-1.17c-.16-.58-.73-.99-1.62-.99-.87 0-1.52.45-1.52 1.1v.02c0 .5.37.81 1.24 1.02l1.14.28c1.38.33 2.05.93 2.05 1.98v.02c0 1.31-1.27 2.22-2.95 2.22Z"/>
    <path fill="#FF7E7E" d="M239.9 130.25c-2.11 0-3.94-1.5-3.94-5.06 0-3.33 1.5-5.3 3.98-5.3 1.8 0 3.16 1.07 3.47 2.58l.02.08h-1.73l-.03-.07a1.75 1.75 0 0 0-1.73-1.14c-1.57 0-2.23 1.53-2.3 3.42l-.01.22h.13c.36-.78 1.23-1.47 2.58-1.47 1.9 0 3.22 1.38 3.22 3.26v.01c0 2-1.53 3.47-3.66 3.47Zm-1.97-3.45a1.96 1.96 0 1 0 3.91.04v-.01c0-1.14-.82-1.96-1.94-1.96a1.9 1.9 0 0 0-1.97 1.92v.01Zm12.09 3.2v-1.9h-4.83v-1.44a129.7 129.7 0 0 1 4.02-6.52h2.5v6.51h1.32v1.46h-1.32V130H250Zm-3.19-3.3h3.22v-5.16h-.1a102.55 102.55 0 0 0-3.12 5.05v.1Zm11.6 3.55c-2.01 0-3.37-1.23-3.5-2.85l-.01-.1h1.63v.05c.13.81.88 1.45 1.89 1.45 1.16 0 1.95-.81 1.95-1.97v-.02c0-1.14-.8-1.95-1.94-1.95a2.02 2.02 0 0 0-1.85 1.05h-1.5l.47-5.77h5.92v1.44h-4.55l-.27 3h.12a2.4 2.4 0 0 1 2.1-1.05c1.84 0 3.17 1.36 3.17 3.25v.01c0 2.05-1.5 3.46-3.63 3.46Z"/>
    <path fill="#27282E" d="M239.9 130.25c-2.11 0-3.94-1.5-3.94-5.06 0-3.33 1.5-5.3 3.98-5.3 1.8 0 3.16 1.07 3.47 2.58l.02.08h-1.73l-.03-.07a1.75 1.75 0 0 0-1.73-1.14c-1.57 0-2.23 1.53-2.3 3.42l-.01.22h.13c.36-.78 1.23-1.47 2.58-1.47 1.9 0 3.22 1.38 3.22 3.26v.01c0 2-1.53 3.47-3.66 3.47Zm-1.97-3.45a1.96 1.96 0 1 0 3.91.04v-.01c0-1.14-.82-1.96-1.94-1.96a1.9 1.9 0 0 0-1.97 1.92v.01Zm12.09 3.2v-1.9h-4.83v-1.44a129.7 129.7 0 0 1 4.02-6.52h2.5v6.51h1.32v1.46h-1.32V130H250Zm-3.19-3.3h3.22v-5.16h-.1a102.55 102.55 0 0 0-3.12 5.05v.1Zm11.6 3.55c-2.01 0-3.37-1.23-3.5-2.85l-.01-.1h1.63v.05c.13.81.88 1.45 1.89 1.45 1.16 0 1.95-.81 1.95-1.97v-.02c0-1.14-.8-1.95-1.94-1.95a2.02 2.02 0 0 0-1.85 1.05h-1.5l.47-5.77h5.92v1.44h-4.55l-.27 3h.12a2.4 2.4 0 0 1 2.1-1.05c1.84 0 3.17 1.36 3.17 3.25v.01c0 2.05-1.5 3.46-3.63 3.46Z"/>
    <path fill="#828599" d="M21 164.23c-2.17 0-3.56-1.13-3.7-2.74l-.01-.07h1.23v.07c.1.99 1.12 1.6 2.54 1.6 1.34 0 2.32-.68 2.32-1.69 0-.83-.57-1.39-1.92-1.69l-1.1-.24c-1.97-.43-2.83-1.34-2.83-2.77 0-1.64 1.44-2.8 3.47-2.8 1.97 0 3.35 1.16 3.45 2.63v.1h-1.22l-.02-.09c-.13-.87-.95-1.5-2.24-1.5-1.23 0-2.18.59-2.18 1.62 0 .8.54 1.32 1.88 1.62l1.1.24c2.05.46 2.86 1.29 2.86 2.71 0 1.85-1.44 3-3.64 3Zm7.56-.1c-1.4 0-2.46-.85-2.46-2.19v-.01c0-1.31.97-2.07 2.68-2.18l2.12-.13v-.66c0-.91-.56-1.4-1.66-1.4-.88 0-1.46.32-1.65.9v.02h-1.2v-.04c.2-1.16 1.32-1.94 2.9-1.94 1.8 0 2.8.92 2.8 2.46V164h-1.2v-1.09h-.1a2.46 2.46 0 0 1-2.23 1.22Zm-1.25-2.22c0 .75.64 1.19 1.5 1.19 1.2 0 2.09-.8 2.09-1.85v-.67l-1.97.13c-1.12.06-1.62.46-1.62 1.2Zm6.95 2.09v-7.37h1.19v1.12h.1c.34-.8 1.03-1.25 2-1.25 1 0 1.7.53 2.04 1.3h.1c.4-.79 1.24-1.3 2.26-1.3 1.5 0 2.34.86 2.34 2.4v5.1h-1.18v-4.82c0-1.09-.5-1.63-1.54-1.63-1.03 0-1.7.78-1.7 1.71V164h-1.2v-5c0-.88-.6-1.45-1.53-1.45-.96 0-1.7.84-1.7 1.88V164h-1.18Zm12.18 2.46v-9.83h1.2v1.18h.1a2.52 2.52 0 0 1 2.3-1.3c1.86 0 3.09 1.5 3.09 3.8v.01c0 2.31-1.22 3.81-3.1 3.81-1 0-1.89-.5-2.29-1.3h-.1v3.63h-1.2Zm3.32-3.38c1.35 0 2.15-1.04 2.15-2.76v-.01c0-1.72-.8-2.76-2.15-2.76-1.34 0-2.16 1.06-2.16 2.76v.01c0 1.7.82 2.76 2.16 2.76Zm5.3.92v-10.3h1.18V164h-1.19Zm4.1-8.8a.82.82 0 0 1-.82-.81c0-.45.37-.82.82-.82.45 0 .82.37.82.82 0 .45-.37.82-.82.82Zm-.6 8.8v-7.37h1.18V164h-1.19Zm3.43 0v-7.37h1.19v1.1h.1c.37-.77 1.06-1.23 2.15-1.23 1.66 0 2.58.98 2.58 2.73V164h-1.2v-4.48c0-1.33-.54-1.97-1.71-1.97-1.18 0-1.92.8-1.92 2.09V164h-1.2Zm11.2 2.6c-1.77 0-2.9-.8-3.09-2.01h1.25c.13.56.79.95 1.85.95 1.32 0 2.1-.62 2.1-1.7v-1.5h-.1a2.56 2.56 0 0 1-2.32 1.28c-1.9 0-3.09-1.48-3.09-3.54v-.02c0-2.06 1.2-3.56 3.12-3.56a2.5 2.5 0 0 1 2.3 1.35h.08v-1.22h1.19v7.27c0 1.64-1.27 2.7-3.28 2.7Zm-.05-4.04c1.37 0 2.19-1.02 2.19-2.48v-.02c0-1.46-.83-2.5-2.19-2.5-1.36 0-2.13 1.04-2.13 2.5v.02c0 1.46.77 2.48 2.13 2.48Z"/>
    <path fill="#2DDABB" d="M245.51 164v-8.13h-.11l-2.46 1.74v-1.66l2.58-1.81h1.76V164h-1.77Zm6.59-4.54c-1.38 0-2.22-1.05-2.22-2.73 0-1.69.84-2.73 2.22-2.73 1.37 0 2.21 1.04 2.21 2.73s-.84 2.73-2.21 2.73Zm1.23 4.54h-1.41l6.66-9.86H260l-6.66 9.86Zm-1.23-5.53c.62 0 .98-.64.98-1.74 0-1.11-.36-1.74-.98-1.74-.63 0-.98.63-.98 1.74 0 1.1.35 1.74.98 1.74Zm7.71 5.67c-1.38 0-2.22-1.06-2.22-2.74 0-1.69.84-2.72 2.22-2.72 1.38 0 2.22 1.03 2.22 2.72 0 1.68-.84 2.74-2.22 2.74Zm0-1c.63 0 .99-.63.99-1.74 0-1.1-.36-1.73-.99-1.73-.62 0-.98.63-.98 1.73 0 1.11.36 1.75.98 1.75Z"/>
  </g>
  <defs>
    <filter id="a" width="266.5" height="36" x="6.5" y="6" color-interpolation-filters="sRGB" filterUnits="userSpaceOnUse">
      <feFlood flood-opacity="0" result="BackgroundImageFix"/>
      <feBlend in="SourceGraphic" in2="BackgroundImageFix" result="shape"/>
      <feGaussianBlur result="effect1_foregroundBlur_19372_219119" stdDeviation="5"/>
    </filter>
    <filter id="c" width="266.5" height="140" x="6.5" y="38" color-interpolation-filters="sRGB" filterUnits="userSpaceOnUse">
      <feFlood flood-opacity="0" result="BackgroundImageFix"/>
      <feBlend in="SourceGraphic" in2="BackgroundImageFix" result="shape"/>
      <feGaussianBlur result="effect1_foregroundBlur_19372_219119" stdDeviation="5"/>
    </filter>
    <clipPath id="b">
      <path fill="#fff" d="M16.5 16h16v16h-16z"/>
    </clipPath>
  </defs>
</svg>
