<svg xmlns="http://www.w3.org/2000/svg" width="279" height="108" fill="none" viewBox="0 0 279 108">
  <rect width="277.5" height="107" x=".5" y=".5" stroke="#C3C6D9" rx="11.5"/>
  <g filter="url(#a)">
    <path fill="#828599" d="M17.44 33.5V22.23h1.4V33.5h-1.4Zm7 .15c-1.88 0-3.17-.9-3.32-2.3h1.39c.22.7.9 1.17 1.97 1.17 1.14 0 1.94-.54 1.94-1.3v-.02c0-.57-.43-.97-1.47-1.22l-1.3-.32c-1.58-.37-2.3-1.06-2.3-2.27 0-1.4 1.35-2.46 3.14-2.46 1.77 0 3 .88 3.18 2.26h-1.33c-.18-.67-.84-1.13-1.86-1.13-1 0-1.73.52-1.73 1.26v.02c0 .57.42.93 1.41 1.17l1.3.31c1.59.38 2.35 1.07 2.35 2.27v.02c0 1.5-1.46 2.54-3.37 2.54Zm8.22 0c-1.88 0-3.17-.9-3.32-2.3h1.39c.22.7.9 1.17 1.97 1.17 1.14 0 1.94-.54 1.94-1.3v-.02c0-.57-.43-.97-1.47-1.22l-1.3-.32c-1.58-.37-2.3-1.06-2.3-2.27 0-1.4 1.35-2.46 3.14-2.46 1.77 0 3 .88 3.18 2.26h-1.34c-.17-.67-.83-1.13-1.85-1.13-1 0-1.73.52-1.73 1.26v.02c0 .57.42.93 1.41 1.17l1.3.31c1.59.38 2.35 1.07 2.35 2.27v.02c0 1.5-1.46 2.54-3.37 2.54Zm8.3 0c-1.91 0-2.9-1.13-2.9-3.12v-5.45h1.36v5.12c0 1.52.55 2.25 1.9 2.25 1.48 0 2.27-.91 2.27-2.39v-4.98h1.36v8.42h-1.36v-1.26h-.13c-.41.9-1.26 1.4-2.5 1.4Zm9.96 0c-2.4 0-3.86-1.69-3.86-4.33 0-2.6 1.49-4.39 3.78-4.39 2.28 0 3.68 1.7 3.68 4.22v.53h-6.07c.04 1.74 1 2.76 2.5 2.76 1.14 0 1.85-.54 2.07-1.05l.03-.07h1.36l-.01.06c-.3 1.14-1.5 2.27-3.48 2.27Zm-.1-7.5c-1.24 0-2.2.84-2.34 2.44h4.65c-.14-1.66-1.06-2.45-2.3-2.45Zm8.7 7.5c-1.88 0-3.17-.9-3.32-2.3h1.39c.22.7.9 1.17 1.97 1.17 1.14 0 1.94-.54 1.94-1.3v-.02c0-.57-.43-.97-1.47-1.22l-1.3-.32c-1.58-.37-2.3-1.06-2.3-2.27 0-1.4 1.35-2.46 3.14-2.46 1.77 0 3 .88 3.18 2.26h-1.34c-.18-.67-.83-1.13-1.85-1.13-1 0-1.73.52-1.73 1.26v.02c0 .57.42.93 1.41 1.17l1.3.31c1.59.38 2.35 1.07 2.35 2.27v.02c0 1.5-1.46 2.54-3.37 2.54Zm10.06-.15V21.73h1.36V33.5h-1.36Zm7.4.15c-2.4 0-3.86-1.69-3.86-4.33 0-2.6 1.49-4.39 3.78-4.39s3.68 1.7 3.68 4.22v.53h-6.06c.03 1.74 1 2.76 2.5 2.76 1.14 0 1.84-.54 2.07-1.05l.03-.07h1.36l-.02.06c-.29 1.14-1.5 2.27-3.48 2.27Zm-.09-7.5c-1.25 0-2.2.84-2.35 2.44h4.66c-.15-1.66-1.07-2.45-2.3-2.45Zm8.02 7.35-3.11-8.42h1.43l2.3 6.94h.13l2.3-6.94h1.45l-3.12 8.42H84.9Zm9.42.15c-2.4 0-3.86-1.69-3.86-4.33 0-2.6 1.48-4.39 3.77-4.39 2.3 0 3.68 1.7 3.68 4.22v.53h-6.06c.04 1.74 1 2.76 2.5 2.76 1.14 0 1.84-.54 2.07-1.05l.03-.07h1.36l-.02.06c-.28 1.14-1.49 2.27-3.47 2.27Zm-.1-7.5c-1.25 0-2.2.84-2.35 2.44h4.66c-.14-1.66-1.06-2.45-2.3-2.45Zm5.88 7.35V21.73h1.36V33.5h-1.36Z"/>
  </g>
  <g filter="url(#b)">
    <path fill="#58A5FF" d="M16 71h5v8h-5z"/>
    <path fill="#D3D6E5" d="M24 66h5v13h-5zm8-5h5v18h-5z"/>
    <path fill="#27282E" d="M47.09 79V62.09h2.62l8.3 11.65h.2V62.09h2.9V79H58.5l-8.3-11.65H50V79h-2.9Zm23.43.26c-3.84 0-6.16-2.51-6.16-6.66v-.02c0-4.12 2.35-6.63 6.16-6.63 3.82 0 6.17 2.5 6.17 6.63v.02c0 4.15-2.33 6.66-6.17 6.66Zm0-2.37c2.03 0 3.18-1.58 3.18-4.28v-.02c0-2.7-1.16-4.29-3.18-4.29-2.02 0-3.18 1.6-3.18 4.29v.02c0 2.7 1.16 4.28 3.18 4.28Zm9.1 2.11V66.2h2.92v1.96h.2c.43-1.37 1.6-2.18 3.29-2.18.44 0 .9.06 1.18.14v2.61a7.66 7.66 0 0 0-1.45-.16c-1.95 0-3.22 1.16-3.22 2.99V79h-2.92Zm10.15 0V66.2h2.91v1.98h.2c.55-1.43 1.84-2.23 3.52-2.23 1.73 0 3 .89 3.55 2.3h.2c.62-1.4 2.1-2.3 3.88-2.3 2.58 0 4.12 1.58 4.12 4.24V79h-2.92v-8.1c0-1.66-.76-2.5-2.32-2.5-1.52 0-2.5 1.13-2.5 2.6v8h-2.92v-8.3c0-1.43-.88-2.3-2.31-2.3-1.44 0-2.5 1.21-2.5 2.8V79h-2.91Zm25.33.21c-2.44 0-4.2-1.5-4.2-3.83v-.02c0-2.29 1.74-3.63 4.86-3.81l3.3-.2v-1.1c0-1.28-.84-1.98-2.41-1.98-1.34 0-2.2.48-2.5 1.32v.05h-2.76v-.1c.29-2.17 2.35-3.6 5.4-3.6 3.3 0 5.14 1.6 5.14 4.3V79h-2.88v-1.76h-.2c-.7 1.24-2.06 1.97-3.75 1.97Zm-1.32-3.97c0 1.09.92 1.73 2.21 1.73 1.76 0 3.06-1.15 3.06-2.67v-1.03l-2.88.19c-1.63.1-2.4.7-2.4 1.75v.03ZM125.56 79V61.23h2.91V79h-2.91Z"/>
  </g>
  <defs>
    <filter id="a" width="266.5" height="44" x="6" y="6" color-interpolation-filters="sRGB" filterUnits="userSpaceOnUse">
      <feFlood flood-opacity="0" result="BackgroundImageFix"/>
      <feBlend in="SourceGraphic" in2="BackgroundImageFix" result="shape"/>
      <feGaussianBlur result="effect1_foregroundBlur_19394_117331" stdDeviation="5"/>
    </filter>
    <filter id="b" width="172" height="64" x="6" y="38" color-interpolation-filters="sRGB" filterUnits="userSpaceOnUse">
      <feFlood flood-opacity="0" result="BackgroundImageFix"/>
      <feBlend in="SourceGraphic" in2="BackgroundImageFix" result="shape"/>
      <feGaussianBlur result="effect1_foregroundBlur_19394_117331" stdDeviation="5"/>
    </filter>
  </defs>
</svg>
