<svg xmlns="http://www.w3.org/2000/svg" width="279" height="108" fill="none" viewBox="0 0 279 108">
  <rect width="277.5" height="107" x=".5" y=".5" stroke="#C3C6D9" rx="11.5"/>
  <g filter="url(#a)">
    <path fill="#828599" d="M17.44 33.5V22.23h1.36L24.92 31h.13v-8.77h1.39V33.5h-1.37l-6.12-8.74h-.12v8.74h-1.4Zm15.14.15c-2.4 0-3.86-1.69-3.86-4.33 0-2.6 1.48-4.39 3.77-4.39 2.3 0 3.68 1.7 3.68 4.22v.53h-6.06c.04 1.74 1 2.76 2.5 2.76 1.14 0 1.84-.54 2.07-1.05l.03-.07h1.36l-.02.06c-.28 1.14-1.49 2.27-3.47 2.27Zm-.1-7.5c-1.25 0-2.2.84-2.35 2.44h4.66c-.14-1.66-1.06-2.45-2.3-2.45Zm7.43 7.35-2.36-8.42h1.36l1.65 6.73h.13l1.88-6.73h1.29l1.88 6.73h.13l1.65-6.73h1.35l-2.35 8.42h-1.37l-1.88-6.52h-.13l-1.87 6.52H39.9Zm15.98-10.05a.94.94 0 0 1-.94-.93.94.94 0 0 1 1.88 0c0 .51-.42.93-.94.93ZM55.2 33.5v-8.42h1.36v8.42H55.2Zm6.82.15c-1.88 0-3.17-.9-3.32-2.3h1.39c.22.7.9 1.17 1.97 1.17 1.14 0 1.94-.54 1.94-1.3v-.02c0-.57-.43-.97-1.47-1.22l-1.3-.32c-1.58-.37-2.3-1.06-2.3-2.27 0-1.4 1.35-2.46 3.14-2.46 1.77 0 3 .88 3.18 2.26h-1.34c-.18-.67-.83-1.13-1.85-1.13-1 0-1.73.52-1.73 1.26v.02c0 .57.42.93 1.41 1.17l1.3.31c1.59.38 2.35 1.07 2.35 2.27v.02c0 1.5-1.46 2.54-3.37 2.54Zm8.21 0c-1.87 0-3.16-.9-3.32-2.3h1.4c.22.7.9 1.17 1.97 1.17 1.13 0 1.94-.54 1.94-1.3v-.02c0-.57-.43-.97-1.47-1.22l-1.3-.32c-1.58-.37-2.3-1.06-2.3-2.27 0-1.4 1.35-2.46 3.14-2.46 1.76 0 3 .88 3.18 2.26h-1.34c-.18-.67-.83-1.13-1.85-1.13-1 0-1.73.52-1.73 1.26v.02c0 .57.42.93 1.41 1.17l1.3.31c1.58.38 2.35 1.07 2.35 2.27v.02c0 1.5-1.46 2.54-3.38 2.54Zm8.3 0c-1.9 0-2.89-1.13-2.89-3.12v-5.45H77v5.12c0 1.52.55 2.25 1.9 2.25 1.47 0 2.26-.91 2.26-2.39v-4.98h1.36v8.42h-1.36v-1.26h-.12c-.42.9-1.27 1.4-2.5 1.4Zm9.97 0c-2.4 0-3.86-1.69-3.86-4.33 0-2.6 1.48-4.39 3.77-4.39 2.3 0 3.68 1.7 3.68 4.22v.53h-6.06c.04 1.74 1 2.76 2.5 2.76 1.14 0 1.84-.54 2.07-1.05l.03-.07H92l-.01.06c-.3 1.14-1.5 2.27-3.48 2.27Zm-.1-7.5c-1.24 0-2.2.84-2.35 2.44h4.66c-.14-1.66-1.06-2.45-2.3-2.45Zm8.7 7.5c-1.88 0-3.17-.9-3.33-2.3h1.4c.22.7.9 1.17 1.97 1.17 1.13 0 1.94-.54 1.94-1.3v-.02c0-.57-.43-.97-1.47-1.22l-1.3-.32C94.72 29.3 94 28.6 94 27.4c0-1.4 1.35-2.46 3.14-2.46 1.76 0 3 .88 3.18 2.26h-1.34c-.18-.67-.83-1.13-1.85-1.13-1 0-1.73.52-1.73 1.26v.02c0 .57.42.93 1.41 1.17l1.3.31c1.58.38 2.35 1.07 2.35 2.27v.02c0 1.5-1.46 2.54-3.38 2.54Zm9.98 2.66V25.08h1.36v1.34h.12a2.88 2.88 0 0 1 2.63-1.49c2.13 0 3.53 1.73 3.53 4.35v.02c0 2.64-1.4 4.35-3.53 4.35a2.9 2.9 0 0 1-2.63-1.48h-.12v4.14h-1.36Zm3.8-3.86c1.53 0 2.45-1.2 2.45-3.15v-.02c0-1.96-.92-3.15-2.45-3.15-1.54 0-2.47 1.2-2.47 3.15v.02c0 1.94.93 3.15 2.47 3.15Zm9.4 1.2c-2.4 0-3.86-1.69-3.86-4.33 0-2.6 1.49-4.39 3.77-4.39 2.3 0 3.69 1.7 3.69 4.22v.53h-6.07c.04 1.74 1 2.76 2.5 2.76 1.14 0 1.85-.54 2.07-1.05l.03-.07h1.36l-.01.06c-.3 1.14-1.5 2.27-3.48 2.27Zm-.1-7.5c-1.24 0-2.2.84-2.34 2.44h4.65c-.14-1.66-1.06-2.45-2.3-2.45Zm5.8 7.35v-8.42h1.36v1.25h.13c.32-.88 1.1-1.4 2.25-1.4.26 0 .55.03.68.05v1.32a4.89 4.89 0 0 0-.84-.07c-1.3 0-2.22.82-2.22 2.05v5.22h-1.36Zm12.22 0-2.36-8.42h1.36l1.66 6.73h.12l1.89-6.73h1.29l1.88 6.73h.12l1.66-6.73h1.35l-2.36 8.42h-1.37l-1.88-6.52h-.12l-1.88 6.52h-1.36Zm13.9.15c-2.41 0-3.87-1.69-3.87-4.33 0-2.6 1.49-4.39 3.78-4.39s3.68 1.7 3.68 4.22v.53h-6.06c.03 1.74 1 2.76 2.5 2.76 1.14 0 1.84-.54 2.06-1.05l.04-.07h1.36l-.02.06c-.29 1.14-1.5 2.27-3.48 2.27Zm-.1-7.5c-1.25 0-2.2.84-2.35 2.44h4.66c-.15-1.66-1.07-2.45-2.31-2.45Zm9.23 7.5c-2.4 0-3.85-1.69-3.85-4.33 0-2.6 1.48-4.39 3.77-4.39s3.68 1.7 3.68 4.22v.53h-6.06c.03 1.74 1 2.76 2.5 2.76 1.14 0 1.84-.54 2.07-1.05l.03-.07h1.36l-.02.06c-.29 1.14-1.5 2.27-3.48 2.27Zm-.09-7.5c-1.25 0-2.2.84-2.35 2.44h4.66c-.14-1.66-1.07-2.45-2.3-2.45Zm5.88 7.35V21.73h1.35v7.03h.13l3.64-3.68h1.65l-3.67 3.54 3.91 4.88h-1.71l-3.16-3.96-.78.76v3.2h-1.36Z"/>
    <g stroke="#828599" stroke-linecap="round" stroke-linejoin="round" clip-path="url(#b)">
      <path d="m251 27.5 5-5m0 4v-4h-4m2 6V33a.5.5 0 0 1-.5.5h-8a.5.5 0 0 1-.5-.5v-8a.5.5 0 0 1 .5-.5h4.5"/>
    </g>
  </g>
  <g filter="url(#c)">
    <rect width="59" height="44" x="16" y="48" fill="#E6E8F2" rx="8"/>
    <path fill="#FF7E7E" d="M34.78 77.23c-2.91 0-4.8-1.62-4.98-3.84l-.01-.12h1.69v.1c.14 1.38 1.42 2.34 3.3 2.34 1.84 0 3.1-1.03 3.1-2.53v-.02c0-1.73-1.24-2.7-3.21-2.7H32.9v-1.48h1.7c1.67 0 2.84-1.03 2.84-2.44v-.02c0-1.47-.96-2.32-2.68-2.32-1.66 0-2.84.88-2.99 2.3l-.01.1h-1.69l.01-.1c.22-2.3 2.04-3.83 4.68-3.83 2.68 0 4.45 1.5 4.45 3.64v.02c0 1.73-1.23 2.93-2.99 3.3v.04c2.05.17 3.45 1.45 3.45 3.45v.02c0 2.36-2.07 4.1-4.9 4.1Zm12.37.1c-2.63 0-4.5-1.69-4.7-3.94l-.02-.11h1.7v.08c.17 1.35 1.39 2.42 3.04 2.42 1.87 0 3.16-1.34 3.16-3.24v-.02c0-1.88-1.3-3.22-3.13-3.22a3.29 3.29 0 0 0-3 1.7h-1.5l.74-8.1h7.84v1.58h-6.45l-.48 4.77h.15a3.49 3.49 0 0 1 3.01-1.47c2.65 0 4.55 1.98 4.55 4.7v.03c0 2.84-2.04 4.82-4.9 4.82ZM58.33 77V64.86h-.15l-3.59 2.6V65.6l3.75-2.7h1.75V77h-1.76Z"/>
    <path fill="#27282E" d="M34.78 77.23c-2.91 0-4.8-1.62-4.98-3.84l-.01-.12h1.69v.1c.14 1.38 1.42 2.34 3.3 2.34 1.84 0 3.1-1.03 3.1-2.53v-.02c0-1.73-1.24-2.7-3.21-2.7H32.9v-1.48h1.7c1.67 0 2.84-1.03 2.84-2.44v-.02c0-1.47-.96-2.32-2.68-2.32-1.66 0-2.84.88-2.99 2.3l-.01.1h-1.69l.01-.1c.22-2.3 2.04-3.83 4.68-3.83 2.68 0 4.45 1.5 4.45 3.64v.02c0 1.73-1.23 2.93-2.99 3.3v.04c2.05.17 3.45 1.45 3.45 3.45v.02c0 2.36-2.07 4.1-4.9 4.1Zm12.37.1c-2.63 0-4.5-1.69-4.7-3.94l-.02-.11h1.7v.08c.17 1.35 1.39 2.42 3.04 2.42 1.87 0 3.16-1.34 3.16-3.24v-.02c0-1.88-1.3-3.22-3.13-3.22a3.29 3.29 0 0 0-3 1.7h-1.5l.74-8.1h7.84v1.58h-6.45l-.48 4.77h.15a3.49 3.49 0 0 1 3.01-1.47c2.65 0 4.55 1.98 4.55 4.7v.03c0 2.84-2.04 4.82-4.9 4.82ZM58.33 77V64.86h-.15l-3.59 2.6V65.6l3.75-2.7h1.75V77h-1.76Z"/>
    <path fill="url(#d)" d="M167.5 48c15.43 1.2 16.39 29.72 31.67 33 12.6 2.7 18.97-12.67 31.66-11C244.6 71.8 249 87.83 262.5 92h-95V48Z"/>
    <path stroke="#2DDABB" stroke-linecap="round" stroke-linejoin="round" stroke-width="2.5" d="M262.5 92c-13.5-4.17-17.9-20.2-31.67-22-12.69-1.67-19.07 13.7-31.66 11-15.28-3.28-16.24-31.8-31.67-33"/>
  </g>
  <defs>
    <filter id="a" width="266.5" height="44" x="6" y="6" color-interpolation-filters="sRGB" filterUnits="userSpaceOnUse">
      <feFlood flood-opacity="0" result="BackgroundImageFix"/>
      <feBlend in="SourceGraphic" in2="BackgroundImageFix" result="shape"/>
      <feGaussianBlur result="effect1_foregroundBlur_19394_117371" stdDeviation="5"/>
    </filter>
    <filter id="c" width="267.75" height="66.5" x="6" y="36.75" color-interpolation-filters="sRGB" filterUnits="userSpaceOnUse">
      <feFlood flood-opacity="0" result="BackgroundImageFix"/>
      <feBlend in="SourceGraphic" in2="BackgroundImageFix" result="shape"/>
      <feGaussianBlur result="effect1_foregroundBlur_19394_117371" stdDeviation="5"/>
    </filter>
    <linearGradient id="d" x1="215" x2="215" y1="48" y2="92" gradientUnits="userSpaceOnUse">
      <stop stop-color="#12B76A" stop-opacity=".5"/>
      <stop offset="1" stop-color="#12B76A" stop-opacity="0"/>
    </linearGradient>
    <clipPath id="b">
      <path fill="#fff" d="M242.5 20h16v16h-16z"/>
    </clipPath>
  </defs>
</svg>
