<svg xmlns="http://www.w3.org/2000/svg" width="78" height="24" fill="none" viewBox="0 0 78 24">
  <path fill="#6271B6" d="M21.596 11.48c-.14-2.433-5.563-7.721-6.443-8.554-.88-.833-2.35-2.955-2.781-2.926-.454.042.262 4.318.318 7.378.056 3.06-.622 4.116-.857 4.059-.235-.057-1.031-.174-1.031-.174s-.798.115-1.03.174c-.234.059-.917-.998-.856-4.06.06-3.06.772-7.335.315-7.377-.428-.033-1.9 2.086-2.782 2.926-.881.84-6.3 6.115-6.439 8.555-.109 1.929.637 2.485 2.274 3.26 1.638.776 2.15 1.009 2.034 1.433-.116.424-1.172.6-1.23 1.639-.06 1.04.19 2.693 3.064 3.943 2.873 1.25 3.824 1.603 4.65 1.603.826 0 1.777-.348 4.65-1.603 2.874-1.255 3.006-3.272 2.955-4.31-.05-1.038-.994-.848-1.11-1.272-.117-.424.394-.657 2.032-1.432 1.637-.776 2.376-1.332 2.267-3.261Z"/>
  <path fill="#353F6E" d="M18.274 17.482c-.058-.995-.986-.812-1.102-1.217a.107.107 0 0 1 0-.028l-1.975-.521-3.698-.475s-.9.577-.632.595c.461.03.492.546.798.852.307.306 1.639 2.045 3.412 1.986 1.773-.059 2.312-1.35 2.894-.6.323.418-.521 2.35-2.101 2.836-1.58.486-2.84.994-3.661 1.217a6.854 6.854 0 0 1-2.818.102c-.922-.174-4.28-1.139-4.346-1.16.348.214.713.398 1.091.55 2.85 1.198 3.787 1.535 4.612 1.535.826 0 1.758-.336 4.604-1.54 2.845-1.205 2.98-3.141 2.922-4.132Z"/>
  <path fill="#353F6E" d="M4.732 17.032s.662 1.606 3.865 1.331c.399-.034.461-.452.57-.742.174-.47.484-.62.783-.933.29-.304.497-.793.914-.862.572-.094.614-.848.599-1.375-.047-1.608-2.128-2.985-2.128-2.985l-4.603 5.566Z"/>
  <path fill="#353F6E" d="M10.696 16.282c0-.064-.07-.088-.1-.035-.108.186-.207.61-.407.788-.26.227-.579.511-.466.808.113.297.435.09.695-.114.108-.089.174-.14.22-.174a.174.174 0 0 0 .067-.143l-.009-1.13Zm.219-.039c0-.064.07-.089.101-.034.108.185.207.611.407.787.259.228.577.51.466.808-.112.297-.435.092-.696-.113a5.237 5.237 0 0 0-.218-.174.17.17 0 0 1-.068-.142l.008-1.132Z"/>
  <path fill="#4F5DA3" d="M14.448 19.22s0 1.131-.072 1.317c.31-.07.984-.627 1.137-1.043-.325-.19-1.065-.274-1.065-.274Z"/>
  <path fill="#F3F3F3" d="M14.322 19.168c-.01.35-.046.698-.105 1.043.309-.07.856-.4 1.01-.808a2.528 2.528 0 0 0-.905-.235Z"/>
  <path fill="#353F6E" d="M17.299 19.44c-.479.395-1.262.246-2.099.023a.815.815 0 0 0-.394-.205 1.519 1.519 0 0 0-.492-.038 1.885 1.885 0 0 1-.417-.1c-1.02-.559-2.756-.556-2.756-.556s-1.507 0-2.703.562c-1.147.542-2.712.906-3.445.314a1.981 1.981 0 0 1-.522-.773c-.045-.113.097-.198.16-.097.254.408.621.58 1.118.669 1.36.242 3.02-.88 5.389-.88 2.37 0 4.16.725 5.389.88.502.064.869-.26 1.117-.67.063-.1.206-.015.16.098a1.94 1.94 0 0 1-.505.773Z"/>
  <path fill="#353F6E" d="M10.072 19.743c-.174-.124.174-.4.972-.4.739 0 1.028.24.987.348-.072.19-.636-.042-1.01-.042-.373 0-.775.215-.949.094ZM8.753.55S6.248 3.839 5.076 5.012C3.904 6.186 1.493 9.254 1 10.101c-.494.846-1.121 2.83.695 3.966-.907-2.21.833-2.856 1.39-2.753.559.102.508 2.1.508 2.1l.9 1.178 3.304-.229 1.835-2.676-.67-.625a4.729 4.729 0 0 0-2.366-.961c-1.43-.153-1.961-.107-1.961-.107s.203-1.331 1.7-1.1C5.9 8.247 5.745 4.847 8.753.55Zm4.723 2.318s.366 2.524.386 4.031c.019 1.507.367 3.844-.289 4.46-.655.618.398.87.398.87l4.044 2.505s1.013-.174 1.496-.495c.483-.322 1.266-.859 1.41-1.508-.655.668-1.217 1.17-1.67.62-.454-.552-.14-3.178-1.816-4.463.28.59-.067 1.565-.724 1.45-.657-.115-1.69-1.672-1.945-2.999-.256-1.326-1.29-4.47-1.29-4.47Z"/>
  <path fill="#F3F3F3" d="m3.31 12.42-1.739-1.536a.766.766 0 1 1 1.026-1.138l1.713 1.512a3.097 3.097 0 0 0-1 1.161Z"/>
  <path fill="#CCC" d="M10.512 14.37v.014a3.719 3.719 0 0 1-3.706 3.718 3.732 3.732 0 0 0 3.706-3.732Zm-7.437-.041c0-.087 0-.174.012-.258-.005.086-.012.17-.012.258Zm3.718 3.769a3.72 3.72 0 0 1-3.72-3.718v-.02a3.731 3.731 0 0 0 3.72 3.738Z"/>
  <path fill="#F3F3F3" d="M3.075 14.324c0-.087 0-.174.012-.257a3.75 3.75 0 0 1 3.706-3.458 3.733 3.733 0 0 1 3.719 3.745v.012a3.734 3.734 0 0 1-3.706 3.732h-.013a3.732 3.732 0 0 1-3.72-3.737l.002-.037Z"/>
  <path fill="#353F6E" d="M6.807 17.458a3.039 3.039 0 1 0 .001-6.077 3.039 3.039 0 0 0 0 6.077Z"/>
  <path fill="#F3F3F3" d="m4.059 12.38 5.787.743-.587-.743s-.828-.773-.882-.792c-.054-.02-.846-.424-1.206-.424s-1.207-.306-1.565-.125c-.358.18-1.545 1.24-1.545 1.24l-.002.101Z"/>
  <path fill="#F3F3F3" d="m9.265 12.454-3.963 2.637 3.565-1.317-1.296 1.156 2.557-.955-.863-1.52Z"/>
  <path fill="#353F6E" d="M3.485 12.24S1.89 10.8 1.841 10.747a.517.517 0 0 1-.026-.522c.103-.145.02.104.096.275.074.17 1.959 1.217 1.959 1.217l-.385.521Z"/>
  <path fill="#F3F3F3" d="m18.301 12.384 1.697-1.496a.748.748 0 0 0-.996-1.113L17.33 11.25c.413.29.747.68.971 1.133Z"/>
  <path fill="#CCC" d="M11.18 14.37v.014a3.717 3.717 0 0 0 3.706 3.718 3.73 3.73 0 0 1-3.706-3.732Zm7.436-.041c0-.087 0-.174-.012-.258.007.086.012.17.012.258ZM14.9 18.098a3.72 3.72 0 0 0 3.718-3.718v-.02a3.732 3.732 0 0 1-3.718 3.738Z"/>
  <path fill="#F3F3F3" d="M18.616 14.327c0-.087 0-.174-.012-.257a3.758 3.758 0 0 0-1.587-2.782 3.683 3.683 0 0 0-3.545-.38 3.738 3.738 0 0 0-2.013 2.027 3.742 3.742 0 0 0-.28 1.428v.013a3.731 3.731 0 0 0 3.707 3.732h.014a3.73 3.73 0 0 0 3.718-3.737c0-.024-.002-.034-.002-.044Z"/>
  <path fill="#353F6E" d="M14.868 17.458a3.038 3.038 0 1 0 0-6.077 3.038 3.038 0 0 0 0 6.077Z"/>
  <path fill="#F3F3F3" d="m17.415 12.38-5.702.847.348-.767s.982-.853 1.043-.869c.06-.015.84-.427 1.2-.427s1.206-.306 1.564-.125c.358.18 1.545 1.24 1.545 1.24l.002.101Z"/>
  <path fill="#F3F3F3" d="m17.32 12.238-3.963 2.64 3.564-1.32-1.297 1.158 2.557-.955-.862-1.523Z"/>
  <path fill="#353F6E" d="M18.242 12.316s1.596-1.44 1.645-1.492a.524.524 0 0 0 .026-.521c-.102-.144-.021.104-.098.277-.076.172-1.957 1.216-1.957 1.216l.384.52Z"/>
  <path fill="#2C2E33" fill-rule="evenodd" d="M33.249 8.589c.756 0 1.45.124 2.081.373.632.249 1.18.598 1.644 1.048.464.45.825.98 1.083 1.593.259.613.388 1.282.388 2.01 0 .727-.13 1.394-.388 2.002a4.827 4.827 0 0 1-1.09 1.593 4.917 4.917 0 0 1-1.666 1.055 5.744 5.744 0 0 1-2.095.374h-4.077V8.589h4.12Zm.043 8.598c.488 0 .94-.086 1.356-.259a3.22 3.22 0 0 0 1.091-.739c.311-.32.555-.698.732-1.134.177-.435.266-.911.266-1.428a3.628 3.628 0 0 0-1.02-2.584 3.21 3.21 0 0 0-1.112-.746 3.657 3.657 0 0 0-1.385-.258h-2.397v7.148h2.469Zm6.962-8.598h1.693v10.048h-1.694V8.589Zm12.688 8.842c-.335.258-.72.488-1.155.689a7.1 7.1 0 0 1-1.356.466c-.47.11-.934.165-1.393.165a5.294 5.294 0 0 1-3.753-1.493 5.01 5.01 0 0 1-1.127-1.643 5.076 5.076 0 0 1-.402-2.017 4.9 4.9 0 0 1 .409-2.002 5.093 5.093 0 0 1 1.141-1.63 5.201 5.201 0 0 1 1.715-1.09 5.72 5.72 0 0 1 2.117-.388c.48 0 .95.058 1.415.173.464.114.906.277 1.327.488.421.21.794.464 1.12.76l-.962 1.163a4.201 4.201 0 0 0-1.342-.854 4.144 4.144 0 0 0-1.557-.309c-.517 0-.996.096-1.436.287a3.75 3.75 0 0 0-1.163.79 3.612 3.612 0 0 0-.782 1.17 3.7 3.7 0 0 0-.28 1.442c0 .517.094 1 .28 1.45a3.671 3.671 0 0 0 1.952 1.981 3.62 3.62 0 0 0 1.443.287 4.09 4.09 0 0 0 1.457-.287c.303-.116.587-.255.854-.42v-2.882h1.478v3.704Zm2.397-8.842h1.967l3.474 6.818 3.445-6.818h1.966v10.048h-1.565l-.014-7.68-3.301 6.632h-1.077l-3.33-6.632v7.68h-1.565V8.589Zm20.345 8.623-.379-.9h-5.041l-.973 2.325h-1.765l4.435-10.048h1.737l3.77 8.624c.55 1.259-.181 2.829-.873 3.591-.022-.853-.208-1.919-.911-3.592Zm-.982-2.336-1.922-4.579-1.916 4.579h3.838Z" clip-rule="evenodd"/>
</svg>
