<svg xmlns="http://www.w3.org/2000/svg" width="360" height="168" fill="none" viewBox="0 0 360 168">
  <g clip-path="url(#a)" opacity=".5">
    <rect width="471.69" height="122.07" x="-91.28" y="22.32" fill="url(#b)" rx="8.74" transform="rotate(-15 -91.28 22.32)"/>
    <path fill="#fff" d="m-64.98 47.86-2.66-9.91 3.74-1c1.86-.5 3.52.43 4.03 2.31v.02a3.16 3.16 0 0 1-2.32 4.04l-2.5.67.94 3.54-1.23.33Zm1.06-9.73-2.19.59 1.12 4.17 2.19-.58c1.41-.38 2.02-1.37 1.67-2.68v-.01c-.35-1.3-1.38-1.87-2.8-1.49Zm9.52 7.04c-1.4.37-2.7-.2-3.06-1.54v-.01c-.35-1.32.42-2.35 2.11-2.91l2.09-.7-.18-.67c-.24-.92-.93-1.26-2.04-.97-.89.24-1.38.73-1.42 1.36v.02l-1.2.32v-.04c-.12-1.22.8-2.3 2.38-2.73 1.8-.48 3.06.18 3.48 1.72l1.35 5.07-1.2.32-.28-1.1-.11.03a2.56 2.56 0 0 1-1.92 1.83Zm-1.84-1.9c.2.75.95 1.02 1.81.8 1.22-.33 1.9-1.37 1.6-2.43l-.17-.67-1.95.66c-1.1.37-1.5.9-1.3 1.63v.02Zm8.6 2.73c-.17.04-.38.09-.55.1l-.26-.98c.15-.01.34-.05.5-.1.68-.18 1.01-.6 1.05-1.52l.02-.48-4.73-6.68 1.28-.34 3.67 5.55.1-.03.4-6.64 1.26-.33-.79 8.63c-.16 1.83-.65 2.47-1.96 2.82Zm6.3-4.47-1.98-7.4 1.2-.33.3 1.13.1-.03c.12-.89.7-1.53 1.67-1.8 1-.26 1.84.08 2.4.76l.1-.03c.2-.9.9-1.63 1.92-1.9 1.51-.41 2.59.23 3 1.78l1.38 5.12-1.2.32-1.3-4.85c-.29-1.09-.94-1.5-1.98-1.22a1.72 1.72 0 0 0-1.25 2.18l1.28 4.76-1.2.32-1.35-5.03c-.23-.88-.99-1.29-1.92-1.04-.97.26-1.48 1.3-1.2 2.35l1.23 4.59-1.2.32Zm15.3-3.96c-2.11.56-3.79-.58-4.41-2.9-.62-2.3.27-4.2 2.28-4.75 2.01-.54 3.64.63 4.23 2.84l.13.47-5.33 1.43c.44 1.52 1.52 2.19 2.84 1.84 1-.27 1.5-.91 1.58-1.41v-.07l1.2-.32v.06c.02 1.07-.77 2.34-2.52 2.8Zm-1.85-6.58c-1.1.3-1.74 1.27-1.49 2.71l4.1-1.1c-.52-1.43-1.52-1.9-2.61-1.61Zm6.83 5.1-1.98-7.4 1.2-.32.29 1.11.11-.03c.16-.88.73-1.53 1.82-1.82 1.67-.44 2.86.29 3.33 2.05l1.28 4.8-1.2.31-1.2-4.5c-.36-1.34-1.08-1.83-2.26-1.51-1.18.32-1.72 1.31-1.37 2.61l1.18 4.38-1.2.32Zm10.86-2.85c-1.52.41-2.31.02-2.7-1.4l-1.2-4.49-1.16.31-.27-.98 1.17-.32-.51-1.91 1.23-.34.52 1.92 1.62-.43.26.99-1.62.43 1.12 4.19c.24.87.63 1.14 1.4.94.22-.06.33-.1.55-.18l.27 1.02c-.22.1-.44.19-.68.25Zm9.9-2.44c-2.17.58-3.88-.19-4.46-1.76l-.02-.08 1.23-.33.03.08c.35.96 1.55 1.3 2.98.93 1.35-.36 2.14-1.32 1.87-2.33-.22-.83-.94-1.24-2.38-1.18l-1.17.05c-2.1.1-3.2-.59-3.59-2.02v-.01c-.43-1.64.7-3.19 2.74-3.74 1.98-.53 3.67.27 4.17 1.72l.03.1-1.23.32-.04-.08c-.37-.84-1.37-1.26-2.66-.9-1.23.33-2.03 1.17-1.75 2.2v.01c.2.8.9 1.18 2.32 1.12l1.17-.05c2.19-.1 3.23.52 3.61 1.95.5 1.86-.64 3.4-2.85 4Zm8.56-2.41c-2.11.57-3.79-.57-4.41-2.9-.62-2.3.27-4.2 2.28-4.75 2.02-.54 3.64.63 4.23 2.85l.13.46-5.33 1.43C5.59 27 6.68 27.67 8 27.31c1-.27 1.49-.91 1.57-1.41l.01-.07 1.2-.32v.06c.01 1.07-.78 2.34-2.53 2.81ZM6.4 21.8c-1.1.3-1.73 1.27-1.49 2.71l4.1-1.1c-.52-1.43-1.52-1.9-2.6-1.61Zm6.83 5.1-1.98-7.4 1.2-.32.29 1.1.1-.03c.08-.85.65-1.5 1.66-1.76.22-.06.49-.1.6-.11l.32 1.16c-.26.02-.5.06-.75.13-1.15.3-1.76 1.24-1.47 2.33l1.23 4.59-1.2.32Zm7.52-2.01-4.72-6.67 1.26-.34 3.66 5.56.11-.03.4-6.64 1.26-.34-.76 8.14-1.2.32Zm3.8-10.49a.86.86 0 0 1-1.05-.6.86.86 0 0 1 .6-1.04.86.86 0 0 1 1.05.6.86.86 0 0 1-.6 1.04Zm1.76 9L24.33 16l1.2-.32 1.98 7.4-1.2.32Zm6.51-1.6c-2.07.55-3.8-.6-4.43-2.95v-.01c-.62-2.3.3-4.15 2.37-4.7 1.8-.5 3.16.26 3.73 1.52l.02.04-1.19.32-.01-.02c-.38-.68-1.2-1.1-2.26-.81-1.34.36-1.89 1.65-1.44 3.32v.02c.46 1.7 1.6 2.56 2.92 2.2 1-.26 1.51-.87 1.57-1.76v-.05l1.18-.32v.08c.06 1.42-.68 2.64-2.46 3.12Zm7.87-2.11c-2.12.56-3.8-.58-4.41-2.9-.62-2.3.27-4.2 2.28-4.75 2.01-.54 3.64.63 4.23 2.84l.13.47-5.34 1.43c.45 1.52 1.53 2.19 2.85 1.84 1-.27 1.5-.91 1.58-1.41v-.07l1.2-.32v.06c.02 1.07-.77 2.34-2.52 2.8Zm-1.85-6.58c-1.1.3-1.74 1.27-1.5 2.71l4.1-1.1c-.51-1.43-1.5-1.9-2.6-1.61Zm-92.99 66.53-2.13-7.95-.12.03-1.98 2.34-.5-1.87 2.08-2.46 2.07-.56 2.66 9.92-2.08.55Zm4.78-1.28-.38-1.4 2.35-4c1.03-1.73 1.28-2.33 1.1-3.02l-.01-.03c-.23-.84-.97-1.28-1.91-1.02-.97.26-1.47 1.08-1.21 2.02v.04l-1.91.51-.02-.03c-.5-1.9.63-3.6 2.8-4.18 2.04-.55 3.78.24 4.24 1.95v.02c.3 1.12-.03 2.21-1.39 4.37l-1.37 2.2.04.16 4.37-1.17.45 1.67-7.15 1.91Zm13.55-.94L-39.15 65l1.8-.49 3.33 12.42-1.8.49Zm9.4-5.2-2.13-7.96-.13.03-1.98 2.34-.5-1.87 2.09-2.46 2.07-.56 2.65 9.92-2.07.55Zm8.6-2.04c-2.13.57-3.87-.32-4.43-1.94l-.03-.1 1.88-.5.03.04c.34.7 1.18 1.1 2.11.84a1.8 1.8 0 0 0 1.32-2.3 1.78 1.78 0 0 0-2.28-1.32 1.95 1.95 0 0 0-1.46 1.44l-1.78.47-1.11-5.99 6.2-1.66.44 1.65-4.58 1.23.5 2.89.13-.03c.22-.78.88-1.4 1.83-1.65 1.84-.5 3.54.5 4.05 2.4v.01c.56 2.09-.6 3.92-2.82 4.52Zm9.4-2.52c-2.45.66-4.48-.95-5.34-4.15v-.01c-.86-3.21.1-5.6 2.54-6.26 2.45-.66 4.47.94 5.33 4.15v.01c.86 3.2-.08 5.6-2.54 6.26Zm-.45-1.64c1.18-.31 1.49-1.82.89-4.06v-.01c-.6-2.25-1.62-3.38-2.8-3.07-1.17.32-1.48 1.8-.88 4.05v.02c.6 2.24 1.63 3.38 2.8 3.07Zm10.07-.94c-2.44.66-4.47-.95-5.33-4.15v-.01c-.86-3.21.1-5.6 2.54-6.26 2.45-.66 4.47.94 5.33 4.15v.01c.86 3.2-.08 5.6-2.54 6.26Zm-.44-1.64c1.18-.31 1.5-1.82.9-4.06l-.01-.01c-.6-2.25-1.62-3.38-2.8-3.07-1.17.32-1.48 1.8-.88 4.05v.02c.6 2.24 1.63 3.38 2.8 3.07Z"/>
    <rect width="334.05" height="122.07" x="-57.42" y="148.67" fill="url(#c)" rx="8.74" transform="rotate(-15 -57.42 148.67)"/>
    <path fill="#fff" d="m-28.55 173.52-2.36-8.8-3.2.86-.3-1.11 7.63-2.04.3 1.1-3.2.86 2.37 8.8-1.24.33Zm5.16-1.38-1.99-7.4 1.2-.32.3 1.1.1-.03c.08-.86.65-1.5 1.65-1.76.23-.06.5-.1.61-.12l.31 1.16c-.25.03-.49.06-.75.13-1.14.3-1.76 1.25-1.47 2.33l1.23 4.6-1.2.31Zm7.42-1.85c-1.4.38-2.7-.19-3.06-1.53v-.02c-.35-1.32.42-2.34 2.11-2.9l2.1-.7-.19-.68c-.24-.91-.93-1.26-2.04-.96-.88.24-1.38.72-1.42 1.35v.02l-1.2.32v-.04c-.12-1.21.8-2.3 2.38-2.72 1.8-.48 3.06.17 3.48 1.71l1.35 5.07-1.2.32-.28-1.09-.11.03a2.56 2.56 0 0 1-1.92 1.82Zm-1.84-1.89c.2.75.96 1.02 1.81.79 1.22-.33 1.9-1.36 1.6-2.42l-.17-.67-1.95.65c-1.1.37-1.5.9-1.3 1.64v.01Zm7.54.23-1.99-7.4 1.2-.33.3 1.11.1-.03c.17-.88.74-1.52 1.83-1.82 1.66-.44 2.85.3 3.33 2.05l1.28 4.8-1.2.31-1.2-4.5c-.36-1.33-1.08-1.83-2.26-1.5-1.18.3-1.72 1.3-1.37 2.6l1.17 4.39-1.2.32Zm10.8-2.76c-1.66.45-3-.05-3.47-1.23l1.22-.33c.37.56 1.07.81 2.02.56 1-.27 1.57-.93 1.4-1.6l-.01-.02c-.14-.5-.6-.75-1.58-.73l-1.22.04c-1.48.04-2.26-.4-2.55-1.46v-.01c-.33-1.23.6-2.47 2.18-2.9 1.55-.41 2.83.08 3.32 1.24l-1.17.32c-.32-.54-1-.8-1.9-.56-.87.24-1.4.87-1.22 1.52v.01c.13.5.59.72 1.52.7l1.21-.03c1.49-.04 2.32.39 2.6 1.44l.01.02c.35 1.32-.69 2.57-2.37 3.02Zm6.85-1.83c-1.41.38-2.7-.2-3.06-1.54v-.01c-.36-1.32.4-2.34 2.1-2.91l2.1-.7-.19-.67c-.24-.92-.93-1.26-2.04-.97-.88.24-1.38.73-1.42 1.36v.02l-1.2.32v-.04c-.12-1.22.8-2.3 2.38-2.72 1.8-.49 3.07.17 3.48 1.7l1.36 5.08-1.2.32-.3-1.1-.1.03a2.55 2.55 0 0 1-1.91 1.83Zm-1.85-1.9c.2.76.96 1.02 1.82.8 1.21-.33 1.88-1.37 1.6-2.42l-.18-.68-1.94.66c-1.11.37-1.5.9-1.3 1.63v.02Zm10.6-.45c-2.07.56-3.8-.6-4.43-2.94v-.02c-.62-2.3.3-4.15 2.37-4.7 1.8-.49 3.16.26 3.73 1.52l.02.04-1.19.32v-.02c-.39-.68-1.2-1.1-2.27-.8-1.33.35-1.89 1.65-1.44 3.32v.01c.46 1.7 1.6 2.57 2.93 2.22 1-.27 1.5-.88 1.56-1.78v-.04l1.18-.33v.08c.06 1.42-.68 2.64-2.45 3.12Zm7.6-2.11c-1.53.4-2.32.01-2.7-1.4l-1.2-4.5-1.17.32-.26-1 1.16-.3-.51-1.92 1.24-.33.51 1.91 1.62-.43.27.99-1.62.43 1.12 4.2c.23.87.63 1.13 1.4.93l.54-.18.27 1.02c-.22.1-.44.2-.67.26Zm.73-9.73a.86.86 0 0 1-1.05-.6.86.86 0 0 1 .6-1.05.86.86 0 0 1 1.05.6.86.86 0 0 1-.6 1.05Zm1.76 9-1.99-7.4 1.2-.33 1.98 7.4-1.2.33Zm6.53-1.61c-2.11.56-3.8-.54-4.44-2.91v-.02c-.64-2.37.27-4.17 2.38-4.74 2.11-.56 3.8.54 4.44 2.92.64 2.38-.28 4.19-2.38 4.75Zm-.29-1.06c1.4-.37 1.92-1.6 1.45-3.35v-.02c-.47-1.75-1.53-2.55-2.93-2.18-1.4.38-1.92 1.6-1.45 3.36v.01c.47 1.75 1.53 2.56 2.93 2.18Zm5.52-.48L36 148.3l1.2-.33.29 1.12.1-.03c.17-.89.74-1.53 1.83-1.83 1.66-.44 2.86.3 3.33 2.05l1.28 4.8-1.2.32-1.2-4.51c-.36-1.33-1.08-1.82-2.26-1.5-1.18.3-1.72 1.3-1.37 2.6l1.17 4.39-1.2.32Zm15.64-3.94c-2.18.58-3.88-.19-4.46-1.76l-.03-.07 1.24-.34.03.08c.35.96 1.55 1.31 2.98.93 1.34-.36 2.14-1.32 1.87-2.33-.22-.83-.94-1.24-2.38-1.18l-1.17.06c-2.1.09-3.2-.6-3.59-2.03-.43-1.65.7-3.2 2.74-3.75 1.98-.53 3.67.27 4.17 1.72l.03.1-1.24.33-.03-.09c-.37-.83-1.37-1.26-2.66-.9-1.24.33-2.03 1.17-1.76 2.21.22.8.9 1.19 2.33 1.12l1.16-.05c2.2-.09 3.24.52 3.62 1.95.5 1.86-.64 3.4-2.85 4Zm8.56-2.4c-2.11.56-3.79-.58-4.41-2.9v-.01c-.62-2.29.27-4.2 2.28-4.74s3.64.63 4.23 2.84l.13.47-5.33 1.42c.44 1.53 1.52 2.2 2.84 1.84 1-.27 1.5-.9 1.58-1.4v-.08l1.2-.32v.06c.02 1.07-.77 2.34-2.52 2.81Zm-1.85-6.59c-1.1.3-1.74 1.27-1.49 2.71l4.1-1.1c-.52-1.42-1.52-1.9-2.61-1.6Zm6.83 5.1-1.98-7.4 1.2-.32.29 1.1.1-.03c.08-.85.65-1.49 1.66-1.76.22-.06.48-.1.6-.1l.32 1.15c-.26.03-.5.06-.76.13-1.14.3-1.75 1.24-1.46 2.33l1.23 4.59-1.2.32Zm7.52-2-4.72-6.68 1.26-.34 3.66 5.56.11-.03.4-6.64 1.26-.34-.76 8.14-1.2.32Zm3.8-10.5a.86.86 0 0 1-1.05-.6.86.86 0 0 1 .6-1.04.86.86 0 0 1 .44 1.65Zm1.76 9-1.98-7.4 1.2-.32 1.98 7.4-1.2.32Zm6.51-1.6c-2.07.55-3.8-.6-4.43-2.94v-.02c-.62-2.3.3-4.15 2.37-4.7 1.8-.49 3.16.26 3.73 1.52l.02.04-1.19.32-.01-.02c-.38-.68-1.2-1.1-2.26-.8-1.34.35-1.89 1.65-1.44 3.32.46 1.71 1.6 2.58 2.92 2.22 1-.26 1.51-.87 1.57-1.77v-.05l1.18-.32v.08c.06 1.42-.68 2.64-2.46 3.12Zm7.87-2.1c-2.12.56-3.8-.58-4.41-2.9v-.01c-.62-2.29.27-4.2 2.28-4.75 2.01-.53 3.64.64 4.23 2.85l.12.46-5.33 1.43c.45 1.53 1.53 2.2 2.85 1.84 1-.27 1.5-.9 1.57-1.4l.02-.08 1.19-.32v.06c.02 1.07-.78 2.34-2.52 2.81Zm-1.85-6.59c-1.1.3-1.74 1.27-1.5 2.71l4.1-1.1c-.51-1.42-1.51-1.9-2.6-1.6Z"/>
    <rect width="128.9" height="122.07" x="273.69" y="59.95" fill="url(#d)" rx="8.74" transform="rotate(-15 273.69 59.95)"/>
    <path fill="#fff" d="M303.3 84.86c-2.18.58-3.88-.19-4.46-1.76l-.03-.08 1.24-.33.02.08c.36.96 1.56 1.31 2.99.93 1.34-.36 2.14-1.32 1.87-2.33-.22-.83-.94-1.24-2.39-1.18l-1.16.06c-2.1.09-3.2-.6-3.6-2.03-.43-1.65.7-3.2 2.75-3.75 1.97-.53 3.67.27 4.17 1.72l.03.1-1.24.33-.04-.09c-.37-.83-1.36-1.26-2.65-.9-1.24.33-2.04 1.17-1.76 2.2v.02c.21.79.9 1.18 2.33 1.11l1.16-.05c2.2-.09 3.23.52 3.62 1.95.5 1.86-.64 3.4-2.86 4Zm5.57-1.75-2.77-10.34 1.2-.32 1.08 4.05.1-.03c.17-.88.74-1.53 1.83-1.82 1.67-.45 2.86.29 3.33 2.05l1.28 4.8-1.2.31-1.2-4.5c-.36-1.34-1.08-1.83-2.26-1.51-1.18.31-1.72 1.31-1.37 2.61l1.18 4.38-1.2.32Zm10.28-2.61c-1.4.37-2.7-.2-3.06-1.54v-.01c-.35-1.32.42-2.35 2.11-2.91l2.1-.7-.19-.67c-.25-.92-.93-1.26-2.04-.97-.89.24-1.38.73-1.42 1.36v.02l-1.2.32v-.04c-.12-1.22.8-2.3 2.38-2.72 1.8-.49 3.06.17 3.48 1.7l1.35 5.08-1.2.32-.28-1.1-.11.03a2.55 2.55 0 0 1-1.92 1.83Zm-1.84-1.9c.2.75.95 1.02 1.81.8 1.22-.33 1.9-1.37 1.6-2.42l-.17-.68-1.95.66c-1.1.37-1.5.9-1.3 1.63v.02Zm7.54.23-1.99-7.4 1.2-.32.3 1.1.1-.03c.08-.86.65-1.5 1.65-1.76.23-.07.5-.1.61-.12l.31 1.16c-.25.03-.49.06-.75.13-1.14.3-1.76 1.25-1.47 2.33l1.23 4.6-1.2.31Zm8.2-2.06c-2.1.57-3.78-.57-4.4-2.9-.62-2.29.27-4.2 2.28-4.74s3.63.63 4.23 2.84l.12.47-5.33 1.42c.45 1.53 1.53 2.2 2.85 1.84 1-.27 1.5-.9 1.57-1.4l.01-.08 1.2-.32v.06c.02 1.07-.78 2.34-2.52 2.81Zm-1.84-6.58c-1.1.3-1.74 1.27-1.5 2.71l4.1-1.1c-.51-1.42-1.51-1.9-2.6-1.6Zm14.25 3.37c-2.17.58-3.88-.18-4.46-1.76l-.02-.07 1.23-.33.03.07c.35.96 1.55 1.31 2.98.93 1.35-.36 2.14-1.32 1.87-2.33-.22-.83-.94-1.24-2.38-1.18l-1.17.06c-2.1.09-3.2-.6-3.59-2.03-.43-1.65.7-3.2 2.74-3.74 1.98-.53 3.67.26 4.17 1.71l.03.1-1.23.33-.04-.09c-.37-.83-1.37-1.26-2.66-.9-1.23.33-2.03 1.17-1.75 2.21.2.8.9 1.19 2.32 1.12l1.17-.04c2.19-.1 3.23.51 3.61 1.94v.01c.5 1.85-.64 3.4-2.85 3.99Zm8.56-2.4c-2.11.56-3.79-.58-4.41-2.9v-.01c-.62-2.29.27-4.2 2.28-4.74 2.02-.54 3.64.63 4.23 2.84l.13.47-5.33 1.43c.44 1.52 1.53 2.19 2.84 1.83 1-.27 1.5-.9 1.58-1.4l.01-.08 1.2-.32v.06c.01 1.07-.78 2.35-2.53 2.81Zm-1.85-6.59c-1.1.3-1.74 1.27-1.49 2.72l4.1-1.1c-.52-1.43-1.52-1.9-2.6-1.62Zm6.83 5.11-1.98-7.4 1.2-.33.29 1.1.1-.03c.08-.85.65-1.49 1.66-1.76.22-.06.49-.1.6-.1l.32 1.15c-.26.03-.5.06-.75.13-1.14.3-1.76 1.25-1.47 2.33l1.23 4.59-1.2.32Zm7.52-2.02L361.8 61l1.26-.34 3.67 5.56.1-.03.4-6.64 1.26-.34-.76 8.14-1.2.32Zm3.8-10.48a.86.86 0 0 1-1.05-.6.86.86 0 0 1 1.65-.44.86.86 0 0 1-.6 1.04Zm1.76 9-1.98-7.41 1.2-.32 1.98 7.4-1.2.32Zm6.52-1.61c-2.08.56-3.8-.6-4.44-2.94v-.02c-.62-2.3.3-4.15 2.37-4.7 1.8-.49 3.16.26 3.73 1.52l.02.04-1.19.32v-.02c-.39-.68-1.2-1.1-2.27-.8-1.33.35-1.89 1.65-1.44 3.32v.01c.46 1.7 1.6 2.57 2.93 2.21 1-.26 1.5-.87 1.56-1.77v-.05l1.18-.32v.08c.06 1.42-.68 2.64-2.45 3.12Zm7.86-2.1c-2.11.56-3.8-.58-4.41-2.9v-.01c-.62-2.29.27-4.2 2.28-4.74s3.64.63 4.23 2.84l.13.47-5.33 1.42c.44 1.53 1.52 2.2 2.84 1.84 1-.27 1.5-.9 1.58-1.4v-.08l1.2-.32v.06c.02 1.07-.78 2.34-2.52 2.81Zm-1.85-6.59c-1.1.3-1.74 1.27-1.5 2.71l4.1-1.1c-.51-1.42-1.5-1.9-2.6-1.6Zm-75.03 51.44c-2.13.57-3.87-.32-4.43-1.94l-.03-.1 1.88-.5.03.04c.34.7 1.18 1.1 2.11.84a1.8 1.8 0 0 0 1.32-2.3 1.78 1.78 0 0 0-2.28-1.32 1.95 1.95 0 0 0-1.46 1.44l-1.78.47-1.1-5.99 6.19-1.66.44 1.65-4.58 1.23.5 2.89.13-.03c.22-.78.88-1.4 1.83-1.65 1.84-.5 3.54.51 4.05 2.4v.01c.56 2.1-.6 3.92-2.82 4.52Z"/>
    <path fill="#fff" fill-opacity=".7" d="m319.6 107.05-3.34-12.42 1.81-.48 3.33 12.42-1.8.48Zm10.8-5.3c-2.13.56-3.87-.33-4.43-1.95l-.03-.1 1.88-.5.03.05c.33.69 1.17 1.09 2.1.84a1.8 1.8 0 0 0 1.33-2.3v-.01a1.78 1.78 0 0 0-2.29-1.32 1.95 1.95 0 0 0-1.45 1.44l-1.78.48-1.12-6 6.2-1.65.44 1.65-4.58 1.22.51 2.9.12-.04c.22-.77.88-1.4 1.83-1.65a3.2 3.2 0 0 1 4.05 2.4v.02c.56 2.08-.6 3.92-2.82 4.51Zm9.27-2.53c-2.24.6-4.04-.2-4.65-1.94l-.03-.09 1.98-.53.03.07c.3.75 1.15 1.1 2.22.82 1.06-.28 1.6-1.06 1.37-1.9v-.01c-.26-.95-1.1-1.28-2.3-.96l-1.14.3-.4-1.47 1.11-.3c1.04-.28 1.57-1 1.36-1.81v-.01c-.23-.83-.94-1.18-1.91-.92-.98.26-1.49.96-1.35 1.8l.01.07-1.9.51-.02-.08c-.34-1.81.75-3.34 2.83-3.9 2.13-.57 3.8.14 4.22 1.72.33 1.25-.36 2.3-1.46 2.84l.01.05c1.52-.26 2.7.33 3.07 1.68v.01c.48 1.8-.74 3.43-3.05 4.05Zm9.46-2.5c-2.44.66-4.47-.95-5.33-4.15v-.01c-.86-3.21.1-5.6 2.54-6.26 2.45-.66 4.47.94 5.33 4.15v.01c.86 3.2-.09 5.6-2.54 6.26Zm-.44-1.64c1.18-.31 1.49-1.82.89-4.06v-.01c-.6-2.25-1.63-3.38-2.8-3.07-1.17.32-1.48 1.8-.88 4.05v.02c.6 2.24 1.62 3.38 2.8 3.07Z"/>
    <rect width="471.69" height="74.28" x="-23.56" y="275.02" fill="url(#e)" rx="8.74" transform="rotate(-15 -23.56 275.02)"/>
    <path fill="url(#f)" d="M-8 0h376v168H-8z"/>
  </g>
  <defs>
    <radialGradient id="b" cx="0" cy="0" r="1" gradientTransform="matrix(463 119 -372 1442 -91.28 22.32)" gradientUnits="userSpaceOnUse">
      <stop stop-color="#B92B2B"/>
      <stop offset="1" stop-color="#B95E2B"/>
    </radialGradient>
    <radialGradient id="c" cx="0" cy="0" r="1" gradientTransform="matrix(167 122 -164 224 -57.42 148.67)" gradientUnits="userSpaceOnUse">
      <stop stop-color="#B95E2B"/>
      <stop offset="1" stop-color="#B9A22B"/>
    </radialGradient>
    <radialGradient id="d" cx="0" cy="0" r="1" gradientTransform="matrix(64 122 -422 223 273.69 59.95)" gradientUnits="userSpaceOnUse">
      <stop stop-color="#B9A22B"/>
      <stop offset="1" stop-color="#6AB92B"/>
    </radialGradient>
    <radialGradient id="e" cx="0" cy="0" r="1" gradientTransform="matrix(236 74 -178 565 -23.56 275.02)" gradientUnits="userSpaceOnUse">
      <stop stop-color="#6AB92B"/>
      <stop offset="1" stop-color="#2BB997"/>
    </radialGradient>
    <linearGradient id="f" x1="180" x2="180" y1="0" y2="168" gradientUnits="userSpaceOnUse">
      <stop stop-color="#222326" stop-opacity=".4"/>
      <stop offset=".78" stop-color="#222326"/>
    </linearGradient>
    <clipPath id="a">
      <path fill="#fff" d="M0 0h360v168H0z"/>
    </clipPath>
  </defs>
</svg>